<?xml version="1.0" encoding="UTF-8" standalone="no"?>
<svg
   height="100"
   width="100"
   viewBox="0 0 100 100"
   version="1.1"
   id="svg1"
   xmlns="http://www.w3.org/2000/svg"
   xmlns:svg="http://www.w3.org/2000/svg">
  <defs
     id="defs1" />
  <path
     d="M 17.089844,94.11953 V 52.810936 L 15.234375,54.861717 11.425781,58.670311 7.421875,62.283592 3.125,65.603905 2.4414063,64.920311 9.375,56.717186 l 6.25,-8.203125 1.464844,-2.246094 v -0.390625 h 0.292968 l 3.710938,-5.859375 2.34375,-4.296875 2.246094,-4.492187 1.953125,-4.492188 0.878906,-2.441406 H 4.7851562 V 22.24453 H 17.089844 V 1.248436 L 23.4375,2.3226547 25,3.2992172 23.4375,4.2757797 V 22.24453 h 5.761719 l 3.125,-2.636719 5.761718,4.6875 -2.636718,1.660156 -1.074219,0.390625 -1.269531,2.832031 -2.441407,4.589844 -2.636718,4.492188 -5.175782,7.617187 H 23.4375 v 6.25 l 1.855469,1.074219 0.878906,0.488281 3.710937,-6.933594 0.683594,-1.269531 0.878906,-2.441406 0.488282,-1.269531 -0.195313,-0.09766 0.488281,-0.976562 5.371094,3.320312 0.976563,1.660157 -2.441407,0.195312 -4.199218,4.394531 -2.734375,2.539063 -1.660157,1.269531 -0.292968,0.292969 1.660156,1.171875 1.660156,1.367187 2.832031,2.832032 2.441407,3.222656 1.074218,1.660156 v 2.34375 l -1.660156,1.855469 h -2.34375 l -1.757812,-1.5625 -0.488282,-1.5625 -0.683593,-1.464844 -0.683594,-1.5625 -1.855469,-3.027344 -1.074219,-1.5625 -2.539062,-3.125 L 23.4375,54.568748 V 90.99453 Z m 21.386718,-2.441407 -1.5625,-1.074218 -3.222656,-5.566407 5.566406,-1.855468 v -54.6875 l 5.761719,1.074218 1.367188,1.074219 -1.367188,0.878906 v 49.804688 l 4.6875,-1.5625 V 4.373436 L 55.46875,5.4476547 56.933594,6.5218735 55.46875,7.4007797 V 36.892967 h 4.394531 l 3.222656,-3.613281 4.199219,3.613281 v 2.148438 H 55.46875 v 38.964843 l 5.371094,-1.5625 6.835937,-1.660156 0.292969,0.878906 -6.152344,3.417969 -12.402344,5.957031 -9.375,4.199219 -1.171875,0.488281 z m 38.28125,-0.09766 -1.367187,-0.195312 -1.269531,-0.195313 -1.269532,-0.390625 -1.269531,-0.683594 -0.976562,-0.878906 -0.878907,-0.976562 -0.683593,-1.269532 -0.390625,-1.269531 -0.195313,-1.269531 -0.09766,-1.269531 V 4.373436 l 6.347656,1.0742187 1.5625,1.0742188 -1.5625,0.8789062 V 43.533592 l 13.476563,-14.941406 0.878906,-0.976563 -0.09766,-0.09766 0.585937,-0.488281 4.296875,4.589844 0.390625,1.855468 -2.050781,-0.488281 -12.011719,9.472656 -5.371094,3.90625 -0.09766,0.09766 v 37.304687 l 0.09766,0.488281 0.09766,0.488282 0.292968,0.195312 0.390625,0.09766 0.488282,0.09766 0.683593,0.09766 h 12.695313 l 3.027344,-13.085938 h 1.074218 l -0.976562,13.085938 1.855469,1.269531 1.269531,1.855469 -1.269531,1.953125 -1.953125,1.269531 z"
     id="text1"
     style="font-size:100px;font-family:HanaMinA;text-anchor:middle"
     aria-label="䘣" />
</svg>
