<?xml version="1.0" encoding="UTF-8" standalone="no"?>
<svg
   height="100"
   width="100"
   viewBox="0 0 100 100"
   version="1.1"
   id="svg1"
   xmlns="http://www.w3.org/2000/svg"
   xmlns:svg="http://www.w3.org/2000/svg">
  <defs
     id="defs1" />
  <path
     d="m 77.832031,93.631248 v -3.125 l -10.546875,-1.5625 v -1.5625 h 10.546875 l 0.585938,-0.09766 0.488281,-0.09766 0.488281,-0.195313 0.195313,-0.195312 0.195312,-0.488281 0.09766,-0.488282 V 85.232811 29.080467 H 54.003906 l 0.390625,1.464844 1.953125,5.761719 2.441406,5.371093 2.832032,4.882813 3.320312,4.589844 3.710938,4.101562 4.296875,3.710938 6.542968,4.6875 -5.761718,4.492187 -5.078125,-4.101562 -4.394532,-4.492188 -3.90625,-4.980469 -3.320312,-5.273437 -2.734375,-5.566406 -2.050781,-6.054688 -1.269532,-4.980469 -1.855468,6.347657 -2.050782,5.175781 -2.441406,4.882812 -2.832031,4.492188 -3.320313,4.199219 -3.710937,3.90625 -4.101563,3.417968 -4.492187,3.125 -4.882813,2.636719 -0.390625,-0.78125 4.199219,-3.417969 3.710938,-3.613281 3.417968,-3.808594 3.027344,-3.90625 2.734375,-4.199218 2.34375,-4.394532 1.855469,-4.492187 1.660156,-4.882813 1.074219,-5.078125 0.585937,-3.222656 H 20.117187 v 61.425781 l -6.347656,3.125 V 23.80703 l 6.347656,3.125 H 50.097656 L 49.804687,24.783592 49.609375,17.849998 50,10.721092 H 26.367187 V 8.5726547 h 17.871094 l 5.273438,-5.2734375 6.25,5.2734375 v 2.1484373 h -4.785157 l 0.78125,7.03125 1.171875,6.640625 0.585938,2.539063 h 26.367187 l 3.222657,-2.636719 5.761718,4.785156 -2.636718,2.050781 v 54.101563 l -0.09766,1.269531 -0.195312,1.367188 -0.488281,1.269531 -0.683594,1.171875 -0.78125,1.074219 -1.074219,0.878906 -1.171875,0.683594 -1.269531,0.390625 -1.367188,0.195312 z"
     id="text1"
     style="font-size:100px;font-family:HanaMinA;text-anchor:middle"
     aria-label="內" />
</svg>
