<?xml version="1.0" encoding="UTF-8" standalone="no"?>
<svg
   height="100"
   width="100"
   viewBox="0 0 100 100"
   version="1.1"
   id="svg1"
   xmlns="http://www.w3.org/2000/svg"
   xmlns:svg="http://www.w3.org/2000/svg">
  <defs
     id="defs1" />
  <path
     d="M 75.683594,94.11953 V 46.951561 H 62.597656 v 38.28125 l -6.25,3.125 V 46.951561 H 43.164062 v 38.28125 l -6.25,3.125 V 46.951561 H 22.65625 v 42.96875 l -6.25,3.222656 V 46.951561 H 3.8085938 V 44.803123 H 16.40625 V 1.7367172 l 6.25,1.0742188 1.660156,1.0742187 L 22.65625,4.764061 V 44.803123 H 36.914062 V 5.935936 l 6.25,1.0742187 1.5625,1.0742188 -1.5625,0.8789062 V 44.803123 H 56.347656 V 5.935936 l 6.25,1.0742187 1.5625,1.0742188 -1.5625,0.8789062 V 44.803123 H 75.683594 V 0.66249847 l 6.347656,1.07421873 1.5625,1.0742188 -1.5625,0.9765625 V 44.803123 h 2.636719 l 5.273437,-5.273437 6.25,5.273437 v 2.148438 H 82.03125 V 90.99453 Z"
     id="text1"
     style="font-size:100px;font-family:HanaMinA;text-anchor:middle"
     aria-label="åŒ" />
</svg>
