<?xml version="1.0" encoding="UTF-8" standalone="no"?>
<svg
   height="100"
   width="100"
   viewBox="0 0 100 100"
   version="1.1"
   id="svg1"
   xmlns="http://www.w3.org/2000/svg"
   xmlns:svg="http://www.w3.org/2000/svg">
  <defs
     id="defs1" />
  <path
     d="m 57.421875,92.068748 -1.367188,-0.09766 -1.269531,-0.195312 -1.269531,-0.488282 -1.171875,-0.683593 -1.074219,-0.78125 -0.878906,-1.074219 -0.683594,-1.171875 -0.390625,-1.269531 -0.195312,-1.367188 -0.09766,-1.269531 v -18.75 l 6.347657,1.074219 1.5625,0.976562 -1.5625,0.976563 v 16.308593 l 0.09766,0.488282 0.195312,0.488281 0.195313,0.195312 0.488281,0.195313 0.390625,0.09766 h 0.683594 21.484375 l 3.027344,-13.085937 h 1.074218 l -0.976562,13.085937 1.855469,1.269531 1.269531,1.953125 -1.269531,1.855469 -1.953125,1.269531 z m -21.972656,-2.929687 -2.148438,-1.074219 -0.585937,-2.34375 1.074218,-2.148437 0.976563,-0.585938 0.878906,-0.878906 0.878906,-1.171875 0.976563,-1.464844 0.78125,-1.660156 0.683594,-1.953125 0.683593,-2.148438 0.488282,-2.539062 0.585937,-2.636719 0.390625,-3.027344 h 0.878906 l 0.390625,3.027344 0.292969,2.929688 v 2.636718 l -0.09766,2.539063 -0.292969,2.34375 -0.488281,2.246094 -0.683594,2.050781 -0.878906,1.855469 -1.074219,1.855468 -1.367187,1.464844 z m 58.59375,-2.832031 -2.34375,-0.488282 -1.464844,-1.855468 -0.195313,-1.855469 -0.390625,-1.855469 -0.488281,-1.660156 -0.585937,-1.757813 -0.78125,-1.757812 -1.757813,-3.417969 -2.246094,-3.417969 -1.367187,-1.660156 0.585937,-0.683594 3.710938,2.441407 1.660156,1.367187 1.5625,1.5625 1.464844,1.660156 1.269531,1.660157 1.074219,1.855468 1.074219,1.953125 0.878906,2.050782 0.683594,2.050781 -0.390625,2.34375 z M 69.53125,77.908592 67.773437,76.346092 67.285156,74.881248 66.796875,73.416405 66.210937,72.049217 65.625,70.779686 64.84375,69.412498 63.183594,66.873436 61.328125,64.43203 l -1.269531,-1.074219 0.585937,-0.78125 1.464844,0.683594 1.5625,0.683593 1.464844,0.878907 1.367187,0.976562 1.367188,1.074219 1.269531,1.171875 2.34375,2.636719 1.074219,1.5625 0.976562,1.5625 v 2.34375 l -1.5625,1.757812 z M 5.9570312,74.881248 V 13.65078 l 6.3476568,3.222656 h 12.597656 l 3.125,-2.636719 5.761718,4.6875 L 31.25,21.072655 v 47.460937 l -6.347656,3.125 v -6.25 H 12.304688 v 6.25 z M 12.304688,63.260155 H 24.902344 V 18.924217 H 12.304688 Z M 34.960937,58.96328 V 56.912498 H 54.589844 V 41.971092 h -8.789063 v 6.25 l -6.347656,3.125 V 17.947655 l 6.347656,3.125 h 8.398438 V 9.842186 H 35.253906 V 7.7914047 H 82.226562 L 87.402344,2.5179672 93.75,7.7914047 V 9.842186 H 75.195312 v 11.230469 h 8.007813 l 3.222656,-2.636719 5.761719,4.785156 -2.636719,2.050781 v 19.824219 l -6.347656,3.125 v -6.25 h -8.007813 v 14.941406 h 8.496094 l 5.175781,-5.273437 6.347657,5.273437 v 2.050782 z m 25.878907,-2.050782 h 8.105468 V 36.697655 l 6.25,3.125 h 8.007813 V 23.221092 h -8.007813 v 1.074219 l -6.25,3.125 V 9.842186 h -8.398437 v 14.453125 l -6.347656,3.125 v -4.199219 h -8.398438 v 16.601563 h 8.789063 l 3.125,-2.636719 5.761718,4.785156 -2.636718,2.050781 z"
     id="text1"
     style="font-size:100px;font-family:HanaMinA;text-anchor:middle"
     aria-label="å™" />
</svg>
