<?xml version="1.0" encoding="UTF-8" standalone="no"?>
<svg
   height="100"
   width="100"
   viewBox="0 0 100 100"
   version="1.1"
   id="svg1"
   xmlns="http://www.w3.org/2000/svg"
   xmlns:svg="http://www.w3.org/2000/svg">
  <defs
     id="defs1" />
  <path
     d="M 43.066406,93.631248 V 48.514061 l 6.347656,3.125 H 59.765625 V 1.248436 l 6.347656,1.0742187 1.5625,0.9765625 -1.5625,0.9765625 V 23.318748 h 18.945313 l 5.273437,-5.273437 6.25,5.273437 v 2.050782 h -30.46875 v 26.269531 h 17.285156 l 3.125,-2.636719 5.761719,4.6875 -2.636719,2.148438 v 31.542968 l -6.25,3.125 V 84.158592 H 49.414062 v 6.347656 z M 49.414062,82.107811 H 83.398437 V 53.689842 H 49.414062 Z M 8.6914063,80.154686 7.1289062,79.080467 3.90625,73.514061 18.75,68.533592 V 33.767967 H 5.5664062 V 31.717186 H 18.75 V 6.5218735 l 6.347656,0.9765625 1.5625,1.0742187 -1.5625,0.9765625 V 31.717186 h 2.539063 l 5.273437,-5.273438 6.25,5.273438 v 2.050781 h -14.0625 v 32.519531 l 10.058594,-3.320312 4.296875,-1.269531 0.390625,0.878906 -7.617188,4.199219 -13.574218,6.933593 -8.886719,4.101563 -0.5859375,0.292969 z"
     id="text1"
     style="font-size:100px;font-family:HanaMinA;text-anchor:middle"
     aria-label="å«" />
</svg>
