<?xml version="1.0" encoding="UTF-8" standalone="no"?>
<svg
   height="100"
   width="100"
   viewBox="0 0 100 100"
   version="1.1"
   id="svg1"
   xmlns="http://www.w3.org/2000/svg"
   xmlns:svg="http://www.w3.org/2000/svg">
  <defs
     id="defs1" />
  <path
     d="m 43.164062,93.631248 -0.195312,-0.976562 6.445312,-2.246094 6.054688,-2.636719 5.566406,-3.027343 5.175781,-3.613282 4.6875,-4.101562 4.003907,-4.199219 -1.953125,-0.09766 -1.660157,-1.757813 -0.585937,-2.441406 -0.488281,-1.171875 -1.171875,-2.441406 -1.660157,-2.441406 -2.148437,-2.441407 -0.683594,-0.488281 -2.539062,2.441406 -3.027344,2.539063 -3.125,2.34375 -3.320313,2.050781 -3.515625,1.757813 -0.488281,-0.78125 5.566406,-5.175782 2.636719,-2.734375 4.785156,-5.664062 2.148438,-3.027344 1.953125,-3.125 1.953125,-3.320312 1.660156,-3.417969 1.464844,-3.222656 -4.199219,3.90625 -4.6875,3.808593 -4.980469,3.417969 -5.273437,2.832031 -5.664063,2.539063 V 56.521873 L 45.3125,64.627342 44.628906,70.974998 43.75,76.541405 l -1.074219,4.589843 -1.367187,3.808594 -1.757813,3.027344 -0.878906,0.976562 -0.878906,0.976563 -0.878907,0.78125 -1.074218,0.683594 -1.074219,0.683593 -1.171875,0.488282 -1.171875,0.390625 -1.269531,0.292968 -1.269532,0.09766 -1.269531,0.09766 v -3.125 l -8.398437,-1.5625 V 87.08828 h 8.398437 l 1.464844,-0.09766 0.683594,-0.09766 0.585937,-0.195312 0.585938,-0.292969 0.585937,-0.292969 0.488281,-0.390625 0.585938,-0.390625 0.878906,-1.171875 1.074219,-1.757812 1.074219,-3.027344 0.976562,-4.101563 0.78125,-5.078125 0.683594,-6.152343 0.488281,-7.128907 0.292969,-8.105468 0.09766,-9.082032 V 29.666405 l -0.09766,-5.957032 h -0.09766 V 19.510155 H 18.359375 l -1.074219,3.125 -1.953125,4.199218 -2.148437,4.296875 -1.269531,2.246094 5.566406,2.832031 h 7.910156 l 3.222656,-2.636718 5.761719,4.6875 -2.636719,2.148437 v 26.757813 l -6.347656,3.125 v -6.25 h -7.910156 v 6.25 l -6.25,3.222656 V 34.646873 l -3.3203128,5.273438 -3.125,4.492187 -0.8789062,-0.488281 4.296875,-9.765625 3.515625,-8.886719 1.367188,-4.101562 1.074218,-4.101563 0.78125,-3.808593 0.585938,-3.6132815 0.390625,-3.515625 V 2.9085922 l 0.09766,-1.2695312 6.25,1.4648437 1.464844,1.0742188 -1.757813,0.9765625 -0.195312,1.6601562 -0.683594,3.8085938 -0.976563,3.90625 -0.976562,2.929687 h 20.605469 l 3.125,-2.636718 5.761718,4.6875 -2.539062,1.5625 0.09766,8.496093 0.09766,10.15625 -0.195312,9.277344 -0.195313,6.542969 4.589844,-3.027344 4.6875,-3.515625 4.492188,-3.808594 4.101562,-3.90625 3.90625,-4.394531 2.832031,-3.710937 -2.148437,0.195312 -1.953125,-1.464844 -0.878906,-2.246093 -0.488282,-1.074219 -0.585937,-1.074219 -1.464844,-2.148437 -2.441406,-3.125 -1.367188,1.660156 -2.441406,2.636719 -2.636719,2.441406 -2.929687,2.246094 -2.929688,1.953125 -0.683593,-0.683594 4.492187,-5.46875 4.003906,-5.566406 1.757813,-2.832032 1.660156,-3.027343 1.464844,-3.027344 1.367187,-3.2226563 1.171875,-3.2226562 1.367188,-4.1992188 5.761719,2.8320313 1.074218,1.4648437 -1.855468,0.390625 -2.050782,4.3945313 h 14.453125 l 3.125,-2.6367188 5.761719,4.6874998 -2.539062,1.5625 -1.171875,0.488281 -1.953125,4.199219 -3.125,5.664063 -3.515625,5.371093 L 75,35.330467 l -3.613281,4.101563 5.175781,3.027343 0.976562,1.5625 -1.953125,0.292969 -2.734375,4.6875 h 15.625 l 3.125,-2.636719 5.761719,4.6875 -2.636719,1.5625 -1.171875,0.488282 -2.34375,5.078125 -3.710937,6.445312 -4.101563,5.859375 -4.589843,5.273438 -4.980469,4.6875 -5.371094,3.90625 -5.761719,3.320312 -6.152343,2.734375 L 50,92.361717 Z m 33.984375,-23.632812 1.953125,-2.636719 3.613282,-5.566406 3.125,-6.25 1.953125,-4.492188 h -16.40625 l -1.367188,2.050782 -2.441406,3.125 -2.148438,2.34375 2.246094,1.074218 1.464844,0.78125 1.464844,0.878907 1.367187,0.976562 1.269531,1.074219 1.074219,1.269531 1.074219,1.269531 0.976562,1.367188 0.78125,1.464844 z M 17.480469,61.892967 h 7.910156 V 38.260155 h -7.910156 z m 54.6875,-31.054687 2.246093,-3.320313 3.027344,-5.273437 2.636719,-5.566407 1.464844,-3.613281 H 66.601562 l -2.929687,5.078125 -2.148438,2.929688 0.976563,0.390625 1.367187,0.585937 1.367188,0.78125 2.539062,1.757813 1.171875,0.976562 2.050782,2.148438 0.976562,1.171875 z"
     id="text1"
     style="font-size:100px;font-family:HanaMinA;text-anchor:middle"
     aria-label="够" />
</svg>
