<?xml version="1.0" encoding="UTF-8" standalone="no"?>
<svg
   height="100"
   width="100"
   viewBox="0 0 100 100"
   version="1.1"
   id="svg1"
   xmlns="http://www.w3.org/2000/svg"
   xmlns:svg="http://www.w3.org/2000/svg">
  <defs
     id="defs1" />
  <path
     d="M 16.40625,94.217186 V 74.392967 l 6.25,1.074219 1.660156,1.074219 -1.660156,0.878906 V 87.478905 H 46.875 v -15.625 H 5.3710937 V 69.803123 H 46.875 V 59.549217 H 26.5625 l -1.269531,0.976563 -2.34375,1.5625 -2.636719,1.660156 -2.734375,1.464844 -2.929687,1.367187 -3.125,1.269531 -3.320313,0.976563 -0.390625,-0.78125 10.253906,-7.617188 4.101563,-3.613281 1.757812,-1.855469 3.027344,-3.710937 0.976562,-1.464844 0.585938,-0.78125 4.785156,4.003906 0.683594,1.855469 -2.050781,-0.195312 -2.34375,2.246093 -0.585938,0.585938 h 47.65625 l 4.296875,-4.785156 5.273438,4.785156 v 2.050781 H 53.125 v 10.253906 h 29.980469 l 5.175781,-5.273437 6.347656,5.273437 v 2.050782 H 53.125 v 15.625 H 77.34375 V 74.392967 l 6.25,1.074219 1.5625,1.074219 -1.5625,0.878906 v 13.183594 l -6.25,3.125 v -4.199219 h -54.6875 v 1.5625 z M 8.3984375,48.514061 V 46.365623 H 46.875 V 36.209373 H 22.363281 V 34.060936 H 46.875 V 23.904686 H 19.53125 v -2.050781 h 51.367187 l 4.296875,-4.785157 3.808594,3.515625 3.515625,-4.980468 1.269531,-1.953125 h -67.1875 v 0.976562 l -0.195312,1.855469 -0.292969,1.855469 -0.585937,1.660156 -0.78125,1.5625 -1.074219,1.464844 -1.269531,1.269531 -1.5625,1.074219 -2.4414065,0.09766 -1.7578125,-1.5625 -0.097656,-2.441406 1.6601563,-1.757813 0.9765625,-0.292969 0.8789065,-0.390625 0.78125,-0.585937 0.878906,-0.78125 0.78125,-0.976563 0.683594,-1.171875 0.683594,-1.367187 0.585937,-1.660156 0.488281,-1.855469 0.09766,-2.0507813 0.976562,-0.097656 0.292969,2.1484375 0.09766,0.976562 H 46.875 V 1.1507797 l 6.25,1.0742188 1.5625,0.9765625 -1.5625,0.9765625 v 7.4218745 h 31.640625 l 0.390625,-0.292968 0.292969,-0.585938 0.195312,0.09766 2.246094,-1.8554683 5.761719,4.6875003 -2.636719,1.5625 -3.320313,1.464843 -2.441406,1.757813 -4.003906,2.539062 -1.074219,0.585938 0.292969,0.292969 v 2.050781 H 53.125 v 10.15625 h 14.84375 l 4.296875,-4.6875 5.273437,4.6875 v 2.148437 H 53.125 v 10.15625 h 28.90625 l 4.296875,-4.6875 5.273437,4.6875 v 2.148438 z"
     id="text1"
     style="font-size:100px;font-family:HanaMinA;text-anchor:middle"
     aria-label="寚" />
</svg>
