<?xml version="1.0" encoding="UTF-8" standalone="no"?>
<svg
   height="100"
   width="100"
   viewBox="0 0 100 100"
   version="1.1"
   id="svg1"
   xmlns="http://www.w3.org/2000/svg"
   xmlns:svg="http://www.w3.org/2000/svg">
  <defs
     id="defs1" />
  <path
     d="m 68.75,6.6195297 0.976562,-1.2695312 0.195313,0.1953125 2.050781,-1.5625 5.761719,4.6875 -2.636719,1.5625 L 68.75,12.86953 v -0.09766 l -0.78125,0.292969 -1.464844,0.488281 -1.367187,0.390625 h 15.039062 l 3.125,-2.539062 5.761719,4.6875 -2.636719,2.148437 v 5.273438 l -6.25,3.222656 V 23.514061 H 46.875 l -2.734375,1.367187 4.492187,0.78125 1.5625,1.074219 -1.5625,0.878906 v 3.90625 h 8.007813 l 3.222656,-3.710937 4.199219,3.710937 v 2.148438 H 48.632812 v 6.835937 l 4.980469,-0.585937 3.515625,-0.390625 3.613281,-0.292969 3.90625,-0.292969 0.195313,0.976563 -7.226563,2.34375 -20.019531,5.761719 -0.09766,0.09766 -0.78125,1.953125 -1.367188,-1.367188 -1.757812,-4.003906 -5.957031,4.492188 -4.296875,2.832031 V 84.74453 l -0.09766,1.269531 -0.195312,1.367187 -0.390625,1.171875 -0.683594,1.269532 -0.878906,1.074218 -0.976563,0.78125 -1.269531,0.683594 -1.269531,0.390625 -1.269531,0.292969 -1.367188,0.09766 v -3.222656 l -7.3242185,-1.5625 v -1.5625 H 14.941406 15.625 l 0.488281,-0.09766 0.488281,-0.195313 0.195313,-0.195312 0.09766,-0.488282 0.09766,-0.488281 0.09766,-0.585937 V 56.033592 L 10.546875,59.842186 9.5703125,60.428123 9.2773438,62.478905 7.7148437,61.502342 3.8085938,56.424217 16.894531,50.36953 17.089844,50.271873 V 24.881248 H 5.46875 V 22.732811 H 17.089844 V 2.3226547 l 6.25,0.9765625 L 25,4.373436 23.339844,5.3499985 V 22.732811 h 2.441406 l 4.296875,-4.6875 5.273437,4.6875 v 2.148437 H 23.339844 v 22.460938 l 8.691406,-3.808594 0.976562,-0.390625 -0.09766,-0.292969 0.976563,-0.292968 0.585937,-0.09766 0.585938,-0.195312 0.09766,0.09766 6.152344,-0.878906 1.074218,-0.09766 V 25.857811 L 40.625,26.736717 v -9.765625 l -3.613281,1.464844 -3.710938,1.269531 -0.390625,-0.878906 7.714844,-5.371094 v -2.636719 l 2.148437,1.171875 4.003907,-3.0273433 4.003906,-3.4179687 2.929687,-3.0273438 0.78125,-0.8789062 0.488282,-0.68359378 4.589843,4.39453128 0.292969,1.2695312 z M 72.460937,90.896873 71.09375,90.799217 69.726562,90.506248 68.457031,90.115623 67.285156,89.529686 66.210937,88.553123 65.429687,87.576561 64.746094,86.404686 64.257812,85.135155 64.0625,83.865623 V 82.498436 72.049217 l -1.367188,2.539063 -3.027343,4.199218 -3.515625,3.710938 -3.90625,3.222656 -4.492188,2.832031 -4.882812,2.34375 -5.273438,1.757813 -5.761719,1.367187 -0.195312,-0.976562 5.273437,-2.246094 4.785157,-2.441406 4.296875,-2.734375 3.710937,-2.929688 3.320313,-3.320312 2.734375,-3.515625 2.34375,-3.808594 1.074218,-2.441406 H 47.558594 l -6.25,3.222656 V 59.256248 l -1.5625,0.585938 -3.808594,1.171875 -4.003906,1.074219 -0.390625,-0.78125 9.765625,-5.664063 v -0.78125 l 0.683593,0.390625 5.273438,-3.320312 4.492187,-3.320313 1.757813,-1.5625 1.464844,-1.464844 1.171875,-1.464843 0.292968,-0.292969 4.394532,4.492187 0.488281,1.855469 -2.050781,-0.390625 -1.074219,0.78125 h 11.621094 l 0.390625,-0.292969 0.488281,-0.78125 0.195312,0.195313 2.050782,-1.757813 5.859375,4.785157 -2.636719,1.5625 -6.347656,2.636718 -2.832032,1.074219 -0.09766,0.09766 H 81.152344 L 84.375,55.447655 90.136719,60.135155 87.5,62.283592 v 7.324219 l -6.347656,3.222656 V 69.607811 H 65.234375 l -0.78125,1.757812 5.859375,0.976563 1.5625,1.074219 -1.5625,0.878906 v 8.789062 l 0.09766,0.488282 0.09766,0.292968 0.09766,0.195313 0.09766,0.09766 0.09766,0.09766 0.195313,0.09766 0.292968,0.09766 h 0.488282 l 0.683593,0.09766 H 89.550781 L 92.578125,71.46328 h 1.074219 l -0.976563,13.085937 1.757813,1.269531 1.269531,1.855469 -1.269531,1.953125 -1.855469,1.269531 z m 9.863282,-9.082031 -2.246094,-0.878906 -0.585938,-1.074219 -1.074218,-1.269531 -1.367188,-1.5625 -2.636719,-2.734375 -1.171875,-0.78125 0.390625,-0.78125 L 75,73.221092 l 1.269531,0.390625 1.269531,0.292969 2.34375,0.683594 0.976563,0.390625 0.976562,0.292968 1.660157,0.683594 0.78125,0.390625 0.976562,2.246094 -0.78125,2.246094 z M 47.558594,67.55703 h 12.5 l 1.269531,-4.199219 0.683594,-3.222656 H 47.558594 Z m 18.554687,0 H 81.152344 V 60.135155 H 68.359375 l -1.269531,4.882812 z M 47.558594,58.084373 h 15.527343 l 0.390625,-0.292968 3.125,-3.027344 1.757813,-1.953125 0.09766,-0.09766 h -13.28125 l -2.929687,1.660156 -5.664063,2.832031 -0.390625,0.195313 z M 73.535156,45.779686 72.363281,45.68203 71.191406,45.486717 70.019531,44.998436 69.042969,44.217186 68.066406,43.33828 67.382812,42.264061 66.894531,40.99453 66.601562,39.724998 66.40625,38.455467 V 24.58828 l 6.25,1.074218 1.5625,1.074219 -1.5625,0.878906 v 4.6875 l 6.347656,-1.953125 3.417969,-1.171875 3.90625,-1.464843 -0.09766,-0.09766 0.195312,0.09766 0.390625,-0.195313 0.195313,0.683594 5.175781,4.394531 0.195312,1.5625 -2.246093,-0.976562 -1.660157,0.488281 -1.660156,0.195312 -3.417969,0.292969 -3.710937,0.195313 H 75.878906 73.828125 L 72.65625,34.158592 v 4.296875 0.585938 0.976562 0.292969 l 0.09766,0.195312 0.09766,0.292969 0.292969,0.195313 0.292969,0.292968 0.585937,0.195313 0.78125,0.09766 h 15.917969 l 1.855469,-4.6875 h 1.074219 l -0.976563,4.785156 1.171875,0.78125 0.78125,1.269532 -0.78125,1.269531 -1.269531,0.78125 z M 46.875,21.46328 H 80.175781 V 16.092186 H 46.875 Z m 0,-7.519532 h 13.671875 l 0.390625,-0.195312 3.90625,-3.125 2.148437,-1.8554688 V 8.670311 H 55.46875 l -1.464844,1.0742187 -4.6875,2.9296873 z"
     id="text1"
     style="font-size:100px;font-family:HanaMinA;text-anchor:middle"
     aria-label="攙" />
</svg>
