<?xml version="1.0" encoding="UTF-8" standalone="no"?>
<svg
   height="100"
   width="100"
   viewBox="0 0 100 100"
   version="1.1"
   id="svg1"
   xmlns="http://www.w3.org/2000/svg"
   xmlns:svg="http://www.w3.org/2000/svg">
  <defs
     id="defs1" />
  <path
     d="M 20.019531,94.11953 V 44.510155 l -2.929687,7.519531 -2.148438,4.492187 -2.246093,4.394532 -2.539063,4.199218 -2.6367188,3.90625 -2.9296875,3.808594 -0.7812499,-0.488281 3.9062499,-8.59375 3.6132813,-8.789063 3.027344,-9.179687 1.269531,-4.6875 1.171875,-4.785156 0.976562,-4.980469 0.585938,-3.320313 H 4.1992187 V 25.955467 H 20.019531 V 2.3226547 l 6.347656,0.9765625 1.5625,1.0742188 -1.5625,0.9765625 V 25.955467 H 31.25 l 4.296875,-4.785156 5.175781,4.785156 v 2.050781 H 26.367187 v 12.304688 l 2.050782,0.683594 1.757812,0.683593 1.5625,0.78125 1.660156,0.878907 1.464844,0.976562 1.464844,1.074219 1.367187,1.171875 1.269532,1.171875 1.171875,1.367187 0.390625,2.34375 -1.269532,1.953125 -2.34375,0.488282 -2.050781,-1.269532 -0.585937,-1.269531 -0.78125,-1.269531 -0.78125,-1.269531 -0.878907,-1.171875 -2.148437,-2.34375 -2.34375,-2.34375 -0.976563,-0.878907 V 90.99453 Z M 81.25,82.596092 v -3.125 l -5.175781,-1.5625 v -1.5625 H 81.25 l 0.683594,-0.09766 0.488281,-0.09766 0.488281,-0.195313 0.195313,-0.195312 0.195312,-0.488282 0.09766,-0.390625 V 41.092186 H 70.703125 V 90.99453 l -6.25,3.125 V 41.092186 H 51.757812 V 79.959373 L 45.410156,83.18203 V 35.916405 l 6.347656,3.125 H 64.453125 V 22.24453 H 38.867187 V 20.096092 H 64.453125 V 1.7367172 l 6.25,1.0742188 1.5625,1.0742187 -1.5625,0.8789063 V 20.096092 H 86.71875 l 4.296875,-4.6875 5.273437,4.6875 V 22.24453 H 70.703125 v 16.796875 h 12.695312 l 3.125,-2.636719 5.761719,4.6875 -2.636719,2.148437 v 30.957032 1.367187 l -0.195312,1.269531 -0.488281,1.269532 -0.683594,1.171875 -0.78125,1.074218 -1.074219,0.878907 -1.171875,0.683593 -1.269531,0.390625 -1.367188,0.195313 z"
     id="text1"
     style="font-size:100px;font-family:HanaMinA;text-anchor:middle"
     aria-label="æ®" />
</svg>
