<?xml version="1.0" encoding="UTF-8" standalone="no"?>
<svg
   height="100"
   width="100"
   viewBox="0 0 100 100"
   version="1.1"
   id="svg1"
   xmlns="http://www.w3.org/2000/svg"
   xmlns:svg="http://www.w3.org/2000/svg">
  <defs
     id="defs1" />
  <path
     d="M 18.457031,94.217186 V 45.974998 L 16.015625,52.517967 14.0625,56.912498 11.914063,61.209373 9.5703125,65.408592 7.03125,69.412498 4.1992187,73.123436 3.4179688,72.635155 8.7890625,59.842186 l 3.1250005,-8.886719 1.269531,-4.589844 1.269531,-4.6875 1.074219,-4.785156 0.878906,-4.785156 0.488281,-3.417969 H 3.8085938 V 26.639061 H 18.457031 v -23.4375 l 6.347656,1.0742187 1.5625,1.0742188 -1.5625,0.8789062 V 26.639061 h 1.855469 l 5.273438,-5.273438 6.25,5.273438 v 2.050781 H 24.804687 V 40.99453 l 1.855469,0.585937 1.5625,0.683594 3.125,1.660156 2.832031,2.050781 1.269532,1.074219 1.171875,1.269531 1.171875,1.269532 0.390625,2.34375 -1.367188,2.050781 L 34.375,54.27578 32.421875,52.908592 31.25,50.564842 30.46875,49.295311 29.589844,48.123436 28.710937,46.951561 27.734375,45.779686 25.488281,43.533592 24.804687,42.849998 V 91.092186 Z M 60.742187,90.99453 59.472656,90.896873 58.105469,90.701561 56.835937,90.310936 55.664062,89.627342 54.589844,88.748436 53.710937,87.674217 53.125,86.502342 52.636719,85.232811 52.441406,83.96328 52.34375,82.596092 v -6.542969 l -4.492188,4.6875 -7.519531,6.933594 -8.105469,6.25 -0.683593,-0.683594 7.421875,-7.03125 6.835937,-7.421875 6.445313,-7.617187 0.09766,-0.09766 V 21.756248 l 6.347656,0.976563 1.5625,1.074219 -1.5625,0.976562 v 37.890625 l 5.078125,-7.714844 4.980469,-8.59375 4.589844,-8.984375 4.003906,-9.375 3.613281,-9.765625 3.417969,-10.9374995 5.761719,2.6367187 1.171875,1.4648438 -1.855469,0.488281 -2.832031,8.398438 -4.101563,9.863281 -4.492187,9.472656 -5.078125,9.082031 -5.46875,8.691407 -6.054688,8.203125 -2.734375,3.320312 v 13.671875 0.683594 l 0.09766,0.390625 0.09766,0.390625 0.09766,0.09766 0.09766,0.09766 0.09766,0.09766 0.195313,0.09766 0.292969,0.09766 0.488281,0.09766 0.585937,0.09766 h 21.582032 l 3.027343,-13.183594 h 1.074219 l -0.976562,13.183594 1.855468,1.269531 1.269532,1.855469 -1.269532,1.855468 -1.953125,1.269532 z M 39.84375,70.974998 l -2.441406,-0.09766 -1.5625,-1.855469 0.09766,-2.34375 1.074219,-2.050781 0.976562,-2.246094 0.878906,-2.441406 0.78125,-2.539062 0.683594,-2.832032 0.488281,-3.027343 0.390625,-3.222657 0.292969,-3.417968 0.292969,-3.613282 0.195312,-3.808593 0.976563,-0.09766 0.878906,3.808594 0.488281,3.710938 0.292969,3.515625 0.09766,3.417968 v 3.222657 l -0.292968,3.125 -0.390625,3.027343 -0.683594,2.832032 -0.78125,2.734375 -0.976563,2.636718 z m 53.125,-3.613281 -2.246094,-0.78125 -1.171875,-2.148437 -0.09766,-2.636719 -0.292969,-2.636719 -0.390625,-2.636719 -0.585937,-2.539062 -0.78125,-2.636719 -0.878907,-2.539062 -1.074218,-2.636719 -2.441407,-5.273438 -1.367187,-2.734375 0.683594,-0.585937 2.34375,2.148437 2.050781,2.34375 1.757812,2.441407 1.660157,2.539062 1.367187,2.636719 1.269531,2.734375 1.074219,2.832031 0.78125,2.832031 0.683594,2.929688 0.585937,2.929687 -0.78125,2.246094 z M 70.800781,22.830467 68.75,21.46328 67.871094,19.90078 66.894531,18.33828 64.0625,15.115623 60.449219,11.795311 58.300781,10.135155 50.878906,5.0570297 l 0.292969,-0.9765625 3.222656,0.9765625 2.929688,0.9765625 2.734375,1.2695313 2.539062,1.2695312 2.441406,1.3671875 2.148438,1.4648438 2.050781,1.5625 1.855469,1.5625 1.5625,1.757812 1.464844,1.855469 0.390625,2.34375 -1.367188,2.050781 z"
     id="text1"
     style="font-size:100px;font-family:HanaMinA;text-anchor:middle"
     aria-label="柲" />
</svg>
