<?xml version="1.0" encoding="UTF-8" standalone="no"?>
<svg
   height="100"
   width="100"
   viewBox="0 0 100 100"
   version="1.1"
   id="svg1"
   xmlns="http://www.w3.org/2000/svg"
   xmlns:svg="http://www.w3.org/2000/svg">
  <defs
     id="defs1" />
  <path
     d="m 60.839844,94.11953 v -3.125 l -8.398438,-1.5625 v -1.5625 h 8.398438 l 0.683593,-0.09766 0.488282,-0.09766 0.488281,-0.09766 0.09766,-0.09766 0.09766,-0.09766 0.09766,-0.195312 0.09766,-0.292969 0.09766,-0.488281 V 44.803123 H 35.644531 V 42.752342 H 70.3125 L 72.460937,31.131248 H 52.246094 l -0.78125,4.199219 -6.835938,1.953125 6.640625,-35.5468748 6.054688,2.1484375 1.367187,1.2695313 -1.757812,0.5859375 -1.5625,8.1054685 h 20.117187 l 3.222656,-2.636719 5.761719,4.6875 -2.636719,1.660157 -0.878906,0.292968 -4.296875,24.902344 h 7.03125 l 5.273438,-5.273437 6.25,5.273437 v 2.050781 H 69.628906 l 1.171875,4.199219 1.660156,4.492188 1.757813,4.296875 1.953125,4.101562 0.195312,0.195313 11.914063,-9.960938 2.539062,-2.34375 0.195313,-0.292969 0.195312,-0.09766 3.90625,4.980469 0.09766,1.953125 -1.855469,-0.78125 -7.519531,4.199219 -6.347657,3.027343 -2.246093,0.878907 1.269531,2.148437 2.539062,3.613281 2.929688,3.417969 3.125,3.222656 3.515625,3.027344 5.175781,4.003906 -5.664062,4.394532 -3.90625,-3.515625 -3.613282,-3.613282 -3.125,-3.90625 -2.832031,-4.003906 -2.441406,-4.296875 -1.953125,-4.394531 -1.660156,-4.589844 -1.171875,-4.785156 -0.195313,-1.171875 v 32.519531 1.367188 l -0.195312,1.269531 -0.488282,1.269531 -0.683593,1.269531 -0.78125,0.976563 -1.074219,0.878906 -1.171875,0.683594 -1.269531,0.390625 -1.367188,0.195312 z m -41.113282,0 V 44.998436 l -2.734375,7.03125 -2.050781,4.492187 -2.148437,4.296875 -2.34375,4.199219 -2.636719,4.003906 -2.9296875,3.808594 -0.78125,-0.488281 5.5664063,-12.890625 3.2226562,-8.984375 2.636719,-9.375 1.074218,-4.785156 0.976563,-4.882813 0.585937,-3.417969 H 4.4921875 V 25.955467 H 19.726562 V 2.3226547 l 6.25,0.9765625 1.5625,1.0742188 -1.5625,0.9765625 V 25.955467 h 2.34375 l 5.273438,-5.273437 6.25,5.273437 v 2.050781 H 25.976562 v 12.402344 l 1.953125,0.585938 1.660157,0.683593 1.660156,0.78125 3.027344,1.855469 1.367187,1.074219 1.367188,1.171875 2.34375,2.539062 0.390625,2.34375 -1.367188,2.050782 -2.34375,0.390625 L 34.082031,52.517967 32.8125,49.978905 32.03125,48.80703 30.175781,46.46328 28.027344,44.11953 25.976562,42.166405 V 90.99453 Z m 23.242188,-7.421875 -1.757813,-0.683594 -4.296875,-4.6875 8.398438,-4.882813 4.882812,-2.539062 4.6875,-2.246094 2.34375,-0.976562 2.246094,-0.878907 2.34375,-0.78125 0.488281,0.878907 -5.664062,4.6875 -13.671875,10.15625 z m 9.765625,-20.800782 -1.953125,-1.367187 -1.074219,-2.539063 -2.34375,-3.90625 -1.953125,-2.832031 -2.246094,-3.027344 -1.269531,-1.464843 0.585938,-0.78125 1.660156,1.171875 1.757812,0.976562 3.027344,2.148438 1.464844,1.074218 2.539062,2.34375 2.246094,2.34375 0.976563,1.171875 0.390625,2.441407 -1.464844,1.855468 z M 52.539062,29.080467 H 72.753906 L 75.292969,15.896873 H 55.078125 Z"
     id="text1"
     style="font-size:100px;font-family:HanaMinA;text-anchor:middle"
     aria-label="椂" />
</svg>
