<?xml version="1.0" encoding="UTF-8" standalone="no"?>
<svg
   height="100"
   width="100"
   viewBox="0 0 100 100"
   version="1.1"
   id="svg1"
   xmlns="http://www.w3.org/2000/svg"
   xmlns:svg="http://www.w3.org/2000/svg">
  <defs
     id="defs1" />
  <path
     d="M 17.773437,94.11953 V 46.365623 l -2.050781,5.566407 -1.855468,4.492187 -4.2968755,8.59375 -2.4414063,4.003906 -2.734375,3.808594 -0.7812499,-0.488281 4.9804687,-12.890625 1.5625,-4.492188 1.367188,-4.492187 2.441406,-9.277344 0.976562,-4.785156 0.878907,-4.980469 0.488281,-3.417969 H 4.0039062 V 25.955467 H 17.773437 V 2.3226547 l 6.25,0.9765625 1.660157,1.0742188 -1.660157,0.9765625 V 25.955467 h 3.027344 l 4.296875,-4.785156 5.175781,4.785156 v 2.050781 h -12.5 v 12.5 l 1.660157,0.585938 1.5625,0.683594 1.5625,0.78125 2.734375,1.855468 1.367187,1.074219 2.34375,2.34375 1.074219,1.367188 0.292969,2.34375 -1.367188,1.953125 -2.34375,0.292968 -1.953125,-1.464843 -0.585937,-1.171875 -0.585938,-1.269532 -0.683594,-1.171875 -0.683593,-1.171875 -1.855469,-2.34375 -2.050781,-2.34375 -0.488282,-0.488281 V 90.99453 Z m 44.140625,-0.09766 V 49.685936 h -9.765625 l -2.34375,5.371094 -3.515625,6.542968 -1.953125,3.222657 -2.246093,3.125 -2.441407,3.027343 -0.78125,-0.488281 4.394532,-10.351562 1.269531,-3.417969 1.171875,-3.320313 1.074219,-3.320312 0.878906,-3.320313 0.78125,-3.222656 0.683594,-3.320312 0.488281,-3.320313 0.195312,-0.878906 6.054688,2.148437 1.367187,1.269532 -1.953125,0.683593 -1.367187,4.882813 -0.878906,2.539062 h 28.613281 l 5.175781,-5.273437 6.347656,5.273437 v 2.148438 H 68.261719 v 11.132812 h 10.449218 l 4.296875,-4.6875 5.175782,4.6875 v 2.148438 H 68.261719 V 74.58828 h 13.378906 l 4.296875,-4.6875 5.273437,4.6875 v 2.050781 H 68.261719 V 90.896873 Z M 38.574219,38.357811 38.28125,37.478905 l 3.222656,-1.660157 2.929688,-1.757812 2.539062,-1.757813 2.246094,-1.953125 1.953125,-2.050781 1.660156,-2.148437 1.367188,-2.34375 1.074218,-2.441407 0.878907,-2.734375 0.585937,-2.832031 0.195313,-0.585937 H 44.726562 l 0.09766,1.074218 0.09766,1.953125 -0.09766,1.855469 -0.195313,1.757813 -0.390625,1.660156 -0.585937,1.464844 -0.683594,1.464843 -0.976563,1.269532 -2.246093,0.683593 -2.148438,-1.074218 -0.683594,-2.34375 1.074219,-2.148438 0.488281,-0.195312 0.585938,-0.390625 0.585937,-0.78125 0.683594,-0.976563 0.585938,-1.269531 0.488281,-1.464844 0.585937,-1.757812 0.878907,-4.199219 0.292968,-2.4414063 h 0.878907 l 0.292968,2.4414063 0.195313,1.367187 H 62.597656 V 1.3460922 l 6.347656,1.0742188 1.5625,0.9765625 -1.5625,0.9765625 v 8.789062 h 17.96875 l 0.292969,-0.195312 v -0.09766 h 0.09766 l 2.832032,-2.34375 5.761718,4.6875 -2.636718,1.660156 -1.5625,0.683594 -0.878907,11.425781 1.855469,1.269531 1.171875,1.953125 -1.171875,1.855469 -1.953125,1.269531 H 77.441406 L 76.074219,35.232811 74.707031,35.037498 73.4375,34.549217 72.265625,33.96328 71.191406,33.084373 70.410156,32.010155 69.726562,30.83828 69.335937,29.568748 69.042969,28.299217 V 26.93203 15.21328 H 57.910156 l 4.980469,1.953125 1.367187,1.367187 -1.953125,0.683594 -0.488281,1.269531 -1.367187,3.125 -1.757813,2.929688 -1.953125,2.636718 -2.34375,2.34375 -2.636719,1.953125 -2.929687,1.757813 -3.125,1.367187 -3.417969,1.074219 z m 38.867187,-9.375 h 10.253906 l 2.246094,-9.765625 -1.660156,1.953125 -3.125,3.417969 -1.074219,1.269531 -0.78125,-0.488281 0.683594,-1.464844 0.976562,-3.027344 0.878907,-2.636719 0.683593,-2.34375 0.195313,-0.683593 H 75.292969 v 12.304687 l 0.09766,0.488281 0.09766,0.292969 0.09766,0.195313 0.195313,0.195312 0.195312,0.09766 0.292969,0.09766 0.488281,0.09766 z"
     id="text1"
     style="font-size:100px;font-family:HanaMinA;text-anchor:middle"
     aria-label="榨" />
</svg>
