<?xml version="1.0" encoding="UTF-8" standalone="no"?>
<svg
   height="100"
   width="100"
   viewBox="0 0 100 100"
   version="1.1"
   id="svg1"
   xmlns="http://www.w3.org/2000/svg"
   xmlns:svg="http://www.w3.org/2000/svg">
  <defs
     id="defs1" />
  <path
     d="M 17.871094,94.11953 V 47.146873 l -3.515625,9.277344 -1.953125,4.394531 -2.246094,4.199219 -2.34375,4.003906 -2.6367188,3.808594 -0.78125,-0.488281 4.7851563,-12.890625 2.7343755,-8.886719 1.171875,-4.6875 1.074218,-4.6875 0.976563,-4.785156 0.878906,-4.882813 0.390625,-3.515625 H 4.8828125 V 25.955467 H 17.871094 V 2.3226547 l 6.347656,0.9765625 1.5625,1.0742188 -1.5625,0.9765625 V 25.955467 h 2.246094 l 4.296875,-4.785156 5.175781,4.785156 v 2.050781 H 24.21875 v 12.597657 l 1.464844,0.488281 2.929687,1.464844 1.367188,0.878906 2.636718,2.050781 2.246094,2.441406 0.976563,1.269532 0.292968,2.34375 -1.367187,1.953125 -2.441406,0.292968 -1.953125,-1.464843 -0.390625,-1.269532 -0.585938,-1.171875 -0.683594,-1.171875 -0.683593,-1.269531 -1.660157,-2.246094 -1.953125,-2.34375 -0.195312,-0.292968 v 48.4375 z m 45.019531,0 V 77.420311 l -2.148438,0.292969 -13.769531,1.367187 -5.761719,0.488281 -1.074218,1.757813 -1.074219,-1.5625 -1.269531,-6.25 h 0.976562 8.007813 l 8.886718,-0.09766 4.882813,-0.195313 h 2.34375 L 75.097656,58.96328 75.976562,57.889061 h -0.09766 l 0.488281,-0.585938 4.492188,4.492188 L 81.25,63.65078 79.296875,63.162498 72.65625,68.533592 68.75,71.365623 l -2.929688,1.855469 4.980469,-0.09766 5.566406,-0.09766 h 5.859375 l 3.515625,0.09766 L 83.691406,70.486717 81.25,67.947655 79.785156,66.77578 l 0.488281,-0.878907 1.757813,0.878907 1.757812,0.683593 3.222657,1.757813 2.832031,2.050781 1.171875,1.074219 1.171875,1.171875 1.171875,1.269531 0.878906,1.269531 0.195313,2.441407 -1.5625,1.757812 -2.441407,0.195313 -1.757812,-1.464844 -0.390625,-1.171875 -1.074219,-2.34375 -0.683594,-1.074219 -4.101562,0.683594 -5.761719,0.78125 -5.566406,0.683594 -1.953125,0.195312 V 90.99453 Z m -23.242188,-0.78125 -0.390625,-0.878907 1.757813,-1.367187 4.589844,-4.296875 2.636718,-2.734375 2.050782,-2.636719 0.878906,-1.269531 0.585937,-0.78125 h -0.09766 l 0.585938,-0.78125 4.785156,4.199219 0.585937,1.757812 -2.246093,-0.292969 -1.074219,1.074219 -3.027344,2.246094 -3.515625,2.148437 -1.855469,0.976563 -1.953125,0.878906 z M 87.5,93.142967 85.546875,91.77578 84.960937,90.603905 83.496094,88.162498 81.640625,85.623436 79.199219,83.084373 76.5625,80.447655 l -1.660156,-1.269532 0.488281,-0.78125 1.953125,0.78125 1.855469,0.78125 1.757812,0.78125 1.660156,0.878907 3.125,1.953125 2.734375,2.246093 1.171875,1.269532 1.171875,1.269531 0.390625,2.34375 -1.269531,1.953125 z M 58.105469,73.02578 56.152344,71.560936 55.761719,70.486717 55.273437,69.412498 54.589844,68.33828 l -0.78125,-1.074219 -0.878907,-1.074219 -0.976562,-1.074219 -2.34375,-2.34375 -1.367188,-1.074218 -1.5625,-1.074219 0.390625,-0.878906 1.855469,0.683593 1.757813,0.488282 1.660156,0.683593 3.125,1.464844 0.78125,0.585938 4.394531,-7.226563 1.269531,-2.148437 0.292969,-0.683594 0.488281,-0.683594 4.6875,4.199219 0.585938,1.757812 -2.34375,-0.292968 -1.269531,1.171875 -3.417969,2.539062 -1.269531,0.878906 -2.148438,1.269532 1.953125,1.5625 1.171875,1.171875 0.976563,1.171875 0.292968,2.441406 -1.367187,1.953125 z M 37.988281,60.330467 V 27.71328 l 5.859375,2.832031 h 14.550781 l 2.636719,-2.539063 5.273438,4.6875 -2.636719,1.5625 V 51.15078 l -5.273438,2.539062 V 51.15078 H 43.847656 v 6.25 z M 88.183594,57.107811 V 51.15078 H 73.535156 v 1.5625 l -5.175781,2.636718 v -27.34375 l 5.175781,2.539063 h 14.648438 l 2.832031,-2.539063 5.566406,4.6875 -2.636719,1.855469 V 54.27578 Z M 73.535156,49.002342 h 4.785156 V 41.77578 h -4.785156 z m 10.058594,0 h 4.589844 V 41.77578 H 83.59375 Z m -39.746094,0 h 4.492188 V 41.77578 h -4.492188 z m 9.765625,0 h 4.785156 V 41.77578 h -4.785156 z m 19.921875,-9.375 h 4.785156 v -6.933594 h -4.785156 z m 10.058594,0 h 4.589844 V 32.693748 H 83.59375 Z m -39.746094,0 h 4.492188 v -6.933594 h -4.492188 z m 9.765625,0 h 4.785156 V 32.693748 H 53.613281 Z M 45.996094,28.201561 V 2.029686 L 52.34375,5.2523422 H 79.6875 l 3.125,-2.6367187 5.761719,4.6875 L 85.9375,9.451561 v 15.625 l -6.25,3.125 v -3.125 H 52.34375 Z M 52.34375,22.928123 H 62.890625 V 15.99453 H 52.34375 Z m 16.796875,0 H 79.6875 V 15.99453 H 69.140625 Z M 52.34375,13.943748 H 62.890625 V 7.3031235 H 52.34375 Z m 16.796875,0 H 79.6875 V 7.3031235 H 69.140625 Z"
     id="text1"
     style="font-size:100px;font-family:HanaMinA;text-anchor:middle"
     aria-label="欙" />
</svg>
