<?xml version="1.0" encoding="UTF-8" standalone="no"?>
<svg
   height="100"
   width="100"
   viewBox="0 0 100 100"
   version="1.1"
   id="svg1"
   xmlns="http://www.w3.org/2000/svg"
   xmlns:svg="http://www.w3.org/2000/svg">
  <defs
     id="defs1" />
  <path
     d="M 46.875,94.11953 V 60.52578 l -10.644531,3.320312 -8.398438,2.34375 -1.953125,0.488281 -0.683594,1.855469 -1.367187,-1.367187 -2.34375,-5.957032 L 34.960937,58.767967 46.875,56.228905 V 31.131248 H 32.324219 l -1.660157,4.394532 -1.660156,3.90625 -1.757812,3.808593 -1.953125,3.515625 -2.246094,3.417969 -0.78125,-0.292969 3.515625,-11.621093 2.148437,-8.007813 0.976563,-4.199219 1.660156,-8.496093 0.78125,-4.492188 0.585938,-4.4921873 0.09766,-1.0742187 6.152344,2.0507812 1.269531,1.2695308 -1.757813,0.78125 -0.488281,2.636719 -2.246094,8.886719 -1.367187,4.296875 -0.585938,1.660156 H 46.875 V 1.7367172 l 6.347656,1.0742188 1.5625,1.0742187 -1.5625,0.8789063 v 24.316406 h 7.617188 l 5.273437,-5.273437 6.347656,5.273437 v 2.050781 H 53.222656 v 23.632813 l 11.523438,-2.539063 5.664062,-1.074218 0.292969,0.878906 -10.644531,4.101562 -5.078125,1.757813 -1.757813,0.585937 V 90.99453 Z"
     id="text1"
     style="font-size:100px;font-family:HanaMinA;text-anchor:middle"
     aria-label="牜" />
</svg>
