<?xml version="1.0" encoding="UTF-8" standalone="no"?>
<svg
   height="100"
   width="100"
   viewBox="0 0 100 100"
   version="1.1"
   id="svg1"
   xmlns="http://www.w3.org/2000/svg"
   xmlns:svg="http://www.w3.org/2000/svg">
  <defs
     id="defs1" />
  <path
     d="M 65.136719,94.705467 V 55.349998 H 41.40625 V 53.201561 H 65.136719 V 12.283592 H 44.53125 v -2.148437 h 37.597656 l 5.273438,-5.2734378 6.25,5.2734378 v 2.148437 H 71.484375 v 40.917969 h 13.183594 l 5.273437,-5.273438 6.347656,5.273438 v 2.148437 H 71.484375 V 91.580467 Z M 13.964844,86.795311 V 49.881248 l -3.515625,5.371094 -3.3203128,4.394531 -3.6132812,4.296875 -0.6835937,-0.585937 7.6171877,-14.257813 2.246094,-4.785156 1.269531,-2.929687 v -4.980469 l 1.757812,0.878906 2.832031,-7.421875 1.5625,-4.882812 2.441407,-9.082032 H 6.25 v -2.050781 h 25.683594 l 5.273437,-5.2734373 6.25,5.2734373 v 2.050781 H 27.148437 l 1.660157,0.78125 1.269531,1.367188 -1.855469,0.585937 -2.832031,8.203125 -1.953125,4.882813 -2.246094,4.882812 -1.367187,2.734375 0.488281,0.195313 h 12.304687 l 3.125,-2.636719 5.761719,4.785156 -2.539062,2.050782 v 36.816406 l -6.347657,3.125 V 77.322655 H 20.3125 v 6.347656 z M 20.3125,75.271873 H 32.617187 V 41.678123 H 20.3125 Z M 43.945312,49.783592 43.164062,49.197655 47.558594,40.408592 50,34.74453 l 1.074219,-2.734375 0.878906,-2.832032 0.683594,-2.734375 0.683593,-2.734375 0.488282,-2.636718 0.195312,-0.976563 5.957031,2.246094 1.367188,1.269531 -1.953125,0.683594 -0.292969,0.976562 -2.246094,5.761719 -2.832031,5.664063 -1.660156,2.734375 -1.757813,2.734375 -2.050781,2.636718 -2.246094,2.539063 z M 89.941406,46.365623 87.5,45.877342 86.132812,43.924217 85.742187,41.678123 85.15625,39.334373 84.570312,37.08828 l -0.78125,-2.34375 -1.855468,-4.492188 -3.515625,-7.03125 -1.367188,-2.441406 0.78125,-0.585938 2.148438,1.855469 1.953125,1.953125 3.417968,4.296875 1.464844,2.148438 1.367188,2.34375 1.269531,2.34375 1.074219,2.441406 0.976562,2.441406 0.78125,2.539063 -0.488281,2.34375 z"
     id="text1"
     style="font-size:100px;font-family:HanaMinA;text-anchor:middle"
     aria-label="砰" />
</svg>
