<?xml version="1.0" encoding="UTF-8" standalone="no"?>
<svg
   height="100"
   width="100"
   viewBox="0 0 100 100"
   version="1.1"
   id="svg1"
   xmlns="http://www.w3.org/2000/svg"
   xmlns:svg="http://www.w3.org/2000/svg">
  <defs
     id="defs1" />
  <path
     d="m 6.1523437,94.510155 -0.4882812,-0.78125 2.9296875,-2.539063 2.539063,-2.636719 2.246093,-2.734375 1.953125,-2.832031 1.5625,-3.027344 1.269531,-3.222656 0.878907,-3.417969 0.683593,-3.710937 0.292969,-3.90625 0.09766,-4.101563 V 34.842186 l 6.25,3.125 20.605469,-3.320313 10.644531,-1.953125 14.550782,-2.929687 4.003906,-0.976563 0.488281,-0.09766 0.09766,0.585938 5.566407,4.6875 0.195312,1.5625 -2.34375,-1.171875 -2.246094,0.488281 -3.613281,0.585937 0.976563,6.542969 1.367187,7.617188 1.464844,6.933593 1.660156,6.347657 2.050781,5.664062 2.246094,4.980469 2.441406,4.394531 2.636719,3.710938 2.929688,3.125 3.027343,2.441406 1.5625,1.171875 -5.761718,4.296875 -3.515625,-3.320313 -3.125,-4.003906 -2.734375,-4.492187 -2.441407,-5.078125 -1.953125,-5.664063 -1.5625,-6.152344 -1.269531,-6.738281 -0.78125,-7.226562 -0.390625,-7.8125 v -6.542969 l -4.589844,0.683594 -10.15625,1.269531 -5.371093,0.488281 -5.566407,0.488281 -5.761718,0.390625 -5.957032,0.390625 -6.152343,0.09766 h -3.222657 v 22.167968 l -0.390625,4.589844 -0.683593,4.394531 -1.074219,4.101563 -1.5625,3.808594 -1.855469,3.515625 -2.148437,3.320312 -2.636719,2.832031 -2.929687,2.539063 -3.320313,2.050781 z M 26.5625,93.826561 25.292969,92.459373 23.242187,86.404686 27.929687,85.721092 44.628906,83.279686 46.875,82.889061 V 39.041405 l 6.25,1.074218 1.5625,0.976563 -1.5625,0.976562 v 39.84375 L 64.746094,80.154686 68.554687,79.764061 65.625,74.783592 59.960937,65.99453 l 0.683594,-0.683594 2.832031,2.539062 2.636719,2.441407 4.394531,4.785156 3.417969,4.589844 1.464844,2.246093 1.171875,2.148438 0.976562,2.050781 0.78125,2.050781 -0.292968,2.34375 -1.953125,1.464844 -2.34375,-0.390625 -1.464844,-1.855469 -0.292969,-1.660156 -0.585937,-1.855469 -0.683594,-1.953125 -0.976563,-2.148437 -0.585937,-1.269531 -9.082031,2.832031 -6.933594,1.953125 v 0.09766 h -0.488281 l -15.722657,4.101563 -8.007812,1.855468 -1.464844,0.292969 z M 4.1015625,29.178123 3.515625,28.396873 l 4.7851563,-5.175781 4.1015627,-5.078125 3.320312,-5.175781 1.367188,-2.636719 1.171875,-2.6367185 0.976562,-2.6367188 0.78125,-2.734375 0.292969,-0.78125 5.761719,2.6367188 1.171875,1.4648437 -1.953125,0.4882813 -1.953125,4.0039065 -0.878907,1.464843 H 41.601562 L 46.875,6.326561 l 6.25,5.273437 v 2.148438 H 27.246094 l 2.050781,0.78125 1.757812,0.78125 1.660157,0.878906 1.464843,0.976563 1.367188,1.074218 1.269531,1.171875 1.171875,1.171875 0.976563,1.367188 -5.664063,2.832031 -0.292969,-1.074219 -0.488281,-0.976562 -0.585937,-1.171875 -0.878907,-1.074219 -0.878906,-1.171875 -1.171875,-1.171875 -4.296875,-3.710937 -1.074219,-0.683594 h -2.441406 l -1.367187,1.953125 -2.148438,2.539062 -2.246093,2.441407 -2.539063,2.441406 -2.734375,2.148437 -2.9296875,2.050782 z m 41.4062495,-1.757812 -0.488281,-0.78125 4.785156,-4.785156 2.148438,-2.34375 1.953125,-2.246094 1.757812,-2.34375 1.5625,-2.441406 1.367188,-2.441407 1.171875,-2.539062 0.976562,-2.6367188 0.976563,-3.4179687 5.859375,2.734375 1.074219,1.5625 -1.953125,0.390625 -0.390625,1.0742187 -1.464844,2.8320308 -1.074219,1.5625 H 83.59375 l 5.273437,-5.273437 6.25,5.273437 v 2.148438 H 68.75 l 2.050781,0.78125 1.757813,0.78125 1.5625,0.878906 1.5625,0.976563 1.367187,1.074218 1.269531,1.171875 1.171875,1.171875 0.976563,1.367188 0.09766,2.34375 -1.5625,1.855469 -2.34375,0.195312 -1.855469,-1.5625 -0.292968,-1.074219 -0.488282,-0.976562 -0.683593,-1.171875 -0.78125,-1.074219 -0.976563,-1.171875 -1.074219,-1.171875 -4.296875,-3.710937 -1.074218,-0.683594 h -2.832032 l -1.074218,1.464844 -2.050782,2.441406 -2.34375,2.34375 -2.441406,2.050781 -2.734375,2.050781 -2.929687,1.757813 z m -10.351562,-1.074219 -1.855469,-1.5625 5.664063,-2.832031 0.09766,2.34375 -1.464844,1.855469 z"
     id="text1"
     style="font-size:100px;font-family:HanaMinA;text-anchor:middle"
     aria-label="笟" />
</svg>
