<?xml version="1.0" encoding="UTF-8" standalone="no"?>
<svg
   height="100"
   width="100"
   viewBox="0 0 100 100"
   version="1.1"
   id="svg1"
   xmlns="http://www.w3.org/2000/svg"
   xmlns:svg="http://www.w3.org/2000/svg">
  <defs
     id="defs1" />
  <path
     d="M 18.066406,94.11953 V 50.467186 L 14.648438,51.541405 7.6171875,53.49453 6.8359375,55.447655 5.46875,54.080467 3.2226563,48.123436 4.296875,47.928123 l 6.152344,-0.976562 2.734375,-0.488281 17.285156,-32.8125 1.660156,-3.515625 0.292969,-0.4882815 5.273437,3.5156245 0.878907,1.660157 -1.953125,0.09766 -7.519532,12.011719 -7.519531,11.035156 -5.664062,7.519531 -0.585938,0.683594 L 28.222656,43.728905 31.25,43.142967 h 0.488281 l -0.683594,-1.855469 -0.78125,-1.953125 -1.953125,-4.003906 -1.171875,-1.953125 0.683594,-0.585937 3.515625,3.125 1.5625,1.660156 1.464844,1.855469 1.269531,1.953125 1.171875,1.953125 0.976563,2.148437 0.878906,2.148438 0.78125,2.246093 0.683594,2.246094 -0.488282,2.34375 -2.050781,1.269531 -2.34375,-0.488281 -1.367187,-2.050781 -0.195313,-2.050781 -0.292969,-2.050782 -0.390625,-1.953125 -0.585937,-2.050781 -0.09766,-0.292969 -3.222657,1.5625 -2.734375,1.171875 -1.953125,0.78125 V 90.99453 Z m 23.925781,-1.757813 -1.953125,-1.367187 -0.390625,-2.441407 1.367188,-1.855468 0.78125,-0.390625 0.683594,-0.390625 0.78125,-0.585938 0.78125,-0.878906 0.683593,-0.976563 0.683594,-1.269531 0.683594,-1.464844 1.269531,-3.515625 0.292969,-2.050781 h 0.878906 l 0.09766,2.148438 0.195313,2.050781 v 1.953125 l -0.09766,1.855469 -0.292969,1.660156 -0.390625,1.660156 -0.683594,1.5625 -0.78125,1.464844 -0.976562,1.269531 -1.269532,1.171875 z m 49.511719,-0.683594 -2.34375,-0.390625 -1.367187,-1.953125 -0.195313,-1.171875 -0.195312,-1.171875 -0.292969,-1.269531 -0.390625,-1.269531 -1.269531,-2.734375 -0.78125,-1.464844 -1.855469,-3.027344 -1.171875,-1.464843 0.585937,-0.78125 1.5625,1.269531 1.5625,0.976562 1.464844,1.171875 1.367188,1.171875 2.441406,2.636719 0.976562,1.367188 0.878907,1.367187 0.683593,1.464844 0.683594,1.464844 -0.390625,2.34375 z m -15.917969,-0.683593 -2.34375,-0.78125 -1.074218,-2.148438 0.09766,-0.976562 v -1.074219 l -0.09766,-1.074219 -0.195313,-1.074219 -0.195312,-1.269531 -0.390625,-1.171875 -0.488282,-1.367187 -1.269531,-2.734375 -0.976562,-1.269532 0.683593,-0.683593 1.269532,1.171875 1.367187,0.878906 1.171875,1.074219 2.050781,2.34375 0.878907,1.269531 0.78125,1.269531 0.683593,1.367188 0.488282,1.367187 0.390625,1.464844 -0.78125,2.246094 z m -15.429687,0 -2.050781,-1.171875 -0.78125,-2.246094 0.195312,-0.976563 0.292969,-1.074218 0.09766,-1.074219 0.09766,-1.074219 -0.09766,-1.074219 -0.09766,-1.171875 -0.195313,-1.171875 -0.292968,-1.367187 -0.292969,-1.269531 -0.683594,-1.269532 0.78125,-0.488281 0.976563,1.074219 1.074218,1.074219 0.878907,1.074218 0.878906,1.171875 1.269531,2.539063 0.585938,1.367187 0.292968,1.269532 0.390625,1.464843 0.09766,1.464844 -1.171875,2.148438 z M 5.1757812,88.064842 4.296875,87.674217 6.640625,75.564842 7.03125,72.830467 7.3242187,70.096092 7.5195312,67.459373 7.6171875,64.920311 v -2.539063 l -0.097656,-2.34375 v -1.269531 l 6.3476568,1.269531 1.5625,1.074219 -1.757813,0.976563 -0.09766,0.585937 -0.292969,2.734375 -0.488281,2.734375 -0.683594,2.734375 -0.78125,2.832031 -0.878906,2.832032 L 9.375,79.373436 8.203125,82.303123 6.8359375,85.135155 Z M 35.15625,79.471092 33.007812,78.49453 32.03125,76.346092 l 0.09766,-2.050781 v -1.953125 l -0.09766,-1.855469 -0.292969,-1.757812 -0.292969,-1.855469 -0.488281,-1.757813 -0.683594,-1.757812 -0.683593,-1.757813 -0.878907,-1.757812 -1.171875,-1.757813 0.683594,-0.683593 1.757813,1.367187 1.5625,1.464844 1.367187,1.5625 1.269531,1.660156 1.074219,1.953125 0.976563,1.953125 0.78125,2.050781 0.585937,2.246094 0.292969,1.171875 v -1.464844 h 25.78125 V 63.064842 H 43.945312 v -2.148437 h 19.726563 v -9.375 H 50.976562 v 1.660156 l -6.25,3.125 V 24.490623 l 6.25,3.125 H 63.671875 V 20.389061 H 38.964844 V 18.33828 h 24.707031 v -6.054688 l -2.441406,0.390625 -4.199219,0.390625 -4.394531,0.488281 -4.394532,0.292969 -4.589843,0.292969 -0.195313,-0.976563 8.789063,-2.441406 15.820312,-4.003906 13.28125,-3.6132813 h 0.09766 l 0.488282,-0.1953125 0.09766,0.6835938 5.371094,4.3945312 0.195312,1.5625 -2.246094,-0.9765625 -1.953125,0.390625 -6.933593,1.3671873 -6.933594,1.171875 h 0.390625 l 1.5625,1.074219 -1.5625,0.976562 v 4.785157 h 13.183594 l 5.175781,-5.273438 6.347656,5.273438 v 2.050781 H 69.921875 v 7.226562 h 12.597656 l 3.222656,-2.636718 5.761719,4.785156 -2.636719,2.050781 v 20.800781 l -6.347656,3.125 V 51.541405 H 69.921875 v 9.375 h 11.621094 l 4.296875,-4.6875 5.175781,4.6875 v 2.148437 h -21.09375 v 8.300781 h 14.160156 l 5.273438,-5.273437 6.347656,5.273437 v 2.050782 H 37.988281 l 0.09766,0.488281 0.292969,2.441406 -0.976562,2.148438 z M 50.976562,49.490623 H 63.671875 V 29.764061 H 50.976562 Z m 18.945313,0 H 82.519531 V 36.892967 l -0.292969,0.09766 -1.660156,2.246094 -3.515625,3.90625 -1.269531,1.367188 -1.464844,1.269531 -1.464844,1.171875 -1.464843,1.269531 -0.683594,-0.585937 1.074219,-1.660157 3.125,-6.347656 1.269531,-2.929687 0.976562,-2.734375 0.292969,-0.878907 0.390625,-1.171875 4.6875,2.734375 V 29.764061 H 69.921875 Z m -8.691406,-2.734375 -2.441407,-0.09766 -1.5625,-1.757812 -0.195312,-1.269532 -0.292969,-1.269531 -0.390625,-1.171875 -0.390625,-1.171875 -0.976562,-2.246094 -1.269532,-2.246093 -0.78125,-1.074219 -0.976562,-0.976563 0.488281,-0.78125 1.269531,0.78125 1.367188,0.585938 1.171875,0.683594 1.171875,0.878906 1.171875,0.976562 1.074219,1.074219 0.976562,1.171875 0.878906,1.171875 0.878907,1.367188 0.78125,1.464843 -0.195313,2.34375 z M 15.820313,33.279686 13.964844,31.814842 12.695313,29.178123 12.011719,27.908592 11.230469,26.639061 9.2773438,24.099998 6.9335937,21.560936 5.6640625,20.291405 4.1992187,19.217186 l 0.390625,-0.878906 3.6132813,1.464843 1.6601563,0.78125 1.5624997,0.78125 0.78125,-1.757812 1.855469,-4.492188 2.441406,-5.7617183 1.171875,-3.3203125 0.488281,-1.4648437 0.195313,-0.8789063 0.488281,-1.2695312 5.566406,3.0273437 1.074219,1.6601563 -2.246094,0.2929687 -0.585937,1.0742188 -3.222656,4.7851565 -2.636719,3.515625 -4.394531,5.175781 2.148437,1.5625 1.367188,1.171875 1.171875,1.269531 1.269531,1.367188 1.074219,1.464843 0.195312,2.34375 -1.464844,1.953125 z"
     id="text1"
     style="font-size:100px;font-family:HanaMinA;text-anchor:middle"
     aria-label="çº" />
</svg>
