<?xml version="1.0" encoding="UTF-8" standalone="no"?>
<svg
   height="100"
   width="100"
   viewBox="0 0 100 100"
   version="1.1"
   id="svg1"
   xmlns="http://www.w3.org/2000/svg"
   xmlns:svg="http://www.w3.org/2000/svg">
  <defs
     id="defs1" />
  <path
     d="m 28.027344,94.11953 v -3.125 l -8.398438,-1.5625 v -1.5625 h 8.398438 l 0.585937,-0.09766 0.488281,-0.09766 0.292969,-0.09766 h 0.195313 l 0.09766,-0.09766 0.09766,-0.09766 0.09766,-0.195312 0.09766,-0.292969 0.09766,-0.488281 V 85.721092 52.71328 H 15.820313 v 5.175781 l -0.390625,5.761719 -0.488282,5.273437 -0.683593,4.785156 -0.878907,4.492188 -1.171875,4.003906 L 10.9375,85.818748 9.375,89.041405 7.7148437,91.678123 5.6640625,93.924217 3.515625,95.486717 2.8320313,94.803123 4.1015625,92.654686 5.1757812,90.310936 6.25,87.576561 l 0.8789062,-3.027344 0.78125,-3.417969 0.5859376,-3.808593 0.4882812,-4.296875 0.2929688,-4.6875 0.1953125,-4.980469 0.097656,-5.46875 V 3.2992172 l 6.2500005,3.2226563 h 14.257812 l 3.222656,-2.6367188 5.761719,4.6875 -2.636719,2.1484373 v 75 l -0.09766,1.367188 -0.195313,1.269531 -0.488281,1.269531 -0.585937,1.269531 -0.878907,0.976563 -1.074218,0.878906 -1.171875,0.683594 -1.269532,0.390625 -1.269531,0.195312 z M 92.1875,94.021873 86.914062,91.580467 82.324219,88.553123 78.222656,84.939842 74.804687,80.83828 71.972656,76.346092 69.726562,71.365623 68.066406,65.896873 67.1875,60.52578 l -1.171875,4.785156 -2.441406,6.347656 -3.027344,5.566406 -3.808594,4.882813 -4.296875,4.101562 -4.882812,3.320313 -5.566407,2.539062 -6.054687,1.660157 -0.292969,-0.976563 5.566406,-2.539062 4.785157,-3.027344 4.199218,-3.515625 3.515625,-4.101563 2.929688,-4.589843 2.441406,-5.273438 1.855469,-5.761719 1.269531,-6.542968 0.683594,-7.128907 0.09766,-7.226562 v -1.757813 l 6.347656,1.171875 1.5625,1.074219 -1.660156,0.976563 -0.390625,6.25 -0.195312,0.878906 0.292968,1.953125 1.171875,5.957031 1.660157,5.273438 0.878906,2.148437 10.839844,-10.058594 3.027343,-3.027343 1.074219,-1.171875 -0.09766,-0.09766 0.585937,-0.488281 4.199219,4.785156 0.292969,1.855469 -2.050781,-0.585937 -3.710938,2.734375 -3.90625,2.539062 -4.199219,2.441406 -4.589843,2.148438 -0.878907,0.390625 0.488282,1.171875 2.441406,4.199219 2.832031,3.808593 3.222656,3.125 3.613282,2.734375 4.101562,2.246094 8.300781,3.222656 z m -50.488281,-20.019531 -1.855469,-1.5625 -0.195313,-2.34375 1.464844,-1.855469 1.269531,-0.683593 1.171875,-0.683594 1.171875,-0.976563 0.976563,-1.171875 0.976562,-1.367187 0.78125,-1.660156 0.78125,-1.855469 0.585938,-2.148438 0.585937,-2.34375 0.292969,-2.734375 h 0.878906 l 0.390625,2.734375 0.292969,2.539063 v 2.539062 l -0.292969,2.246094 -0.488281,2.34375 -0.683594,2.050781 -1.074218,1.953125 -1.269532,1.757813 -1.5625,1.5625 -1.855468,1.367187 z M 15.820313,50.564842 H 30.078125 V 30.154686 H 15.820313 Z m 22.656249,-0.78125 -0.292968,-0.878906 5.371093,-2.734375 4.785157,-3.027344 4.101562,-3.320312 3.515625,-3.710938 2.832031,-4.003906 2.246094,-4.492188 1.757813,-4.785156 1.074218,-5.175781 0.585938,-5.761719 V 6.2289047 4.4710922 l 6.347656,1.0742188 1.5625,1.0742187 -1.660156,0.9765625 -0.292969,4.7851558 -0.976562,6.25 -1.660157,5.761719 -2.246093,5.371094 -0.488282,0.683594 2.734375,0.585937 3.222657,0.78125 3.222656,1.171875 3.027344,1.171875 2.929687,1.269531 2.832031,1.464844 2.734375,1.5625 5.078125,3.417969 2.34375,1.855469 1.074219,2.246093 -0.78125,2.246094 -2.148437,0.976563 -2.34375,-0.78125 -1.953125,-1.953125 -2.050782,-1.855469 -4.589843,-3.613281 -4.980469,-3.320313 -10.9375,-6.25 -1.953125,3.125 -3.613281,4.296875 -4.199219,3.613281 -4.882813,3.125 -5.371093,2.441407 z m 6.738282,-18.359375 -2.246094,-0.78125 -0.976563,-2.246094 0.78125,-2.246093 1.269532,-1.074219 1.953125,-2.148438 0.78125,-1.074218 0.683593,-1.171875 0.585938,-1.269532 0.390625,-1.171875 0.292969,-1.367187 0.195312,-1.5625 -0.195312,-1.5625 0.878906,-0.195313 1.269531,3.125 0.292969,1.660157 0.195312,1.660156 -0.09766,1.757812 -0.292969,1.757813 -0.585937,1.757812 -0.78125,1.757813 -0.976563,1.757812 -1.171875,1.660157 z M 15.820313,28.006248 H 30.078125 V 8.5726547 H 15.820313 Z m 58.496093,-0.976562 -0.488281,-0.683594 3.222656,-3.515625 4.296875,-4.882812 3.417969,-4.785157 1.757812,-3.027343 0.195313,-0.3906253 4.980469,3.9062503 0.78125,1.757812 -2.148438,-0.09766 -2.832031,2.832031 -1.5625,1.367188 -1.660156,1.367187 -3.710938,2.636719 -4.101562,2.441406 z"
     id="text1"
     style="font-size:100px;font-family:HanaMinA;text-anchor:middle"
     aria-label="腅" />
</svg>
