<?xml version="1.0" encoding="UTF-8" standalone="no"?>
<svg
   height="100"
   width="100"
   viewBox="0 0 100 100"
   version="1.1"
   id="svg1"
   xmlns="http://www.w3.org/2000/svg"
   xmlns:svg="http://www.w3.org/2000/svg">
  <defs
     id="defs1" />
  <path
     d="m 76.757812,82.205467 v -3.125 l -7.324218,-1.660156 v -1.5625 h 8.007812 l 0.390625,-0.09766 0.390625,-0.09766 0.09766,-0.09766 h 0.09766 l 0.09766,-0.195312 0.195312,-0.390625 0.09766,-0.488282 0.09766,-0.683593 V 39.334373 H 52.636719 v 51.464844 l -6.347657,3.125 V 39.334373 H 20.117187 v 39.746094 l -6.347656,3.125 V 34.060936 l 6.347656,3.125 H 46.289062 V 24.295311 l 6.347657,1.074219 1.5625,1.074218 -1.5625,0.976563 v 9.765625 H 78.90625 l 3.125,-2.636719 5.761719,4.785156 -2.636719,2.050782 V 73.80703 l -0.09766,1.367187 -0.195313,1.269531 -0.390625,1.269532 -0.683594,1.171875 -0.878906,1.074218 -1.074219,0.878907 -1.171875,0.585937 -1.269531,0.488281 L 78.125,82.107811 Z M 32.128906,30.154686 V 16.482811 H 4.296875 V 14.334373 H 32.128906 V 1.248436 l 6.347656,1.0742187 1.5625,0.9765625 -1.5625,0.9765625 V 14.334373 H 61.523437 V 1.248436 l 6.347657,1.0742187 1.5625,0.9765625 -1.5625,0.9765625 V 14.334373 h 16.210937 l 5.273438,-5.1757808 6.347656,5.1757808 v 2.148438 H 67.871094 V 26.93203 l -6.347657,3.222656 V 16.482811 H 38.476562 V 26.93203 Z"
     id="text1"
     style="font-size:100px;font-family:HanaMinA;text-anchor:middle"
     aria-label="芇" />
</svg>
