<?xml version="1.0" encoding="UTF-8" standalone="no"?>
<svg
   height="100"
   width="100"
   viewBox="0 0 100 100"
   version="1.1"
   id="svg1"
   xmlns="http://www.w3.org/2000/svg"
   xmlns:svg="http://www.w3.org/2000/svg">
  <defs
     id="defs1" />
  <path
     d="M 9.6679688,92.166405 7.9101562,91.287498 3.8085938,86.404686 4.7851562,85.916405 20.605469,77.908592 V 52.127342 H 4.8828125 V 50.076561 H 20.605469 l 3.125,-2.636719 5.761718,4.6875 -2.636718,2.148438 v 21.386718 l 1.855468,1.5625 2.832032,2.050782 3.125,1.855468 1.269531,0.390625 3.027344,-3.320312 1.855468,-2.636719 1.757813,-2.832031 1.367187,-3.027344 1.074219,-3.027344 0.976563,-3.320312 0.585937,-3.417969 L 46.875,56.326561 V 52.615623 51.346092 L 38.183594,55.05703 37.207031,55.447655 36.71875,57.498436 35.15625,56.326561 32.128906,50.760155 33.105469,50.36953 46.875,46.267967 V 22.439842 H 35.546875 v -2.148437 h 15.917969 l 5.175781,-5.273438 6.347656,5.273438 v 2.148437 h -9.765625 v 21.972656 l 2.929688,-0.78125 2.734375,-0.585937 2.734375,-0.585938 0.390625,0.976563 -4.785157,2.832031 -4.003906,2.050781 v 4.296875 H 53.125 l -0.390625,4.296875 -0.683594,4.101563 -1.074219,3.710937 -1.367187,3.613282 -1.660156,3.417968 -2.050782,3.125 -2.34375,2.832032 -2.636718,2.441406 -2.929688,2.148437 5.273438,1.367188 5.957031,0.78125 7.617187,0.585937 9.375,0.09766 11.425782,-0.195313 19.628906,-0.78125 -5.664063,7.128906 -13.867187,0.292969 -11.621094,-0.195312 -9.667969,-0.585938 -7.910156,-0.976562 -6.445312,-1.367188 -5.175782,-1.855469 -4.101562,-2.246093 -3.222656,-2.636719 -2.441407,-3.027344 -1.171875,-1.953125 -4.882812,4.589844 -3.808594,3.125 -5.664062,4.296875 -1.855469,1.269531 z M 75,83.572655 V 48.611717 H 63.769531 V 46.46328 H 75 V 21.951561 H 65.625 V 19.90078 h 15.136719 l 5.273437,-5.273438 6.25,5.273438 v 2.050781 h -10.9375 V 46.46328 h 2.050781 l 5.273438,-5.175782 6.25,5.175782 v 2.148437 H 81.347656 V 80.447655 Z M 21.972656,39.334373 19.824219,38.260155 17.578125,35.428123 15.234375,32.791405 13.867188,31.521873 9.4726563,27.810936 7.9101562,26.639061 6.1523437,25.467186 l 0.390625,-0.878906 4.0039063,1.074218 3.90625,1.5625 3.613281,1.953125 1.660156,1.074219 3.320313,2.539063 1.464844,1.367187 0.78125,2.34375 -1.074219,2.148438 z M 26.5625,20.877342 24.511719,19.705467 22.65625,16.971092 l -0.976563,-1.367187 -2.34375,-2.636719 -4.101562,-3.90625 -1.660156,-1.2695313 -1.660156,-1.171875 0.390625,-0.8789062 2.050781,0.6835937 1.953125,0.6835938 3.808593,1.5625 1.757813,0.9765625 3.320312,2.3437495 1.464844,1.171875 2.832031,2.734375 0.585938,2.34375 -1.171875,2.148438 z m 17.382812,-0.585937 -0.683593,-0.585938 1.269531,-1.757812 5.371094,-8.496094 2.832031,-5.078125 0.585937,-1.171875 h -0.09766 l 0.585938,-0.9765625 5.078125,3.8085937 0.78125,1.6601563 h -2.148438 l -2.441406,3.0273435 -2.929688,3.027344 -3.125,2.734375 -3.417968,2.636719 z m 28.90625,-0.878907 -0.683593,-0.683593 1.171875,-1.464844 3.808593,-6.25 1.855469,-3.125 0.78125,-1.5625 1.269531,-2.6367188 0.585938,-0.9765625 5.078125,3.7109375 0.78125,1.6601563 -2.148438,0.097656 -3.613281,4.1015623 -2.734375,2.539063 -1.464844,1.269531 -1.5625,1.171875 -1.660156,1.074219 z"
     id="text1"
     style="font-size:100px;font-family:HanaMinA;text-anchor:middle"
     aria-label="逬" />
</svg>
