<?xml version="1.0" encoding="UTF-8" standalone="no"?>
<svg
   height="100"
   width="100"
   viewBox="0 0 100 100"
   version="1.1"
   id="svg1"
   xmlns="http://www.w3.org/2000/svg"
   xmlns:svg="http://www.w3.org/2000/svg">
  <defs
     id="defs1" />
  <path
     d="M 50.488281,94.11953 V 54.27578 l 6.347656,3.125 h 24.121094 l 3.125,-2.636719 5.859375,4.785156 -2.636719,2.050781 V 87.86953 l -6.347656,3.125 v -6.25 H 56.835937 v 6.25 z m -39.550781,0 V 33.18203 L 6.8359375,37.674217 3.8085938,40.310936 3.125,39.724998 l 6.4453125,-10.15625 4.1015625,-7.226562 5.761719,-11.71875 3.613281,-8.59375 0.195312,-0.6835938 5.566407,3.125 1.074218,1.6601563 -1.953125,0.1953125 -1.171875,2.2460937 2.832032,1.171875 2.148437,1.1718753 1.953125,1.171875 1.953125,1.367187 1.660156,1.367188 3.125,3.125 1.367188,1.757812 1.171875,1.757813 0.195312,2.441406 -1.5625,1.757812 -2.34375,0.195313 -1.855468,-1.5625 -0.683594,-1.5625 -0.78125,-1.5625 -0.976563,-1.5625 -1.074218,-1.5625 -2.539063,-3.125 -3.125,-3.125 -1.757812,-1.5625 -0.390625,-0.2929688 -3.808594,7.1289058 -4.785156,7.617188 -5.078125,6.933594 -0.878906,0.878906 5.761718,2.832031 h 15.429688 l 3.125,-2.636719 5.761718,4.785157 -2.636718,2.050781 v 22.070312 l -6.25,3.125 V 60.52578 H 17.285156 v 10.546875 h 14.941406 l 4.296875,-4.785157 5.273438,4.785157 v 2.050781 H 17.285156 V 83.18203 h 13.476563 l 5.175781,-5.273438 6.347656,5.273438 v 2.050781 h -25 V 90.99453 Z M 56.835937,82.596092 H 80.957031 V 59.549217 H 56.835937 Z M 17.285156,58.474998 H 32.714844 V 48.514061 H 17.285156 Z M 41.601562,46.951561 v -2.148438 h 30.761719 l 1.660156,-5.273437 5.175782,-14.941406 1.074218,-3.515625 0.390625,-1.269532 5.664063,2.929688 1.171875,1.5625 -2.050781,0.390625 -3.222657,6.347656 -4.003906,7.128906 -3.320312,5.273438 -0.976563,1.367187 h 10.742188 l 5.273437,-5.273437 6.25,5.273437 v 2.148438 z M 17.285156,46.365623 H 32.714844 V 37.478905 H 17.285156 Z M 60.253906,42.654686 57.910156,42.166405 56.542969,40.21328 56.25,38.162498 55.859375,36.111717 55.46875,34.060936 l -1.074219,-3.710938 -1.367187,-3.710937 -1.5625,-3.515625 -0.976563,-1.757813 0.683594,-0.683593 3.125,2.832031 1.367187,1.464844 1.367188,1.757812 1.171875,1.757813 1.074219,1.953125 0.976562,1.953125 0.976563,2.050781 1.464843,4.492187 -0.488281,2.34375 z M 16.894531,28.006248 v -2.050781 h 9.863281 l 4.296875,-4.785156 5.273438,4.785156 v 2.050781 z M 43.652344,18.045311 V 15.896873 H 65.722656 V 2.3226547 l 6.347656,0.9765625 1.5625,1.0742188 -1.5625,0.9765625 V 15.896873 h 10.449219 l 5.273438,-5.175781 6.347656,5.175781 v 2.148438 z"
     id="text1"
     style="font-size:100px;font-family:HanaMinA;text-anchor:middle"
     aria-label="餢" />
</svg>
