<?xml version="1.0" encoding="UTF-8" standalone="no"?>
<svg
   height="100"
   width="100"
   viewBox="0 0 100 100"
   version="1.1"
   id="svg1"
   xmlns="http://www.w3.org/2000/svg"
   xmlns:svg="http://www.w3.org/2000/svg">
  <defs
     id="defs1" />
  <path
     d="m 7.2265625,94.217186 -2.34375,-0.292969 -1.2695312,-2.050781 0.3906249,-2.34375 0.78125,-1.074219 0.78125,-1.269531 0.78125,-1.367188 0.6835938,-1.660156 1.2695313,-3.808594 0.5859375,-2.246093 1.0742187,-4.882813 0.3906255,-2.734375 h 0.976562 l 0.292969,2.832031 0.292969,2.636719 0.09766,2.539063 v 2.441406 l -0.195313,2.246094 -0.292968,2.246093 -0.292969,2.050782 -0.585938,1.855468 -0.585937,1.855469 -0.7812502,1.757813 z M 73.730469,92.068748 72.363281,91.971092 71.09375,91.77578 69.824219,91.287498 68.652344,90.603905 67.578125,89.822655 66.699219,88.748436 66.113281,87.576561 65.625,86.30703 65.429687,84.939842 65.332031,83.670311 V 60.52578 H 54.101562 v 6.347656 l -6.25,3.125 v -35.15625 l 6.25,1.074219 1.660157,0.976562 -1.660157,0.976563 V 58.474998 H 65.332031 V 24.685936 l -1.660156,0.292969 -5.175781,0.683593 -5.566407,0.585938 -5.664062,0.390625 -5.957031,0.195312 -0.09766,-0.878906 21.777344,-4.882812 2.34375,-0.585938 V 3.2992172 l 6.25,1.0742188 1.660156,1.0742187 -1.660156,0.9765625 V 18.826561 l 9.765625,-2.929688 7.421875,-2.539062 0.09766,-0.09766 0.488282,-0.195313 0.195312,0.878906 4.785156,4.101563 0.09766,1.660156 -2.050782,-0.976562 -5.175781,1.464843 -4.296875,1.171875 -9.179687,1.953125 -2.148438,0.292969 v 34.863281 h 11.71875 V 34.842186 l 6.25,1.074219 1.5625,0.976562 -1.5625,0.976563 v 25.878906 l -6.25,3.125 V 60.52578 h -11.71875 v 23.144531 l 0.09766,0.585937 0.09766,0.488282 0.09766,0.292968 0.09766,0.195313 v 0.09766 l 0.09766,0.09766 0.195313,0.09766 0.390625,0.09766 0.488281,0.09766 h 0.585938 16.503906 l 3.027344,-13.085937 h 1.074218 l -0.976562,13.085937 1.757812,1.269531 1.269532,1.953125 -1.269532,1.855469 -1.855468,1.269531 z M 30.273437,88.846092 28.027344,88.260155 26.757812,86.209373 V 84.74453 l -0.09766,-1.367188 -0.09766,-1.367187 -0.292969,-1.464844 -0.292969,-1.367188 -0.878906,-2.734375 -1.171875,-2.832031 -0.878906,-1.367187 0.683594,-0.585938 1.171875,1.074219 1.367187,0.976562 1.171875,1.171875 1.074219,1.269532 1.953125,2.832031 0.78125,1.464844 0.683594,1.5625 0.683593,1.5625 0.390625,1.757812 -0.585937,2.34375 z m -11.230468,2.148438 -2.050782,-1.171875 -0.78125,-2.246094 0.585938,-2.539063 0.09766,-1.269531 0.09766,-2.929687 v -1.5625 l -0.09766,-1.660157 -0.195312,-1.757812 -0.195313,-1.757813 -0.488281,-1.855468 0.878906,-0.390625 0.878906,1.757812 0.976563,1.5625 0.878906,1.660156 0.683594,1.660157 0.683594,1.5625 0.488281,1.660156 0.390625,1.660156 0.292969,1.5625 0.195312,1.5625 0.09766,1.660156 -1.171875,2.148438 z m 22.070312,-5.371094 -2.441406,-0.195313 -1.5625,-1.757812 -0.195313,-1.367188 -0.390625,-1.367187 -0.292968,-1.367188 -0.976563,-2.441406 -0.585937,-1.269531 -1.367188,-2.34375 -0.78125,-1.269531 -0.976562,-1.074219 0.585937,-0.78125 1.269531,0.78125 1.367188,0.78125 1.269531,0.878906 1.269531,0.976563 1.171875,1.074218 2.050782,2.441407 0.976562,1.367187 1.660156,2.929688 -0.292968,2.441406 z M 8.7890625,67.166405 V 29.471092 l -2.2460938,2.734375 -2.0507812,2.34375 -0.78125,-0.488281 6.0546875,-14.648438 2.34375,-6.347656 2.050781,-6.6406248 1.074219,-3.515625 0.195313,-0.8789062 5.761718,2.734375 1.171875,1.4648437 -1.855469,0.4882813 -2.246093,5.566406 h 9.960937 l 3.222656,-2.6367185 5.761719,4.6874995 -2.636719,1.5625 -1.367187,0.585938 -2.148438,3.222656 -2.441406,3.027344 -3.027344,3.222656 -1.757812,1.5625 -0.878906,0.976563 h 10.15625 l 2.929687,-2.539063 5.46875,4.6875 -2.539062,1.855469 v 31.738281 l -5.859375,2.929688 V 64.236717 H 14.550781 Z M 14.550781,62.08828 h 6.640625 V 47.439842 h -6.640625 z m 11.914063,0 h 6.640625 V 47.439842 H 26.464844 Z M 14.550781,45.291405 h 6.640625 V 30.642967 h -6.640625 z m 11.914063,0 h 6.640625 V 30.642967 H 26.464844 Z M 14.550781,28.49453 h 6.933594 l 1.171875,-1.855469 2.050781,-4.101563 2.34375,-5.078125 0.488281,-1.464843 0.390625,-1.367188 0.09766,-0.292969 H 17.285156 l -1.855468,3.90625 -3.320313,5.957032 -1.464844,2.441406 z"
     id="text1"
     style="font-size:100px;font-family:HanaMinA;text-anchor:middle"
     aria-label="魨" />
</svg>
