<?xml version="1.0" encoding="UTF-8" standalone="no"?>
<svg
   height="100"
   width="100"
   viewBox="0 0 100 100"
   version="1.1"
   id="svg1"
   xmlns="http://www.w3.org/2000/svg"
   xmlns:svg="http://www.w3.org/2000/svg">
  <defs
     id="defs1" />
  <path
     d="m 33.105469,93.631248 v -3.125 l -5.273438,-1.5625 v -1.5625 h 5.273438 l 0.585937,-0.09766 0.488281,-0.09766 0.488282,-0.195313 0.195312,-0.195312 0.195313,-0.488281 0.09766,-0.488282 V 85.232811 37.967186 H 21.777344 V 35.916405 H 37.5 l 5.175781,-5.273438 6.347656,5.273438 v 2.050781 h -7.519531 v 47.265625 l -0.09766,1.269531 -0.195313,1.367188 -0.488281,1.269531 -0.585937,1.171875 -0.878907,1.074219 -1.074218,0.878906 -1.171875,0.683594 -1.269532,0.390625 -1.367187,0.195312 z m -21.484375,0 V 48.02578 l -1.9531252,3.222656 -4.8828126,6.347656 -0.78125,-0.488281 6.2499998,-14.550781 2.929688,-7.421875 2.539062,-7.617188 1.171875,-3.90625 1.171875,-3.90625 0.195313,-0.878906 5.761718,2.734375 1.171875,1.464844 -1.953125,0.488281 -2.246093,5.957031 -3.417969,7.617188 -1.855469,3.613281 v 0.09766 l 2.246094,0.292969 1.5625,1.074219 -1.5625,0.976562 v 47.363281 z m 67.285156,0 v -3.125 l -8.398438,-1.5625 v -1.5625 h 8.398438 l 0.78125,-0.09766 0.683594,-0.09766 1.171875,-0.292969 0.585937,-0.292969 0.976563,-0.683593 0.488281,-0.390625 0.488281,-0.585938 0.488281,-0.585937 0.390625,-0.78125 0.390625,-1.074219 0.488282,-1.660156 0.390625,-2.050782 0.292968,-2.34375 0.292969,-2.832031 0.09766,-3.125 0.195313,-3.417969 V 64.236717 60.037498 H 57.910156 l -6.347656,3.125 V 10.721092 l 6.347656,3.125 h 7.910156 l 0.195313,-0.390625 0.488281,-2.734375 0.390625,-1.269531 0.195313,-1.2695313 0.292968,-1.3671875 0.292969,-1.2695312 0.195313,-1.2695313 0.292968,-1.2695312 0.09766,-0.78125 0.390625,-1.26953128 5.664062,2.83203128 1.171875,1.4648437 -2.246094,0.4882813 -1.757812,2.8320312 -2.441406,3.4179683 -0.976563,0.976563 -0.78125,0.878906 h 14.160156 l 3.125,-2.636719 5.761719,4.6875 -2.539062,2.148438 v 22.070312 l -6.347657,3.125 V 39.041405 H 57.910156 v 8.398437 h 27.441406 l 4.296875,-4.6875 5.273438,4.6875 v 2.050781 H 57.910156 v 8.398438 h 29.199219 l 3.125,-2.539063 5.761719,4.6875 -2.539063,1.5625 v 1.5625 l -0.09766,4.003907 -0.09766,3.613281 -0.195313,3.320312 -0.292969,3.027344 -0.390625,2.734375 -0.390625,2.34375 -0.585937,2.148438 -0.78125,1.953125 -0.976563,1.5625 -0.683593,1.074218 -0.878907,0.976563 -0.976562,0.878906 -0.976563,0.78125 -1.074218,0.585938 -1.171875,0.488281 -1.171875,0.488281 -1.269532,0.195313 -1.269531,0.195312 z m -29.199219,-6.445312 -2.246094,-0.878906 -0.78125,-2.246094 0.878907,-2.246094 0.78125,-0.488281 0.78125,-0.78125 0.683593,-0.976563 0.683594,-1.171875 0.585938,-1.464843 0.585937,-1.660157 0.488281,-1.855468 0.292969,-2.246094 0.292969,-2.246094 0.195312,-2.636719 h 0.878907 l 0.976562,4.882813 0.292969,2.34375 0.09766,2.148437 v 2.050782 l -0.292969,1.953125 -0.390625,1.855468 -0.585937,1.757813 -0.878906,1.660156 -1.074219,1.464844 z m 11.523438,-3.125 -1.855469,-1.464844 -0.195313,-2.441406 0.292969,-0.585938 0.390625,-0.78125 0.195313,-0.878906 0.195312,-1.074219 0.09766,-1.171875 0.09766,-1.269531 -0.09766,-1.464844 -0.09766,-1.5625 -0.195312,-1.660156 -0.488282,-1.660156 0.976563,-0.390625 0.78125,1.660156 0.878906,1.464844 0.78125,1.464844 0.683594,1.367187 0.585937,1.464844 0.488282,1.367187 0.292968,1.367188 0.195313,1.367187 v 1.464844 l -0.09766,1.367188 -1.464844,1.855468 z m 10.742187,-3.515625 -2.148437,-0.976563 -0.976563,-2.246093 0.195313,-0.976563 0.09766,-0.976562 0.09766,-0.976563 -0.09766,-0.976562 -0.09766,-0.976563 -0.09766,-0.976562 -0.390625,-0.976563 -0.292968,-1.074219 -0.488282,-1.074218 -0.78125,-0.78125 0.585938,-0.78125 0.976562,0.78125 1.171875,0.585937 0.976563,0.78125 0.976562,0.976563 0.878907,0.976562 0.683593,1.074219 0.683594,1.171875 0.585938,1.367187 0.292968,1.367188 0.390625,1.464844 -0.976562,2.246093 z m 6.054688,-7.421875 0.09766,-1.269531 v -0.683594 l -0.09766,-0.683594 -0.292969,-0.78125 -0.390625,-0.78125 -0.585938,-0.78125 -0.683593,-0.78125 -0.78125,-0.878906 -1.171875,-0.585938 0.390625,-0.878906 1.171875,0.390625 1.367187,0.292969 1.171875,0.390625 1.171875,0.488281 0.976563,0.585938 0.976562,0.78125 0.976563,0.878906 0.78125,0.976562 0.585937,1.171875 0.585938,1.171875 -0.683594,2.34375 -2.050781,1.269532 -2.34375,-0.585938 z M 57.910156,36.892967 h 23.535156 v -9.375 H 57.910156 Z m -51.4648435,-9.667969 -0.78125,-0.585937 7.4218755,-14.84375 3.027343,-7.03125 0.683594,-1.7578125 0.488281,-1.171875 5.46875,3.3203125 0.976563,1.5625 -1.953125,0.1953125 -3.027344,5.0781245 -3.027344,4.492188 -3.320312,4.394531 -1.855469,2.246094 z M 57.910156,25.36953 H 81.445312 V 15.896873 H 57.910156 Z M 24.316406,9.6468735 V 7.498436 h 12.304688 l 4.394531,-4.6875 5.175781,4.6875 v 2.1484375 z"
     id="text1"
     style="font-size:100px;font-family:HanaMinA;text-anchor:middle"
     aria-label="鴴" />
</svg>
