<?xml version="1.0" encoding="UTF-8" standalone="no"?>
<svg
   height="100"
   width="100"
   viewBox="0 0 100 100"
   version="1.1"
   id="svg1"
   xmlns="http://www.w3.org/2000/svg"
   xmlns:svg="http://www.w3.org/2000/svg">
  <defs
     id="defs1" />
  <path
     d="m 6.1523437,93.826561 -0.8789062,-0.488281 2.734375,-8.398438 1.171875,-4.394531 1.0742185,-4.589844 0.878907,-4.882812 0.683593,-5.078125 0.585938,-5.273438 0.292969,-5.46875 0.09766,-5.859375 -0.09766,-5.957031 V 7.5960922 l 6.347656,3.1249998 H 49.414062 V 1.7367172 l 6.25,1.0742188 1.5625,1.0742187 -1.5625,0.8789063 v 5.957031 h 26.074219 l 5.175781,-5.2734373 6.347657,5.2734373 V 12.86953 H 65.820312 l 1.5625,0.976562 -1.5625,0.976563 v 4.882812 h 15.136719 l 3.125,-2.636719 5.859375,4.785157 -2.636719,2.050781 v 7.910156 l -6.347656,3.222656 V 31.814842 H 19.042969 v 11.621094 l -0.292969,6.25 -0.488281,5.957031 -0.683594,5.664063 -0.878906,5.46875 -1.171875,5.273437 L 14.160156,76.93203 12.5,81.61953 10.644531,86.014061 8.4960938,90.017967 Z M 51.953125,93.435936 V 76.93203 l -3.417969,2.734375 -3.125,2.148437 -3.320312,2.050781 -3.515625,1.757813 -3.613282,1.757812 -3.808593,1.5625 -4.003907,1.367188 -4.101562,1.074219 -4.394531,0.976562 -0.292969,-0.878906 11.328125,-5.761719 6.738281,-3.90625 3.027344,-2.050781 2.929687,-2.246094 2.636719,-2.246094 1.5625,-1.464843 H 20.3125 v -2.148438 h 31.640625 v -6.835937 l -2.832031,0.195312 -5.273438,0.292969 -5.664062,0.195312 -5.957032,0.09766 h -6.152343 l -0.09766,-0.878907 27.734375,-4.492187 9.277344,-1.757813 8.105469,-1.757812 0.390625,-0.09766 H 67.480469 L 66.113281,56.521873 64.84375,56.326561 63.574219,55.935936 62.304687,55.252342 61.328125,54.373436 60.449219,53.299217 59.765625,52.127342 59.375,50.857811 59.179687,49.58828 59.082031,48.221092 v -16.40625 l 6.347656,1.074219 1.5625,1.074219 -1.5625,0.878906 v 7.617187 l 9.375,-3.222656 3.808594,-1.5625 1.660156,-0.78125 1.367188,-0.683594 0.78125,-0.390625 0.488281,-0.292968 0.390625,1.074218 4.199219,3.710938 0.09766,1.757812 -2.050781,-0.878906 -1.757813,0.585938 -3.613281,0.78125 -4.296875,0.78125 -2.441406,0.292968 -5.175781,0.585938 -2.832032,0.09766 v 4.492188 l 0.09766,0.488281 0.09766,0.390625 0.09766,0.292969 h 0.09766 l 0.195313,0.09766 0.292969,0.09766 0.488281,0.09766 0.683594,0.09766 h 20.703125 l 3.125,-13.183594 h 0.976562 l -0.976562,13.183594 1.855468,1.171875 1.269532,1.953125 -1.269532,1.855468 -1.855468,1.269532 H 75 l 5.371094,4.394531 0.195312,1.5625 -2.34375,-1.074219 -2.148437,0.488281 -3.90625,0.585938 -4.101563,0.585937 -4.296875,0.585938 -4.589844,0.390625 -0.878906,0.09766 v 7.421875 h 20.996094 l 5.273437,-5.175781 6.25,5.175781 V 73.80703 H 60.15625 l 8.203125,4.296875 6.445312,2.929687 3.027344,1.171875 3.027344,1.074219 2.929687,0.878906 2.832032,0.683594 7.519531,1.464844 -6.25,5.761718 -3.027344,-0.878906 -3.125,-1.171875 -6.152344,-2.929687 -6.152343,-3.613282 -3.027344,-2.148437 -3.027344,-2.34375 -3.027344,-2.636719 -2.050781,-2.050781 V 90.310936 Z M 22.65625,59.549217 21.386719,58.084373 19.53125,52.029686 l 0.976562,-0.195313 3.222657,-0.292968 3.320312,-0.292969 0.976563,-0.09766 V 31.814842 l 6.25,1.074219 1.5625,1.074219 -1.5625,0.878906 v 5.46875 h 10.742187 l 4.296875,-4.785156 5.273438,4.785156 v 2.050781 h -20.3125 v 8.105469 l 14.550781,-1.855469 8.203125,-0.878906 0.195312,0.878906 -3.90625,1.464844 -3.808593,1.269531 -7.519532,2.148438 -7.226562,1.855468 -10.15625,2.148438 -1.074219,0.195312 z M 19.042969,29.764061 H 37.207031 V 21.853905 H 19.042969 Z m 24.414062,0 H 59.570312 V 21.853905 H 43.457031 Z m 22.363281,0 H 80.957031 V 21.853905 H 65.820312 Z M 19.042969,19.705467 H 37.207031 V 12.86953 H 19.042969 Z m 24.414062,0 H 59.570312 V 12.86953 H 43.457031 l 1.5625,0.976562 -1.5625,0.976563 z"
     id="text1"
     style="font-size:100px;font-family:HanaMinA;text-anchor:middle"
     aria-label="麇" />
</svg>
