<?xml version="1.0" encoding="UTF-8" standalone="no"?>
<svg
   height="100"
   width="100"
   viewBox="0 0 100 100"
   version="1.1"
   id="svg1"
   xmlns="http://www.w3.org/2000/svg"
   xmlns:svg="http://www.w3.org/2000/svg">
  <defs
     id="defs1" />
  <path
     d="m 87.5,11.404686 0.488281,-0.390625 4.101563,4.785156 0.292968,1.855469 -2.148437,-0.683594 -7.519531,4.882813 -6.347657,3.613281 2.34375,1.464844 4.882813,2.734375 5.175781,2.34375 8.984375,3.613281 -6.054687,5.078125 -5.761719,-2.734375 -3.710938,-2.050781 6.25,5.175781 v 2.148437 H 69.53125 v 17.773438 h 9.960937 l 5.273438,-5.273438 6.25,5.273438 v 2.050781 H 69.335937 l 2.539063,5.273438 1.757812,3.027343 1.855469,2.832032 2.148438,2.636718 2.246093,2.539063 2.539063,2.246094 2.636719,2.246093 2.929687,1.953125 5.371094,3.222657 L 87.5,93.631248 84.082031,91.189842 81.054687,88.553123 78.320312,85.818748 75.78125,82.889061 l -2.148438,-3.125 -1.855468,-3.320313 -1.5625,-3.417968 -1.171875,-3.515625 -0.683594,-2.832032 -1.269531,3.613282 -1.855469,4.003906 -2.34375,3.613281 -2.734375,3.320313 -3.222656,3.125 -3.613282,2.734375 -4.003906,2.441406 -4.394531,2.050781 -4.882813,1.757813 -0.292968,-0.878907 4.199218,-2.636718 3.808594,-2.734375 3.417969,-2.734375 3.027344,-2.929688 2.539062,-3.027344 2.050781,-3.222656 1.757813,-3.320312 1.269531,-3.515625 0.878906,-3.613282 0.195313,-1.660156 H 43.457031 V 61.014061 H 63.183594 V 43.240623 h -7.324219 l -1.367188,3.027344 -1.464843,2.734375 -1.5625,2.636719 -1.757813,2.539062 -2.050781,2.246094 -2.050781,2.148438 -0.78125,-0.488282 2.441406,-5.371093 2.148437,-5.371094 0.976563,-2.734375 0.78125,-2.832031 0.78125,-2.929688 0.585937,-2.929687 0.488282,-3.125 0.585937,-4.199219 6.054688,2.050781 1.367187,1.269531 -1.855469,0.78125 -0.292968,1.269532 -0.878907,3.320312 -0.976562,3.027344 -0.390625,0.78125 h 20.214844 l 5.273437,-5.175781 -1.5625,-0.878907 -4.980469,-3.222656 -4.589843,-3.515625 -4.101563,-3.710937 -3.710937,-4.101563 -3.222657,-4.296875 -2.734375,-4.589844 -2.148437,-4.7851558 -1.660156,-5.078125 0.878906,-0.390625 2.734375,4.4921875 2.832031,4.1015625 3.125,3.9062498 3.222656,3.417969 8.886719,-11.328125 0.878906,-1.2695313 0.390625,-0.5859375 V 3.982811 l 0.488282,-0.5859375 4.492187,4.4921875 0.390625,1.8554687 -2.148437,-0.4882812 -6.347657,4.8828125 -6.054687,4.101562 2.929687,2.636719 4.199219,3.222656 0.488281,0.292969 11.230469,-11.230469 1.5625,-1.660156 z m -43.847656,-6.25 0.488281,-0.4882813 h 0.09766 L 46.875,2.5179672 52.636719,7.3031235 50,8.8656235 l -1.5625,0.6835937 -2.050781,2.9296878 -3.417969,4.492187 -3.808594,4.199219 -4.101562,3.808594 -4.394532,3.710937 -4.6875,3.320313 -0.488281,0.292968 h 10.839844 l 3.125,-2.636718 5.859375,4.785156 -2.636719,2.050781 v 14.746094 l -6.347656,3.125 v -5.273438 h -14.84375 l -2.246094,13.671875 h 16.015625 l 3.222656,-2.539062 5.761719,4.6875 -2.636719,1.5625 -0.292968,0.09766 -0.488282,4.394531 -0.78125,5.859375 -0.488281,2.539063 -0.488281,2.148437 -0.585938,2.050782 -0.683593,1.855468 -0.683594,1.5625 -0.878906,1.367188 -0.78125,0.976562 -0.976563,0.976563 -0.878906,0.78125 -1.074219,0.683594 -1.074219,0.683593 -1.171875,0.488282 -1.171875,0.390625 -1.269531,0.292968 -1.269531,0.09766 -1.269531,0.09766 v -3.125 l -8.398438,-1.5625 v -1.5625 h 8.398438 l 0.78125,-0.09766 0.683593,-0.09766 1.269532,-0.292968 0.585937,-0.292969 0.585938,-0.292969 0.488281,-0.390625 0.488281,-0.390625 0.488281,-0.585937 0.488282,-0.585938 0.390625,-0.585937 0.390625,-0.976563 0.488281,-1.367187 0.488281,-1.5625 0.488281,-2.050782 0.390625,-2.246093 0.78125,-5.566407 0.390625,-3.125 0.195313,-2.148437 H 18.847656 l -1.074219,6.640625 -6.738281,2.148437 4.980469,-30.273437 4.980469,3.613281 H 36.328125 V 34.451561 H 23.730469 V 33.377342 L 20.898437,35.232811 15.625,37.967186 9.9609375,40.408592 4.0039062,42.55703 3.6132813,41.678123 l 5.46875,-3.027343 5.0781247,-3.125 4.882813,-3.222657 4.589843,-3.417968 3.808594,-3.320313 -1.855469,0.488281 -2.148437,-1.074218 -1.757813,-2.539063 -2.050781,-2.441406 -2.34375,-2.246094 -2.734375,-2.34375 -1.464843,-1.171875 -1.660157,-0.976562 0.390625,-0.878907 1.855469,0.585938 1.855469,0.488281 1.855468,0.488281 1.757813,0.78125 3.320312,1.757813 1.5625,0.976562 1.464844,1.074219 1.464844,1.171875 1.367187,1.269531 0.683594,2.34375 -0.878906,1.660157 3.515625,-3.515625 3.613281,-3.90625 3.222656,-4.101563 2.929688,-4.2968748 1.171875,-1.8554687 H 14.84375 V 5.154686 Z"
     id="text1"
     style="font-size:100px;font-family:HanaMinA;text-anchor:middle"
     aria-label="𤼵" />
</svg>
