<?xml version="1.0" encoding="UTF-8" standalone="no"?>
<svg
   height="100"
   width="100"
   viewBox="0 0 100 100"
   version="1.1"
   id="svg1"
   xmlns="http://www.w3.org/2000/svg"
   xmlns:svg="http://www.w3.org/2000/svg">
  <defs
     id="defs1" />
  <path
     d="m 25.976562,27.908592 h 7.421875 l 3.076172,-3.808594 q 5.078125,4.199219 5.078125,5.419922 0,0.53711 -0.683593,1.074219 l -2.001954,1.513672 v 35.302734 h -4.980468 v -3.125 h -18.75 v 4.492188 H 9.9609375 V 32.205467 q -2.1972656,2.88086 -5.078125,6.103516 L 2.9785156,36.795311 Q 13.28125,21.951561 16.845703,3.592186 q 8.837891,0.78125 8.837891,2.734375 0,1.0253906 -3.710938,2.0996093 -0.146484,0.4882813 -0.537109,1.5625 -0.341797,0.9277347 -0.488281,1.4160157 h 7.421875 l 3.613281,-4.296875 q 5.566406,4.541016 5.566406,6.005859 0,0.634766 -0.976562,1.074219 l -2.685547,1.220703 q -2.929688,5.566406 -7.910157,12.5 z m -2.880859,0 q 3.613281,-7.8125 5.273438,-14.013672 h -8.300782 q -2.392578,6.201172 -6.298828,12.695313 1.074219,0.488281 2.392578,1.318359 z m -7.958984,2.490235 v 14.013671 h 6.835937 V 30.398827 Z m 11.71875,0 v 14.013671 h 7.03125 V 30.398827 Z m 7.03125,16.503906 h -7.03125 v 14.892578 h 7.03125 z m -11.914063,0 h -6.835937 v 14.892578 h 6.835937 z m 41.894531,9.521484 V 46.902733 H 51.513672 v 3.90625 H 45.898437 V 21.756248 q 3.710938,1.367188 6.689454,2.832032 H 63.867187 V 17.166405 H 40.185547 L 39.208984,14.67617 H 63.867187 V 4.0804672 q 9.619141,0.5859375 9.619141,2.4902344 0,1.2207031 -4.101562,2.5878906 V 14.67617 h 15.673828 l 4.638672,-6.1035153 q 3.759765,3.3203123 6.298828,6.5917973 l -1.025391,2.001953 H 69.384766 v 7.421875 h 12.695312 l 3.271484,-4.003907 q 5.810547,4.589844 5.810547,5.908204 0,0.683593 -0.78125,1.171875 l -2.197265,1.416015 v 20.117188 h -5.517578 v -2.294922 h -13.28125 v 9.521484 q 8.59375,-0.195312 13.085937,-0.439453 -2.685547,-2.978516 -6.396484,-5.273437 l 1.220703,-1.806641 q 15.86914,6.445312 15.86914,13.330078 0,3.076172 -2.880859,3.076172 -1.806641,0 -2.832031,-1.904297 -1.611328,-3.076172 -2.88086,-4.6875 -18.75,1.904297 -37.451171,2.783203 -1.074219,3.222656 -2.09961,3.222656 -1.660156,0 -3.027344,-8.203125 14.306641,0 21.875,-0.09766 z m 5.517579,-19.726562 v 7.714843 h 13.28125 v -7.714843 z m -5.517579,0 H 51.513672 v 7.714843 H 63.867187 Z M 51.513672,34.20742 H 63.867187 V 27.078514 H 51.513672 Z m 17.871094,0 h 13.28125 v -7.128906 h -13.28125 z m 12.011718,35.205078 1.269532,-1.708984 q 13.330078,7.373047 13.330078,15.869141 0,3.613281 -3.125,3.613281 -2.441407,0 -3.173828,-3.417969 -1.904297,-8.251953 -8.300782,-14.355469 z m -19.53125,-5.322265 1.220703,-1.708985 q 12.304688,5.810547 12.304688,12.402344 0,3.222656 -3.027344,3.222656 -2.246094,0 -3.271484,-3.613281 -1.904297,-6.25 -7.226563,-10.302734 z M 47.460937,69.314842 50,69.90078 q 0,9.521484 -3.027344,14.794922 -2.539062,4.492187 -5.175781,4.492187 -3.417969,0 -3.417969,-3.417969 0,-1.318359 1.513672,-2.392578 6.152344,-4.541015 7.568359,-14.0625 z m -31.005859,3.076172 2.246094,-0.585937 q 4.492187,7.666015 4.492187,13.964843 0,5.712891 -4.003906,5.712891 -2.392578,0 -2.392578,-2.587891 0,-0.585937 0.292969,-2.197265 0.488281,-2.636719 0.488281,-5.419922 0,-4.199219 -1.123047,-8.886719 z m 7.226563,-0.976562 2.001953,-1.025391 q 6.787109,6.640625 6.787109,12.890625 0,3.90625 -3.222656,3.90625 -2.246094,0 -2.392578,-3.515625 -0.146485,-6.445313 -3.173828,-12.255859 z m -13.525391,0.488281 2.441406,0.488281 q 0.390625,2.539063 0.390625,5.322266 0,8.007812 -2.099609,12.158203 -1.6601564,3.222656 -4.1992189,3.222656 -3.2226562,0 -3.2226562,-2.978516 0,-1.513671 1.4160156,-2.929687 4.8339844,-5.126953 5.2734375,-15.283203 z m 43.896484,-4.296875 q 8.935547,0.146484 8.935547,2.392578 0,1.123047 -3.515625,2.490234 v 10.888672 q 0,2.392578 1.611328,2.832031 1.171875,0.390625 7.080078,0.390625 8.34961,0 9.521485,-2.197265 0.878906,-1.806641 1.904297,-9.082031 l 2.392578,0.878906 q 0,6.982422 0.78125,8.398437 0.634765,1.171875 3.320312,1.31836 -0.146484,3.710937 -3.027343,4.785156 -2.929688,1.074219 -13.476563,1.074219 -12.207031,0 -14.306641,-2.09961 -1.220703,-1.318359 -1.220703,-4.785156 z m -23.583984,2.197265 1.611328,-1.513671 q 9.619141,5.566406 9.619141,10.791015 0,3.515625 -2.929688,3.515625 -2.050781,0 -2.783203,-3.076172 -1.074219,-5.419922 -5.517578,-9.716797 z"
     id="text1"
     style="font-size:100px;font-family:HanaMinA;text-anchor:middle"
     aria-label="𬵪" />
</svg>
