<?xml version="1.0" encoding="UTF-8" standalone="no"?>
<svg
   height="100"
   width="100"
   viewBox="0 0 100 100"
   version="1.1"
   id="svg1"
   xmlns="http://www.w3.org/2000/svg"
   xmlns:svg="http://www.w3.org/2000/svg">
  <defs
     id="defs1" />
  <path
     d="m 8.59375,94.021873 -0.1953125,-0.878906 8.3984375,-2.34375 7.421875,-3.125 6.347656,-3.808594 5.46875,-4.6875 4.492188,-5.566406 3.710937,-6.347656 2.832031,-7.226563 1.171875,-4.6875 h -18.75 v 6.25 l -6.25,3.125 V 32.40078 l -4.785156,2.246093 -5.46875,2.050782 -5.8593748,1.660156 -0.390625,-0.878906 5.4687498,-2.636719 4.980469,-2.734375 4.589844,-2.832031 4.101562,-2.929688 3.613281,-2.929687 3.222657,-3.222657 2.832031,-3.222656 2.34375,-3.417969 1.855469,-3.515625 0.585937,-1.4648433 H 17.96875 V 6.5218735 h 51.953125 l 3.222656,-2.6367188 5.761719,4.6875 -2.636719,1.5625003 -0.195312,0.09766 -0.488282,4.589844 -0.878906,3.90625 -0.585937,1.757812 -0.683594,1.660156 -0.78125,1.464844 -0.878906,1.367188 -1.074219,1.171875 -1.953125,1.5625 -1.074219,0.683593 -1.074219,0.585938 -1.074218,0.488281 -1.171875,0.390625 -1.269532,0.390625 -1.171875,0.195313 -1.269531,0.09766 -1.171875,0.09766 v -3.125 l -10.546875,-1.5625 v -1.660156 h 10.546875 0.78125 l 1.464844,-0.195313 1.464844,-0.488281 1.269531,-0.683594 0.683594,-0.292968 0.585937,-0.488282 0.683594,-0.585937 0.390625,-0.488281 0.488281,-0.683594 0.488281,-0.878906 0.488282,-1.074219 0.390625,-1.367188 0.390625,-1.5625 0.292968,-1.757812 0.292969,-1.953125 0.195313,-2.1484375 V 8.5726547 h -22.65625 l -2.148438,4.1992183 -2.441406,3.90625 -3.027344,3.710938 -3.417969,3.320312 -3.808593,3.125 -4.199219,2.832032 -1.269531,0.683593 2.636718,1.367188 H 78.90625 l 3.125,-2.636719 5.761719,4.6875 -2.636719,2.148438 v 22.558593 l -6.25,3.125 v -6.25 h -25 l -1.757813,6.445313 -3.613281,7.714844 -4.394531,6.835937 -5.371094,5.664063 -6.347656,4.6875 -7.128906,3.613281 -7.910157,2.441406 z M 63.671875,90.506248 62.304687,90.408592 60.9375,90.21328 59.667969,89.724998 58.496094,89.041405 57.421875,88.260155 56.640625,87.185936 55.957031,86.014061 55.46875,84.74453 55.273437,83.377342 v -1.269531 -25.78125 l 6.25,1.074219 1.5625,1.074218 -1.5625,0.976563 v 23.242187 l 0.09766,0.488282 0.195312,0.488281 0.195313,0.195312 0.488281,0.195313 0.488281,0.09766 h 0.683594 25.292969 l 3.027343,-13.085937 h 1.074219 l -0.976562,13.085937 1.757812,1.269531 1.269531,1.953125 -1.269531,1.855469 -1.855469,1.269531 z m 15.820312,-13.28125 -2.441406,-0.09766 -1.660156,-1.660156 -0.292969,-1.074219 -0.878906,-2.246094 -0.683594,-1.171875 -0.683594,-1.171875 -0.878906,-1.171875 -0.976562,-1.269531 -2.441407,-2.441406 -1.5625,-1.074219 0.488282,-0.878906 1.757812,0.78125 1.757813,0.683594 1.660156,0.683593 1.5625,0.878907 1.367187,0.976562 1.367188,1.074219 1.269531,1.074219 1.074219,1.269531 0.976562,1.269531 0.878907,1.464844 v 2.441406 z m -50,-24.023437 h 19.335938 l 0.292969,-1.269531 1.074218,-9.179688 0.292969,-8.984375 H 29.492187 Z m 25.097657,0 H 78.90625 V 33.767967 H 56.738281 l -0.585937,9.570313 -1.5625,9.667968 z"
     id="text1"
     style="font-size:100px;font-family:HanaMinA;text-anchor:middle"
     aria-label="ð¯ " />
</svg>
