<?xml version="1.0" encoding="UTF-8" standalone="no"?>
<!DOCTYPE svg PUBLIC "-//W3C//DTD SVG 1.1//EN" "http://www.w3.org/Graphics/SVG/1.1/DTD/svg11.dtd">
<svg width="100%" height="100%" viewBox="0 0 48 48" version="1.1" xmlns="http://www.w3.org/2000/svg" xmlns:xlink="http://www.w3.org/1999/xlink" xml:space="preserve" xmlns:serif="http://www.serif.com/" style="fill-rule:evenodd;clip-rule:evenodd;stroke-linejoin:round;stroke-miterlimit:2;">
    <g transform="matrix(1.06933,0,0,1.06933,-12.0072,-2.714)">
        <g transform="matrix(67.0102,0,0,67.0102,0,48)">
            <path d="M0.567,-0.02L0.571,-0.023L0.567,-0.03C0.602,-0.108 0.631,-0.187 0.653,-0.266C0.676,-0.344 0.703,-0.422 0.735,-0.501C0.741,-0.506 0.749,-0.51 0.758,-0.512C0.767,-0.514 0.776,-0.516 0.785,-0.519L0.779,-0.533C0.765,-0.546 0.747,-0.554 0.727,-0.558C0.706,-0.562 0.688,-0.567 0.672,-0.575L0.663,-0.575L0.663,-0.569L0.556,-0.56L0.527,-0.56L0.531,-0.584L0.531,-0.604C0.531,-0.611 0.528,-0.616 0.522,-0.62C0.516,-0.627 0.507,-0.632 0.497,-0.636C0.487,-0.64 0.477,-0.642 0.464,-0.642L0.435,-0.667L0.435,-0.642L0.428,-0.642L0.423,-0.635L0.428,-0.611L0.419,-0.59L0.431,-0.554L0.431,-0.548L0.41,-0.545L0.314,-0.554L0.299,-0.554L0.293,-0.545L0.22,-0.529L0.22,-0.526C0.234,-0.519 0.251,-0.512 0.268,-0.506C0.284,-0.5 0.303,-0.495 0.322,-0.491L0.322,-0.485L0.41,-0.503L0.428,-0.503C0.422,-0.439 0.402,-0.378 0.369,-0.32C0.335,-0.262 0.304,-0.203 0.273,-0.145L0.267,-0.145L0.267,-0.136L0.31,-0.147C0.361,-0.204 0.402,-0.264 0.434,-0.327C0.464,-0.39 0.493,-0.452 0.52,-0.515L0.596,-0.529L0.619,-0.529L0.632,-0.503C0.623,-0.437 0.613,-0.371 0.602,-0.306C0.589,-0.24 0.568,-0.178 0.538,-0.117L0.502,-0.114L0.508,-0.114L0.502,-0.105C0.509,-0.091 0.515,-0.077 0.521,-0.063C0.528,-0.05 0.533,-0.036 0.538,-0.023L0.567,-0.02Z" style="fill-rule:nonzero;"/>
        </g>
    </g>
</svg>
