<?xml version="1.0" encoding="UTF-8" standalone="no"?>
<!DOCTYPE svg PUBLIC "-//W3C//DTD SVG 1.1//EN" "http://www.w3.org/Graphics/SVG/1.1/DTD/svg11.dtd">
<svg width="100%" height="100%" viewBox="0 0 48 48" version="1.1" xmlns="http://www.w3.org/2000/svg" xmlns:xlink="http://www.w3.org/1999/xlink" xml:space="preserve" xmlns:serif="http://www.serif.com/" style="fill-rule:evenodd;clip-rule:evenodd;stroke-linejoin:round;stroke-miterlimit:2;">
    <g transform="matrix(1.33333,0,0,1.33333,-8,-8)">
        <path d="M9,42C8.2,42 7.5,41.7 6.9,41.1C6.3,40.5 6,39.8 6,39L6,9C6,8.2 6.3,7.5 6.9,6.9C7.5,6.3 8.2,6 9,6L39,6C39.8,6 40.5,6.3 41.1,6.9C41.7,7.5 42,8.2 42,9L42,39C42,39.8 41.7,40.5 41.1,41.1C40.5,41.7 39.8,42 39,42L9,42ZM9,39L39,39L39,9L9,9L9,39Z" style="fill-rule:nonzero;"/>
    </g>
    <g transform="matrix(0.768534,0,0,0.795898,-0.198027,5.92806)">
        <g transform="matrix(44.8477,0,0,44.8477,8.97238,40.0624)">
            <path d="M0.091,-0.473C0.135,-0.485 0.177,-0.493 0.285,-0.508C0.253,-0.381 0.225,-0.3 0.179,-0.201C0.145,-0.126 0.105,-0.056 0.075,-0.018L0.157,0.029C0.187,-0.027 0.208,-0.069 0.222,-0.097C0.288,-0.232 0.331,-0.354 0.369,-0.515C0.398,-0.518 0.416,-0.519 0.437,-0.519C0.526,-0.519 0.554,-0.487 0.554,-0.385C0.554,-0.274 0.539,-0.172 0.514,-0.112C0.501,-0.082 0.482,-0.067 0.458,-0.067C0.423,-0.067 0.366,-0.085 0.311,-0.112C0.315,-0.088 0.316,-0.075 0.316,-0.056C0.316,-0.044 0.316,-0.039 0.314,-0.022C0.379,0.004 0.423,0.015 0.465,0.015C0.513,0.015 0.542,0.002 0.567,-0.031C0.61,-0.088 0.637,-0.222 0.637,-0.381C0.637,-0.466 0.624,-0.512 0.589,-0.547C0.558,-0.578 0.513,-0.592 0.445,-0.592C0.423,-0.592 0.408,-0.591 0.384,-0.589C0.389,-0.613 0.4,-0.676 0.405,-0.703C0.414,-0.759 0.417,-0.776 0.423,-0.796L0.329,-0.806L0.329,-0.793C0.329,-0.752 0.317,-0.665 0.301,-0.583C0.217,-0.57 0.117,-0.559 0.081,-0.558L0.091,-0.473ZM0.679,-0.616C0.774,-0.517 0.843,-0.39 0.88,-0.246L0.959,-0.288C0.914,-0.432 0.851,-0.541 0.751,-0.652L0.679,-0.616Z" style="fill-rule:nonzero;"/>
        </g>
    </g>
</svg>
