<?xml version="1.0" encoding="UTF-8" standalone="no"?>
<!DOCTYPE svg PUBLIC "-//W3C//DTD SVG 1.1//EN" "http://www.w3.org/Graphics/SVG/1.1/DTD/svg11.dtd">
<svg width="100%" height="100%" viewBox="0 0 48 48" version="1.1" xmlns="http://www.w3.org/2000/svg" xmlns:xlink="http://www.w3.org/1999/xlink" xml:space="preserve" xmlns:serif="http://www.serif.com/" style="fill-rule:evenodd;clip-rule:evenodd;stroke-linejoin:round;stroke-miterlimit:2;">
    <g transform="matrix(1.33333,0,0,1.33333,-8,-8)">
        <path d="M9,42C8.2,42 7.5,41.7 6.9,41.1C6.3,40.5 6,39.8 6,39L6,9C6,8.2 6.3,7.5 6.9,6.9C7.5,6.3 8.2,6 9,6L39,6C39.8,6 40.5,6.3 41.1,6.9C41.7,7.5 42,8.2 42,9L42,39C42,39.8 41.7,40.5 41.1,41.1C40.5,41.7 39.8,42 39,42L9,42ZM9,39L39,39L39,9L9,9L9,39Z" style="fill-rule:nonzero;"/>
    </g>
    <g id="ji" transform="matrix(0.957133,0,0,0.991212,0.596442,3.15216)">
        <path d="M22.615,8.717L13.144,8.717C11.56,8.717 10.552,8.681 9.219,8.537C9.363,9.437 9.399,10.265 9.399,11.346L9.399,13.65C9.399,14.587 9.327,15.379 9.219,16.243L12.064,16.243L12.064,11.238L36.839,11.238L36.839,16.243L39.684,16.243C39.576,15.415 39.504,14.587 39.504,13.65L39.504,11.346C39.504,10.193 39.54,9.401 39.684,8.537C38.352,8.681 37.344,8.717 35.759,8.717L25.496,8.717L25.496,7.709C25.496,6.556 25.568,5.692 25.712,4.828L22.399,4.828C22.543,5.692 22.615,6.592 22.615,7.745L22.615,8.717ZM12.712,23.769C11.164,23.769 9.867,23.697 8.751,23.553L8.751,26.542C9.867,26.398 11.164,26.326 12.712,26.326L23.011,26.326L23.011,33.672C23.011,34.429 22.651,34.681 21.463,34.681C20.094,34.681 17.97,34.465 16.385,34.177C16.889,35.473 17.034,35.977 17.178,36.985C18.906,37.165 20.274,37.237 21.643,37.237C24.812,37.237 25.82,36.445 25.82,33.961L25.82,26.326L36.191,26.326C37.776,26.326 39.108,26.398 40.152,26.542L40.152,23.553C39.108,23.697 37.776,23.769 36.191,23.769L25.82,23.769L25.82,22.905C29.277,20.925 31.078,19.7 33.778,17.396C34.571,16.711 34.607,16.675 35.147,16.243L33.742,14.515C33.094,14.623 32.374,14.659 31.006,14.659L17.322,14.659C15.701,14.659 14.657,14.587 13.721,14.443L13.721,17.324C14.765,17.18 15.881,17.108 17.322,17.108L30.393,17.108C28.413,18.872 27.008,19.772 24.632,20.961L22.867,20.961C22.975,21.789 23.011,22.473 23.011,23.769L12.712,23.769Z" style="fill-rule:nonzero;"/>
    </g>
</svg>
