<?xml version="1.0" encoding="UTF-8" standalone="no"?>
<!DOCTYPE svg PUBLIC "-//W3C//DTD SVG 1.1//EN" "http://www.w3.org/Graphics/SVG/1.1/DTD/svg11.dtd">
<svg width="100%" height="100%" viewBox="0 0 48 48" version="1.1" xmlns="http://www.w3.org/2000/svg" xmlns:xlink="http://www.w3.org/1999/xlink" xml:space="preserve" xmlns:serif="http://www.serif.com/" style="fill-rule:evenodd;clip-rule:evenodd;stroke-linejoin:round;stroke-miterlimit:2;">
    <g transform="matrix(0.810304,0,0,0.810304,-2.87783,5.49456)">
        <g transform="matrix(67.0102,0,0,67.0102,0,48)">
            <path d="M0.56,0.048L0.564,0.037L0.578,0.034C0.579,0.021 0.581,0.008 0.584,-0.005C0.586,-0.018 0.589,-0.03 0.592,-0.042C0.593,-0.072 0.592,-0.101 0.588,-0.128C0.584,-0.155 0.578,-0.183 0.571,-0.209L0.571,-0.216L0.599,-0.221L0.628,-0.221L0.635,-0.207L0.632,-0.198L0.632,-0.187L0.65,-0.187L0.661,-0.195L0.661,-0.2L0.668,-0.202L0.673,-0.216L0.68,-0.219L0.677,-0.229L0.664,-0.245L0.647,-0.271C0.625,-0.287 0.599,-0.294 0.568,-0.291C0.537,-0.288 0.51,-0.295 0.487,-0.313C0.494,-0.331 0.503,-0.348 0.514,-0.364C0.524,-0.38 0.536,-0.396 0.549,-0.412L0.56,-0.419L0.573,-0.431L0.575,-0.435L0.594,-0.446L0.599,-0.453C0.609,-0.453 0.619,-0.453 0.629,-0.454C0.639,-0.455 0.647,-0.457 0.654,-0.462C0.656,-0.468 0.656,-0.473 0.654,-0.478C0.651,-0.482 0.648,-0.486 0.646,-0.491L0.647,-0.498L0.677,-0.514L0.677,-0.519C0.684,-0.521 0.688,-0.525 0.693,-0.529C0.698,-0.532 0.704,-0.534 0.711,-0.534L0.713,-0.541C0.726,-0.542 0.737,-0.544 0.749,-0.547C0.76,-0.549 0.77,-0.553 0.778,-0.56L0.781,-0.563L0.804,-0.572L0.806,-0.577L0.828,-0.591L0.826,-0.608C0.804,-0.627 0.779,-0.642 0.754,-0.653C0.729,-0.664 0.701,-0.67 0.671,-0.67C0.639,-0.671 0.608,-0.67 0.578,-0.667C0.548,-0.663 0.519,-0.658 0.49,-0.651L0.478,-0.651C0.474,-0.651 0.471,-0.653 0.47,-0.658L0.47,-0.668L0.479,-0.674L0.479,-0.694L0.465,-0.71C0.448,-0.723 0.431,-0.733 0.412,-0.742C0.394,-0.751 0.374,-0.76 0.354,-0.767C0.349,-0.771 0.342,-0.776 0.335,-0.781C0.327,-0.786 0.321,-0.792 0.316,-0.799L0.313,-0.799L0.313,-0.796L0.31,-0.794C0.318,-0.771 0.331,-0.75 0.348,-0.73C0.364,-0.711 0.375,-0.689 0.382,-0.665L0.382,-0.658L0.363,-0.654L0.354,-0.641C0.342,-0.635 0.33,-0.629 0.317,-0.624C0.305,-0.618 0.292,-0.613 0.28,-0.608L0.284,-0.572L0.289,-0.572L0.291,-0.562L0.305,-0.557L0.305,-0.555L0.316,-0.55L0.318,-0.546L0.332,-0.539C0.344,-0.539 0.355,-0.542 0.366,-0.548C0.377,-0.554 0.387,-0.56 0.397,-0.566L0.399,-0.57L0.418,-0.579L0.42,-0.584C0.458,-0.593 0.495,-0.602 0.533,-0.61C0.57,-0.618 0.607,-0.627 0.644,-0.638L0.656,-0.638C0.659,-0.638 0.663,-0.637 0.666,-0.634C0.663,-0.611 0.657,-0.59 0.648,-0.569C0.64,-0.549 0.629,-0.529 0.618,-0.51C0.606,-0.513 0.595,-0.517 0.582,-0.522C0.569,-0.527 0.557,-0.531 0.544,-0.534L0.528,-0.53L0.526,-0.523C0.505,-0.517 0.484,-0.51 0.466,-0.501C0.447,-0.492 0.427,-0.485 0.406,-0.48L0.401,-0.474C0.389,-0.463 0.375,-0.453 0.36,-0.444C0.346,-0.436 0.33,-0.429 0.312,-0.426C0.313,-0.419 0.314,-0.412 0.317,-0.405C0.319,-0.398 0.322,-0.392 0.325,-0.386L0.341,-0.376L0.341,-0.372C0.346,-0.372 0.35,-0.372 0.354,-0.373C0.357,-0.374 0.36,-0.376 0.363,-0.379L0.365,-0.386L0.379,-0.39L0.379,-0.395C0.394,-0.399 0.408,-0.406 0.422,-0.415C0.436,-0.424 0.45,-0.432 0.465,-0.438L0.474,-0.438L0.422,-0.35C0.424,-0.337 0.43,-0.326 0.439,-0.316C0.449,-0.307 0.457,-0.297 0.463,-0.286L0.463,-0.279C0.438,-0.276 0.416,-0.271 0.396,-0.262C0.374,-0.253 0.354,-0.242 0.334,-0.229L0.329,-0.223L0.325,-0.223C0.322,-0.217 0.318,-0.212 0.313,-0.207C0.309,-0.202 0.307,-0.197 0.307,-0.191L0.3,-0.188C0.3,-0.172 0.304,-0.158 0.312,-0.146C0.319,-0.133 0.325,-0.119 0.329,-0.105L0.327,-0.081L0.334,-0.061L0.339,-0.061L0.339,-0.056L0.343,-0.056L0.343,-0.051L0.375,-0.015L0.384,-0.015L0.391,-0.006L0.411,-0.011C0.439,-0.011 0.466,-0.004 0.489,0.01C0.512,0.023 0.535,0.036 0.56,0.048ZM0.517,-0.051L0.515,-0.049C0.503,-0.049 0.492,-0.051 0.482,-0.055C0.472,-0.059 0.462,-0.062 0.451,-0.064L0.418,-0.058L0.399,-0.063L0.37,-0.14C0.37,-0.146 0.37,-0.151 0.371,-0.157C0.372,-0.163 0.374,-0.168 0.377,-0.173C0.396,-0.18 0.416,-0.186 0.436,-0.19C0.455,-0.195 0.475,-0.201 0.494,-0.207L0.506,-0.207C0.512,-0.194 0.517,-0.182 0.521,-0.169C0.524,-0.155 0.527,-0.142 0.53,-0.128C0.53,-0.114 0.53,-0.101 0.529,-0.088C0.528,-0.074 0.524,-0.062 0.517,-0.051ZM0.258,-0.412L0.262,-0.412L0.267,-0.422L0.26,-0.441C0.259,-0.455 0.261,-0.468 0.266,-0.479C0.271,-0.489 0.274,-0.5 0.275,-0.512L0.273,-0.55L0.191,-0.625L0.189,-0.625L0.189,-0.622L0.186,-0.622L0.191,-0.591L0.179,-0.525L0.162,-0.51C0.164,-0.497 0.169,-0.486 0.176,-0.478C0.183,-0.469 0.189,-0.46 0.196,-0.451L0.212,-0.444L0.212,-0.439C0.221,-0.438 0.229,-0.436 0.237,-0.431C0.244,-0.426 0.251,-0.42 0.258,-0.412Z" style="fill-rule:nonzero;"/>
        </g>
    </g>
</svg>
