<?xml version="1.0" standalone="no"?>
<!DOCTYPE svg PUBLIC "-//W3C//DTD SVG 1.1//EN" "http://www.w3.org/Graphics/SVG/1.1/DTD/svg11.dtd" >
<svg xmlns="http://www.w3.org/2000/svg">
<metadata>Generated by IcoMoon</metadata>
<defs>
<font id="thegem-icons" horiz-adv-x="1024">
<font-face units-per-em="1024" ascent="960" descent="-64" />
<missing-glyph horiz-adv-x="1024" />
<glyph unicode="&#x20;" horiz-adv-x="512" d="" />
<glyph unicode="&#xe600;" glyph-name="uni32" d="M358.976 313.6l185.024 185.024 185.024-185.024c12.48-12.48 32.768-12.48 45.248 0s12.48 32.768 0 45.248l-207.552 207.552c-6.272 6.272-14.464 9.344-22.72 9.344s-16.448-3.072-22.72-9.344l-207.552-207.552c-12.48-12.48-12.48-32.768 0-45.248s32.768-12.48 45.248 0z" />
<glyph unicode="&#xe601;" glyph-name="uni35" d="M441.6 185.728c12.48-12.48 32.768-12.48 45.248 0l207.552 207.552c6.272 6.272 9.408 14.528 9.344 22.72 0 8.256-3.072 16.448-9.344 22.72l-207.552 207.552c-12.48 12.48-32.768 12.48-45.248 0s-12.48-32.768 0-45.248l185.024-185.024-185.024-185.024c-12.48-12.48-12.48-32.768 0-45.248z" />
<glyph unicode="&#xe602;" glyph-name="uni33" d="M729.024 518.4l-185.024-185.024-185.024 185.024c-12.48 12.48-32.768 12.48-45.248 0s-12.48-32.768 0-45.248l207.552-207.552c6.272-6.272 14.528-9.408 22.72-9.344 8.256 0 16.448 3.072 22.72 9.344l207.552 207.552c12.48 12.48 12.48 32.768 0 45.248s-32.768 12.48-45.248 0z" />
<glyph unicode="&#xe603;" glyph-name="uni34" d="M393.6 393.28l207.552-207.552c12.48-12.48 32.768-12.48 45.248 0s12.48 32.768 0 45.248l-185.024 185.024 185.024 185.024c12.48 12.48 12.48 32.768 0 45.248s-32.768 12.48-45.248 0l-207.552-207.552c-6.272-6.272-9.344-14.464-9.344-22.72s3.072-16.448 9.344-22.72z" />
<glyph unicode="&#xe604;" glyph-name="uniE01D" d="M486.784 434.432c91.968 0 166.784 74.816 166.784 166.784s-74.816 166.784-166.784 166.784-166.784-74.816-166.784-166.784c0-91.968 74.816-166.784 166.784-166.784zM486.784 704c56.64 0 102.784-46.080 102.784-102.784s-46.080-102.784-102.784-102.784-102.784 46.144-102.784 102.784 46.080 102.784 102.784 102.784zM463.488-46.656c5.376-5.952 10.56-9.792 15.552-12.48 0.064-0.064 0.192-0.064 0.256-0.128 3.456-1.792 6.848-3.136 10.048-3.136s6.592 1.344 10.048 3.136c0.064 0.064 0.192 0.064 0.256 0.128 4.992 2.688 10.176 6.528 15.552 12.48 0 0 297.472 323.52 327.36 603.84 1.792 14.464 3.008 29.12 3.008 44.032 0 198.144-160.64 358.784-358.784 358.784s-358.784-160.64-358.784-358.784c0-15.168 1.216-29.952 3.072-44.608 30.656-280.192 332.416-603.264 332.416-603.264zM486.784 896c162.56 0 294.784-132.224 294.784-294.784 0-10.816-0.768-22.336-2.624-37.248-22.912-214.784-224.576-466.816-289.536-543.488-66.624 76.8-271.168 328.192-294.848 544-1.728 14.144-2.56 25.792-2.56 36.736 0 162.56 132.224 294.784 294.784 294.784z" />
<glyph unicode="&#xe605;" glyph-name="uniE027" d="M960 320v128c0 294.144-225.344 448-448 448-217.216 0-448-156.992-448-448v-128c-35.328 0-64-28.672-64-64v-128c0-35.328 28.672-64 64-64 0-35.328 28.672-64 64-64s64 28.672 64 64v256c0 35.328-28.672 64-64 64v64c0 252.096 193.216 384 384 384 184.96 0 384-120.128 384-384v-64c-35.328 0-64-28.672-64-64v-256c0-35.328 28.672-64 64-64s64 28.672 64 64c35.328 0 64 28.672 64 64v128c0 35.328-28.672 64-64 64z" />
<glyph unicode="&#xe606;" glyph-name="uni62" d="M928 928h-832c-35.328 0-64-28.672-64-64v-832c0-35.328 28.672-64 64-64h832c35.328 0 64 28.672 64 64v832c0 35.328-28.672 64-64 64zM928 32h-832v832h832v-832zM256 416h512c17.664 0 32 14.336 32 32s-14.336 32-32 32h-512c-17.664 0-32-14.336-32-32s14.336-32 32-32zM256 608h512c17.664 0 32 14.336 32 32s-14.336 32-32 32h-512c-17.664 0-32-14.336-32-32s14.336-32 32-32zM256 224h512c17.664 0 32 14.336 32 32s-14.336 32-32 32h-512c-17.664 0-32-14.336-32-32s14.336-32 32-32z" />
<glyph unicode="&#xe607;" glyph-name="uniE010" d="M960 832h-896c-35.328 0-64-28.672-64-64v-640c0-35.328 28.672-64 64-64h896c35.328 0 64 28.672 64 64v640c0 35.328-28.672 64-64 64zM363.52 382.272l148.608-100.992 147.712 101.696 254.912-254.976h-805.504l254.272 254.272zM64 173.248v412.672l245.632-166.976-245.632-245.696zM713.408 419.84l246.592 169.728v-416.32l-246.592 246.592zM960 768v-103.552l-1.344 1.92-446.784-307.648-447.872 304.512v104.768h896z" />
<glyph unicode="&#xe608;" glyph-name="uniE0E3" d="M512 928c-265.088 0-480-214.912-480-480s214.912-480 480-480 480 214.912 480 480-214.912 480-480 480zM862.016 672h-95.36c-18.56 58.368-44.032 109.504-74.752 150.528 69.632-33.6 128.576-85.888 170.112-150.528zM544 672v186.752c60.48-17.856 119.424-84.928 155.712-186.752h-155.712zM718.336 608c9.024-39.168 14.848-82.048 16.704-128h-191.040v128h174.336zM480 858.752v-186.752h-155.712c36.288 101.824 95.232 168.896 155.712 186.752zM480 608v-128h-191.040c1.856 45.952 7.68 88.832 16.704 128h174.336zM224.96 480h-127.36c3.456 44.992 13.76 88.128 30.464 128h112.64c-8.576-40.512-13.952-83.328-15.744-128zM224.96 416c1.792-44.672 7.168-87.488 15.744-128h-112.64c-16.704 39.872-27.008 83.008-30.464 128h127.36zM288.96 416h191.040v-128h-174.336c-9.024 39.168-14.848 82.048-16.704 128zM480 224v-186.752c-60.48 17.856-119.424 84.928-155.712 186.752h155.712zM544 37.248v186.752h155.712c-36.288-101.824-95.232-168.896-155.712-186.752zM544 288v128h191.040c-1.856-45.952-7.68-88.832-16.704-128h-174.336zM799.040 416h127.36c-3.456-44.992-13.76-88.128-30.464-128h-112.64c8.576 40.512 13.952 83.328 15.744 128zM799.040 480c-1.792 44.672-7.168 87.488-15.744 128h112.64c16.704-39.872 27.008-83.008 30.464-128h-127.36zM332.096 822.528c-30.656-41.024-56.192-92.16-74.752-150.528h-95.36c41.536 64.64 100.48 116.928 170.112 150.528zM161.984 224h95.36c18.56-58.368 44.032-109.504 74.752-150.528-69.632 33.6-128.576 85.888-170.112 150.528zM691.904 73.472c30.656 41.024 56.192 92.16 74.752 150.528h95.36c-41.536-64.64-100.48-116.928-170.112-150.528z" />
<glyph unicode="&#xe609;" glyph-name="ic_remove_circle_black_24px" d="M512 853.334c-235.52 0-426.667-191.147-426.667-426.667s191.147-426.667 426.667-426.667 426.667 191.147 426.667 426.667-191.147 426.667-426.667 426.667zM725.333 384h-426.667v85.333h426.667v-85.333z" />
<glyph unicode="&#xe60a;" glyph-name="ic_add_circle_black_24px" d="M512 853.334c-235.52 0-426.667-191.147-426.667-426.667s191.147-426.667 426.667-426.667 426.667 191.147 426.667 426.667-191.147 426.667-426.667 426.667zM725.333 384h-170.667v-170.667h-85.333v170.667h-170.667v85.333h170.667v170.667h85.333v-170.667h170.667v-85.333z" />
<glyph unicode="&#xe60b;" glyph-name="13" d="M66.458 151.603c44.339-41.421 99.942-62.003 166.861-62.003 67.123 0 122.675 21.606 166.912 64.922 44.493 43.213 66.56 102.042 66.56 176.333 0 74.342-31.078 132.198-93.286 173.568l127.232 301.978h-231.936l-206.49-299.213c-41.626-63.949-62.31-128.768-62.31-194.714 0-65.792 22.221-119.398 66.458-160.87zM756.736 89.6c66.867 0 122.573 21.606 166.912 64.922 44.237 43.213 66.458 102.042 66.458 176.333 0 74.342-31.181 132.198-93.338 173.568l127.232 301.978h-231.987l-206.49-299.213c-41.421-63.949-62.259-128.768-62.259-194.765 0-65.792 22.272-119.398 66.56-160.87 44.237-41.37 99.994-61.952 166.912-61.952z" />
<glyph unicode="&#xe60c;" glyph-name="121" d="M957.542 744.397c-44.339 41.421-99.942 62.003-166.861 62.003-67.123 0-122.675-21.606-166.912-64.922-44.493-43.213-66.56-102.042-66.56-176.333 0-74.342 31.078-132.198 93.286-173.568l-127.232-301.978h231.936l206.49 299.213c41.626 63.949 62.31 128.768 62.31 194.714 0 65.792-22.221 119.398-66.458 160.87zM267.264 806.4c-66.867 0-122.573-21.606-166.912-64.922-44.237-43.213-66.458-102.042-66.458-176.333 0-74.342 31.181-132.198 93.338-173.568l-127.232-301.978h231.987l206.49 299.213c41.421 63.949 62.259 128.768 62.259 194.765 0 65.792-22.272 119.398-66.56 160.87-44.237 41.37-99.994 61.952-166.912 61.952z" />
<glyph unicode="&#xe60d;" glyph-name="uniE0A0" d="M754.72 654.304c28.16-21.312 63.104-34.048 101.12-34.048 92.864 0 168.128 75.264 168.128 168.128s-75.264 168.128-168.128 168.128c-92.8 0-168.128-75.264-168.128-168.128 0-0.064 0-0.128 0-0.128l-414.976-200.64c-28.736 22.912-65.088 36.736-104.64 36.736-92.864 0-168.128-75.328-168.128-168.128s75.264-168.128 168.128-168.128c33.536 0 64.768 9.984 91.008 26.88l428.672-207.232c0-0.064 0-0.128 0-0.128 0-92.864 75.264-168.128 168.128-168.128s168.128 75.264 168.128 168.128c0 92.864-75.264 168.128-168.128 168.128-38.016 0-72.96-12.736-101.12-34.048l-419.2 202.624c0.192 2.56 0.32 5.056 0.384 7.616l418.752 202.368z" />
<glyph unicode="&#xe60e;" glyph-name="ic_remove_red_eye_24px" d="M512 746.667c-213.333 0-395.52-132.693-469.333-320 73.813-187.307 256-320 469.333-320s395.52 132.693 469.333 320c-73.813 187.307-256 320-469.333 320zM512 213.334c-117.76 0-213.333 95.573-213.333 213.333s95.573 213.333 213.333 213.333 213.333-95.573 213.333-213.333-95.573-213.333-213.333-213.333zM512 554.667c-70.827 0-128-57.173-128-128s57.173-128 128-128 128 57.173 128 128-57.173 128-128 128z" />
<glyph unicode="&#xe60f;" glyph-name="ic_photo_camera_24px" d="M648.533 405.333c0-75.405-61.128-136.533-136.533-136.533s-136.533 61.128-136.533 136.533c0 75.405 61.128 136.533 136.533 136.533s136.533-61.128 136.533-136.533zM384 832l-78.080-85.333h-135.253c-46.933 0-85.333-38.4-85.333-85.333v-512c0-46.933 38.4-85.333 85.333-85.333h682.667c46.933 0 85.333 38.4 85.333 85.333v512c0 46.933-38.4 85.333-85.333 85.333h-135.253l-78.080 85.333h-256zM512 192c-117.76 0-213.333 95.573-213.333 213.333s95.573 213.333 213.333 213.333 213.333-95.573 213.333-213.333-95.573-213.333-213.333-213.333z" />
<glyph unicode="&#xe610;" glyph-name="ic_movie_24px" d="M768.001 789.333l85.333-170.667h-128l-85.333 170.667h-85.333l85.333-170.667h-128l-85.333 170.667h-85.333l85.333-170.667h-128l-85.333 170.667h-42.667c-46.933 0-84.907-38.4-84.907-85.333l-0.427-512c0-46.933 38.4-85.333 85.333-85.333h682.667c46.933 0 85.333 38.4 85.333 85.333v597.333h-170.667z" />
<glyph unicode="&#xe611;" glyph-name="uniE094" d="M995.776 848.64c-40.576-24.064-85.568-41.536-133.44-51.008-38.336 40.896-92.928 66.368-153.344 66.368-116.032 0-210.112-94.080-210.112-210.048 0-16.448 1.856-32.512 5.44-47.872-174.592 8.768-329.408 92.416-433.024 219.52-18.112-30.976-28.416-67.072-28.416-105.6 0-72.896 37.12-137.216 93.44-174.848-34.432 1.152-66.816 10.624-95.168 26.368 0-0.896 0-1.728 0-2.624 0-101.76 72.448-186.688 168.512-206.016-17.6-4.8-36.16-7.36-55.36-7.36-13.568 0-26.688 1.344-39.552 3.776 26.752-83.456 104.32-144.192 196.224-145.92-71.872-56.32-162.496-89.92-260.928-89.92-16.96 0-33.664 1.024-50.112 2.944 92.992-59.584 203.392-94.4 322.048-94.4 386.432 0 597.76 320.128 597.76 597.76 0 9.088-0.192 18.176-0.64 27.2 41.152 29.504 76.8 66.496 104.96 108.608-37.696-16.704-78.144-28.032-120.64-33.088 43.392 25.984 76.672 67.2 92.352 116.16z" />
<glyph unicode="&#xe612;" glyph-name="ic_search_24px" d="M661.333 341.334h-33.707l-11.947 11.52c41.813 48.64 66.987 111.787 66.987 180.48 0 153.173-124.16 277.333-277.333 277.333s-277.333-124.16-277.333-277.333 124.16-277.333 277.333-277.333c68.693 0 131.84 25.173 180.48 66.987l11.52-11.947v-33.707l213.333-212.907 63.573 63.573-212.907 213.333zM405.333 341.334c-106.24 0-192 85.76-192 192s85.76 192 192 192 192-85.76 192-192-85.76-192-192-192z" />
<glyph unicode="&#xe613;" glyph-name="cart-outline" d="M725.333 170.667c46.933 0 85.333-38.4 85.333-85.333s-38.4-85.333-85.333-85.333c-47.36 0-85.333 38.4-85.333 85.333 0 47.36 37.973 85.333 85.333 85.333zM42.667 853.334h139.52l40.107-85.333h631.040c23.467 0 42.667-19.2 42.667-42.667 0-7.253-2.133-14.507-5.12-21.333l-152.747-276.053c-14.507-26.027-42.667-43.947-74.667-43.947h-317.867l-38.4-69.547-1.28-5.12c0-5.973 4.693-10.667 10.667-10.667h494.080v-85.333h-512c-47.36 0-85.333 38.4-85.333 85.333 0 14.933 3.84 29.013 10.24 40.96l58.027 104.533-153.6 323.84h-85.333v85.333zM298.667 170.667c46.933 0 85.333-38.4 85.333-85.333s-38.4-85.333-85.333-85.333c-47.36 0-85.333 38.4-85.333 85.333 0 47.36 37.973 85.333 85.333 85.333zM682.667 469.334l118.613 213.333h-539.307l100.693-213.333h320z" />
<glyph unicode="&#xe614;" glyph-name="uni4E" d="M441.216 141.184c1.28-1.024 2.048-2.432 3.392-3.392 1.92-1.28 4.096-1.536 6.144-2.432 2.432-1.152 4.8-2.24 7.36-2.944 2.496-0.64 4.928-0.96 7.488-1.152 3.648-0.384 7.168-0.384 10.752 0.128 1.472 0.256 2.88 0.64 4.352 1.024 4.416 1.088 8.512 2.816 12.544 5.248 0.704 0.448 1.28 0.96 1.984 1.408 2.624 1.792 5.44 3.136 7.68 5.568 1.6 1.728 2.304 3.968 3.584 5.888 0.064 0.064 0.192 0.128 0.192 0.192l381.376 611.264c13.568 20.672 7.744 48.448-12.992 62.016s-48.448 7.744-62.016-12.992l-352.256-564.544-194.816 189.504c-18.176 16.832-46.464 15.744-63.296-2.432-16.768-18.176-15.68-46.528 2.496-63.296l234.368-228.032c0.448-0.448 1.088-0.576 1.664-1.024z" />
<glyph unicode="&#xe615;" glyph-name="uni4B" d="M288 384h512c17.664 0 32 14.336 32 32s-14.336 32-32 32h-512c-17.664 0-32-14.336-32-32s14.336-32 32-32z" />
<glyph unicode="&#xe616;" glyph-name="uni36" d="M441.6 185.728c12.48-12.48 32.768-12.48 45.248 0l207.552 207.552c6.272 6.272 9.408 14.528 9.344 22.72 0 8.256-3.072 16.448-9.344 22.72l-207.552 207.552c-12.48 12.48-32.768 12.48-45.248 0s-12.48-32.768 0-45.248l185.024-185.024-185.024-185.024c-12.48-12.48-12.48-32.768 0-45.248z" />
<glyph unicode="&#xe617;" glyph-name="uniE617" horiz-adv-x="1019" d="M698.81 448.003c0 52.287-21.209 99.631-55.464 133.906-34.277 34.254-81.616 55.464-133.908 55.464-52.266 0-99.607-21.211-133.882-55.464-34.277-34.275-55.485-81.616-55.485-133.906 0-52.264 21.209-99.607 55.485-133.882s81.616-55.488 133.882-55.488c52.289 0 99.631 21.209 133.908 55.488 34.254 34.277 55.464 81.616 55.464 133.882z" />
<glyph unicode="&#xe618;" glyph-name="uni5E" d="M640 256c35.328 0 64 28.672 64 64v256c0 35.328-28.672 64-64 64h-256c-35.328 0-64-28.672-64-64v-256c0-35.328 28.672-64 64-64h256z" />
<glyph unicode="&#xe619;" glyph-name="uni4D" d="M321.6 193.6c12.48-12.48 32.768-12.48 45.248 0l177.152 177.152 177.152-177.152c12.48-12.48 32.768-12.48 45.248 0s12.48 32.768 0 45.248l-177.152 177.152 177.152 177.152c12.48 12.48 12.48 32.768 0 45.248s-32.768 12.48-45.248 0l-177.152-177.152-177.152 177.152c-12.48 12.48-32.768 12.48-45.248 0s-12.48-32.768 0-45.248l177.152-177.152-177.152-177.152c-12.48-12.48-12.48-32.768 0-45.248z" />
<glyph unicode="&#xe61a;" glyph-name="ic_star_24px" d="M512 201.814l263.68-159.147-69.973 299.947 232.96 201.813-306.773 26.027-119.893 282.88-119.893-282.88-306.773-26.027 232.96-201.813-69.973-299.947z" />
<glyph unicode="&#xe61b;" glyph-name="uniE082" d="M256 335.552c0-49.088 123.52-75.136 256.064-78.784 0-0.256-0.064-0.512-0.064-0.768v-192c0-35.328 14.336-128 32-128s32 92.672 32 128v192c0 0.256-0.064 0.512-0.064 0.768 132.544 3.648 256.064 29.696 256.064 78.784 0 52.096-47.168 90.112-128 110.592v331.456c80.832 27.392 128 71.488 128 102.848 0 106.048-576 106.048-576 0 0-34.496 47.168-77.632 128-104v-330.304c-80.832-20.544-128-58.496-128-110.592z" />
<glyph unicode="&#xe61c;" glyph-name="uniE02C" d="M241.312 455.36c40.896-40.896 101.056-55.232 155.776-38.912l-302.336 302.272c-9.856 9.856-15.040 24.128-15.040 41.152 0 28.16 14.72 64.128 34.24 83.648 25.6 25.6 95.040 53.952 127.36 21.824l302.272-302.336c4.416 14.784 6.656 30.144 6.656 45.504 0 41.728-16.192 80.832-45.568 110.272l-204.992 204.928c-61.568 61.568-183.936 38.464-244.16-21.76-34.944-34.944-56.64-89.088-56.64-141.312 0-40.576 13.312-76.224 37.44-100.352l204.992-204.928zM782.752 440.64c-40.896 40.896-101.056 55.232-155.776 38.912l302.336-302.336c9.856-9.856 15.040-24.064 15.040-41.152 0-28.16-14.72-64.128-34.24-83.648-25.6-25.6-95.040-53.952-127.36-21.824l-302.272 302.4c-4.416-14.784-6.656-30.144-6.656-45.504 0-41.728 16.192-80.832 45.568-110.272l204.928-204.928c61.568-61.568 183.936-38.464 244.16 21.76 34.944 34.944 56.64 89.088 56.64 141.312 0 40.576-13.312 76.224-37.44 100.352l-204.928 204.928zM293.28 666.816c-8.192-8.128-12.672-19.008-12.672-30.528s4.48-22.336 12.608-30.464l376.576-376.64c16.832-16.768 44.16-16.768 60.992 0 8.192 8.128 12.608 19.008 12.608 30.528s-4.48 22.336-12.608 30.464l-376.576 376.64c-16.768 16.768-44.16 16.768-60.928 0z" />
<glyph unicode="&#xe61d;" glyph-name="ic_link_24px" d="M166.4 426.667c0 72.96 59.307 132.267 132.267 132.267h170.667v81.067h-170.667c-117.76 0-213.333-95.573-213.333-213.333s95.573-213.333 213.333-213.333h170.667v81.067h-170.667c-72.96 0-132.267 59.307-132.267 132.267zM341.333 384h341.333v85.333h-341.333v-85.333zM725.333 640h-170.667v-81.067h170.667c72.96 0 132.267-59.307 132.267-132.267s-59.307-132.267-132.267-132.267h-170.667v-81.067h170.667c117.76 0 213.333 95.573 213.333 213.333s-95.573 213.333-213.333 213.333z" />
<glyph unicode="&#xe61e;" glyph-name="uniE065" d="M162.496 176.576c-18.752-48.448-50.56-111.808-104.512-176.576 102.336 0 233.984 13.44 335.424 75.648 38.144-7.36 77.696-11.648 118.592-11.648 282.752 0 512 186.24 512 416s-229.248 416-512 416-512-186.24-512-416c0-119.808 62.72-227.52 162.496-303.424z" />
<glyph unicode="&#xe61f;" glyph-name="ic_description_24px" d="M597.333 874.666h-341.333c-46.933 0-84.907-38.4-84.907-85.333l-0.427-682.667c0-46.933 37.973-85.333 84.907-85.333h512.427c46.933 0 85.333 38.4 85.333 85.333v512l-256 256zM682.667 191.999h-341.333v85.333h341.333v-85.333zM682.667 362.666h-341.333v85.333h341.333v-85.333zM554.667 575.999v234.667l234.667-234.667h-234.667z" />
<glyph unicode="&#xe620;" glyph-name="ic_menu_24px" d="M128 170.667h768v85.333h-768v-85.333zM128 384h768v85.333h-768v-85.333zM128 682.667v-85.333h768v85.333h-768z" />
<glyph unicode="&#xe621;" glyph-name="ic_info_24px" d="M512 853.334c-235.52 0-426.667-191.147-426.667-426.667s191.147-426.667 426.667-426.667 426.667 191.147 426.667 426.667-191.147 426.667-426.667 426.667zM554.667 213.334h-85.333v256h85.333v-256zM554.667 554.667h-85.333v85.333h85.333v-85.333z" />
<glyph unicode="&#xe622;" glyph-name="ic_person_black_24px" d="M512 426.667c94.293 0 170.667 76.373 170.667 170.667s-76.373 170.667-170.667 170.667-170.667-76.373-170.667-170.667 76.373-170.667 170.667-170.667zM512 341.334c-113.92 0-341.333-57.173-341.333-170.667v-85.333h682.667v85.333c0 113.493-227.413 170.667-341.333 170.667z" />
<glyph unicode="&#xe623;" glyph-name="ic_language_black_24px" d="M511.573 874.667c-235.52 0-426.24-191.147-426.24-426.667s190.72-426.667 426.24-426.667c235.947 0 427.093 191.147 427.093 426.667s-191.147 426.667-427.093 426.667zM807.253 618.667h-125.867c-13.653 53.333-33.28 104.533-58.88 151.893 78.507-26.88 143.787-81.493 184.747-151.893zM512 787.627c35.413-51.2 63.147-107.947 81.493-168.96h-162.987c18.347 61.013 46.080 117.76 81.493 168.96zM181.76 362.667c-6.827 27.307-11.093 55.893-11.093 85.333s4.267 58.027 11.093 85.333h144.213c-3.413-28.16-5.973-56.32-5.973-85.333s2.56-57.173 5.973-85.333h-144.213zM216.747 277.333h125.867c13.653-53.333 33.28-104.533 58.88-151.893-78.507 26.88-143.787 81.067-184.747 151.893zM342.613 618.667h-125.867c40.96 70.827 106.24 125.013 184.747 151.893-25.6-47.36-45.227-98.56-58.88-151.893zM512 108.373c-35.413 51.2-63.147 107.947-81.493 168.96h162.987c-18.347-61.013-46.080-117.76-81.493-168.96zM611.84 362.667h-199.68c-3.84 28.16-6.827 56.32-6.827 85.333s2.987 57.6 6.827 85.333h199.68c3.84-27.733 6.827-56.32 6.827-85.333s-2.987-57.173-6.827-85.333zM622.507 125.44c25.6 47.36 45.227 98.56 58.88 151.893h125.867c-40.96-70.4-106.24-125.013-184.747-151.893zM698.027 362.667c3.413 28.16 5.973 56.32 5.973 85.333s-2.56 57.173-5.973 85.333h144.213c6.827-27.307 11.093-55.893 11.093-85.333s-4.267-58.027-11.093-85.333h-144.213z" />
<glyph unicode="&#xe624;" glyph-name="ic_room_black_24px" d="M512 853.334c-165.12 0-298.667-133.547-298.667-298.667 0-224 298.667-554.667 298.667-554.667s298.667 330.667 298.667 554.667c0 165.12-133.547 298.667-298.667 298.667zM512 448c-58.88 0-106.667 47.787-106.667 106.667s47.787 106.667 106.667 106.667 106.667-47.787 106.667-106.667-47.787-106.667-106.667-106.667z" />
<glyph unicode="&#xe625;" glyph-name="ic_phone_black_24px" d="M282.453 478.294c61.44-120.747 160.427-219.307 281.173-281.173l93.867 93.867c11.52 11.52 28.587 15.36 43.52 10.24 47.787-15.787 99.413-24.32 152.32-24.32 23.467 0 42.667-19.2 42.667-42.667v-148.907c0-23.467-19.2-42.667-42.667-42.667-400.64 0-725.333 324.693-725.333 725.333 0 23.467 19.2 42.667 42.667 42.667h149.333c23.467 0 42.667-19.2 42.667-42.667 0-53.333 8.533-104.533 24.32-152.32 4.693-14.933 1.28-31.573-10.667-43.52l-93.867-93.867z" />
<glyph unicode="&#xe626;" glyph-name="ic_email_black_24px" d="M853.335 789.333h-682.667c-46.933 0-84.907-38.4-84.907-85.333l-0.427-512c0-46.933 38.4-85.333 85.333-85.333h682.667c46.933 0 85.333 38.4 85.333 85.333v512c0 46.933-38.4 85.333-85.333 85.333zM853.335 618.667l-341.333-213.333-341.333 213.333v85.333l341.333-213.333 341.333 213.333v-85.333z" />
<glyph unicode="&#xe627;" glyph-name="ic_perm_phone_msg_black_24px" d="M853.333 277.334c-53.333 0-104.533 8.533-152.32 24.32-14.933 4.693-31.573 1.28-43.52-10.24l-93.867-93.867c-120.747 61.44-219.733 160-281.173 280.747l93.867 94.293c11.947 11.52 15.36 28.16 10.667 43.093-15.787 47.787-24.32 98.987-24.32 152.32 0 23.467-19.2 42.667-42.667 42.667h-149.333c-23.467 0-42.667-19.2-42.667-42.667 0-400.64 324.693-725.333 725.333-725.333 23.467 0 42.667 19.2 42.667 42.667v149.333c0 23.467-19.2 42.667-42.667 42.667zM512 810.667v-426.667l128 128h256v298.667h-384z" />
<glyph unicode="&#xe628;" glyph-name="uni63" d="M928 928h-832c-35.328 0-64-28.672-64-64v-832c0-35.328 28.672-64 64-64h832c35.328 0 64 28.672 64 64v832c0 35.328-28.672 64-64 64zM928 32h-832v832h832v-832zM256 416h512c17.664 0 32 14.336 32 32s-14.336 32-32 32h-512c-17.664 0-32-14.336-32-32s14.336-32 32-32zM256 608h512c17.664 0 32 14.336 32 32s-14.336 32-32 32h-512c-17.664 0-32-14.336-32-32s14.336-32 32-32zM256 224h512c17.664 0 32 14.336 32 32s-14.336 32-32 32h-512c-17.664 0-32-14.336-32-32s14.336-32 32-32z" />
<glyph unicode="&#xe629;" glyph-name="uniE00F" d="M960 704h-128c0 0-36.992 0-64 64-13.76 32.576-28.672 64-64 64h-256c-35.328 0-50.688-31.232-64-64-25.984-64-64-64-64-64h-64c0 35.328-28.672 64-64 64h-64c-35.328 0-64-28.672-64-64-35.328 0-64-28.672-64-64v-512c0-35.328 28.672-64 64-64h896c35.328 0 64 28.672 64 64v512c0 35.328-28.672 64-64 64zM960 128h-896v256h291.2c15.68-108.416 108.032-192 220.8-192 115.52 0 209.472 87.744 221.568 200h162.432v-264zM416 416c0 88.256 71.808 160 160 160s160-71.744 160-160c0-88.192-71.808-160-160-160s-160 71.808-160 160zM796.8 448c-15.68 108.416-108.032 192-220.8 192s-205.12-83.584-220.8-192h-291.2v192h256c37.376 0 92.16 27.2 123.264 103.936 5.312 12.992 8.896 20.16 11.264 24.064h242.688c4.288-7.040 9.792-20.032 11.84-24.896 41.408-98.112 109.696-103.104 122.944-103.104h128v-192h-163.2zM128 543.36c0-17.673 14.327-32 32-32s32 14.327 32 32c0 17.673-14.327 32-32 32s-32-14.327-32-32z" />
<glyph unicode="&#xe62a;" glyph-name="uniE024" d="M960 960h-896c-35.328 0-64-28.672-64-64v-896c0-35.328 28.672-64 64-64h896c35.328 0 64 28.672 64 64v896c0 35.328-28.672 64-64 64zM192 384v-128h-128v128h128zM64 512v128h128v-128h-128zM256 320h512v-320h-512v320zM768 384h-512v512h512v-512zM832 384h128v-128h-128v128zM832 512v128h128v-128h-128zM832 768v128h128v-128h-128zM192 768h-128v128h128v-128zM64 128h128v-128h-128v128zM832 128h128v-128h-128v128z" />
<glyph unicode="&#xe62b;" glyph-name="uniE0E2" d="M963.776 267.584c-174.272-174.208-457.856-174.336-632.128 0-84.352 84.288-130.752 196.544-130.752 316.096s46.464 231.808 130.688 316.032c12.48 12.48 12.48 32.768 0 45.248s-32.768 12.48-45.248 0c-96.384-96.32-149.44-224.64-149.44-361.28s53.12-265.024 149.44-361.344c81.344-81.408 183.616-128.96 289.664-143.872v-78.464h-96c-17.664 0-32-14.336-32-32s14.336-32 32-32h256c17.664 0 32 14.336 32 32s-14.336 32-32 32h-96v73.216c2.56-0.064 5.12-0.384 7.68-0.384 130.816 0 261.696 49.792 361.344 149.44 12.48 12.48 12.48 32.768 0 45.248s-32.768 12.544-45.248 0.064zM647.68 960c-207.872 0-376.32-168.512-376.32-376.32s168.512-376.32 376.32-376.32 376.32 168.448 376.32 376.32-168.512 376.32-376.32 376.32zM647.68 271.36c-172.224 0-312.32 140.096-312.32 312.32s140.096 312.32 312.32 312.32c172.224 0 312.32-140.096 312.32-312.32s-140.096-312.32-312.32-312.32z" />
<glyph unicode="&#xe62c;" glyph-name="ic_remove_circle_outline_black_24px" d="M298.667 469.334v-85.333h426.667v85.333h-426.667zM512 853.334c-235.52 0-426.667-191.147-426.667-426.667s191.147-426.667 426.667-426.667 426.667 191.147 426.667 426.667-191.147 426.667-426.667 426.667zM512 85.334c-188.16 0-341.333 153.173-341.333 341.333s153.173 341.333 341.333 341.333 341.333-153.173 341.333-341.333-153.173-341.333-341.333-341.333z" />
<glyph unicode="&#xe62d;" glyph-name="ic_add_circle_outline_black_24px" d="M554.667 640h-85.333v-170.667h-170.667v-85.333h170.667v-170.667h85.333v170.667h170.667v85.333h-170.667v170.667zM512 853.334c-235.52 0-426.667-191.147-426.667-426.667s191.147-426.667 426.667-426.667 426.667 191.147 426.667 426.667-191.147 426.667-426.667 426.667zM512 85.334c-188.16 0-341.333 153.173-341.333 341.333s153.173 341.333 341.333 341.333 341.333-153.173 341.333-341.333-153.173-341.333-341.333-341.333z" />
<glyph unicode="&#xe62e;" glyph-name="ic_indeterminate_check_box_black_24px" d="M810.667 810.667h-597.333c-46.933 0-85.333-38.4-85.333-85.333v-597.333c0-46.933 38.4-85.333 85.333-85.333h597.333c46.933 0 85.333 38.4 85.333 85.333v597.333c0 46.933-38.4 85.333-85.333 85.333zM725.333 384h-426.667v85.333h426.667v-85.333z" />
<glyph unicode="&#xe62f;" glyph-name="ic_add_box_black_24px" d="M810.667 810.667h-597.333c-47.36 0-85.333-38.4-85.333-85.333v-597.333c0-46.933 37.973-85.333 85.333-85.333h597.333c46.933 0 85.333 38.4 85.333 85.333v597.333c0 46.933-38.4 85.333-85.333 85.333zM725.333 384h-170.667v-170.667h-85.333v170.667h-170.667v85.333h170.667v170.667h85.333v-170.667h170.667v-85.333z" />
<glyph unicode="&#xe630;" glyph-name="widgets-3angle" d="M0 960v-1024h1024z" />
<glyph unicode="&#xe631;" glyph-name="uniE066" d="M893.12 582.72c5.632-25.344 8.896-51.392 8.896-78.144 0-206.592-175.36-378.816-406.272-415.808 48.832-19.712 103.552-31.232 161.856-31.232 54.976 0 106.88 10.112 153.728 27.712 59.328-20.224 124.096-25.472 177.664-25.472-27.84 33.408-47.168 66.176-60.992 94.976 59.392 52.992 96 123.2 96 200.512 0 91.392-51.008 172.864-130.88 227.456zM806.016 504.576c0 180.8-180.416 327.424-403.008 327.424s-403.008-146.624-403.008-327.424c0-94.336 49.344-179.072 127.936-238.848-14.784-38.144-39.808-88-82.24-139.008 80.512 0 184.192 10.56 264 59.584 30.016-5.824 61.184-9.216 93.312-9.216 222.592 0.064 403.008 146.624 403.008 327.488z" />
<glyph unicode="&#xe632;" glyph-name="uniE02B" d="M305.856 830.208c37.44 37.44 98.304 37.44 135.744 0l343.232-343.232c16.896 63.936 1.088 134.72-49.024 184.832l-226.304 226.24c-75.008 75.008-196.544 75.008-271.552 0l-50.88-50.88c-75.008-75.008-75.008-196.544 0-271.552l226.304-226.304c50.112-50.112 120.896-65.92 184.832-49.024l-343.232 343.232c-37.44 37.44-37.44 98.304 0 135.744l50.88 50.944zM514.496-2.048c75.008-75.008 196.544-75.008 271.552 0l50.88 50.944c75.008 75.008 75.008 196.544 0 271.552l-226.304 226.176c-50.112 50.112-120.896 65.92-184.832 49.024l343.232-343.232c37.44-37.44 37.44-98.304 0-135.744l-50.944-50.944c-37.44-37.44-98.304-37.44-135.744 0l-343.168 343.296c-16.896-63.936-1.088-134.72 49.024-184.832l226.304-226.24z" />
<glyph unicode="&#xe633;" glyph-name="ic_keyboard_arrow_up_black_24px" d="M316.16 281.174l195.84 195.413 195.84-195.413 60.16 60.16-256 256-256-256z" />
<glyph unicode="&#xe634;" glyph-name="ic_keyboard_arrow_right_black_24px1" d="M366.507 241.494l195.413 195.84-195.413 195.84 60.16 60.16 256-256-256-256z" />
<glyph unicode="&#xe635;" glyph-name="ic_keyboard_arrow_down_black_24px1" d="M316.16 604.16l195.84-195.413 195.84 195.413 60.16-60.16-256-256-256 256z" />
<glyph unicode="&#xe636;" glyph-name="ic_keyboard_arrow_left_black_24px" d="M657.493 252.16l-195.413 195.84 195.413 195.84-60.16 60.16-256-256 256-256z" />
<glyph unicode="&#xe637;" glyph-name="ic_arrow_back_black_24px" d="M853.333 469.334h-519.253l238.507 238.507-60.587 60.16-341.333-341.333 341.333-341.333 60.16 60.16-238.080 238.507h519.253v85.333z" />
<glyph unicode="&#xe638;" glyph-name="ic_arrow_forward_black_24px" d="M512 768l-60.16-60.16 238.080-238.507h-519.253v-85.333h519.253l-238.080-238.507 60.16-60.16 341.333 341.333z" />
<glyph unicode="&#xe639;" glyph-name="ic_textsms_black_24px" d="M853.333 853.334h-682.667c-46.933 0-84.907-38.4-84.907-85.333l-0.427-768 170.667 170.667h597.333c46.933 0 85.333 38.4 85.333 85.333v512c0 46.933-38.4 85.333-85.333 85.333zM384 469.334h-85.333v85.333h85.333v-85.333zM554.667 469.334h-85.333v85.333h85.333v-85.333zM725.333 469.334h-85.333v85.333h85.333v-85.333z" />
<glyph unicode="&#xe63a;" glyph-name="ic_library_books_black_24px" d="M170.667 682.667h-85.333v-597.333c0-46.933 38.4-85.333 85.333-85.333h597.333v85.333h-597.333v597.333zM853.333 853.334h-512c-46.933 0-85.333-38.4-85.333-85.333v-512c0-46.933 38.4-85.333 85.333-85.333h512c46.933 0 85.333 38.4 85.333 85.333v512c0 46.933-38.4 85.333-85.333 85.333zM810.667 469.334h-426.667v85.333h426.667v-85.333zM640 298.667h-256v85.333h256v-85.333zM810.667 640h-426.667v85.333h426.667v-85.333z" />
<glyph unicode="&#xe63b;" glyph-name="ic_person_outline_black_24px" d="M512 686.934c49.493 0 89.6-40.107 89.6-89.6s-40.107-89.6-89.6-89.6-89.6 40.107-89.6 89.6 40.107 89.6 89.6 89.6zM512 302.934c126.72 0 260.267-62.293 260.267-89.6v-46.933h-520.533v46.933c0 27.307 133.547 89.6 260.267 89.6zM512 768c-94.293 0-170.667-76.373-170.667-170.667s76.373-170.667 170.667-170.667 170.667 76.373 170.667 170.667-76.373 170.667-170.667 170.667zM512 384c-113.92 0-341.333-57.173-341.333-170.667v-128h682.667v128c0 113.493-227.413 170.667-341.333 170.667z" />
<glyph unicode="&#xe63c;" glyph-name="ic_content_copy_black_48px" d="M682.667 917.333h-512c-46.933 0-85.333-38.4-85.333-85.333v-597.333h85.333v597.333h512v85.333zM810.667 746.667h-469.333c-46.933 0-85.333-38.4-85.333-85.333v-597.333c0-46.933 38.4-85.333 85.333-85.333h469.333c46.933 0 85.333 38.4 85.333 85.333v597.333c0 46.933-38.4 85.333-85.333 85.333zM810.667 64h-469.333v597.333h469.333v-597.333z" />
<glyph unicode="&#xe63d;" glyph-name="ic_format_align_left_black_48px" d="M640 320h-512v-85.333h512v85.333zM640 661.333h-512v-85.333h512v85.333zM128 405.333h768v85.333h-768v-85.333zM128 64h768v85.333h-768v-85.333zM128 832v-85.333h768v85.333h-768z" />
<glyph unicode="&#xe63e;" glyph-name="ic_chat_bubble_outline_black_48px" d="M853.333 874.667h-682.667c-46.933 0-85.333-38.4-85.333-85.333v-768l170.667 170.667h597.333c46.933 0 85.333 38.4 85.333 85.333v512c0 46.933-38.4 85.333-85.333 85.333zM853.333 277.333h-597.333l-85.333-85.333v597.333h682.667v-512z" />
<glyph unicode="&#xe63f;" glyph-name="email" d="M853.333 618.667l-341.333-213.333-341.333 213.333v85.333l341.333-213.333 341.333 213.333zM853.333 789.333h-682.667c-47.36 0-85.333-37.973-85.333-85.333v-512c0-46.933 38.4-85.333 85.333-85.333h682.667c46.933 0 85.333 38.4 85.333 85.333v512c0 47.36-38.4 85.333-85.333 85.333z" />
<glyph unicode="&#xe640;" glyph-name="calendar-check" d="M810.667 128h-597.333v469.333h597.333zM810.667 810.667h-42.667v85.333h-85.333v-85.333h-341.333v85.333h-85.333v-85.333h-42.667c-47.36 0-85.333-38.4-85.333-85.333v-597.333c0-46.933 38.4-85.333 85.333-85.333h597.333c46.933 0 85.333 38.4 85.333 85.333v597.333c0 46.933-38.4 85.333-85.333 85.333zM705.28 466.774l-45.227 45.227-208.213-208.213-90.453 90.453-45.227-45.227 135.68-135.68 253.44 253.44z" />
<glyph unicode="&#xe641;" glyph-name="ic_favorite_black_24px" d="M512 56.533l-61.867 56.32c-219.733 199.253-364.8 330.667-364.8 491.947 0 131.413 103.253 234.667 234.667 234.667 74.24 0 145.493-34.56 192-89.173 46.507 54.613 117.76 89.173 192 89.173 131.413 0 234.667-103.253 234.667-234.667 0-161.28-145.067-292.693-364.8-492.373l-61.867-55.893z" />
<glyph unicode="&#xe642;" glyph-name="calendar-clock" d="M640 384h64v-120.32l104.107-60.16-32-55.467-136.107 78.507v157.44zM810.667 597.334h-597.333v-469.333h199.253c-18.347 38.827-28.587 82.347-28.587 128 0 165.12 133.547 298.667 298.667 298.667 45.653 0 89.173-10.24 128-28.587v71.253zM213.333 42.667c-47.36 0-85.333 38.4-85.333 85.333v597.333c0 47.36 37.973 85.333 85.333 85.333h42.667v85.333h85.333v-85.333h341.333v85.333h85.333v-85.333h42.667c46.933 0 85.333-38.4 85.333-85.333v-260.267c52.907-53.76 85.333-127.573 85.333-209.067 0-165.12-133.547-298.667-298.667-298.667-81.493 0-155.307 32.427-209.067 85.333h-260.267zM682.667 462.934c-114.347 0-206.933-92.587-206.933-206.933s92.587-206.933 206.933-206.933c114.347 0 206.933 92.587 206.933 206.933s-92.587 206.933-206.933 206.933z" />
<glyph unicode="&#xe643;" glyph-name="email-outline" d="M853.333 789.333h-682.667c-46.933 0-85.333-38.4-85.333-85.333v-512c0-46.933 38.4-85.333 85.333-85.333h682.667c46.933 0 85.333 38.4 85.333 85.333v512c0 46.933-38.4 85.333-85.333 85.333zM853.333 192h-682.667v426.667l341.333-213.333 341.333 213.333v-426.667zM853.333 704l-341.333-213.333-341.333 213.333h682.667z" />
<glyph unicode="&#xe644;" glyph-name="image-filter-vintage" d="M512 256c-94.293 0-170.667 76.373-170.667 170.667s76.373 170.667 170.667 170.667c94.293 0 170.667-76.373 170.667-170.667s-76.373-170.667-170.667-170.667zM797.867 409.6c-11.947 6.827-24.32 12.373-36.693 17.067 12.373 4.693 24.747 10.24 36.693 17.067 81.92 46.933 127.573 132.267 128 221.44-76.373 43.947-173.653 47.36-256 0-11.947-6.827-23.040-14.933-33.28-23.040 2.133 13.227 3.413 26.88 3.413 40.533 0 94.72-51.627 177.067-128 221.44-76.373-44.373-128-126.72-128-221.44 0-13.653 1.28-27.307 3.413-40.533-10.24 8.533-21.333 16.64-33.28 23.467-81.92 47.36-179.2 43.947-256 0 0-88.32 45.653-174.933 128-221.44 11.947-6.827 24.32-12.373 36.693-17.493-12.373-4.267-24.747-9.813-36.693-16.64-81.92-47.36-127.573-132.693-128-221.44 76.373-43.947 173.653-47.36 256 0 11.947 6.827 23.040 14.933 33.28 23.040-2.133-13.653-3.413-27.307-3.413-40.96 0-94.72 51.627-177.067 128-221.44 76.373 44.373 128 126.72 128 221.44 0 13.653-1.28 27.307-3.413 40.533 10.24-8.533 21.333-16.213 33.28-23.040 81.92-47.36 179.2-43.947 256 0-0.427 89.173-46.080 174.507-128 221.44z" />
<glyph unicode="&#xe645;" glyph-name="multiplication" d="M469.333 810.667h85.333v-310.187l268.373 154.88 42.667-73.813-268.373-154.88 268.8-155.307-42.667-73.813-268.8 155.733v-310.613h-85.333v310.187l-269.227-154.88-42.667 73.813 269.227 154.88-267.947 155.307 42.667 73.813 267.947-154.88v309.76z" />
<glyph unicode="&#xe646;" glyph-name="ic_check_black_24px" d="M384 248.747l-177.92 177.92-60.587-60.16 238.507-238.507 512 512-60.16 60.16z" />
<glyph unicode="&#xe647;" glyph-name="uni5A" d="M832 128h-640v640h472.064l39.936 64h-512c-35.328 0-64-28.672-64-64v-640c0-35.328 28.672-64 64-64h640c35.328 0 64 28.672 64 64v422.592l-64-102.592v-320zM939.712 888.704c-7.552 4.928-16.064 7.296-24.448 7.296-14.592 0-28.928-7.168-37.504-20.288l-347.904-501.888-134.592 153.6c-18.24 16.832-46.528 15.744-63.36-2.432s-15.68-46.528 2.496-63.296l161.792-184.64c1.024-1.664 2.624-2.944 3.904-4.48l4.096-4.672c0.512-0.448 1.152-0.576 1.664-1.024 1.28-1.024 2.048-2.432 3.392-3.392 2.752-1.792 5.76-2.944 8.768-4.032 0.704-0.256 1.28-0.704 1.984-0.896 4.48-1.472 9.152-2.368 13.76-2.368 0.192 0 0.384 0.128 0.576 0.128 12.16-0.064 24.256 4.416 33.152 14.016 1.664 1.792 2.304 3.968 3.648 5.952 0.064 0.064 0.128 0.128 0.192 0.192l381.376 550.208c13.504 20.672 7.744 48.448-12.992 62.016z" />
<glyph unicode="&#xe648;" glyph-name="uniE017" d="M929.856 895.68c-0.576 0-1.152 0-1.728 0-0.512 0-0.96 0.064-1.472 0h-402.368c-9.792-0.448-32.064-15.744-34.944-18.624l-470.656-470.656c-24.96-24.96-24.96-65.408 0-90.368l361.344-361.344c12.544-12.48 28.864-18.688 45.184-18.688s32.704 6.208 45.184 18.688l470.656 470.656c2.88 2.88 18.944 22.656 18.944 34.944v403.648c0.896 17.856-12.608 31.744-30.144 31.744zM896 472.256c-0.96-1.472-1.92-3.008-2.816-4.224l-467.904-468.032-361.344 361.152 468.032 468.032c1.28 0.896 2.752 1.856 4.288 2.816h359.744v-359.744zM768 736c0-17.673 14.327-32 32-32s32 14.327 32 32c0 17.673-14.327 32-32 32s-32-14.327-32-32z" />
<glyph unicode="&#xe649;" glyph-name="uni21" d="M544 64c17.664 0 32 14.336 32 32v626.752l137.344-137.344c12.48-12.48 32.768-12.48 45.248 0s12.48 32.768 0 45.248l-192 192c-2.944 2.944-6.464 5.248-10.368 6.848-7.808 3.264-16.64 3.264-24.448 0-3.84-1.536-7.232-3.84-10.176-6.72-0.064-0.064-0.128-0.064-0.256-0.128l-192-192c-12.48-12.48-12.48-32.768 0-45.248s32.768-12.48 45.248 0l137.408 137.344v-626.752c0-17.664 14.336-32 32-32z" />
<glyph unicode="&#xe64a;" glyph-name="uni22" d="M544 832c-17.664 0-32-14.336-32-32v-626.752l-137.344 137.344c-12.48 12.48-32.768 12.48-45.248 0s-12.48-32.768 0-45.248l192-192c0.064-0.064 0.192-0.064 0.256-0.192 2.88-2.816 6.336-5.184 10.112-6.72 7.808-3.264 16.64-3.264 24.448 0 3.904 1.6 7.424 3.968 10.368 6.912l192 192c12.48 12.48 12.48 32.768 0 45.248s-32.768 12.48-45.248 0l-137.344-137.344v626.752c0 17.664-14.336 32-32 32z" />
<glyph unicode="&#xe64b;" glyph-name="uni23" d="M128 479.872c0-4.096 0.896-8.192 2.496-12.096 1.536-3.776 3.84-7.168 6.656-10.048 0.064-0.128 0.128-0.256 0.192-0.384l192-192c12.48-12.48 32.768-12.48 45.248 0s12.48 32.768 0 45.248l-137.344 137.408h626.752c17.664 0 32 14.336 32 32s-14.336 32-32 32h-626.752l137.344 137.344c12.48 12.48 12.48 32.768 0 45.248s-32.768 12.48-45.248 0l-192-192c-0.064-0.064-0.128-0.256-0.192-0.32-2.816-2.88-5.12-6.272-6.656-10.048-1.664-3.904-2.496-8.064-2.496-12.224v0c0-0.064 0-0.064 0-0.128z" />
<glyph unicode="&#xe64c;" glyph-name="uni24" d="M128 480c0-17.664 14.336-32 32-32h626.752l-137.344-137.344c-12.48-12.48-12.48-32.768 0-45.248s32.768-12.48 45.248 0l192 192c2.944 2.944 5.312 6.464 6.912 10.368 1.536 3.904 2.432 8 2.432 12.096 0 0.064 0 0.064 0 0.128v0c0 4.16-0.832 8.32-2.496 12.224-1.6 3.904-3.968 7.424-6.912 10.368l-192 192c-12.48 12.48-32.768 12.48-45.248 0s-12.48-32.768 0-45.248l137.408-137.344h-626.752c-17.664 0-32-14.336-32-32z" />
<glyph unicode="&#xe64d;" glyph-name="uni42" d="M287.936 320h446.912c9.152 0 17.28 4.416 23.040 11.264l0.128-0.128c12.48 13.888 12.48 36.416 0 50.304l-223.936 248.128c-12.48 13.888-32.704 13.888-45.12 0-0.32-0.384-0.448-0.896-0.768-1.28l-223.488-246.848c-12.48-13.888-12.48-36.416 0-50.304 0.128-0.128 0.256-0.192 0.384-0.32 5.824-6.656 13.824-10.816 22.848-10.816z" />
<glyph unicode="&#xe64e;" glyph-name="uni43" d="M533.824 330.432c0.32 0.384 0.448 0.896 0.768 1.28l223.424 246.848c12.48 13.888 12.48 36.416 0 50.304-0.128 0.128-0.256 0.192-0.384 0.256-5.76 6.72-13.824 10.88-22.784 10.88h-446.912c-9.152 0-17.28-4.416-23.104-11.264l-0.128 0.128c-12.48-13.888-12.48-36.416 0-50.304l223.936-248.128c12.48-13.888 32.704-13.888 45.184 0z" />
<glyph unicode="&#xe64f;" glyph-name="uni44" d="M578.56 695.296l-248.128-224c-13.888-12.48-13.888-32.704 0-45.12 0.384-0.32 0.896-0.448 1.28-0.768l246.848-223.424c13.888-12.48 36.416-12.48 50.304 0 0.128 0.128 0.128 0.256 0.256 0.384 6.72 5.76 10.88 13.824 10.88 22.784v446.912c0 9.152-4.416 17.28-11.264 23.040l0.128 0.128c-13.888 12.48-36.416 12.48-50.304 0.064z" />
<glyph unicode="&#xe650;" glyph-name="uni45" d="M444.608 200.768l244.864 224.512c13.696 12.48 13.696 32.768 0 45.248-0.384 0.32-0.896 0.448-1.28 0.768l-243.584 224c-13.696 12.48-35.968 12.48-49.664 0-0.064-0.128-0.128-0.32-0.256-0.448-6.528-5.76-10.688-13.824-10.688-22.848v-448c0-9.152 4.352-17.28 11.072-23.104l-0.128-0.128c13.76-12.544 35.968-12.544 49.664 0z" />
<glyph unicode="&#xe651;" glyph-name="uni5B" d="M512 832c-212.096 0-384-171.904-384-384s171.904-384 384-384 384 171.904 384 384-171.904 384-384 384zM512 128c-176.448 0-320 143.552-320 320s143.552 320 320 320 320-143.552 320-320-143.552-320-320-320z" />
<glyph unicode="&#xe652;" glyph-name="uni59" d="M256 640v-448c0-35.328 28.672-64 64-64h448c35.328 0 64 28.672 64 64v448c0 35.328-28.672 64-64 64h-448c-35.328 0-64-28.672-64-64zM768 192h-448v448h448v-448zM416 384h96v-96c0-17.664 14.336-32 32-32s32 14.336 32 32v96h96c17.664 0 32 14.336 32 32s-14.336 32-32 32h-96v96c0 17.664-14.336 32-32 32s-32-14.336-32-32v-96h-96c-17.664 0-32-14.336-32-32s14.336-32 32-32z" />
<glyph unicode="&#xe653;" glyph-name="uni39" d="M758.592 470.016l-189.376 214.080c-12.544 12.544-32.96 12.544-45.504 0s-12.544-32.96 0-45.504l169.6-191.744-169.6-191.744c-12.544-12.544-12.544-32.96 0-45.504s32.96-12.544 45.504 0l189.376 214.080c6.4 6.4 9.472 14.784 9.344 23.168 0.064 8.384-2.944 16.768-9.344 23.168zM294.144 209.536c12.544-12.544 32.96-12.544 45.504 0l189.376 214.080c6.4 6.4 9.472 14.784 9.344 23.168 0.128 8.384-2.944 16.832-9.344 23.168l-189.312 214.144c-12.544 12.544-32.96 12.544-45.504 0s-12.544-32.96 0-45.504l169.6-191.744-169.6-191.744c-12.608-12.608-12.608-33.024-0.064-45.568z" />
<glyph unicode="&#xe654;" glyph-name="uniE033" d="M664.192 583.424l-156.8 317.696-156.8-317.696-350.592-50.944 253.696-247.296-59.904-349.184 313.6 164.864 313.6-164.864-59.904 349.184 253.696 247.296z" />
<glyph unicode="&#xe655;" glyph-name="play-circle" d="M426.667 228.694v384l256-192zM512 847.36c-235.52 0-426.667-191.147-426.667-426.667s191.147-426.667 426.667-426.667c235.52 0 426.667 191.147 426.667 426.667 0 235.947-192 426.667-426.667 426.667z" />
<glyph unicode="&#xe656;" glyph-name="pause-circle" d="M640 250.027h-85.333v341.333h85.333zM469.333 250.027h-85.333v341.333h85.333zM512 847.36c-235.52 0-426.667-191.147-426.667-426.667s191.147-426.667 426.667-426.667c235.52 0 426.667 191.147 426.667 426.667 0 235.947-192 426.667-426.667 426.667z" />
<glyph unicode="&#xe657;" glyph-name="volume-high" d="M597.333 800.854v-87.893c123.307-36.693 213.333-151.040 213.333-286.293s-90.027-249.173-213.333-285.867v-88.32c170.667 38.827 298.667 191.573 298.667 374.187s-128 335.36-298.667 374.187zM704 426.667c0 75.52-42.667 140.373-106.667 171.947v-342.613c64 30.293 106.667 95.573 106.667 170.667zM128 554.667v-256h170.667l213.333-213.333v682.667l-213.333-213.333h-170.667z" />
<glyph unicode="&#xe658;" glyph-name="volume-off" d="M512 768l-89.173-89.173 89.173-89.173zM182.187 810.667l-54.187-54.187 201.813-201.813h-201.813v-256h170.667l213.333-213.333v287.147l181.333-181.76c-28.587-21.76-60.587-39.68-96-49.92v-88.32c58.88 13.653 112.213 40.533 157.013 77.227l87.467-87.040 54.187 54.187-384 384zM810.667 426.667c0-40.107-8.533-77.653-23.040-112.64l64.427-64.427c27.733 52.907 43.947 113.067 43.947 177.067 0 182.613-128 335.36-298.667 374.187v-87.893c123.307-36.693 213.333-151.040 213.333-286.293zM704 426.667c0 75.52-42.667 140.373-106.667 171.947v-94.293l104.533-104.533c2.133 8.533 2.133 17.92 2.133 26.88z" />
<glyph unicode="&#xe659;" glyph-name="fullscreen" d="M213.333 725.334h213.333v-85.333h-128v-128h-85.333v213.333zM597.333 725.334h213.333v-213.333h-85.333v128h-128v85.333zM725.333 341.334h85.333v-213.333h-213.333v85.333h128v128zM426.667 213.334v-85.333h-213.333v213.333h85.333v-128h128z" />
<glyph unicode="&#xe65a;" glyph-name="fullscreen-exit" d="M597.333 341.334h213.333v-85.333h-128v-128h-85.333v213.333zM213.333 341.334h213.333v-213.333h-85.333v128h-128v85.333zM341.333 725.334h85.333v-213.333h-213.333v85.333h128v128zM810.667 597.334v-85.333h-213.333v213.333h85.333v-128h128z" />
<glyph unicode="&#xe65b;" glyph-name="link-variant" d="M451.84 387.84c17.493-16.64 17.493-43.947 0-60.587-16.64-16.64-43.947-16.64-60.587 0-83.2 83.2-83.2 218.453 0 301.653v0l151.040 151.040c83.2 83.2 218.453 83.2 301.653 0s83.2-218.453 0-301.653l-63.573-63.573c0.427 34.987-5.12 69.973-17.067 103.253l20.053 20.48c50.347 49.92 50.347 130.987 0 180.907-49.92 50.347-130.987 50.347-180.907 0l-150.613-150.613c-50.347-49.92-50.347-130.987 0-180.907zM572.16 568.747c16.64 16.64 43.947 16.64 60.587 0 83.2-83.2 83.2-218.453 0-301.653v0l-151.040-151.040c-83.2-83.2-218.453-83.2-301.653 0s-83.2 218.453 0 301.653l63.573 63.573c-0.427-34.987 5.12-69.973 17.067-103.68l-20.053-20.053c-50.347-49.92-50.347-130.987 0-180.907 49.92-50.347 130.987-50.347 180.907 0l150.613 150.613c50.347 49.92 50.347 130.987 0 180.907-17.493 16.64-17.493 43.947 0 60.587z" />
<glyph unicode="&#xe65c;" glyph-name="share-variant" d="M768 271.999c-32.427 0-61.44-12.8-83.627-32.853l-304.213 177.067c2.133 9.813 3.84 19.627 3.84 29.867s-1.707 20.053-3.84 29.867l300.8 175.36c23.040-21.333 53.333-34.56 87.040-34.56 70.827 0 128 57.173 128 128s-57.173 128-128 128c-70.827 0-128-57.173-128-128 0-10.24 1.707-20.053 3.84-29.867l-300.8-175.36c-23.040 21.333-53.333 34.56-87.040 34.56-70.827 0-128-57.173-128-128s57.173-128 128-128c33.707 0 64 13.227 87.040 34.56l303.787-177.067c-2.133-8.96-3.413-18.347-3.413-28.16 0-68.693 55.893-124.16 124.587-124.16s124.587 55.467 124.587 124.16c0 68.693-55.893 124.587-124.587 124.587z" />
<glyph unicode="&#xe65d;" glyph-name="share-thin-icon" d="M736 288c-32.736 0-62.432-12.736-85.056-33.056l-242.432 151.424c4.576 13.12 7.52 27.008 7.52 41.632s-3.008 28.512-7.52 41.568l242.464 151.488c22.656-20.32 52.288-33.056 85.024-33.056 70.624 0 128 57.376 128 128 0 70.56-57.376 128-128 128-70.56 0-128-57.44-128-128 0-14.624 3.008-28.512 7.488-41.632l-242.4-151.488c-22.656 20.32-52.32 33.12-85.088 33.12-70.592 0-128-57.44-128-128 0-70.624 57.408-128 128-128 32.736 0 62.432 12.672 85.088 33.056l242.4-151.488c-4.544-13.12-7.488-27.008-7.488-41.568 0-70.624 57.376-128 128-128 70.56 0 128 57.376 128 128 0 70.56-57.376 128-128 128zM736 800c35.328 0 64-28.672 64-64s-28.672-64-64-64c-35.296 0-64 28.672-64 64s28.704 64 64 64zM288.032 384c-35.328 0-64 28.672-64 64s28.672 64 64 64c35.296 0 64-28.672 64-64s-28.704-64-64-64zM736 96c-35.296 0-64 28.672-64 64s28.704 64 64 64c35.328 0 64-28.672 64-64s-28.672-64-64-64z" />
<glyph unicode="&#xe65e;" glyph-name="uniE030" d="M1023.488 590.144c-2.688 157.056-130.112 297.024-287.488 297.024-91.008 0-171.2-47.616-224-117.504-52.8 69.888-132.992 117.504-224 117.504-157.376 0-284.8-139.968-287.488-297.024h-0.512c0-0.96 0.192-1.856 0.192-2.816 0-0.704-0.192-1.408-0.192-2.176 0-4.416 1.088-7.744 1.28-11.968 14.080-400.256 506.688-564.352 506.688-564.352s499.84 163.904 514.624 563.712c0.256 4.48 1.408 8 1.408 12.608 0 0.768-0.192 1.472-0.192 2.176 0 1.024 0.192 1.856 0.192 2.816h-0.512zM958.656 574.912c-11.328-307.2-362.112-463.36-450.56-497.856-87.68 34.56-432.064 190.016-442.88 499.072-0.128 3.2-0.448 6.144-0.896 9.344 0.064 1.152 0.128 2.368 0.192 3.584 2.176 126.912 104.512 234.112 223.488 234.112 65.664 0 128.704-33.536 172.928-92.096 12.096-16 30.976-25.408 51.072-25.408s38.976 9.408 51.072 25.408c44.224 58.56 107.264 92.096 172.928 92.096 118.976 0 221.312-107.2 223.488-234.112 0-1.216 0.064-2.432 0.192-3.648-0.448-3.136-0.832-6.464-1.024-10.496z" />
<glyph unicode="&#xe65f;" glyph-name="checkbox-marked-circle-outline" d="M853.333 426.667c0-188.587-152.747-341.333-341.333-341.333s-341.333 152.747-341.333 341.333c0 188.587 152.747 341.333 341.333 341.333 32.427 0 64-4.693 93.867-13.227l66.987 66.987c-49.493 20.48-103.68 31.573-160.853 31.573-235.52 0-426.667-191.147-426.667-426.667s191.147-426.667 426.667-426.667c235.52 0 426.667 191.147 426.667 426.667zM337.493 508.587l-60.16-60.587 192-192 426.667 426.667-60.16 60.587-366.507-366.507-131.84 131.84z" />
<glyph unicode="&#xe660;" glyph-name="uniE015" d="M194.193 64c0-35.346 28.654-64 64-64s64 28.654 64 64c0 35.346-28.654 64-64 64s-64-28.654-64-64zM770.193 64c0-35.346 28.654-64 64-64s64 28.654 64 64c0 35.346-28.654 64-64 64s-64-28.654-64-64zM0.337 864c0-17.664 14.336-32 32-32h66.496l39.744-169.984 55.616-278.016c0-2.304 1.088-4.288 1.344-6.528l-32.576-146.56c-2.112-9.472 0.192-19.392 6.272-26.944 6.080-7.616 15.232-11.968 24.96-11.968h726.016c17.664 0 32 14.336 32 32s-14.336 32-32 32h-686.080l14.656 65.92c3.2-0.512 6.080-1.92 9.408-1.92h583.36c35.328 0 56.64 6.976 73.664 48l103.936 318.848c18.048 57.152-21.568 81.152-56.96 81.152h-768c-4.992 0-9.344-1.728-14.016-2.816l-24.832 106.112c-3.392 14.464-16.256 24.704-31.168 24.704h-91.84c-17.728 0-32-14.336-32-32zM195.473 704h761.92l-102.144-313.536c-1.216-2.752-2.24-4.736-3.008-6.080-2.112-0.192-5.44-0.384-10.688-0.384h-583.36v6.336l-1.216 6.208-61.504 307.456z" />
<glyph unicode="&#xe661;" glyph-name="uni64" d="M352 448h512c17.664 0 32 14.336 32 32s-14.336 32-32 32h-512c-17.664 0-32-14.336-32-32s14.336-32 32-32zM352 704h512c17.664 0 32 14.336 32 32s-14.336 32-32 32h-512c-17.664 0-32-14.336-32-32s14.336-32 32-32zM352 192h512c17.664 0 32 14.336 32 32s-14.336 32-32 32h-512c-17.664 0-32-14.336-32-32s14.336-32 32-32zM128 736c0-17.673 14.327-32 32-32s32 14.327 32 32c0 17.673-14.327 32-32 32s-32-14.327-32-32zM128 480c0-17.673 14.327-32 32-32s32 14.327 32 32c0 17.673-14.327 32-32 32s-32-14.327-32-32zM128 224c0-17.673 14.327-32 32-32s32 14.327 32 32c0 17.673-14.327 32-32 32s-32-14.327-32-32z" />
<glyph unicode="&#xe662;" glyph-name="uniE031" d="M1020.288 545.728c-7.552 23.168-27.584 40.064-51.648 43.584l-275.84 40.064-123.392 249.92c-10.816 21.888-33.024 35.712-57.408 35.712s-46.592-13.824-57.408-35.712l-123.328-249.92-275.84-40.064c-24.128-3.52-44.16-20.416-51.648-43.584-7.552-23.168-1.28-48.576 16.192-65.6l199.616-194.56-47.104-274.752c-4.096-24 5.76-48.256 25.472-62.592 11.072-8.128 24.256-12.224 37.568-12.224 10.176 0 20.416 2.432 29.76 7.36l246.72 129.728 246.72-129.728c9.344-4.928 19.584-7.36 29.76-7.36 13.248 0 26.496 4.096 37.632 12.224 19.712 14.336 29.568 38.592 25.472 62.592l-47.104 274.752 199.616 194.56c17.408 16.96 23.68 42.432 16.192 65.6zM735.68 307.904l52.8-307.904-276.48 145.344-276.48-145.344 52.8 307.904-223.68 218.048 309.12 44.928 138.24 280.128 138.24-280.128 309.12-44.928-223.68-218.048z" />
<glyph unicode="&#xe663;" glyph-name="cart" d="M725.333 170.667c-47.36 0-85.333-37.973-85.333-85.333 0-46.933 38.4-85.333 85.333-85.333s85.333 38.4 85.333 85.333c0 47.36-38.4 85.333-85.333 85.333zM42.667 853.334v-85.333h85.333l153.6-323.84-58.027-104.533c-6.4-11.947-10.24-26.027-10.24-40.96 0-46.933 38.4-85.333 85.333-85.333h512v85.333h-494.080c-5.973 0-10.667 4.693-10.667 10.667 0 2.133 0.427 3.84 1.28 5.12l38.4 69.547h317.867c32 0 60.16 17.92 74.667 43.947l152.747 276.053c2.987 6.827 5.12 14.080 5.12 21.333 0 23.467-19.2 42.667-42.667 42.667h-631.040l-40.107 85.333zM298.667 170.667c-47.36 0-85.333-37.973-85.333-85.333 0-46.933 38.4-85.333 85.333-85.333s85.333 38.4 85.333 85.333c0 47.36-38.4 85.333-85.333 85.333z" />
<glyph unicode="&#xe664;" glyph-name="truck" d="M768 149.334c-35.413 0-64 28.587-64 64s28.587 64 64 64c35.413 0 64-28.587 64-64s-28.587-64-64-64zM832 533.334l83.627-106.667h-190.293v106.667zM256 149.334c-35.413 0-64 28.587-64 64s28.587 64 64 64c35.413 0 64-28.587 64-64s-28.587-64-64-64zM853.333 597.334h-128v170.667h-597.333c-47.36 0-85.333-37.973-85.333-85.333v-469.333h85.333c0-70.827 57.173-128 128-128s128 57.173 128 128h256c0-70.827 57.173-128 128-128s128 57.173 128 128h85.333v213.333l-128 170.667z" />
<glyph unicode="&#xe665;" glyph-name="earth" d="M763.733 196.694c-11.093 34.133-43.093 59.307-81.067 59.307h-42.667v128c0 23.467-19.2 42.667-42.667 42.667h-256v85.333h85.333c23.467 0 42.667 19.2 42.667 42.667v85.333h85.333c46.933 0 85.333 38.4 85.333 85.333v17.493c125.013-50.347 213.333-172.8 213.333-316.16 0-88.747-34.133-169.387-89.6-229.973zM469.333 88.32c-168.533 20.907-298.667 164.267-298.667 338.347 0 26.453 3.413 52.053 8.96 76.373l204.373-204.373v-42.667c0-46.933 38.4-85.333 85.333-85.333zM512 853.334c-235.52 0-426.667-191.147-426.667-426.667s191.147-426.667 426.667-426.667c235.52 0 426.667 191.147 426.667 426.667s-191.147 426.667-426.667 426.667z" />
<glyph unicode="&#xe666;" glyph-name="key-variant" d="M938.667 170.667v-170.667h-170.667v128h-128v128h-128l-96.427 96.427c-23.467-7.253-48.213-11.093-74.24-11.093-141.227 0-256 114.773-256 256s114.773 256 256 256c141.227 0 256-114.773 256-256 0-26.027-3.84-50.773-11.093-74.24l352.427-352.427zM298.667 725.334c-46.933 0-85.333-38.4-85.333-85.333s38.4-85.333 85.333-85.333c46.933 0 85.333 38.4 85.333 85.333s-38.4 85.333-85.333 85.333z" />
<glyph unicode="&#xe667;" glyph-name="clipboard-account" d="M768 128h-512v59.733c0 85.333 170.667 132.267 256 132.267s256-46.933 256-132.267zM512 640c70.827 0 128-57.173 128-128s-57.173-128-128-128c-70.827 0-128 57.173-128 128s57.173 128 128 128zM512 810.667c23.467 0 42.667-19.2 42.667-42.667s-19.2-42.667-42.667-42.667c-23.467 0-42.667 19.2-42.667 42.667s19.2 42.667 42.667 42.667zM810.667 810.667h-178.347c-17.92 49.493-64.853 85.333-120.32 85.333s-102.4-35.84-120.32-85.333h-178.347c-46.933 0-85.333-38.4-85.333-85.333v-597.333c0-46.933 38.4-85.333 85.333-85.333h597.333c46.933 0 85.333 38.4 85.333 85.333v597.333c0 46.933-38.4 85.333-85.333 85.333z" />
<glyph unicode="&#xe668;" glyph-name="newspaper" d="M853.333 469.334h-682.667v128h682.667zM853.333 384h-298.667v42.667h298.667zM853.333 298.667h-298.667v42.667h298.667zM853.333 213.334h-298.667v42.667h298.667zM853.333 128h-298.667v42.667h298.667zM512 128h-341.333v298.667h341.333zM867.413 739.414l-70.827 71.253-71.253-71.253-71.253 71.253-70.827-71.253-71.253 71.253-71.253-71.253-70.827 71.253-71.253-71.253-71.253 71.253-70.827-71.253-71.253 71.253v-682.667c0-46.933 38.4-85.333 85.333-85.333h682.667c46.933 0 85.333 38.4 85.333 85.333v682.667l-71.253-71.253z" />
<glyph unicode="&#xe669;" glyph-name="uni66" d="M864 768h-96c0 35.328-28.672 64-64 64h-64c-35.328 0-64-28.672-64-64h-416c-17.664 0-32-14.336-32-32s14.336-32 32-32h416c0-35.328 28.672-64 64-64h64c35.328 0 64 28.672 64 64h96c17.664 0 32 14.336 32 32s-14.336 32-32 32zM704 704h-64v64h64v-64zM864 512h-416c0 35.328-28.672 64-64 64h-64c-35.328 0-64-28.672-64-64h-96c-17.664 0-32-14.336-32-32s14.336-32 32-32h96c0-35.328 28.672-64 64-64h64c35.328 0 64 28.672 64 64h416c17.664 0 32 14.336 32 32s-14.336 32-32 32zM384 448h-64v64h64v-64zM864 256h-224c0 35.328-28.672 64-64 64h-64c-35.328 0-64-28.672-64-64h-288c-17.664 0-32-14.336-32-32s14.336-32 32-32h288c0-35.328 28.672-64 64-64h64c35.328 0 64 28.672 64 64h224c17.664 0 32 14.336 32 32s-14.336 32-32 32zM576 192h-64v64h64v-64z" />
<glyph unicode="&#xe66a;" glyph-name="alert" d="M554.667 341.334h-85.333v170.667h85.333zM554.667 170.667h-85.333v85.333h85.333zM42.667 42.667h938.667l-469.333 810.667-469.333-810.667z" />
<glyph unicode="&#xe66b;" glyph-name="heart-outline" d="M516.267 176l-4.267-4.267-4.693 4.267c-202.667 183.893-336.64 305.493-336.64 428.8 0 85.333 64 149.333 149.333 149.333 65.707 0 129.707-42.667 152.32-100.693h79.36c22.613 58.027 86.613 100.693 152.32 100.693 85.333 0 149.333-64 149.333-149.333 0-123.307-133.973-244.907-337.067-428.8zM704 839.467c-74.24 0-145.493-34.56-192-88.747-46.507 54.187-117.76 88.747-192 88.747-131.413 0-234.667-102.827-234.667-234.667 0-160.853 145.067-292.693 364.8-491.947l61.867-56.32 61.867 56.32c219.733 199.253 364.8 331.093 364.8 491.947 0 131.84-103.253 234.667-234.667 234.667z" />
<glyph unicode="&#xe66c;" glyph-name="star-outline" d="M512 324.693l-160.427-96.853 42.24 182.613-141.653 122.88 186.88 15.787 72.96 172.373 72.96-172.373 186.88-15.787-141.653-122.88 42.24-182.613zM938.667 587.093l-306.773 26.027-119.893 282.88-119.893-282.88-306.773-26.027 232.533-201.813-69.547-299.947 263.68 159.147 263.68-159.147-69.973 299.947 232.96 201.813z" />
<glyph unicode="&#xe66d;" glyph-name="uniE08C" d="M192 512h192c35.328 0 64 28.672 64 64v192c0 35.328-28.672 64-64 64h-192c-35.328 0-64-28.672-64-64v-192c0-35.328 28.672-64 64-64zM640 512h192c35.328 0 64 28.672 64 64v192c0 35.328-28.672 64-64 64h-192c-35.328 0-64-28.672-64-64v-192c0-35.328 28.672-64 64-64zM128 128c0-35.328 28.672-64 64-64h192c35.328 0 64 28.672 64 64v192c0 35.328-28.672 64-64 64h-192c-35.328 0-64-28.672-64-64v-192zM576 128c0-35.328 28.672-64 64-64h192c35.328 0 64 28.672 64 64v192c0 35.328-28.672 64-64 64h-192c-35.328 0-64-28.672-64-64v-192z" />
<glyph unicode="&#xe66e;" glyph-name="uniE023" d="M1020.224 780.032c-8.064 26.048-31.488 45.312-60.224 45.312h-64v-99.328c0-52.928-43.072-96-96-96s-96 43.072-96 96v99.328h-384.32v-99.328c0-52.928-43.072-96-96-96s-96 43.072-96 96v99.328h-63.68c-28.736 0-52.16-19.264-60.224-45.312h-3.776v-780.032c0-35.328 28.672-64 64-64h896c35.328 0 64 28.672 64 64v780.032h-3.776zM960 0h-896v512h896v-512zM223.68 694.016c17.664 0 32 14.336 32 32v201.984c0 17.664-14.336 32-32 32s-32-14.336-32-32v-201.984c0-17.664 14.336-32 32-32zM800 694.016c17.664 0 32 14.336 32 32v201.984c0 17.664-14.336 32-32 32s-32-14.336-32-32v-201.984c0-17.664 14.336-32 32-32z" />
<glyph unicode="&#xe66f;" glyph-name="settings" d="M512 277.334c-82.347 0-149.333 66.987-149.333 149.333s66.987 149.333 149.333 149.333c82.347 0 149.333-66.987 149.333-149.333s-66.987-149.333-149.333-149.333zM829.013 385.28c1.707 13.653 2.987 27.307 2.987 41.387s-1.28 28.16-2.987 42.667l90.027 69.547c8.107 6.4 10.24 17.92 5.12 27.307l-85.333 147.627c-5.12 9.387-16.64 13.227-26.027 9.387l-106.24-42.667c-22.187 16.64-45.227 31.147-72.107 41.813l-15.787 113.067c-1.707 10.24-10.667 17.92-21.333 17.92h-170.667c-10.667 0-19.627-7.68-21.333-17.92l-15.787-113.067c-26.88-10.667-49.92-25.173-72.107-41.813l-106.24 42.667c-9.387 3.84-20.907 0-26.027-9.387l-85.333-147.627c-5.547-9.387-2.987-20.907 5.12-27.307l90.027-69.547c-1.707-14.507-2.987-28.587-2.987-42.667s1.28-27.733 2.987-41.387l-90.027-70.827c-8.107-6.4-10.667-17.92-5.12-27.307l85.333-147.627c5.12-9.387 16.64-12.8 26.027-9.387l106.24 43.093c22.187-17.067 45.227-31.573 72.107-42.24l15.787-113.067c1.707-10.24 10.667-17.92 21.333-17.92h170.667c10.667 0 19.627 7.68 21.333 17.92l15.787 113.067c26.88 11.093 49.92 25.173 72.107 42.24l106.24-43.093c9.387-3.413 20.907 0 26.027 9.387l85.333 147.627c5.12 9.387 2.987 20.907-5.12 27.307l-90.027 70.827z" />
<glyph unicode="&#xe670;" glyph-name="Untitled-1" d="M548.608 764.16l206.336-204.288h-206.336v204.288zM236.288 798.976c-13.824-13.824-21.504-31.232-22.528-52.224v-597.504c1.024-20.992 8.704-38.4 22.528-52.224s31.232-20.992 52.224-20.992h446.976c20.992 0 38.4 7.168 52.224 20.992s21.504 31.232 22.528 52.224v446.976l-223.744 223.744h-297.984c-20.992 0-38.4-7.168-52.224-20.992zM475.392 484.608h260.096v-335.36h-446.976v597.504h186.88v-262.144z" />
<glyph unicode="&#xe671;" glyph-name="icon_drawer_alt2" d="M767.44 832h-516c-30.272 0-54.848-20.576-68.576-54.848l-109.696-383.136v-302.624c0-15.104 12.288-27.392 27.424-27.392h822.848c15.136 0 27.392 12.288 27.392 27.424v299.2l-109.664 386.528c-15.424 34.272-43.392 54.848-73.728 54.848zM234.704 758.88c2.528 5.664 8.928 18.272 16.704 18.272h516c7.488 0 16.16-7.744 22.24-19.52l103.392-364.448h-243.936c-15.168 0-27.424-12.32-27.424-27.424v-82.272h-219.424v82.272c0 15.136-12.288 27.424-27.424 27.424h-244.832l104.704 365.696zM896.016 118.848h-768v219.424h219.424v-82.272c0-15.136 12.288-27.424 27.424-27.424h274.304c15.136 0 27.392 12.32 27.392 27.424v82.272h219.456v-219.424z" />
<glyph unicode="&#xe672;" glyph-name="woo-variable-icon-1_1" d="M701.866 832h-379.733c-38.4 0-72.533-25.6-83.2-61.867l-110.933-407.467v-213.333c0-46.933 38.4-85.333 85.333-85.333v0h597.333c46.933 0 85.333 38.4 85.333 85.333v0 213.333l-110.933 407.467c-10.667 36.267-44.8 61.867-83.2 61.867zM808.532 362.667h-234.667c2.133-6.4 4.267-14.933 4.267-21.333 0-36.267-27.733-64-64-64s-64 27.733-64 64c0 8.533 2.133 14.933 4.267 21.333h-234.667l104.533 384h381.867l102.4-384zM810.666 149.333h-597.333v128h164.267c23.467-51.2 74.667-85.333 134.4-85.333s110.933 34.133 134.4 85.333h164.267v-128z" />
<glyph unicode="&#xe673;" glyph-name="settings-outline" d="M512 598.25c-42.7-1.3-78-16-106-44.1-28-28-42-63.4-42-106.2s14-78.1 42-106.2c28-28 63.3-42.1 106-42.1 42.6 0 78 14 106 42.1 28 28 42 63.4 42 106.2 0 42.7-14 78.1-42 106.2s-63.3 42.8-106 44.1zM558 401.95c-12-12-27.3-18-46-18s-34 6-46 18c-12 12-18 27.4-18 46.1s6 34.1 18 46.1c12 12 27.3 18 46 18s34-6 46-18c12-12 18-27.4 18-46.1 0-18.8-6-34.1-18-46.1zM829.9 405.95l2 42.1-2 42.1 90 70.1c8 8 9.3 17.3 4 28l-86 148.2c-5.3 9.3-14 12-26 8l-106-42.1c-21.3 17.3-45.3 31.4-72 42.1l-16 112.2c-2.7 12-9.3 18-20 18h-171.9c-10.7 0-17.3-6-20-18l-16-112.2c-26.7-10.7-50.7-24.7-72-42.1l-106 42.1c-12 4-20.7 1.3-26-8l-86-148.2c-5.3-10.7-4-20 4-28l90-70.1-2-42.1 2-42.1-90-70.1c-8-8-9.3-17.4-4-28l86-148.2c5.3-9.4 14-12 26-8l106 42.1c21.3-17.4 45.3-31.4 72-42.1l16.1-112.3c2.7-12 9.3-18 20-18h171.9c10.7 0 17.3 6 20 18l16 112.2c26.6 10.7 50.6 24.7 72 42.1l106-42.1c12-4 20.6-1.3 26 8l86 148.2c5.3 10.7 4 20-4 28l-90.1 70.2zM745.9 447.050c0-24.7-3.3-48.4-10-71.1l88-72.1-32-56.1-108 40.1c-32-34.7-72.7-58.1-122-70.1l-18-112.2h-64l-20 112.2c-48 12-88 36.1-119.9 72.1l-108-40.1-32 54.1 88 74.1c-6.7 21.3-10 44.7-10 70.1 0 24 3.3 47.4 10 70.1l-88 72.1 32 56.1 106-40.1c33.4 36.1 74.7 60.1 124 72.1l18 112.2h64l18-112.2c49.3-12 90.6-36.1 123.9-72.1l106 40.1 32-56.1-88-72.1c6.7-22.7 10-46.4 10-71.1z" />
<glyph unicode="&#xe674;" glyph-name="1" d="M134.737 146.189v194.021h-107.789v-377.263h377.263v107.789h-194.021l242.526 242.526-75.453 75.453-242.526-242.526zM210.189 825.263h194.021v107.789h-377.263v-377.263h107.789v194.021l242.526-242.526 75.453 75.453-242.526 242.526zM571.284 313.263l242.526-242.526h-194.021v-107.789h377.263v377.263h-107.789v-194.021l-242.526 242.526-75.453-75.453zM646.737 507.284l242.526 242.526v-194.021h107.789v377.263h-377.263v-107.789h194.021l-242.526-242.526 75.453-75.453z" />
<glyph unicode="&#xe675;" glyph-name="11" d="M728.178 903.111l-455.111-455.111 455.111-455.111 102.4 108.089-347.022 347.022 347.022 347.022-102.4 108.089z" />
<glyph unicode="&#xe676;" glyph-name="12" d="M375.467-7.111l455.111 455.111-455.111 455.111-102.4-108.089 347.022-347.022-347.022-347.022 102.4-108.089z" />
<glyph unicode="&#xe677;" glyph-name="eye-outline" d="M512 576c70.692 0 128-57.308 128-128v0c0-70.692-57.308-128-128-128v0c-70.692 0-128 57.308-128 128v0c0 70.692 57.308 128 128 128v0zM512 768c213.333 0 395.52-132.693 469.333-320-73.813-187.307-256-320-469.333-320s-395.52 132.693-469.333 320c73.813 187.307 256 320 469.333 320zM135.68 448c70.4-143.36 215.893-234.667 376.32-234.667s305.92 91.307 376.32 234.667c-70.4 143.36-215.893 234.667-376.32 234.667s-305.92-91.307-376.32-234.667z" />
<glyph unicode="&#xe678;" glyph-name="icon_quick_view" d="M528 80c-390.4 0-492.8 323.2-496 326.4l-3.2 9.6 3.2 9.6c0 3.2 121.6 326.4 492.8 326.4 374.4 0 492.8-323.2 492.8-326.4l6.4-19.2c-3.2-3.2-105.6-326.4-496-326.4zM99.2 416c19.2-51.2 121.6-272 428.8-272s409.6 220.8 428.8 272c-22.4 51.2-134.4 272-428.8 272s-406.4-224-428.8-272zM528 224c-105.6 0-192 86.4-192 192s86.4 192 192 192 192-86.4 192-192-86.4-192-192-192zM528 544c-70.4 0-128-57.6-128-128s57.6-128 128-128c70.4 0 128 57.6 128 128s-57.6 128-128 128z" />
<glyph unicode="&#xe679;" glyph-name="uniE089" d="M1023.488 589.311c-2.688 157.056-130.112 297.024-287.488 297.024-91.008 0-171.2-47.616-224-117.504-52.8 69.888-132.992 117.504-224 117.504-157.376 0-284.8-139.968-287.488-297.024h-0.512c0-0.96 0.192-1.856 0.192-2.816 0-0.704-0.192-1.408-0.192-2.176 0-4.416 1.088-7.744 1.28-11.968 14.080-400.256 506.688-564.352 506.688-564.352s499.84 163.904 514.624 563.712c0.256 4.48 1.408 8 1.408 12.608 0 0.768-0.192 1.472-0.192 2.176 0 1.024 0.192 1.856 0.192 2.816h-0.512z" />
<glyph unicode="&#xe67a;" glyph-name="uniE060" d="M512 960c-282.752 0-512-229.248-512-512s229.248-512 512-512 512 229.248 512 512-229.248 512-512 512zM448 512c0 35.328 28.672 64 64 64s64-28.672 64-64v-320c0-35.328-28.672-64-64-64s-64 28.672-64 64v320zM512 638.976c-35.328 0-64 28.672-64 64s28.672 64 64 64 64-28.672 64-64c0-35.328-28.672-64-64-64z" />
<glyph unicode="&#xe67b;" glyph-name="uni55" d="M608 960c-229.76 0-416-186.24-416-416 0-98.88 34.688-189.632 92.288-261.056l-274.944-274.944c-17.28-17.28-17.28-45.376 0-62.656s45.376-17.28 62.656 0l274.944 274.944c71.424-57.6 162.176-92.288 261.056-92.288 229.76 0 416 186.24 416 416s-186.24 416-416 416zM608 192c-194.112 0-352 157.888-352 352s157.888 352 352 352 352-157.888 352-352-157.888-352-352-352z" />
<glyph unicode="&#xe67c;" glyph-name="rotate-3d-variant" d="M512 746.667c212.053 0 384-114.773 384-256 0-71.68-44.373-136.533-115.627-183.040 45.653 37.12 72.96 84.053 72.96 134.827 0 121.173-152.747 218.88-341.333 218.88v-128l-170.667 170.667 170.667 170.667v-128zM512 149.333c-212.053 0-384 114.773-384 256 0 71.68 44.373 136.533 115.627 183.040-45.653-37.12-72.96-84.053-72.96-135.253 0-120.747 152.747-218.453 341.333-218.453v128l170.667-170.667-170.667-170.667v128z" />
<glyph unicode="&#xe67d;" glyph-name="shopping-cart-new-24px" d="M341.333 170.667c-25.6 0-42.667-8.533-59.733-25.6s-25.6-34.133-25.6-59.733 8.533-46.933 25.6-59.733 34.133-25.6 59.733-25.6 42.667 8.533 59.733 25.6 25.6 34.133 25.6 59.733-8.533 42.667-25.6 59.733-34.133 25.6-59.733 25.6zM768 170.667c-25.6 0-46.933-8.533-64-25.6s-21.333-34.133-21.333-59.733 8.533-46.933 25.6-59.733 34.133-25.6 59.733-25.6 46.933 8.533 59.733 25.6 25.6 34.133 25.6 59.733-8.533 42.667-25.6 59.733-34.133 25.6-59.733 25.6zM930.133 665.6c-8.533 8.533-21.333 17.067-34.133 17.067h-469.333v-85.333h409.6l-98.133-256h-362.667l-119.467 477.867c-4.267 21.333-21.333 34.133-42.667 34.133h-128v-85.333h93.867l119.467-482.133c4.267-17.067 21.333-29.867 42.667-29.867h426.667c17.067 0 34.133 12.8 38.4 25.6l128 341.333c8.533 12.8 4.267 29.867-4.267 42.667z" />
<glyph unicode="&#xe67e;" glyph-name="shopping-grid-cart-new-16px" d="M320 128c19.2 0 32-6.4 44.8-19.2s19.2-25.6 19.2-44.8-6.4-32-19.2-44.8c-12.8-12.8-25.6-19.2-44.8-19.2s-32 6.4-44.8 19.2-19.2 25.6-19.2 44.8 6.4 32 19.2 44.8 25.6 19.2 44.8 19.2zM768 128c19.2 0 32-6.4 44.8-19.2s19.2-25.6 19.2-44.8-6.4-32-19.2-44.8c-12.8-12.8-25.6-19.2-44.8-19.2s-32 6.4-44.8 19.2-19.2 25.6-19.2 44.8 6.4 32 19.2 44.8 25.6 19.2 44.8 19.2zM768 256h-448c-12.8 0-25.6 6.4-32 25.6l-153.6 550.4h-134.4v64h160c12.8 0 25.6-12.8 32-25.6l153.6-550.4h403.2l160 320h-460.8v64h512c12.8 0 19.2-6.4 25.6-12.8s6.4-19.2 0-32l-192-384c0-12.8-12.8-19.2-25.6-19.2z" />
<glyph unicode="&#xe67f;" glyph-name="shopping-bag-new-24px" d="M810.667 682.667h-85.333c0 119.467-93.867 213.333-213.333 213.333s-213.333-93.867-213.333-213.333h-85.333c-46.933 0-85.333-38.4-85.333-85.333v-512c0-46.933 38.4-85.333 85.333-85.333h597.333c46.933 0 85.333 38.4 85.333 85.333v512c0 46.933-38.4 85.333-85.333 85.333zM512 810.667c72.533 0 128-55.467 128-128h-256c0 72.533 55.467 128 128 128zM810.667 85.334h-597.333v512h85.333v-85.333h85.333v85.333h256v-85.333h85.333v85.333h85.333v-512z" />
<glyph unicode="&#xe680;" glyph-name="shopping-grid-bag-new-16px" d="M876.8 748.8c-12.8 12.8-25.6 19.2-44.8 19.2h-128c0 51.2-19.2 96-57.6 134.4s-83.2 57.6-134.4 57.6-96-19.2-134.4-57.6c-38.4-38.4-57.6-83.2-57.6-134.4h-128c-19.2 0-32-6.4-44.8-19.2s-19.2-25.6-19.2-44.8v-704c0-19.2 6.4-32 19.2-44.8s25.6-19.2 44.8-19.2h640c19.2 0 32 6.4 44.8 19.2s19.2 25.6 19.2 44.8v704c0 19.2-6.4 32-19.2 44.8zM422.4 857.6c25.6 25.6 57.6 38.4 89.6 38.4s64-12.8 89.6-38.4c25.6-25.6 38.4-51.2 38.4-89.6h-256c0 38.4 12.8 64 38.4 89.6zM832 0h-640v704h128v-128c0-6.4 0-19.2 6.4-25.6s12.8-6.4 25.6-6.4c6.4 0 19.2 0 25.6 6.4s6.4 19.2 6.4 25.6v128h256v-128c0-6.4 0-19.2 6.4-25.6s12.8-6.4 25.6-6.4c6.4 0 19.2 0 25.6 6.4s6.4 19.2 6.4 25.6v128h128v-704z" />
<glyph unicode="&#xe681;" glyph-name="account-outline-custom-4" d="M763.733 430.933c-21.333-21.333-42.667-38.4-64-55.467 42.667-46.933 68.267-106.667 68.267-183.467v-85.333h-512v85.333c0 72.533 25.6 136.533 68.267 183.467-25.6 17.067-46.933 34.133-64 55.467-55.467-59.733-89.6-145.067-89.6-238.933v-170.667h682.667v170.667c0 93.867-34.133 179.2-89.6 238.933zM512 448c119.467 0 213.333 93.867 213.333 213.333s-93.867 213.333-213.333 213.333-213.333-93.867-213.333-213.333 93.867-213.333 213.333-213.333zM512 789.333c72.533 0 128-55.467 128-128s-55.467-128-128-128-128 55.467-128 128 55.467 128 128 128z" />
<glyph unicode="&#xe682;" glyph-name="alert-circle-outline" d="M469.333 320h85.333v-85.333h-85.333v85.333zM469.333 661.333h85.333v-256h-85.333v256zM512 874.667c-235.947 0-426.667-192-426.667-426.667 0-235.641 191.025-426.667 426.667-426.667v0c235.641 0 426.667 191.025 426.667 426.667v0c0 235.641-191.025 426.667-426.667 426.667v0zM512 106.667c-188.513 0-341.333 152.82-341.333 341.333v0c0 188.513 152.82 341.333 341.333 341.333v0c188.513 0 341.333-152.82 341.333-341.333v0c0-188.513-152.82-341.333-341.333-341.333v0z" />
<glyph unicode="&#xe683;" glyph-name="information-outline" d="M469.333 576h85.333v85.333h-85.333zM512 106.667c-188.16 0-341.333 153.173-341.333 341.333s153.173 341.333 341.333 341.333c188.16 0 341.333-153.173 341.333-341.333s-153.173-341.333-341.333-341.333zM512 874.667c-235.641 0-426.667-191.025-426.667-426.667v0c0-235.641 191.025-426.667 426.667-426.667v0c235.641 0 426.667 191.025 426.667 426.667v0c0 235.641-191.025 426.667-426.667 426.667v0zM469.333 234.667h85.333v256h-85.333v-256z" />
<glyph unicode="&#xe684;" glyph-name="icon_comment_alt" d="M60.736 19.776c5.248-11.264 16.576-18.432 28.992-18.432 91.84 0 169.536 22.336 257.792 74.368 42.816-6.784 127.36-15.168 164.48-15.168 280.192 0 508.096 187.072 508.096 417.088s-227.904 417.024-508.096 417.024-508.096-187.008-508.096-417.024c0-108.416 52.288-213.184 144.32-290.816-20.864-47.36-48.704-92.032-83.008-132.928-7.936-9.6-9.728-22.912-4.48-34.112zM67.904 477.632c0 194.688 199.232 353.088 444.096 353.088s444.096-158.4 444.096-353.088-199.232-353.088-444.096-353.088c-36.736 0-132.352 9.856-164.672 16.128-7.808 1.408-15.936-0.064-22.72-4.096-59.648-36.48-111.68-57.344-167.36-66.176 24 36.352 43.968 74.752 59.52 114.752 5.184 13.376 0.96 28.48-10.496 37.12-89.28 67.584-138.368 158.336-138.368 255.36z" />
<glyph unicode="&#xe685;" glyph-name="comment-outline" d="M384 21.333c-23.564 0-42.667 19.103-42.667 42.667v0 128h-170.667c-47.128 0-85.333 38.205-85.333 85.333v0 512c0 47.36 38.4 85.333 85.333 85.333h682.667c47.128 0 85.333-38.205 85.333-85.333v0-512c0-47.128-38.205-85.333-85.333-85.333v0h-260.267l-157.867-158.293c-8.533-8.107-19.2-12.373-29.867-12.373v0h-21.333zM426.667 277.333v-131.413l131.413 131.413h295.253v512h-682.667v-512h256z" />
<glyph unicode="&#xe686;" glyph-name="calendar-blank-outline" d="M810.667 832h-42.667v85.333h-85.333v-85.333h-341.333v85.333h-85.333v-85.333h-42.667c-47.36 0-85.333-38.4-85.333-85.333v-597.333c0-47.36 38.4-85.333 85.333-85.333h597.333c47.36 0 85.333 37.973 85.333 85.333v597.333c0 46.933-37.973 85.333-85.333 85.333zM810.667 149.333h-597.333v426.667h597.333v-426.667zM810.667 661.333h-597.333v85.333h597.333v-85.333z" />
<glyph unicode="&#xe687;" glyph-name="icon_clock_alt" horiz-adv-x="1049" d="M546.112 891.712c-122.304 0-244.608-46.656-337.92-139.968-186.624-186.624-186.624-489.216 0-675.776 93.376-93.312 215.616-139.968 337.92-139.968s244.608 46.656 337.92 139.968c186.624 186.624 186.624 489.216 0 675.776-93.312 93.312-215.616 139.968-337.92 139.968zM838.784 121.216c-78.144-78.144-182.080-121.216-292.672-121.216-110.528 0-214.464 43.072-292.672 121.216-78.144 78.144-121.216 182.080-121.216 292.672s43.072 214.464 121.216 292.672c78.144 78.144 182.080 121.216 292.672 121.216 110.528 0 214.464-43.072 292.672-121.216s121.216-182.144 121.216-292.672-43.072-214.528-121.216-292.672zM736 448h-160v224.448c0 17.664-14.336 32-32 32s-32-14.336-32-32v-256.256c0 0 0-0.064 0-0.064v-0.128c0-17.664 14.336-32 32-32h192c17.664 0 32 14.336 32 32s-14.336 32-32 32z" />
<glyph unicode="&#xe688;" glyph-name="clock-outline" d="M512 106.667c188.513 0 341.333 152.82 341.333 341.333v0c0 188.513-152.82 341.333-341.333 341.333v0c-188.513 0-341.333-152.82-341.333-341.333v0c0-188.513 152.82-341.333 341.333-341.333v0zM512 874.667c235.641 0 426.667-191.025 426.667-426.667v0c0-235.641-191.025-426.667-426.667-426.667v0c-235.947 0-426.667 192-426.667 426.667 0 235.641 191.025 426.667 426.667 426.667v0zM533.333 661.333v-224l192-113.92-32-52.48-224 134.4v256h64z" />
<glyph unicode="&#xe689;" glyph-name="timer-outline" d="M512 106.667c-164.949 0-298.667 133.718-298.667 298.667v0c0 164.949 133.718 298.667 298.667 298.667v0c164.949 0 298.667-133.718 298.667-298.667v0c0-164.949-133.718-298.667-298.667-298.667v0zM811.947 644.693l60.587 60.587c-19.2 21.76-38.4 41.387-60.16 60.16l-60.587-61.44c-66.133 53.76-149.333 85.333-239.787 85.333-212.077 0-384-171.923-384-384v0c0-212.077 171.923-384 384-384v0c213.333 0 384 171.947 384 384 0 90.453-31.573 173.653-84.053 239.36zM469.333 362.667h85.333v256h-85.333zM640 917.333h-256v-85.333h256v85.333z" />
<glyph unicode="&#xe68a;" glyph-name="close2" d="M544 896c-265.088 0-480-214.912-480-480s214.912-480 480-480 480 214.912 480 480-214.912 480-480 480zM544 0c-229.376 0-416 186.624-416 416s186.624 416 416 416 416-186.624 416-416-186.624-416-416-416zM721.152 638.4l-175.936-175.936-157.76 175.936c-12.48 12.48-32.768 12.48-45.248 0s-12.48-32.768 0-45.248l157.824-175.936-178.368-178.368c-12.48-12.48-12.48-32.768 0-45.248s32.768-12.48 45.248 0l175.936 175.936 157.824-175.936c12.48-12.48 32.768-12.48 45.248 0s12.48 32.768 0 45.248l-157.888 175.936 178.368 178.368c12.48 12.48 12.48 32.768 0 45.248s-32.768 12.48-45.248 0z" />
</font>
</defs>
</svg>
