<svg xmlns="http://www.w3.org/2000/svg" aria-hidden="true" role="img" width="1em" height="1em" preserveAspectRatio="xMidYMid meet" viewBox="0 0 24 24">
<rect x="0" y="0" width="24" height="24" fill="none" stroke="none" />
<path fill="currentColor" d="M8.5 2a2.5 2.5 0 0 0 0 5a2.5 2.5 0 0 0 0-5m7 0a2.5 2.5 0 0 0 0 5a2.5 2.5 0 0 0 0-5M11 8v2H5v2h9.95c-.42 1.13-1.45 2.5-2.79 3.67c-1.04-.93-1.81-1.85-2.34-2.67H7.5c.58 1.25 1.63 2.62 3.12 3.96l-4.07 3.26l-.79.62L7 22.41l.8-.63l4.37-3.5l4.38 3.5l.78.63l1.25-1.57l-.78-.62l-4.07-3.25c1.61-1.47 2.97-3.12 3.34-4.97H19v-2h-6V8h-2Z"/>
<path d="M 5,7 L 19,20" stroke="black" stroke-width="2" />
</svg>