<?xml version="1.0" encoding="UTF-8" standalone="no"?>
<!DOCTYPE svg PUBLIC "-//W3C//DTD SVG 1.1//EN" "http://www.w3.org/Graphics/SVG/1.1/DTD/svg11.dtd">
<svg width="100%" height="100%" viewBox="0 0 512 512" version="1.1" xmlns="http://www.w3.org/2000/svg" xmlns:xlink="http://www.w3.org/1999/xlink" xml:space="preserve" xmlns:serif="http://www.serif.com/" style="fill-rule:evenodd;clip-rule:evenodd;stroke-linejoin:round;stroke-miterlimit:2;">
    <g transform="matrix(0.894425,0,0,0.853809,100.563,457.059)">
        <path d="M0,7.483C-1.663,5.093 -10.135,-4.156 -12.325,2.246C-13.802,6.561 -8.093,10.778 -4.363,11.343C-2.41,11.639 2.562,8.978 0,7.483" style="fill:white;fill-rule:nonzero;"/>
    </g>
    <g transform="matrix(0.894425,0,0,0.853809,83.2963,445.623)">
        <path d="M0,6.007C-0.661,3.442 -8.31,-4.494 -9.108,1.725C-9.834,7.386 1.777,10.501 -0.261,4.442" style="fill:white;fill-rule:nonzero;"/>
    </g>
    <g transform="matrix(0.894425,0,0,0.853809,415.27,424.753)">
        <path d="M0,-394.436C-4.634,-395.507 -9.073,-400.542 -13.245,-402.795C-21.416,-407.208 -29.792,-410.882 -38.151,-414.853C-40.487,-415.963 -46.599,-418.435 -45.867,-421.883C-45.214,-424.958 -40.948,-423.245 -38.746,-422.614C-30.786,-420.332 -23.145,-415.841 -15.849,-411.985C-8.514,-408.108 -1.241,-403.633 4.494,-397.636C2.202,-397.482 4.726,-393.344 0,-394.436M-264.079,-11.158C-268.785,-12.053 -273.366,-13.397 -277.965,-14.673C-288.027,-17.463 -297.645,-19.302 -305.679,-26.517C-306.867,-27.584 -311.012,-30.874 -308.822,-32.685C-307.302,-33.941 -303.074,-31.673 -301.643,-30.983C-293.692,-27.154 -285.929,-22.794 -277.969,-18.86C-273.445,-16.624 -268.853,-15.196 -264.063,-13.578C-260.107,-12.242 -255.442,-9.333 -251.158,-9.723C-254.446,-8.529 -260.51,-10.48 -264.079,-11.158M-344.035,-50.164C-349.959,-55.311 -355.837,-60.405 -360.984,-66.364C-365.555,-71.655 -369.553,-77.756 -373.571,-83.472C-377.242,-88.693 -380.248,-95.587 -379.989,-102.029C-376.885,-102.101 -373.894,-94.637 -372.397,-92.432C-367.851,-85.737 -363.029,-78.827 -357.854,-72.591C-348.966,-61.879 -338.488,-51.946 -328.376,-42.593C-329.78,-37.961 -342.367,-48.715 -344.035,-50.164M107.015,-226.506C107.017,-230.514 105.506,-234.857 105.19,-238.826C104.755,-244.298 103.499,-249.42 101.928,-254.69C99.313,-263.465 97.879,-272.614 94.958,-281.28C89.201,-298.356 78.973,-312.925 69.449,-328.123C65.868,-333.838 62.459,-341.809 57.45,-346.245C58.86,-346.937 65.987,-337.219 67.58,-335.261C70.898,-331.181 74.057,-327.028 77.154,-322.767C78.57,-320.818 86.285,-305.782 89.148,-309.199C92.507,-313.207 82.844,-325.266 80.922,-328.265C75.396,-336.888 69.106,-345.178 62.537,-353.034C58.044,-358.408 53.365,-363.401 48.503,-368.431C45.67,-371.362 42.163,-376.614 38.668,-378.593C28.858,-384.145 21.096,-394.218 12.037,-401.027C-1.901,-411.503 -17.083,-418.618 -32.976,-425.679C-40.863,-429.184 -48.791,-432.549 -56.811,-435.752C-65.739,-439.319 -74.934,-441.468 -84.202,-443.867C-98.509,-447.571 -113.72,-451.283 -128.556,-451.375C-134.737,-451.414 -141.09,-450.836 -147.012,-448.969C-150.283,-447.938 -151.511,-445.447 -152.55,-443.549C-160.561,-443.422 -168.279,-444.577 -176.348,-444.593C-188.326,-444.616 -200.214,-444.107 -212.131,-442.838C-223.478,-441.63 -233.917,-438.932 -244.573,-434.946C-250.249,-432.823 -257.092,-426.043 -263.419,-427.434C-272.347,-429.396 -264.377,-437.723 -259.98,-439.84C-248.811,-445.217 -236.614,-446.936 -224.812,-450.077C-218.87,-451.659 -212.817,-453.204 -206.752,-453.717C-200.913,-454.211 -194.34,-455.281 -188.551,-455.026C-185.522,-454.894 -174.823,-452.166 -175.239,-458.68C-175.671,-465.435 -195.273,-462.067 -199.174,-462.071C-202.718,-462.074 -208.765,-460.991 -210.856,-464.55C-213.753,-469.483 -201.136,-469.637 -198.562,-469.636C-189.16,-469.632 -179.935,-469.583 -170.67,-469.897C-164.895,-470.093 -158.577,-476.69 -166.258,-479.911C-172.007,-482.322 -180.914,-479.462 -186.847,-478.9C-193.539,-478.266 -200.211,-478.231 -206.808,-477.7C-212.224,-477.265 -217.522,-476.604 -222.985,-476.419C-225.756,-476.325 -234.82,-475.252 -232.899,-480.442C-230.886,-485.882 -217.768,-485.607 -213.224,-486.071C-205.93,-486.817 -198.558,-486.431 -191.286,-487.124C-180.89,-488.116 -170.754,-487.886 -160.325,-487.376C-154.358,-487.084 -148.683,-486.316 -142.65,-486.332C-137.083,-486.346 -131.549,-484.536 -126.144,-484.564C-122.593,-484.582 -123.384,-487.219 -125.629,-489.005C-127.718,-490.667 -131.402,-492.788 -133.964,-493.578C-138.601,-495.009 -144.135,-494.789 -148.949,-495.194C-155.797,-495.771 -162.693,-496.094 -169.499,-496.759C-175.078,-497.304 -181.045,-498.059 -186.476,-496.768C-191.252,-495.632 -196.475,-496.413 -201.543,-495.977C-210.733,-495.186 -219.889,-495.132 -229.048,-493.571C-241.469,-491.454 -253.291,-487.206 -265.556,-484.499C-276.39,-482.109 -286.719,-479.184 -297.06,-475.134C-311.098,-469.635 -323.825,-461.064 -337.053,-453.915C-347.88,-448.063 -358.384,-440.799 -368.028,-433.114C-371.949,-429.99 -375.44,-425.619 -378.841,-422.113C-385.016,-415.747 -390.594,-408.852 -396.246,-402.027C-405.887,-390.384 -414.573,-377.018 -420.465,-363.046C-425.114,-352.023 -428.518,-341.34 -429.592,-329.36C-429.969,-325.162 -429.683,-321.643 -427.25,-318.077C-426.174,-316.499 -423.191,-313.318 -421.245,-313.375C-422.273,-312.711 -421.523,-311.35 -421.994,-310.176C-423.769,-305.756 -425.512,-301.174 -427.001,-296.645C-429.293,-289.679 -432.205,-282.904 -434.223,-275.844C-437.586,-264.085 -439.14,-252.024 -441.142,-240.013C-442.944,-229.202 -442.637,-218.404 -441.862,-207.535C-441.49,-202.333 -441.358,-196.626 -440.322,-191.571C-442.282,-192.201 -443.148,-194.534 -445.448,-195.018C-448.111,-195.578 -449.076,-194.273 -450.074,-191.819C-451.896,-187.337 -452.114,-182.328 -453.025,-177.745C-452.734,-177.832 -453.325,-177.483 -453.072,-177.723C-454.104,-187.157 -455.327,-197.999 -453.854,-207.462C-450.025,-210.291 -450.082,-218.775 -451.504,-222.962C-454.157,-230.778 -461.732,-224.091 -459.593,-217.897C-463.115,-214.525 -463.245,-207.539 -463.646,-203.069C-464.588,-192.582 -464.449,-181.71 -463.506,-171.232C-461.851,-152.847 -456.38,-133.559 -449.843,-116.278C-446.914,-108.537 -443.703,-101.953 -439.245,-95.027C-439.318,-94.078 -438.147,-92.894 -437.301,-91.625C-435.089,-88.309 -433.131,-84.955 -431.16,-81.503C-427.984,-75.939 -424.758,-70.615 -421.063,-65.373C-416.084,-58.311 -410.82,-52.101 -404.55,-46.506C-406.47,-43.278 -403.206,-38.535 -401.49,-35.867C-397.115,-29.068 -391.481,-22.983 -385.302,-17.81C-380.369,-13.679 -375.593,-9.416 -370.701,-5.282C-368.627,-3.529 -362.252,-0.549 -360.985,-4.767C-358.614,-2.427 -355.857,0.195 -352.637,1.233C-350.436,12.297 -337.827,21.25 -328.898,27.066C-323.446,30.618 -317.528,34.062 -311.685,36.915C-305.225,40.069 -298.271,42.174 -291.58,44.791C-287.645,46.331 -280.961,49.187 -276.816,48C-277.525,47.194 -278.323,46.603 -279.332,46.364C-278.625,46.376 -278.162,45.89 -277.729,45.314C-280.056,43.598 -283.397,43.284 -286.095,42.067C-289.41,40.57 -292.818,38.991 -296.028,37.241C-300.241,34.944 -304.198,32.588 -308.232,29.987C-310.632,28.439 -315.244,26.014 -315.292,22.664C-312.74,22.424 -308.981,25.95 -306.73,27.117C-301.991,29.574 -296.812,31.551 -291.743,33.178C-285.234,35.266 -278.124,38.312 -271.245,38.799C-277.68,43.232 -259.326,47.956 -257.758,48.437C-254.37,49.473 -248.697,51.802 -245.159,50.219C-243.309,49.391 -242.716,47.106 -243.854,45.842C-241.867,46.652 -237.363,45.956 -234.625,46.231C-229.207,46.774 -223.765,47.067 -218.331,47.636C-207.138,48.808 -195.968,46.613 -184.766,46.625C-173.25,46.637 -162.26,42.69 -150.934,41.218C-140.396,39.849 -130.293,36.5 -120.323,32.952C-113.708,30.597 -107.579,27.724 -101.152,25.031C-98.966,24.115 -93.824,22.698 -91.826,24.452C-83.658,31.622 -115.212,41.473 -118.113,42.452C-125.465,44.932 -132.639,47.071 -140.028,48.98C-142.852,49.71 -146.366,52.321 -142.389,54.776C-138.969,56.888 -134.844,54.838 -131.289,54.973C-125.127,55.205 -129.618,60.41 -132.926,61.827C-144.84,66.931 -158.705,67.517 -171.549,67.494C-186.074,67.469 -200.555,66.83 -214.898,64.829C-221.13,63.959 -227.31,62.21 -233.478,61.22C-236.707,60.702 -244.178,61.515 -240.074,66.298C-237.008,69.872 -230.796,69.242 -226.631,69.849C-221.121,70.652 -215.92,73.188 -210.216,73.77C-206.449,74.153 -201.553,74.509 -197.819,73.821C-195.734,80.144 -200.07,80.277 -205.514,80.277C-213.167,80.277 -220.391,79.184 -227.94,77.865C-242.487,75.321 -257.19,72.069 -270.984,66.865C-277.78,64.3 -284.685,61.802 -291.568,59.41C-294.073,58.54 -302.151,54.019 -304.769,56.535C-311.166,62.682 -276.741,72.098 -273.797,72.979C-267.938,74.734 -262.547,77.782 -256.629,79.509C-252.679,80.661 -248.614,81.402 -244.638,82.422C-242.997,82.843 -241.214,83.295 -239.649,83.93C-237.46,84.816 -237.418,86.12 -235.506,87.32C-236.859,93.908 -257.286,86.497 -261.014,85.69C-270.629,83.607 -280.177,81.683 -289.462,78.443C-302.39,73.933 -316.412,68.29 -327.587,60.437C-329.948,58.778 -342.795,50.037 -343.781,55.989C-344.769,61.961 -330.093,68.038 -326.289,70.09C-317.338,74.918 -308.058,78.883 -298.621,82.619C-288.572,86.597 -277.931,88.552 -267.587,91.691C-261.689,93.481 -255.73,95.204 -249.664,96.45C-242.911,97.837 -235.975,97.701 -229.167,98.596C-223.038,99.401 -216.819,100.645 -210.652,100.892C-206.047,101.076 -200.874,100.104 -196.376,101.147C-185.693,103.623 -174.056,101.08 -163.266,99.646C-154.935,98.539 -146.592,98.063 -138.412,95.943C-118.343,90.741 -98.696,85.561 -79.661,77.025C-60.658,68.504 -41.154,57.883 -24.475,45.398C-15.459,38.649 -5.796,33.068 3.073,26.08C13.471,17.888 22.165,8.078 32.038,-0.605C42.474,-9.783 50.15,-21.252 58.636,-32.027C62.584,-37.04 65.919,-42.473 69.521,-47.759C72.429,-52.026 74.04,-57.334 77.276,-61.375C79.432,-64.067 80.97,-68.405 82.462,-71.655C84.677,-76.482 86.651,-81.473 88.571,-86.418C92.589,-96.765 96.666,-107.023 99.443,-117.795C102.364,-129.127 105.728,-141.188 106.245,-152.935C106.513,-159.002 106.191,-165.143 106.691,-171.193C107.173,-177.023 107.859,-182.82 108.065,-188.675C108.511,-201.37 107.012,-213.889 107.015,-226.506" style="fill:white;fill-rule:nonzero;"/>
    </g>
    <g transform="matrix(0.894425,0,0,0.853809,324.791,15.5546)">
        <path d="M0,-4.722C-2.388,-6.637 -10.171,-7.092 -6.915,-2.111C-3.986,2.37 4.844,-0.149 0,-5.244" style="fill:white;fill-rule:nonzero;"/>
    </g>
    <g transform="matrix(-0.847969,0.27159,0.28451,0.809462,356.003,22.9619)">
        <path d="M0.719,-9.97C3.419,-11.437 9.798,-13.646 9.852,-8.417C9.89,-4.596 3.643,-1.077 0.719,0.486C-2.122,2.005 -7.589,3.383 -7.36,-1.825C-7.16,-6.367 -0.244,-9.268 0.719,-9.97" style="fill:white;fill-rule:nonzero;"/>
    </g>
</svg>
