<?xml version="1.0" encoding="UTF-8" standalone="no"?>
<!DOCTYPE svg PUBLIC "-//W3C//DTD SVG 1.1//EN" "http://www.w3.org/Graphics/SVG/1.1/DTD/svg11.dtd">
<svg width="100%" height="100%" viewBox="0 0 3000 3000" version="1.1" xmlns="http://www.w3.org/2000/svg" xmlns:xlink="http://www.w3.org/1999/xlink" xml:space="preserve" xmlns:serif="http://www.serif.com/" style="fill-rule:evenodd;clip-rule:evenodd;stroke-linecap:round;stroke-miterlimit:10;">
    <g id="book">
        <g transform="matrix(-0.89858,-0.43881,-0.43881,0.89858,2059.5,671.159)">
            <path d="M-69.333,-314.405C-77.228,-313.53 -76.886,-310.993 -76.886,-310.993L-69.333,17.653L-60.494,6.389L-69.333,-314.405Z" style="fill:rgb(25,93,70);fill-rule:nonzero;"/>
        </g>
        <g transform="matrix(1,0,0,1,2253.41,678.105)">
            <path d="M0,-264.35C0.84,-262.47 1.65,-261.66 1.65,-261.66C3.55,-260.71 5.1,-259.84 6.36,-259.04L-142.35,25.34C-142.35,25.34 -143.76,24.78 -146.34,23.76C-146.34,23.76 -156.27,8.11 -150.45,-13.29L-147.18,-11.99C-146.71,-11.8 -146.17,-12 -145.93,-12.45L2.26,-289.69L-1.35,-280.66C-2.55,-272.29 -1.24,-267.14 0,-264.35" style="fill:rgb(253,251,199);fill-rule:nonzero;"/>
        </g>
        <g transform="matrix(1,0,0,1,1901.06,677.675)">
            <path d="M0,-70.23C0,-94.42 28,-82.23 28,-82.23L201.9,-12.86C196.08,8.54 206.01,24.19 206.01,24.19C179.97,13.87 34.74,-43.68 22,-48.23C9.68,-52.63 2,-60.91 0.34,-67.6C0.11,-68.51 0,-69.39 0,-70.23" style="fill:rgb(253,251,199);fill-rule:nonzero;"/>
        </g>
        <g transform="matrix(1,0,0,1,2102.96,361.075)">
            <path d="M0,303.74L-173.9,234.37C-173.9,234.37 -201.9,222.18 -201.9,246.37C-201.9,247.21 -201.79,248.09 -201.56,249C-199.9,255.69 -192.22,263.97 -179.9,268.37C-167.16,272.92 -21.93,330.47 4.11,340.79C6.69,341.81 8.1,342.37 8.1,342.37L11.1,356.37L-194.9,277.37C-231.9,256.37 -209.9,217.37 -209.9,217.37L-69.9,-48.63C-58.9,-52.63 -47.9,-43.63 -47.9,-43.63L152.11,26.03C152.65,26.21 152.92,26.81 152.71,27.34L4.52,304.58C4.28,305.03 3.74,305.23 3.27,305.04L0,303.74Z" style="fill:rgb(25,93,70);fill-rule:nonzero;"/>
        </g>
        <g transform="matrix(1,0,0,1,2107.62,551.623)">
            <path d="M0,-134.425C-0.534,-136.196 0.883,-138.091 2.626,-138.71C4.369,-139.33 6.295,-138.995 8.092,-138.553C14.692,-136.931 20.949,-133.93 26.347,-129.8C27.572,-128.863 28.78,-127.853 30.22,-127.3C31.66,-126.746 33.418,-126.734 34.619,-127.702C36.298,-129.055 36.186,-131.798 34.954,-133.567C33.722,-135.337 31.702,-136.36 29.755,-137.287C14.329,-144.625 -2.134,-150.336 -19.183,-151.413C-36.233,-152.489 -53.986,-148.605 -67.621,-138.314C-70.265,-136.319 -72.785,-134.042 -74.412,-131.157C-75.354,-129.488 -75.737,-126.935 -74.049,-126.028C-84.805,-117.069 -93.837,-105.088 -99.607,-92.334C-105.377,-79.58 -107.664,-65.105 -105.051,-51.352C-102.438,-37.6 -94.739,-24.687 -83.258,-16.677C-68.561,-6.422 -50.785,-0.763 -32.891,-1.752C-30.223,-1.9 -26.971,-1.9 -25.606,0.397C-24.432,2.375 -25.535,5.082 -27.419,6.401C-29.303,7.721 -31.712,7.986 -34.009,8.108C-48.556,8.879 -63.303,5.445 -76.012,-1.674C-77.791,-2.67 -80.257,-4.01 -81.88,-2.777C-82.907,-1.997 -83.093,-0.455 -82.631,0.75C-82.17,1.954 -81.204,2.886 -80.226,3.727C-72.305,10.532 -61.976,13.89 -51.701,15.752C-41.962,17.518 -31.799,18.064 -22.265,15.408C-12.73,12.753 -3.861,6.547 0.32,-2.424C18.686,-8.225 34.948,-22.77 42.766,-40.372C50.585,-57.974 50.472,-78.924 42.463,-96.44C34.455,-113.956 18.428,-128.823 0,-134.425" style="fill:rgb(193,32,44);fill-rule:nonzero;"/>
        </g>
        <g transform="matrix(1,0,0,1,2052.64,460.63)">
            <path d="M0,-22.274C0.022,-24.033 0.037,-25.837 -0.56,-27.491C-1.158,-29.146 -2.507,-30.646 -4.247,-30.904C-6.317,-31.211 -8.287,-29.676 -9.258,-27.822C-10.229,-25.969 -10.457,-23.833 -10.858,-21.779C-11.935,-16.26 -14.396,-11.017 -17.953,-6.662C-19.144,-5.204 -20.463,-3.833 -21.415,-2.21C-22.368,-0.586 -22.932,1.374 -22.446,3.192C-21.599,6.358 -17.72,7.973 -14.531,7.222C-11.342,6.47 -9.184,4.034 -7.012,1.581C0.113,-6.465 9.428,-12.768 19.872,-15.304C30.315,-17.841 41.885,-16.369 50.803,-10.371C59.72,-4.372 64.991,6.828 64.193,17.546C60.635,16.794 57.077,16.043 53.519,15.292C52.132,14.999 50.371,14.849 49.606,16.043C49.071,16.88 49.35,18.042 49.994,18.799C50.638,19.556 51.567,19.999 52.47,20.414C57.595,22.77 62.82,24.91 68.125,26.826C70.105,27.541 72.314,28.223 74.26,27.423C76.735,26.406 77.73,23.455 78.135,20.81C79.647,10.961 76.9,0.701 71.479,-7.659C66.058,-16.02 58.338,-22.213 49.521,-26.854C49.722,-31.051 48.123,-35.189 45.713,-38.63C43.302,-42.071 40.117,-44.892 36.832,-47.512C35.484,-48.588 34.061,-49.662 32.387,-50.079C30.713,-50.497 28.716,-50.094 27.726,-48.682C26.307,-46.658 27.546,-43.902 28.793,-41.768C31.19,-37.668 33.586,-33.568 35.983,-29.468C23.874,-31.275 10.327,-28.851 0,-22.274" style="fill:white;fill-rule:nonzero;"/>
        </g>
        <g transform="matrix(1,0,0,1,2066.14,466.132)">
            <path d="M0,56.628C-1.16,57.152 -2.457,56.33 -3.44,55.522C-10.479,49.736 -15.834,42.319 -19.928,34.179C-14.059,34.386 -8.19,34.592 -2.321,34.799C0.107,40.548 1.628,47.117 1.436,53.355C1.397,54.613 1.147,56.109 0,56.628M38.452,35.774C30.016,29.144 19.468,24.642 8.805,23.445C17.224,19.568 25.09,14.493 32.093,8.421C34.716,6.146 37.453,2.969 36.514,-0.374C35.944,-2.403 34.093,-3.855 32.115,-4.581C30.136,-5.307 28,-5.439 25.91,-5.713C20.544,-6.416 15.307,-8.099 10.536,-10.654C8.864,-11.549 7.228,-12.56 5.404,-13.079C3.58,-13.598 1.485,-13.558 -0.06,-12.458C-2.289,-10.87 -2.637,-7.501 -1.455,-5.033C-0.272,-2.564 2.067,-0.857 4.468,0.457C7.962,2.37 11.788,3.67 15.722,4.298C10.131,7.442 4.702,10.877 -0.527,14.593C-1.838,15.524 -3.168,16.507 -4.023,17.869C-4.878,19.231 -5.356,20.946 -4.497,22.305C-10.701,21.017 -17.123,20.787 -23.403,21.628C-25.916,21.964 -28.542,22.536 -30.418,24.242C-33.439,26.988 -33.531,31.738 -32.524,35.695C-30.308,44.396 -24.137,51.457 -18.161,58.159C-15.391,61.266 -12.575,64.413 -9.077,66.671C-5.58,68.929 -1.255,70.226 2.794,69.257C8.716,67.838 12.652,61.859 13.583,55.841C14.513,49.823 13.418,43.911 11.967,37.997C18.303,38.435 24.194,40.819 29.22,44.703C28.135,49.108 31.457,54.079 35.942,54.763C40.427,55.447 45.079,51.691 45.355,47.162C45.637,42.548 42.087,38.631 38.452,35.774" style="fill:white;fill-rule:nonzero;"/>
        </g>
        <g opacity="0.3">
            <g transform="matrix(1,0,0,1,2045.07,424.478)">
                <path d="M0,249.619C-2.028,247.868 -3.888,245.826 -4.91,243.349C-5.933,240.872 -6.013,237.899 -4.623,235.608C-3.113,233.119 -0.123,231.827 2.784,231.652C5.69,231.477 8.562,232.256 11.353,233.084C26.668,237.626 41.092,244.599 55.045,252.377C56.162,262.288 59.529,271.938 64.821,280.392C64.041,284.374 65.778,288.792 68.278,291.988C117.932,195.517 168.114,99.594 217.767,3.123C211.48,-0.401 208.168,-8.305 207.724,-15.499C207.279,-22.693 209.298,-29.793 211.498,-36.656C208.276,-39.567 204.875,-41.008 200.752,-42.369L56.058,226.794L-133.863,155.315C-133.863,155.315 -153.794,151.819 -155.903,163.393C-155.903,163.393 -164.609,194.928 -140.311,211.948C-116.013,228.968 68.278,291.988 68.278,291.988L64.821,280.392L-0.576,252.614L0,249.619Z" style="fill-rule:nonzero;"/>
            </g>
        </g>
        <g opacity="0.1">
            <g transform="matrix(1,0,0,1,2229.83,455.353)">
                <path d="M0,-60.563C-54.438,-81.452 -111.648,-101.104 -166.957,-119.667C-172.955,-121.764 -179.063,-123.644 -185.447,-124.285C-187.605,-124.501 -189.79,-124.644 -192.085,-124.471L-179.916,-129.268L-288.173,77.428C-294.658,88.825 -311.582,80.321 -305.89,68.149L-197.633,-138.547L-191.955,-149.388C-188.741,-146.451 -183.822,-141.446 -180.165,-139.343C-174.78,-135.855 -168.836,-133.507 -162.842,-131.398L-139.073,-122.72C-117.309,-114.774 -89.529,-104.925 -67.555,-97.29C-44.416,-89.313 -18.784,-80.57 4.451,-73.252C13.041,-70.181 8.809,-57.605 0,-60.563" style="fill:white;fill-rule:nonzero;"/>
            </g>
        </g>
        <g transform="matrix(1,0,0,1,2113.22,308.627)">
            <path d="M0,408.498C0.476,408.68 1.012,408.476 1.246,408.024L151.835,116.818C151.835,116.818 153.255,114.688 146.545,110.438C145.285,109.638 143.735,108.768 141.835,107.818C141.835,107.818 141.025,107.008 140.185,105.128C138.945,102.338 137.635,97.188 138.835,88.818L142.445,79.788C142.655,79.258 142.385,78.658 141.845,78.478L-58.165,8.818C-58.165,8.818 -69.165,-0.182 -80.165,3.818L-220.165,269.818C-220.165,269.818 -242.165,308.818 -205.165,329.818L0,408.498Z" style="fill:none;fill-rule:nonzero;stroke:black;stroke-width:7.95px;"/>
        </g>
        <g transform="matrix(1,0,0,1,2255.67,703.445)">
            <path d="M0,-315.03L-148.19,-37.79C-148.43,-37.34 -148.97,-37.14 -149.44,-37.33L-152.71,-38.63L-326.61,-108C-326.61,-108 -354.61,-120.19 -354.61,-96C-354.61,-95.16 -354.5,-94.28 -354.27,-93.37C-352.61,-86.68 -344.93,-78.4 -332.61,-74C-319.87,-69.45 -174.64,-11.9 -148.6,-1.58C-146.02,-0.56 -144.61,0 -144.61,0L4.1,-284.38" style="fill:none;fill-rule:nonzero;stroke:black;stroke-width:7.95px;"/>
        </g>
        <g transform="matrix(0.209529,0.977802,0.977802,-0.209529,2119.09,707.512)">
            <path d="M-5.659,-7L8.659,-7" style="fill:none;fill-rule:nonzero;stroke:black;stroke-width:7.95px;"/>
        </g>
        <g transform="matrix(1,0,0,1,2107.07,664.445)">
            <path d="M0,37.42C0,37.42 -9.93,21.77 -4.11,0.37C-4.08,0.25 -4.04,0.12 -4.01,0" style="fill:none;fill-rule:nonzero;stroke:black;stroke-width:7.95px;"/>
        </g>
        <g transform="matrix(0.489105,-0.872225,-0.872225,-0.489105,2254.48,470.817)">
            <path d="M-16.896,28.845L49.246,28.845" style="fill:none;fill-rule:nonzero;stroke:black;stroke-width:5px;"/>
        </g>
        <g transform="matrix(0.933776,0.357858,0.357858,-0.933776,1909.85,596.251)">
            <path d="M-2.949,-15.935L86.109,-15.935" style="fill:none;fill-rule:nonzero;stroke:black;stroke-width:5px;"/>
        </g>
        <g transform="matrix(0.934223,0.35669,0.35669,-0.934223,1911.11,585.555)">
            <path d="M-3.111,-16.87L91.481,-16.87" style="fill:none;fill-rule:nonzero;stroke:black;stroke-width:5px;"/>
        </g>
        <g transform="matrix(0.469817,-0.882764,-0.882764,-0.469817,2058.05,546.554)">
            <path d="M-65.678,109.355L182.078,109.355" style="fill:none;fill-rule:nonzero;stroke:black;stroke-width:7.95px;"/>
        </g>
        <g transform="matrix(0.473231,-0.880938,-0.880938,-0.473231,1923.76,567.413)">
            <path d="M-0.362,0.605L1.012,0.605" style="fill:none;fill-rule:nonzero;stroke:black;stroke-width:7.95px;"/>
        </g>
        <g transform="matrix(1,0,0,1,1932.8,623.713)">
            <path d="M0,-26.687C-4.865,-25.564 -8.124,-19.874 -6.63,-15.11C-8.696,-15.773 -11.308,-15.673 -12.785,-14.083C-14.261,-12.493 -14.713,-10.029 -13.898,-8.018C-13.44,-7.985 -12.982,-7.953 -12.524,-7.92C-10.227,-7.756 -9.506,-6.273 -7.475,-5.189C-11.307,-3.506 -12.478,2.281 -9.602,5.322C-13.931,5.065 -17.28,2.782 -20.535,-0.083C-23.79,-2.949 -26.284,-6.58 -28.432,-10.347C-30.55,-14.061 -32.416,-18.314 -31.515,-22.493C-30.221,-28.496 -23.46,-32.009 -17.324,-31.758C-11.188,-31.507 -5.368,-29.671 0,-26.687" style="fill-rule:nonzero;"/>
        </g>
    </g>
    <g id="question-mark" serif:id="question mark">
        <g transform="matrix(1,0,0,1,808.058,699.765)">
            <path d="M0,9.37C0.17,14.89 -4.17,19.5 -9.69,19.68L-10.01,19.68C-15.39,19.68 -19.83,15.41 -20,9.99L-20.3,0.19C-20.47,-5.33 -16.13,-9.95 -10.61,-10.12C-5.1,-10.31 -0.48,-5.95 -0.31,-0.43L0,9.37Z" style="fill:rgb(193,32,44);fill-rule:nonzero;"/>
        </g>
        <g transform="matrix(1,0,0,1,884.358,617.965)">
            <path d="M0,-97.98C10.74,-71.01 3.99,-42.99 -18.07,-23.03C-30.79,-11.51 -43.42,-4.19 -53.57,1.69C-72.53,12.68 -81.19,17.69 -79.01,38.07C-78.42,43.56 -82.4,48.49 -87.89,49.07C-88.25,49.11 -88.61,49.13 -88.96,49.13C-94.01,49.13 -98.35,45.32 -98.9,40.19C-102.46,6.9 -83.58,-4.04 -63.59,-15.62C-53.77,-21.31 -42.64,-27.76 -31.49,-37.85C-9.8,-57.49 -14.09,-79.31 -18.58,-90.58C-26.91,-111.5 -47.68,-126.94 -66.82,-126.52C-92.76,-125.94 -111,-119.16 -121.03,-106.36C-132.27,-92.02 -129.59,-74.91 -128.49,-70.01C-127.3,-64.62 -130.7,-59.27 -136.09,-58.08C-141.48,-56.87 -146.82,-60.28 -148.02,-65.67C-149.59,-72.74 -153.42,-97.45 -136.77,-118.7C-122.87,-136.44 -99.48,-145.8 -67.26,-146.52C-39.74,-147.11 -11.45,-126.72 0,-97.98" style="fill:rgb(193,32,44);fill-rule:nonzero;"/>
        </g>
        <g transform="matrix(1,0,0,1,797.795,726.445)">
            <path d="M0,-43.806C-0.196,-43.806 -0.392,-43.803 -0.588,-43.796C-5.102,-43.657 -9.315,-41.756 -12.427,-38.445C-15.538,-35.135 -17.174,-30.813 -17.034,-26.274L-16.734,-16.476C-16.444,-7.235 -8.983,0 0.253,0L0.687,0L0.801,-0.004C10.164,-0.309 17.547,-8.169 17.259,-17.525L16.949,-27.331C16.665,-36.567 9.22,-43.806 0,-43.806M-0.001,-36.806C5.355,-36.806 9.786,-32.514 9.953,-27.11L10.263,-17.31C10.433,-11.79 6.093,-7.18 0.573,-7L0.253,-7C-5.127,-7 -9.567,-11.27 -9.737,-16.69L-10.037,-26.49C-10.207,-32.01 -5.867,-36.63 -0.347,-36.8C-0.232,-36.804 -0.116,-36.806 -0.001,-36.806" style="fill-rule:nonzero;"/>
        </g>
        <g transform="matrix(1,0,0,1,818.266,674.095)">
            <path d="M0,-209.662L-0.003,-209.662C-0.441,-209.662 -0.881,-209.657 -1.318,-209.648C-35.745,-208.879 -60.933,-198.617 -76.188,-179.147C-94.729,-155.484 -90.5,-128.109 -88.762,-120.282C-87.043,-112.565 -80.073,-106.966 -72.188,-106.966C-70.941,-106.966 -69.688,-107.105 -68.465,-107.38C-59.339,-109.394 -53.54,-118.489 -55.563,-127.649C-56.496,-131.806 -58.795,-146.221 -49.429,-158.171C-40.756,-169.24 -24.318,-175.12 -0.572,-175.651C-0.371,-175.656 -0.168,-175.658 0.036,-175.658C16.235,-175.658 33.85,-162.099 41.009,-144.12C45.67,-132.42 47.526,-115.126 29.904,-99.169C19.3,-89.573 8.511,-83.322 -1.007,-77.806C-21.071,-66.184 -43.812,-53.01 -39.768,-15.195C-38.839,-6.531 -31.574,0 -22.868,0C-22.26,0 -21.64,-0.034 -21.026,-0.102C-16.546,-0.576 -12.486,-2.785 -9.632,-6.32C-6.777,-9.856 -5.473,-14.291 -5.958,-18.808C-7.653,-34.654 -2.641,-37.559 16.007,-48.369C26.461,-54.425 39.442,-61.944 52.721,-73.971C64.59,-84.71 72.696,-97.987 76.162,-112.366C79.637,-126.783 78.404,-142.113 72.595,-156.699C66.663,-171.591 56.2,-185.07 43.134,-194.655C29.942,-204.332 14.623,-209.662 0,-209.662M-0.002,-202.662C27.148,-202.663 54.803,-182.444 66.092,-154.11C76.832,-127.14 70.082,-99.12 48.022,-79.16C35.302,-67.64 22.672,-60.319 12.522,-54.44C-6.438,-43.45 -15.098,-38.44 -12.918,-18.06C-12.328,-12.569 -16.308,-7.64 -21.798,-7.06C-22.158,-7.02 -22.518,-7 -22.868,-7C-27.918,-7 -32.258,-10.81 -32.808,-15.94C-36.368,-49.23 -17.488,-60.17 2.502,-71.75C12.322,-77.44 23.452,-83.89 34.602,-93.98C56.292,-113.62 52.002,-135.44 47.512,-146.71C39.293,-167.351 18.962,-182.658 0.036,-182.658C-0.219,-182.658 -0.473,-182.655 -0.728,-182.65C-26.668,-182.07 -44.908,-175.29 -54.938,-162.49C-66.178,-148.15 -63.498,-131.04 -62.398,-126.14C-61.208,-120.75 -64.608,-115.4 -69.998,-114.21C-70.732,-114.045 -71.466,-113.966 -72.188,-113.966C-76.767,-113.966 -80.891,-117.144 -81.928,-121.8C-83.498,-128.87 -87.328,-153.58 -70.678,-174.83C-56.778,-192.57 -33.388,-201.93 -1.168,-202.65C-0.78,-202.658 -0.39,-202.662 -0.002,-202.662" style="fill-rule:nonzero;"/>
        </g>
    </g>
</svg>
