<?xml version="1.0" encoding="UTF-8" standalone="no"?>
<!DOCTYPE svg PUBLIC "-//W3C//DTD SVG 1.1//EN" "http://www.w3.org/Graphics/SVG/1.1/DTD/svg11.dtd">
<svg width="100%" height="100%" viewBox="0 0 3000 3000" version="1.1" xmlns="http://www.w3.org/2000/svg" xmlns:xlink="http://www.w3.org/1999/xlink" xml:space="preserve" xmlns:serif="http://www.serif.com/" style="fill-rule:evenodd;clip-rule:evenodd;stroke-linecap:round;stroke-miterlimit:10;">
    <g id="blackboard">
        <g transform="matrix(-1,0,0,1,3822.88,-1249.88)">
            <rect x="1128.88" y="1465.05" width="1565.12" height="1319.78" style="fill:rgb(26,94,73);"/>
        </g>
        <g transform="matrix(1,0,0,1,2209.35,1106.73)">
            <path d="M0,7.483C-1.663,5.093 -10.135,-4.156 -12.325,2.246C-13.802,6.561 -8.093,10.778 -4.363,11.343C-2.41,11.639 2.562,8.978 0,7.483" style="fill:rgb(194,32,44);fill-rule:nonzero;"/>
        </g>
        <g transform="matrix(1,0,0,1,2190.04,1093.34)">
            <path d="M0,6.007C-0.661,3.442 -8.31,-4.494 -9.108,1.725C-9.834,7.386 1.777,10.501 -0.261,4.442" style="fill:rgb(194,32,44);fill-rule:nonzero;"/>
        </g>
        <g transform="matrix(1,0,0,1,2561.2,1068.9)">
            <path d="M0,-394.436C-4.634,-395.507 -9.073,-400.542 -13.245,-402.795C-21.416,-407.208 -29.792,-410.882 -38.151,-414.853C-40.487,-415.963 -46.599,-418.435 -45.867,-421.883C-45.214,-424.958 -40.948,-423.245 -38.746,-422.614C-30.786,-420.332 -23.145,-415.841 -15.849,-411.985C-8.514,-408.108 -1.241,-403.633 4.494,-397.636C2.202,-397.482 4.726,-393.344 0,-394.436M-264.079,-11.158C-268.785,-12.053 -273.366,-13.397 -277.965,-14.673C-288.027,-17.463 -297.645,-19.302 -305.679,-26.517C-306.867,-27.584 -311.012,-30.874 -308.822,-32.685C-307.302,-33.941 -303.074,-31.673 -301.643,-30.983C-293.692,-27.154 -285.929,-22.794 -277.969,-18.86C-273.445,-16.624 -268.853,-15.196 -264.063,-13.578C-260.107,-12.242 -255.442,-9.333 -251.158,-9.723C-254.446,-8.529 -260.51,-10.48 -264.079,-11.158M-344.035,-50.164C-349.959,-55.311 -355.837,-60.405 -360.984,-66.364C-365.555,-71.655 -369.553,-77.756 -373.571,-83.472C-377.242,-88.693 -380.248,-95.587 -379.989,-102.029C-376.885,-102.101 -373.894,-94.637 -372.397,-92.432C-367.851,-85.737 -363.029,-78.827 -357.854,-72.591C-348.966,-61.879 -338.488,-51.946 -328.376,-42.593C-329.78,-37.961 -342.367,-48.715 -344.035,-50.164M107.015,-226.506C107.017,-230.514 105.506,-234.857 105.19,-238.826C104.755,-244.298 103.499,-249.42 101.928,-254.69C99.313,-263.465 97.879,-272.614 94.958,-281.28C89.201,-298.356 78.973,-312.925 69.449,-328.123C65.868,-333.838 62.459,-341.809 57.45,-346.245C58.86,-346.937 65.987,-337.219 67.58,-335.261C70.898,-331.181 74.057,-327.028 77.154,-322.767C78.57,-320.818 86.285,-305.782 89.148,-309.199C92.507,-313.207 82.844,-325.266 80.922,-328.265C75.396,-336.888 69.106,-345.178 62.537,-353.034C58.044,-358.408 53.365,-363.401 48.503,-368.431C45.67,-371.362 42.163,-376.614 38.668,-378.593C28.858,-384.145 21.096,-394.218 12.037,-401.027C-1.901,-411.503 -17.083,-418.618 -32.976,-425.679C-40.863,-429.184 -48.791,-432.549 -56.811,-435.752C-65.739,-439.319 -74.934,-441.468 -84.202,-443.867C-98.509,-447.571 -113.72,-451.283 -128.556,-451.375C-134.737,-451.414 -141.09,-450.836 -147.012,-448.969C-150.283,-447.938 -151.511,-445.447 -152.55,-443.549C-160.561,-443.422 -168.279,-444.577 -176.348,-444.593C-188.326,-444.616 -200.214,-444.107 -212.131,-442.838C-223.478,-441.63 -233.917,-438.932 -244.573,-434.946C-250.249,-432.823 -257.092,-426.043 -263.419,-427.434C-272.347,-429.396 -264.377,-437.723 -259.98,-439.84C-248.811,-445.217 -236.614,-446.936 -224.812,-450.077C-218.87,-451.659 -212.817,-453.204 -206.752,-453.717C-200.913,-454.211 -194.34,-455.281 -188.551,-455.026C-185.522,-454.894 -174.823,-452.166 -175.239,-458.68C-175.671,-465.435 -195.273,-462.067 -199.174,-462.071C-202.718,-462.074 -208.765,-460.991 -210.856,-464.55C-213.753,-469.483 -201.136,-469.637 -198.562,-469.636C-189.16,-469.632 -179.935,-469.583 -170.67,-469.897C-164.895,-470.093 -158.577,-476.69 -166.258,-479.911C-172.007,-482.322 -180.914,-479.462 -186.847,-478.9C-193.539,-478.266 -200.211,-478.231 -206.808,-477.7C-212.224,-477.265 -217.522,-476.604 -222.985,-476.419C-225.756,-476.325 -234.82,-475.252 -232.899,-480.442C-230.886,-485.882 -217.768,-485.607 -213.224,-486.071C-205.93,-486.817 -198.558,-486.431 -191.286,-487.124C-180.89,-488.116 -170.754,-487.886 -160.325,-487.376C-154.358,-487.084 -148.683,-486.316 -142.65,-486.332C-137.083,-486.346 -131.549,-484.536 -126.144,-484.564C-122.593,-484.582 -123.384,-487.219 -125.629,-489.005C-127.718,-490.667 -131.402,-492.788 -133.964,-493.578C-138.601,-495.009 -144.135,-494.789 -148.949,-495.194C-155.797,-495.771 -162.693,-496.094 -169.499,-496.759C-175.078,-497.304 -181.045,-498.059 -186.476,-496.768C-191.252,-495.632 -196.475,-496.413 -201.543,-495.977C-210.733,-495.186 -219.889,-495.132 -229.048,-493.571C-241.469,-491.454 -253.291,-487.206 -265.556,-484.499C-276.39,-482.109 -286.719,-479.184 -297.06,-475.134C-311.098,-469.635 -323.825,-461.064 -337.053,-453.915C-347.88,-448.063 -358.384,-440.799 -368.028,-433.114C-371.949,-429.99 -375.44,-425.619 -378.841,-422.113C-385.016,-415.747 -390.594,-408.852 -396.246,-402.027C-405.887,-390.384 -414.573,-377.018 -420.465,-363.046C-425.114,-352.023 -428.518,-341.34 -429.592,-329.36C-429.969,-325.162 -429.683,-321.643 -427.25,-318.077C-426.174,-316.499 -423.191,-313.318 -421.245,-313.375C-422.273,-312.711 -421.523,-311.35 -421.994,-310.176C-423.769,-305.756 -425.512,-301.174 -427.001,-296.645C-429.293,-289.679 -432.205,-282.904 -434.223,-275.844C-437.586,-264.085 -439.14,-252.024 -441.142,-240.013C-442.944,-229.202 -442.637,-218.404 -441.862,-207.535C-441.49,-202.333 -441.358,-196.626 -440.322,-191.571C-442.282,-192.201 -443.148,-194.534 -445.448,-195.018C-448.111,-195.578 -449.076,-194.273 -450.074,-191.819C-451.896,-187.337 -452.114,-182.328 -453.025,-177.745C-452.734,-177.832 -453.325,-177.483 -453.072,-177.723C-454.104,-187.157 -455.327,-197.999 -453.854,-207.462C-450.025,-210.291 -450.082,-218.775 -451.504,-222.962C-454.157,-230.778 -461.732,-224.091 -459.593,-217.897C-463.115,-214.525 -463.245,-207.539 -463.646,-203.069C-464.588,-192.582 -464.449,-181.71 -463.506,-171.232C-461.851,-152.847 -456.38,-133.559 -449.843,-116.278C-446.914,-108.537 -443.703,-101.953 -439.245,-95.027C-439.318,-94.078 -438.147,-92.894 -437.301,-91.625C-435.089,-88.309 -433.131,-84.955 -431.16,-81.503C-427.984,-75.939 -424.758,-70.615 -421.063,-65.373C-416.084,-58.311 -410.82,-52.101 -404.55,-46.506C-406.47,-43.278 -403.206,-38.535 -401.49,-35.867C-397.115,-29.068 -391.481,-22.983 -385.302,-17.81C-380.369,-13.679 -375.593,-9.416 -370.701,-5.282C-368.627,-3.529 -362.252,-0.549 -360.985,-4.767C-358.614,-2.427 -355.857,0.195 -352.637,1.233C-350.436,12.297 -337.827,21.25 -328.898,27.066C-323.446,30.618 -317.528,34.062 -311.685,36.915C-305.225,40.069 -298.271,42.174 -291.58,44.791C-287.645,46.331 -280.961,49.187 -276.816,48C-277.525,47.194 -278.323,46.603 -279.332,46.364C-278.625,46.376 -278.162,45.89 -277.729,45.314C-280.056,43.598 -283.397,43.284 -286.095,42.067C-289.41,40.57 -292.818,38.991 -296.028,37.241C-300.241,34.944 -304.198,32.588 -308.232,29.987C-310.632,28.439 -315.244,26.014 -315.292,22.664C-312.74,22.424 -308.981,25.95 -306.73,27.117C-301.991,29.574 -296.812,31.551 -291.743,33.178C-285.234,35.266 -278.124,38.312 -271.245,38.799C-277.68,43.232 -259.326,47.956 -257.758,48.437C-254.37,49.473 -248.697,51.802 -245.159,50.219C-243.309,49.391 -242.716,47.106 -243.854,45.842C-241.867,46.652 -237.363,45.956 -234.625,46.231C-229.207,46.774 -223.765,47.067 -218.331,47.636C-207.138,48.808 -195.968,46.613 -184.766,46.625C-173.25,46.637 -162.26,42.69 -150.934,41.218C-140.396,39.849 -130.293,36.5 -120.323,32.952C-113.708,30.597 -107.579,27.724 -101.152,25.031C-98.966,24.115 -93.824,22.698 -91.826,24.452C-83.658,31.622 -115.212,41.473 -118.113,42.452C-125.465,44.932 -132.639,47.071 -140.028,48.98C-142.852,49.71 -146.366,52.321 -142.389,54.776C-138.969,56.888 -134.844,54.838 -131.289,54.973C-125.127,55.205 -129.618,60.41 -132.926,61.827C-144.84,66.931 -158.705,67.517 -171.549,67.494C-186.074,67.469 -200.555,66.83 -214.898,64.829C-221.13,63.959 -227.31,62.21 -233.478,61.22C-236.707,60.702 -244.178,61.515 -240.074,66.298C-237.008,69.872 -230.796,69.242 -226.631,69.849C-221.121,70.652 -215.92,73.188 -210.216,73.77C-206.449,74.153 -201.553,74.509 -197.819,73.821C-195.734,80.144 -200.07,80.277 -205.514,80.277C-213.167,80.277 -220.391,79.184 -227.94,77.865C-242.487,75.321 -257.19,72.069 -270.984,66.865C-277.78,64.3 -284.685,61.802 -291.568,59.41C-294.073,58.54 -302.151,54.019 -304.769,56.535C-311.166,62.682 -276.741,72.098 -273.797,72.979C-267.938,74.734 -262.547,77.782 -256.629,79.509C-252.679,80.661 -248.614,81.402 -244.638,82.422C-242.997,82.843 -241.214,83.295 -239.649,83.93C-237.46,84.816 -237.418,86.12 -235.506,87.32C-236.859,93.908 -257.286,86.497 -261.014,85.69C-270.629,83.607 -280.177,81.683 -289.462,78.443C-302.39,73.933 -316.412,68.29 -327.587,60.437C-329.948,58.778 -342.795,50.037 -343.781,55.989C-344.769,61.961 -330.093,68.038 -326.289,70.09C-317.338,74.918 -308.058,78.883 -298.621,82.619C-288.572,86.597 -277.931,88.552 -267.587,91.691C-261.689,93.481 -255.73,95.204 -249.664,96.45C-242.911,97.837 -235.975,97.701 -229.167,98.596C-223.038,99.401 -216.819,100.645 -210.652,100.892C-206.047,101.076 -200.874,100.104 -196.376,101.147C-185.693,103.623 -174.056,101.08 -163.266,99.646C-154.935,98.539 -146.592,98.063 -138.412,95.943C-118.343,90.741 -98.696,85.561 -79.661,77.025C-60.658,68.504 -41.154,57.883 -24.475,45.398C-15.459,38.649 -5.796,33.068 3.073,26.08C13.471,17.888 22.165,8.078 32.038,-0.605C42.474,-9.783 50.15,-21.252 58.636,-32.027C62.584,-37.04 65.919,-42.473 69.521,-47.759C72.429,-52.026 74.04,-57.334 77.276,-61.375C79.432,-64.067 80.97,-68.405 82.462,-71.655C84.677,-76.482 86.651,-81.473 88.571,-86.418C92.589,-96.765 96.666,-107.023 99.443,-117.795C102.364,-129.127 105.728,-141.188 106.245,-152.935C106.513,-159.002 106.191,-165.143 106.691,-171.193C107.173,-177.023 107.859,-182.82 108.065,-188.675C108.511,-201.37 107.012,-213.889 107.015,-226.506" style="fill:rgb(194,32,44);fill-rule:nonzero;"/>
        </g>
        <g transform="matrix(1,0,0,1,2460.04,589.635)">
            <path d="M0,-4.722C-2.388,-6.637 -10.171,-7.092 -6.915,-2.111C-3.986,2.37 4.844,-0.149 0,-5.244" style="fill:rgb(194,32,44);fill-rule:nonzero;"/>
        </g>
        <g transform="matrix(-0.94806,0.318092,0.318092,0.94806,2494.94,598.311)">
            <path d="M0.719,-9.97C3.419,-11.437 9.798,-13.646 9.852,-8.417C9.89,-4.596 3.643,-1.077 0.719,0.486C-2.122,2.005 -7.589,3.383 -7.36,-1.825C-7.16,-6.367 -0.244,-9.268 0.719,-9.97" style="fill:rgb(194,32,44);fill-rule:nonzero;"/>
        </g>
        <g transform="matrix(1,0,0,1,2372.58,728.381)">
            <path d="M0,272.322C-2.276,276.585 -7.032,279.834 -10.662,282.488C-17.05,281.572 -25.482,275.214 -30.62,271.532C-36.453,267.352 -42.131,263.164 -47.934,259.021C-58.479,251.493 -69.515,244.029 -79.249,235.543C-83.186,232.111 -88.742,229.176 -90.097,223.792C-91.252,223.423 -87.798,223.488 -86.752,223.219C-84.368,222.608 -82.096,221.538 -79.726,220.814C-71.323,218.248 -62.613,216.602 -54.122,214.206C-45.475,211.765 -36.331,210.047 -27.407,209.019C-24.987,208.74 -9.366,208.564 -9.097,207.358C-4.445,223.028 2.263,238.258 2.251,255.053C2.247,260.498 2.642,267.373 0,272.322M172.425,67.619C161.276,51.325 143.686,34.541 127.425,23.619C117.248,16.783 101.028,9.749 89.425,5.619C83.753,3.6 74.281,1.083 68.425,-0.381C64.094,-1.464 54.093,-7.26 50.425,-5.381C50.45,-15.797 58.619,-28.043 48.425,-34.381C43.856,-37.222 35.58,-45.574 30.425,-47.381C25.998,-48.934 16.954,-52.249 12.425,-53.381C1.019,-56.234 -14.943,-57.151 -26.575,-58.381C-33.902,-59.156 -50.064,-61.82 -57.077,-59.936C-66.518,-57.398 -62.573,-46.687 -53.967,-47.425C-50.246,-47.744 -43.774,-26.763 -41.565,-23.435C-38.025,-18.105 -33.981,-13.406 -29.282,-9.019C-26.21,-6.151 -23.12,-3.006 -19.853,-0.573C-17.16,1.433 -14.575,3.619 -14.575,3.619C-12.575,3.619 -22.846,8.465 -27.575,9.619C-36.408,11.774 -37.89,13.481 -46.575,16.619C-51.492,18.395 -60.455,22.495 -64.575,25.619C-67.118,27.547 -66.121,37.551 -69.553,37.144C-71.361,36.929 -74.907,35.592 -74.445,34.01C-76.097,33.044 -74.737,28.09 -74.64,26.032C-74.402,20.943 -76.075,15.87 -77.575,10.619C-79.575,3.619 -84.221,-3.895 -85.575,1.619C-89.267,16.654 -101.74,37.913 -110.575,50.619C-116.448,59.063 -119.741,65.887 -126.575,73.619C-130.302,77.836 -135.896,83.177 -137.575,88.619C-139.672,95.417 -139.826,108.486 -139.575,115.619C-139.351,121.996 -139.249,132.222 -133.575,136.619C-121.386,146.063 -104.767,121.914 -99.879,114.704C-88.601,98.067 -79.137,80.317 -63.913,66.842C-47.47,52.289 -27.514,43.227 -5.809,39.478C9.046,36.912 26.921,32.369 41.48,37.434C57.985,43.176 74.296,48.689 87.545,60.619C97.66,69.725 111.177,79.851 118.86,91.14C114.818,93.782 108.188,93.506 103.455,93.876C95.905,94.465 87.48,95.84 80.121,93.097C78.924,90.195 78.346,86.726 75.925,84.086C72.997,80.893 68.766,78.38 65.251,75.879C50.261,65.214 37.624,63.474 19.477,65.793C7.238,67.356 -5.014,70.508 -17.316,71.183C-25.87,71.652 -36.347,74.084 -43.923,70.01C-48.892,70.239 -59.792,62.397 -63.4,68.924C-66.461,74.463 -59.721,85.602 -56.445,89.575C-52.008,94.956 -45.821,100.612 -40.009,104.435C-33.933,108.432 -25.879,108.606 -18.894,109.498C-14.685,110.036 -10.201,110.129 -5.918,109.937C-3.198,109.816 4.104,108.275 5.773,109.923C3.071,111.709 1.967,116.841 0.695,119.707C-1.559,124.785 -4.322,129.663 -6.118,134.952C-10.128,146.757 -11.053,157.814 -11.053,170.184C-15.339,172.387 -22.401,172.211 -27.145,173.313C-35.055,175.153 -42.673,177.641 -50.38,180.147C-66.733,185.465 -82.274,193.189 -97.14,201.488C-105.787,206.315 -114.194,213.738 -109.575,223.619C-104.752,233.935 -97.726,245.004 -90.575,253.619C-83.106,262.617 -71.164,274.577 -62.575,282.619C-53.887,290.752 -45.184,299.479 -36.575,307.619C-29.756,314.066 -22.532,319.779 -14.575,324.619C-8.917,328.06 0.774,334.142 7.425,331.619C22.609,325.859 30.518,293.226 31.99,277.694C32.973,267.321 32.189,256.375 30.131,246.175C29.021,240.676 27.675,235.226 26.892,229.672C25.931,222.855 22.346,215.411 22.208,208.532C22.658,210.49 58.271,206.473 61.748,206.184C68.571,205.616 75.604,205.058 82.489,205.403C85.398,205.548 92.216,205.881 89.805,209.999C87.505,213.926 74.723,214.418 79.827,222.216C83.936,228.493 99.799,223.921 105.555,223.096C113.873,221.903 122.522,219.122 129.033,213.707C135.669,208.189 133.042,202.1 129.709,195.207C121.667,178.581 107.799,172.863 90.316,170.098C79.425,168.376 69.085,167.447 57.836,167.445C50.734,167.444 43.771,166.33 36.666,166.664C28.935,167.027 21.414,168.173 13.599,168.619C9.598,168.847 12.143,154.799 13.687,152.184C18.123,144.67 26.99,138.378 33.479,132.619C45.198,122.219 66.892,120.913 72.686,104.053C82.151,108.079 92.81,105.525 102.718,106.88C107.07,107.475 111.406,108.176 115.729,108.729C118.747,109.115 122.405,108.868 125.132,109.912C131.58,112.38 136.131,118.978 142.751,121.955C149.916,125.177 155.167,121.654 161.911,117.752C179.425,107.619 182.217,81.929 172.425,67.619" style="fill-rule:nonzero;"/>
        </g>
        <g transform="matrix(1,0,0,1,2386.58,729.935)">
            <path d="M0,269.768C-2.276,274.031 -7.032,277.28 -10.662,279.934C-17.05,279.018 -25.482,272.66 -30.62,268.978C-36.453,264.798 -42.131,260.61 -47.934,256.467C-58.479,248.939 -69.515,241.475 -79.249,232.989C-83.186,229.557 -88.742,226.622 -90.097,221.238C-91.252,220.869 -87.798,220.934 -86.752,220.665C-84.368,220.054 -82.096,218.984 -79.726,218.26C-71.323,215.694 -62.613,214.048 -54.122,211.652C-45.475,209.211 -36.331,207.493 -27.407,206.465C-24.987,206.186 -9.366,206.01 -9.097,204.804C-4.445,220.474 2.263,235.704 2.251,252.499C2.247,257.944 2.642,264.819 0,269.768M157.979,66.36C146.831,50.067 131.51,38.444 115.25,27.521C105.073,20.686 92.584,14.849 80.981,10.718C75.309,8.699 69.539,6.693 63.682,5.228C59.352,4.146 49.355,-0.162 45.687,1.716C45.712,-8.7 46.292,-28.365 36.097,-34.704C31.529,-37.545 24.137,-38.463 18.982,-40.27C14.555,-41.823 9.615,-42.932 5.086,-44.065C-6.319,-46.917 -17.92,-46.769 -29.552,-47.999C-36.878,-48.774 -47.064,-53.374 -54.077,-51.49C-63.518,-48.952 -59.573,-38.241 -50.967,-38.979C-47.246,-39.298 -43.774,-29.317 -41.565,-25.989C-38.025,-20.659 -33.981,-15.96 -29.282,-11.573C-26.21,-8.705 -23.12,-5.56 -19.853,-3.127C-17.16,-1.121 -12.683,0.621 -11.339,3.979C-8.727,10.504 -17.085,13.878 -21.814,15.032C-30.647,17.187 -39.146,19.906 -47.832,23.044C-52.749,24.82 -57.398,27.388 -61.518,30.511C-64.061,32.439 -66.121,34.997 -69.553,34.59C-71.361,34.375 -74.907,33.038 -74.445,31.456C-76.097,30.49 -74.737,25.536 -74.64,23.478C-74.402,18.389 -73.269,14.135 -77.597,10.804C-81.678,7.662 -84.047,6.211 -85.401,11.725C-89.093,26.76 -97.687,40.263 -106.522,52.969C-112.395,61.414 -118.29,69.864 -125.123,77.596C-128.85,81.813 -133.038,85.884 -134.717,91.325C-136.814,98.124 -136.129,106.508 -135.879,113.641C-135.655,120.018 -135.271,131.851 -129.597,136.247C-117.408,145.693 -104.767,119.36 -99.879,112.15C-88.601,95.513 -79.137,77.763 -63.913,64.288C-47.47,49.735 -27.514,40.673 -5.809,36.924C9.046,34.358 26.921,29.815 41.48,34.88C57.985,40.622 74.296,46.135 87.545,58.065C97.66,67.171 111.177,77.297 118.86,88.586C114.818,91.228 108.188,90.952 103.455,91.322C95.905,91.911 87.48,93.286 80.121,90.543C78.924,87.641 78.346,84.172 75.925,81.532C72.997,78.339 68.766,75.826 65.251,73.325C50.261,62.66 37.624,60.92 19.477,63.239C7.238,64.802 -5.014,67.954 -17.316,68.629C-25.87,69.098 -36.347,71.53 -43.923,67.456C-48.892,67.685 -59.792,59.843 -63.4,66.37C-66.461,71.909 -59.721,83.048 -56.445,87.021C-52.008,92.402 -45.821,98.058 -40.009,101.881C-33.933,105.878 -25.879,106.052 -18.894,106.944C-14.685,107.482 -10.201,107.575 -5.918,107.383C-3.198,107.262 4.104,105.721 5.773,107.369C3.071,109.155 1.967,114.287 0.695,117.153C-1.559,122.231 -4.322,127.109 -6.118,132.398C-10.128,144.203 -11.053,155.26 -11.053,167.63C-15.339,169.833 -22.401,169.657 -27.145,170.759C-35.055,172.599 -42.673,175.087 -50.38,177.593C-66.733,182.911 -82.274,190.635 -97.14,198.934C-105.787,203.761 -111.639,210.575 -107.02,220.456C-102.197,230.773 -95.694,238.549 -88.543,247.163C-81.074,256.161 -74.034,266.317 -65.445,274.358C-56.757,282.492 -47.532,290.195 -38.923,298.335C-32.104,304.782 -23.715,309.813 -15.758,314.653C-10.1,318.095 -3.617,323.142 3.033,320.619C18.218,314.859 30.518,290.672 31.99,275.14C32.973,264.767 32.189,253.821 30.131,243.621C29.021,238.122 27.675,232.672 26.892,227.118C25.931,220.301 22.346,212.857 22.208,205.978C22.658,207.936 58.271,203.919 61.748,203.63C68.571,203.062 75.604,202.504 82.489,202.849C85.398,202.994 92.216,203.327 89.805,207.445C87.505,211.372 74.723,211.864 79.827,219.662C83.936,225.939 99.799,221.367 105.555,220.542C113.873,219.349 122.522,216.568 129.033,211.153C135.669,205.635 133.042,199.546 129.709,192.653C121.667,176.027 107.799,170.309 90.316,167.544C79.425,165.822 69.085,164.893 57.836,164.891C50.734,164.89 43.771,163.776 36.666,164.11C28.935,164.473 21.414,165.619 13.599,166.065C9.598,166.293 12.143,152.245 13.687,149.63C18.123,142.116 26.99,135.824 33.479,130.065C45.198,119.665 66.892,118.359 72.686,101.499C82.151,105.525 92.81,102.971 102.718,104.326C107.07,104.921 111.406,105.622 115.729,106.175C118.747,106.561 122.405,106.314 125.132,107.358C131.58,109.826 136.131,116.424 142.751,119.401C149.916,122.623 156.729,121.016 161.911,115.198C175.209,100.266 167.772,80.671 157.979,66.36" style="fill:white;fill-rule:nonzero;"/>
        </g>
        <g transform="matrix(1,0,0,1,1215.38,687.478)">
            <path d="M0,168.611C-3.741,168.611 -7.235,166.261 -8.514,162.524C-10.125,157.821 -7.618,152.704 -2.915,151.094C-2.334,150.893 30.237,139.501 62.479,116.007C104.747,85.205 126.605,49.166 127.445,8.891C127.549,3.922 131.685,0 136.63,0.081C141.6,0.184 145.544,4.297 145.441,9.266C144.488,54.942 119.332,96.98 72.691,130.836C38.157,155.904 4.339,167.636 2.916,168.123C1.95,168.454 0.967,168.611 0,168.611" style="fill-rule:nonzero;"/>
        </g>
        <g transform="matrix(1,0,0,1,1529.91,756.499)">
            <path d="M0,18L-232.435,18C-237.406,18 -241.435,13.971 -241.435,9C-241.435,4.029 -237.406,0 -232.435,0L0,0C4.971,0 9,4.029 9,9C9,13.971 4.971,18 0,18" style="fill-rule:nonzero;"/>
        </g>
        <g transform="matrix(1,0,0,1,1230.76,778.538)">
            <path d="M0,261.104C-2.53,261.104 -5.041,261.061 -7.552,260.973C-12.52,260.8 -16.406,256.632 -16.233,251.665C-16.059,246.697 -11.872,242.837 -6.924,242.984C52.924,245.077 119.104,220.005 174.616,174.209C230.854,127.813 266.564,67.432 272.591,8.546C273.097,3.601 277.515,0 282.46,0.509C287.406,1.015 291.003,5.434 290.498,10.379C283.993,73.936 245.931,138.71 186.07,188.094C129.517,234.75 62.135,261.104 0,261.104" style="fill-rule:nonzero;"/>
        </g>
        <g transform="matrix(1,0,0,1,1465.34,883.998)">
            <path d="M0,97.169C-1.113,97.169 -2.244,96.961 -3.34,96.523L-198.21,18.559C-202.825,16.712 -205.069,11.475 -203.223,6.859C-201.376,2.245 -196.137,0 -191.523,1.847L3.346,79.811C7.961,81.657 10.205,86.895 8.359,91.51C6.951,95.028 3.572,97.169 0,97.169" style="fill-rule:nonzero;"/>
        </g>
        <g transform="matrix(1,0,0,1,1569.82,690.107)">
            <path d="M0,80.659C-2.144,80.659 -4.294,79.898 -6.014,78.352C-26.246,60.166 -48.065,16.11 -48.984,14.243C-51.18,9.785 -49.345,4.391 -44.887,2.195C-40.424,0 -35.033,1.834 -32.836,6.292C-32.626,6.718 -11.631,49.1 6.02,64.966C9.716,68.288 10.02,73.979 6.696,77.676C4.919,79.653 2.465,80.659 0,80.659" style="fill-rule:nonzero;"/>
        </g>
        <g transform="matrix(1,0,0,1,1614.43,668.606)">
            <path d="M0,84.046C-2.29,84.046 -4.581,83.178 -6.336,81.438C-31.673,56.325 -51.826,15.972 -52.672,14.267C-54.88,9.814 -53.06,4.414 -48.606,2.206C-44.15,0 -38.754,1.817 -36.546,6.27C-36.352,6.661 -16.849,45.674 6.336,68.654C9.866,72.153 9.892,77.851 6.393,81.381C4.633,83.157 2.316,84.046 0,84.046" style="fill-rule:nonzero;"/>
        </g>
        <g transform="matrix(1,0,0,1,1737.69,680.036)">
            <path d="M0,63.586C-1.408,63.586 -2.837,63.254 -4.171,62.555L-88.692,18.251C-93.095,15.943 -94.793,10.503 -92.485,6.101C-90.177,1.698 -84.739,0 -80.335,2.308L4.187,46.613C8.589,48.92 10.287,54.36 7.979,58.762C6.37,61.831 3.24,63.586 0,63.586" style="fill-rule:nonzero;"/>
        </g>
        <g transform="matrix(1,0,0,1,1737.69,761.542)">
            <path d="M0,60.068C-1.432,60.068 -2.884,59.725 -4.234,59.003L-80.538,18.217C-84.922,15.874 -86.576,10.421 -84.233,6.037C-81.891,1.653 -76.437,0 -72.054,2.343L4.25,43.129C8.634,45.472 10.288,50.925 7.945,55.309C6.324,58.341 3.214,60.068 0,60.068" style="fill-rule:nonzero;"/>
        </g>
        <g transform="matrix(1,0,0,1,1635.99,877.508)">
            <path d="M0,198.493C-1.527,198.493 -3.076,198.104 -4.494,197.284C-8.798,194.797 -10.271,189.292 -7.784,184.989C-6.882,183.427 82.593,28.543 93.642,6.274C95.851,1.821 101.251,0 105.704,2.212C110.157,4.421 111.976,9.822 109.767,14.274C98.466,37.051 11.498,187.597 7.802,193.994C6.134,196.88 3.109,198.493 0,198.493" style="fill-rule:nonzero;"/>
        </g>
        <g transform="matrix(1,0,0,1,1957.1,702.784)">
            <path d="M0,24.706C-95.788,24.706 -202.591,19.034 -209.325,18.671C-214.289,18.403 -218.096,14.163 -217.828,9.199C-217.561,4.236 -213.329,0.431 -208.356,0.697C-205.869,0.831 41.305,13.959 121.928,0.802C126.83,0 131.459,3.329 132.26,8.234C133.061,13.14 129.732,17.766 124.826,18.566C96.602,23.173 49.782,24.706 0,24.706" style="fill-rule:nonzero;"/>
        </g>
        <g transform="matrix(1,0,0,1,1988.52,662)">
            <path d="M0,119.83L-9.952,118.772C-29.866,116.654 -158.511,112.537 -159.809,112.496L-168.521,112.218L-168.521,9C-168.521,4.03 -164.492,0 -159.521,0C-154.551,0 -150.521,4.03 -150.521,9L-150.521,94.788C-124.506,95.643 -48.433,98.222 -18,100.113L-18,23.548C-18,18.577 -13.971,14.548 -9,14.548C-4.029,14.548 0,18.577 0,23.548L0,119.83Z" style="fill-rule:nonzero;"/>
        </g>
        <g transform="matrix(1,0,0,1,1796.41,759.15)">
            <path d="M0,310.125C-9.836,310.125 -20.19,309.089 -31.055,307.013C-35.937,306.081 -39.139,301.366 -38.205,296.484C-37.272,291.602 -32.562,288.396 -27.676,289.333C6.04,295.776 33.704,290.98 54.552,275.08C82.901,253.456 99.746,211.192 104.619,149.462C108.528,99.923 104.64,10.5 104.6,9.603C104.38,4.637 108.227,0.433 113.192,0.213C118.133,0 122.361,3.839 122.582,8.806C122.746,12.515 126.561,100.229 122.563,150.878C117.271,217.929 98.062,264.532 65.468,289.392C47.374,303.192 25.435,310.124 0,310.125" style="fill-rule:nonzero;"/>
        </g>
        <g transform="matrix(1,0,0,1,2040.58,900.23)">
            <path d="M0,175.77C-0.255,175.77 -0.513,175.759 -0.771,175.737C-59.129,170.778 -99.485,147.852 -120.722,107.595C-138.271,74.328 -139.029,36.421 -139.531,11.338L-139.573,9.275C-139.676,4.305 -135.729,0.194 -130.76,0.092C-125.807,0 -121.679,3.936 -121.577,8.905L-121.535,10.978C-121.067,34.363 -120.36,69.703 -104.801,99.196C-86.355,134.163 -51.828,153.333 0.752,157.802C5.705,158.223 9.379,162.579 8.958,167.532C8.559,172.225 4.626,175.77 0,175.77" style="fill-rule:nonzero;"/>
        </g>
        <g transform="matrix(1,0,0,1,2067.57,958.577)">
            <path d="M0,22.587C-0.044,22.587 -0.087,22.587 -0.131,22.586L-319.436,18.031C-324.406,17.96 -328.378,13.874 -328.307,8.903C-328.235,3.933 -324.151,0 -319.18,0.033L0.125,4.588C5.096,4.659 9.067,8.745 8.996,13.715C8.926,18.641 4.91,22.587 0,22.587" style="fill-rule:nonzero;"/>
        </g>
        <g transform="matrix(1,0,0,1,2010,913.864)">
            <path d="M0,23.136C-0.075,23.136 -0.15,23.135 -0.226,23.133L-203.226,18.133C-208.194,18.011 -212.124,13.884 -212.001,8.914C-211.879,3.945 -207.749,0 -202.782,0.139L0.218,5.139C5.187,5.261 9.116,9.388 8.993,14.358C8.873,19.251 4.868,23.136 0,23.136" style="fill-rule:nonzero;"/>
        </g>
        <g transform="matrix(1,0,0,1,2048.93,877.505)">
            <path d="M-272.302,-57.566L-272.302,-57.558L-272.302,-57.566ZM-268.91,-14.723C-169.531,-10.173 -27.257,-4.338 -1.839,-5.063C-0.706,-9.166 0.693,-18.055 1.196,-31.764C1.593,-42.554 1.262,-50.869 0.784,-55.897L-272.174,-55.897C-271.398,-45.825 -269.934,-26.938 -268.91,-14.723M-8.732,12.926C-25.249,12.926 -60.871,11.998 -140.157,8.82C-208.572,6.077 -276.926,2.927 -277.608,2.896L-285.432,2.535L-286.155,-5.263C-287.117,-15.633 -289.339,-44.328 -290.249,-56.186C-290.599,-60.739 -289.021,-65.272 -285.919,-68.621C-282.814,-71.974 -278.411,-73.897 -273.84,-73.897L13.14,-73.897L15.767,-69.557C18.452,-65.121 19.648,-53.878 19.323,-36.142C19.179,-28.264 18.453,-8.791 14.846,1.833C14.183,3.786 12.166,9.727 6.643,11.882C5.372,12.378 3.966,12.926 -8.732,12.926" style="fill-rule:nonzero;"/>
        </g>
        <g transform="matrix(1,0,0,1,0,-1257.18)">
            <path d="M2694,1470.35L1128.88,1470.35L1128.88,2790.13L2694,2790.13L2694,1470.35ZM2760,1403.18L2760,2854L1061.96,2854L1060,1403.18L2760,1403.18Z" style="fill:rgb(104,71,88);fill-rule:nonzero;"/>
        </g>
        <g opacity="0.3">
            <g transform="matrix(1,0,0,1,1164.35,213.17)">
                <path d="M0,1319.78L6.651,45.83L1529.65,45.83L1529.65,0L-35.469,0L-35.469,1319.78L0,1319.78Z" style="fill-rule:nonzero;"/>
            </g>
        </g>
        <g opacity="0.1">
            <g transform="matrix(1,0,0,1,1232.91,1540.94)">
                <path d="M0,16.008C-4.406,16.008 -7.985,12.444 -8,8.034C-8.014,3.616 -4.444,0.023 -0.026,0.008L2.323,0L2.35,0C6.756,0 10.335,3.565 10.35,7.974C10.364,12.392 6.794,15.986 2.376,16L0.027,16.008L0,16.008Z" style="fill:white;fill-rule:nonzero;"/>
            </g>
            <g transform="matrix(1,0,0,1,1267.54,205.17)">
                <path d="M0,1351.66C-4.406,1351.66 -7.985,1348.1 -8,1343.69C-8.014,1339.27 -4.445,1335.68 -0.026,1335.66L1431.8,1330.86L1431.8,8C1431.8,3.581 1435.38,0 1439.8,0C1444.22,0 1447.8,3.581 1447.8,8L1447.8,1346.8L1439.83,1346.83L0.027,1351.66L0,1351.66Z" style="fill:white;fill-rule:nonzero;"/>
            </g>
            <g transform="matrix(1,0,0,1,1073.04,713.659)">
                <path d="M0,17.753L-0.012,17.753C-4.43,17.747 -8.007,14.16 -8,9.742L-7.998,7.989C-7.992,3.575 -4.411,0 0.001,0L0.013,0C4.431,0.006 8.008,3.593 8.002,8.011L8,9.764C7.993,14.178 4.413,17.753 0,17.753" style="fill:white;fill-rule:nonzero;"/>
            </g>
            <g transform="matrix(1,0,0,1,1073.1,146)">
                <path d="M0,544.315L-0.012,544.315C-4.431,544.309 -8.007,540.721 -8,536.303L-7.22,9.13L0.725,9.086L1676.85,0L1676.9,0C1681.3,0 1684.87,3.553 1684.9,7.956C1684.92,12.375 1681.36,15.976 1676.94,16L8.757,25.044L8,536.327C7.993,540.741 4.412,544.315 0,544.315" style="fill:white;fill-rule:nonzero;"/>
            </g>
        </g>
        <g transform="matrix(1,0,0,1,1060,1596.82)">
            <path d="M0,-1450.82L1700,-1450.82L1700,0L1.96,0L0,-1450.82Z" style="fill:none;fill-rule:nonzero;stroke:black;stroke-width:10.22px;"/>
        </g>
        <g transform="matrix(1,0,0,1,0,-1253.88)">
            <rect x="1128.88" y="1467.05" width="1565.12" height="1319.78" style="fill:none;stroke:black;stroke-width:10.22px;"/>
        </g>
    </g>
</svg>
