<?xml version="1.0" encoding="UTF-8" standalone="no"?>
<!DOCTYPE svg PUBLIC "-//W3C//DTD SVG 1.1//EN" "http://www.w3.org/Graphics/SVG/1.1/DTD/svg11.dtd">
<svg width="100%" height="100%" viewBox="0 0 3000 3000" version="1.1" xmlns="http://www.w3.org/2000/svg" xmlns:xlink="http://www.w3.org/1999/xlink" xml:space="preserve" xmlns:serif="http://www.serif.com/" style="fill-rule:evenodd;clip-rule:evenodd;stroke-linecap:round;stroke-miterlimit:10;">
    <g id="table" transform="matrix(1,0,0,1,541.383,2523.32)">
        <path d="M0,-370.642C0,-354.562 13.035,-341.527 29.115,-341.527L57.966,-341.527C71.71,-341.527 82.851,-330.386 82.851,-316.642C82.851,-302.898 71.71,-291.757 57.966,-291.757L-47.709,-291.757C-60.208,-291.757 -70.34,-281.625 -70.34,-269.126C-70.34,-256.627 -60.208,-246.495 -47.709,-246.495L83.355,-246.495C96.613,-246.495 107.362,-235.747 107.362,-222.488C107.362,-209.229 96.613,-198.481 83.355,-198.481L65.069,-198.481C51.2,-198.481 39.957,-187.238 39.957,-173.369C39.957,-159.5 51.2,-148.257 65.069,-148.257L272.25,-148.257C285.696,-148.257 296.596,-137.357 296.596,-123.911C296.596,-110.465 285.696,-99.565 272.25,-99.565L186.121,-99.565C172.584,-99.565 161.61,-88.592 161.61,-75.055C161.61,-61.518 172.584,-50.544 186.121,-50.544L584.627,-50.544C594.78,-50.544 603.01,-42.314 603.01,-32.161C603.01,-22.009 594.78,-13.778 584.627,-13.778L539.324,-13.778C527.48,-13.778 517.878,-4.176 517.878,7.669C517.878,19.513 527.48,29.115 539.324,29.115L1501.62,29.115C1511.77,29.115 1520,20.885 1520,10.732C1520,0.58 1511.77,-7.651 1501.62,-7.651L1350.51,-7.651C1341.21,-7.651 1333.66,-15.195 1333.66,-24.502C1333.66,-33.808 1341.21,-41.353 1350.51,-41.353L1661.58,-41.353C1671.73,-41.353 1679.96,-49.583 1679.96,-59.736C1679.96,-69.888 1671.73,-78.119 1661.58,-78.119L1546.92,-78.119C1535.07,-78.119 1525.47,-87.721 1525.47,-99.565L1525.47,-99.566C1525.47,-111.41 1535.07,-121.012 1546.92,-121.012L1773.54,-121.012C1786.23,-121.012 1796.52,-131.3 1796.52,-143.991C1796.52,-156.682 1786.23,-166.97 1773.54,-166.97L1649.62,-166.97C1636.57,-166.97 1626,-177.543 1626,-190.586C1626,-203.629 1636.57,-214.202 1649.62,-214.202L1890.7,-214.202C1902.46,-214.202 1912,-223.739 1912,-235.504C1912,-247.269 1902.46,-256.806 1890.7,-256.806L1761.72,-256.806C1747.61,-256.806 1736.17,-268.245 1736.17,-282.356C1736.17,-296.467 1747.61,-307.906 1761.72,-307.906L2048.1,-307.906C2060.97,-307.906 2071.4,-318.339 2071.4,-331.209C2071.4,-344.078 2060.97,-354.511 2048.1,-354.511L1996.4,-354.511C1985.3,-354.511 1976.3,-363.511 1976.3,-374.613L1976.3,-399.757L29.115,-399.757C13.035,-399.757 0,-386.722 0,-370.642" style="fill:rgb(234,131,89);fill-rule:nonzero;"/>
    </g>
    <g id="book">
        <g opacity="0.3">
            <g transform="matrix(-0.5678,0.823167,0.823167,0.5678,1776.48,1922.72)">
                <path d="M729.345,-399.079L757.383,-399.079L206.209,399.986L200.955,354.73L729.345,-399.079Z" style="fill:rgb(20,1,17);fill-rule:nonzero;"/>
            </g>
        </g>
        <g transform="matrix(1,0,0,1,1526.28,2172.04)">
            <path d="M0,-10.87L-1.9,69.52C-1.9,69.52 -185.9,-34.48 -211.9,-31.48C-286.83,-22.83 -442.9,26.52 -442.9,26.52L-345.76,-54.55C-345.76,-54.55 -185.32,-80.39 -154.3,-78.72C-123.28,-77.04 0,-10.87 0,-10.87" style="fill:rgb(219,215,211);fill-rule:nonzero;"/>
        </g>
        <g transform="matrix(1,0,0,1,1704.2,2241.56)">
            <path d="M0,-273.26L198.78,-262.45C198.78,-262.45 81.18,-243 60.18,-232C-36.88,-181.16 -179.82,0 -179.82,0L-177.92,-80.39C-177.92,-80.39 -95.67,-203.44 -71.43,-228C-47.2,-252.56 0,-273.26 0,-273.26" style="fill:rgb(219,215,211);fill-rule:nonzero;"/>
        </g>
        <g transform="matrix(1,0,0,1,1792.27,2170.22)">
            <path d="M0,-76.66C-55.42,-51.19 -201.36,34.26 -232.85,52.78C-233.85,53.37 -234.88,52.07 -234.08,51.23C-208.68,24.34 -89.61,-100.4 -46.39,-122.88C-42.02,-125.15 -37.11,-127.55 -31.8,-130.03L137.11,-100.66C137.11,-100.66 26.11,-88.66 0,-76.66" style="fill:rgb(219,215,211);fill-rule:nonzero;"/>
        </g>
        <g transform="matrix(1,0,0,1,1560.83,2131.95)">
            <path d="M0,102.07C30.76,85.61 138.11,28.54 199.64,0.87L261.63,-2.18L369.53,73.6C367.74,73.21 237.24,44.66 192.55,52.61C154.14,59.44 34.88,93.95 0.76,103.91C-0.4,104.25 -1.06,102.64 0,102.07" style="fill:rgb(219,215,211);fill-rule:nonzero;"/>
        </g>
        <g transform="matrix(1,0,0,1,1965.69,1998.05)">
            <path d="M0,281.51L-2.31,289.51L-0.27,299.24C-0.14,299.87 -0.63,300.45 -1.25,300.45L-1.3,300.45L-412.31,281.51C-412.31,281.51 -426.31,254.51 -445.31,254.51C-464.31,254.51 -477.44,285.51 -477.44,285.51L-478.29,285.52C-478.3,285.52 -478.3,285.52 -478.31,285.51L-493.32,285.76L-922.31,292.51L-922.31,281.51L-917.31,273.51L-920.31,267.51L-913.31,261.51L-914.03,254.51L-899.31,231.51L-905.31,224.51L-882.31,215.51L-887.42,208.3L-882.31,200.51C-882.31,200.51 -726.24,151.16 -651.31,142.51C-625.31,139.51 -441.31,243.51 -441.31,243.51C-441.31,243.51 -298.37,62.35 -201.31,11.51C-180.31,0.51 -62.71,-18.94 -62.71,-18.94L-57.31,-16.49C-57.31,-16.49 -151.68,17.09 -205.22,42.14C-210.53,44.62 -215.44,47.02 -219.81,49.29C-263.03,71.77 -382.1,196.51 -407.5,223.4C-408.3,224.24 -407.27,225.54 -406.27,224.95C-374.78,206.43 -228.84,120.98 -173.42,95.51C-147.31,83.51 -36.31,71.51 -36.31,71.51L-31.31,76.51C-31.31,76.51 -121.31,102.51 -178.31,123.51C-185.54,126.17 -194.71,130.04 -205.22,134.77C-266.75,162.44 -374.1,219.51 -404.86,235.97C-405.92,236.54 -405.26,238.15 -404.1,237.81C-369.98,227.85 -250.72,193.34 -212.31,186.51C-167.62,178.56 -37.12,207.11 -35.33,207.5L-35.31,207.51L-40.31,218.51L-24.31,230.51L-27.31,239.51L-17.31,252.51L-18.31,261.51L-11.86,272.13L0,281.51Z" style="fill:rgb(186,183,181);fill-rule:nonzero;"/>
        </g>
        <g transform="matrix(1,0,0,1,1972.23,2311.38)">
            <path d="M0,-12.51L-1,-1.27L-419.33,-19.76C-453.81,19.31 -487.85,-15.67 -487.85,-15.67L-938.38,-10.02L-938.38,-20.27L-499.86,-27.57L-484.83,-27.81C-450.84,3.17 -419.85,-31.82 -419.85,-31.82L-7.79,-12.87L0,-12.51Z" style="fill:rgb(26,93,71);fill-rule:nonzero;"/>
        </g>
        <g transform="matrix(1,0,0,1,1552.38,2287.55)">
            <path d="M0,-7.99C0,-7.99 -30.99,27 -64.98,-3.98L-64.13,-3.99C-64.13,-3.99 -51,-34.99 -32,-34.99C-13,-34.99 1,-7.99 1,-7.99L0,-7.99Z" style="fill:rgb(26,93,71);fill-rule:nonzero;"/>
        </g>
        <g transform="matrix(1,0,0,1,1137,2156.14)">
            <path d="M0,14.864C0,14.864 176.916,-32.797 200.958,-24.467C217.826,-18.622 296.347,23.213 341.708,47.661" style="fill:none;fill-rule:nonzero;stroke:rgb(155,151,154);stroke-width:2px;"/>
        </g>
        <g transform="matrix(1,0,0,1,1146.6,2168.19)">
            <path d="M0,-5.989C0,-5.989 174.882,-49.159 198.558,-41.72C225.824,-33.152 365.038,43.17 365.038,43.17" style="fill:none;fill-rule:nonzero;stroke:rgb(155,151,154);stroke-width:2px;"/>
        </g>
        <g transform="matrix(1,0,0,1,1267.76,2189.05)">
            <path d="M0,-58.362C38.661,-65.357 74.823,-70.577 84.596,-67.784C115.121,-59.061 244.217,12.215 244.217,12.215" style="fill:none;fill-rule:nonzero;stroke:rgb(155,151,154);stroke-width:2px;"/>
        </g>
        <g transform="matrix(1,0,0,1,1165.8,2141.15)">
            <path d="M0,3.449C0,3.449 170.914,-31.018 193.758,-25.082C217.038,-19.032 280.678,14.294 318.065,34.467" style="fill:none;fill-rule:nonzero;stroke:rgb(155,151,154);stroke-width:2px;"/>
        </g>
        <g transform="matrix(1,0,0,1,1175.4,2150.88)">
            <path d="M0,-15.079C0,-15.079 168.954,-45.29 191.358,-40.01C228.479,-31.261 337.26,30.211 337.26,30.211" style="fill:none;fill-rule:nonzero;stroke:rgb(155,151,154);stroke-width:2px;"/>
        </g>
        <g transform="matrix(1,0,0,1,1271.24,2159.75)">
            <path d="M0,-45.167C44.495,-51.083 91.734,-56.416 102.713,-54.081C143.162,-45.48 241.755,11.249 241.755,11.249" style="fill:none;fill-rule:nonzero;stroke:rgb(155,151,154);stroke-width:2px;"/>
        </g>
        <g transform="matrix(1,0,0,1,1538,1990.89)">
            <path d="M0,218.111C0,218.111 102,91.111 202,17.111C211.812,9.85 226.952,4.334 244.366,0" style="fill:none;fill-rule:nonzero;stroke:rgb(155,151,154);stroke-width:2px;"/>
        </g>
        <g transform="matrix(1,0,0,1,1537.33,1983.17)">
            <path d="M0,218.167C0,218.167 95.317,97.599 186,27C200.173,15.966 231.5,5.834 260.833,0" style="fill:none;fill-rule:nonzero;stroke:rgb(155,151,154);stroke-width:1.92px;"/>
        </g>
        <g transform="matrix(1,0,0,1,1536.67,1982.33)">
            <path d="M0,211.333C0,211.333 88.66,97.257 170,30C182.396,19.75 215,6.666 242.667,0" style="fill:none;fill-rule:nonzero;stroke:rgb(155,151,154);stroke-width:1.84px;"/>
        </g>
        <g transform="matrix(1,0,0,1,1536,1981.5)">
            <path d="M0,204.5C0,204.5 82.048,96.995 154,33C164.627,23.548 198.5,7.5 224.5,0" style="fill:none;fill-rule:nonzero;stroke:rgb(155,151,154);stroke-width:1.75px;"/>
        </g>
        <g transform="matrix(1,0,0,1,1535.33,1990.19)">
            <path d="M0,188.141C0,188.141 75.516,87.314 138,26.474C144.277,20.362 163.703,9.047 183.147,0" style="fill:none;fill-rule:nonzero;stroke:rgb(155,151,154);stroke-width:1.67px;"/>
        </g>
        <g transform="matrix(1,0,0,1,1534.67,1979.83)">
            <path d="M0,190.833C0,190.833 69.125,96.826 122,39C129.135,31.196 165.5,9.166 188.167,0" style="fill:none;fill-rule:nonzero;stroke:rgb(155,151,154);stroke-width:1.59px;"/>
        </g>
        <g transform="matrix(1,0,0,1,1534,1979)">
            <path d="M0,184C0,184 63,97 106,42C111.431,35.053 149,10 170,0" style="fill:none;fill-rule:nonzero;stroke:rgb(155,151,154);stroke-width:1.51px;"/>
        </g>
        <g transform="matrix(1,0,0,1,1589,2072.56)">
            <path d="M0,119.436C0,119.436 150.773,32.05 198,8.436C202,6.436 218.307,2.968 233.614,0" style="fill:none;fill-rule:nonzero;stroke:rgb(155,151,154);stroke-width:1.51px;"/>
        </g>
        <g transform="matrix(1,0,0,1,1608.17,2064.28)">
            <path d="M0,108.884C0,108.884 132.912,32.041 172.268,12.363C178.934,9.03 228.774,0 228.774,0" style="fill:none;fill-rule:nonzero;stroke:rgb(155,151,154);stroke-width:1.51px;"/>
        </g>
        <g transform="matrix(1,0,0,1,1627.33,2061.44)">
            <path d="M0,92.895C0,92.895 115.051,26.596 146.536,10.853C151.869,8.187 194.319,0 194.319,0" style="fill:none;fill-rule:nonzero;stroke:rgb(155,151,154);stroke-width:1.51px;"/>
        </g>
        <g transform="matrix(1,0,0,1,1646.5,2058.59)">
            <path d="M0,76.907C0,76.907 97.19,21.151 120.803,9.344C124.803,7.344 159.864,0 159.864,0" style="fill:none;fill-rule:nonzero;stroke:rgb(155,151,154);stroke-width:1.51px;"/>
        </g>
        <g transform="matrix(1,0,0,1,1665.67,2060.23)">
            <path d="M0,56.435C0,56.435 79.329,11.223 95.071,3.352C96.142,2.816 101.246,1.447 106.971,0" style="fill:none;fill-rule:nonzero;stroke:rgb(155,151,154);stroke-width:1.51px;"/>
        </g>
        <g transform="matrix(1,0,0,1,1684.83,2052.9)">
            <path d="M0,44.93C0,44.93 61.468,10.261 69.339,6.326C70.672,5.659 90.955,0 90.955,0" style="fill:none;fill-rule:nonzero;stroke:rgb(155,151,154);stroke-width:1.51px;"/>
        </g>
        <g transform="matrix(1,0,0,1,1704,2050.06)">
            <path d="M0,28.942L43.607,4.817L56.5,0" style="fill:none;fill-rule:nonzero;stroke:rgb(155,151,154);stroke-width:1.51px;"/>
        </g>
        <g transform="matrix(1,0,0,1,1850.64,2207.64)">
            <path d="M0,-26.303C-30.388,-30.666 -74.916,-36.261 -92.621,-34.471C-120.642,-31.637 -256.025,9.958 -256.025,9.958" style="fill:none;fill-rule:nonzero;stroke:rgb(155,151,154);stroke-width:1.51px;"/>
        </g>
        <g transform="matrix(1,0,0,1,1870.55,2191.83)">
            <path d="M0,-13.694C0,-13.694 -84.51,-26.625 -107.861,-24.264C-131.212,-21.903 -251.092,12.931 -251.092,12.931" style="fill:none;fill-rule:nonzero;stroke:rgb(155,151,154);stroke-width:1.51px;"/>
        </g>
        <g transform="matrix(1,0,0,1,1859.84,2181.73)">
            <path d="M0,-11.459C0,-11.459 -73.808,-21.654 -92.489,-19.765C-111.169,-17.876 -215.545,10.195 -215.545,10.195" style="fill:none;fill-rule:nonzero;stroke:rgb(155,151,154);stroke-width:1.51px;"/>
        </g>
        <g transform="matrix(1,0,0,1,1849.13,2171.62)">
            <path d="M0,-9.222C0,-9.222 -63.105,-16.682 -77.116,-15.265C-91.126,-13.848 -179.998,7.46 -179.998,7.46" style="fill:none;fill-rule:nonzero;stroke:rgb(155,151,154);stroke-width:1.51px;"/>
        </g>
        <g transform="matrix(1,0,0,1,1817,2163.72)">
            <path d="M0,-10.972C-15.637,-12.194 -34.994,-13.501 -40.325,-12.962C-49.665,-12.018 -123.033,2.529 -123.033,2.529" style="fill:none;fill-rule:nonzero;stroke:rgb(155,151,154);stroke-width:1.51px;"/>
        </g>
        <g transform="matrix(1,0,0,1,1827.71,2151.42)">
            <path d="M0,-4.752C0,-4.752 -41.7,-6.74 -46.37,-6.268C-51.041,-5.796 -108.905,1.988 -108.905,1.988" style="fill:none;fill-rule:nonzero;stroke:rgb(155,151,154);stroke-width:1.51px;"/>
        </g>
        <g transform="matrix(-0.999709,0.0241076,0.0241076,0.999709,1743.67,2141.46)">
            <path d="M-73.369,-0.884L0.011,-0.884" style="fill:none;fill-rule:nonzero;stroke:rgb(155,151,154);stroke-width:1.51px;"/>
        </g>
        <g opacity="0.3">
            <g transform="matrix(-0.993799,-0.111194,-0.111194,0.993799,1585.41,2217.06)">
                <path d="M-311.087,-34.306L-167.194,-34.306L-3.692,33.25C-3.692,33.25 -136.176,-15.292 -172.228,-21.061C-208.281,-26.829 -311.087,-34.306 -311.087,-34.306" style="fill:rgb(20,1,17);fill-rule:nonzero;"/>
            </g>
            <g transform="matrix(1,0,0,1,1748.17,2246.98)">
                <path d="M0,-20.945L190.213,-9.424L197.462,0L0,-20.945Z" style="fill:rgb(20,1,17);fill-rule:nonzero;"/>
            </g>
            <g transform="matrix(0.992947,0.118556,0.118556,-0.992947,1794.84,2227.05)">
                <path d="M-1.426,-9.696L155.285,-9.696L155.322,-14.193L162.985,-23.973L-1.426,-9.696Z" style="fill:rgb(20,1,17);fill-rule:nonzero;"/>
            </g>
            <g transform="matrix(1,0,0,1,1964.89,2253.32)">
                <path d="M0,29.027C0,29.027 -185.802,-3.915 -213.653,-6.339C-241.504,-8.763 -379.504,16.857 -379.504,16.857C-379.504,16.857 -222.504,2.237 -212.504,3.237C-202.504,4.237 0,37.79 0,37.79L0,29.027Z" style="fill:rgb(20,1,17);fill-rule:nonzero;"/>
            </g>
            <g transform="matrix(1,0,0,1,1898.38,2270.18)">
                <path d="M0,17.869L-139.47,0L-253,4.848L0,17.869Z" style="fill:rgb(20,1,17);fill-rule:nonzero;"/>
            </g>
            <g transform="matrix(0.121598,-0.992579,-0.992579,-0.121598,1373.96,2034.62)">
                <path d="M-188.9,-143.454C-188.9,-143.454 -139.036,8.739 -141.813,39.631C-144.59,70.522 -188.9,210.17 -188.9,210.17C-188.9,210.17 -154.157,69.35 -154.972,37.515C-155.788,5.679 -188.9,-143.454 -188.9,-143.454" style="fill:rgb(20,1,17);fill-rule:nonzero;"/>
            </g>
            <g transform="matrix(1,0,0,1,1503.38,2219.04)">
                <path d="M0,41.514C0,41.514 -130.872,-6.513 -197.936,-14L-13,45.514C-13,45.514 -152,11.514 -174,10.514C-196,9.514 -234.702,15.757 -234.702,15.757C-234.702,15.757 -188.192,14.417 -169.596,17.465C-151,20.514 -10,55.514 -10,55.514L0,41.514Z" style="fill:rgb(20,1,17);fill-rule:nonzero;"/>
            </g>
            <g transform="matrix(1,0,0,1,1239.58,2229.84)">
                <path d="M0,-28.277C0,-28.277 -75.1,-25.022 -102.65,-19.149C-130.2,-13.277 -161.312,0 -161.312,0C-161.312,0 -72.8,-21.277 0,-28.277" style="fill:rgb(20,1,17);fill-rule:nonzero;"/>
            </g>
            <g transform="matrix(1,0,0,1,1066.47,2223.12)">
                <path d="M0,16.438L96.315,-0.179L233.233,-7.424L99.958,6.715L-11.236,23.862L-6.485,16.438L0,16.438Z" style="fill:rgb(20,1,17);fill-rule:nonzero;"/>
            </g>
            <g transform="matrix(1,0,0,1,1237.71,2265.56)">
                <path d="M0,-34.219L-186.049,-13L-185.329,-6C-192.329,0 0,-34.219 0,-34.219" style="fill:rgb(20,1,17);fill-rule:nonzero;"/>
            </g>
            <g transform="matrix(1,0,0,1,1068.77,2248.56)">
                <path d="M0,21.62C0,21.62 122.106,3.915 149.362,1.957C176.617,0 257.617,0.915 277.617,1.957C297.617,3 399.83,21.62 399.83,21.62C399.83,21.62 283.83,12.412 262.724,11.706C241.617,11 143.577,11.214 143.577,11.214L0,21.62Z" style="fill:rgb(20,1,17);fill-rule:nonzero;"/>
            </g>
            <g transform="matrix(1,0,0,1,1408.65,2273.94)">
                <path d="M0,1.848L-185.833,-3.766L-339.885,5.614L0,1.848Z" style="fill:rgb(20,1,17);fill-rule:nonzero;"/>
            </g>
            <g transform="matrix(1,0,0,1,1535.57,2260.95)">
                <path d="M0,-2.792L58.732,-21.396L5.962,2.417L8.69,6.157L78.137,-10.438L145.817,-19.396L11.763,9.224L15.029,13.914L79.158,13.604L17.817,18.604L0,-2.792Z" style="fill:rgb(20,1,17);fill-rule:nonzero;"/>
            </g>
            <g transform="matrix(1,0,0,1,1902.98,2218.51)">
                <path d="M0,-235.013L-8.573,-237.951C-8.573,-237.951 -133.77,-196.968 -162.685,-180.46C-191.6,-163.952 -296.98,-65.172 -344.79,2.938C-344.79,2.938 -241.6,-114.532 -161.1,-171.742L0,-235.013Z" style="fill:rgb(20,1,17);fill-rule:nonzero;"/>
            </g>
            <g transform="matrix(-0.407504,-0.913204,-0.913204,0.407504,1598.44,2019.3)">
                <path d="M-180.756,-281.737C-180.756,-281.737 -162.628,-180.348 -161.303,-146.3C-158.679,-78.902 -180.756,121.843 -180.756,121.843C-180.756,121.843 -165.357,-93.471 -171.522,-146.129L-187.36,-284.265" style="fill:rgb(20,1,17);fill-rule:nonzero;"/>
            </g>
            <g transform="matrix(1,0,0,1,1552.38,2287.55)">
                <path d="M0,-7.99C0,-7.99 -30.99,27 -64.98,-3.98L-64.13,-3.99C-64.13,-3.99 -51,-34.99 -32,-34.99C-13,-34.99 1,-7.99 1,-7.99L0,-7.99Z" style="fill:rgb(20,1,17);fill-rule:nonzero;"/>
            </g>
            <g transform="matrix(0.972162,0.234309,0.234309,-0.972162,1505.31,2218.87)">
                <path d="M23.856,-17.589C23.515,-18.268 6.867,61.008 6.867,61.008L23.856,106.179C23.856,106.179 61.868,98.564 148.389,201.475C148.389,201.475 104.26,142.26 23.856,-17.589" style="fill:rgb(20,1,17);fill-rule:nonzero;"/>
            </g>
            <g transform="matrix(1,0,0,1,1755.06,2221.45)">
                <path d="M0,-179.856C0,-179.856 -19.294,-173.031 -33.679,-159.24C-48.063,-145.448 -196.87,0 -196.87,0L-3.063,-110.448C-3.063,-110.448 -9.084,-158.49 25.426,-177.469L0,-179.856Z" style="fill:rgb(20,1,17);fill-rule:nonzero;"/>
            </g>
            <g transform="matrix(1,0,0,1,1817.26,2234.02)">
                <path d="M0,-103.486L-53.286,-102.349L-249.345,0C-249.345,0 -86.315,-47.71 -56.785,-50.364C-56.785,-50.364 -37.606,-80.408 18.069,-95.213L0,-103.486Z" style="fill:rgb(20,1,17);fill-rule:nonzero;"/>
            </g>
            <g transform="matrix(1,0,0,1,1352.44,2241.56)">
                <path d="M0,-88.999L171.937,0L172.887,-71.028C172.887,-71.028 138.443,-36.438 0,-88.999" style="fill:rgb(20,1,17);fill-rule:nonzero;"/>
            </g>
        </g>
        <g transform="matrix(1,0,0,1,1472.37,2326.44)">
            <path d="M0,-42.63L-438.52,-35.33L-438.52,-25.08L12.01,-30.73C12.01,-30.73 46.05,4.25 80.53,-34.82L498.86,-16.33L499.86,-27.57L492.07,-27.93L80.01,-46.88C80.01,-46.88 49.02,-11.89 15.03,-42.87C15.02,-42.87 15.02,-42.87 15.01,-42.88L0,-42.63Z" style="fill:none;fill-rule:nonzero;stroke:black;stroke-width:6px;"/>
        </g>
        <g transform="matrix(1,0,0,1,1930.38,2072.05)">
            <path d="M0,133.51L-5,144.51L11,156.51L8,165.51L18,178.51L17,187.51L23.45,198.13L35.31,207.51L33,215.51L35.04,225.24C35.17,225.87 34.68,226.45 34.06,226.45C34.04,226.45 -377,207.51 -377,207.51C-377,207.51 -391,180.51 -410,180.51C-429,180.51 -442.13,211.51 -442.13,211.51L-442.98,211.52L-458.01,211.76L-887,218.51L-887,207.51L-882,199.51L-885,193.51L-878,187.51L-878.72,180.51L-864,157.51L-870,150.51L-847,141.51L-852.11,134.3L-847,126.51C-847,126.51 -690.93,77.16 -616,68.51C-590,65.51 -406,169.51 -406,169.51C-406,169.51 -263.06,-11.65 -166,-62.49C-145,-73.49 -27.4,-92.94 -27.4,-92.94L-22,-90.49C-22,-90.49 -116.37,-56.91 -169.91,-31.86C-175.22,-29.38 -180.13,-26.98 -184.5,-24.71C-227.72,-2.23 -346.79,122.51 -372.19,149.4C-372.99,150.24 -371.96,151.54 -370.96,150.95C-339.47,132.43 -193.53,46.98 -138.11,21.51C-112,9.51 -1,-2.49 -1,-2.49L4,2.51C4,2.51 -86,28.51 -143,49.51C-150.23,52.17 -159.4,56.04 -169.91,60.77C-231.44,88.44 -338.79,145.51 -369.55,161.97C-370.61,162.54 -369.95,164.15 -368.79,163.81C-334.67,153.85 -215.41,119.34 -177,112.51C-132.31,104.56 -1.81,133.11 -0.02,133.5" style="fill:none;fill-rule:nonzero;stroke:black;stroke-width:6px;"/>
        </g>
        <g transform="matrix(1,0,0,1,1083.38,1968.3)">
            <path d="M0,230.26L97.14,149.19C97.14,149.19 257.58,123.35 288.6,125.02C319.62,126.7 442.9,192.87 442.9,192.87C442.9,192.87 525.15,69.82 549.39,45.26C573.62,20.7 620.82,0 620.82,0L819.6,10.81" style="fill:none;fill-rule:nonzero;stroke:black;stroke-width:6px;"/>
        </g>
        <g transform="matrix(-0.985217,-0.171309,-0.171309,0.985217,1764.23,2025.94)">
            <path d="M-170.177,14.685L1.267,14.685" style="fill:none;fill-rule:nonzero;stroke:black;stroke-width:6px;"/>
        </g>
        <g transform="matrix(1,0,0,1,1930.38,2129.77)">
            <path d="M0,75.79L-0.02,75.78L-107.92,0L-169.91,3.05" style="fill:none;fill-rule:nonzero;stroke:black;stroke-width:6px;"/>
        </g>
        <g transform="matrix(-0.0236282,0.999721,0.999721,0.0236282,1565.49,2203.26)">
            <path d="M-41.156,-40.195L39.256,-40.195" style="fill:none;fill-rule:nonzero;stroke:black;stroke-width:6px;"/>
        </g>
    </g>
</svg>
