<?xml version="1.0" encoding="UTF-8" standalone="no"?>
<svg
   width="100%"
   height="100%"
   viewBox="0 0 77 75"
   version="1.1"
   xml:space="preserve"
   style="fill-rule:evenodd;clip-rule:evenodd;stroke-linejoin:round;stroke-miterlimit:2;"
   id="svg188"
   sodipodi:docname="ã‚_1.svg"
   inkscape:version="1.2.2 (b0a84865, 2022-12-01)"
   xmlns:inkscape="http://www.inkscape.org/namespaces/inkscape"
   xmlns:sodipodi="http://sodipodi.sourceforge.net/DTD/sodipodi-0.dtd"
   xmlns="http://www.w3.org/2000/svg"
   xmlns:svg="http://www.w3.org/2000/svg"><defs
   id="defs192" /><sodipodi:namedview
   id="namedview190"
   pagecolor="#ffffff"
   bordercolor="#000000"
   borderopacity="0.25"
   inkscape:showpageshadow="2"
   inkscape:pageopacity="0.0"
   inkscape:pagecheckerboard="0"
   inkscape:deskcolor="#d1d1d1"
   showgrid="false"
   inkscape:zoom="3.5170244"
   inkscape:cx="24.025992"
   inkscape:cy="62.83721"
   inkscape:window-width="1302"
   inkscape:window-height="774"
   inkscape:window-x="146"
   inkscape:window-y="1033"
   inkscape:window-maximized="0"
   inkscape:current-layer="svg188" />
    
<path
   d="m 27.98,0.998 c -5.142,0.293 -5.736,2.314 0.008,4.842 2.355,1.037 4.064,2.709 4.064,3.977 0,1.203 -0.336,2.049 -0.746,1.877 -0.41,-0.172 -1.535,0.317 -2.5,1.088 -1.647,1.316 -2.978,1.371 -7.275,0.293 -1.139,-0.286 -2.086,1.001 -2.654,3.611 -0.486,2.23 -1.531,4.835 -2.321,5.787 -1.505,1.814 0.085,8.304 2.026,8.266 1.634,-0.033 3.445,-1.759 3.912,-3.731 0.837,-3.534 1.24,-5.628 1.336,-6.931 0.052,-0.718 2.278,-1.888 4.947,-2.6 l 4.852,-1.295 0.763,6.352 c 0.42,3.492 0.768,8.123 0.774,10.291 0.012,4.341 1.993,3.453 -26.01,11.66 -9.775,2.864 -10.967,4.811 -4.147,6.767 3.177,0.911 5.119,0.61 9.279,-1.437 5.251,-2.584 17.545,-6.555 20.293,-6.555 0.798,0 2.136,2.292 2.975,5.092 1.482,4.946 1.398,5.246 -2.947,10.549 -5.265,6.425 -8.706,7.909 -11.812,5.097 -1.21,-1.094 -2.576,-1.614 -3.035,-1.154 -1.086,1.085 -1.089,9.753 -0.004,10.838 2.666,2.666 9.405,-0.863 16.855,-8.828 l 5.734,-6.129 4.481,4.106 c 4.691,4.299 9.55,6.203 12.727,4.984 3.242,-1.244 2.057,-4.405 -2.811,-7.498 -2.579,-1.638 -5.773,-4.193 -7.1,-5.676 C 47.25,51.964 47.26,51.888 51.26,43.852 l 4.027,-8.092 h 6.154 c 5.084,0 6.426,0.489 7.721,2.813 2.539,4.558 1.849,17.233 -1.342,24.65 -3.093,7.19 -2.726,9.142 1.074,5.703 6.898,-6.243 9.84,-22.742 5.785,-32.445 -1.935,-4.632 -8.438,-7.705 -14.039,-6.635 -2.488,0.476 -2.938,0.191 -2.265,-1.435 2.113,-5.105 1.991,-6.673 -0.75,-9.59 -1.584,-1.686 -4.188,-3.065 -5.787,-3.065 -3.141,0 -3.702,1.206 -1.559,3.35 0.85,0.85 1.025,3.523 0.471,7.217 -0.697,4.648 -1.514,6.108 -3.932,7.027 -1.678,0.638 -3.578,1.16 -4.22,1.16 -0.643,0 -1.17,-4.941 -1.17,-10.98 0,-10.91 0.021,-10.98 3.238,-11.246 1.78,-0.147 3.889,-0.676 4.687,-1.175 1.509,-0.944 3.246,-1.396 8.036,-2.098 2.872,-0.421 3.451,0.62 4.318,7.748 l 0.35,2.877 4.339,-3.215 C 72.704,11.749 73.511,9.705 70.035,7.208 65.67,4.072 63.575,3.49 60.621,4.593 59.144,5.144 55.57,5.949 52.68,6.38 c -2.891,0.431 -6.603,1.297 -8.252,1.924 -2.738,1.041 -3,0.824 -3,-2.49 0,-3.461 -0.319,-3.67 -6.856,-4.487 C 31.913,0.995 29.694,0.902 27.98,0.999 Z m 17.01,38.555 c 0.349,-0.06 0.711,0.041 1.033,0.363 0.361,0.362 0.127,1.604 -0.521,2.762 -1.053,1.881 -1.26,1.896 -1.936,0.135 -0.557,-1.451 0.377,-3.08 1.424,-3.26 z"
   style="fill:#800000;fill-rule:nonzero"
   id="path2622" /></svg>
