<?xml version="1.0" encoding="UTF-8" standalone="no"?>
<svg
   width="100%"
   height="100%"
   viewBox="0 0 93 92"
   version="1.1"
   xml:space="preserve"
   style="fill-rule:evenodd;clip-rule:evenodd;stroke-linejoin:round;stroke-miterlimit:2;"
   id="svg7566"
   sodipodi:docname="ã‚_2.svg"
   inkscape:version="1.2.2 (b0a84865, 2022-12-01)"
   xmlns:inkscape="http://www.inkscape.org/namespaces/inkscape"
   xmlns:sodipodi="http://sodipodi.sourceforge.net/DTD/sodipodi-0.dtd"
   xmlns="http://www.w3.org/2000/svg"
   xmlns:svg="http://www.w3.org/2000/svg"><defs
   id="defs7570" /><sodipodi:namedview
   id="namedview7568"
   pagecolor="#ffffff"
   bordercolor="#000000"
   borderopacity="0.25"
   inkscape:showpageshadow="2"
   inkscape:pageopacity="0.0"
   inkscape:pagecheckerboard="0"
   inkscape:deskcolor="#d1d1d1"
   showgrid="false"
   inkscape:zoom="2.5652174"
   inkscape:cx="30.016949"
   inkscape:cy="48.728814"
   inkscape:window-width="1441"
   inkscape:window-height="646"
   inkscape:window-x="0"
   inkscape:window-y="38"
   inkscape:window-maximized="0"
   inkscape:current-layer="svg7566" />
    <g
   transform="matrix(1,0,0,1,-185,-292)"
   id="g7564">
        
        
        <g
   transform="matrix(1.2502,0,0,1.2502,21.431,298.58)"
   id="g7562">
            <path
   d="m 163.07,-4.113 c -0.455,0.196 -0.567,0.679 -0.567,1.549 0,1.112 1.591,3.419 3.535,5.126 4.656,4.088 7.466,4.135 7.466,0.127 0,-3.358 -2.639,-5.602 -7.803,-6.635 -1.377,-0.276 -2.176,-0.364 -2.631,-0.167 z M 185.682,7.8 c -3.554,-0.004 -9.004,0.815 -18.752,2.455 -14.111,2.373 -15.533,2.455 -16.999,0.99 -1.829,-1.829 -3.439,-1.252 -3.435,1.23 0.002,0.93 -0.94,3.491 -2.092,5.691 -1.731,3.306 -1.905,4.489 -1,6.822 1.645,4.243 4.243,3.076 6.379,-2.865 l 1.802,-5.018 10.205,-2.231 c 5.612,-1.227 13.043,-2.517 16.513,-2.868 l 6.31,-0.637 -2.248,4.627 c -1.236,2.545 -2.01,4.864 -1.718,5.155 0.725,0.725 15.846,-6.333 15.846,-7.397 0,-0.468 -1.546,-2.029 -3.434,-3.47 -2.167,-1.652 -3.823,-2.48 -7.377,-2.484 z m -24.383,12.262 c -0.846,0.129 -1.232,1.036 -1.069,2.709 0.129,1.318 -0.37,4.42 -1.107,6.895 l -1.342,4.5 -7.393,1.188 c -4.066,0.653 -9.416,1.222 -11.892,1.265 -2.475,0.043 -5.175,0.528 -6,1.081 -1.281,0.858 -1.154,1.296 0.86,2.986 2.922,2.45 4.712,2.446 14.059,-0.039 7.491,-1.992 9.431,-1.93 7.265,0.235 -0.651,0.651 -1.184,2.244 -1.184,3.539 0,1.883 1.004,2.773 5.001,4.434 2.75,1.142 4.999,2.424 4.999,2.846 0,1.077 -5.464,4.148 -12.248,6.882 -3.163,1.274 -5.751,2.712 -5.751,3.198 0,2.91 16.176,-0.639 20.72,-4.548 l 2.751,-2.368 2.754,1.962 c 1.515,1.078 5.093,3.958 7.954,6.4 8.21,7.009 12.285,5.439 8.205,-3.16 -1.257,-2.648 -3.103,-4.093 -8.333,-6.516 l -6.719,-3.114 3.085,-7.269 c 3.068,-7.229 3.108,-7.274 7.403,-7.772 2.376,-0.276 8.114,-0.264 12.75,0.025 7.214,0.45 8.43,0.3 8.43,-1.042 0,-2.237 -4.798,-5.713 -7.884,-5.712 -1.439,10e-4 -5.991,0.647 -10.116,1.438 -4.673,0.895 -7.856,1.082 -8.447,0.498 -1.576,-1.556 -6.553,-1.129 -6.553,0.562 0,0.825 -0.787,1.506 -1.749,1.514 -0.963,0.008 -2.786,0.291 -4.051,0.63 l -2.298,0.617 2.291,-4.723 2.295,-4.721 -2.854,-2.456 c -1.678,-1.443 -2.984,-2.092 -3.83,-1.964 z m 8.07,16.647 c 0.975,-0.092 1.618,-0.071 2.006,0.101 0.775,0.344 0.536,1.286 -0.088,3.106 -0.612,1.787 -1.768,4.263 -2.565,5.501 -1.657,2.572 -1.618,2.568 -5.969,0.665 -3.564,-1.558 -3.783,-2.15 -2.14,-5.755 0.776,-1.704 2.202,-2.614 4.75,-3.036 1.723,-0.285 3.031,-0.491 4.006,-0.582 z"
   style="fill:#ff0000;fill-rule:nonzero"
   id="path7560"
   sodipodi:nodetypes="cscsccsccccccccccccscsccccccccccscscsccccccccccscccssccccccccccccccc" />
        </g>
    </g>
</svg>
