<?xml version="1.0" encoding="UTF-8" standalone="no"?>
<svg
   width="100%"
   height="100%"
   viewBox="0 0 67 84"
   version="1.1"
   xml:space="preserve"
   style="fill-rule:evenodd;clip-rule:evenodd;stroke-linejoin:round;stroke-miterlimit:2;"
   id="svg2660"
   sodipodi:docname="ã‚_0.svg"
   inkscape:version="1.2.2 (b0a84865, 2022-12-01)"
   xmlns:inkscape="http://www.inkscape.org/namespaces/inkscape"
   xmlns:sodipodi="http://sodipodi.sourceforge.net/DTD/sodipodi-0.dtd"
   xmlns="http://www.w3.org/2000/svg"
   xmlns:svg="http://www.w3.org/2000/svg"><defs
   id="defs2664" /><sodipodi:namedview
   id="namedview2662"
   pagecolor="#ffffff"
   bordercolor="#000000"
   borderopacity="0.25"
   inkscape:showpageshadow="2"
   inkscape:pageopacity="0.0"
   inkscape:pagecheckerboard="0"
   inkscape:deskcolor="#d1d1d1"
   showgrid="false"
   showguides="true"
   inkscape:zoom="2.8095238"
   inkscape:cx="17.974576"
   inkscape:cy="44.135593"
   inkscape:window-width="1408"
   inkscape:window-height="622"
   inkscape:window-x="0"
   inkscape:window-y="1062"
   inkscape:window-maximized="0"
   inkscape:current-layer="svg2660" />
    
<path
   d="m 25.629,1.49 c -0.644,0.654 -0.105,2.205 1.877,4.387 2.261,2.489 2.332,3.256 0.893,9.689 -1.545,6.901 -1.62,6.986 -6.073,6.986 -2.479,0 -6.584,-1.112 -9.121,-2.472 -2.916,-1.563 -4.903,-2.003 -5.402,-1.196 -1.92,3.107 7.204,8.668 14.221,8.668 3.577,0 3.61,0.069 2.658,5.276 -0.53,2.901 -1.593,5.484 -2.361,5.74 -0.769,0.256 -4.053,2.242 -7.299,4.414 C 3.24,50.867 -2.809,67.608 3.368,75.236 c 3.744,4.624 11.961,4.117 19.357,-1.195 4.791,-3.441 5.9,-3.813 6.523,-2.188 0.861,2.243 4.923,2.629 6.184,0.588 0.466,-0.753 0.123,-2.721 -0.762,-4.375 -1.445,-2.7 -1.2,-3.577 2.406,-8.599 2.209,-3.076 5.44,-8.703 7.18,-12.502 1.74,-3.8 3.43,-6.909 3.758,-6.909 2.413,0 8.268,4.443 9.828,7.459 5.606,10.841 -1.955,24.598 -16.514,30.045 -3.678,1.377 -7.793,2.502 -9.143,2.502 -1.44,0 -2.453,0.848 -2.453,2.051 0,3.058 12.28,1.464 20.785,-2.697 7.891,-3.861 12.825,-9.761 14.857,-17.766 2.9,-11.419 -1.048,-20.4 -10.775,-24.51 -3.362,-1.421 -6.113,-3.274 -6.113,-4.119 0,-1.974 -6.208,-6.892 -7.607,-6.028 -0.585,0.362 -0.73,2.324 -0.323,4.36 0.691,3.454 0.485,3.701 -3.064,3.701 -2.093,0 -4.645,0.323 -5.672,0.717 -1.586,0.609 -1.679,-0.029 -0.613,-4.227 1.197,-4.717 1.558,-5.003 7.9,-6.277 10.298,-2.068 15.629,-4.679 15.629,-7.653 0,-3.348 -2.143,-3.259 -12.629,0.524 l -8.556,3.086 2.503,-6.352 C 38.931,7.574 38.412,6.34 30.849,2.481 28.1,1.078 26.273,0.835 25.629,1.489 Z m 13.535,38.848 c 0.395,0.395 -0.68,3.448 -2.391,6.783 -1.71,3.334 -3.948,7.18 -4.972,8.547 -1.785,2.38 -1.899,2.297 -2.703,-1.991 -0.462,-2.461 -0.652,-6.111 -0.424,-8.111 0.346,-3.035 1.185,-3.826 5.092,-4.791 2.573,-0.635 5.003,-0.833 5.398,-0.437 z m -17.166,4.718 c 0.938,0 1.465,2.419 1.465,6.721 0,3.696 0.334,8.39 0.742,10.432 0.657,3.287 0.126,4.166 -4.623,7.658 -6.452,4.745 -9.456,4.976 -11.326,0.871 -2.221,-4.874 0.903,-13.811 7.086,-20.264 2.855,-2.979 5.851,-5.418 6.656,-5.418 z"
   style="fill-rule:nonzero"
   id="path3156" /></svg>
