<?xml version="1.0" encoding="UTF-8" standalone="no"?>
<svg
   width="100%"
   height="100%"
   viewBox="0 0 76 67"
   version="1.1"
   xml:space="preserve"
   style="fill-rule:evenodd;clip-rule:evenodd;stroke-linejoin:round;stroke-miterlimit:2;"
   id="svg4932"
   sodipodi:docname="ã„_2.svg"
   inkscape:version="1.2.2 (b0a84865, 2022-12-01)"
   xmlns:inkscape="http://www.inkscape.org/namespaces/inkscape"
   xmlns:sodipodi="http://sodipodi.sourceforge.net/DTD/sodipodi-0.dtd"
   xmlns="http://www.w3.org/2000/svg"
   xmlns:svg="http://www.w3.org/2000/svg"><defs
   id="defs4936" /><sodipodi:namedview
   id="namedview4934"
   pagecolor="#ffffff"
   bordercolor="#000000"
   borderopacity="0.25"
   inkscape:showpageshadow="2"
   inkscape:pageopacity="0.0"
   inkscape:pagecheckerboard="0"
   inkscape:deskcolor="#d1d1d1"
   showgrid="false"
   inkscape:zoom="3.5223881"
   inkscape:cx="23.563559"
   inkscape:cy="33.641949"
   inkscape:current-layer="svg4932" />
    <g
   transform="matrix(1,0,0,1,-488,-310)"
   id="g4930">
        
        
        <g
   transform="matrix(1.2502,0,0,1.2502,21.431,298.58)"
   id="g4928">
            <path
   d="m 421.442,9.666 c -1.72,0 -1.943,0.726 -1.943,6.289 0,17.306 -7.807,31.392 -23.187,41.837 -3.197,2.171 -5.812,4.215 -5.812,4.54 0,0.325 1.733,0.311 3.853,-0.028 5.093,-0.814 12.461,-5.016 17.852,-10.181 l 4.361,-4.179 6.823,7.522 c 7.27,8.018 10.109,8.989 10.109,3.454 0,-4.002 -2.194,-6.632 -9.066,-10.875 -4.537,-2.8 -5.841,-4.105 -5.299,-5.297 0.395,-0.87 2.747,-7.609 5.227,-14.974 l 4.509,-13.393 -2.742,-2.358 c -1.508,-1.296 -3.616,-2.357 -4.685,-2.357 z m -24.093,3.999 c -3.933,0 -3.577,1.565 1.398,6.14 4.856,4.465 8.25,4.835 8.25,0.9 0,-3.031 -5.495,-7.04 -9.648,-7.04 z m -21.35,7.279 c -2.423,-0.193 -2.517,1.627 -0.422,5.647 1.916,3.676 2.128,5.284 1.669,12.651 -0.33,5.288 -1.129,9.356 -2.138,10.897 -2.065,3.152 -2.048,6.385 0.046,8.699 2.382,2.633 3.02,2.357 6.614,-2.851 1.777,-2.574 6.719,-9.094 10.981,-14.49 7.282,-9.219 8.821,-11.831 6.974,-11.831 -0.426,0 -4.139,3.389 -8.25,7.531 l -7.474,7.532 -0.5,-10.745 -0.5,-10.742 -3.797,-1.442 c -1.331,-0.505 -2.395,-0.792 -3.203,-0.856 z"
   style="fill:#ff0000;fill-rule:nonzero"
   id="path4926"
   sodipodi:nodetypes="sscsccccscccccsscsscccccccscccccc" />
        </g>
    </g>
</svg>
