<?xml version="1.0" encoding="UTF-8" standalone="no"?>
<svg
   width="100%"
   height="100%"
   viewBox="0 0 74 80"
   version="1.1"
   xml:space="preserve"
   style="fill-rule:evenodd;clip-rule:evenodd;stroke-linejoin:round;stroke-miterlimit:2;"
   id="svg5936"
   sodipodi:docname="いい_1.svg"
   inkscape:version="1.2.2 (b0a84865, 2022-12-01)"
   xmlns:inkscape="http://www.inkscape.org/namespaces/inkscape"
   xmlns:sodipodi="http://sodipodi.sourceforge.net/DTD/sodipodi-0.dtd"
   xmlns="http://www.w3.org/2000/svg"
   xmlns:svg="http://www.w3.org/2000/svg"><defs
   id="defs5940" /><sodipodi:namedview
   id="namedview5938"
   pagecolor="#ffffff"
   bordercolor="#000000"
   borderopacity="0.25"
   inkscape:showpageshadow="2"
   inkscape:pageopacity="0.0"
   inkscape:pagecheckerboard="0"
   inkscape:deskcolor="#d1d1d1"
   showgrid="false"
   inkscape:zoom="2.95"
   inkscape:cx="19.661017"
   inkscape:cy="40.169492"
   inkscape:current-layer="svg5936" />
    <g
   transform="matrix(1,0,0,1,-397,-1249)"
   id="g5934">
        
        <path
   d="m 457.734,1249.68 c -1.919,-0.06 -2.156,1.48 0.81,4.69 5.137,5.56 5.237,7.44 0.444,8.34 -4.711,0.88 -6.358,2.43 -7.526,7.09 -0.615,2.44 0.014,4.21 2.592,7.27 3.252,3.87 3.34,4.32 1.969,10.27 -2.629,11.38 -7.729,19.95 -17.973,30.19 -5.353,5.35 -9.733,10 -9.733,10.32 0,2 5.818,-0.15 12.521,-4.63 11.589,-7.74 19.138,-21.33 20.828,-37.5 0.673,-6.43 0.406,-7.93 -1.992,-11.18 -3.628,-4.91 -2.938,-6.39 3.731,-8.01 4.29,-1.05 5.791,-2.11 6.718,-4.75 1.059,-3.01 0.706,-3.81 -3.115,-7.11 -3.757,-3.24 -7.357,-4.92 -9.275,-4.99 z m -57.62,4.22 c -1.612,0.62 -1.465,1.33 0.955,4.61 2.66,3.6 2.838,4.9 2.465,18.14 -0.46,16.32 1.689,26.3 6.753,31.37 4.718,4.72 7.378,3.45 7.508,-3.58 0.086,-4.63 1.187,-7.49 5.313,-13.83 2.863,-4.39 5.205,-8.65 5.205,-9.46 0,-3.35 -3.489,-0.87 -9.375,6.66 -3.438,4.4 -6.813,7.84 -7.498,7.64 -1.73,-0.49 -3.119,-9.25 -2.307,-14.53 0.371,-2.4 1.455,-7.12 2.41,-10.49 1.4,-4.92 1.437,-6.73 0.19,-9.31 -1.855,-3.83 -8.95,-8.25 -11.619,-7.22 z"
   style="fill:#800000;fill-rule:nonzero"
   id="path5928"
   sodipodi:nodetypes="cccccccsccccccccccccccscccccc" />
        
    </g>
</svg>
