<?xml version="1.0" encoding="UTF-8" standalone="no"?><!DOCTYPE svg PUBLIC "-//W3C//DTD SVG 1.1//EN" "http://www.w3.org/Graphics/SVG/1.1/DTD/svg11.dtd"><svg width="100%" height="100%" viewBox="0 0 80 94" version="1.1" xmlns="http://www.w3.org/2000/svg" xmlns:xlink="http://www.w3.org/1999/xlink" xml:space="preserve" xmlns:serif="http://www.serif.com/" style="fill-rule:evenodd;clip-rule:evenodd;stroke-linejoin:round;stroke-miterlimit:2;"><g><g><path d="M31.092,0.411c-4.669,-0 -3.924,2.906 2.06,8.028c7.485,6.406 12.05,5.859 10.27,-1.23c-0.899,-3.583 -6.731,-6.798 -12.33,-6.798Zm33.308,12.238c-5.308,0.079 -13.861,1.302 -29.68,3.734c-22.303,3.427 -22.612,3.442 -24.47,1.04c-2.234,-2.888 -4.813,-1.757 -4.853,2.128c-0.015,1.507 -1.13,4.146 -2.476,5.865c-2.753,3.52 -3.271,9.98 -0.984,12.268c2.426,2.424 3.944,1.115 6.611,-5.7l2.501,-6.388l16.813,-3.252c19.729,-3.818 35.071,-5.372 35.071,-3.55c0,0.685 -0.627,3.049 -1.394,5.249c-0.767,2.2 -1.083,4.311 -0.703,4.691c0.38,0.381 3.679,-0.71 7.332,-2.428c3.653,-1.717 7.626,-3.447 8.83,-3.843c3.291,-1.084 2.673,-2.803 -2.403,-6.674c-2.823,-2.153 -4.884,-3.22 -10.193,-3.14l-0.002,-0Zm-17.794,16.841c-2.591,0.157 -6.274,0.644 -11.402,1.48c-7.784,1.269 -14.887,2.688 -15.791,3.157c-2.879,1.492 1.804,4.132 7.333,4.132c5.671,0 7.855,2.474 7.199,8.159c-0.386,3.354 -0.489,3.387 -15.705,5.1c-11.082,1.247 -15.316,2.186 -15.316,3.394c-0,3.369 4.222,4.103 13.797,2.399c5.133,-0.914 11.443,-1.959 14.021,-2.323l4.688,-0.663l-0.125,9.612c-0.194,14.867 -0.684,15.84 -8.062,15.969c-3.405,0.06 -6.19,0.672 -6.19,1.36c-0,0.686 2.705,3.592 6.013,6.455c3.308,2.863 6.572,5.207 7.25,5.207c0.679,-0 2.58,-1.452 4.224,-3.226c3.525,-3.803 4.809,-11.705 4.189,-25.778l-0.423,-9.56l13.127,-0.806c17.232,-1.058 17.79,-1.28 13.194,-5.254c-3.868,-3.345 -5.166,-3.399 -21.322,-0.908l-5,0.77l-1.341,-5.782c-1.311,-5.644 -1.264,-5.796 1.876,-6.501c8.842,-1.988 10.262,-2.461 10.481,-3.474c0.13,-0.602 -0.712,-1.69 -1.868,-2.42c-0.762,-0.48 -2.259,-0.654 -4.85,-0.498l0.003,-0.002l-0,0.001Z" style="fill:#f00;fill-rule:nonzero;"/></g></g></svg>