<?xml version="1.0" encoding="UTF-8" standalone="no"?><!DOCTYPE svg PUBLIC "-//W3C//DTD SVG 1.1//EN" "http://www.w3.org/Graphics/SVG/1.1/DTD/svg11.dtd"><svg width="100%" height="100%" viewBox="0 0 46 75" version="1.1" xmlns="http://www.w3.org/2000/svg" xmlns:xlink="http://www.w3.org/1999/xlink" xml:space="preserve" xmlns:serif="http://www.serif.com/" style="fill-rule:evenodd;clip-rule:evenodd;stroke-linejoin:round;stroke-miterlimit:2;"><g><path d="M12.179,0.65c-3.034,-0.558 -2.959,2.71 1.74,6.664c2.116,1.78 4.735,3.239 5.821,3.239c1.762,-0 1.75,0.243 -0.098,2.285c-1.138,1.257 -2.069,2.663 -2.069,3.125c-0,1.319 2.207,0.996 7.069,-1.035c2.468,-1.032 6.671,-1.875 9.338,-1.875c3.879,-0 4.847,-0.462 4.847,-2.307c-0,-4.323 -3.883,-6.319 -12.066,-6.203c-5.202,0.074 -8.573,-0.547 -10.566,-1.944c-1.646,-1.153 -3.004,-1.763 -4.015,-1.949l-0.001,-0Zm18.105,21.979c-3.906,0.095 -10.425,1.354 -14.486,2.798c-9.071,3.227 -9.045,3.227 -9.889,0c-0.377,-1.444 -1.232,-2.288 -1.898,-1.877c-2.126,1.315 -3.658,7.526 -2.576,10.449c1.452,3.927 6.015,3.611 13.145,-0.91c3.223,-2.044 7.805,-4.358 10.182,-5.142c3.724,-1.23 4.772,-1.089 7.594,1.017c10.875,8.12 2.1,31.622 -15.307,40.996c-2.472,1.331 -4.493,2.928 -4.493,3.549c0,2.322 8.938,-0.437 15.477,-4.777c12.63,-8.384 19.307,-22.418 16.736,-35.182c-1.598,-7.937 -5.837,-11.133 -14.484,-10.922l-0.001,0.001Z" style="fill-rule:nonzero;"/></g></svg>