<?xml version="1.0" encoding="UTF-8" standalone="no"?><!DOCTYPE svg PUBLIC "-//W3C//DTD SVG 1.1//EN" "http://www.w3.org/Graphics/SVG/1.1/DTD/svg11.dtd"><svg width="100%" height="100%" viewBox="0 0 66 84" version="1.1" xmlns="http://www.w3.org/2000/svg" xmlns:xlink="http://www.w3.org/1999/xlink" xml:space="preserve" xmlns:serif="http://www.serif.com/" style="fill-rule:evenodd;clip-rule:evenodd;stroke-linejoin:round;stroke-miterlimit:2;"><g><path d="M25.21,0.35c-3.165,0.293 -6.047,0.822 -6.402,1.178c-0.792,0.791 5.209,5.459 6.217,4.836c0.395,-0.245 1.536,0.073 2.535,0.705c5.064,3.203 9.245,-0.431 5.511,-4.791c-1.685,-1.968 -3.259,-2.354 -7.861,-1.928Zm28.05,9.717c-4.322,-0.632 -8.936,1.038 -18.037,5.846c-5.044,2.664 -9.926,4.843 -10.85,4.843c-0.924,-0 -2.664,0.986 -3.867,2.19c-1.203,1.203 -2.228,1.982 -2.277,1.732c-0.243,-1.23 -15.717,6.901 -15.717,8.258c-0,0.865 1.406,1.574 3.125,1.574c1.719,-0 3.125,-0.596 3.125,-1.324c-0,-0.728 0.523,-1.001 1.164,-0.606c0.64,0.396 1.521,0.143 1.957,-0.562c0.843,-1.364 23.135,-12.686 23.135,-11.75c0,0.304 1.827,-0.423 4.062,-1.615c2.235,-1.192 4.344,-2.199 4.688,-2.239c0.343,-0.039 1.33,-0.518 2.189,-1.064c1.606,-1.016 2.113,1.478 1.592,7.734c-0.269,3.219 1.066,2.926 5.596,-1.232c1.375,-1.262 4.041,-3.632 5.923,-5.264l3.424,-2.966l-4.851,-2.188c-1.532,-0.691 -2.94,-1.157 -4.381,-1.367Zm-15.65,15.754c-1.383,-0.247 -2.596,0.104 -2.596,1.24c0,0.717 -2.58,4.062 -5.732,7.432c-3.436,3.672 -5.558,7.026 -5.299,8.373c0.238,1.235 3.1,3.513 6.358,5.06c3.29,1.562 5.923,3.669 5.923,4.74c0,3.658 -6.476,14.696 -12.232,20.85c-4.648,4.969 -5.419,6.393 -3.959,7.317c5.393,3.411 9.552,0.344 16.67,-12.287c8.458,-15.01 8.279,-19.695 -0.949,-24.664c-2.492,-1.342 -4.531,-2.839 -4.531,-3.326c0,-0.488 2.224,-2.135 4.943,-3.663c5.637,-3.168 6.851,-5.283 5.01,-8.724c-0.672,-1.256 -2.223,-2.101 -3.605,-2.348l-0.001,0Z" style="fill:#800000;fill-rule:nonzero;"/></g></svg>