<?xml version="1.0" encoding="UTF-8" standalone="no"?><!DOCTYPE svg PUBLIC "-//W3C//DTD SVG 1.1//EN" "http://www.w3.org/Graphics/SVG/1.1/DTD/svg11.dtd"><svg width="100%" height="100%" viewBox="0 0 57 72" version="1.1" xmlns="http://www.w3.org/2000/svg" xmlns:xlink="http://www.w3.org/1999/xlink" xml:space="preserve" xmlns:serif="http://www.serif.com/" style="fill-rule:evenodd;clip-rule:evenodd;stroke-linejoin:round;stroke-miterlimit:2;"><g><path d="M15.209,0.859c-1.048,1.696 3.284,8.564 5.932,9.404c2.722,0.865 2.836,2.23 0.355,4.29c-1.031,0.856 -1.875,2.05 -1.875,2.654c-0,1.514 0.812,1.386 5.004,-0.781c1.996,-1.033 6.563,-2.299 10.148,-2.815c7.072,-1.018 8.594,-2.637 5.441,-5.789c-1.351,-1.351 -4.211,-2.021 -8.632,-2.021c-4.956,-0 -7.744,-0.767 -11.127,-3.063c-2.492,-1.69 -4.842,-2.533 -5.247,-1.879l0.001,-0Zm20.015,18.225c-1.589,0.244 -3.726,1.169 -7.695,2.968c-9.426,4.274 -17.932,6.13 -17.932,3.913c-0,-2.133 -3.723,-1.69 -4.58,0.544c-0.413,1.076 -0.125,3.325 0.638,5c1.89,4.148 5.997,3.938 15.355,-0.787c4.176,-2.108 7.794,-3.63 8.041,-3.382c0.855,0.854 -14.694,19.116 -21.58,25.344c-6.042,5.465 -6.933,6.875 -7.082,11.211c-0.272,7.927 2.919,7.165 9.684,-2.315c6.586,-9.229 12.008,-13.625 16.092,-13.045c2.621,0.372 2.811,1.018 2.824,9.574c0.012,7.611 0.427,9.477 2.428,10.939c3.524,2.578 22.318,2.444 24.49,-0.173c2.539,-3.061 -1.391,-6.181 -7.24,-5.75c-2.58,0.19 -6.377,0.45 -8.44,0.578l-3.752,0.232l0,-8.867c0,-9.785 -1.588,-13.012 -6.404,-13.012c-1.635,-0 -2.973,-0.422 -2.973,-0.938c-0,-1.489 9.035,-10.913 12.816,-13.369c4.44,-2.884 4.352,-5.158 -0.293,-7.56c-1.77,-0.916 -2.81,-1.35 -4.398,-1.106l0.001,0.001Z" style="fill-rule:nonzero;"/></g></svg>