<?xml version="1.0" encoding="UTF-8" standalone="no"?><!DOCTYPE svg PUBLIC "-//W3C//DTD SVG 1.1//EN" "http://www.w3.org/Graphics/SVG/1.1/DTD/svg11.dtd"><svg width="100%" height="100%" viewBox="0 0 94 94" version="1.1" xmlns="http://www.w3.org/2000/svg" xmlns:xlink="http://www.w3.org/1999/xlink" xml:space="preserve" xmlns:serif="http://www.serif.com/" style="fill-rule:evenodd;clip-rule:evenodd;stroke-linejoin:round;stroke-miterlimit:2;"><g><g><path d="M39.763,0.66c-5.815,-0 -4.691,2.969 3.289,8.684c7.661,5.486 9.759,6.101 10.878,3.183c2.125,-5.536 -5.432,-11.867 -14.167,-11.867Zm27.044,15.159c-3.434,0.226 -8.251,1.207 -14.811,2.964c-6.41,1.716 -17.543,3.993 -24.74,5.063c-7.198,1.069 -13.385,2.244 -13.75,2.609c-0.365,0.365 0.46,1.514 1.834,2.553c1.888,1.427 4.543,1.724 10.869,1.224c7.478,-0.59 8.287,-0.435 7.602,1.449c-2.245,6.18 -11.53,16.958 -25.137,29.18c-4.327,3.887 -7.349,7.387 -6.715,7.78c2.056,1.27 13.184,-5.255 21.194,-12.426c7.143,-6.395 7.828,-6.747 7.992,-4.084c0.44,7.161 -0.484,20.852 -1.715,25.418c-1.615,5.994 -1.464,10.395 0.44,12.687c0.77,0.928 1.792,1.689 2.268,1.689c1.27,-0 21.332,-22.385 21.332,-23.802c-0,-2.224 -2.783,-1.232 -8.915,3.173c-3.349,2.407 -6.37,4.377 -6.713,4.377c-0.92,0 -0.588,-10.872 0.573,-18.754c0.89,-6.048 0.7,-7.22 -1.588,-9.722l-2.601,-2.841l2.806,-2.786l2.805,-2.78l5.748,6.252c14.544,15.815 24.956,25.787 27.627,26.457c3.044,0.764 16.18,-1.574 19.152,-3.411c2.609,-1.612 0.294,-3.115 -9.358,-6.062c-8.93,-2.728 -19.839,-8.091 -22.172,-10.903c-1.467,-1.768 2.138,-5.642 9.827,-10.562c4.774,-3.054 4.878,-3.55 1.514,-7.161c-3.376,-3.624 -8.702,-3.703 -8.702,-0.129c-0,1.436 -1.782,5.089 -3.957,8.12l-3.958,5.511l-6.357,-5.931c-4.872,-4.545 -6.358,-6.796 -6.358,-9.629l0,-3.698l14.139,-2.773c15.142,-2.97 18.744,-4.619 16.355,-7.497c-1.04,-1.254 -3.094,-1.783 -6.529,-1.555l-0.002,-0.003l0.001,0.003Z" style="fill:#f00;fill-rule:nonzero;"/></g></g></svg>