<?xml version="1.0" encoding="UTF-8" standalone="no"?><!DOCTYPE svg PUBLIC "-//W3C//DTD SVG 1.1//EN" "http://www.w3.org/Graphics/SVG/1.1/DTD/svg11.dtd"><svg width="100%" height="100%" viewBox="0 0 96 80" version="1.1" xmlns="http://www.w3.org/2000/svg" xmlns:xlink="http://www.w3.org/1999/xlink" xml:space="preserve" xmlns:serif="http://www.serif.com/" style="fill-rule:evenodd;clip-rule:evenodd;stroke-linejoin:round;stroke-miterlimit:2;"><g><g><path d="M17.685,1.093c-1.462,-0.01 -2.502,0.314 -2.502,1.066c0,0.483 1.798,2.732 3.996,5c6.823,7.04 13.842,3.979 7.207,-3.143c-1.582,-1.698 -5.911,-2.909 -8.701,-2.923Zm57.08,12.076l0,0.003c-1.587,0.069 -3.483,0.619 -6.763,1.702c-3.957,1.304 -12.82,3.377 -19.696,4.603c-6.876,1.227 -13.02,2.681 -13.651,3.231c-2.235,1.946 4.517,3.095 10.721,1.824c5.078,-1.04 6.418,-0.94 7.363,0.552c0.635,1.004 1.16,9.552 1.174,18.992c0.021,19.695 1.993,17.204 -15.607,19.727c-16.682,2.392 -18.498,3.234 -12.816,5.95l-0,-0.01c1.546,0.74 3.658,1.122 4.689,0.851c9.924,-2.61 28.756,-4.601 44.99,-4.756c17.452,-0.166 19.402,-0.401 19.787,-2.398c0.31,-1.615 -1.188,-2.93 -5.532,-4.852c-5.707,-2.524 -6.196,-2.547 -11.66,-0.59c-3.136,1.124 -8.076,2.039 -10.976,2.039l-5.274,0l0.778,-16.253c0.674,-14.09 0.503,-16.559 -1.294,-18.543c-2.88,-3.183 -1.555,-3.939 7.207,-4.11c14.824,-0.287 19.859,-3.254 11.471,-6.76c-2.044,-0.854 -3.323,-1.27 -4.909,-1.202l-0.003,-0l0.001,-0Zm-65.785,11.865c-2.094,0 -3.807,0.262 -3.807,0.582c-0,0.32 1.745,2.571 3.879,5.002c4.091,4.659 9.873,6.114 9.873,2.486c0,-3.339 -5.83,-8.07 -9.945,-8.07Zm18.214,16.648l-0,0.002c-0.399,0.01 -1.924,1.846 -3.539,4.285c-7.293,11.022 -18.633,23.937 -20.416,23.254c-3.043,-1.168 -2.157,4.348 1.246,7.75c1.688,1.687 3.651,3.069 4.361,3.069c2.015,-0 19.773,-36.972 18.412,-38.334c-0.015,-0.016 -0.038,-0.026 -0.064,-0.026Z" style="fill:#f00;fill-rule:nonzero;"/></g></g></svg>