<?xml version="1.0" encoding="UTF-8" standalone="no"?><!DOCTYPE svg PUBLIC "-//W3C//DTD SVG 1.1//EN" "http://www.w3.org/Graphics/SVG/1.1/DTD/svg11.dtd"><svg width="100%" height="100%" viewBox="0 0 67 64" version="1.1" xmlns="http://www.w3.org/2000/svg" xmlns:xlink="http://www.w3.org/1999/xlink" xml:space="preserve" xmlns:serif="http://www.serif.com/" style="fill-rule:evenodd;clip-rule:evenodd;stroke-linejoin:round;stroke-miterlimit:2;"><g><path d="M2.474,1.84c-1.715,-0 -1.531,0.71 1.068,4.12c2.832,3.71 2.975,4.42 1.443,7.19c-0.934,1.69 -1.72,3.98 -1.744,5.1c-0.024,1.12 -0.842,2.7 -1.818,3.51c-1.521,1.26 -1.438,2.24 0.586,6.81c1.96,4.43 4.889,22.05 4.928,29.65c0.005,1.1 1.277,2.61 2.824,3.35c6.592,3.18 8.691,1.17 9.361,-8.97c0.579,-8.77 -0.563,-10.35 -3.977,-5.47c-2.251,3.21 -2.308,2.99 -2,-7.64c0.223,-7.67 0.05,-8.17 -4.476,-12.81l-4.709,-4.82l3.603,-3.76c1.982,-2.07 4.904,-3.76 6.495,-3.76c2.928,-0 3.875,-2.82 1.935,-5.77c-1.251,-1.9 -10.956,-6.73 -13.52,-6.73l0.001,-0Zm51.086,7.51c-1.57,0.04 -2.72,0.44 -2.22,1.24c0.48,0.78 -2.14,1.25 -7,1.25c-7.66,-0 -7.74,0.04 -5.53,2.47c1.22,1.36 3.28,2.8 4.56,3.21c3.38,1.07 3.27,12.73 -0.16,18.36c-1.37,2.25 -2.5,5.08 -2.5,6.28c0,1.77 -1.15,2.2 -5.94,2.26l-5.939,0.07l5.569,2.26c3.06,1.24 5.75,2.81 5.98,3.49l-0,-0.01c0.65,1.94 8.15,1.67 11.33,-0.4c1.59,-1.03 3.97,-1.52 5.34,-1.08c1.36,0.43 4.08,0.43 6.06,0c2.77,-0.61 3.44,-1.34 2.95,-3.21c-0.35,-1.33 -1.13,-2.11 -1.74,-1.73c-0.61,0.38 -1.11,0.01 -1.11,-0.82c0,-1.55 -12.79,-1 -18.14,0.78c-1.48,0.49 -0.05,-1.56 3.51,-5.04c7.82,-7.67 8.7,-11.76 3.62,-16.84c-3.32,-3.32 -3.5,-3.82 -1.39,-3.95c1.32,-0.09 2.96,-0.3 3.65,-0.47c0.69,-0.17 2.28,-0.38 3.54,-0.47c2.49,-0.17 3.13,-3.58 1.14,-6.1c-0.82,-1.04 -3.55,-1.59 -5.58,-1.55Z" style="fill:#800000;fill-rule:nonzero;"/></g></svg>