<?xml version="1.0" encoding="UTF-8" standalone="no"?><!DOCTYPE svg PUBLIC "-//W3C//DTD SVG 1.1//EN" "http://www.w3.org/Graphics/SVG/1.1/DTD/svg11.dtd"><svg width="100%" height="100%" viewBox="0 0 85 64" version="1.1" xmlns="http://www.w3.org/2000/svg" xmlns:xlink="http://www.w3.org/1999/xlink" xml:space="preserve" xmlns:serif="http://www.serif.com/" style="fill-rule:evenodd;clip-rule:evenodd;stroke-linejoin:round;stroke-miterlimit:2;"><g><path d="M24.243,0.618c-1.508,-0.136 -2.533,0.443 -2.533,1.785c-0,1.031 0.447,1.875 0.994,1.875c1.502,0 1.763,8.445 0.289,9.355c-0.706,0.437 -1.283,1.816 -1.283,3.067c-0,1.25 -0.77,2.912 -1.711,3.693c-1.974,1.638 -9.841,2.124 -14.855,0.916c-2.384,-0.574 -3.431,-0.34 -3.418,0.76c0.052,4.341 6.216,7.978 10.047,5.928c5.295,-2.834 6.254,-1.039 3.023,5.66c-3.483,7.224 -4.706,9.115 -10.338,15.982c-2.268,2.766 -3.814,5.832 -3.437,6.814c0.377,0.983 0.685,2.491 0.685,3.352c0,2.434 3.627,1.841 4.442,-0.727c0.4,-1.26 1.197,-2.293 1.771,-2.293c0.574,0 1.654,-1.546 2.399,-3.437c1.439,-3.655 4,-8.03 5.304,-9.065c0.434,-0.343 3.056,-5.428 5.827,-11.301c4.861,-10.302 5.194,-10.687 9.525,-10.979c3.902,-0.262 4.501,0.07 4.592,2.549c0.057,1.569 0.263,4.26 0.457,5.979c0.446,3.953 -2.786,16.74 -4.371,17.295c-0.655,0.229 -1.192,0.973 -1.192,1.652c-0,3.461 -5.164,5.194 -8.75,2.936c-1.031,-0.65 -2.953,-1.35 -4.271,-1.555c-2.06,-0.32 -1.953,0.039 0.763,2.557c1.739,1.611 4.148,4.435 5.354,6.275c1.206,1.84 3.112,3.328 4.236,3.307c2.598,-0.05 9.69,-9.406 10.869,-14.338c0.493,-2.063 1.414,-4.411 2.047,-5.217c0.633,-0.806 1.354,-5.468 1.604,-10.357c0.407,-7.986 0.15,-9.218 -2.539,-12.119c-2.284,-2.465 -3.885,-3.1 -6.748,-2.68c-2.065,0.303 -3.943,-0.021 -4.176,-0.721c-0.533,-1.597 1.916,-7.016 3.176,-7.029c2.247,-0.023 0.648,-5.055 -2.358,-7.42c-1.926,-1.515 -3.916,-2.364 -5.424,-2.5l-0,0.001Zm31.424,15.537l-2.584,5.625c-1.421,3.094 -3.716,7.586 -5.1,9.982c-2.696,4.671 -3.292,8.772 -1.275,8.772c1.726,-0 8.84,-7.616 8.152,-8.729c-0.309,-0.5 0.828,-2.215 2.526,-3.81c1.713,-1.61 3.086,-2.213 3.086,-1.358c0,0.849 0.562,1.195 1.25,0.77c0.687,-0.425 1.25,-0.083 1.25,0.76c0,0.843 0.358,1.172 0.797,0.734c0.438,-0.438 2.267,0.252 4.064,1.531c1.797,1.28 3.825,2.528 4.508,2.776c1.945,0.705 0.771,3.564 -3.205,7.806c-2.009,2.143 -3.655,4.368 -3.657,4.944c-0.012,2.27 17.531,-2.446 19.211,-5.164c1.071,-1.732 -4.681,-11.78 -7.339,-12.822c-1.376,-0.54 -5.174,-1.664 -8.44,-2.498c-3.266,-0.835 -5.939,-2.008 -5.939,-2.606c0,-0.598 -0.612,-1.088 -1.362,-1.088c-0.749,-0 -2.392,-1.265 -3.652,-2.812l-2.291,-2.813Z" style="fill:#800000;fill-rule:nonzero;"/></g></svg>