<?xml version="1.0" encoding="UTF-8" standalone="no"?><!DOCTYPE svg PUBLIC "-//W3C//DTD SVG 1.1//EN" "http://www.w3.org/Graphics/SVG/1.1/DTD/svg11.dtd"><svg width="100%" height="100%" viewBox="0 0 69 66" version="1.1" xmlns="http://www.w3.org/2000/svg" xmlns:xlink="http://www.w3.org/1999/xlink" xml:space="preserve" xmlns:serif="http://www.serif.com/" style="fill-rule:evenodd;clip-rule:evenodd;stroke-linejoin:round;stroke-miterlimit:2;"><g><path d="M23.978,2.032c-1.887,-0.172 -3.07,0.536 -2.373,2.229c2.003,4.865 2.109,6.86 0.641,12.104c-1.412,5.043 -1.974,5.591 -7.049,6.869c-4.487,1.129 -6.197,1.034 -9.176,-0.506c-4.566,-2.361 -6.087,-0.541 -3.213,3.846c2.714,4.142 5.223,4.968 9.826,3.23c2.088,-0.788 4.012,-1.219 4.276,-0.955c0.87,0.871 -6.133,13.742 -11.08,20.365c-6.042,8.087 -6.553,15.652 -0.912,13.482c1.797,-0.691 10.807,-15.979 17.426,-29.57c3.404,-6.99 4.635,-8.414 7.66,-8.857c2.66,-0.391 3.951,0.119 4.931,1.951c2.45,4.578 -1.021,20.575 -5.752,26.508c-2.672,3.351 -2.805,3.379 -6.658,1.386c-8.243,-4.263 -8.415,-2.366 -0.543,6.002c4.464,4.746 5.788,5.513 7.727,4.475c9.099,-4.87 16.613,-33.934 10.82,-41.855c-0.954,-1.304 -3.95,-2.641 -6.846,-3.053l-5.148,-0.732l5.535,-10.867l-3.494,-3.006c-2.119,-1.823 -4.71,-2.873 -6.598,-3.045l-0,-0.001Zm24.7,14.367c-0.397,0.397 1.286,2.821 3.738,5.387c8.298,8.681 9.336,13.432 3.278,15.002c-5.879,1.523 -5.996,4.032 -0.19,4.08c2.636,0.022 5.873,0.856 7.192,1.854c3.413,2.582 5.728,0.214 5.728,-5.86c0,-5.575 -2.164,-10.4 -6.463,-14.414c-3.334,-3.113 -12.187,-7.144 -13.283,-6.049Z" style="fill-rule:nonzero;"/></g></svg>