<?xml version="1.0" encoding="UTF-8" standalone="no"?><!DOCTYPE svg PUBLIC "-//W3C//DTD SVG 1.1//EN" "http://www.w3.org/Graphics/SVG/1.1/DTD/svg11.dtd"><svg width="100%" height="100%" viewBox="0 0 93 80" version="1.1" xmlns="http://www.w3.org/2000/svg" xmlns:xlink="http://www.w3.org/1999/xlink" xml:space="preserve" xmlns:serif="http://www.serif.com/" style="fill-rule:evenodd;clip-rule:evenodd;stroke-linejoin:round;stroke-miterlimit:2;"><g><g><path d="M29.18,0.54c-0.684,-0.025 -1.216,0.098 -1.515,0.397c-0.444,0.444 -0.089,2.791 0.787,5.214c1.271,3.511 1.284,6.228 0.082,13.408c-0.829,4.952 -2.141,9.405 -2.915,9.897c-0.773,0.49 -5.203,1.266 -9.845,1.724c-9.02,0.888 -11.133,3.085 -5.455,5.672c2.252,1.026 4.531,0.905 9.304,-0.494l6.325,-1.854l-3.068,8.15c-4.209,11.182 -9.458,20.023 -16.15,27.211c-7.484,8.036 -7.344,10.315 0.393,6.314c8.985,-4.647 19.737,-20.338 24.639,-35.96c2.229,-7.107 3.799,-8.471 9.789,-8.514c2.136,-0.015 2.256,0.691 1.431,8.401c-0.954,8.898 -4.992,23.593 -7.242,26.355c-1.25,1.534 -3.966,1.376 -8.909,-0.521c-2.963,-1.138 -2.451,1.642 1.446,7.808c4.165,6.594 7.502,7.042 12.068,1.615c3.631,-4.316 6.193,-12.173 8.797,-26.988c0.976,-5.551 2.623,-12.123 3.66,-14.607c1.835,-4.39 1.798,-4.587 -1.327,-7.047c-3.61,-2.838 -6.159,-3.126 -11.101,-1.247c-1.859,0.706 -3.692,0.975 -4.074,0.594c-0.381,-0.383 0.367,-4.958 1.664,-10.165l2.358,-9.469l-3.055,-2.379c-2.611,-2.034 -6.033,-3.44 -8.086,-3.514l0,-0.001l-0.001,-0Zm51.858,27.312l-9.65,3.023c-5.776,1.809 -11.287,2.772 -13.718,2.4c-4.484,-0.685 -4.626,-0.386 -2.801,5.922c0.695,2.402 1.832,9.352 2.527,15.441c0.696,6.09 1.835,12.137 2.531,13.44c1.612,3.012 3.303,3.023 4.255,0.025c0.799,-2.518 6.112,-3.872 15.292,-3.896c5.574,-0.015 7.688,-1.617 5.542,-4.202c-1.662,-2.004 1.037,-12.769 4.804,-19.154c3.301,-5.596 2.768,-7.111 -3.682,-10.402l-5.1,-2.597Zm-5.026,8.538c1.624,-0.042 2.787,0.077 3.097,0.368c1.202,1.13 -1.483,19.619 -2.983,20.547c-0.475,0.293 -3.207,1.06 -6.075,1.705c-5.994,1.347 -5.775,1.737 -7.011,-12.457l-0.721,-8.266l7.832,-1.293c2.153,-0.356 4.239,-0.56 5.861,-0.604Z" style="fill:#f00;fill-rule:nonzero;"/></g></g></svg>