<?xml version="1.0" encoding="UTF-8" standalone="no"?><!DOCTYPE svg PUBLIC "-//W3C//DTD SVG 1.1//EN" "http://www.w3.org/Graphics/SVG/1.1/DTD/svg11.dtd"><svg width="100%" height="100%" viewBox="0 0 53 69" version="1.1" xmlns="http://www.w3.org/2000/svg" xmlns:xlink="http://www.w3.org/1999/xlink" xml:space="preserve" xmlns:serif="http://www.serif.com/" style="fill-rule:evenodd;clip-rule:evenodd;stroke-linejoin:round;stroke-miterlimit:2;"><g><path d="M18.908,1.321c-2.965,0 -5.391,0.439 -5.391,0.975c-0,0.536 1.9,2.765 4.219,4.953c2.32,2.188 4.515,5.119 4.879,6.512c0.549,2.098 -0.197,2.764 -4.357,3.884c-2.762,0.744 -7.2,0.984 -9.864,0.534c-6.255,-1.057 -6.611,-1.034 -7.115,0.478c-0.233,0.699 1.413,2.221 3.656,3.381c3.166,1.637 5.996,1.948 12.646,1.391c7.999,-0.671 8.639,-0.536 9.623,2.027c1.47,3.827 0.43,4.491 -8.496,5.424c-7.296,0.762 -7.876,0.634 -8.531,-1.869c-0.806,-3.084 -0.976,-3.139 -4.242,-1.391c-3.259,1.744 -3.059,5.776 0.377,7.615c2.91,1.557 18.741,1.965 23.061,0.594c1.863,-0.591 2.844,0.009 3.939,2.414c0.803,1.761 1.459,3.402 1.459,3.645c0,0.243 -5.11,0.638 -11.355,0.878c-11.013,0.424 -11.465,0.56 -15.002,4.52c-6.485,7.26 -4.044,16.465 5.258,19.83c5.168,1.87 25.957,2.185 30.486,0.463c2.157,-0.82 3.151,-2.009 2.871,-3.438c-0.379,-1.935 -2.156,-2.185 -15.576,-2.185c-13.138,0 -15.498,-0.316 -17.791,-2.381c-3.659,-3.297 -3.308,-6.214 1.203,-10.01c3.08,-2.591 5.167,-3.236 10.473,-3.236c3.645,0 8.649,0.843 11.117,1.875c5.585,2.333 9.569,2.406 9.569,0.175c0,-0.934 -1.643,-4.776 -3.651,-8.539l-3.65,-6.842l6.863,-3.365c4.922,-2.414 6.745,-3.976 6.449,-5.525c-0.603,-3.168 -5.108,-3.296 -10.959,-0.311c-5.617,2.866 -6.902,2.655 -7.939,-1.31c-0.577,-2.208 0.372,-3.098 5.932,-5.557c6.179,-2.733 9.033,-5.615 7.287,-7.361c-1.498,-1.498 -6.799,-0.687 -11.633,1.779l-4.952,2.525l0,-3.726c0,-5.399 -4.218,-8.826 -10.863,-8.826Z" style="fill-rule:nonzero;"/></g></svg>