<?xml version="1.0" encoding="UTF-8" standalone="no"?><!DOCTYPE svg PUBLIC "-//W3C//DTD SVG 1.1//EN" "http://www.w3.org/Graphics/SVG/1.1/DTD/svg11.dtd"><svg width="100%" height="100%" viewBox="0 0 38 78" version="1.1" xmlns="http://www.w3.org/2000/svg" xmlns:xlink="http://www.w3.org/1999/xlink" xml:space="preserve" xmlns:serif="http://www.serif.com/" style="fill-rule:evenodd;clip-rule:evenodd;stroke-linejoin:round;stroke-miterlimit:2;"><g><path d="M28.918,0.975c-0.867,0.104 -0.963,1.344 -0.437,3.739c0.769,3.504 0.189,4.572 -5.838,10.725c-3.682,3.758 -10.21,9.65 -14.508,13.094c-4.298,3.443 -7.815,7.156 -7.815,8.25c0,1.093 5.259,7.093 11.688,13.332c9.048,8.781 12.487,13.108 15.223,19.156c2.819,6.233 4.105,7.814 6.356,7.814c3.796,-0 4.796,-3.752 2.478,-9.299c-2.455,-5.876 -12.984,-16.911 -22.855,-23.955c-4.338,-3.095 -7.887,-5.861 -7.887,-6.144c-0,-0.284 3.515,-2.894 7.813,-5.801c4.298,-2.907 11.079,-7.992 15.068,-11.299c3.989,-3.307 7.787,-6.014 8.439,-6.014c0.652,-0 1.184,-1.637 1.184,-3.638c0,-2.53 -1.173,-4.628 -3.846,-6.877c-2.558,-2.153 -4.196,-3.186 -5.062,-3.082l-0.001,-0.001Z" style="fill-rule:nonzero;"/></g></svg>