<?xml version="1.0" encoding="UTF-8" standalone="no"?><!DOCTYPE svg PUBLIC "-//W3C//DTD SVG 1.1//EN" "http://www.w3.org/Graphics/SVG/1.1/DTD/svg11.dtd"><svg width="100%" height="100%" viewBox="0 0 88 81" version="1.1" xmlns="http://www.w3.org/2000/svg" xmlns:xlink="http://www.w3.org/1999/xlink" xml:space="preserve" xmlns:serif="http://www.serif.com/" style="fill-rule:evenodd;clip-rule:evenodd;stroke-linejoin:round;stroke-miterlimit:2;"><g><g><path d="M34.348,0.184c-3.412,-0 -3.659,0.325 -3.659,4.8c-0,6.396 -5.7,17.537 -14.319,27.985c-6.368,7.72 -8.188,10.973 -6.143,10.973c2.311,-0 9.301,-5.656 14.635,-11.837c4.298,-4.98 6.686,-6.812 8.232,-6.322c1.199,0.381 4.524,-0.135 7.389,-1.147c6.208,-2.19 6.459,-1.517 2.92,7.794c-5.292,13.927 -19.453,30.301 -33.935,39.236c-4.82,2.973 -8.761,5.899 -8.774,6.503c-0.016,1.651 9.595,-0.219 14.795,-2.88c6.769,-3.464 16.409,-11.689 22.052,-18.814c2.737,-3.455 5.269,-6.281 5.625,-6.28c0.357,0.002 2.335,2.672 4.396,5.933c4.128,6.533 14.899,20.053 17.931,22.507c2.914,2.359 21.455,1.414 21.455,-1.094c-0,-0.586 -4.472,-3.318 -9.94,-6.067c-9.955,-5.005 -18.248,-11.493 -26.853,-21.017l-4.59,-5.084l3.738,-7.405c2.057,-4.072 5.236,-9.184 7.066,-11.359c3.871,-4.599 3.437,-6.772 -1.901,-9.533c-3.616,-1.869 -4.323,-1.821 -11.348,0.74c-4.121,1.503 -7.828,2.395 -8.239,1.983c-0.41,-0.411 0.64,-3.164 2.334,-6.117c1.695,-2.953 3.429,-6.339 3.852,-7.521c1.062,-2.974 -2.314,-5.975 -6.719,-5.975l0,-0.002Z" style="fill:#f00;fill-rule:nonzero;"/></g></g></svg>