<?xml version="1.0" encoding="UTF-8" standalone="no"?><!DOCTYPE svg PUBLIC "-//W3C//DTD SVG 1.1//EN" "http://www.w3.org/Graphics/SVG/1.1/DTD/svg11.dtd"><svg width="100%" height="100%" viewBox="0 0 63 77" version="1.1" xmlns="http://www.w3.org/2000/svg" xmlns:xlink="http://www.w3.org/1999/xlink" xml:space="preserve" xmlns:serif="http://www.serif.com/" style="fill-rule:evenodd;clip-rule:evenodd;stroke-linejoin:round;stroke-miterlimit:2;"><g><path d="M36.508,1.116c-1.75,0.672 -1.651,1.156 0.766,3.729c2.533,2.696 5.687,16.095 4.334,18.412c-1.038,1.776 -11.348,1.836 -15.854,0.091c-5.385,-2.085 -6.666,-1.563 -4.786,1.95c2.028,3.787 8.129,5.719 15.357,4.863l6.37,-0.754l-0.6,12.775c-0.657,13.956 -2.504,19.863 -8.59,27.465c-3.385,4.228 -3.513,4.687 -1.291,4.687c3.794,-0 10.263,-6.173 13.057,-12.461c1.827,-4.11 2.719,-9.581 3.248,-19.922l0.729,-14.256l4.998,-1.726c5.8,-2.004 8.784,-4.572 7.578,-6.524c-1.208,-1.954 -6.452,-1.692 -10.764,0.538c-4.155,2.148 -4.155,2.146 -2.436,-6.92c0.877,-4.625 0.848,-7.092 -0.099,-8.233c-1.88,-2.264 -9.588,-4.647 -12.018,-3.714l0.001,-0Zm-33.6,4.697c-0.427,0.427 -0.23,2.756 0.437,5.174c0.868,3.142 0.701,7.013 -0.587,13.557c-3.503,17.793 -2.015,35.717 3.418,41.15c3.573,3.573 5.286,1.778 4.548,-4.767c-0.346,-3.07 0.133,-8.764 1.063,-12.652c2.026,-8.475 2.065,-8.946 0.76,-8.946c-0.561,0 -1.958,1.969 -3.106,4.375c-5.817,12.199 -5.921,-3.458 -0.135,-20.225c3.236,-9.375 3.244,-9.493 0.887,-12.65c-2.817,-3.773 -6.199,-6.101 -7.285,-5.015l0,-0.001Z" style="fill-rule:nonzero;"/></g></svg>