<?xml version="1.0" encoding="UTF-8" standalone="no"?><!DOCTYPE svg PUBLIC "-//W3C//DTD SVG 1.1//EN" "http://www.w3.org/Graphics/SVG/1.1/DTD/svg11.dtd"><svg width="100%" height="100%" viewBox="0 0 79 77" version="1.1" xmlns="http://www.w3.org/2000/svg" xmlns:xlink="http://www.w3.org/1999/xlink" xml:space="preserve" xmlns:serif="http://www.serif.com/" style="fill-rule:evenodd;clip-rule:evenodd;stroke-linejoin:round;stroke-miterlimit:2;"><g><path d="M56.05,1.104c-4.67,-0.434 -5.644,1.665 -1.86,4.025c2.06,1.291 3.32,5.872 4.58,16.695c0.24,2.099 -0.61,2.349 -10.348,3.016c-3.61,0.247 -6.565,-0.01 -6.565,-0.57c-0,-0.864 -0.865,-0.878 -4.857,-0.084c-0.264,0.052 1.134,1.361 3.106,2.908c2.883,2.263 5.178,2.812 11.734,2.812l8.15,0l0.27,12.619c0.26,12.068 0.08,13.011 -4.02,21.566c-2.35,4.921 -4.87,8.948 -5.582,8.948c-0.715,-0 -1.299,0.562 -1.299,1.25c0,2.434 2.441,1.184 8.061,-4.125c3.13,-2.956 5.69,-6.218 5.69,-7.25c0,-1.033 0.6,-2.477 1.34,-3.211c0.78,-0.78 1.42,-7.972 1.56,-17.316l0.23,-15.98l4.72,-1.635c5.48,-1.897 8.2,-4.24 7.46,-6.441c-0.77,-2.331 -4.62,-1.874 -9.76,1.16l-4.59,2.711l0.58,-9.018c0.66,-10.081 -0.21,-11.3 -8.6,-12.08Zm-33.683,0.127c-0.75,-0.26 -2.158,0.018 -3.127,0.617c-2.07,1.28 -0.849,2.79 6.365,7.879c5.739,4.049 8.969,4.236 8.436,0.488c-0.674,-4.731 -2.781,-7.237 -6.633,-7.888c-2.023,-0.342 -4.291,-0.836 -5.041,-1.096Zm7.03,19.945c-1.05,0.218 -4.441,0.991 -7.535,1.719c-3.094,0.728 -7.984,1.339 -10.865,1.356c-2.882,0.017 -5.592,0.602 -6.024,1.301c-0.432,0.698 -1.309,0.946 -1.949,0.55c-2.767,-1.71 -0.86,1.842 1.992,3.711c2.563,1.679 4.037,1.825 7.815,0.776c6.824,-1.895 7.739,-1.696 6.914,1.506c-0.399,1.547 -0.911,8.502 -1.137,15.455c-0.413,12.756 0.756,18.831 4.479,23.293c3.135,3.757 4.398,1.719 4.515,-7.286c0.11,-8.406 0.813,-12.974 2.391,-15.527c0.423,-0.685 -0.038,-1.244 -1.023,-1.244c-0.992,-0 -2.128,1.675 -2.543,3.75c-0.472,2.356 -1.52,3.75 -2.821,3.75c-1.8,-0 -1.967,-1.099 -1.277,-8.439c1.629,-17.341 1.844,-18.072 5.498,-18.59c4.224,-0.599 6.477,-1.248 7.348,-2.119c1.231,-1.232 -3.453,-4.443 -5.778,-3.961l0,-0.001Z" style="fill:#800000;fill-rule:nonzero;"/></g></svg>