<?xml version="1.0" encoding="UTF-8" standalone="no"?><!DOCTYPE svg PUBLIC "-//W3C//DTD SVG 1.1//EN" "http://www.w3.org/Graphics/SVG/1.1/DTD/svg11.dtd"><svg width="100%" height="100%" viewBox="0 0 75 79" version="1.1" xmlns="http://www.w3.org/2000/svg" xmlns:xlink="http://www.w3.org/1999/xlink" xml:space="preserve" xmlns:serif="http://www.serif.com/" style="fill-rule:evenodd;clip-rule:evenodd;stroke-linejoin:round;stroke-miterlimit:2;"><g><path d="M45.83,0.403c-1.26,0.238 -2.29,0.52 -2.29,0.625c-0,0.105 -0.91,0.368 -2.03,0.586c-1.11,0.217 -3.93,1.213 -6.25,2.213c-5.1,2.196 -11.53,4.202 -17.1,5.336c-3.36,0.686 -3.85,1.163 -2.65,2.603c1.67,2.023 5.89,2.278 10.25,0.619c1.65,-0.629 4.64,-1.451 6.64,-1.826c2,-0.375 5.86,-1.231 8.57,-1.904c4.81,-1.193 7.52,-0.817 6.46,0.898c-0.28,0.468 -0.87,3.091 -1.3,5.828c-0.44,2.738 -1.31,5.497 -1.95,6.131c-0.7,0.703 -0.67,2.052 0.09,3.461c0.84,1.563 2.63,2.309 5.57,2.309c4.39,-0 5.33,-0.993 3.09,-3.241c-0.82,-0.82 0.01,-3.764 2.46,-8.689c2.03,-4.097 3.72,-8.312 3.74,-9.367c0.04,-2.174 -9.7,-6.264 -13.3,-5.582Zm-42.81,31.635l0.63,11.062c0.98,17.264 1.7,21.271 4.44,24.75c2.59,3.301 7.94,6.559 13.57,8.271c5.2,1.583 30.12,1.195 38.14,-0.594c11.99,-2.676 14.37,-3.958 14.37,-7.724c0,-2.912 -0.4,-3.227 -3.43,-2.69c-1.9,0.335 -8.79,1.586 -15.32,2.782c-8.48,1.552 -14.85,1.952 -22.26,1.396c-19.82,-1.486 -23.57,-5.452 -21.14,-22.354c1.55,-10.758 0.86,-12.482 -5.62,-14.07l-3.38,-0.83l-0,0.001Z" style="fill:#800000;fill-rule:nonzero;"/></g></svg>