<?xml version="1.0" encoding="UTF-8" standalone="no"?><!DOCTYPE svg PUBLIC "-//W3C//DTD SVG 1.1//EN" "http://www.w3.org/Graphics/SVG/1.1/DTD/svg11.dtd"><svg width="100%" height="100%" viewBox="0 0 49 72" version="1.1" xmlns="http://www.w3.org/2000/svg" xmlns:xlink="http://www.w3.org/1999/xlink" xml:space="preserve" xmlns:serif="http://www.serif.com/" style="fill-rule:evenodd;clip-rule:evenodd;stroke-linejoin:round;stroke-miterlimit:2;"><g><path d="M19.162,0.716c-6.306,-0.846 -7.927,1.442 -3.602,5.082c3.095,2.604 5.99,7.463 7.639,12.818c0.706,2.292 0.065,2.851 -4.84,4.224c-3.475,0.973 -8.089,1.258 -11.979,0.742c-6.057,-0.803 -6.269,-0.732 -4.982,1.672c2.191,4.094 9.637,5.393 18.172,3.17c8.076,-2.103 7.538,-2.374 11.957,5.988l2.478,4.69l-7.568,-0c-9.199,-0 -14.639,2.115 -19.109,7.427c-5.849,6.951 -3.755,17.518 4.496,22.701c3.497,2.197 5.708,2.464 17.5,2.112c14.37,-0.43 16.992,-1.576 14.451,-6.324c-1.148,-2.146 -2.306,-2.277 -13.354,-1.502c-11.228,0.786 -12.342,0.654 -15.533,-1.871c-4.08,-3.229 -4.72,-9.786 -1.25,-12.812c6.484,-5.656 14.598,-6.417 25.25,-2.37c5.791,2.201 6.546,2.25 7.227,0.477c0.792,-2.064 0.565,-2.491 -8.108,-15.359l-5.322,-7.897l5.322,-3.015c9.449,-5.355 12.093,-9.134 7.598,-10.859c-1.281,-0.492 -4.49,0.679 -8.227,3.002c-3.37,2.095 -6.613,3.51 -7.205,3.144c-0.592,-0.366 -1.452,-3.166 -1.91,-6.222c-0.987,-6.58 -2.562,-8.141 -9.102,-9.018l0.001,0Z" style="fill-rule:nonzero;"/></g></svg>