<?xml version="1.0" encoding="UTF-8" standalone="no"?><!DOCTYPE svg PUBLIC "-//W3C//DTD SVG 1.1//EN" "http://www.w3.org/Graphics/SVG/1.1/DTD/svg11.dtd"><svg width="100%" height="100%" viewBox="0 0 55 66" version="1.1" xmlns="http://www.w3.org/2000/svg" xmlns:xlink="http://www.w3.org/1999/xlink" xml:space="preserve" xmlns:serif="http://www.serif.com/" style="fill-rule:evenodd;clip-rule:evenodd;stroke-linejoin:round;stroke-miterlimit:2;"><g><path d="M3.942,0.848c-4.146,-0 -4.21,0.384 -0.949,5.66c2.321,3.756 2.495,5.865 2.187,26.402c-0.293,19.549 -0.053,22.834 1.92,26.449c1.239,2.271 3.489,4.626 5,5.235c4.691,1.889 14.979,1.332 20.332,-1.1c7.18,-3.261 13.891,-9.522 18.133,-16.918c6.058,-10.561 4.159,-11.318 -4.681,-1.867c-7.307,7.812 -14.489,12.148 -21.775,13.146c-7.592,1.041 -10.722,-1.669 -12.418,-10.75c-1.488,-7.964 -0.406,-25.883 1.994,-33.035c2.423,-7.221 -2.001,-13.223 -9.743,-13.223l0,0.001Z" style="fill-rule:nonzero;"/></g></svg>