<?xml version="1.0" encoding="UTF-8" standalone="no"?><!DOCTYPE svg PUBLIC "-//W3C//DTD SVG 1.1//EN" "http://www.w3.org/Graphics/SVG/1.1/DTD/svg11.dtd"><svg width="100%" height="100%" viewBox="0 0 97 82" version="1.1" xmlns="http://www.w3.org/2000/svg" xmlns:xlink="http://www.w3.org/1999/xlink" xml:space="preserve" xmlns:serif="http://www.serif.com/" style="fill-rule:evenodd;clip-rule:evenodd;stroke-linejoin:round;stroke-miterlimit:2;"><g><g><path d="M38.029,1.881c-2.989,-0.223 -5.621,0.1 -5.981,1.113c-0.275,0.777 2.412,3.731 5.969,6.564c8.211,6.539 11.14,6.749 11.14,0.803c0,-3.209 -0.785,-4.861 -3.003,-6.315c-1.79,-1.172 -5.135,-1.943 -8.125,-2.165Zm25.848,12.384c-1.409,0.174 -3.202,0.931 -6.408,2.4c-7.637,3.495 -27.794,8.85 -37.994,10.091c-6.951,0.845 -7.844,1.97 -4.496,5.67c2.558,2.827 7.375,2.915 13.719,0.254c5.747,-2.412 24.604,-8.003 25.149,-7.458c0.499,0.5 -13.118,12.345 -23.539,20.475c-9.526,7.432 -13.191,9.15 -21.673,10.16c-7.025,0.838 -8.473,2.819 -4.137,5.66c2.754,1.805 3.579,1.756 10.39,-0.62c5.101,-1.781 8.932,-2.35 12.331,-1.829c5.738,0.878 20.819,7.83 35.078,16.17c8.014,4.688 10.869,5.748 14.377,5.327c5.725,-0.689 19.378,-6.135 19.378,-7.729c0,-0.684 -5.063,-1.69 -11.251,-2.238c-12.559,-1.113 -20.47,-3.32 -38.653,-10.789c-6.817,-2.802 -13.147,-5.095 -14.065,-5.095c-2.911,0 -1.806,-2.169 2.396,-4.699c2.234,-1.345 10.35,-7.169 18.033,-12.94c7.682,-5.769 15.726,-11.464 17.872,-12.654c3.355,-1.858 3.712,-2.514 2.557,-4.673c-0.74,-1.382 -2.968,-3.355 -4.953,-4.381c-1.675,-0.867 -2.701,-1.275 -4.11,-1.102l-0.001,0Z" style="fill:#f00;fill-rule:nonzero;"/></g></g></svg>