<?xml version="1.0" encoding="UTF-8" standalone="no"?><!DOCTYPE svg PUBLIC "-//W3C//DTD SVG 1.1//EN" "http://www.w3.org/Graphics/SVG/1.1/DTD/svg11.dtd"><svg width="100%" height="100%" viewBox="0 0 72 84" version="1.1" xmlns="http://www.w3.org/2000/svg" xmlns:xlink="http://www.w3.org/1999/xlink" xml:space="preserve" xmlns:serif="http://www.serif.com/" style="fill-rule:evenodd;clip-rule:evenodd;stroke-linejoin:round;stroke-miterlimit:2;"><g><path d="M17.845,1.849c-6.042,-1.032 -6.461,2.009 0.41,7.898c3.234,2.773 7.148,5.044 8.695,5.049c2.391,0.007 2.812,-0.659 2.812,-4.432c0,-3.838 -0.551,-4.662 -4.064,-6.082c-3.202,-1.294 -5.84,-2.089 -7.854,-2.433l0.001,0Zm6.49,19.594c-2.471,-0.168 -5.776,-0.046 -10.102,0.191c-6.821,0.374 -12.556,0.834 -12.746,1.024c-0.19,0.19 0.063,1.008 0.564,1.818c0.503,0.815 5.001,1.738 10.053,2.063c5.028,0.323 9.445,0.892 9.814,1.261c0.37,0.37 0.526,5.333 0.348,11.029c-0.178,5.697 -0.453,14.294 -0.609,19.107c-0.379,11.679 3.705,25.7 6.908,23.721c0.562,-0.347 1.289,-0.2 1.615,0.327c0.326,0.527 3.404,1.123 6.84,1.326c5.157,0.304 7.528,-0.35 13.576,-3.75c7.356,-4.135 20.251,-16.583 18.742,-18.092c-0.444,-0.444 -1.838,0.128 -3.1,1.269c-1.261,1.142 -2.712,2.077 -3.222,2.077c-0.511,-0 -1.714,0.703 -2.672,1.562c-3.75,3.363 -5.155,4.274 -10.729,6.965c-8.317,4.014 -14.204,3.943 -18.371,-0.225c-3.296,-3.296 -3.358,-3.65 -3.237,-18.646c0.068,-8.407 0.544,-16.974 1.057,-19.037c2.582,-10.383 2.681,-13.487 -4.731,-13.99l0.002,-0Z" style="fill:#800000;fill-rule:nonzero;"/></g></svg>