<?xml version="1.0" encoding="UTF-8" standalone="no"?><!DOCTYPE svg PUBLIC "-//W3C//DTD SVG 1.1//EN" "http://www.w3.org/Graphics/SVG/1.1/DTD/svg11.dtd"><svg width="100%" height="100%" viewBox="0 0 84 93" version="1.1" xmlns="http://www.w3.org/2000/svg" xmlns:xlink="http://www.w3.org/1999/xlink" xml:space="preserve" xmlns:serif="http://www.serif.com/" style="fill-rule:evenodd;clip-rule:evenodd;stroke-linejoin:round;stroke-miterlimit:2;"><g><g><path d="M42.353,1.16l-0.003,0.002c-0.561,0.056 -0.902,0.221 -0.902,0.512c-0,0.26 0.844,2.494 1.875,4.962c1.054,2.522 1.877,8.278 1.877,13.137l-0,8.648l-9.689,1.38c-10.376,1.479 -31.179,3.882 -33.756,3.898c-2.705,0.018 -1.699,3.615 1.622,5.79c2.999,1.965 3.819,1.933 14.066,-0.555c5.983,-1.453 14.678,-3.021 19.32,-3.482l8.439,-0.836l-0.019,19.236c-0.01,10.581 -0.505,20.005 -1.097,20.94c-0.808,1.274 -2.683,1.48 -7.481,0.82c-3.522,-0.484 -6.406,-0.432 -6.406,0.118c-0,0.549 3.516,4.542 7.815,8.875c4.296,4.332 8.652,7.727 9.679,7.542c1.026,-0.183 2.714,-2.015 3.75,-4.07c1.529,-3.037 1.818,-8.433 1.529,-28.877l-0.357,-25.141l5.707,-0.78c3.138,-0.431 9.828,-0.434 14.867,-0.009c9.688,0.819 12.465,-0.385 9.403,-4.075c-3.988,-4.805 -7.771,-5.525 -18.821,-3.581c-5.744,1.012 -10.584,1.839 -10.756,1.84c-0.67,0.004 -0.154,-9.635 0.771,-14.408c1.241,-6.395 0.76,-7.724 -3.634,-9.997c-1.623,-0.839 -3.8,-1.474 -5.569,-1.754l0,0.003c-0.885,-0.14 -1.667,-0.193 -2.23,-0.136l-0,-0.002Zm-22.325,43.558c-3.843,-0.861 -2.638,3.642 3.802,12.432c4.389,5.991 5.683,6.444 7.69,2.696c2.308,-4.312 0.323,-8.448 -5.972,-12.44c-2.396,-1.519 -4.24,-2.4 -5.52,-2.688Z" style="fill:#f00;fill-rule:nonzero;"/></g></g></svg>