<?xml version="1.0" encoding="UTF-8" standalone="no"?><!DOCTYPE svg PUBLIC "-//W3C//DTD SVG 1.1//EN" "http://www.w3.org/Graphics/SVG/1.1/DTD/svg11.dtd"><svg width="100%" height="100%" viewBox="0 0 98 80" version="1.1" xmlns="http://www.w3.org/2000/svg" xmlns:xlink="http://www.w3.org/1999/xlink" xml:space="preserve" xmlns:serif="http://www.serif.com/" style="fill-rule:evenodd;clip-rule:evenodd;stroke-linejoin:round;stroke-miterlimit:2;"><g><g><path d="M65.114,0.984c-0.414,0.412 -0.874,5.768 -1.022,11.901c-0.147,6.134 -0.645,12.87 -1.105,14.969c-0.796,3.624 -1.146,3.817 -6.989,3.817l-6.152,-0l0,-6.077c0,-10.947 -1.419,-17.681 -4.023,-19.075c-4.006,-2.142 -6.175,-0.535 -4.657,3.458c0.711,1.871 1.633,7.8 2.047,13.174c0.608,7.89 0.417,9.773 -0.994,9.784c-0.962,0.007 -3.832,0.359 -6.378,0.78l-4.627,0.764l-0.372,-8.593l-0.373,-8.594l-4.68,-1.154c-5.693,-1.406 -6.698,-0.605 -4.922,3.929c0.75,1.912 1.722,6.073 2.16,9.246l0.798,5.767l-11.369,0.89c-12.639,0.989 -14.724,2.892 -7.132,6.513c3.904,1.861 4.706,1.86 10.224,-0.02c3.294,-1.122 6.733,-2.042 7.641,-2.042c2.328,0 2.133,20.238 -0.26,26.879c-2.207,6.13 -2.28,8.432 -0.337,10.376c1.975,1.975 3.634,1.893 6.822,-0.34c4.365,-3.057 19.831,-4.795 35.436,-3.981c17.155,0.897 19.983,-0.084 14.423,-4.996c-4.065,-3.59 -1.87,-3.534 -35.82,-0.917l-10.766,0.83l-0.909,-14.024c-0.499,-7.712 -0.719,-14.184 -0.486,-14.387c0.234,-0.203 3.098,-0.759 6.363,-1.233c5.676,-0.824 5.94,-0.727 5.94,2.143c0,1.652 -0.762,5.532 -1.694,8.625c-1.334,4.436 -1.373,6.064 -0.175,7.702c1.905,2.605 3.468,2.606 8.494,0.006c2.2,-1.14 7.095,-2.413 10.877,-2.829l6.877,-0.758l-0.375,-4.361c-0.208,-2.399 -0.026,-6.271 0.403,-8.607l0.781,-4.249l14.285,0.816c13.104,0.747 14.282,0.635 14.246,-1.378c-0.056,-3.084 -5.936,-7.024 -10.501,-7.035c-2.111,-0.005 -6.792,0.453 -10.403,1.015c-6.368,0.994 -6.563,0.937 -6.542,-1.949c0.013,-1.635 0.858,-6.914 1.877,-11.727c1.02,-4.812 1.854,-9.44 1.854,-10.283c-0,-1.764 -7.359,-5.906 -8.487,-4.777l0.002,0.002Zm-2.72,35.549l-0.826,5.383c-0.454,2.961 -0.901,5.492 -0.998,5.627c-0.096,0.134 -2.578,0.784 -5.514,1.443l-5.337,1.198l0.372,-6.444l0.375,-6.443l5.965,-0.38l5.963,-0.384Z" style="fill:#f00;fill-rule:nonzero;"/></g></g></svg>