<?xml version="1.0" encoding="UTF-8" standalone="no"?><!DOCTYPE svg PUBLIC "-//W3C//DTD SVG 1.1//EN" "http://www.w3.org/Graphics/SVG/1.1/DTD/svg11.dtd"><svg width="100%" height="100%" viewBox="0 0 89 66" version="1.1" xmlns="http://www.w3.org/2000/svg" xmlns:xlink="http://www.w3.org/1999/xlink" xml:space="preserve" xmlns:serif="http://www.serif.com/" style="fill-rule:evenodd;clip-rule:evenodd;stroke-linejoin:round;stroke-miterlimit:2;"><g><path d="M58.21,0.81c-0.83,0.111 -1.34,0.377 -1.34,0.83c0,0.461 0.92,1.863 2.05,3.113c1.13,1.251 2.33,5.152 2.67,8.67c0.67,6.897 -0.44,8.578 -5.66,8.613c-2.45,0.017 -2.82,-0.627 -2.82,-4.912c0,-3.677 -0.7,-5.423 -2.775,-6.875c-4.409,-3.089 -6.417,-2.533 -5.375,1.49c0.49,1.891 0.978,5.363 1.084,7.713c0.209,4.612 -0.197,4.868 -10.9,6.869c-4.794,0.897 -4.836,0.87 -4.152,-2.619c0.38,-1.938 0.871,-4.606 1.092,-5.931c0.52,-3.125 -6.776,-8.219 -11.771,-8.219l-3.678,0l3.236,3.848c2.503,2.974 3.239,5.213 3.239,9.877l0,6.029l-6.34,1.521c-3.486,0.837 -8.55,1.167 -11.252,0.735c-5.413,-0.866 -5.889,-0.204 -2.912,4.047c3.346,4.777 7.423,5.571 13.895,2.709c3.122,-1.381 5.886,-2.51 6.142,-2.51c0.257,-0 0.467,4.135 0.467,9.189c0,11.2 1.713,16.546 6.071,18.939c2.482,1.364 7.192,1.745 18.918,1.533c14.161,-0.256 15.651,-0.5 16.061,-2.632c0.75,-3.919 -2.32,-4.658 -16.046,-3.858c-17.688,1.031 -17.993,0.79 -18.553,-14.678l-0.424,-11.713l16.477,-3.941l0.017,4.517c0.025,5.815 1.509,8.121 4.596,7.141c2.423,-0.77 5.013,1.083 8.393,6.019c2.73,3.992 5.4,1.555 6.98,-6.375c3.22,-16.126 2.11,-14.722 11.94,-15.146c9.63,-0.416 11.87,-1.559 9.25,-4.72c-1.4,-1.686 -3.32,-1.961 -10.2,-1.469c-9.49,0.68 -9.59,0.573 -6.98,-8.107c1.39,-4.646 1.29,-5.113 -1.57,-7.307c-2.16,-1.66 -7.36,-2.725 -9.83,-2.391l0,0.001Zm-1.03,25.934c3.12,-0.46 3.43,-0.15 3.43,3.416c0,4.749 -2.33,7.909 -5.33,7.217c-1.72,-0.397 -2.14,-1.577 -1.88,-5.319c0.29,-4.184 0.78,-4.874 3.78,-5.314Z" style="fill:#800000;fill-rule:nonzero;"/></g></svg>