<?xml version="1.0" encoding="UTF-8" standalone="no"?><!DOCTYPE svg PUBLIC "-//W3C//DTD SVG 1.1//EN" "http://www.w3.org/Graphics/SVG/1.1/DTD/svg11.dtd"><svg width="100%" height="100%" viewBox="0 0 69 93" version="1.1" xmlns="http://www.w3.org/2000/svg" xmlns:xlink="http://www.w3.org/1999/xlink" xml:space="preserve" xmlns:serif="http://www.serif.com/" style="fill-rule:evenodd;clip-rule:evenodd;stroke-linejoin:round;stroke-miterlimit:2;"><g><g><path d="M49.852,0.295c-1.312,-0.087 -2.3,0.302 -2.3,1.21c0,0.718 -2.525,4.011 -5.626,7.319c-3.088,3.308 -5.626,6.659 -5.626,7.448c0,2.136 0.75,1.881 10.79,-3.655c9.439,-5.212 11.026,-7.632 7.026,-10.674c-1.313,-0.996 -2.951,-1.561 -4.264,-1.648Zm-31.842,4.909c-4.251,-0 -3.701,2.926 1.525,8.153c5.001,5 7.201,5.095 7.776,0.334c0.45,-3.793 -4.7,-8.487 -9.301,-8.487Zm45.682,11.961c-1.062,-0.092 -2.55,-0.078 -4.626,0.052c-4.15,0.261 -10.626,0.989 -20.665,2.26c-14.04,1.775 -28.13,3.231 -31.318,3.231c-3.188,-0 -5.788,0.352 -5.788,0.782c-0,2.046 9.276,23.858 10.964,25.783c2.125,2.422 3.613,2.786 4.238,1.042c0.525,-1.452 28.017,-4.191 36.531,-3.641l6.401,0.411l3.976,-7.501c4.488,-8.449 5.626,-19.094 2.325,-21.83c-0.35,-0.296 -0.988,-0.495 -2.05,-0.589l0.012,0Zm-10.977,5.543c8.452,-0 8.452,-0.015 4.826,10.696c-2.363,7.023 -2.725,7.432 -6.563,7.449c-2.226,0.01 -6.439,0.44 -9.364,0.954c-5.039,0.884 -5.314,0.778 -5.314,-2.073c0,-3.328 1.976,-4.482 7.914,-4.613c2.188,-0.049 5.026,-0.501 6.301,-1.008c2.25,-0.882 2.25,-1.009 0.113,-3.148c-1.763,-1.761 -3.363,-2.059 -7.652,-1.416c-5.138,0.77 -5.425,0.65 -5.425,-2.234c-0,-3.568 3.425,-4.609 15.164,-4.609l0,0.002Zm-23.916,2.714c1.325,0.249 1.25,1.236 1.025,3.192c-0.337,2.918 -1.175,3.555 -5.788,4.462c-6.814,1.34 -6.276,4.008 0.825,4.008c4.838,-0 5.188,0.237 5.188,3.438c0,3.335 -0.2,3.439 -6.913,3.439c-4.426,0 -7.101,-0.564 -7.439,-1.563c-0.275,-0.859 -1.338,-4.429 -2.338,-7.933l-1.813,-6.372l7.839,-1.442c5.363,-0.99 8.089,-1.478 9.414,-1.229Zm18.841,24.557l-0,0.003l-8.477,2.172c-4.675,1.195 -12.027,2.231 -16.34,2.302l-7.839,0.132l0.976,3.749c0.525,2.063 0.8,8.813 0.587,15c-0.287,8.684 0.075,11.826 1.563,13.753c1.888,2.441 1.988,2.443 3.75,0.149c1.376,-1.761 3.989,-2.505 10.44,-2.967l8.614,-0.615l2.787,4.53c3.226,5.213 5.401,5.68 8.152,1.75c1.463,-2.08 1.95,-6.031 1.95,-15.711c0,-7.113 0.563,-13.985 1.263,-15.278c1.037,-1.94 0.5,-2.928 -3.088,-5.66l-4.338,-3.309Zm-2.276,7.343c0.513,0.296 0.938,5.633 0.938,11.862c-0,11.18 -0.038,11.313 -2.813,10.409c-1.55,-0.503 -3.938,-0.969 -5.313,-1.035c-1.376,-0.065 -5.176,0.269 -8.439,0.745l-5.939,0.863l0,-8.342l8.989,-0.836c9.977,-0.928 10.389,-1.095 9.327,-3.846c-0.838,-2.184 -6.276,-2.486 -13.702,-0.764l-4.751,1.104l0.375,-3.943c0.387,-3.929 0.425,-3.948 10.389,-5.349c5.501,-0.774 10.427,-1.164 10.939,-0.868Z" style="fill:#f00;fill-rule:nonzero;"/></g></g></svg>