<?xml version="1.0" encoding="UTF-8" standalone="no"?><!DOCTYPE svg PUBLIC "-//W3C//DTD SVG 1.1//EN" "http://www.w3.org/Graphics/SVG/1.1/DTD/svg11.dtd"><svg width="100%" height="100%" viewBox="0 0 62 73" version="1.1" xmlns="http://www.w3.org/2000/svg" xmlns:xlink="http://www.w3.org/1999/xlink" xml:space="preserve" xmlns:serif="http://www.serif.com/" style="fill-rule:evenodd;clip-rule:evenodd;stroke-linejoin:round;stroke-miterlimit:2;"><g><path d="M44.72,0.344c-0.67,0 -5.92,1.786 -11.66,3.967l-10.44,3.967l-2.99,-2.811c-3.63,-3.403 -5.11,-1.832 -3.97,4.209c1.21,6.482 3.78,7.895 8.29,4.563c2.04,-1.513 6.29,-3.851 9.43,-5.197l5.71,-2.448l-3.98,5.024c-2.19,2.763 -8.17,8.81 -13.28,13.439c-9.83,8.893 -15.47,12.117 -16.4,9.355c-0.28,-0.859 -1.31,-1.562 -2.29,-1.562c-2.41,0 -2.29,6.192 0.18,9.722c2.53,3.623 5.67,3.521 9.26,-0.303c2.38,-2.536 13.77,-8.115 23.58,-11.555c1.15,-0.403 0.04,1.459 -2.46,4.139c-6.31,6.763 -8.71,12.091 -8.77,19.492c-0.06,7.408 2.56,11.767 9.03,15.07c5.35,2.724 15.27,2.903 17.42,0.315c2.44,-2.945 -0.57,-5.449 -7.68,-6.393c-3.39,-0.45 -7.61,-1.958 -9.38,-3.352c-2.87,-2.256 -3.16,-3.206 -2.63,-8.671c0.63,-6.558 5.26,-14.464 10.94,-18.668c1.72,-1.273 6.64,-2.934 10.94,-3.69c4.3,-0.756 7.81,-1.791 7.81,-2.299c0,-0.507 -1.1,-1.92 -2.45,-3.14c-2.89,-2.611 -4.53,-2.393 -21.88,2.908c-6.86,2.093 -12.65,3.618 -12.88,3.389c-0.82,-0.819 22.33,-19.469 24.16,-19.469c3.26,0 3.52,-3.718 0.49,-6.94c-1.58,-1.684 -3.43,-3.062 -4.1,-3.062l0,0.001Z" style="fill-rule:nonzero;"/></g></svg>