<?xml version="1.0" encoding="UTF-8" standalone="no"?><!DOCTYPE svg PUBLIC "-//W3C//DTD SVG 1.1//EN" "http://www.w3.org/Graphics/SVG/1.1/DTD/svg11.dtd"><svg width="100%" height="100%" viewBox="0 0 89 85" version="1.1" xmlns="http://www.w3.org/2000/svg" xmlns:xlink="http://www.w3.org/1999/xlink" xml:space="preserve" xmlns:serif="http://www.serif.com/" style="fill-rule:evenodd;clip-rule:evenodd;stroke-linejoin:round;stroke-miterlimit:2;"><g><g><path d="M31.764,1.173c-1.336,0.748 -1.203,3.04 0.543,6.798c1.159,2.494 1.506,6.843 1.117,13.902c-0.64,11.588 0.417,10.603 -13.812,12.891c-7.376,1.185 -9.054,1.864 -8.726,3.532c0.311,1.587 1.84,2.061 6.63,2.06c3.424,-0.001 7.991,-0.395 10.145,-0.878l3.916,-0.874l-1.171,5.254c-2.939,13.216 -11.653,25.71 -23.511,33.716c-3.109,2.101 -5.852,3.972 -6.093,4.158c-0.242,0.187 -0.085,0.912 0.345,1.608c1.654,2.676 14.212,-3.495 22.36,-10.987l3.514,-3.23l5.336,6.148c5.749,6.628 9.515,7.22 9.515,1.493c0,-3.187 -5.425,-8.701 -9.984,-10.149c-2.383,-0.756 -2.405,-0.973 -0.473,-4.711c1.114,-2.155 2.94,-6.606 4.057,-9.893l2.032,-5.974l6.626,10.914c3.645,6.003 9.579,14.571 13.183,19.039l6.555,8.125l11.506,0c6.628,0 11.639,-0.53 11.819,-1.25c0.171,-0.687 -4.736,-3.924 -10.903,-7.191c-6.566,-3.478 -13.985,-8.66 -17.898,-12.502c-7.063,-6.935 -19.019,-22.257 -19.019,-24.375c-0,-1.564 6.005,-2.811 13.596,-2.824c3.18,-0.007 8.736,-0.368 12.346,-0.8c7.82,-0.941 8.611,-3.256 2.167,-6.329c-3.905,-1.863 -5.454,-1.918 -13.947,-0.49c-5.254,0.883 -10.309,1.898 -11.232,2.252c-1.114,0.427 -1.679,-0.349 -1.674,-2.303c0.008,-3.245 1.971,-15.189 3.176,-19.332c0.606,-2.086 -0.179,-3.189 -3.781,-5.315c-4.119,-2.43 -6.922,-3.229 -8.259,-2.481l-0.001,-0.002Z" style="fill:#f00;fill-rule:nonzero;"/></g></g></svg>