<?xml version="1.0" encoding="UTF-8" standalone="no"?><!DOCTYPE svg PUBLIC "-//W3C//DTD SVG 1.1//EN" "http://www.w3.org/Graphics/SVG/1.1/DTD/svg11.dtd"><svg width="100%" height="100%" viewBox="0 0 61 70" version="1.1" xmlns="http://www.w3.org/2000/svg" xmlns:xlink="http://www.w3.org/1999/xlink" xml:space="preserve" xmlns:serif="http://www.serif.com/" style="fill-rule:evenodd;clip-rule:evenodd;stroke-linejoin:round;stroke-miterlimit:2;"><g><path d="M20.336,0.112c-0.915,-0.232 -1.599,-0.259 -1.865,0.006c-0.38,0.38 0.326,2.584 1.572,4.897c2.439,4.528 2.117,13.586 -0.578,16.277c-0.821,0.82 -5.292,1.357 -10.67,1.283c-8.376,-0.115 -9.148,0.078 -8.11,2.018c1.641,3.065 8.124,5.422 12.502,4.547c2.059,-0.412 3.745,-0.509 3.745,-0.215c-0,1.432 -9.477,21.847 -11.994,25.838c-2.757,4.369 -3.623,7.813 -3.204,12.727c0.124,1.442 0.997,2.13 2.381,1.875c2.518,-0.465 6.621,-8.453 14.193,-27.629c2.926,-7.41 5.924,-13.921 6.661,-14.471c0.736,-0.55 7.245,-2.553 14.465,-4.45c14.066,-3.696 16.493,-4.908 15.42,-7.705c-0.993,-2.585 -5.191,-2.211 -16.654,1.487c-5.578,1.799 -10.405,3.009 -10.727,2.687c-0.322,-0.321 0.518,-3.049 1.867,-6.062c2.31,-5.16 2.33,-5.619 0.336,-7.862c-1.783,-2.004 -6.596,-4.549 -9.34,-5.248Zm16.79,30.686c-0.986,0.504 0.513,2.939 5.326,6.883c7.201,5.901 8.385,8.657 3.235,7.526c-5.444,-1.196 -4.646,1.113 1.664,4.81c2.977,1.745 6.147,4.055 7.043,5.135c1.923,2.317 5.047,0.478 5.047,-2.971c-0,-3.702 -6.227,-11.849 -12.74,-16.668c-5.12,-3.788 -8.589,-5.218 -9.575,-4.715Zm-9.902,12.641c-0.609,-0.111 -1.593,0.893 -2.588,3.078c-2.025,4.444 -1.809,10.75 0.48,14.018c1.062,1.517 4.579,3.573 7.814,4.569c7.672,2.36 8.94,2.367 9.825,0.06c0.92,-2.399 -2.942,-6.828 -5.953,-6.828c-3.677,0 -8.515,-2.712 -9.311,-5.219c-0.408,-1.286 -0.374,-4.015 0.076,-6.062c0.5,-2.276 0.265,-3.503 -0.344,-3.615l0.001,-0.001Z" style="fill:#800000;fill-rule:nonzero;"/></g></svg>