<?xml version="1.0" encoding="UTF-8" standalone="no"?><!DOCTYPE svg PUBLIC "-//W3C//DTD SVG 1.1//EN" "http://www.w3.org/Graphics/SVG/1.1/DTD/svg11.dtd"><svg width="100%" height="100%" viewBox="0 0 90 83" version="1.1" xmlns="http://www.w3.org/2000/svg" xmlns:xlink="http://www.w3.org/1999/xlink" xml:space="preserve" xmlns:serif="http://www.serif.com/" style="fill-rule:evenodd;clip-rule:evenodd;stroke-linejoin:round;stroke-miterlimit:2;"><g><g><path d="M25.159,1.209c-0.453,0.46 -0.499,1.537 -0.499,3.6c0,6.736 -3.243,14.395 -10.039,23.709c-3.418,4.684 -6.215,8.786 -6.215,9.115c0,1.834 3.956,0.038 8.522,-3.87c2.871,-2.458 6.194,-4.28 7.387,-4.05c3.024,0.582 4.872,6.427 3.377,10.679c-1.113,3.165 -2.103,3.579 -13.68,5.707c-6.865,1.263 -12.94,2.741 -13.5,3.292c-1.781,1.751 2.917,5.092 7.163,5.092c2.249,-0 7.273,-1.094 11.163,-2.432c5.193,-1.786 7.072,-2.019 7.072,-0.871c0,4.112 -7.141,15.11 -13.836,21.307c-4.079,3.777 -7.417,7.18 -7.417,7.56c-0,1.432 4.557,0.61 8.314,-1.498c9.551,-5.357 15.257,-12.412 18.994,-23.483c2.712,-8.037 1.678,-7.339 14.886,-10.053c1.548,-0.318 2.813,-1.374 2.813,-2.346c0,-2.446 -4.018,-3.484 -9.502,-2.455c-4.461,0.836 -4.581,0.761 -3.809,-2.318c0.44,-1.75 1.143,-4.076 1.563,-5.171c0.42,-1.095 0.142,-1.994 -0.619,-1.994c-0.761,0 -1.385,-0.472 -1.385,-1.05c-0,-0.579 3.093,-1.744 6.875,-2.59c4.492,-1.006 6.877,-2.172 6.877,-3.363c0,-3.1 -3.656,-3.455 -13.492,-1.321c-5.2,1.129 -9.697,1.803 -9.994,1.506c-0.298,-0.297 0.571,-2.12 1.931,-4.051c1.361,-1.93 3.65,-5.829 5.086,-8.669c2.459,-4.861 2.488,-5.28 0.476,-7.092c-1.175,-1.059 -3.683,-2.316 -5.573,-2.787c-1.629,-0.406 -2.488,-0.561 -2.94,-0.101l0.001,-0.002Zm52.646,28.615c-1.973,0.052 -4.612,0.681 -9.619,1.934c-5.784,1.445 -11.977,2.27 -13.979,1.859c-3.554,-0.729 -3.588,-0.68 -2.9,4.127c0.381,2.675 1.357,10.489 2.169,17.365c0.812,6.876 1.995,13.489 2.632,14.691c1.737,3.29 3.54,2.64 4.384,-1.58c0.84,-4.199 1.434,-4.424 14.771,-5.596c4.791,-0.42 8.978,-1.031 9.303,-1.356c0.326,-0.327 -0.308,-1.49 -1.408,-2.591c-1.814,-1.814 -1.823,-2.599 -0.099,-8.41c1.047,-3.524 2.966,-7.907 4.266,-9.736c3.044,-4.278 2.112,-6.466 -3.899,-9.178c-2.343,-1.056 -3.65,-1.582 -5.622,-1.529l0.001,-0Zm-4.577,7.459l-0,0.002c1.465,0.016 2.461,0.206 2.828,0.573c1.959,1.958 -1.466,19.124 -3.818,19.14c-1.063,0.008 -4.005,0.355 -6.538,0.773c-4.444,0.735 -4.629,0.618 -5.398,-3.478c-0.436,-2.333 -0.618,-6.764 -0.398,-9.842l0.398,-5.596l7.281,-1.093c2.245,-0.337 4.18,-0.496 5.645,-0.479Zm-36.972,18.491c-2.863,-0.356 -1.499,2.296 4.042,9.823c6.626,9.002 9.379,9.839 9.379,2.856c-0,-5.277 -3.052,-9.078 -9.146,-11.387c-1.895,-0.719 -3.32,-1.172 -4.275,-1.29l-0,-0.002Z" style="fill:#f00;fill-rule:nonzero;"/></g></g></svg>