<?xml version="1.0" encoding="UTF-8" standalone="no"?><!DOCTYPE svg PUBLIC "-//W3C//DTD SVG 1.1//EN" "http://www.w3.org/Graphics/SVG/1.1/DTD/svg11.dtd"><svg width="100%" height="100%" viewBox="0 0 82 63" version="1.1" xmlns="http://www.w3.org/2000/svg" xmlns:xlink="http://www.w3.org/1999/xlink" xml:space="preserve" xmlns:serif="http://www.serif.com/" style="fill-rule:evenodd;clip-rule:evenodd;stroke-linejoin:round;stroke-miterlimit:2;"><g><path d="M23.776,0.859c-0.976,-0.148 -1.639,0.049 -2.156,0.566c-1.034,1.034 -1.01,1.793 0.097,2.9c1.644,1.644 1.92,6.097 0.743,11.982c-0.992,4.958 -6.689,6.272 -14.182,3.274c-5.654,-2.262 -6.925,-1.904 -5.803,1.633c1.188,3.742 7.863,7.003 12.723,6.214l4.236,-0.687l-1.973,4.607c-1.084,2.534 -2.272,5.34 -2.64,6.235c-0.369,0.894 0.443,2.862 1.803,4.375c4.297,4.778 4.237,5.557 -0.891,11.482c-2.759,3.187 -5.016,6.606 -5.016,7.595c-0,0.99 0.705,1.799 1.567,1.799c3.065,-0 18.585,-4.885 25.332,-7.974c5.7,-2.61 6.857,-3.678 6.857,-6.334c0,-3.853 -0.758,-3.938 -5.627,-0.633c-4.133,2.805 -10.691,5.89 -15.83,7.445l-3.33,1.008l3.873,-5.492l3.871,-5.494l-5.957,-6.344l2.291,-6.744l2.293,-6.746l8.176,-1.424c11.239,-1.957 16.79,-4.411 16.264,-7.19c-0.564,-2.978 -7.268,-3.548 -12.133,-1.033c-3.65,1.888 -8.895,2.642 -8.895,1.279c-0,-0.368 0.889,-2.024 1.973,-3.679c3.069,-4.684 1.839,-8.444 -3.635,-11.117c-1.767,-0.863 -3.055,-1.356 -4.031,-1.504l0,0.001Zm38.21,22.783c-1.497,-1.585 -16.256,14.06 -16.256,17.232c0,1.935 5.211,0.282 9.961,-3.158l5.336,-3.865l5.478,5.375c3.013,2.957 5.479,5.83 5.479,6.384c-0,0.856 -6.328,5.287 -8.971,6.282c-0.464,0.174 -1.026,1.129 -1.25,2.123c-0.257,1.142 0.97,2.107 3.344,2.629c4.021,0.883 14.432,0.122 15.881,-1.163c0.483,-0.428 0.483,-3.48 0,-6.783c-0.805,-5.499 -1.563,-6.557 -8.998,-12.553c-4.466,-3.601 -8.316,-7.648 -8.559,-8.994c-0.242,-1.346 -0.893,-2.925 -1.445,-3.51l0,0.001Z" style="fill:#800000;fill-rule:nonzero;"/></g></svg>