<?xml version="1.0" encoding="UTF-8" standalone="no"?><!DOCTYPE svg PUBLIC "-//W3C//DTD SVG 1.1//EN" "http://www.w3.org/Graphics/SVG/1.1/DTD/svg11.dtd"><svg width="100%" height="100%" viewBox="0 0 73 52" version="1.1" xmlns="http://www.w3.org/2000/svg" xmlns:xlink="http://www.w3.org/1999/xlink" xml:space="preserve" xmlns:serif="http://www.serif.com/" style="fill-rule:evenodd;clip-rule:evenodd;stroke-linejoin:round;stroke-miterlimit:2;"><g><path d="M47.542,0.676c-5.41,0.364 -11.462,1.643 -17.613,3.799c-18.765,6.577 -19.996,6.837 -24.381,5.182c-2.176,-0.822 -4.179,-1.271 -4.451,-0.998c-1.21,1.209 4.343,7.461 7.974,8.978c3.824,1.598 4.584,1.379 16.52,-4.771c14.51,-7.477 24.169,-9.145 31.369,-5.422c5.116,2.645 8.125,9.36 6.975,15.568c-1.981,10.689 -10.283,17.643 -27.814,23.293c-5.673,1.828 -10.314,3.871 -10.314,4.539c0,1.705 12.546,0.079 22.787,-2.953c15.256,-4.517 23.792,-14.202 23.969,-27.195c0.082,-6.066 -0.459,-7.913 -3.49,-11.887c-1.974,-2.588 -5.464,-5.489 -7.758,-6.448c-3.59,-1.5 -8.361,-2.049 -13.771,-1.685l-0.002,0Z" style="fill-rule:nonzero;"/></g></svg>