<?xml version="1.0" encoding="UTF-8" standalone="no"?><!DOCTYPE svg PUBLIC "-//W3C//DTD SVG 1.1//EN" "http://www.w3.org/Graphics/SVG/1.1/DTD/svg11.dtd"><svg width="100%" height="100%" viewBox="0 0 73 87" version="1.1" xmlns="http://www.w3.org/2000/svg" xmlns:xlink="http://www.w3.org/1999/xlink" xml:space="preserve" xmlns:serif="http://www.serif.com/" style="fill-rule:evenodd;clip-rule:evenodd;stroke-linejoin:round;stroke-miterlimit:2;"><g><g><path d="M59.762,1.236c-1.304,0.753 -1.217,3.076 0.432,6.871c2.759,6.356 4.009,45.133 1.879,58.338c-1.284,7.955 -1.207,9.872 0.59,14.362c1.14,2.849 2.836,5.182 3.769,5.182c3.743,-0 4.317,-5.067 4.214,-37.145c-0.056,-17.733 0.25,-34.492 0.678,-37.242c0.733,-4.705 0.515,-5.169 -3.648,-7.815c-3.914,-2.487 -6.61,-3.303 -7.914,-2.551Zm-43.007,10.991c-2.129,-0 -2.418,0.499 -1.645,2.811c0.518,1.548 1.203,8.442 1.524,15.317c0.89,19.07 -1.566,27.465 -11.759,40.215c-2.292,2.867 -4.167,5.82 -4.167,6.563c-0,1.768 0.696,1.709 4.751,-0.415c13.149,-6.888 20.205,-25.701 20.244,-53.976c0.009,-6.948 -0.268,-7.74 -3.174,-9.064c-1.752,-0.797 -4.351,-1.451 -5.774,-1.451Zm23.454,2.835c-0.941,-0.185 -1.801,-0.195 -2.352,0.016c-1.635,0.628 -1.781,1.526 -0.801,4.896c1.485,5.105 1.662,16.797 0.503,33.151c-0.623,8.766 -0.444,13.295 0.597,15.242c0.815,1.524 2.148,2.554 2.961,2.289c3.454,-1.124 4.413,-7.091 4.762,-29.658l0.357,-23.112l-3.188,-1.786c-0.876,-0.493 -1.899,-0.853 -2.839,-1.038Z" style="fill:#f00;fill-rule:nonzero;"/></g></g></svg>