<?xml version="1.0" encoding="UTF-8" standalone="no"?><!DOCTYPE svg PUBLIC "-//W3C//DTD SVG 1.1//EN" "http://www.w3.org/Graphics/SVG/1.1/DTD/svg11.dtd"><svg width="100%" height="100%" viewBox="0 0 65 73" version="1.1" xmlns="http://www.w3.org/2000/svg" xmlns:xlink="http://www.w3.org/1999/xlink" xml:space="preserve" xmlns:serif="http://www.serif.com/" style="fill-rule:evenodd;clip-rule:evenodd;stroke-linejoin:round;stroke-miterlimit:2;"><g><path d="M56.34,1.392c-3.09,-0.06 -6.65,0.223 -9.27,0.875c-4.84,1.2 -5.09,1.252 -17.121,3.545c-6.482,1.235 -21.695,3.534 -26.602,4.021c-0.878,0.087 -1.394,0.769 -1.146,1.514c0.29,0.868 5.124,1.306 13.475,1.221c12.026,-0.123 14.892,-0.407 23.65,-2.346c1.724,-0.381 5.094,-1.019 7.504,-1.418c2.41,-0.399 4.85,-1.018 5.43,-1.377c1.67,-1.023 -1.42,4.431 -8.4,14.807c-4.453,6.622 -7.172,9.521 -8.909,9.5c-5.942,-0.073 -13.129,0.911 -13.129,1.797c-0,1.897 5.364,3.781 9.416,3.308l4.129,-0.482l-1.772,3.426c-0.974,1.884 -1.771,6.287 -1.771,9.787c-0,11.388 6.488,19.901 17.056,22.385c8.95,2.101 12.95,1.374 12.95,-2.35c0,-3.138 -2.45,-4.78 -8.57,-5.76c-11.49,-1.836 -18.164,-10.883 -15.266,-20.678c2.078,-7.024 2.708,-7.278 21.026,-8.484c0.86,-0.057 1.56,-1.167 1.56,-2.469c0,-2.887 -1.71,-3.569 -7.82,-3.121c-2.57,0.189 -4.68,0.053 -4.68,-0.303c0,-0.355 3.11,-3.905 6.91,-7.888c6.39,-6.704 6.81,-7.5 5.59,-10.689c-1.08,-2.836 -0.91,-3.732 0.91,-5.065c1.21,-0.89 1.78,-2.05 1.25,-2.578c-0.72,-0.716 -3.32,-1.118 -6.4,-1.177l0,-0.001Z" style="fill:#800000;fill-rule:nonzero;"/></g></svg>