<?xml version="1.0" encoding="UTF-8" standalone="no"?><!DOCTYPE svg PUBLIC "-//W3C//DTD SVG 1.1//EN" "http://www.w3.org/Graphics/SVG/1.1/DTD/svg11.dtd"><svg width="100%" height="100%" viewBox="0 0 74 78" version="1.1" xmlns="http://www.w3.org/2000/svg" xmlns:xlink="http://www.w3.org/1999/xlink" xml:space="preserve" xmlns:serif="http://www.serif.com/" style="fill-rule:evenodd;clip-rule:evenodd;stroke-linejoin:round;stroke-miterlimit:2;"><g><path d="M21.07,2.075c-1.84,0 -1.41,11.678 0.61,16.514c0.99,2.376 2.18,7.146 2.64,10.598c0.82,6.191 0.78,6.287 -2.84,7.01c-4.66,0.932 -15.67,10.768 -18.33,16.367c-3.78,7.975 -1.78,19.86 3.91,23.174c1.32,0.771 14.65,1.29 33.76,1.313c27.38,0.033 31.56,-0.213 31.56,-1.856c0,-1.041 -1.83,-3.04 -4.06,-4.439c-3.67,-2.3 -5.39,-2.471 -17.81,-1.791c-7.57,0.413 -19.31,1.32 -26.09,2.015c-11.93,1.222 -12.44,1.171 -15.32,-1.533c-4.24,-3.982 -3.88,-9.496 1.09,-16.82c4.48,-6.618 8.62,-10.032 13.58,-11.205c3.03,-0.719 3.37,-0.36 4.72,5.027c1.12,4.415 1.98,5.703 3.61,5.381c3.12,-0.612 2.66,-8.904 -1.31,-24.125c-2.17,-8.299 -3.04,-14.202 -2.59,-17.557c0.62,-4.56 0.36,-5.2 -2.63,-6.562c-1.82,-0.831 -3.85,-1.51 -4.5,-1.51l-0,-0.001Zm35.5,26.673c-0.88,-0.279 -2.09,-0.225 -3.97,0.056c-12.42,1.853 -17.72,3.867 -17.72,6.727c0,1.418 1.49,1.633 7.36,1.056c4.04,-0.397 8.12,-0.966 9.06,-1.261c0.94,-0.296 3.27,-0.879 5.17,-1.297c3.05,-0.669 3.3,-1.068 2.09,-3.334c-0.56,-1.056 -1.11,-1.669 -1.99,-1.948l-0,0.001Z" style="fill:#800000;fill-rule:nonzero;"/></g></svg>