<?xml version="1.0" encoding="UTF-8" standalone="no"?><!DOCTYPE svg PUBLIC "-//W3C//DTD SVG 1.1//EN" "http://www.w3.org/Graphics/SVG/1.1/DTD/svg11.dtd"><svg width="100%" height="100%" viewBox="0 0 52 72" version="1.1" xmlns="http://www.w3.org/2000/svg" xmlns:xlink="http://www.w3.org/1999/xlink" xml:space="preserve" xmlns:serif="http://www.serif.com/" style="fill-rule:evenodd;clip-rule:evenodd;stroke-linejoin:round;stroke-miterlimit:2;"><g><path d="M8.82,0.909c-0.49,0.633 0.31,2.104 2.33,4.506c2.97,3.538 3.28,4.88 3.28,14.512c0,5.837 0.56,11.663 1.25,12.947c1,1.865 0.74,2.495 -1.26,3.13c-1.38,0.438 -4.21,2.229 -6.3,3.983c-11.2,9.429 -9.54,26.463 2.97,30.361c4.85,1.511 35.26,0.436 38.62,-1.365c2.17,-1.162 2.23,-1.551 0.59,-4.006c-2.13,-3.174 -6.62,-3.401 -20.1,-1.016c-10.08,1.783 -18.9,0.789 -22.19,-2.498c-3.2,-3.196 -2.97,-9.675 0.49,-13.859c3.92,-4.759 16.37,-10.536 29.33,-13.611c6.04,-1.434 11.35,-3.206 11.8,-3.935c1.28,-2.077 -1.41,-6.765 -4.77,-8.295c-3.99,-1.818 -3.94,-1.832 -4.4,1.385c-0.32,2.183 -2.33,3.48 -9.45,6.105l-9.04,3.334l-1.09,-3.92c-0.62,-2.264 -0.58,-7.772 0.1,-13.033c1.36,-10.558 0.68,-11.993 -6.71,-14.207c-3.16,-0.947 -4.95,-1.151 -5.45,-0.517l-0,-0.001Z" style="fill-rule:nonzero;"/></g></svg>