<?xml version="1.0" encoding="UTF-8" standalone="no"?><!DOCTYPE svg PUBLIC "-//W3C//DTD SVG 1.1//EN" "http://www.w3.org/Graphics/SVG/1.1/DTD/svg11.dtd"><svg width="100%" height="100%" viewBox="0 0 67 75" version="1.1" xmlns="http://www.w3.org/2000/svg" xmlns:xlink="http://www.w3.org/1999/xlink" xml:space="preserve" xmlns:serif="http://www.serif.com/" style="fill-rule:evenodd;clip-rule:evenodd;stroke-linejoin:round;stroke-miterlimit:2;"><g><path d="M23.54,1.829c-0.881,0.695 -0.95,2.971 -0.521,7.072c0.611,5.853 0.347,7.67 -1.36,9.377c-2.612,2.612 -10.404,2.726 -13.742,0.201c-5.12,-3.872 -6.235,-0.302 -1.592,5.096c2.129,2.475 4.028,3.32 7.459,3.32l4.602,-0l-2.986,5.815c-1.643,3.197 -5.562,9.439 -8.709,13.871c-3.521,4.958 -5.723,9.406 -5.723,11.564c0,2.687 0.59,3.505 2.531,3.505c3.06,-0 10.206,-10.8 17.135,-25.896l4.713,-10.27l8.127,-2.857c6.34,-2.23 8.127,-3.408 8.127,-5.359c-0,-3.041 -5.296,-4.03 -9.629,-1.799c-2.374,1.223 -2.601,1.194 -1.31,-0.172c2.695,-2.852 1.85,-8.246 -1.733,-11.064c-2.816,-2.215 -4.508,-3.1 -5.388,-2.404l-0.001,-0Zm24.58,22.377c-8.185,-0.069 -9.45,1.628 -2.5,3.355l4.687,1.166l-4.589,1.981c-7.049,3.041 -8.962,6.887 -7.914,15.914l0.873,7.529l-7.721,-0c-6.866,-0 -8.125,0.404 -11.375,3.654c-6.045,6.045 -4.114,12.332 4.65,15.137c5.246,1.679 16.543,0.491 19.33,-2.031c1.305,-1.18 2.371,-3.21 2.371,-4.512c-0,-2.091 0.669,-1.908 5.75,1.588c5.03,3.46 5.977,3.729 7.567,2.139c2.844,-2.844 -0.127,-7.703 -6.996,-11.441c-5.501,-2.994 -5.968,-3.644 -7.1,-9.891c-1.48,-8.167 -0.133,-14.19 3.43,-15.32c1.441,-0.457 5.7,-0.446 9.463,0.024c6.647,0.83 6.829,0.773 6.427,-2.053c-0.58,-4.087 -7.534,-7.165 -16.354,-7.238l0.001,-0.001Zm-17.39,34.964c7.826,0.026 9.51,1.161 7.01,4.731c-1.533,2.187 -3.16,2.752 -7.953,2.752c-7.129,0 -10.069,-2.338 -6.912,-5.495c1.278,-1.278 4.13,-2 7.855,-1.988Z" style="fill-rule:nonzero;"/></g></svg>