<?xml version="1.0" encoding="UTF-8" standalone="no"?><!DOCTYPE svg PUBLIC "-//W3C//DTD SVG 1.1//EN" "http://www.w3.org/Graphics/SVG/1.1/DTD/svg11.dtd"><svg width="100%" height="100%" viewBox="0 0 91 87" version="1.1" xmlns="http://www.w3.org/2000/svg" xmlns:xlink="http://www.w3.org/1999/xlink" xml:space="preserve" xmlns:serif="http://www.serif.com/" style="fill-rule:evenodd;clip-rule:evenodd;stroke-linejoin:round;stroke-miterlimit:2;"><g><g><path d="M29.278,0.743l-0,0.002c-2.197,0 -2.559,0.721 -2.4,4.76c0.242,6.196 -6.727,19.592 -18.006,34.62c-4.646,6.189 -8.447,11.956 -8.447,12.815c-0.008,3.302 3.358,1.264 10.839,-6.556c4.273,-4.466 8.124,-7.548 8.557,-6.846c1.967,3.183 2.003,15.492 0.082,26.765c-2.006,11.763 -1.832,15.824 0.822,19.141c1.781,2.225 4.277,1.931 5.325,-0.625c0.492,-1.203 1.344,-12.034 1.891,-24.067c0.946,-20.738 0.867,-22.063 -1.502,-25.424l-2.499,-3.544l7.303,-10.833c4.017,-5.957 7.493,-11.253 7.72,-11.766c0.744,-1.669 -7.027,-8.442 -9.685,-8.442Zm40.561,22.8c-1.671,0.118 -3.559,0.408 -5.623,0.88c-3.807,0.869 -10.469,2.305 -14.805,3.189c-9.279,1.894 -10.454,2.73 -7.191,5.116c3.388,2.478 11.101,2.21 24.351,-0.84c9.374,-2.158 11.347,-3.023 11.347,-4.977c0,-2.537 -3.063,-3.727 -8.077,-3.368l-0.003,-0l0.001,-0Zm12.434,31.465c-1.567,-0.393 -10.074,0.435 -18.907,1.837c-8.835,1.403 -19.577,2.928 -23.875,3.391c-7.823,0.843 -9.382,2.178 -6.252,5.357c1.013,1.03 3.539,1.366 7.188,0.958c3.094,-0.348 15.19,-1.292 26.88,-2.102c11.689,-0.81 21.814,-2.013 22.502,-2.673c1.494,-1.433 -3.248,-5.692 -7.535,-6.768l-0.001,-0Z" style="fill:#f00;fill-rule:nonzero;"/></g></g></svg>