<?xml version="1.0" encoding="UTF-8" standalone="no"?><!DOCTYPE svg PUBLIC "-//W3C//DTD SVG 1.1//EN" "http://www.w3.org/Graphics/SVG/1.1/DTD/svg11.dtd"><svg width="100%" height="100%" viewBox="0 0 93 65" version="1.1" xmlns="http://www.w3.org/2000/svg" xmlns:xlink="http://www.w3.org/1999/xlink" xml:space="preserve" xmlns:serif="http://www.serif.com/" style="fill-rule:evenodd;clip-rule:evenodd;stroke-linejoin:round;stroke-miterlimit:2;"><g><path d="M23.84,1.537c-2.203,-0.414 -3.282,1.491 -3.395,5.838c-0.116,4.428 -6.96,19.156 -10.836,23.316c-1.31,1.406 -2.383,2.864 -2.383,3.236c-0,0.373 -0.984,1.762 -2.187,3.088c-5.383,5.931 -5.568,6.322 -3.393,7.156c1.289,0.495 3.24,-0.406 5.264,-2.43l3.215,-3.216l3.66,5.527c2.013,3.04 3.787,6.236 3.941,7.104c0.745,4.188 2.527,8.086 4.865,10.641c2.971,3.246 4.44,3.533 5.391,1.056c0.923,-2.405 -10.777,-26.998 -12.844,-26.998c-2.535,0 -2.013,-1.56 1.998,-5.951c2.013,-2.203 4.02,-5.141 4.461,-6.529c0.44,-1.388 1.265,-2.524 1.832,-2.524c0.567,0 1.35,-1.277 1.742,-2.838c0.392,-1.56 1.893,-4.105 3.336,-5.654c3.153,-3.384 2.442,-6.675 -2.084,-9.641c-0.99,-0.648 -1.85,-1.043 -2.584,-1.181l0.001,0Zm50.18,10.029c-1.662,-0.206 -3.967,-0.155 -7.401,0.09c-4.813,0.343 -11.566,0.789 -15.004,0.992c-3.438,0.203 -6.953,0.444 -7.812,0.535c-2.65,0.283 -1.735,2.491 1.875,4.522c2.723,1.532 6.021,1.792 15.857,1.256c18.232,-0.995 20.552,-1.857 16.023,-5.952c-0.859,-0.776 -1.878,-1.237 -3.539,-1.443l0.001,0Zm-39.395,34.545c-2,0.152 -3.635,0.774 -3.635,1.381c-0,2.473 4.354,8.24 6.779,8.978c1.428,0.435 11.452,0.937 22.275,1.118c10.823,0.18 19.953,0.605 20.289,0.941c0.944,0.944 11.916,0.767 11.916,-0.191c0,-1.531 -4.325,-5.759 -6.877,-6.725c-1.375,-0.52 -9.813,-0.842 -18.752,-0.713c-31.253,0.451 -29.834,0.577 -29.016,-2.555c0.557,-2.129 0.103,-2.469 -2.98,-2.234l0.001,0Z" style="fill:#800000;fill-rule:nonzero;"/></g></svg>