<?xml version="1.0" encoding="UTF-8" standalone="no"?><!DOCTYPE svg PUBLIC "-//W3C//DTD SVG 1.1//EN" "http://www.w3.org/Graphics/SVG/1.1/DTD/svg11.dtd"><svg width="100%" height="100%" viewBox="0 0 69 67" version="1.1" xmlns="http://www.w3.org/2000/svg" xmlns:xlink="http://www.w3.org/1999/xlink" xml:space="preserve" xmlns:serif="http://www.serif.com/" style="fill-rule:evenodd;clip-rule:evenodd;stroke-linejoin:round;stroke-miterlimit:2;"><g><path d="M29.65,0.893c-4.358,0 -4.664,0.732 -1.686,4.024c1.804,1.993 2.861,10.428 1.438,11.473c-0.239,0.175 -3.669,2.109 -7.623,4.298l-7.188,3.981l0,-4.217c0,-5.074 -3.741,-10.219 -8.254,-11.352c-4.409,-1.107 -4.874,-0.322 -2.21,3.742c1.23,1.878 2.863,6.552 3.628,10.385c1.344,6.727 1.258,7.182 -2.435,13.123c-3.15,5.068 -3.906,7.758 -4.283,15.225c-0.4,7.908 -0.122,9.406 2.172,11.699l0.002,-0c1.446,1.447 3.333,2.628 4.193,2.625c2.667,-0.008 9.449,-4.717 11.666,-8.101c1.92,-2.931 2.305,-3.049 4.228,-1.309c2.727,2.468 6.297,2.464 6.297,-0.006c0,-1.055 -0.911,-3.31 -2.025,-5.01c-1.899,-2.898 -1.85,-3.498 0.803,-9.644c1.555,-3.605 3.78,-9.931 4.945,-14.057l2.117,-7.5l5.94,-0.387c7.117,-0.462 10.779,1.594 13.662,7.67c2.155,4.543 2.597,10.352 1.287,16.904l-0.774,3.873l-7.039,-0.709c-3.908,-0.393 -8.579,-0.111 -10.5,0.637c-6.953,2.705 -7.046,13.089 -0.146,16.232c4.995,2.276 12.8,1.713 16.92,-1.221c3.487,-2.483 3.832,-2.513 6.039,-0.516c1.287,1.165 3.361,1.92 4.607,1.68c3.492,-0.672 3.49,-4.672 -0.004,-8.344c-2.948,-3.099 -3.092,-3.83 -2.207,-11.244c2.345,-19.638 -3.183,-28.185 -19.309,-29.85c-3.749,-0.387 -6.816,-0.869 -6.816,-1.072c0,-0.203 0.558,-1.84 1.242,-3.639c1.047,-2.753 0.759,-3.754 -1.818,-6.332c-1.909,-1.908 -4.496,-3.062 -6.869,-3.062l-0,0.001Zm-1.37,22.254c-0,0.584 -1.405,5.191 -3.121,10.236c-1.716,5.045 -3.324,9.376 -3.572,9.625c-0.846,0.845 -2.978,-2.718 -4.555,-7.61c-1.475,-4.573 -1.387,-5.022 1.4,-7.228c4.354,-3.447 9.848,-6.249 9.848,-5.024l-0,0.001Zm-17.27,15.254c0.228,0.342 1.753,3.284 3.389,6.537c2.819,5.606 2.865,6.077 0.908,9.064c-2.32,3.541 -6.348,4.172 -7.498,1.174c-1.387,-3.615 -0.785,-12.513 1.014,-14.973c0.975,-1.334 1.959,-2.146 2.187,-1.803l0,0.001Zm31.03,14.041c1.856,-0.271 4.069,0.052 6.379,1.009c4.239,1.756 4.575,3.11 1.215,4.909c-3.015,1.613 -8.85,1.644 -11.334,0.06c-1.448,-0.923 -1.562,-1.703 -0.498,-3.42c0.881,-1.423 2.381,-2.288 4.238,-2.558Z" style="fill-rule:nonzero;"/></g></svg>