<?xml version="1.0" encoding="UTF-8" standalone="no"?><!DOCTYPE svg PUBLIC "-//W3C//DTD SVG 1.1//EN" "http://www.w3.org/Graphics/SVG/1.1/DTD/svg11.dtd"><svg width="100%" height="100%" viewBox="0 0 89 87" version="1.1" xmlns="http://www.w3.org/2000/svg" xmlns:xlink="http://www.w3.org/1999/xlink" xml:space="preserve" xmlns:serif="http://www.serif.com/" style="fill-rule:evenodd;clip-rule:evenodd;stroke-linejoin:round;stroke-miterlimit:2;"><g><g><path d="M23.918,0.997c-0.925,0.068 -1.598,0.295 -1.854,0.709c-0.42,0.68 2.061,3.878 5.512,7.105c3.451,3.228 6.955,5.642 7.791,5.368c0.835,-0.275 1.694,-2.25 1.906,-4.389c0.297,-2.997 -0.317,-4.351 -2.68,-5.899c-2.861,-1.875 -7.902,-3.099 -10.675,-2.894Zm31.035,0.998c-2.304,-0 -2.627,0.536 -2.067,3.439c0.784,4.067 -3.634,17.453 -9.079,27.506c-2.086,3.853 -3.794,7.47 -3.794,8.035c0,1.946 1.779,1.019 6.197,-3.231c3.233,-3.109 6.984,-4.965 13.887,-6.876c13.651,-3.778 13.95,-3.719 11.797,2.383c-1.001,2.837 -1.242,5.002 -0.556,5.002c0.665,0 4.603,-2.318 8.754,-5.151c7.086,-4.837 7.422,-5.285 5.521,-7.386c-4.295,-4.746 -8.563,-5.422 -17.09,-2.702c-4.335,1.383 -9.479,2.87 -11.432,3.304l-3.547,0.785l4.484,-8.45c2.468,-4.647 4.489,-9.712 4.489,-11.257c-0,-3.066 -3.27,-5.401 -7.564,-5.401Zm-23.866,20.584c-1.387,0.184 -3.035,0.824 -5.634,2.013c-3.342,1.53 -9.873,3.385 -14.513,4.122c-4.641,0.737 -8.439,1.768 -8.439,2.287c-0,0.52 1.445,1.889 3.212,3.047c3.02,1.979 3.639,1.97 10.315,-0.133c3.906,-1.23 7.901,-2.543 8.88,-2.918c4.436,-1.698 -5.695,13.832 -17.203,26.373c-4.628,5.045 -7.487,9.085 -6.631,9.371c1.993,0.664 5.685,-1.849 14.309,-9.73l7.122,-6.508l0,7.7c0,4.233 -0.614,10.127 -1.361,13.099c-1.118,4.437 -0.999,6.101 0.657,9.304c4.417,8.542 6.681,3.216 7.079,-16.646c0.239,-11.991 -0.066,-14.93 -1.719,-16.584c-1.847,-1.845 -1.72,-2.428 1.535,-7.13c1.949,-2.815 5.011,-6.482 6.803,-8.149c4.246,-3.95 4.128,-6.935 -0.354,-8.791c-1.544,-0.64 -2.671,-0.91 -4.056,-0.727l-0.002,0Zm25.404,16.323c-1.312,0.394 -1.479,1.993 -0.063,4.527c1.635,2.928 2.504,28.808 1.018,30.309c-0.383,0.385 -2.828,0.113 -5.432,-0.605c-2.604,-0.719 -5.051,-0.989 -5.44,-0.601c-0.389,0.389 2.054,3.745 5.43,7.458c10.801,11.883 12.654,9.329 13.147,-18.098l0.347,-19.209l-4.078,-2.382c-1.255,-0.733 -2.351,-1.186 -3.252,-1.383c-0.675,-0.146 -1.24,-0.148 -1.677,-0.017l-0,0.001Zm-25.817,3.099c-1.693,0 -0.389,4.507 2.054,7.108c3.728,3.968 7.284,3.824 7.284,-0.295c-0,-2.458 -0.995,-3.605 -4.336,-5c-2.385,-0.996 -4.637,-1.813 -5.002,-1.813Zm40.35,6.253c-2.509,-0 -0.411,5.064 5.31,12.814c3.427,4.641 6.713,8.438 7.305,8.438c3.847,-0 4.415,-7.902 0.895,-12.401c-1.592,-2.033 -11.997,-8.85 -13.51,-8.85l0,-0.001Zm-24.754,2.499c-0.686,-0 -2.925,2.671 -4.977,5.938c-3.588,5.715 -4.699,10.228 -2.945,11.982c1.016,1.016 0.989,1.016 3.488,0.056c1.114,-0.426 2.845,-2.369 3.852,-4.314c2.07,-4.002 2.481,-13.662 0.582,-13.662Z" style="fill:#f00;fill-rule:nonzero;"/></g></g></svg>