<?xml version="1.0" encoding="UTF-8" standalone="no"?><!DOCTYPE svg PUBLIC "-//W3C//DTD SVG 1.1//EN" "http://www.w3.org/Graphics/SVG/1.1/DTD/svg11.dtd"><svg width="100%" height="100%" viewBox="0 0 91 71" version="1.1" xmlns="http://www.w3.org/2000/svg" xmlns:xlink="http://www.w3.org/1999/xlink" xml:space="preserve" xmlns:serif="http://www.serif.com/" style="fill-rule:evenodd;clip-rule:evenodd;stroke-linejoin:round;stroke-miterlimit:2;"><g><path d="M10.78,1.265c-1.754,0.346 -0.783,3.032 2.871,6.774c4.043,4.14 9.498,6.16 9.453,3.5c-0.003,-0.516 -0.016,-2.279 -0.016,-3.918c-0,-2.039 -0.89,-3.212 -2.814,-3.715c-3.746,-0.98 -3.66,-0.952 -6.832,-2.158c-1.192,-0.453 -2.078,-0.598 -2.662,-0.483Zm63.46,3.836c-2.52,-0.225 -5.18,0.949 -13.21,4.936c-12.598,6.252 -23.501,14.308 -30.642,22.639c-3.538,4.128 -4.874,4.975 -5.897,3.742c-0.974,-1.173 -0.222,-3.221 2.852,-7.766c2.296,-3.395 5.371,-7.244 6.834,-8.554c3.64,-3.26 3.338,-5.16 -1.114,-7.004c-3.332,-1.38 -4.609,-1.189 -10.939,1.644c-3.941,1.765 -10.141,3.602 -13.777,4.08c-6.984,0.92 -7.871,2.566 -2.765,5.133c2.426,1.22 4.304,0.954 10.973,-1.556c7.135,-2.686 7.951,-2.782 7.226,-0.848c-1.984,5.297 -9.182,15.735 -16.674,24.172c-4.478,5.044 -7.467,9.37 -6.66,9.639c1.786,0.595 9.41,-5.086 14.301,-10.656c1.978,-2.253 4.101,-4.094 4.717,-4.094c1.492,-0 1.432,12.051 -0.086,17.346c-0.892,3.109 -0.734,5.332 0.607,8.541c3.655,8.747 6.636,2.018 6.778,-15.303l0.072,-8.795l6.565,-6.463c3.61,-3.555 9.925,-8.974 14.035,-12.041l7.474,-5.574l1.59,3.787c2.61,6.21 2.02,9.463 -2.09,11.592c-7.997,4.134 -13.023,15.579 -7.32,16.666c1.475,0.281 3.073,-1.461 5.22,-5.691c1.7,-3.354 3.97,-6.834 5.06,-7.735c1.75,-1.45 1.97,-0.995 1.97,3.985c0,3.092 -0.34,7.308 -0.75,9.367c-0.73,3.674 -0.84,3.719 -5.67,2.492c-2.705,-0.687 -5.295,-0.875 -5.754,-0.416c-0.459,0.459 2.395,4.05 6.344,7.979l7.17,7.142l2.41,-3.125c1.96,-2.555 2.47,-5.595 2.76,-16.664l0.37,-13.539l8.47,6.414c4.66,3.528 9.15,7.51 9.99,8.85c1.84,2.946 4.13,3.149 5.16,0.459c2.34,-6.092 -1.47,-10.335 -15.67,-17.488c-6.94,-3.496 -8.49,-4.812 -8.25,-7.014c0.2,-1.835 -0.98,-3.587 -3.67,-5.43l-3.97,-2.722l4.32,-2.063c7.02,-3.348 8.15,-2.861 7.2,3.106c-1.02,6.352 -0.2,6.162 8.3,-1.904c7.11,-6.751 6.98,-7.901 -1.2,-10.623c-1,-0.334 -1.82,-0.566 -2.66,-0.641l0,-0.002Z" style="fill:#800000;fill-rule:nonzero;"/></g></svg>