<?xml version="1.0" encoding="UTF-8" standalone="no"?><!DOCTYPE svg PUBLIC "-//W3C//DTD SVG 1.1//EN" "http://www.w3.org/Graphics/SVG/1.1/DTD/svg11.dtd"><svg width="100%" height="100%" viewBox="0 0 72 73" version="1.1" xmlns="http://www.w3.org/2000/svg" xmlns:xlink="http://www.w3.org/1999/xlink" xml:space="preserve" xmlns:serif="http://www.serif.com/" style="fill-rule:evenodd;clip-rule:evenodd;stroke-linejoin:round;stroke-miterlimit:2;"><g><path d="M16.71,1.108c-0.88,0.412 -0.754,1.567 0.525,3.394c1.042,1.487 1.889,5.363 1.889,8.639c0,5.351 -0.375,6.134 -3.791,7.901c-4.272,2.209 -9.514,2.743 -12.773,1.302c-2.798,-1.236 -2.921,1.449 -0.242,5.274c2.438,3.48 5.417,3.513 11.162,0.123c2.475,-1.461 4.814,-2.342 5.197,-1.959c2.122,2.122 -8.54,20.442 -14.963,25.709c-2.556,2.096 -2.743,8.066 -0.314,10.082c1.455,1.208 2.706,0.112 6.871,-6.022c6.844,-10.078 7.603,-10.325 7.603,-2.474c0,5.113 -0.333,6.243 -1.5,5.076c-4.387,-4.388 -4.577,0.207 -0.353,8.543c5.655,11.16 8.105,7.091 8.105,-13.459l-0,-14.83l4.688,-4.395c11.848,-11.101 21.455,-14.283 26.846,-8.892c2.089,2.088 2.845,4.621 3.242,10.852c0.285,4.469 0.15,10.085 -0.299,12.479c-0.773,4.122 -0.994,4.285 -4.17,3.078c-5.188,-1.973 -14.986,-1.625 -18.467,0.656c-3.057,2.003 -3.934,5.811 -2.312,10.037c2.138,5.572 16.714,7.627 23.604,3.328c3.741,-2.334 3.758,-2.332 7.113,0.795c6.567,6.119 10.281,-0.555 3.86,-6.935c-3.316,-3.295 -3.392,-3.705 -3.014,-15.896c0.556,-17.96 -1.951,-23.424 -12.043,-26.254c-3.93,-1.102 -11.076,1.432 -18.111,6.423c-7.291,5.173 -8.771,5.383 -4.182,0.592c2.936,-3.065 3.254,-4.029 2.065,-6.252c-0.833,-1.555 -2.637,-2.627 -4.422,-2.627c-2.812,-0 -2.927,-0.257 -1.703,-3.768c1.761,-5.054 0.695,-7.241 -4.608,-9.457c-2.738,-1.144 -4.622,-1.474 -5.502,-1.062l-0.001,-0.001Zm23.09,54.265c2.225,-0.846 4.867,-0.83 8.123,0.047c5.847,1.574 7.076,3.166 3.799,4.92c-4.343,2.324 -12.36,1.631 -13.875,-1.199c-1.15,-2.149 -0.867,-2.696 1.953,-3.768Z" style="fill-rule:nonzero;"/></g></svg>