<?xml version="1.0" encoding="UTF-8" standalone="no"?><!DOCTYPE svg PUBLIC "-//W3C//DTD SVG 1.1//EN" "http://www.w3.org/Graphics/SVG/1.1/DTD/svg11.dtd"><svg width="100%" height="100%" viewBox="0 0 83 82" version="1.1" xmlns="http://www.w3.org/2000/svg" xmlns:xlink="http://www.w3.org/1999/xlink" xml:space="preserve" xmlns:serif="http://www.serif.com/" style="fill-rule:evenodd;clip-rule:evenodd;stroke-linejoin:round;stroke-miterlimit:2;"><g><g><path d="M66.002,0.278c-1.775,0.078 -4.113,0.718 -8.439,1.984c-10.251,2.997 -28.604,7.056 -37.568,8.312c-6.139,0.856 -7.539,2.79 -4.114,5.636c1.763,1.459 6.477,0.905 16.616,-1.957c4.088,-1.155 3.7,2.692 -1.488,14.676c-5.438,12.537 -13.715,24.184 -22.566,31.744c-7.264,6.205 -8.339,8.084 -4.638,8.084c7.613,-0 22.916,-15.508 32.655,-33.074c9.064,-16.372 9.864,-18.741 7.238,-21.645c-2.037,-2.25 -1.787,-2.417 6.927,-4.455c8.826,-2.062 13.439,-2.605 13.439,-1.58c0,1.04 -8.839,16.079 -11.239,19.145c-5.213,6.613 -2.1,9.834 7.364,7.647c9.201,-2.124 10.514,-0.595 8.776,10.229c-1.563,9.662 -8.089,23.734 -11.027,23.734c-1.112,-0 -3.95,-0.553 -6.301,-1.229c-2.363,-0.675 -4.551,-0.971 -4.863,-0.658c-0.313,0.314 1.575,3.678 4.188,7.479c2.626,3.799 5.488,6.907 6.389,6.907c1.987,0 10.101,-6.979 11.802,-10.169c0.687,-1.281 2.887,-8.585 4.9,-16.23c2.001,-7.645 4.651,-15.012 5.876,-16.369c2.163,-2.391 2.101,-2.583 -1.925,-6.179c-3.863,-3.461 -4.613,-3.652 -10.927,-2.863c-4.863,0.607 -6.763,0.426 -6.763,-0.639c-0,-2.088 10.964,-17.213 14.027,-19.366c3.363,-2.353 2.163,-5.166 -3.301,-7.774c-2.063,-0.985 -3.263,-1.469 -5.038,-1.39Z" style="fill:#f00;fill-rule:nonzero;"/></g></g></svg>