<?xml version="1.0" encoding="UTF-8" standalone="no"?><!DOCTYPE svg PUBLIC "-//W3C//DTD SVG 1.1//EN" "http://www.w3.org/Graphics/SVG/1.1/DTD/svg11.dtd"><svg width="100%" height="100%" viewBox="0 0 70 62" version="1.1" xmlns="http://www.w3.org/2000/svg" xmlns:xlink="http://www.w3.org/1999/xlink" xml:space="preserve" xmlns:serif="http://www.serif.com/" style="fill-rule:evenodd;clip-rule:evenodd;stroke-linejoin:round;stroke-miterlimit:2;"><g><path d="M30.32,2.618c-13.16,2.053 -23.46,10.34 -27.47,22.119c-5.05,14.828 1.45,33.692 10.62,30.783c3.21,-1.018 10.15,-9.684 14.03,-17.496c5.05,-10.2 10.03,-26.623 9.14,-30.172c-0.76,-3.036 -0.61,-3.14 3.32,-2.317c7.36,1.545 14.29,5.218 16.99,9.016c5.67,7.963 5.7,20.906 0.06,30.025c-3.08,4.991 -11.92,11.037 -18.86,12.906c-2.59,0.697 -4.71,1.885 -4.71,2.641c0,2.106 13.44,0.143 19.69,-2.875c10,-4.835 16.58,-15.5 16.56,-26.869c-0.03,-19.978 -16.19,-31.377 -39.37,-27.762l-0,0.001Zm-2,4.883c1.26,0.24 1.41,1.939 1.02,5.207c-0.84,6.937 -4.89,17.434 -9.98,25.883c-2.25,3.72 -4.75,6.978 -5.56,7.24c-2.78,0.889 -6.03,-6.117 -5.96,-12.844c0.08,-8.52 5.04,-17.022 12.79,-21.939c4.05,-2.57 6.43,-3.788 7.69,-3.547Z" style="fill-rule:nonzero;"/></g></svg>