<?xml version="1.0" encoding="UTF-8" standalone="no"?><!DOCTYPE svg PUBLIC "-//W3C//DTD SVG 1.1//EN" "http://www.w3.org/Graphics/SVG/1.1/DTD/svg11.dtd"><svg width="100%" height="100%" viewBox="0 0 70 73" version="1.1" xmlns="http://www.w3.org/2000/svg" xmlns:xlink="http://www.w3.org/1999/xlink" xml:space="preserve" xmlns:serif="http://www.serif.com/" style="fill-rule:evenodd;clip-rule:evenodd;stroke-linejoin:round;stroke-miterlimit:2;"><g><path d="M57.86,0.515c-2.11,0.183 -5,0.778 -9.4,1.848c-6.02,1.463 -17.98,3.912 -26.57,5.443c-8.6,1.531 -15.76,2.853 -15.92,2.938c-1.17,0.61 -5.16,25.039 -4.24,25.957c0.68,0.679 1.72,-0.793 2.59,-3.668c2.56,-8.433 6.62,-16.531 8.69,-17.326c1.1,-0.424 5.52,-1.508 9.82,-2.41c7.53,-1.581 7.81,-1.55 7.81,0.863c0,3.061 -5.55,15.831 -10.15,23.365c-1.86,3.05 -7.2,9.37 -11.85,14.045c-4.65,4.674 -8.14,8.817 -7.76,9.205c2.01,2.004 8.72,-2.017 16.59,-9.932c11.41,-11.474 22.83,-31.847 20.89,-37.26c-1.35,-3.773 -1.91,-3.426 9.54,-6.015c3.65,-0.825 6.92,-1.211 7.27,-0.858c0.35,0.353 -0.8,3.491 -2.57,6.975c-5.15,10.17 -4.11,14.302 4.02,15.928c2.13,0.425 4.12,1.429 4.43,2.23c1.11,2.895 -1.79,16.118 -4.87,22.184c-3.63,7.164 -5.26,8.11 -10.72,6.206c-2.19,-0.761 -4.25,-1.105 -4.6,-0.762c-0.34,0.343 1.3,3.44 3.65,6.881c2.34,3.441 4.94,6.257 5.78,6.258c3.29,0.005 10.24,-7.757 12.07,-13.496c3.9,-12.191 7.23,-26.36 6.83,-29.072c-0.32,-2.154 -1.81,-3.217 -6.35,-4.538c-7.41,-2.15 -7.51,-3.764 -0.8,-12.459c5.54,-7.183 5.64,-9.57 0.52,-11.904c-1.27,-0.578 -2.59,-0.807 -4.7,-0.625l-0,-0.001Z" style="fill:#800000;fill-rule:nonzero;"/></g></svg>