<?xml version="1.0" encoding="UTF-8" standalone="no"?><!DOCTYPE svg PUBLIC "-//W3C//DTD SVG 1.1//EN" "http://www.w3.org/Graphics/SVG/1.1/DTD/svg11.dtd"><svg width="100%" height="100%" viewBox="0 0 90 90" version="1.1" xmlns="http://www.w3.org/2000/svg" xmlns:xlink="http://www.w3.org/1999/xlink" xml:space="preserve" xmlns:serif="http://www.serif.com/" style="fill-rule:evenodd;clip-rule:evenodd;stroke-linejoin:round;stroke-miterlimit:2;"><g><g><path d="M44.028,1.402l-0,0.001c-0.505,0.29 -0.323,1.034 0.113,2.481c2.306,7.654 3.18,12.112 3.207,16.347c0.029,4.462 -0.131,4.62 -5.857,5.841c-3.644,0.777 -6.707,0.818 -8.043,0.103c-5.107,-2.733 -5.588,-1.737 -5.055,10.465c0.602,13.767 -1.429,23.119 -8.137,37.458c-4.657,9.956 -4.794,13.048 -0.403,9.076c7.745,-7.01 13.695,-22.586 15.666,-41c0.949,-8.872 1.598,-9.748 8.421,-11.38c3.423,-0.819 3.438,-0.794 3.438,5.839c0,7.105 -1.651,10.421 -5.523,11.097c-1.319,0.23 -2.658,1.206 -2.979,2.17c-0.473,1.419 0.815,1.621 6.773,1.064c4.046,-0.378 8.199,-0.885 9.23,-1.127c2.094,-0.49 2.034,2.866 -0.175,9.899l-1.284,4.084l-5.005,-4.084c-7.544,-6.157 -8.034,-6.421 -10.27,-5.563c-1.672,0.643 -0.865,1.958 4.206,6.844c3.452,3.328 6.279,6.631 6.279,7.338c-0,2.301 -4.5,5.437 -11.924,8.313c-3.999,1.549 -7.522,3.563 -7.826,4.476c-1.259,3.777 21.75,-2.272 24.293,-6.386c0.419,-0.678 4.013,2.27 7.987,6.552l7.232,7.787l7.226,-0.9c8.101,-1.012 13.017,-2.584 13.017,-4.158c-0,-0.58 -3.233,-2.059 -7.188,-3.288c-8.282,-2.573 -18.134,-7.619 -20.954,-10.735c-1.729,-1.911 -1.738,-2.545 -0.088,-5.756c3.537,-6.886 6.976,-15.033 6.976,-16.525c0,-0.827 -1.952,-2.435 -4.342,-3.574c-3.573,-1.704 -4.929,-1.804 -7.653,-0.562l-3.315,1.51l0.547,-7.562c0.631,-8.728 1.426,-9.847 7.716,-10.868c4.585,-0.744 4.606,-0.725 3.331,2.629c-2.648,6.963 -1.716,7.351 6.512,2.715c4.287,-2.416 7.986,-4.963 8.219,-5.661c0.231,-0.696 -1.448,-2.441 -3.733,-3.874c-4.149,-2.603 -8.152,-2.712 -17.596,-0.486c-3.019,0.711 -3.43,0.449 -3.383,-2.149c0.03,-1.627 0.554,-5.491 1.163,-8.586c1.33,-6.757 0.101,-8.491 -6.812,-9.614c-2.308,-0.373 -3.501,-0.541 -4.006,-0.251l-0.001,0Zm-31.942,10.883c-2.054,0.588 -0.909,3.417 3.426,8.136c5.259,5.726 8.556,5.72 9.114,-0.016c0.424,-4.364 -1.78,-6.226 -9.418,-7.949c-1.396,-0.315 -2.437,-0.367 -3.122,-0.171Zm-6.513,18.988c-4.687,0 -4.136,3.927 1.211,8.622c5.184,4.55 6.286,4.739 8.084,1.38c2.478,-4.63 -2.515,-10.002 -9.295,-10.002Zm16.215,13.77c-1.199,-0.116 -4.316,3.6 -10.072,11.857c-4.554,6.532 -8.876,11.877 -9.604,11.877c-1.721,-0 -0.49,9.466 1.552,11.925c2.533,3.052 4.688,2.069 6.267,-2.86c0.825,-2.579 3.963,-10.393 6.972,-17.365c3.01,-6.974 5.471,-13.304 5.471,-14.066c0,-0.864 -0.186,-1.329 -0.586,-1.368Z" style="fill:#f00;fill-rule:nonzero;"/></g></g></svg>