<?xml version="1.0" encoding="UTF-8" standalone="no"?><!DOCTYPE svg PUBLIC "-//W3C//DTD SVG 1.1//EN" "http://www.w3.org/Graphics/SVG/1.1/DTD/svg11.dtd"><svg width="100%" height="100%" viewBox="0 0 69 70" version="1.1" xmlns="http://www.w3.org/2000/svg" xmlns:xlink="http://www.w3.org/1999/xlink" xml:space="preserve" xmlns:serif="http://www.serif.com/" style="fill-rule:evenodd;clip-rule:evenodd;stroke-linejoin:round;stroke-miterlimit:2;"><g><path d="M45.73,3.248c-4.469,-0.846 -5.611,1.328 -2.188,4.168c1.189,0.987 1.875,3.747 1.875,7.538l0,5.976l-6.207,0.86c-3.786,0.52 -7.964,0.27 -10.711,-0.63c-5.901,-1.951 -7.085,-0.53 -2.703,3.24c3.452,2.97 6.453,3.64 14.119,3.13l3.875,-0.26l0.805,8.51c1.29,13.67 1.195,14.43 -1.687,13.52c-3.745,-1.19 -15.66,1.66 -18.066,4.32c-1.325,1.46 -1.956,3.87 -1.704,6.5c0.321,3.35 1.275,4.62 4.776,6.37c4.812,2.4 14.283,2.87 19.312,0.96c1.772,-0.67 3.892,-2.78 4.711,-4.69c0.818,-1.9 1.64,-3.68 1.826,-3.94c0.186,-0.27 2.284,0.99 4.664,2.81c5.606,4.27 9.494,4.38 9.494,0.26c-0,-3.64 -4.707,-7.65 -11.283,-9.62c-5.318,-1.6 -6.182,-4.12 -6.207,-18.12l-0.013,-7.64l7.576,-2.77c5.639,-2.05 7.467,-3.29 7.158,-4.852c-0.455,-2.294 -7.126,-2.789 -11.496,-0.854c-2.094,0.927 -2.274,0.684 -1.447,-1.967c3.04,-9.749 2.334,-11.148 -6.479,-12.818l-0,-0.001Zm-39.809,1.059c-0.533,0.675 -0.347,2.457 0.428,5.508c1.023,4.032 0.678,7.696 -1.805,19.115c-3.651,16.78 -3.669,32.09 -0.043,37.62c2.582,3.94 2.652,3.96 5.08,1.53c1.286,-1.29 1.644,-3.37 1.178,-6.85c-0.467,-3.48 0.191,-7.32 2.158,-12.57c2.841,-7.6 2.433,-11.53 -0.713,-6.86c-5.374,7.98 -5.767,8 -4.992,0.29c0.398,-3.97 1.515,-9.31 2.48,-11.88c0.966,-2.56 2.763,-7.28 3.995,-10.479c2.6,-6.749 1.511,-10.758 -3.883,-14.293c-2.098,-1.374 -3.35,-1.806 -3.883,-1.131Zm31.534,50.473c3.449,-0.19 6.841,-0.04 7.488,0.6c1.358,1.36 -1.153,5.58 -3.732,6.27c-5.088,1.36 -9.24,0.8 -11.361,-1.54c-1.854,-2.05 -1.881,-2.51 -0.233,-3.87c0.882,-0.74 4.389,-1.27 7.838,-1.46Z" style="fill-rule:nonzero;"/></g></svg>