<?xml version="1.0" encoding="UTF-8" standalone="no"?><!DOCTYPE svg PUBLIC "-//W3C//DTD SVG 1.1//EN" "http://www.w3.org/Graphics/SVG/1.1/DTD/svg11.dtd"><svg width="100%" height="100%" viewBox="0 0 86 75" version="1.1" xmlns="http://www.w3.org/2000/svg" xmlns:xlink="http://www.w3.org/1999/xlink" xml:space="preserve" xmlns:serif="http://www.serif.com/" style="fill-rule:evenodd;clip-rule:evenodd;stroke-linejoin:round;stroke-miterlimit:2;"><g><path d="M41.656,3.332c-1.641,0.63 -1.555,1.366 0.623,5.43c1.968,3.673 2.519,7.062 2.519,15.488l0,10.79l-11.738,13.74c-12.158,14.22 -15.309,16.75 -16.615,13.35c-0.858,-2.24 0.621,-34.7 1.709,-37.54c0.431,-1.12 1.515,-1.54 2.74,-1.06c1.115,0.45 3.856,1.12 6.09,1.49c3.496,0.59 4.063,0.32 4.063,-1.91c0,-3.304 -0.913,-3.82 -11.705,-6.624c-16.583,-4.308 -23.737,-2.157 -13.914,4.184l4.385,2.83l0.371,21.88c0.257,15.24 0.882,22.92 2.064,25.32c0.933,1.89 2.476,3.43 3.428,3.43c2.029,0 19.232,-17.8 24.926,-25.8l3.929,-5.51l0.45,9.9c0.725,15.97 3.534,17.44 23.572,12.28l10.627,-2.74l-0.123,-4.48c-0.297,-10.73 -3.614,-14.96 -4.989,-6.37c-0.748,4.69 -0.951,4.85 -9.32,7.31c-4.895,1.44 -9.255,2.09 -10.189,1.51c-2.245,-1.4 -2.112,-34.22 0.178,-43.516c1.655,-6.724 1.64,-6.816 -1.692,-9.682c-3.773,-3.246 -8.54,-4.794 -11.389,-3.701l0,0.001Zm22.54,10.018c-0.407,0.1 -0.641,0.367 -0.641,0.822c0,0.592 1.88,2.509 4.178,4.262c2.297,1.752 5.247,5.296 6.556,7.876c1.31,2.58 3.411,6.25 4.67,8.15c2.518,3.79 4.6,3.5 4.6,-0.65c0,-2.55 -5.494,-11.828 -8.1,-13.687c-0.676,-0.483 -2.747,-2.132 -4.603,-3.665c-2.663,-2.199 -5.439,-3.409 -6.66,-3.109l0,0.001Z" style="fill:#800000;fill-rule:nonzero;"/></g></svg>