<?xml version="1.0" encoding="UTF-8" standalone="no"?><!DOCTYPE svg PUBLIC "-//W3C//DTD SVG 1.1//EN" "http://www.w3.org/Graphics/SVG/1.1/DTD/svg11.dtd"><svg width="100%" height="100%" viewBox="0 0 63 71" version="1.1" xmlns="http://www.w3.org/2000/svg" xmlns:xlink="http://www.w3.org/1999/xlink" xml:space="preserve" xmlns:serif="http://www.serif.com/" style="fill-rule:evenodd;clip-rule:evenodd;stroke-linejoin:round;stroke-miterlimit:2;"><g><path d="M12.616,0.834c-1.198,-0.006 -1.02,0.709 -1.02,2.137c0,3.246 2.675,5.157 8.328,5.947c2.64,0.369 7.391,1.548 10.557,2.622c5.607,1.9 5.696,2.01 3.438,4.27c-1.276,1.27 -2.319,3.44 -2.319,4.82c0,1.37 -0.596,2.5 -1.324,2.5c-0.728,-0 -0.976,0.56 -0.551,1.25c0.425,0.69 0.178,1.25 -0.55,1.25c-0.729,-0 -1.325,0.52 -1.325,1.15c0,1.33 -9.396,11.35 -10.645,11.35c-0.461,0 -2.127,0.99 -3.703,2.19c-1.576,1.2 -4.11,3.03 -5.629,4.06c-1.519,1.03 -3.958,2.9 -5.422,4.14l-2.662,2.26l3.534,-0.64c1.942,-0.35 5.019,-1.64 6.839,-2.87c10.404,-7.02 13.78,-8.54 15.373,-6.95c1.394,1.39 2.341,16.57 1.293,20.74c-0.472,1.87 -1.351,2.14 -4.847,1.49l-4.272,-0.8l2.633,2.63c1.449,1.45 3.871,3.13 5.383,3.74c1.512,0.61 3.381,1.14 4.152,1.19c1.744,0.1 2.808,-9.03 2.398,-20.55c-0.33,-9.28 -1.468,-13.56 -3.306,-12.42c-2.316,1.43 -0.999,-1.16 2.006,-3.94c1.719,-1.6 3.125,-3.38 3.125,-3.98c0,-0.59 1.718,-2.72 3.818,-4.73c2.16,-2.07 3.588,-4.55 3.285,-5.7c-0.389,-1.49 0.102,-1.88 1.807,-1.43c3.146,0.82 3.047,-2.2 -0.211,-6.343c-1.579,-2.007 -4.326,-3.545 -7.189,-4.025c-2.549,-0.428 -8.72,-1.855 -13.713,-3.172c-5.509,-1.454 -8.084,-2.18 -9.282,-2.186l0.001,-0Zm24.38,32.746c-0.339,0.34 1.544,2.59 4.187,5.01c2.643,2.42 7.58,6.97 10.969,10.1c7.18,6.63 9.465,7.15 9.465,2.12c-0,-2.49 -1.222,-4.59 -4.063,-6.97c-4.42,-3.7 -19.561,-11.26 -20.559,-10.26l0.001,0Z" style="fill:#800000;fill-rule:nonzero;"/></g></svg>