<?xml version="1.0" encoding="UTF-8" standalone="no"?><!DOCTYPE svg PUBLIC "-//W3C//DTD SVG 1.1//EN" "http://www.w3.org/Graphics/SVG/1.1/DTD/svg11.dtd"><svg width="100%" height="100%" viewBox="0 0 80 78" version="1.1" xmlns="http://www.w3.org/2000/svg" xmlns:xlink="http://www.w3.org/1999/xlink" xml:space="preserve" xmlns:serif="http://www.serif.com/" style="fill-rule:evenodd;clip-rule:evenodd;stroke-linejoin:round;stroke-miterlimit:2;"><g><g><path d="M66.962,0.322c-4.682,0.153 -13.13,1.411 -30.243,3.935c-12.033,1.776 -23.708,3.238 -25.942,3.246c-5.046,0.022 -5.423,2.818 -0.791,5.854c3.093,2.026 3.737,2.023 11.799,-0.055c4.691,-1.208 11.723,-2.524 15.628,-2.928c7.037,-0.726 7.09,-0.708 6.197,2.27c-1.742,5.811 -4.372,8.8 -7.006,7.965c-2.198,-0.697 -2.441,-0.262 -2.164,3.853c0.286,4.24 -0.382,5.295 -7.768,12.287c-4.444,4.207 -12.159,10.681 -17.144,14.385c-4.984,3.705 -9.062,7.284 -9.062,7.951c-0,4.171 19.951,-7.074 29.892,-16.847l6.703,-6.59l-0.997,14.379c-1.398,20.147 -1.331,23.233 0.554,25.504c2.337,2.816 4.765,2.484 5.928,-0.813c0.544,-1.547 0.823,-12.416 0.616,-24.153l-0.376,-21.336l5.851,-7.181c4.342,-5.331 5.701,-7.958 5.272,-10.201c-0.771,-4.032 1.834,-4.749 13.342,-3.67c10.721,1.004 12.585,-0.301 7.36,-5.153c-2.048,-1.9 -2.963,-2.855 -7.645,-2.703l-0.002,0l-0.002,0.001Zm-15.915,32.294c-1.576,0.307 -0.597,2.327 3.488,5.956c2.236,1.984 7.939,7.08 12.676,11.326c4.738,4.245 9.24,7.516 10.003,7.266c0.763,-0.25 1.557,-2.145 1.763,-4.211c0.49,-4.891 -4.627,-9.988 -16.045,-15.986c-6.157,-3.237 -10.302,-4.653 -11.885,-4.35l0,-0.001Z" style="fill:#f00;fill-rule:nonzero;"/></g></g></svg>