<?xml version="1.0" encoding="UTF-8" standalone="no"?><!DOCTYPE svg PUBLIC "-//W3C//DTD SVG 1.1//EN" "http://www.w3.org/Graphics/SVG/1.1/DTD/svg11.dtd"><svg width="100%" height="100%" viewBox="0 0 74 68" version="1.1" xmlns="http://www.w3.org/2000/svg" xmlns:xlink="http://www.w3.org/1999/xlink" xml:space="preserve" xmlns:serif="http://www.serif.com/" style="fill-rule:evenodd;clip-rule:evenodd;stroke-linejoin:round;stroke-miterlimit:2;"><g><path d="M30.571,0.549c-0.715,0.081 -1.063,1.018 -1.063,2.811c0,2.939 4.205,8.484 7.588,10.01c1.532,0.69 1.521,0.92 -0.074,1.63c-1.025,0.46 -3.417,2.38 -5.314,4.28c-3.69,3.69 -4.653,10.31 -2.174,14.94c1.114,2.08 0.44,2.81 -5.313,5.7c-3.624,1.82 -9.218,5.23 -12.432,7.57c-3.496,2.55 -6.162,3.74 -6.638,2.97c-0.437,-0.71 -1.679,-1.28 -2.76,-1.28c-2.775,0 -1.3,8.39 2.066,11.76l2.536,2.53l3.55,-4.25l3.553,-4.26l3.643,2.57c5.21,3.66 11.798,6.92 16.145,7.98c6.444,1.57 8.144,1.27 11.457,-2.05c2.83,-2.83 3.15,-4 2.67,-9.8c-0.336,-4.05 -1.599,-8.06 -3.274,-10.42c-3.509,-4.92 -3.445,-5.32 0.871,-5.32c6.808,0 18.906,6.87 18.906,10.73c0,0.99 -1.406,3.02 -3.125,4.51c-4.316,3.75 -4.1,6.15 0.473,5.23c1.979,-0.39 4.65,-0.17 5.937,0.49c5.721,2.95 7.225,-2.61 2.965,-10.96c-5.138,-10.07 -12.128,-13.93 -25.127,-13.89c-7.651,0.02 -8.797,-0.3 -11.014,-3.12c-4.548,-5.78 -0.069,-11.74 8.83,-11.74c5.824,-0 6.059,-0.14 6.059,-3.55c-0,-4.195 -2.664,-6.834 -8.914,-8.839c-2.496,-0.801 -5.535,-2.561 -6.756,-3.91c-1.472,-1.627 -2.556,-2.401 -3.272,-2.321l0.001,-0.001Zm4.374,41.881c1.105,0.52 2.025,2.26 3.916,5.75c2.221,4.09 2.339,7.49 0.33,9.5c-2.615,2.61 -10.073,1.48 -18.316,-2.78l-4.172,-2.16l4.18,-3.13c2.299,-1.72 6.367,-4.26 9.039,-5.65c2.629,-1.36 3.918,-2.05 5.023,-1.53Z" style="fill-rule:nonzero;"/></g></svg>