<?xml version="1.0" encoding="UTF-8" standalone="no"?><!DOCTYPE svg PUBLIC "-//W3C//DTD SVG 1.1//EN" "http://www.w3.org/Graphics/SVG/1.1/DTD/svg11.dtd"><svg width="100%" height="100%" viewBox="0 0 52 68" version="1.1" xmlns="http://www.w3.org/2000/svg" xmlns:xlink="http://www.w3.org/1999/xlink" xml:space="preserve" xmlns:serif="http://www.serif.com/" style="fill-rule:evenodd;clip-rule:evenodd;stroke-linejoin:round;stroke-miterlimit:2;"><g><path d="M31.69,1.184c-2.54,0.202 -5.85,0.909 -10.07,2.007c-6.106,1.588 -12.026,3.274 -13.16,3.747c-1.134,0.472 -2.433,0.257 -2.887,-0.477c-0.454,-0.735 -1.636,-1.336 -2.627,-1.336c-2.617,0 -2.483,9.815 0.148,10.825c1.073,0.42 6.356,-1.32 11.74,-3.843c9.866,-4.63 18.826,-6.995 18.796,-4.959c0,0.606 -0.84,4.197 -1.86,7.982c-1.01,3.78 -1.84,7.78 -1.85,8.89c-0.01,1.11 2.79,5.83 6.23,10.48c3.44,4.66 6.25,9.47 6.25,10.68c-0,1.22 -1.97,4.57 -4.37,7.45c-2.41,2.88 -4.38,5.61 -4.38,6.06c0.01,0.45 1.15,2.69 2.54,4.97c3.55,5.82 6.84,4.97 6.84,-1.78c-0,-3.95 0.91,-6.12 4.06,-9.71c2.24,-2.54 4.06,-5.62 4.06,-6.84c0,-1.22 -2.55,-5.22 -5.68,-8.87c-8.74,-10.25 -9.91,-13.14 -8.23,-20.42c2.66,-11.528 2.05,-15.463 -5.55,-14.857l0,0.001Z" style="fill:#800000;fill-rule:nonzero;"/></g></svg>