<?xml version="1.0" encoding="UTF-8" standalone="no"?><!DOCTYPE svg PUBLIC "-//W3C//DTD SVG 1.1//EN" "http://www.w3.org/Graphics/SVG/1.1/DTD/svg11.dtd"><svg width="100%" height="100%" viewBox="0 0 87 94" version="1.1" xmlns="http://www.w3.org/2000/svg" xmlns:xlink="http://www.w3.org/1999/xlink" xml:space="preserve" xmlns:serif="http://www.serif.com/" style="fill-rule:evenodd;clip-rule:evenodd;stroke-linejoin:round;stroke-miterlimit:2;"><g><g><path d="M29.687,0.332c-0.459,0.168 -0.671,0.56 -0.671,1.181c-0,1.977 5.81,7.837 8.751,8.827c1.032,0.346 2.666,-0.114 3.631,-1.022c1.504,-1.414 1.455,-2.107 -0.341,-4.849c-1.154,-1.76 -3.071,-3.209 -4.259,-3.219c-1.187,-0.01 -3.423,-0.358 -4.97,-0.772c-0.978,-0.262 -1.682,-0.315 -2.141,-0.146Zm46.609,11.111l0,0.002c-2.038,0.053 -4.577,0.973 -8.691,2.787c-4.527,1.996 -8.104,2.755 -10.961,2.33c-4.133,-0.614 -4.219,-0.535 -3.375,2.978c0.476,1.984 1.201,6.697 1.61,10.473c0.677,6.282 0.562,6.72 -1.325,5.152c-1.486,-1.233 -3.841,-1.475 -8.412,-0.869l-6.349,0.842l3.231,-4.239c3.727,-4.885 3.95,-6.229 1.374,-8.366c-2.286,-1.898 -1.329,-3.762 1.933,-3.762c2.982,0 3.227,-3.523 0.323,-4.637c-1.748,-0.67 -11.641,0.807 -27.676,4.13c-1.597,0.33 -2.668,1.282 -2.38,2.116c0.352,1.028 3.911,1.515 11.026,1.515c11.797,0 11.72,-0.101 8.114,10.387l-1.586,4.616l-16.489,2.478c-13.121,1.973 -16.412,2.86 -16.125,4.35c0.802,4.169 6.623,4.412 21.901,0.918c8.081,-1.849 18.771,-4.106 23.756,-5.016l9.064,-1.652l-0,27.068c-0,14.888 0.387,27.456 0.86,27.929c1.483,1.483 3.413,0.116 4.294,-3.037c0.467,-1.667 0.913,-16.535 0.991,-33.036c0.078,-16.503 0.461,-31.195 0.851,-32.65c0.601,-2.238 7.097,-5.481 10.981,-5.481c0.446,-0 -0.886,3.359 -2.958,7.465c-2.073,4.105 -3.766,8.215 -3.766,9.131c-0,0.915 2.019,3.607 4.484,5.976c5.351,5.143 8.468,10.696 7.47,13.295c-0.535,1.396 -2.182,1.774 -6.337,1.444c-6.671,-0.532 -7.152,0.99 -1.539,4.867c2.225,1.537 5.385,3.76 7.017,4.943c2.882,2.085 3.057,2.047 5.938,-1.303c5.933,-6.897 3.35,-16.954 -6.496,-25.303c-4.464,-3.784 -4.517,-3.941 -2.665,-7.523c1.041,-2.012 3.909,-5.619 6.374,-8.014c5.365,-5.213 5.521,-6.501 1.213,-9.89c-2.102,-1.653 -3.637,-2.467 -5.674,-2.414l-0.001,-0Zm-56.697,13.728c-1.157,0.506 -0.508,2.943 2.222,6.975c3.097,4.576 6.351,4.956 6.945,0.81c0.256,-1.792 -0.83,-3.528 -3.318,-5.3c-1.689,-1.202 -3.062,-1.97 -4.098,-2.334c-0.777,-0.274 -1.364,-0.319 -1.751,-0.151Zm19.104,20.581c-1.675,0.115 -4.011,0.89 -8.549,2.433c-5.819,1.979 -10.547,2.871 -12.707,2.396c-2.418,-0.531 -3.425,-0.264 -3.387,0.905c0.09,2.827 5.732,18.353 7.401,20.364c1.907,2.296 3.797,1.399 3.797,-1.806c-0,-1.916 1.293,-2.484 7.189,-3.154c10.41,-1.184 11.778,-1.718 10.969,-4.269c-0.397,-1.247 0.434,-3.643 1.914,-5.524c3.344,-4.252 2.77,-6.992 -2.056,-9.81c-1.886,-1.103 -2.897,-1.648 -4.571,-1.534l-0,-0.001Zm-1.641,6.992c0.178,0.223 -0.156,2.173 -0.74,4.333c-0.769,2.841 -2.015,4.156 -4.501,4.749c-1.89,0.451 -4.372,1.097 -5.514,1.435c-2.677,0.792 -4.703,-6.751 -2.226,-8.283c1.713,-1.059 12.447,-2.906 12.981,-2.234Z" style="fill:#f00;fill-rule:nonzero;"/></g></g></svg>