<?xml version="1.0" encoding="UTF-8" standalone="no"?><!DOCTYPE svg PUBLIC "-//W3C//DTD SVG 1.1//EN" "http://www.w3.org/Graphics/SVG/1.1/DTD/svg11.dtd"><svg width="100%" height="100%" viewBox="0 0 71 69" version="1.1" xmlns="http://www.w3.org/2000/svg" xmlns:xlink="http://www.w3.org/1999/xlink" xml:space="preserve" xmlns:serif="http://www.serif.com/" style="fill-rule:evenodd;clip-rule:evenodd;stroke-linejoin:round;stroke-miterlimit:2;"><g><path d="M6.13,1.317c-1.11,0.589 -1.22,2.779 0.11,6.332c0.73,1.954 0.25,6.141 -1.47,12.891c-3.42,13.42 -3.72,36.59 -0.58,43.55c1.52,3.35 2.83,4.65 4.38,4.36c1.79,-0.35 2.25,-1.85 2.42,-7.91c0.11,-4.12 1.09,-9.95 2.18,-12.96c3.7,-10.21 1.34,-11.83 -3.21,-2.19l-2.43,5.16l0.42,-11.95c0.35,-9.92 1,-13.12 3.82,-18.874c4.19,-8.582 4.23,-10.804 0.21,-15.135c-2.64,-2.852 -4.74,-3.863 -5.85,-3.274Zm51.1,1.679c-1.81,0.204 -4.28,0.826 -8.01,1.932c-8.98,2.667 -15.09,2.831 -20.75,0.555c-1.83,-0.733 -2.22,-0.433 -1.87,1.408c0.6,3.091 5.55,5.485 11.4,5.508c5.32,0.021 7.42,3.083 6.26,9.151c-0.59,3.1 -1.12,3.37 -6.65,3.37c-7.26,-0 -9.96,-0.91 -9.96,-3.36c0,-3.139 -3.1,-1.02 -3.51,2.4c-0.56,4.74 3.74,7.21 12.54,7.21l7.23,-0l0,16.25l-6.31,0c-6.83,0 -12.93,2.45 -14.17,5.69c-2.93,7.63 1.08,12.87 10.95,14.33c2.83,0.41 5.71,0.63 6.4,0.47c0.69,-0.15 2.84,-0.62 4.77,-1.05c2.48,-0.54 4.06,-2.05 5.33,-5.1c1,-2.39 2.24,-4.33 2.76,-4.33c0.51,0 3.06,1.44 5.66,3.2c5.12,3.48 9.98,3.64 10.6,0.35c0.57,-2.97 -4.34,-7.07 -11.42,-9.55c-7.05,-2.47 -8.32,-4.71 -8.32,-14.71c0,-5.74 0.35,-6.8 2.28,-6.8c1.25,-0 4.9,-0.9 8.12,-1.99c4.2,-1.43 5.85,-2.66 5.85,-4.35c0,-3 -4.58,-4.234 -9.19,-2.48c-5.23,1.99 -5.51,1.77 -5.34,-4.248l0.15,-5.569l5.94,-1.433c6.41,-1.548 7.66,-3.928 3.27,-6.274c-1.06,-0.568 -2.2,-0.783 -4.01,-0.58Zm-20.47,49.634c4.2,-0.12 8.28,1.03 8.28,3.56c-0,1.32 -1.09,2.98 -2.42,3.69c-2.91,1.56 -11.3,1.68 -13.64,0.19c-0.93,-0.59 -1.49,-2.11 -1.24,-3.37c0.49,-2.55 4.81,-3.94 9.02,-4.07Z" style="fill-rule:nonzero;"/></g></svg>