<?xml version="1.0" encoding="UTF-8" standalone="no"?><!DOCTYPE svg PUBLIC "-//W3C//DTD SVG 1.1//EN" "http://www.w3.org/Graphics/SVG/1.1/DTD/svg11.dtd"><svg width="100%" height="100%" viewBox="0 0 77 81" version="1.1" xmlns="http://www.w3.org/2000/svg" xmlns:xlink="http://www.w3.org/1999/xlink" xml:space="preserve" xmlns:serif="http://www.serif.com/" style="fill-rule:evenodd;clip-rule:evenodd;stroke-linejoin:round;stroke-miterlimit:2;"><g><path d="M57.61,0.955c-1.57,0.082 -3.61,0.643 -7.12,1.736c-4.3,1.337 -9.98,2.432 -12.63,2.432c-5,0 -6.66,1.055 -5.19,3.309c1.62,2.49 4.62,2.549 12.72,0.248c4.47,-1.27 8.38,-2.307 8.69,-2.307c0.31,0 -1.33,1.947 -3.63,4.326c-2.53,2.612 -5.23,4.221 -6.81,4.063c-2,-0.201 -2.53,0.353 -2.26,2.363c0.27,1.93 -1.48,4.016 -6.56,7.856c-9.85,7.439 -9.35,9.239 3.06,10.889c6.07,0.8 6.27,0.96 6.27,4.89c0,3.36 -0.67,4.34 -3.83,5.65c-3.7,1.54 -8.8,7.19 -10.28,11.41c-0.96,2.75 2,6.74 4.06,5.47c0.87,-0.54 2.64,-3.37 3.92,-6.28c1.29,-2.91 3.23,-6.03 4.3,-6.92c1.74,-1.45 1.91,-0.69 1.58,7.02l-0.38,8.65l-5.31,-0.34c-2.92,-0.18 -5.31,0 -5.31,0.41c0,0.4 2.67,3.78 5.94,7.5c3.26,3.73 6.34,6.78 6.84,6.79c0.5,0.01 1.89,-1.47 3.08,-3.29c1.78,-2.72 2.12,-5.77 1.87,-16.96l-0.29,-13.65l5.52,3.79c3.03,2.09 7.66,6.07 10.28,8.84c6.08,6.4 9.26,6.66 9.26,0.75c0,-3.88 -0.67,-4.69 -7.18,-8.61c-3.96,-2.38 -9.58,-5.52 -12.51,-6.99c-2.92,-1.47 -5.31,-3.48 -5.31,-4.46c0,-1.76 1.33,-2.12 13.57,-3.76c7.12,-0.95 12.68,-3.9 12.68,-6.73c0,-3.53 -0.82,-3.675 -7.82,-1.368c-3.6,1.188 -9.14,2.528 -12.29,2.978l-5.74,0.81l0.32,-6.87c0.17,-3.778 0.66,-7.425 1.08,-8.103c0.42,-0.679 3.56,-3.047 6.98,-5.264c3.42,-2.217 6.22,-4.766 6.22,-5.664c0,-0.898 -1.6,-2.46 -3.55,-3.471c-1.6,-0.827 -2.68,-1.224 -4.25,-1.142l0.01,-0.001Zm-50.65,10.401c-1.02,0.366 -1.29,2.385 -0.81,6.05c0.57,4.269 -0.01,9.39 -1.98,17.514c-3.26,13.47 -3.08,31.29 0.41,39.37c1.46,3.4 2.71,4.66 4.27,4.34c1.75,-0.35 2.14,-1.49 1.85,-5.44c-0.2,-2.75 0.78,-8.64 2.17,-13.09c2.93,-9.35 3.01,-9.97 1.3,-9.97c-0.7,0 -2.21,1.97 -3.36,4.38c-1.15,2.4 -2.54,4.37 -3.1,4.37c-2.79,0 0.51,-20.94 4.65,-29.5c3.86,-7.994 3.84,-9.403 -0.16,-14.159c-2.47,-2.945 -4.23,-4.232 -5.24,-3.865Zm35.58,14.41c0.4,0.141 0.42,0.918 0.42,2.454c0,2.53 -0.62,3.16 -3.13,3.16c-1.72,0 -3.13,-0.5 -3.13,-1.11c0,-0.61 1.41,-2.03 3.13,-3.155c1.52,-0.999 2.3,-1.491 2.71,-1.349Z" style="fill:#800000;fill-rule:nonzero;"/></g></svg>