<?xml version="1.0" encoding="UTF-8" standalone="no"?><!DOCTYPE svg PUBLIC "-//W3C//DTD SVG 1.1//EN" "http://www.w3.org/Graphics/SVG/1.1/DTD/svg11.dtd"><svg width="100%" height="100%" viewBox="0 0 66 72" version="1.1" xmlns="http://www.w3.org/2000/svg" xmlns:xlink="http://www.w3.org/1999/xlink" xml:space="preserve" xmlns:serif="http://www.serif.com/" style="fill-rule:evenodd;clip-rule:evenodd;stroke-linejoin:round;stroke-miterlimit:2;"><g><path d="M25.126,0.27c-1.039,-0.04 -1.708,0.24 -2.272,0.81c-1.118,1.13 -0.995,1.83 0.522,2.96c2.922,2.18 4.892,6.45 4.892,10.6c0,3.62 -0.113,3.67 -8.248,4.33c-4.536,0.36 -10.195,0.12 -12.576,-0.54c-6.324,-1.74 -7.414,-0.77 -3.82,3.4c3.054,3.54 3.612,3.69 13.602,3.69l10.418,-0l0.381,3.94c0.373,3.85 0.242,3.96 -5.897,4.8c-4.63,0.64 -7.327,0.34 -10.264,-1.12c-5.333,-2.66 -6.099,-2.53 -6.099,1.09c0,4.26 3.492,5.77 13.742,5.96c9.985,0.19 12.548,2.43 5.447,4.77c-2.436,0.81 -8.01,3.92 -12.387,6.91c-4.377,3 -8.294,4.91 -8.705,4.24c-1.479,-2.39 -3.1,-1.13 -3.1,2.41c0,1.98 1.123,4.94 2.496,6.56l2.498,2.95l3.069,-3.44c1.688,-1.89 3.389,-3.44 3.781,-3.44c0.392,0 2.924,1.47 5.627,3.26c2.703,1.79 7.051,4.01 9.662,4.94c6.515,2.33 8.27,2.21 12.08,-0.78c4.231,-3.33 4.469,-10.61 0.572,-17.54c-1.497,-2.67 -2.367,-5.2 -1.933,-5.64c1.384,-1.38 9.231,0.73 13.58,3.65c5.034,3.38 6.057,7.58 2.406,9.85c-3.68,2.3 -3.225,4.81 0.859,4.75c1.891,-0.02 4.846,0.11 6.565,0.3c4.151,0.45 4.729,-3.46 1.457,-9.88c-4.432,-8.68 -11.879,-12.91 -22.744,-12.91c-7.114,0 -7.399,-1.76 -0.494,-3.06c6.781,-1.27 10.529,-3.34 10.529,-5.81c-0,-3.27 -3.747,-3.89 -10.707,-1.78c-3.395,1.03 -6.299,1.88 -6.453,1.89c-0.837,0.04 1.488,-8.24 2.5,-8.9c0.66,-0.44 5.355,-1.46 10.432,-2.28c7.727,-1.25 9.228,-1.88 9.228,-3.88c-0,-3.52 -5.546,-4.4 -13.777,-2.2l-7.027,1.89l1.299,-4.87c1.673,-6.27 0.233,-8.62 -6.651,-10.84c-2.044,-0.66 -3.452,-1.01 -4.49,-1.04Zm5.928,48.39c1.501,-0.02 4.72,7.15 4.72,10.51c-0,1.73 -0.984,3.66 -2.187,4.29c-3.607,1.89 -18.743,-3.54 -17.135,-6.14c0.822,-1.33 13.146,-8.64 14.602,-8.66Z" style="fill:#800000;fill-rule:nonzero;"/></g></svg>