<?xml version="1.0" encoding="UTF-8" standalone="no"?><!DOCTYPE svg PUBLIC "-//W3C//DTD SVG 1.1//EN" "http://www.w3.org/Graphics/SVG/1.1/DTD/svg11.dtd"><svg width="100%" height="100%" viewBox="0 0 89 94" version="1.1" xmlns="http://www.w3.org/2000/svg" xmlns:xlink="http://www.w3.org/1999/xlink" xml:space="preserve" xmlns:serif="http://www.serif.com/" style="fill-rule:evenodd;clip-rule:evenodd;stroke-linejoin:round;stroke-miterlimit:2;"><g><g><path d="M35.499,0.685l-0.003,0.001c-1.492,0.487 -1.478,2.661 0.06,6.505c2.741,6.853 2.69,12.253 -0.127,13.051c-1.204,0.34 -7.397,1 -13.762,1.467c-12.068,0.883 -14.821,2.224 -10.809,5.26c2.395,1.814 12.987,1.631 22.695,-0.393l4.063,-0.848l0,12.317l-9.448,1.359c-10.785,1.554 -12.183,2.349 -8.677,4.936c2.371,1.749 6.819,1.627 13.586,-0.37c2.281,-0.673 2.281,-0.593 -0,3.354c-3.39,5.863 -18.36,21.636 -25.54,26.907c-3.395,2.493 -6.176,5.048 -6.176,5.677c0,2.63 6.359,0.814 13.249,-3.785c8.501,-5.675 10.419,-7.346 17.695,-15.394c6.226,-6.888 6.151,-7.138 3.893,12.724c-1.117,9.828 -1.086,13.316 0.15,16.301c1.639,3.959 4.152,4.911 5.885,2.235c0.556,-0.861 1.293,-10.526 1.637,-21.476l0.625,-19.912l7.365,9.911c12.688,17.077 12.291,16.789 23.187,16.768c8.395,-0.016 14.214,-1.354 12.543,-2.883c-0.324,-0.296 -5.403,-2.824 -11.29,-5.617c-8.408,-3.988 -13.1,-7.361 -21.879,-15.726l-11.175,-10.646l4.374,-0.067c9.507,-0.147 17.504,-1.653 17.504,-3.301c0,-3.157 -5.083,-4.583 -13.329,-3.738l-7.924,0.813l-0,-5.663c-0,-3.113 0.541,-5.659 1.201,-5.659c5.359,-0 27.168,-2.966 28.065,-3.817c0.672,-0.639 0.427,-1.929 -0.6,-3.166c-1.452,-1.75 -3.255,-1.964 -11.137,-1.319c-5.172,0.423 -11.023,1.138 -13.006,1.588l-3.603,0.815l0.848,-6.789l0.85,-6.792l-4.79,-2.691c-1.696,-0.954 -3.099,-1.573 -4.207,-1.857c-0.83,-0.214 -1.495,-0.24 -1.993,-0.079l0,-0.001Z" style="fill:#f00;fill-rule:nonzero;"/></g></g></svg>