<?xml version="1.0" encoding="UTF-8" standalone="no"?><!DOCTYPE svg PUBLIC "-//W3C//DTD SVG 1.1//EN" "http://www.w3.org/Graphics/SVG/1.1/DTD/svg11.dtd"><svg width="100%" height="100%" viewBox="0 0 83 94" version="1.1" xmlns="http://www.w3.org/2000/svg" xmlns:xlink="http://www.w3.org/1999/xlink" xml:space="preserve" xmlns:serif="http://www.serif.com/" style="fill-rule:evenodd;clip-rule:evenodd;stroke-linejoin:round;stroke-miterlimit:2;"><g><g><path d="M51.124,1.039c-0.939,-0 -1.707,0.905 -1.707,2.009c0,1.105 -2.248,4.835 -4.998,8.29c-2.751,3.454 -5.002,6.817 -5.002,7.472c-0,1.547 0.619,1.287 11.103,-4.644c4.862,-2.751 8.852,-5.664 8.869,-6.473c0.036,-1.831 -5.955,-6.654 -8.265,-6.654Zm-26.46,6.319c-1.651,-0.075 -2.75,0.395 -2.75,1.437c-0,0.826 1.796,3.357 3.994,5.624c5.15,5.313 8.508,5.47 8.508,0.403c-0,-2.854 -0.859,-4.162 -3.689,-5.626c-2.209,-1.141 -4.411,-1.761 -6.063,-1.838Zm30.38,11.745l0,0.002c-2.958,-0.105 -7.446,0.509 -13.578,1.838c-6.6,1.429 -13.946,2.599 -16.324,2.599c-4.701,0 -7.075,2.127 -4.321,3.872c0.948,0.6 4.396,1.099 7.663,1.109c5.409,0.017 5.939,0.284 5.939,2.984c0,2.619 -0.738,3.062 -6.336,3.805c-7.977,1.058 -7.67,3.704 0.494,4.236c5.546,0.362 5.842,0.568 5.842,4.065c0,3.68 -0.002,3.682 -7.815,3.7c-13.385,0.033 -15.253,4.494 -2.187,5.224c6.661,0.371 6.887,0.502 7.251,4.214l0.375,3.835l-15.378,1.57c-8.457,0.864 -15.776,1.958 -16.263,2.429c-0.488,0.473 -0.376,1.685 0.248,2.695c1.383,2.237 7.145,2.156 20.016,-0.287c5.157,-0.978 9.57,-1.294 9.808,-0.699c0.536,1.353 -2.844,6.755 -7.158,11.436c-1.801,1.956 -6.531,5.212 -10.511,7.232c-7.937,4.031 -8.459,6.33 -1.179,5.201c10.779,-1.67 21.332,-9.549 24.336,-18.168l1.278,-3.662l11.968,12.772l11.973,12.77l9.053,-0.684c14.471,-1.094 16.135,-3.562 4.818,-7.146c-2.75,-0.872 -7.742,-2.958 -11.092,-4.637c-6.748,-3.382 -22.038,-14.964 -22.038,-16.692c-0,-0.605 8.016,-1.256 17.814,-1.446c14.535,-0.284 17.817,-0.678 17.817,-2.151c-0,-0.992 -1.834,-2.878 -4.075,-4.185c-3.905,-2.282 -4.553,-2.296 -15.781,-0.382c-16.614,2.832 -16.797,2.808 -16.416,-2.067l0.315,-4.065l9.226,-0.972c12.033,-1.272 13.073,-1.653 11.089,-4.044c-1.732,-2.087 -9.24,-2.411 -16.552,-0.712c-4.575,1.061 -4.69,1.002 -4.69,-2.472c0,-3.048 0.674,-3.745 4.69,-4.861c2.579,-0.716 5.713,-1.305 6.967,-1.309c1.507,-0.005 2.129,-0.748 1.834,-2.195c-0.359,-1.748 -1.635,-2.148 -6.345,-1.985c-5.341,0.182 -5.894,-0.062 -5.894,-2.612c-0,-2.503 0.969,-2.99 8.75,-4.381c5.888,-1.052 8.752,-2.131 8.752,-3.3c0,-1.545 -1.425,-2.369 -4.383,-2.473l0,-0.001Z" style="fill:#f00;fill-rule:nonzero;"/></g></g></svg>