<?xml version="1.0" encoding="UTF-8" standalone="no"?><!DOCTYPE svg PUBLIC "-//W3C//DTD SVG 1.1//EN" "http://www.w3.org/Graphics/SVG/1.1/DTD/svg11.dtd"><svg width="100%" height="100%" viewBox="0 0 72 70" version="1.1" xmlns="http://www.w3.org/2000/svg" xmlns:xlink="http://www.w3.org/1999/xlink" xml:space="preserve" xmlns:serif="http://www.serif.com/" style="fill-rule:evenodd;clip-rule:evenodd;stroke-linejoin:round;stroke-miterlimit:2;"><g><path d="M16.727,0.93c-1.576,0.61 -1.442,1.31 0.836,4.39c2.108,2.85 2.527,4.64 1.887,8.05c-1.021,5.44 -5.432,6.87 -12.324,3.99c-5.634,-2.35 -5.922,-2.36 -5.922,-0.13c-0,3.14 6.264,6.96 11.42,6.96c6.106,0 6.44,2.67 0.597,4.78c-5.613,2.03 -10.768,7.34 -10.768,11.08c-0,4.07 3.014,9.64 6.86,12.66c2.014,1.59 2.881,3.21 2.39,4.49c-1.461,3.81 0.711,8.35 4.858,10.16c5.536,2.4 28.302,2.44 34.021,0.05c5.846,-2.45 6.415,-5.78 3.869,-22.72c-2.152,-14.31 -1.8,-21.81 1.139,-24.25c1.213,-1.01 2.271,-0.51 4.244,2c3.186,4.05 3.37,7.81 0.482,9.92c-1.92,1.41 -1.63,1.79 2.746,3.62c6.379,2.66 8.153,1.84 8.153,-3.79c0,-8.67 -8.849,-17.94 -15.533,-16.26c-4.977,1.25 -6.143,5.74 -6.248,24.07l-0.098,17.04l-3.529,2.64c-4.384,3.28 -23.329,4.63 -26.623,1.9c-2.674,-2.22 -1.458,-9.45 3.32,-19.71c4.104,-8.82 4.364,-10.4 2.256,-13.78c-2.234,-3.58 -0.527,-5.92 5.404,-7.42c6.744,-1.7 10.506,-4.32 9.213,-6.41c-0.978,-1.58 -6.792,-1.32 -10.973,0.5c-2.04,0.88 -2.056,0.65 -0.25,-3.67c1.451,-3.48 1.578,-5.04 0.516,-6.32c-1.88,-2.27 -9.588,-4.74 -11.943,-3.84Zm-1.74,34.91c0.571,0.53 0.366,2.05 -0.27,4.88c-0.652,2.9 -1.33,5.42 -1.505,5.6c-0.176,0.18 -1.551,-0.54 -3.057,-1.6c-3.661,-2.56 -3.462,-6.04 0.447,-7.82c2.469,-1.13 3.814,-1.59 4.385,-1.06Z" style="fill-rule:nonzero;"/></g></svg>