<?xml version="1.0" encoding="UTF-8" standalone="no"?><!DOCTYPE svg PUBLIC "-//W3C//DTD SVG 1.1//EN" "http://www.w3.org/Graphics/SVG/1.1/DTD/svg11.dtd"><svg width="100%" height="100%" viewBox="0 0 83 68" version="1.1" xmlns="http://www.w3.org/2000/svg" xmlns:xlink="http://www.w3.org/1999/xlink" xml:space="preserve" xmlns:serif="http://www.serif.com/" style="fill-rule:evenodd;clip-rule:evenodd;stroke-linejoin:round;stroke-miterlimit:2;"><g><path d="M21.086,0.99c-1.607,0.61 -2.786,4.47 -3.528,11.57l-0.787,7.53l-7.357,1.45c-4.046,0.8 -7.696,2 -8.112,2.67c-1.416,2.29 2.683,3.56 9.256,2.86c7.84,-0.83 8.904,1.25 1.25,2.44c-8.083,1.26 -9.689,1.9 -9.689,3.88c0,2.57 5.784,4.46 10.781,3.53l4.221,-0.8l-0,6.89c-0,6.76 -0.133,7.02 -6.875,13.18c-6.163,5.63 -8.411,8.97 -6.041,8.97c0.46,0 3.77,-1.66 7.353,-3.68l6.516,-3.68l2.832,3.02c1.557,1.66 5.141,3.53 7.963,4.17c2.822,0.63 9.069,1.21 13.883,1.28c11.876,0.18 16.351,-2.18 21.016,-11.11c3.076,-5.89 3.485,-7.81 2.853,-13.34c-1.537,-13.45 -3.502,-13.74 -6.349,-0.94c-1.481,6.65 -3.164,10.66 -5.649,13.44c-3.371,3.77 -4.049,3.98 -14.201,4.4c-10.14,0.41 -10.822,0.28 -13.969,-2.87c-2.893,-2.89 -3.099,-3.6 -1.633,-5.61c9.682,-13.25 10.184,-14.19 8.731,-16.52c-1.349,-2.16 -0.936,-2.32 6.064,-2.32c8.422,0 9.989,-2.07 4.362,-5.76c-3.105,-2.03 -7.803,-1.96 -17.166,0.24c-6.67,1.57 -3.387,-1.66 3.75,-3.7c10.024,-2.85 11.622,-4.06 8.513,-6.43c-3.029,-2.31 -4.663,-2.32 -10.115,-0.04l-4.336,1.81l0,-7.28c0,-4.79 -0.612,-7.8 -1.789,-8.77c-0.629,-0.52 -1.212,-0.68 -1.748,-0.48Zm40.648,0.82c-1.011,0.03 -0.781,0.79 0.98,2.27c4.344,3.67 6.457,6.18 9.104,10.8c2.372,4.15 1.949,5.24 -2.813,7.23c-5.798,2.42 -5.541,3.87 0.631,3.56c2.754,-0.14 5.318,0.24 5.699,0.86c1.479,2.39 5.505,1.09 6.289,-2.03c1.716,-6.83 -4.662,-16.6 -13.424,-20.56c-3.203,-1.45 -5.456,-2.16 -6.467,-2.13l0.001,-0Zm-38.01,32.57c0.131,-0.14 0.304,0.04 0.504,0.54c0.361,0.9 0.317,1.98 -0.098,2.39c-0.416,0.42 -0.713,-0.32 -0.658,-1.64c0.03,-0.73 0.12,-1.16 0.252,-1.29Z" style="fill:#800000;fill-rule:nonzero;"/></g></svg>