<?xml version="1.0" encoding="UTF-8" standalone="no"?><!DOCTYPE svg PUBLIC "-//W3C//DTD SVG 1.1//EN" "http://www.w3.org/Graphics/SVG/1.1/DTD/svg11.dtd"><svg width="100%" height="100%" viewBox="0 0 87 98" version="1.1" xmlns="http://www.w3.org/2000/svg" xmlns:xlink="http://www.w3.org/1999/xlink" xml:space="preserve" xmlns:serif="http://www.serif.com/" style="fill-rule:evenodd;clip-rule:evenodd;stroke-linejoin:round;stroke-miterlimit:2;"><g><g><path d="M40.313,0.54c-4.885,-0 -5.485,2.738 -1.524,6.953c1.801,1.918 3.134,6.206 4.436,14.295c1.023,6.356 1.582,11.833 1.246,12.17c-0.846,0.847 -15.166,3.905 -30.127,6.439c-9.739,1.651 -12.584,2.59 -12.905,4.255c-0.745,3.87 5.59,5.141 14.026,2.811c4.059,-1.12 7.788,-1.586 8.281,-1.038c0.494,0.547 1.241,6.986 1.662,14.308c0.656,11.397 0.485,13.422 -1.192,14.066c-3.819,1.467 -4.253,0.658 -4.253,-7.927c0,-7.553 -0.361,-8.934 -2.779,-10.627c-2.894,-2.027 -7.235,-2.633 -7.211,-1.008c0.007,0.515 0.853,3.697 1.877,7.073c1.023,3.375 1.864,8.273 1.864,10.884c-0,4.512 -0.233,4.784 -4.69,5.526c-2.579,0.427 -5.391,0.999 -6.251,1.267c-2.832,0.886 -1.614,4.902 2.133,7.035c3.604,2.051 3.888,1.996 13.433,-2.611c5.364,-2.588 12.962,-5.976 16.889,-7.532c11.782,-4.665 13.571,-9.682 2.153,-6.031l-6.291,2.015l0.376,-6.47c0.339,-5.845 0.676,-6.506 3.498,-6.851c6.184,-0.757 11.254,-2.957 11.254,-4.887c-0,-1.632 -1.138,-1.817 -6.974,-1.131l-6.974,0.818l0.353,-4.102c0.195,-2.256 -0.048,-4.754 -0.539,-5.548c-0.865,-1.399 2.478,-2.867 10.644,-4.672c3.137,-0.693 3.487,-0.349 4.735,4.581c5.344,21.105 11.873,34.298 21.964,44.39c9.274,9.273 13.581,10.371 14.715,3.75c1.644,-9.598 2.303,-20.94 1.218,-20.94c-0.636,0 -2.938,2.531 -5.12,5.625c-2.18,3.094 -4.502,5.627 -5.158,5.627c-1.978,-0 -9.616,-10.142 -13.652,-18.129c-3.419,-6.768 -9.482,-25.526 -8.55,-26.457c0.206,-0.206 3.427,-0.814 7.156,-1.351c4.893,-0.704 6.895,-1.568 7.191,-3.103c0.554,-2.877 -4.717,-4.099 -10.904,-2.528l-4.83,1.225l-0.75,-4.522c-0.411,-2.487 -0.747,-8.849 -0.76,-14.139c-0.012,-8.513 -0.334,-9.841 -2.793,-11.564c-1.528,-1.07 -4.623,-1.945 -6.877,-1.945Zm20.753,12.502c-6.458,-0 -5.962,1.836 1.943,7.187c8.358,5.657 11.686,5.211 10.039,-1.348c-0.931,-3.711 -5.298,-5.839 -11.982,-5.839Zm-27.859,10.685c-1.984,0.223 -4.752,0.875 -8.948,2.034c-10.012,2.766 -13.138,5.171 -8.349,6.421c3.918,1.024 7.056,0.728 15.216,-1.432c8.668,-2.296 10.545,-4.21 6.33,-6.465c-1.064,-0.57 -2.265,-0.779 -4.251,-0.557l0.002,-0.001Z" style="fill:#f00;fill-rule:nonzero;"/></g></g></svg>