<?xml version="1.0" encoding="UTF-8" standalone="no"?><!DOCTYPE svg PUBLIC "-//W3C//DTD SVG 1.1//EN" "http://www.w3.org/Graphics/SVG/1.1/DTD/svg11.dtd"><svg width="100%" height="100%" viewBox="0 0 84 67" version="1.1" xmlns="http://www.w3.org/2000/svg" xmlns:xlink="http://www.w3.org/1999/xlink" xml:space="preserve" xmlns:serif="http://www.serif.com/" style="fill-rule:evenodd;clip-rule:evenodd;stroke-linejoin:round;stroke-miterlimit:2;"><g><path d="M50.29,0.68c-1.69,0.32 -0.39,1.97 1.79,4.85c1.46,1.93 1.41,3.38 -0.35,9.84l-2.07,7.57l-7.5,2.33c-4.128,1.29 -7.645,2.35 -7.817,2.36c-0.172,0.01 -0.312,-2.2 -0.312,-4.9c-0,-7.05 -1.836,-10.93 -6.235,-13.2c-4.987,-2.58 -6.752,-1.46 -4.539,2.87c1.705,3.34 4.917,16.52 4.201,17.23c-0.205,0.21 -6.239,2.02 -13.408,4.02c-12.644,3.54 -15.917,5.62 -12.365,7.87c3.094,1.96 9.82,1.18 15.822,-1.84c9.61,-4.83 11.198,-5.06 12.154,-1.77c0.459,1.57 2.317,4.11 4.129,5.63l3.295,2.77l-3.715,3.9c-5.492,5.77 -7.874,6.77 -10.482,4.41c-1.2,-1.08 -2.841,-1.97 -3.646,-1.97c-1.956,0 -1.925,10.29 0.037,12.25c1.887,1.89 1.494,1.94 7.045,-0.89c2.582,-1.32 7.071,-4.98 9.976,-8.13c2.91,-3.15 5.51,-5.73 5.78,-5.73c0.27,0 2.23,2.83 4.36,6.29c4.04,6.57 6.9,8.65 9,6.56c2.01,-2.01 -0.1,-7.47 -5.04,-13.04l-4.63,-5.21l5.07,-9.05c4.27,-7.61 5.79,-9.27 9.59,-10.43c7.87,-2.4 13.28,-1.78 15.62,1.78c2.67,4.08 1.83,19.16 -1.44,25.89c-2.42,4.98 -1.83,7.31 1.21,4.78c3.9,-3.23 8.22,-14.17 8.15,-20.63c-0.11,-9.9 -2.29,-14.7 -7.9,-17.44c-4.24,-2.07 -5.64,-2.18 -11.13,-0.91c-3.45,0.79 -6.43,1.29 -6.61,1.11c-0.18,-0.18 0.75,-2.54 2.06,-5.25c1.32,-2.7 2.4,-5.55 2.4,-6.34c-0,-2.23 -5.25,-6.59 -9.07,-7.54c-0.97,-0.24 -1.74,-0.3 -2.3,-0.19l-1.13,0.15Zm-3.53,29.11l-2.59,5.09c-3.25,6.37 -4.07,6.87 -7.432,4.52c-3.843,-2.69 -3.479,-6.27 0.732,-7.19c1.89,-0.42 4.76,-1.13 6.37,-1.59l2.92,-0.83Z" style="fill:#800000;fill-rule:nonzero;"/></g></svg>