<?xml version="1.0" encoding="UTF-8" standalone="no"?><!DOCTYPE svg PUBLIC "-//W3C//DTD SVG 1.1//EN" "http://www.w3.org/Graphics/SVG/1.1/DTD/svg11.dtd"><svg width="100%" height="100%" viewBox="0 0 96 86" version="1.1" xmlns="http://www.w3.org/2000/svg" xmlns:xlink="http://www.w3.org/1999/xlink" xml:space="preserve" xmlns:serif="http://www.serif.com/" style="fill-rule:evenodd;clip-rule:evenodd;stroke-linejoin:round;stroke-miterlimit:2;"><g><g><path d="M40.621,1.542c-3.038,-0 -3.096,0.171 -2.319,6.787c0.585,4.972 0.061,9.773 -1.959,17.949l-2.758,11.158l-16.836,1.627c-14.043,1.355 -16.777,1.948 -16.463,3.574c0.208,1.073 1.884,2.798 3.727,3.832c2.87,1.611 4.393,1.649 10.619,0.274c3.998,-0.884 9.429,-1.932 12.073,-2.331l4.805,-0.725l-2.606,5.11c-3.255,6.381 -2.485,8.507 3.42,9.451c2.554,0.409 5.752,1.554 7.11,2.547c2.435,1.781 2.43,1.843 -0.49,4.951c-1.628,1.733 -7.113,5.204 -12.19,7.713c-5.077,2.508 -9.231,5.074 -9.231,5.701c-0,3.959 18.081,-1.584 26.745,-8.197l5.408,-4.127l4.239,3.242c2.331,1.784 7.306,5.942 11.053,9.236c7.59,6.674 11.314,7.676 11.314,3.049c-0,-4.908 -5.218,-11.065 -13.375,-15.781c-4.254,-2.46 -8.108,-4.846 -8.562,-5.298c-0.453,-0.454 1.626,-5.425 4.619,-11.046l5.442,-10.219l15.004,0.451c13.936,0.421 15,0.288 15,-1.865c-0,-1.349 -1.903,-3.423 -4.557,-4.962c-4.3,-2.494 -5.151,-2.559 -14.92,-1.135c-8.889,1.295 -10.65,1.245 -12.416,-0.351c-2.871,-2.6 -6.237,-2.348 -6.237,0.465c0,1.909 -1.278,2.458 -7.147,3.064c-3.932,0.405 -7.305,0.578 -7.499,0.384c-0.433,-0.432 4.863,-15.835 7.771,-22.605l2.129,-4.957l-3.898,-3.482c-2.144,-1.917 -5.302,-3.484 -7.016,-3.484l0.001,-0Zm7.942,40.094c5.037,-0.083 5.343,0.101 4.53,2.725c-0.479,1.548 -2.066,5.155 -3.525,8.014l-2.651,5.199l-5.881,-3.005l-5.882,-3.007l1.685,-4.007c1.951,-4.638 4.247,-5.798 11.724,-5.919Z" style="fill:#f00;fill-rule:nonzero;"/></g></g></svg>