<?xml version="1.0" encoding="UTF-8" standalone="no"?><!DOCTYPE svg PUBLIC "-//W3C//DTD SVG 1.1//EN" "http://www.w3.org/Graphics/SVG/1.1/DTD/svg11.dtd"><svg width="100%" height="100%" viewBox="0 0 67 70" version="1.1" xmlns="http://www.w3.org/2000/svg" xmlns:xlink="http://www.w3.org/1999/xlink" xml:space="preserve" xmlns:serif="http://www.serif.com/" style="fill-rule:evenodd;clip-rule:evenodd;stroke-linejoin:round;stroke-miterlimit:2;"><g><path d="M36.607,0.51c-0.833,0.31 -0.728,1.39 0.414,3.22c1.669,2.67 2.002,9.8 0.559,11.97c-0.506,0.76 -2.918,1.75 -5.364,2.2c-2.445,0.45 -6.644,1.93 -9.33,3.3c-2.685,1.37 -5.044,2.49 -5.242,2.49c-0.198,0 -0.361,-2.57 -0.361,-5.72c0,-4.66 -0.68,-6.4 -3.655,-9.38c-2.01,-2.01 -4.823,-3.65 -6.252,-3.65c-3.076,0 -3.134,0.33 -0.832,4.79c0.97,1.87 2.625,6.7 3.676,10.73l1.912,7.32l-3.627,4.52c-4.15,5.17 -7.474,13.72 -7.474,19.22c-0,5.37 2.556,13.18 4.564,13.95c2.78,1.07 7.546,-1.36 13.572,-6.91c5.46,-5.04 5.739,-5.14 8.09,-3.01c2.592,2.34 6.279,1.81 6.279,-0.91c-0,-0.9 -0.873,-2.88 -1.939,-4.4c-1.821,-2.6 -1.635,-3.28 3.082,-11.22c2.761,-4.65 5.658,-10.28 6.437,-12.51c1.891,-5.43 6.012,-5.39 12.008,0.1c3.95,3.62 4.627,5.08 5.123,11.07c1.093,13.18 -7.228,24.02 -21.664,28.23c-3.051,0.89 -5.549,2.24 -5.549,3c-0,0.95 2.237,1.12 7.09,0.55c17.898,-2.1 27.916,-12.09 27.916,-27.83c-0,-11.82 -4.61,-18.63 -15.371,-22.72l-5.719,-2.17l2.016,-4.16c2.468,-5.09 1.374,-7.35 -5.148,-10.59c-2.609,-1.3 -4.379,-1.78 -5.211,-1.48Zm-1.24,20.9c0.316,0.31 -1.332,4.55 -3.66,9.41c-5.857,12.22 -6.545,12.4 -11.33,2.98c-2.137,-4.2 -2.125,-4.3 0.781,-6.54c3.379,-2.61 13.349,-6.71 14.209,-5.85Zm-22.04,13.53c0.483,0 2.359,3.03 4.172,6.72l3.297,6.72l-4.033,3.91c-2.218,2.15 -4.688,3.91 -5.491,3.91c-1.894,0 -4.048,-4.07 -4.048,-7.65c0,-3.11 4.71,-13.61 6.103,-13.61Z" style="fill-rule:nonzero;"/></g></svg>