<?xml version="1.0" encoding="UTF-8" standalone="no"?><!DOCTYPE svg PUBLIC "-//W3C//DTD SVG 1.1//EN" "http://www.w3.org/Graphics/SVG/1.1/DTD/svg11.dtd"><svg width="100%" height="100%" viewBox="0 0 51 76" version="1.1" xmlns="http://www.w3.org/2000/svg" xmlns:xlink="http://www.w3.org/1999/xlink" xml:space="preserve" xmlns:serif="http://www.serif.com/" style="fill-rule:evenodd;clip-rule:evenodd;stroke-linejoin:round;stroke-miterlimit:2;"><g><path d="M24,0.67c-4.52,-0.45 -4.7,-0.05 -1.91,4.21c1.76,2.69 1.82,3.85 0.43,8.82c-0.88,3.15 -2.47,6.05 -3.53,6.46c-1.06,0.41 -4.69,-0.8 -8.06,-2.69c-3.38,-1.88 -6.49,-3.08 -6.91,-2.66c-1.64,1.64 3.17,7.62 8.04,10.01c5.34,2.61 5.36,2.7 2.27,10.31c-1.53,3.78 -1.88,3.97 -4.84,2.62c-3.46,-1.58 -4.02,-3.47 -1.71,-5.79c2.49,-2.48 0.06,-3.24 -3.31,-1.03c-5.5,3.6 -3.48,10.53 3.88,13.33c2.53,0.96 2.79,1.64 2,5.21c-2.63,11.77 0.11,19.41 8.54,23.87c7.49,3.96 21.99,1.3 27.77,-5.09c5.61,-6.19 4.77,-18.48 -1.73,-25.44c-4.49,-4.81 -5.92,-3.97 -3.16,1.84c1.12,2.37 2.04,6.66 2.04,9.55c-0,4.34 -0.76,6.01 -4.4,9.66c-4.12,4.11 -4.82,4.36 -10.67,3.8c-10.02,-0.96 -15.13,-7.77 -13.03,-17.34l0.85,-3.89l7.69,0.82c5.46,0.58 8.31,0.35 9.85,-0.81c3.78,-2.83 0.64,-5.09 -8.22,-5.89l-8.16,-0.73l5.16,-11.88l7.34,0c5.4,0 7.34,-0.45 7.34,-1.72c-0,-2.66 -3.49,-4.94 -7.57,-4.94c-2.02,-0 -3.68,-0.21 -3.68,-0.46c-0,-0.25 1.46,-3.33 3.24,-6.85c3.23,-6.37 3.23,-6.39 0.81,-9.65c-1.53,-2.05 -3.87,-3.4 -6.36,-3.65Z" style="fill-rule:nonzero;"/></g></svg>