<?xml version="1.0" encoding="UTF-8" standalone="no"?><!DOCTYPE svg PUBLIC "-//W3C//DTD SVG 1.1//EN" "http://www.w3.org/Graphics/SVG/1.1/DTD/svg11.dtd"><svg width="100%" height="100%" viewBox="0 0 73 72" version="1.1" xmlns="http://www.w3.org/2000/svg" xmlns:xlink="http://www.w3.org/1999/xlink" xml:space="preserve" xmlns:serif="http://www.serif.com/" style="fill-rule:evenodd;clip-rule:evenodd;stroke-linejoin:round;stroke-miterlimit:2;"><g><path d="M30.923,0.21c-3.691,0 -3.105,1.49 1.85,4.7c4.367,2.83 5.869,6.55 2.642,6.55c-0.945,0 -4.11,-0.84 -7.033,-1.87c-6.406,-2.26 -12.707,-2.42 -14.752,-0.38c-2.434,2.43 -1.727,7.71 1.644,12.28l3.145,4.26l-4.707,2.85c-3.461,2.09 -5.784,2.65 -8.772,2.09c-4.477,-0.83 -4.998,0.13 -2.216,4.11c3.292,4.7 7.864,4.8 14.107,0.32c4.522,-3.25 5.788,-3.67 6.763,-2.26c2.699,3.9 8.599,17.92 11.119,26.42c1.479,4.99 2.962,9.52 3.297,10.08c0.335,0.55 1.823,0.83 3.305,0.62c2.325,-0.33 2.684,-1.17 2.627,-6.13c-0.051,-4.43 -1.768,-9.16 -7.488,-20.63c-4.083,-8.18 -7.604,-15.26 -7.825,-15.73c-0.578,-1.23 16.995,-10.79 22.779,-12.38c5.763,-1.59 9.588,-0.3 12.57,4.25c2.417,3.69 0.978,8.52 -3.394,11.38c-3.44,2.26 -11.946,2.92 -19.389,1.51c-6.613,-1.25 -7.028,0.62 -0.795,3.58c3.423,1.62 6.934,2.03 14.492,1.69c9.429,-0.43 10.175,-0.68 13.611,-4.52c2.825,-3.17 3.626,-5.25 3.594,-9.37c-0.082,-10.4 -9.095,-15.75 -21.838,-12.96c-3.271,0.72 -4.027,0.34 -5.91,-2.99c-2.17,-3.84 -8.696,-7.47 -13.428,-7.47l0.002,0Zm-10.954,12.5c0.752,-0.94 2.779,-0.89 6.026,0.2c7.116,2.4 7.898,3.63 3.943,6.24c-4.603,3.03 -5.933,2.91 -8.344,-0.77c-1.852,-2.83 -2.376,-4.74 -1.625,-5.67Z" style="fill-rule:nonzero;"/></g></svg>