<?xml version="1.0" encoding="UTF-8" standalone="no"?><!DOCTYPE svg PUBLIC "-//W3C//DTD SVG 1.1//EN" "http://www.w3.org/Graphics/SVG/1.1/DTD/svg11.dtd"><svg width="100%" height="100%" viewBox="0 0 73 83" version="1.1" xmlns="http://www.w3.org/2000/svg" xmlns:xlink="http://www.w3.org/1999/xlink" xml:space="preserve" xmlns:serif="http://www.serif.com/" style="fill-rule:evenodd;clip-rule:evenodd;stroke-linejoin:round;stroke-miterlimit:2;"><g><g><path d="M28.695,0.512c-2.751,0.3 -2.766,2.49 -0.539,7.397c1.63,3.595 2.519,8.243 2.537,13.287l0.027,7.758l-4.526,0.846c-2.488,0.466 -9.286,0.552 -15.111,0.19c-11.825,-0.738 -11.143,-1.601 -7.215,9.077c1.139,3.095 2.606,11.252 3.261,18.129c0.655,6.877 2.099,14.33 3.21,16.564c2.108,4.241 4.972,5.319 6.129,2.305c0.677,-1.766 13.877,-4.05 27.595,-4.775l6.468,-0.343l2.58,5.314c1.419,2.922 3.463,5.313 4.542,5.313c3.061,0 6.66,-9.775 8.829,-23.975c1.084,-7.099 2.808,-15.439 3.829,-18.533c3.053,-9.243 2.831,-10.222 -3.064,-13.503c-5.323,-2.963 -5.408,-2.97 -14.378,-0.964c-4.962,1.109 -10.366,2.373 -12.01,2.808l-2.99,0.791l0.899,-11.508c1.02,-13.042 0.392,-14.606 -6.391,-15.879c-1.543,-0.289 -2.763,-0.399 -3.68,-0.299l-0.002,0Zm26.188,31.257l-0.003,0.001c5.694,0.26 5.626,3.092 4.537,13.548c-0.607,5.845 -1.563,12.814 -2.119,15.487l0.006,-0l-1.011,4.859l-9.66,0.141l-9.664,0.139l0.002,-6.467l0,-6.469l6.562,-1.045c4.515,-0.719 6.564,-1.626 6.564,-2.908c-0,-1.415 -1.582,-1.864 -6.566,-1.864l-6.566,0l-0,-14.117l10.129,-0.898c3.354,-0.297 5.891,-0.495 7.789,-0.409l-0,0.002Zm-24.168,2.839l0,14.131l-5.103,0.685c-6.401,0.859 -7.436,1.862 -4.296,4.158c1.532,1.12 3.794,1.52 5.936,1.049c3.462,-0.76 3.463,-0.755 3.463,6.215c0,6.397 -0.235,6.978 -2.814,6.991c-1.548,0.007 -4.837,0.349 -7.311,0.758l-4.494,0.743l-1.444,-12.679c-2.374,-20.885 -2.884,-19.431 7.312,-20.84l8.751,-1.21l0,-0.001Z" style="fill:#f00;fill-rule:nonzero;"/></g></g></svg>