<?xml version="1.0" encoding="UTF-8" standalone="no"?><!DOCTYPE svg PUBLIC "-//W3C//DTD SVG 1.1//EN" "http://www.w3.org/Graphics/SVG/1.1/DTD/svg11.dtd"><svg width="100%" height="100%" viewBox="0 0 74 82" version="1.1" xmlns="http://www.w3.org/2000/svg" xmlns:xlink="http://www.w3.org/1999/xlink" xml:space="preserve" xmlns:serif="http://www.serif.com/" style="fill-rule:evenodd;clip-rule:evenodd;stroke-linejoin:round;stroke-miterlimit:2;"><g><path d="M34.374,1.4c-4.472,-0.73 -5.96,2.13 -2.877,7.52c0.982,1.72 1.806,6.04 1.83,9.61l0.045,6.49l-5.787,0.87c-3.184,0.47 -10.498,0.57 -16.254,0.21c-5.756,-0.36 -10.465,-0.22 -10.465,0.3c-0,0.52 1.109,3.46 2.466,6.53c1.421,3.21 3.206,11.93 4.205,20.53c1.771,15.24 3.73,20.82 7.081,20.16c2.294,-0.45 2.316,-5.13 0.111,-23.8c-0.876,-7.42 -1.308,-14.24 -0.959,-15.15c0.349,-0.91 3.628,-2.04 7.305,-2.52c3.668,-0.48 7.935,-1.18 9.482,-1.56c2.665,-0.65 2.814,-0.32 2.814,6.32l-0,7.01l-4.064,0.02c-6.503,0.03 -7.631,1.47 -8.205,10.49c-0.287,4.5 -0.164,9.6 0.271,11.34c0.7,2.79 1.447,3.16 6.395,3.16l5.603,0l-0,5.41c-0,2.98 0.395,5.82 0.877,6.3c0.483,0.48 1.748,0.71 2.813,0.51c1.396,-0.27 2.042,-2.21 2.316,-6.97l0.379,-6.6l10.352,0.21c12.207,0.24 15.445,-1.1 16.232,-6.69c0.314,-2.23 1.212,-9.08 1.998,-15.23c0.786,-6.14 2.326,-12.69 3.422,-14.55c2.623,-4.44 1.558,-6.74 -4.561,-9.86c-4.841,-2.47 -5.423,-2.5 -14.125,-0.69c-12.307,2.57 -12.523,2.54 -11.742,-1.54c2.526,-13.21 2.469,-13.78 -1.552,-15.86c-2.095,-1.08 -3.916,-1.73 -5.406,-1.97Zm21.41,26.47c4.96,0.34 4.992,3.37 3.804,13.82c-0.678,5.97 -1.676,12.99 -2.218,15.6c-1.069,5.14 -1.192,5.19 -11.191,4.48l-6.565,-0.47l0,-12.37l5.553,0c5.121,0 8.229,-1.64 6.463,-3.41c-0.405,-0.4 -2.852,-1.08 -5.438,-1.49l-4.703,-0.76l-0.742,-14.14l8.295,-0.88c2.886,-0.31 5.088,-0.5 6.742,-0.38Zm-24.77,21.05c2.02,0 2.355,0.98 2.355,6.88c0,6.5 -0.172,6.88 -3.127,6.88c-2.696,0 -3.122,-0.56 -3.107,-4.06c0.027,-6.5 1.305,-9.7 3.879,-9.7Z" style="fill:#800000;fill-rule:nonzero;"/></g></svg>