<?xml version="1.0" encoding="UTF-8" standalone="no"?><!DOCTYPE svg PUBLIC "-//W3C//DTD SVG 1.1//EN" "http://www.w3.org/Graphics/SVG/1.1/DTD/svg11.dtd"><svg width="100%" height="100%" viewBox="0 0 68 71" version="1.1" xmlns="http://www.w3.org/2000/svg" xmlns:xlink="http://www.w3.org/1999/xlink" xml:space="preserve" xmlns:serif="http://www.serif.com/" style="fill-rule:evenodd;clip-rule:evenodd;stroke-linejoin:round;stroke-miterlimit:2;"><g><path d="M39.673,1.45c-3.572,-0.87 -7.525,-0.02 -10.441,2.9c-3.296,3.29 -6.75,10.37 -6.75,13.82c-0,1.12 -2.307,4.65 -5.127,7.85c-2.82,3.2 -6.172,7.79 -7.447,10.19l-2.319,4.38l-0.074,-5c-0.04,-2.75 1.139,-8.73 2.621,-13.28c1.51,-4.64 2.365,-9.59 1.945,-11.26c-0.676,-2.7 -7.812,-8.3 -9.025,-7.09c-0.274,0.28 0.141,2.58 0.92,5.12c1.146,3.73 0.987,6.49 -0.83,14.44c-2.67,11.69 -2.209,22.46 1.266,29.57c2.763,5.66 6.018,6.6 6.537,1.88c0.803,-7.31 3.077,-14.24 6.447,-19.65l3.602,-5.79l0.886,7.41c1.021,8.52 4.603,15.82 8.883,18.12c1.631,0.87 2.967,2.07 2.967,2.67c0,0.6 -3.636,3.41 -8.078,6.24c-4.443,2.83 -7.785,5.62 -7.426,6.2c1.419,2.3 16.61,-3.46 21.754,-8.24c1.719,-1.6 5.376,-3.3 8.127,-3.77c6.993,-1.2 13.878,-6.06 16.854,-11.89c2.998,-5.88 3.369,-16.86 0.781,-23.06c-1.979,-4.73 -8.424,-10.13 -13.672,-11.44c-1.946,-0.48 -3.859,-1.79 -4.25,-2.91c-1.389,-3.96 -4.579,-6.55 -8.15,-7.42l-0.001,0.01Zm-4.434,4.48c2,-0.48 4.068,0.46 5.086,3.12c0.414,1.08 -1.315,2.36 -4.961,3.67l-5.595,2.01l0.8,-3.32c0.742,-3.08 2.671,-5 4.67,-5.48Zm14.07,9.28l3.27,1.7c4.426,2.29 7.357,8.97 7.357,16.74c0,7.5 -2.126,12.23 -7.552,16.79c-4.799,4.04 -6.752,4.2 -5.698,0.47c2.599,-9.21 3.39,-15.78 3.03,-25.15l-0.407,-10.55Zm-8.49,0.22c1.544,1.55 1.821,13.19 0.516,21.6c-0.753,4.85 -2.116,10.6 -3.029,12.77l-1.661,3.95l-2.648,-2.83c-4.102,-4.38 -5.316,-8.99 -5.316,-20.19l0,-10.32l5.707,-2.85c3.138,-1.57 6.032,-2.53 6.431,-2.13Z" style="fill-rule:nonzero;"/></g></svg>