<?xml version="1.0" encoding="UTF-8" standalone="no"?><!DOCTYPE svg PUBLIC "-//W3C//DTD SVG 1.1//EN" "http://www.w3.org/Graphics/SVG/1.1/DTD/svg11.dtd"><svg width="100%" height="100%" viewBox="0 0 59 75" version="1.1" xmlns="http://www.w3.org/2000/svg" xmlns:xlink="http://www.w3.org/1999/xlink" xml:space="preserve" xmlns:serif="http://www.serif.com/" style="fill-rule:evenodd;clip-rule:evenodd;stroke-linejoin:round;stroke-miterlimit:2;"><g><path d="M19.81,1.41c-1.99,0.39 -1.82,0.87 1.31,3.78l3.59,3.33l0.12,21.2l0.12,21.21l-7.56,0.6c-4.15,0.34 -9.36,1.54 -11.56,2.68c-3.69,1.91 -4.01,2.56 -4.01,8.26c-0,6.83 2.25,9.3 10.35,11.35c2.21,0.57 6.81,0.85 10.2,0.63c7.32,-0.48 10.71,-3.72 10.71,-10.24c-0,-2.33 0.22,-4.24 0.49,-4.24c1.11,0 10.55,4.67 16.04,7.93c6.44,3.84 8.47,3.56 8.47,-1.15c-0,-3.87 -8.17,-9.34 -18.65,-12.47l-7.28,-2.19l-0.78,-8.25c-1.49,-15.8 -2.43,-14.5 10.43,-14.5c10.06,-0 11.51,-0.3 14.06,-2.89c2.72,-2.75 2.75,-2.95 0.57,-4.57c-2.34,-1.75 -6.55,-1.14 -11.88,1.72c-1.55,0.82 -4.73,1.07 -7.68,0.6c-5.58,-0.89 -6.12,-2.38 -3.8,-10.47c0.69,-2.38 0.94,-5.3 0.57,-6.47c-0.78,-2.44 -10.4,-6.5 -13.83,-5.85Zm2.28,55.92c3.84,0.11 4.69,0.6 4.69,2.7c-0,1.4 -1.38,3.93 -3.07,5.62c-3.96,3.96 -11.31,3.78 -16,-0.38c-2.95,-2.61 -2.75,-4.59 0.63,-6.28c2.98,-1.5 6.17,-1.88 13.75,-1.66Z" style="fill-rule:nonzero;"/></g></svg>