<?xml version="1.0" encoding="UTF-8" standalone="no"?><!DOCTYPE svg PUBLIC "-//W3C//DTD SVG 1.1//EN" "http://www.w3.org/Graphics/SVG/1.1/DTD/svg11.dtd"><svg width="100%" height="100%" viewBox="0 0 86 72" version="1.1" xmlns="http://www.w3.org/2000/svg" xmlns:xlink="http://www.w3.org/1999/xlink" xml:space="preserve" xmlns:serif="http://www.serif.com/" style="fill-rule:evenodd;clip-rule:evenodd;stroke-linejoin:round;stroke-miterlimit:2;"><g><g><g><path d="M56.984,55.864c-0.913,0.902 1.875,5.862 6.276,11.198c4.238,5.154 5.675,5.417 10.189,1.865c3.85,-3.028 4.325,-6.161 0.925,-6.161c-1.3,0 -5.601,-1.7 -9.564,-3.779c-3.951,-2.078 -7.476,-3.483 -7.826,-3.123Z" style="fill:#591616;fill-rule:nonzero;"/><path d="M28.592,55.264c-0.363,-0 -2.876,1.127 -5.576,2.503c-2.688,1.375 -6.889,2.499 -9.314,2.499c-3.888,-0 -4.439,0.38 -4.439,3.125c0,1.719 1.088,4.21 2.413,5.534c1.513,1.509 3.388,2.151 5.026,1.722c4.638,-1.21 15.59,-15.382 11.89,-15.382l-0,-0.001Z" style="fill:#591616;fill-rule:nonzero;"/><path d="M39.218,25.259c-1.913,-0 -7.939,13.382 -7.051,15.677c1.325,3.477 4.413,1.911 5.626,-2.863c2.55,-10.019 2.863,-12.814 1.425,-12.814Z" style="fill:#f00;fill-rule:nonzero;"/><path d="M29.842,1.968c-1.013,-0.389 -3.751,0.472 -6.076,1.914c-2.338,1.442 -5.439,2.621 -6.901,2.621c-2.626,0 -2.651,0.213 -1.851,18.755l0.813,18.751l-6.189,0c-6.876,0 -9.201,1.518 -9.201,6.004c0,2.992 0.025,2.998 9.064,1.938c11.414,-1.341 45.632,-1.379 59.91,-0.068c10.301,0.945 10.964,0.854 13.477,-1.84c4.425,-4.756 2.9,-6.725 -4.826,-6.215l-6.701,0.444l0.487,-19.197l0.476,-19.195l-5.526,-0.396c-7.764,-0.553 -11.352,0.569 -11.352,3.546c-0,2.102 0.85,2.475 5.626,2.475c5.413,0 5.626,0.139 5.626,3.751c-0,3.668 -0.138,3.749 -6.251,3.749c-5.414,0 -6.251,0.335 -6.251,2.503c-0,2.167 0.837,2.499 6.251,2.499c6.113,0 6.251,0.084 6.251,3.751c-0,3.674 -0.125,3.749 -6.339,3.749c-5.388,0 -6.276,0.335 -5.901,2.191c0.363,1.765 1.588,2.129 6.351,1.884l5.889,-0.304l-0,8.731l-20.629,0.209c-11.339,0.115 -21.616,0.256 -22.816,0.313c-1.688,0.08 -2.188,-0.898 -2.188,-4.271c0,-4.264 0.138,-4.386 5.389,-4.764c6.813,-0.491 6.376,-2.943 -0.8,-4.479c-4.289,-0.916 -5.214,-1.626 -5.214,-3.994c0,-2.548 0.688,-2.922 5.939,-3.259c4.275,-0.274 5.938,-0.905 5.938,-2.256c0,-1.35 -1.663,-1.984 -5.938,-2.258c-5.551,-0.356 -5.939,-0.603 -5.939,-3.813c0,-2.83 0.988,-3.914 5.626,-6.167c5.614,-2.724 7.289,-5.958 3.788,-7.301l-0.012,-0.001Z" style="fill:#591616;fill-rule:nonzero;"/><path d="M38.968,1.73c-2.513,0.359 -2.838,1.17 -3.075,7.901c-0.15,4.126 -0.425,8.627 -0.625,10.002c-0.313,2.238 0.262,2.462 5.513,2.133l5.876,-0.368l-0.738,8.705c-0.4,4.789 -0.362,9.641 0.075,10.786c0.438,1.144 1.501,1.846 2.351,1.563c1.412,-0.464 2.2,-4.975 3.663,-20.944l0.4,-4.375l-5.926,-0.38c-4.801,-0.308 -5.951,-0.826 -5.951,-2.681c-0,-2.629 2.375,-3.814 7.614,-3.814c2.4,-0 3.638,-0.639 3.638,-1.877c-0,-1.355 -1.388,-1.875 -5.001,-1.875c-4.213,-0 -5.001,-0.403 -5.001,-2.588c0,-1.968 -0.662,-2.492 -2.813,-2.188Z" style="fill:#f00;fill-rule:nonzero;"/></g></g></g></svg>