<?xml version="1.0" encoding="UTF-8" standalone="no"?><!DOCTYPE svg PUBLIC "-//W3C//DTD SVG 1.1//EN" "http://www.w3.org/Graphics/SVG/1.1/DTD/svg11.dtd"><svg width="100%" height="100%" viewBox="0 0 82 90" version="1.1" xmlns="http://www.w3.org/2000/svg" xmlns:xlink="http://www.w3.org/1999/xlink" xml:space="preserve" xmlns:serif="http://www.serif.com/" style="fill-rule:evenodd;clip-rule:evenodd;stroke-linejoin:round;stroke-miterlimit:2;"><g><g><path d="M27.664,0.19c-1.062,0.227 -1.587,1.438 -1.587,3.627c-0,5.424 -7.064,26.63 -10.002,30.013c-3.075,3.547 -3.15,5.29 -0.325,7.844c2.013,1.807 3.101,1.712 12.827,-1.113c6.976,-2.029 15.39,-3.345 24.542,-3.84c13.314,-0.719 13.989,-0.635 15.352,1.91c1.463,2.738 0.175,10.347 -4.401,26.123c-3,10.304 -4.675,11.257 -14.565,8.319c-3,-0.894 -2.737,1.584 0.626,5.823c1.55,1.948 3.825,4.982 5.063,6.745c1.238,1.762 2.713,3.204 3.275,3.204c1.263,0 12.602,-12.024 12.627,-13.388c0.063,-4.676 6.664,-32.587 8.389,-35.543c2.188,-3.716 2.176,-3.815 -0.75,-6.194c-4.876,-3.968 -8.176,-4.099 -31.067,-1.24c-12.04,1.504 -22.204,2.417 -22.591,2.03c-0.388,-0.387 0.237,-3.703 1.4,-7.367l2.1,-6.665l5.639,-0.085c6.763,-0.102 29.092,-3.936 32.18,-5.523c6.151,-3.168 -0.338,-6.46 -9.277,-4.704c-10.514,2.067 -26.041,4.524 -26.041,4.12c-0,-0.204 0.975,-2.414 2.162,-4.915c2.138,-4.484 2.126,-4.577 -0.762,-6.918c-2.138,-1.734 -3.738,-2.489 -4.814,-2.263Zm21.479,47.83c-1.813,-0.183 -4.151,0.113 -8.376,0.75c-5.001,0.752 -15.728,2.138 -23.842,3.079c-8.114,0.943 -15.14,2.103 -15.627,2.583c-0.475,0.479 0.462,1.948 2.088,3.263c3.35,2.722 6.426,2.976 12.677,1.048c2.413,-0.74 12.764,-1.725 23.028,-2.188c12.165,-0.55 18.816,-1.339 19.116,-2.268c0.262,-0.784 -1.513,-2.651 -3.951,-4.154c-2.05,-1.273 -3.313,-1.932 -5.113,-2.113Z" style="fill:#f00;fill-rule:nonzero;"/></g></g></svg>