<?xml version="1.0" encoding="UTF-8" standalone="no"?><!DOCTYPE svg PUBLIC "-//W3C//DTD SVG 1.1//EN" "http://www.w3.org/Graphics/SVG/1.1/DTD/svg11.dtd"><svg width="100%" height="100%" viewBox="0 0 66 80" version="1.1" xmlns="http://www.w3.org/2000/svg" xmlns:xlink="http://www.w3.org/1999/xlink" xml:space="preserve" xmlns:serif="http://www.serif.com/" style="fill-rule:evenodd;clip-rule:evenodd;stroke-linejoin:round;stroke-miterlimit:2;"><g><path d="M25.88,4.83c-5.85,-0.94 -6.28,-0.04 -1.93,4c3.8,3.52 4.04,8.34 0.63,12.68c-3.37,4.27 -3.15,8.63 0.68,13.65c5.15,6.75 6.69,11.45 5.13,15.6c-1.28,3.39 -1.77,3.59 -8.63,3.59c-12.01,-0 -19.56,4.4 -19.64,11.45c-0.06,4.29 5.92,9.44 12.18,10.48c2.56,0.43 5.22,0.97 5.9,1.2c4.21,1.43 11.31,-0.67 13.93,-4.11c0.89,-1.18 1.64,-3.97 1.66,-6.21c0.02,-2.23 0.33,-4.06 0.67,-4.06c0.89,-0 11.71,5.4 16.35,8.15c4.46,2.64 8.03,1.81 8.03,-1.89c-0,-3.32 -8.94,-9.04 -18.65,-11.95l-7.28,-2.18l2,-3.48c1.88,-3.27 1.83,-3.82 -0.74,-8.88c-1.51,-2.97 -3.72,-6.92 -4.92,-8.78c-2.35,-3.65 -1.57,-6 1.23,-3.68c0.94,0.78 1.94,1.19 2.22,0.91c0.28,-0.28 3.88,-0.83 8.01,-1.22c4.12,-0.4 8.91,-1.05 10.63,-1.46c1.71,-0.41 3.8,-0.79 4.63,-0.85c2.08,-0.15 3.22,-3.59 1.71,-5.1c-1.11,-1.11 -21.19,1.49 -29.47,3.81c-1.88,0.53 -1.49,-0.25 1.56,-3.1c3.38,-3.17 4.06,-4.72 4.06,-9.26c-0,-6.26 -1.88,-8.02 -9.94,-9.31l-0.01,-0Zm-8.39,54.98c1.79,-0.11 3.76,-0.02 5.82,0.31c4.08,0.65 5.02,1.31 5.02,3.53c-0,1.5 -0.7,3.6 -1.56,4.68c-3.84,4.8 -18.44,2.6 -18.44,-2.79c-0,-3.22 3.79,-5.4 9.16,-5.73Z" style="fill:#800000;fill-rule:nonzero;"/></g></svg>