<?xml version="1.0" encoding="UTF-8" standalone="no"?><!DOCTYPE svg PUBLIC "-//W3C//DTD SVG 1.1//EN" "http://www.w3.org/Graphics/SVG/1.1/DTD/svg11.dtd"><svg width="100%" height="100%" viewBox="0 0 76 96" version="1.1" xmlns="http://www.w3.org/2000/svg" xmlns:xlink="http://www.w3.org/1999/xlink" xml:space="preserve" xmlns:serif="http://www.serif.com/" style="fill-rule:evenodd;clip-rule:evenodd;stroke-linejoin:round;stroke-miterlimit:2;"><g><g><path d="M20.561,2.747c-1.146,-0.014 -2.061,0.098 -2.511,0.376c-2.024,1.253 -0.649,3.173 5.444,7.586c6.242,4.522 9.105,4.296 8.741,-0.689c-0.145,-1.974 -0.801,-4.129 -1.462,-4.789c-1.267,-1.268 -6.777,-2.444 -10.212,-2.484Zm16.977,14.288c-2.861,0.163 -6.887,1.172 -13.949,3.132c-9.59,2.659 -12.48,3.038 -14.343,1.874c-4.205,-2.627 -6.475,-1.847 -5.756,1.982c0.355,1.89 1.319,7.094 2.143,11.564c2.166,11.756 0.66,38.77 -2.565,46.061c-2.794,6.317 -3.094,10.292 -0.939,12.447c0.825,0.825 1.686,1.5 1.914,1.5c0.227,0 3.946,-2.95 8.264,-6.561c4.318,-3.609 10.066,-8.33 12.776,-10.486c2.709,-2.156 4.53,-4.331 4.048,-4.834c-0.482,-0.504 -4.561,0.81 -9.064,2.918l-8.185,3.83l-0,-26.44l16.969,16.481c9.334,9.062 18.359,17.001 20.054,17.646c2.856,1.087 17.373,-0.195 23.365,-2.061c4.37,-1.363 1.238,-3.46 -9.205,-6.163c-5.805,-1.502 -12.081,-3.35 -13.945,-4.108c-4.582,-1.859 -13.485,-7.822 -13.485,-9.03c0,-0.536 4.212,-3.417 9.362,-6.399c10.549,-6.112 11.582,-8.501 5.327,-12.314c-2.234,-1.363 -4.378,-2.478 -4.761,-2.48c-0.384,-0.003 -1.63,2.114 -2.774,4.704c-1.143,2.59 -4.214,6.797 -6.823,9.345l-4.745,4.636l-7.187,-5.825c-7.929,-6.423 -7.763,-7.202 1.826,-8.521c4.601,-0.633 6.43,-0.366 7.963,1.166c4.083,4.084 5.687,1.908 8.754,-11.883c1.131,-5.091 2.848,-10.5 3.81,-12.023c2.573,-4.069 2.171,-5.822 -1.88,-8.215c-2.408,-1.421 -4.106,-2.104 -6.967,-1.942l-0.003,0l0.001,-0.001Zm-4.568,6.201c2.457,-0.272 3.866,0.009 4.369,0.823c0.636,1.029 -1.991,14.325 -3.588,18.161c-0.517,1.243 -1.659,1.983 -2.539,1.646c-0.88,-0.338 -4.604,0.187 -8.277,1.165c-8.472,2.255 -9.371,2.239 -10.296,-0.171c-1.557,-4.062 -0.691,-5.215 4.554,-6.044c8.636,-1.364 14.691,-3.515 14.691,-5.221c-0,-2.645 -4.029,-3.071 -10.512,-1.112c-8.326,2.514 -9.249,2.391 -8.576,-1.128c0.473,-2.475 2.08,-3.423 9.515,-5.626c4.696,-1.391 8.201,-2.219 10.659,-2.493Z" style="fill:#f00;fill-rule:nonzero;"/></g></g></svg>