<?xml version="1.0" encoding="UTF-8" standalone="no"?><!DOCTYPE svg PUBLIC "-//W3C//DTD SVG 1.1//EN" "http://www.w3.org/Graphics/SVG/1.1/DTD/svg11.dtd"><svg width="100%" height="100%" viewBox="0 0 50 75" version="1.1" xmlns="http://www.w3.org/2000/svg" xmlns:xlink="http://www.w3.org/1999/xlink" xml:space="preserve" xmlns:serif="http://www.serif.com/" style="fill-rule:evenodd;clip-rule:evenodd;stroke-linejoin:round;stroke-miterlimit:2;"><g><path d="M11.019,1.49c-2.218,-0.02 -0.648,4.26 2.715,7.4l3.652,3.42l-4.152,1.5c-4.965,1.79 -7.549,6.66 -8.721,16.43c-0.454,3.78 -1.425,9.74 -2.158,13.24c-2.359,11.26 3.321,15.71 9.971,7.8c5.287,-6.28 13.738,-11.04 19.566,-11.02c6.185,0.02 7.647,0.88 9.404,5.5c3.688,9.7 -7.593,20.16 -24.338,22.58c-7.783,1.12 -8.65,1.64 -6.662,4.04c2.244,2.7 16.13,1.55 24.184,-2.01c8.913,-3.95 12.756,-8.11 14.445,-15.66c1.712,-7.65 -0.373,-14.21 -5.604,-17.64c-5.346,-3.5 -17.748,-2.78 -25.906,1.51c-3.689,1.94 -7.088,3.7 -7.552,3.91c-0.464,0.22 -0.023,-3.13 0.982,-7.43c1.005,-4.31 1.668,-9.51 1.471,-11.55c-0.337,-3.49 0.003,-3.79 5.893,-5.24c3.438,-0.85 8.923,-1.91 12.189,-2.36c6.479,-0.9 7.615,-3 3.869,-7.14c-1.487,-1.64 -3.864,-2.29 -8.44,-2.29c-4.253,-0.01 -7.615,-0.84 -10.119,-2.49c-2.063,-1.37 -4.174,-2.5 -4.689,-2.5Z" style="fill-rule:nonzero;"/></g></svg>