<?xml version="1.0" encoding="UTF-8" standalone="no"?><!DOCTYPE svg PUBLIC "-//W3C//DTD SVG 1.1//EN" "http://www.w3.org/Graphics/SVG/1.1/DTD/svg11.dtd"><svg width="100%" height="100%" viewBox="0 0 54 75" version="1.1" xmlns="http://www.w3.org/2000/svg" xmlns:xlink="http://www.w3.org/1999/xlink" xml:space="preserve" xmlns:serif="http://www.serif.com/" style="fill-rule:evenodd;clip-rule:evenodd;stroke-linejoin:round;stroke-miterlimit:2;"><g><path d="M11.474,1.7c-2.379,0.06 -4.205,0.65 -4.205,1.71c0,0.95 2.755,3.62 6.123,5.94l6.123,4.22l-8.926,2.54c-6.15,1.74 -9.055,3.2 -9.34,4.68c-0.576,2.99 3.138,2.76 15.869,-0.97c5.761,-1.69 10.965,-2.77 11.564,-2.4c0.599,0.37 1.09,3.06 1.09,5.97l-0,5.3l-8.188,1.4c-4.503,0.77 -8.934,2.02 -9.845,2.78c-0.912,0.75 -2.292,3.9 -3.065,6.98c-0.773,3.08 -2.065,8.21 -2.871,11.41c-1.376,5.46 -1.289,5.96 1.43,8.16c2.625,2.13 3.141,2.17 5.529,0.45c9.233,-6.66 14.074,-8.73 21.523,-9.2c7.23,-0.46 7.894,-0.28 9.889,2.77c2.013,3.07 2.014,3.45 0.013,6.5c-2.798,4.27 -13.189,8.86 -22.541,9.95c-8.554,1 -9.745,1.46 -8.597,3.31c0.527,0.86 4.76,1.11 11.873,0.7c14.2,-0.81 24.14,-5.18 26.924,-11.84c2.244,-5.38 0.984,-9.83 -3.782,-13.39c-4.955,-3.7 -20.275,-3.55 -28.766,0.28c-3.353,1.51 -6.342,2.75 -6.64,2.75c-0.573,0 0.657,-10.37 1.662,-14.02c0.584,-2.12 2.071,-2.55 14.51,-4.13c5.135,-0.66 6.042,-1.21 6.74,-4.12c0.444,-1.85 1.85,-5.44 3.125,-7.99l2.319,-4.63l-4.375,-3.33c-3.953,-3.02 -4.855,-3.22 -9.362,-2.08c-2.743,0.7 -4.693,0.79 -4.334,0.21c1.343,-2.17 -0.971,-7.15 -3.953,-8.51c-2.209,-1.01 -5.139,-1.46 -7.517,-1.4l0.001,0Z" style="fill:#800000;fill-rule:nonzero;"/></g></svg>