<?xml version="1.0" encoding="UTF-8" standalone="no"?><!DOCTYPE svg PUBLIC "-//W3C//DTD SVG 1.1//EN" "http://www.w3.org/Graphics/SVG/1.1/DTD/svg11.dtd"><svg width="100%" height="100%" viewBox="0 0 45 77" version="1.1" xmlns="http://www.w3.org/2000/svg" xmlns:xlink="http://www.w3.org/1999/xlink" xml:space="preserve" xmlns:serif="http://www.serif.com/" style="fill-rule:evenodd;clip-rule:evenodd;stroke-linejoin:round;stroke-miterlimit:2;"><g><path d="M3.589,1c-1.26,-0.1 -1.74,0.83 -1.131,2.8c2.048,6.6 2.069,8.67 0.17,17.01c-2.314,10.18 -2.618,25.54 -0.619,31.27c1.431,4.11 5.26,7.09 7.397,5.77c0.673,-0.41 1.224,-2.94 1.224,-5.62c-0,-10.74 4.744,-24.69 10.895,-32.03c8.607,-10.29 15.336,-3.05 15.352,16.5c0.013,16.43 -5.052,25.95 -19.371,36.42c-3.21,2.34 -3.39,2.75 -1.25,2.8c4.335,0.1 14.864,-5.6 18.947,-10.25c6.247,-7.11 9.322,-17.01 9.301,-29.93c-0.038,-24.17 -11.892,-33.34 -24.887,-19.24c-5.556,6.03 -8.193,10.6 -11.557,20.05l-2.248,6.32l-0.06,-5c-0.033,-2.75 1.378,-8.94 3.132,-13.76c5.085,-13.94 5.135,-15.9 0.512,-19.79c-2.507,-2.11 -4.546,-3.23 -5.807,-3.32Z" style="fill-rule:nonzero;"/></g></svg>