<?xml version="1.0" encoding="UTF-8" standalone="no"?><!DOCTYPE svg PUBLIC "-//W3C//DTD SVG 1.1//EN" "http://www.w3.org/Graphics/SVG/1.1/DTD/svg11.dtd"><svg width="100%" height="100%" viewBox="0 0 82 91" version="1.1" xmlns="http://www.w3.org/2000/svg" xmlns:xlink="http://www.w3.org/1999/xlink" xml:space="preserve" xmlns:serif="http://www.serif.com/" style="fill-rule:evenodd;clip-rule:evenodd;stroke-linejoin:round;stroke-miterlimit:2;"><g><g><path d="M71.487,0.988c-2.818,-0.1 -3.275,1.806 -1.293,5.639c1.651,3.193 1.979,8.901 1.963,34.21c-0.01,16.709 -0.456,31.07 -0.993,31.914c-0.735,1.157 -2.14,1.209 -5.724,0.219c-2.613,-0.721 -5.057,-1.003 -5.434,-0.626c-0.376,0.375 1.333,2.914 3.797,5.642c2.464,2.728 5.371,6.68 6.459,8.784c2.276,4.399 3.287,4.679 5.93,1.637c3.33,-3.831 3.808,-9.039 3.594,-39.07c-0.116,-16.208 0.375,-32.402 1.094,-36.123c1.511,-7.825 0.774,-9.288 -5.791,-11.454c-1.462,-0.483 -2.663,-0.739 -3.602,-0.772Zm-34.718,2.245l-0.003,0.002c-1.263,0.1 -1.995,0.956 -2.734,2.613c-0.704,1.579 -5.517,5.038 -11.213,8.061c-13.388,7.104 -14.518,9.723 -2.651,6.152c5.833,-1.756 5.904,-1.742 7.073,1.332c0.65,1.708 1.182,4.643 1.182,6.522c-0,3.382 -0.122,3.432 -12.16,4.952c-13.282,1.678 -16.165,3.068 -12.289,5.929c3.021,2.229 5.804,2.234 14.137,0.015c3.611,-0.96 6.562,-1.319 6.562,-0.797c0,2.034 -8.205,12.372 -16.677,21.014c-6.884,7.021 -8.314,9.064 -6.35,9.064c5.132,-0 17.095,-9.508 23.601,-18.756c2.138,-3.038 2.172,-2.777 1.25,9.378c-1.202,15.869 -1.23,19.603 -0.177,22.347l-0.004,0c0.473,1.233 1.817,2.029 3.026,1.797c2.839,-0.547 3.92,-6.828 4.011,-23.295l0.074,-12.905l4.21,4.467c5.203,5.517 8.292,5.852 8.292,0.904c0,-4.278 -3.125,-7.381 -8.521,-8.46c-4.361,-0.873 -4.558,-1.304 -2.762,-6.028c1.002,-2.633 2.062,-3.222 5.937,-3.295c2.596,-0.048 5.774,-0.502 7.061,-1.007c2.246,-0.883 2.248,-1.009 0.109,-3.15c-1.76,-1.76 -3.365,-2.057 -7.65,-1.415c-5.809,0.872 -6.069,0.529 -4.245,-5.592c0.61,-2.053 0.33,-3.831 -0.823,-5.181c-1.573,-1.843 -1.133,-2.278 4.256,-4.199c3.306,-1.18 6.706,-2.344 7.555,-2.587c2.575,-0.735 0.48,-3.752 -4.14,-5.955c-2.874,-1.37 -4.673,-2.027 -5.937,-1.927Zm19.811,18.6c-2.372,-0.208 -2.522,3.473 -2.522,16.569c0,9.11 0.454,17.268 1.01,18.127c0.557,0.858 1.522,1.561 2.144,1.561c2.346,0 3.402,-4.811 4.178,-19.019c0.744,-13.651 0.636,-14.733 -1.621,-15.94c-1.36,-0.728 -2.399,-1.229 -3.189,-1.299l-0,0.001Z" style="fill:#f00;fill-rule:nonzero;"/></g></g></svg>