<?xml version="1.0" encoding="UTF-8" standalone="no"?><!DOCTYPE svg PUBLIC "-//W3C//DTD SVG 1.1//EN" "http://www.w3.org/Graphics/SVG/1.1/DTD/svg11.dtd"><svg width="100%" height="100%" viewBox="0 0 73 85" version="1.1" xmlns="http://www.w3.org/2000/svg" xmlns:xlink="http://www.w3.org/1999/xlink" xml:space="preserve" xmlns:serif="http://www.serif.com/" style="fill-rule:evenodd;clip-rule:evenodd;stroke-linejoin:round;stroke-miterlimit:2;"><g><path d="M61.294,2.07c-1.317,0.39 -1.677,1.59 -0.67,3.47c1.122,2.09 0.73,5.1 -1.92,14.71c-4.878,17.68 -5.776,19.69 -5.016,11.21c0.567,-6.33 0.328,-7.34 -2.144,-9.07c-1.53,-1.07 -3.358,-1.95 -4.065,-1.95c-0.81,0 -1.285,5.75 -1.285,15.59c0,12.48 0.39,15.97 1.959,17.54c1.779,1.78 2.139,1.75 3.902,-0.27c2.11,-2.42 6.158,-14.07 9.03,-25.98c1.755,-7.28 1.802,-6.78 1.586,16.88l-0.225,24.38l-5.312,-0.34c-6.137,-0.38 -6.57,0.6 -2.11,4.79c1.762,1.65 4.338,4.84 5.727,7.09c1.388,2.25 3.303,4.09 4.254,4.09c4.223,0 4.943,-5.06 4.976,-35.01c0.018,-16.16 0.502,-32.59 1.076,-36.52l1.043,-7.15l-4.4,-2.1c-2.817,-1.34 -5.09,-1.75 -6.406,-1.36Zm-32.89,2.28c-1.564,0.16 -2.83,1.08 -4.192,2.81c-1.287,1.64 -6.006,4.88 -10.488,7.2c-9.144,4.72 -10.477,6.82 -3.47,5.45c8.509,-1.67 8.439,-1.71 8.439,4.27c-0,5.99 -0.144,6.09 -9.742,6.55c-3.589,0.18 -4.643,0.71 -4.344,2.21c0.429,2.15 5.295,2.57 11.271,0.98c3.013,-0.81 3.437,-0.57 3.422,1.92c-0.01,1.56 -2.261,5.32 -5.002,8.36c-2.741,3.04 -4.982,5.13 -4.982,4.64c-0,-0.49 -1.232,0.26 -2.737,1.66c-1.505,1.4 -3.058,2.55 -3.451,2.55c-0.393,0 -1.421,1.14 -2.287,2.52c-1.404,2.25 -1.2,2.67 1.887,3.85c3.461,1.32 7.137,1.97 12.637,2.24c2.676,0.13 2.855,0.54 2.121,4.89c-0.441,2.61 -0.223,6.26 0.484,8.12c2.593,6.82 6.862,1.69 6.141,-7.38c-0.381,-4.78 -0.113,-5.5 2.074,-5.58c7.446,-0.28 12.39,-2.43 14.459,-6.29c2.007,-3.75 0.787,-4.15 -5.854,-1.89c-10.277,3.51 -10.733,3.23 -9.72,-5.79c0.698,-6.23 1.534,-8.39 4.125,-10.63c1.787,-1.55 3.892,-2.81 4.677,-2.81c1.789,0 2.992,-2.93 1.895,-4.62c-1.404,-2.15 -6.429,-4.3 -7.92,-3.37c-1.007,0.62 -1.179,-0.33 -0.594,-3.25c0.489,-2.44 0.25,-4.82 -0.584,-5.82c-1.115,-1.34 -0.475,-2.09 3.082,-3.57c2.469,-1.03 5.351,-1.88 6.405,-1.88c3.251,0 2.115,-3.58 -1.774,-5.59c-2.552,-1.32 -4.415,-1.92 -5.978,-1.75Zm-8.42,40.13l-0.473,5.17c-0.26,2.85 -0.937,5.75 -1.504,6.46c-1.124,1.4 -5.886,1.96 -8.377,0.99c-2.052,-0.8 -2.024,-4.15 0.035,-4.15c0.88,0 3.562,-1.91 5.959,-4.23l4.36,-4.24Z" style="fill:#800000;fill-rule:nonzero;"/></g></svg>