<?xml version="1.0" encoding="UTF-8" standalone="no"?><!DOCTYPE svg PUBLIC "-//W3C//DTD SVG 1.1//EN" "http://www.w3.org/Graphics/SVG/1.1/DTD/svg11.dtd"><svg width="100%" height="100%" viewBox="0 0 75 90" version="1.1" xmlns="http://www.w3.org/2000/svg" xmlns:xlink="http://www.w3.org/1999/xlink" xml:space="preserve" xmlns:serif="http://www.serif.com/" style="fill-rule:evenodd;clip-rule:evenodd;stroke-linejoin:round;stroke-miterlimit:2;"><g><g><path d="M23.877,0.955c-1.285,0.092 -2.29,0.804 -2.707,2.118c-0.391,1.233 -3.176,4.665 -6.192,7.623c-4.903,4.812 -5.772,5.222 -8.257,3.893c-4.222,-2.261 -5.4,0.031 -2.936,5.711c1.392,3.208 2.16,8.417 2.217,15.031c0.056,6.628 0.679,10.835 1.803,12.189c0.943,1.137 2.139,2.068 2.657,2.068c0.521,0 3.81,-3.927 7.312,-8.726c5.951,-8.157 6.617,-8.679 10.156,-7.972c3.432,0.687 3.787,0.455 3.787,-2.46c0,-2.18 -1.348,-4.248 -4.179,-6.409c-6.244,-4.76 -8.892,-3.921 -5.807,1.841c1.058,1.978 0.513,2.871 -3.336,5.488c-2.53,1.719 -5.068,2.837 -5.641,2.482c-0.573,-0.354 -1.041,-3.946 -1.041,-7.98l-0,-7.336l7.16,-4.152c3.938,-2.286 8.158,-4.56 9.377,-5.054c2.835,-1.146 2.851,-4.598 0.029,-6.739c-1.548,-1.176 -3.117,-1.706 -4.402,-1.616Zm40.832,7.044c-1.431,0.049 -3.16,0.57 -6.149,1.599c-3.613,1.243 -10.848,2.952 -16.076,3.796c-5.229,0.842 -9.507,1.905 -9.507,2.36c0,1.919 3.243,3.828 6.501,3.828c2.318,0 3.502,0.651 3.502,1.927c0,3.154 -4.449,10.919 -10.539,18.396c-3.143,3.858 -5.713,7.333 -5.713,7.723c-0,2.378 7.399,-2.069 12.687,-7.625c6.772,-7.118 13.838,-18.851 12.98,-21.555c-0.571,-1.801 0.114,-2.457 3.213,-3.077c7.378,-1.475 7.769,-1.244 7.044,4.167c-0.366,2.724 -1.709,7.085 -2.98,9.689c-2.043,4.181 -2.788,4.696 -6.376,4.416c-4.805,-0.375 -5.019,0.754 -1.249,6.572c3.275,5.059 5.752,5.471 9.315,1.559c3.612,-3.965 4.867,-6.736 7.239,-15.968c1.143,-4.454 2.6,-8.631 3.234,-9.284c2.264,-2.331 1.09,-5.406 -2.777,-7.279c-1.788,-0.867 -2.918,-1.293 -4.348,-1.244l-0.001,-0Zm-9.157,38.535c-1.534,-0.124 -3.304,0.282 -6.527,1.123c-10.957,2.852 -28.45,4.789 -35.645,3.943c-3.661,-0.43 -6.656,-0.565 -6.656,-0.299c0,0.266 0.79,2.379 1.758,4.697c0.967,2.319 2.621,9.226 3.676,15.35c2.164,12.561 4.739,16.781 7.757,12.711c1.876,-2.531 9.856,-4.205 20.85,-4.375c5.688,-0.087 6.012,0.105 8.506,4.995c4.311,8.451 7.575,4.513 10.696,-12.901c1.015,-5.672 2.673,-11.806 3.68,-13.631c2.773,-5.018 2.279,-6.599 -2.985,-9.558c-2.279,-1.28 -3.576,-1.933 -5.11,-2.056l0,0.001Zm-5.755,7.105c4.312,0.254 4.516,2.615 3.681,10.326c-0.921,8.499 -2.078,12.384 -3.317,11.145c-0.465,-0.465 -3.677,-0.783 -7.138,-0.705c-6.123,0.137 -6.295,0.045 -6.295,-3.426c-0,-3.197 0.52,-3.653 4.999,-4.369c3.036,-0.486 5.003,-1.476 5.003,-2.523c-0,-2.238 -2.471,-3.145 -6.484,-2.378c-2.777,0.531 -3.273,0.117 -3.751,-3.133l-0.548,-3.746l8.056,-0.864c2.464,-0.264 4.358,-0.412 5.796,-0.327l-0.002,-0Zm-23.378,2.723c1.878,-0.382 2.813,0.027 2.813,1.226c-0,0.988 0.329,2.653 0.73,3.699c0.539,1.404 -0.618,2.265 -4.416,3.287c-5.973,1.609 -5.611,3.768 0.633,3.768c3.905,0 4.303,0.332 4.303,3.593c-0,3.026 -0.618,3.72 -3.907,4.377c-6.749,1.351 -7.151,1.089 -7.974,-5.158c-0.43,-3.265 -1.07,-7.464 -1.419,-9.33c-0.666,-3.57 -0.96,-3.395 9.237,-5.462Z" style="fill:#f00;fill-rule:nonzero;"/></g></g></svg>