<?xml version="1.0" encoding="UTF-8" standalone="no"?><!DOCTYPE svg PUBLIC "-//W3C//DTD SVG 1.1//EN" "http://www.w3.org/Graphics/SVG/1.1/DTD/svg11.dtd"><svg width="100%" height="100%" viewBox="0 0 54 71" version="1.1" xmlns="http://www.w3.org/2000/svg" xmlns:xlink="http://www.w3.org/1999/xlink" xml:space="preserve" xmlns:serif="http://www.serif.com/" style="fill-rule:evenodd;clip-rule:evenodd;stroke-linejoin:round;stroke-miterlimit:2;"><g><path d="M36.879,1.78c-1.375,0.17 -3.111,0.91 -6.164,2.33c-7.69,3.58 -14.798,3.99 -19.201,1.11c-2.979,-1.96 -3.08,-1.92 -3.08,0.97c-0,4.39 3.399,8.55 6.996,8.55c1.708,0 5.191,-1.06 7.742,-2.35c10.716,-5.4 11.103,-4.68 2.668,5c-4.416,5.07 -11.827,13.07 -16.469,17.77c-6.447,6.54 -8.439,9.39 -8.439,12.12c0,5.77 2.154,5.53 9.363,-1.06c8.241,-7.53 18.259,-12.73 24.527,-12.73c3.691,0 5.335,0.82 8.014,4.01c2.954,3.51 3.302,4.82 2.82,10.63c-0.391,4.71 -1.397,7.53 -3.475,9.75l-2.925,3.11l-1.846,-3.81c-5.499,-11.36 -25.227,-8.95 -25.227,3.08c-0,3.54 5.149,8.12 10.354,9.2c17.257,3.6 30.91,-6.27 30.898,-22.33c-0.01,-15.05 -12.585,-22.82 -27.107,-16.75c-2.49,1.04 -4.719,1.7 -4.953,1.47c-0.917,-0.92 20.63,-20.86 22.537,-20.86c3.954,0 1.862,-5.63 -3.033,-8.16c-1.609,-0.83 -2.625,-1.22 -4,-1.05Zm-14.22,52.96c2.747,0 8.207,5.05 8.207,7.6c-0,1.81 -0.849,2.38 -3.439,2.32c-4.232,-0.1 -8.701,-2.17 -9.563,-4.41c-0.738,-1.93 2.382,-5.51 4.795,-5.51Z" style="fill-rule:nonzero;"/></g></svg>