<?xml version="1.0" encoding="UTF-8" standalone="no"?><!DOCTYPE svg PUBLIC "-//W3C//DTD SVG 1.1//EN" "http://www.w3.org/Graphics/SVG/1.1/DTD/svg11.dtd"><svg width="100%" height="100%" viewBox="0 0 92 84" version="1.1" xmlns="http://www.w3.org/2000/svg" xmlns:xlink="http://www.w3.org/1999/xlink" xml:space="preserve" xmlns:serif="http://www.serif.com/" style="fill-rule:evenodd;clip-rule:evenodd;stroke-linejoin:round;stroke-miterlimit:2;"><g><g><path d="M25.007,1.854c-5.02,-0.234 -4.423,2.676 2.33,7.937c8.507,6.627 13.463,5.666 10.531,-2.043c-0.867,-2.279 -2.674,-3.663 -5.989,-4.583c-2.9,-0.806 -5.199,-1.233 -6.872,-1.311Zm20.878,2.412c-2.007,0.229 -3.035,1.624 -1.746,4.034c0.735,1.372 1.396,14.198 1.556,30.154c0.315,31.289 1.015,34.065 9.514,37.736c3.216,1.389 7.542,1.798 15.692,1.484c11.634,-0.448 18.129,-2.424 18.129,-5.515c-0,-4.016 -5.505,-20.362 -6.721,-19.957c-0.722,0.241 -1.939,3.913 -2.707,8.158c-0.768,4.246 -1.783,8.104 -2.254,8.576c-2.782,2.783 -19.441,2.289 -22.391,-0.662c-3.451,-3.452 -3.063,-42.664 0.534,-53.86c1.266,-3.943 1.102,-4.527 -1.991,-7.187c-2.623,-2.257 -5.608,-3.192 -7.615,-2.962l0,0.001Zm-13.607,16.449c-2.051,0.03 -4.452,0.829 -7.697,2.401c-2.877,1.392 -8.54,3.151 -12.585,3.912c-11.539,2.167 -11.518,2.156 -8.154,4.9c3.82,3.116 5.713,3.037 14.653,-0.615c4.07,-1.662 7.565,-2.574 7.767,-2.024c0.95,2.586 -11.375,20.391 -21.433,30.963c-2.767,2.908 -4.642,5.674 -4.168,6.148c1.442,1.443 7.27,-2.338 14.121,-9.158c3.576,-3.56 6.839,-6.139 7.247,-5.73c1.156,1.156 0.876,9.143 -0.599,17.122c-1.009,5.457 -0.965,8.16 0.175,10.915c2.138,5.159 5.286,4.125 6.39,-2.096c1.692,-9.536 1.185,-28.369 -0.821,-30.587c-1.651,-1.824 -1.374,-2.767 2.6,-8.802c2.448,-3.716 5.921,-8.117 7.719,-9.782l3.269,-3.03l-2.883,-2.334c-1.846,-1.495 -3.548,-2.234 -5.6,-2.203l-0.002,0l0.001,0Zm-1.225,20.28c-1.69,0.534 -0.496,3.17 3.543,7.58c4.543,4.959 6.924,5.048 6.924,0.259c-0,-3.43 -3.118,-6.489 -7.813,-7.66c-1.206,-0.3 -2.091,-0.358 -2.654,-0.179Z" style="fill:#f00;fill-rule:nonzero;"/></g></g></svg>