<?xml version="1.0" encoding="UTF-8" standalone="no"?><!DOCTYPE svg PUBLIC "-//W3C//DTD SVG 1.1//EN" "http://www.w3.org/Graphics/SVG/1.1/DTD/svg11.dtd"><svg width="100%" height="100%" viewBox="0 0 88 72" version="1.1" xmlns="http://www.w3.org/2000/svg" xmlns:xlink="http://www.w3.org/1999/xlink" xml:space="preserve" xmlns:serif="http://www.serif.com/" style="fill-rule:evenodd;clip-rule:evenodd;stroke-linejoin:round;stroke-miterlimit:2;"><g><path d="M9.664,2.07c-0.589,0.21 -0.75,0.75 -0.75,1.71c-0,1.26 2.109,4.09 4.687,6.3c2.579,2.21 5.99,4.04 7.58,4.07c2.517,0.04 2.841,-0.49 2.5,-4.01c-0.417,-4.32 -2.948,-6.17 -10.705,-7.79c-1.707,-0.36 -2.723,-0.48 -3.312,-0.28Zm42.406,8.51c-4.195,-0.37 -8.772,4.69 -17.914,18.23c-5.856,8.66 -7.377,10 -9.256,8.12c-1.465,-1.47 2.105,-7.97 8.154,-14.86c2.028,-2.31 3.319,-4.94 2.926,-5.97c-1.291,-3.36 -6.896,-3.68 -12.805,-0.73c-3.033,1.51 -9.187,3.36 -13.678,4.1c-8.605,1.43 -9.661,2.94 -3.994,5.7c2.861,1.39 4.273,1.2 11.057,-1.56c4.277,-1.74 7.961,-2.98 8.185,-2.75c0.917,0.91 -9.477,16.42 -16.924,25.25c-4.383,5.2 -7.656,9.76 -7.275,10.14c1.165,1.16 11.835,-6.85 15.473,-11.61l3.428,-4.5l0.871,3.26c0.479,1.79 0.304,7.5 -0.389,12.69c-1.089,8.15 -0.973,9.86 0.856,12.65c3.304,5.05 4.789,1.94 5.613,-11.73l0.736,-12.19l6.108,-7.5c3.359,-4.12 7.999,-10.45 10.309,-14.06c2.309,-3.61 4.739,-6.56 5.409,-6.56c0.73,0 1.21,7.86 1.21,19.83c-0,22.43 0.84,24.86 9.58,27.74c9.95,3.28 28.12,-0.98 26.01,-6.1c-0.47,-1.15 -1.61,-4.82 -2.52,-8.16c-2.65,-9.72 -3.65,-9.64 -5.57,0.47c-0.7,3.69 -1.97,7.16 -2.82,7.7c-0.85,0.54 -4.41,0.99 -7.92,1c-9.19,0.03 -11.02,-2.4 -11.54,-15.42c-0.25,-6.15 0.38,-13.91 1.58,-19.56c1.96,-9.24 1.95,-9.41 -0.67,-11.57c-1.47,-1.21 -2.83,-1.93 -4.23,-2.05Z" style="fill:#800000;fill-rule:nonzero;"/></g></svg>