<?xml version="1.0" encoding="UTF-8" standalone="no"?><!DOCTYPE svg PUBLIC "-//W3C//DTD SVG 1.1//EN" "http://www.w3.org/Graphics/SVG/1.1/DTD/svg11.dtd"><svg width="100%" height="100%" viewBox="0 0 75 79" version="1.1" xmlns="http://www.w3.org/2000/svg" xmlns:xlink="http://www.w3.org/1999/xlink" xml:space="preserve" xmlns:serif="http://www.serif.com/" style="fill-rule:evenodd;clip-rule:evenodd;stroke-linejoin:round;stroke-miterlimit:2;"><g><path d="M13.089,1.3c-1.646,0.62 -1.607,2.46 1.387,5.02c2.011,1.72 2.496,3.67 2.48,9.97c-0.025,10.52 -0.874,11.57 -9.31,11.57c-7.498,-0 -8.763,1.52 -4.854,5.84c2.299,2.54 6.825,2.97 10.516,0.99c2.101,-1.12 2.418,-0.87 2.418,1.94c0,4.28 -2.628,9.16 -8.734,16.22c-5.239,6.05 -6.525,11.4 -3.063,12.72c1.153,0.45 2.632,-0.21 3.606,-1.6c0.908,-1.3 2.822,-3.76 4.254,-5.48l2.603,-3.12l0.043,4.65c0.033,3.62 -0.37,4.49 -1.834,3.93c-2.602,-1 -2.381,1.83 0.684,8.76c4.85,10.96 7.87,5.72 7.58,-13.15l-0.207,-13.46l6.494,-5.13c7.595,-6 11.437,-8.1 17.018,-9.31l4.063,-0.87l-0.026,6.04c-0.014,3.32 -0.538,9.58 -1.164,13.91c-1.42,9.82 0.022,14.6 4.918,16.31c5.068,1.77 12.714,-0.49 18.418,-5.45c4.884,-4.24 4.876,-7.49 -0.012,-4.39c-9.373,5.93 -15.221,6.23 -16.574,0.84c-0.401,-1.6 -0.1,-8.63 0.67,-15.62c0.77,-7 1.057,-13.28 0.637,-13.96c-1.394,-2.25 -12.361,-1.23 -19.994,1.88l-7.502,3.04l4.062,-3.68c4.855,-4.4 5.148,-7.03 0.991,-8.93c-2.484,-1.13 -3.72,-0.98 -6.436,0.8l-3.361,2.21l0.713,-4.84c0.392,-2.66 1.1,-6.64 1.576,-8.84c0.778,-3.59 0.443,-4.25 -3.34,-6.55c-3.743,-2.29 -7.073,-2.88 -8.719,-2.26l-0.001,-0Z" style="fill-rule:nonzero;"/></g></svg>