<?xml version="1.0" encoding="UTF-8" standalone="no"?><!DOCTYPE svg PUBLIC "-//W3C//DTD SVG 1.1//EN" "http://www.w3.org/Graphics/SVG/1.1/DTD/svg11.dtd"><svg width="100%" height="100%" viewBox="0 0 62 73" version="1.1" xmlns="http://www.w3.org/2000/svg" xmlns:xlink="http://www.w3.org/1999/xlink" xml:space="preserve" xmlns:serif="http://www.serif.com/" style="fill-rule:evenodd;clip-rule:evenodd;stroke-linejoin:round;stroke-miterlimit:2;"><g><path d="M40.29,0.9c-1.5,-0.36 -2.73,-0.05 -3.37,0.99c-0.39,0.63 -4.46,2.4 -9.04,3.92c-8.11,2.7 -8.42,2.71 -12.49,0.52c-2.3,-1.23 -4.56,-1.86 -5.03,-1.4c-1.55,1.56 1.48,7.58 4.75,9.42c2.98,1.67 3.88,1.5 11.74,-2.18c4.68,-2.19 8.75,-3.73 9.05,-3.44c0.29,0.3 -7.07,8.23 -16.38,17.62c-16.76,16.93 -17.87,18.6 -17.23,25.96c0.33,3.89 3.83,2.34 12.16,-5.41c9.22,-8.58 14.75,-11.35 22.85,-11.48c4.76,-0.07 6.12,0.51 9.14,3.89c2.51,2.81 3.55,5.29 3.55,8.49c0,9.54 -7.87,16.43 -21.88,19.14c-10.61,2.06 -11.92,2.68 -8.13,3.91c4.22,1.36 18.35,0.07 23.74,-2.16c9.01,-3.75 14.06,-11.12 14.06,-20.54c-0,-11.37 -7.19,-17.79 -19.79,-17.68c-3.75,0.04 -9.01,1.15 -12.3,2.6l-5.74,2.54l3.24,-4.24c4.17,-5.48 17.95,-17.58 22.23,-19.52c4.22,-1.93 4.19,-3.95 -0.11,-7.94c-1.74,-1.61 -3.52,-2.64 -5.02,-3.01Z" style="fill-rule:nonzero;"/></g></svg>