<?xml version="1.0" encoding="UTF-8" standalone="no"?><!DOCTYPE svg PUBLIC "-//W3C//DTD SVG 1.1//EN" "http://www.w3.org/Graphics/SVG/1.1/DTD/svg11.dtd"><svg width="100%" height="100%" viewBox="0 0 64 72" version="1.1" xmlns="http://www.w3.org/2000/svg" xmlns:xlink="http://www.w3.org/1999/xlink" xml:space="preserve" xmlns:serif="http://www.serif.com/" style="fill-rule:evenodd;clip-rule:evenodd;stroke-linejoin:round;stroke-miterlimit:2;"><g><path d="M38.35,6.79c-1.8,-0.03 -4.26,0.55 -9.17,1.72c-5.41,1.29 -13.37,2.36 -17.69,2.38c-6.29,0.02 -7.79,0.4 -7.5,1.88c0.64,3.34 7.24,3.98 19.52,1.88c8.49,-1.45 12.06,-1.61 13.06,-0.61c1.55,1.55 2.28,0.62 -15.68,20.3c-6.65,7.29 -11.69,13.67 -11.2,14.17c0.5,0.49 0.29,0.71 -0.46,0.48c-1.9,-0.58 -8.01,6.94 -8.01,9.87c0,4.53 1.71,4.16 6.91,-1.51c3.23,-3.51 6.26,-5.65 8.02,-5.65c1.56,0 5.59,-1.38 8.95,-3.07c3.37,-1.69 6.12,-2.8 6.12,-2.46c0,0.34 1.27,-0.08 2.82,-0.93c1.54,-0.85 3.42,-1.65 4.16,-1.78c0.75,-0.12 4.01,-1.64 7.25,-3.36c5.85,-3.12 10.18,-3.32 10.56,-0.5c0.92,6.98 0.92,15.76 -0,18.25c-1.37,3.67 -4.85,6.81 -9.82,8.87c-2.04,0.84 -3.71,2.03 -3.71,2.64c0,1.77 6.71,1.25 9.56,-0.74c1.43,-1 2.9,-1.53 3.26,-1.18c0.36,0.36 1.93,-1.14 3.5,-3.33c2.36,-3.32 2.9,-5.93 3.23,-15.47c0.34,-10.07 0.07,-11.87 -2.19,-14.68c-2.36,-2.93 -3.01,-3.1 -7.75,-2.04c-2.85,0.64 -5.47,1.59 -5.83,2.11c-0.79,1.13 -18.79,10.29 -18.79,9.56c0,-0.28 -2.11,0.35 -4.69,1.4c-4.05,1.65 -2.6,-0.19 10.76,-13.65c10.16,-10.24 15.29,-16.3 15,-17.73c-0.24,-1.2 -2.48,-3.37 -4.98,-4.81c-2.27,-1.32 -3.41,-1.97 -5.2,-2.01l-0.01,-0Z" style="fill:#800000;fill-rule:nonzero;"/></g></svg>