<?xml version="1.0" encoding="UTF-8" standalone="no"?><!DOCTYPE svg PUBLIC "-//W3C//DTD SVG 1.1//EN" "http://www.w3.org/Graphics/SVG/1.1/DTD/svg11.dtd"><svg width="100%" height="100%" viewBox="0 0 72 78" version="1.1" xmlns="http://www.w3.org/2000/svg" xmlns:xlink="http://www.w3.org/1999/xlink" xml:space="preserve" xmlns:serif="http://www.serif.com/" style="fill-rule:evenodd;clip-rule:evenodd;stroke-linejoin:round;stroke-miterlimit:2;"><g><path d="M19.759,0.86c-1.871,-0.26 -3.201,-0.09 -3.201,0.64c0,0.4 1.125,2.17 2.5,3.92c1.946,2.47 2.502,5.07 2.502,11.71l0,8.54l-5.315,1.36c-2.922,0.74 -6.021,1.59 -6.886,1.88c-0.866,0.29 -2.975,0 -4.688,-0.65c-2.538,-0.97 -3.115,-0.81 -3.115,0.87c0,3.13 3.771,6.63 7.131,6.63c1.647,-0 4.706,-0.88 6.799,-1.96c2.092,-1.09 4.075,-1.7 4.406,-1.37c0.983,0.98 -2.9,7.63 -9.736,16.66c-4.129,5.46 -6.471,9.81 -6.571,12.22c-0.255,6.2 3.325,5.45 7.873,-1.64c6.384,-9.94 7.6,-10.39 7.6,-2.76c0,5.99 -0.172,6.35 -2.418,5.15c-3.246,-1.73 -3.832,-1.64 -3.832,0.65c0,2.24 5.02,11.98 6.877,13.35c1.838,1.36 4.105,1.16 5.096,-0.44c0.477,-0.78 0.832,-8.59 0.787,-17.36l-0.08,-15.95l5.644,-4.05c6.222,-4.47 15.544,-7.78 18.9,-6.71c20.08,6.4 15.017,31.55 -7.799,38.75c-9.285,2.92 -8.851,4.72 0.95,3.93c17.077,-1.37 27.135,-11.37 27.135,-26.98c0,-8.73 -3.247,-14.6 -10.027,-18.13c-6.02,-3.13 -20.296,-2.35 -27.045,1.49l-4.811,2.73l4.268,-3.95c3.35,-3.11 3.992,-4.39 2.996,-5.98c-0.698,-1.11 -2.488,-2.21 -3.979,-2.43c-2.55,-0.38 -2.664,-0.86 -1.91,-8.22l0.803,-7.82l-4.402,-2.09c-2.167,-1.03 -4.58,-1.73 -6.452,-1.99Z" style="fill-rule:nonzero;"/></g></svg>