<?xml version="1.0" encoding="UTF-8" standalone="no"?><!DOCTYPE svg PUBLIC "-//W3C//DTD SVG 1.1//EN" "http://www.w3.org/Graphics/SVG/1.1/DTD/svg11.dtd"><svg width="100%" height="100%" viewBox="0 0 88 90" version="1.1" xmlns="http://www.w3.org/2000/svg" xmlns:xlink="http://www.w3.org/1999/xlink" xml:space="preserve" xmlns:serif="http://www.serif.com/" style="fill-rule:evenodd;clip-rule:evenodd;stroke-linejoin:round;stroke-miterlimit:2;"><g><g><path d="M37.727,0.856c-1.124,-0.003 -2.918,1.326 -3.984,2.953c-1.066,1.626 -7.177,5.681 -13.583,9.011c-12.089,6.287 -12.562,8.524 -1.087,5.161c7.076,-2.074 7.571,-1.648 7.571,6.555l-0,4.725l-13.127,2.251c-13.276,2.275 -15.973,3.987 -10.712,6.802c3.398,1.819 7.45,1.613 14.305,-0.722c3.254,-1.109 6.22,-1.715 6.588,-1.346c0.924,0.924 -7.901,13.572 -16.305,23.362c-3.834,4.475 -6.978,8.551 -6.988,9.063c-0.082,4.389 14.715,-7.563 22.83,-18.44l3.73,-5.001l-0.992,15.003c-1.428,21.628 -1.352,25.079 0.592,27.417c1.587,1.912 1.911,1.925 3.721,0.112c1.581,-1.575 2.069,-5.626 2.411,-20.053l0.43,-18.066l5.303,3.113c5.661,3.313 6.967,3.063 6.967,-1.325c-0,-3.575 -2.428,-5.513 -8.016,-6.426c-4.345,-0.7 -4.489,-0.9 -4.489,-6.122l0,-5.398l7.503,-1.479c4.573,-0.899 7.502,-2.111 7.502,-3.103c0,-2.289 -4.434,-3.433 -9.572,-2.47l-4.356,0.819l0.834,-5.568c0.682,-4.555 0.437,-5.791 -1.344,-6.787c-1.767,-0.989 -0.608,-1.739 6.131,-3.982c4.569,-1.521 8.307,-3.291 8.307,-3.932c0,-1.553 -7.583,-6.121 -10.17,-6.127Zm40.558,27.899c-2.694,-0.244 -5.909,0.305 -10.318,1.583c-4.507,1.306 -11.149,2.334 -14.76,2.283c-7.435,-0.104 -7.62,0.259 -4.843,9.486c0.93,3.098 2.108,8.999 2.614,13.125c0.506,4.125 1.446,8.489 2.088,9.689c1.889,3.538 4.83,2.675 4.83,-1.413c0,-3.95 -0.512,-3.775 17.815,-5.863c6.993,-0.8 8.707,-2.263 5.913,-5.064c-1.46,-1.45 0.99,-9.465 4.564,-14.922c2.161,-3.297 2.142,-3.432 -0.698,-5.732c-2.335,-1.89 -4.51,-2.928 -7.205,-3.172Zm-7.101,6.524c5.015,-0.585 4.732,1.744 2.878,10.389c-1.248,5.813 -1.607,6.238 -5.939,7.026c-2.535,0.462 -5.853,1.138 -7.371,1.5c-2.959,0.713 -3.252,0.063 -4.638,-10.289l-0.682,-5.077l8.834,-2.119c2.987,-0.716 5.246,-1.234 6.918,-1.43Z" style="fill:#f00;fill-rule:nonzero;"/></g></g></svg>