<?xml version="1.0" encoding="UTF-8" standalone="no"?><!DOCTYPE svg PUBLIC "-//W3C//DTD SVG 1.1//EN" "http://www.w3.org/Graphics/SVG/1.1/DTD/svg11.dtd"><svg width="100%" height="100%" viewBox="0 0 60 79" version="1.1" xmlns="http://www.w3.org/2000/svg" xmlns:xlink="http://www.w3.org/1999/xlink" xml:space="preserve" xmlns:serif="http://www.serif.com/" style="fill-rule:evenodd;clip-rule:evenodd;stroke-linejoin:round;stroke-miterlimit:2;"><g><path d="M23.43,0.76c-2.63,-0 -3.04,0.33 -1.88,1.5c2.03,2.02 1.9,7.64 -0.29,12.87c-2.48,5.95 -6.52,6.85 -16.64,3.71c-3.82,-1.18 -3.64,1.21 0.38,5.24c2.36,2.35 4.15,3.05 6.8,2.67c4.35,-0.64 4.05,0.11 -4.25,10.81c-4.15,5.33 -5.75,8.53 -5.75,11.48c-0,2.24 0.5,4.39 1.11,4.77c0.61,0.37 3.44,-2.41 6.29,-6.18c6.23,-8.25 10.02,-10.93 14.71,-10.39c2.89,0.33 3.59,1.08 3.89,4.15c0.31,3.19 -0.31,4.11 -4.15,6.18c-11.96,6.44 -15.8,18.4 -8,24.96c2.12,1.79 5.07,3.5 6.56,3.82c1.5,0.31 3.85,0.83 5.22,1.14c2.75,0.62 20.69,-0.44 22.19,-1.32c0.52,-0.3 0.94,-1.63 0.94,-2.95c-0,-3.31 -4.5,-4.2 -16.26,-3.22c-10.62,0.88 -15.36,-0.23 -17.43,-4.1c-1.84,-3.44 0.54,-8.28 5.61,-11.41c2.2,-1.36 4.28,-2.47 4.62,-2.47c0.35,-0 0.92,2.58 1.28,5.73c1.36,12.07 7.18,9.44 7.18,-3.24l-0,-7.04l6.56,-1.98c3.61,-1.09 8.81,-2.37 11.56,-2.85c6.31,-1.08 7.48,-2.95 4.1,-6.54c-2.95,-3.15 -8.47,-3.85 -8.47,-1.08c-0,0.98 -2.6,2.65 -5.85,3.75c-7.59,2.59 -9.15,2.51 -9.15,-0.43c-0,-5.11 -9.31,-8.12 -15.26,-4.94c-2.48,1.33 -2.46,1.16 0.4,-4c2.28,-4.1 4.01,-5.63 7.36,-6.47c14.18,-3.55 17.5,-4.9 17.5,-7.11c-0,-3.42 -4.82,-4.01 -10.88,-1.33c-5.7,2.52 -6.43,2.14 -3.46,-1.78c1.01,-1.34 1.84,-3.45 1.84,-4.69c-0,-3.34 -4.52,-7.26 -8.38,-7.26Z" style="fill-rule:nonzero;"/></g></svg>