<?xml version="1.0" encoding="UTF-8" standalone="no"?><!DOCTYPE svg PUBLIC "-//W3C//DTD SVG 1.1//EN" "http://www.w3.org/Graphics/SVG/1.1/DTD/svg11.dtd"><svg width="100%" height="100%" viewBox="0 0 61 86" version="1.1" xmlns="http://www.w3.org/2000/svg" xmlns:xlink="http://www.w3.org/1999/xlink" xml:space="preserve" xmlns:serif="http://www.serif.com/" style="fill-rule:evenodd;clip-rule:evenodd;stroke-linejoin:round;stroke-miterlimit:2;"><g><path d="M39.05,1.46c-2.49,0 -3.14,1.86 -1.08,3.13c2.03,1.25 1.44,6.61 -1.33,12.04c-2.55,4.99 -2.68,5.06 -8.44,4.55c-3.22,-0.29 -6.84,-0.96 -8.04,-1.5c-1.52,-0.68 -2.19,-0.44 -2.19,0.79c0,3.37 3.35,6.33 8.03,7.1l4.7,0.77l-5.64,7.16l-1.82,-3.58c-2.86,-5.59 -5.41,-7.95 -8.59,-7.95c-3.4,0 -3.77,1.49 -0.97,3.82c2.12,1.76 6.79,10.26 6.79,12.36c0,0.7 -3.62,4.12 -8.05,7.6c-8.14,6.4 -11.66,12.28 -9.98,16.66c0.89,2.31 3.83,2.78 4.52,0.72c0.62,-1.88 15.21,-19.78 16.18,-19.85c0.43,-0.03 1.07,1.02 1.42,2.34c0.48,1.83 -0.81,3.29 -5.38,6.14c-7.76,4.82 -10.62,9.25 -10.47,16.19c0.16,7.12 5.07,12.35 13.05,13.9c5.54,1.07 22.21,0.54 31.84,-1.01c3.86,-0.62 5,-1.37 5,-3.26c-0,-4.28 -5.35,-5.78 -13.19,-3.7c-6.98,1.86 -20.81,2.41 -25.93,1.04c-1.57,-0.42 -3.7,-2.4 -4.74,-4.39c-2.39,-4.64 -0.51,-9.09 5.6,-13.2c5.57,-3.75 7.02,-3.61 8.86,0.85c1.72,4.15 4.66,7.07 5.89,5.84c0.44,-0.44 0.23,-3.29 -0.46,-6.34c-1.44,-6.26 -1.74,-6.04 10.22,-7.6c10.43,-1.36 14.38,-2.98 14.38,-5.92c0,-3.63 -3.55,-7.19 -7.16,-7.19c-2.4,0 -2.86,0.48 -2.26,2.38c0.82,2.56 -1.69,3.77 -12.81,6.2c-5.11,1.12 -5.42,1.01 -7.18,-2.4c-2.58,-4.98 -2.48,-5.34 3.47,-13.07c4.11,-5.35 6.44,-7.2 10.31,-8.21c15.59,-4.06 16.25,-4.34 16.25,-6.82c-0,-3.27 -6.55,-3.96 -11.79,-1.25c-4.17,2.15 -4.78,1.39 -1.92,-2.39c1.01,-1.33 1.83,-3.4 1.83,-4.6c0,-2.64 -5.71,-7.35 -8.91,-7.35l-0.01,0Z" style="fill:#800000;fill-rule:nonzero;"/></g></svg>