<?xml version="1.0" encoding="UTF-8" standalone="no"?><!DOCTYPE svg PUBLIC "-//W3C//DTD SVG 1.1//EN" "http://www.w3.org/Graphics/SVG/1.1/DTD/svg11.dtd"><svg width="100%" height="100%" viewBox="0 0 81 77" version="1.1" xmlns="http://www.w3.org/2000/svg" xmlns:xlink="http://www.w3.org/1999/xlink" xml:space="preserve" xmlns:serif="http://www.serif.com/" style="fill-rule:evenodd;clip-rule:evenodd;stroke-linejoin:round;stroke-miterlimit:2;"><g><g><path d="M53.677,0.983c-2.471,0.187 -5.899,0.75 -10.838,1.713c-7.15,1.412 -16.236,2.937 -20.19,3.388c-3.954,0.462 -7.187,1.312 -7.187,1.887c-0,1.913 4.735,3.651 9.957,3.651c3.239,-0 5.37,0.65 5.795,1.75c0.599,1.563 -1.411,15.578 -2.373,16.54c-0.33,0.338 -24.754,4.214 -26.5,4.214c-1.717,-0 -0.293,2.662 2.348,4.4c2.704,1.776 3.8,1.763 11.884,-0.075c4.897,-1.112 9.438,-1.838 10.09,-1.613c1.849,0.651 -4.153,14.103 -9.305,20.854c-2.555,3.35 -7.403,8.151 -10.773,10.664c-7.136,5.326 -7.935,7.701 -2.209,6.564c10.047,-2.013 23.651,-17.216 28.135,-31.43c1.182,-3.764 2.47,-6.514 2.86,-6.126c0.39,0.4 0.996,7.688 1.347,16.215c0.711,17.327 1.886,19.853 10.16,21.803c6.443,1.525 23.686,1.3 28.593,-0.375c3.555,-1.213 4.44,-2.2 4.709,-5.251c0.415,-4.688 -2.435,-16.252 -4.004,-16.252c-0.643,-0 -1.867,2.75 -2.723,6.101c-0.856,3.363 -2.089,6.638 -2.739,7.288c-0.649,0.65 -5.049,1.776 -9.776,2.501c-7.145,1.087 -9.387,0.987 -13.284,-0.663c-4.625,-1.938 -4.689,-2.063 -4.689,-8.976c-0,-3.863 0.654,-9.602 1.451,-12.777c1.398,-5.551 1.327,-5.864 -2.02,-8.739c-1.908,-1.638 -3.264,-3.176 -3.013,-3.401c0.251,-0.237 7.489,-0.913 16.084,-1.5c12.578,-0.875 15.629,-1.45 15.629,-2.963c-0,-1.025 -2.1,-2.901 -4.661,-4.151c-4.423,-2.163 -5.18,-2.175 -15.003,-0.225c-5.689,1.125 -11.28,2.313 -12.425,2.638c-1.923,0.55 -1.941,0.05 -0.225,-6.526c1.022,-3.913 1.546,-8.364 1.162,-9.889c-0.636,-2.538 -0.127,-2.85 5.85,-3.626c9.214,-1.187 15.924,-3.1 15.924,-4.55c-0,-0.675 -1.323,-1.826 -2.939,-2.563c-1.118,-0.513 -2.633,-0.688 -5.105,-0.5l0.003,-0Z" style="fill:#f00;fill-rule:nonzero;"/></g></g></svg>