<?xml version="1.0" encoding="UTF-8" standalone="no"?><!DOCTYPE svg PUBLIC "-//W3C//DTD SVG 1.1//EN" "http://www.w3.org/Graphics/SVG/1.1/DTD/svg11.dtd"><svg width="100%" height="100%" viewBox="0 0 77 81" version="1.1" xmlns="http://www.w3.org/2000/svg" xmlns:xlink="http://www.w3.org/1999/xlink" xml:space="preserve" xmlns:serif="http://www.serif.com/" style="fill-rule:evenodd;clip-rule:evenodd;stroke-linejoin:round;stroke-miterlimit:2;"><g><path d="M29.012,1c-1.376,0.13 -3.138,0.62 -5.707,1.53c-3.578,1.26 -9.063,2.56 -12.191,2.88c-6.35,0.67 -7.411,1.25 -6.108,3.36c1.018,1.64 8.896,0.95 15.361,-1.35c2.27,-0.81 4.382,-1.22 4.694,-0.91c0.311,0.31 -3.656,4.81 -8.817,9.98c-7.522,7.55 -9.381,10.16 -9.381,13.19c0,4.56 1.922,5.27 14.277,5.29l8.653,0.02l-7.774,7.04c-8.593,7.77 -20.158,24.22 -20.158,28.66c-0,1.57 0.343,3.74 0.76,4.83c1.445,3.77 4.073,1.95 7.264,-5.02c4.751,-10.38 12.197,-18.67 18.789,-20.91c4.487,-1.53 5.911,-1.59 7.677,-0.3c1.979,1.45 2.032,2.44 0.6,11.32c-1.462,9.06 -1.404,9.95 0.861,12.99c2.828,3.81 10.803,5.03 16.736,2.57c7.085,-2.93 16.764,-17.77 15.803,-24.22c-0.308,-2.07 -1.069,-1.43 -3.877,3.28c-4.911,8.23 -12.464,14.77 -17.064,14.77c-5.259,0 -6.726,-3.33 -5.172,-11.74c0.68,-3.67 0.915,-7.9 0.524,-9.4c-0.841,-3.21 -6.354,-6.35 -11.27,-6.41c-3.465,-0.04 -3.475,-0.06 -0.953,-2.19c1.401,-1.18 4.289,-4.67 6.418,-7.77c2.128,-3.09 5.062,-6.69 6.517,-8c4.96,-4.47 2.685,-10.15 -5.275,-13.17c-4.777,-1.82 -6.231,-0.6 -3.772,3.15c1.889,2.88 1.872,3.46 -0.238,8.14c-2.847,6.31 -5.66,7.88 -14.324,7.98c-6.303,0.07 -8.682,-0.87 -8.732,-3.45c-0.023,-1.14 10.996,-11.91 14.984,-14.65c8.937,-6.13 9.619,-7.86 4.283,-10.81c-1.024,-0.57 -2.013,-0.81 -3.389,-0.68l0.001,-0Z" style="fill:#800000;fill-rule:nonzero;"/></g></svg>