<?xml version="1.0" encoding="UTF-8" standalone="no"?><!DOCTYPE svg PUBLIC "-//W3C//DTD SVG 1.1//EN" "http://www.w3.org/Graphics/SVG/1.1/DTD/svg11.dtd"><svg width="100%" height="100%" viewBox="0 0 71 71" version="1.1" xmlns="http://www.w3.org/2000/svg" xmlns:xlink="http://www.w3.org/1999/xlink" xml:space="preserve" xmlns:serif="http://www.serif.com/" style="fill-rule:evenodd;clip-rule:evenodd;stroke-linejoin:round;stroke-miterlimit:2;"><g><path d="M25.239,1.28l2.131,3.73l2.129,3.73l-11.152,21.59c-6.134,11.87 -12.462,23.18 -14.064,25.12c-3.117,3.78 -3.713,8.26 -1.619,12.17c2.034,3.81 3.288,2.94 6.775,-4.68c7.56,-16.51 21.63,-27.42 27.008,-20.94c1.268,1.53 1.345,3.67 0.346,9.69c-1.666,10.04 -0.317,15.07 4.582,17.1c8.46,3.51 18.379,-1.81 24.467,-13.12c7.75,-14.4 6.828,-17.73 -1.588,-5.74c-7.533,10.73 -14.622,14.61 -18.887,10.35c-2.131,-2.13 -2.261,-3.24 -1.201,-10.24c1.051,-6.94 0.907,-8.23 -1.239,-11.12c-2.887,-3.88 -11.337,-5.11 -15.717,-2.29c-1.491,0.96 -4.336,2.8 -6.322,4.09c-3.346,2.16 -3.13,1.56 2.934,-8.24c3.599,-5.81 8.458,-12.91 10.799,-15.78c2.34,-2.87 4.256,-6.34 4.256,-7.72c-0,-3.35 -5.717,-7.7 -10.111,-7.7l-3.527,-0Z" style="fill-rule:nonzero;"/></g></svg>