<?xml version="1.0" encoding="UTF-8" standalone="no"?>
<svg
   width="100%"
   height="100%"
   viewBox="0 0 89 85"
   version="1.1"
   xml:space="preserve"
   style="fill-rule:evenodd;clip-rule:evenodd;stroke-linejoin:round;stroke-miterlimit:2;"
   id="svg5611"
   sodipodi:docname="ア_1.svg"
   inkscape:version="1.2.2 (b0a84865, 2022-12-01)"
   xmlns:inkscape="http://www.inkscape.org/namespaces/inkscape"
   xmlns:sodipodi="http://sodipodi.sourceforge.net/DTD/sodipodi-0.dtd"
   xmlns="http://www.w3.org/2000/svg"
   xmlns:svg="http://www.w3.org/2000/svg"><defs
   id="defs5615" /><sodipodi:namedview
   id="namedview5613"
   pagecolor="#ffffff"
   bordercolor="#000000"
   borderopacity="0.25"
   inkscape:showpageshadow="2"
   inkscape:pageopacity="0.0"
   inkscape:pagecheckerboard="0"
   inkscape:deskcolor="#d1d1d1"
   showgrid="false"
   inkscape:zoom="2.7764706"
   inkscape:cx="27.913136"
   inkscape:cy="43.760593"
   inkscape:window-width="1456"
   inkscape:window-height="777"
   inkscape:window-x="25"
   inkscape:window-y="54"
   inkscape:window-maximized="0"
   inkscape:current-layer="svg5611" />
    <g
   transform="matrix(1,0,0,1,-1628,-297)"
   id="g5609">
        
        <g
   transform="matrix(1.2502,0,0,1.2502,18.409,290.92)"
   id="g5607">
            <path
   d="m 1342.78,69.161 c -1.88,-2.037 -4.77,-4.691 -6.42,-5.898 l -3,-2.194 9.5,-0.111 V 38.649 c 0,-16.284 -0.34,-22.763 -1.25,-23.99 -1.17,-1.567 -2.04,-1.519 -12.71,0.693 -8.66,1.797 -12.01,2.121 -13.75,1.33 -2.88,-1.313 -2.96,-2.724 -0.16,-2.724 4.6,0 27.54,-5.255 30.53,-6.992 2.46,-1.43 3.98,-1.652 6.87,-1 7.42,1.673 7.13,4.438 -0.57,5.498 -3.6,0.494 -4.78,1.023 -4.14,1.843 0.5,0.633 1.17,12.449 1.5,26.259 0.56,23.627 0.04,31.433 -2.19,32.809 -0.43,0.27 -2.33,-1.177 -4.21,-3.214 z m -52.3,-0.977 c -1.25,-2.408 -1.32,-4.152 -0.42,-10.312 0.59,-4.078 1.13,-16.234 1.19,-27.015 l 0.11,-19.601 2.67,-0.08 c 2.87,-0.086 8.25,-2.512 11.09,-4.998 1.41,-1.24 2.24,-1.315 4.27,-0.388 4.02,1.83 3.93,3.675 -0.46,9.806 l -4.1,5.732 2.9,3.065 c 1.59,1.685 3.39,4.047 4.01,5.249 1.5,2.922 1.42,9.561 -0.13,11.468 -1.1,1.352 -1.88,1.145 -6.59,-1.739 l -5.34,-3.273 3.34,-0.32 c 2.8,-0.269 3.39,-0.762 3.66,-3.067 0.17,-1.51 -0.65,-4.464 -1.83,-6.563 -1.9,-3.375 -2.03,-4.447 -1.16,-9.254 0.55,-2.99 0.9,-5.529 0.79,-5.643 -0.11,-0.113 -1.98,0.337 -4.16,1 l -3.96,1.207 0.26,9.5 c 0.14,5.225 -0.08,18.045 -0.5,28.488 -0.67,16.678 -0.97,19.028 -2.45,19.312 -1.05,0.2 -2.26,-0.777 -3.19,-2.574 z m 28.37,-33.404 c -3.13,-6.452 -3.65,-8.346 -2.03,-7.345 0.53,0.328 4.38,-0.55 8.55,-1.95 6.19,-2.077 7.99,-2.332 9.78,-1.387 3.43,1.804 3.75,3.053 1.65,6.448 -1.07,1.731 -1.94,4.048 -1.94,5.148 0,1.595 -0.86,2.115 -4.23,2.567 -2.33,0.312 -4.39,1.046 -4.59,1.632 -0.19,0.585 -1.22,1.064 -2.27,1.064 -1.37,0 -2.79,-1.784 -4.92,-6.177 z m 10.44,-0.394 c 0.86,-0.864 1.57,-2.92 1.57,-4.567 0,-3.19 -0.19,-3.21 -6.75,-0.753 -2.61,0.977 -2.62,0.995 -1.09,4.344 1.31,2.888 3.94,3.298 6.27,0.976 z"
   style="fill:#004459;fill-rule:nonzero"
   id="path5603"
   sodipodi:nodetypes="scccscccsccccccsccccccccccccccccccccccccccccccsccsccsccc" />
            <path
   d="m 1290.35,68.121 c -1.25,-2.408 -1.32,-4.152 -0.42,-10.312 0.59,-4.078 1.13,-16.234 1.19,-27.015 l 0.11,-19.601 2.66,-0.08 c 2.88,-0.086 8.26,-2.512 11.09,-4.998 1.42,-1.239 2.25,-1.315 4.28,-0.388 4.02,1.831 3.93,3.675 -0.46,9.806 l -4.11,5.733 2.9,3.064 c 1.59,1.686 3.4,4.048 4.02,5.249 1.5,2.922 1.42,9.561 -0.13,11.468 -1.1,1.352 -1.89,1.146 -6.59,-1.739 l -5.34,-3.273 3.34,-0.32 c 2.8,-0.269 3.39,-0.762 3.65,-3.066 0.18,-1.511 -0.65,-4.464 -1.83,-6.564 -1.89,-3.374 -2.03,-4.447 -1.15,-9.253 0.55,-2.991 0.9,-5.53 0.79,-5.644 -0.11,-0.113 -1.98,0.337 -4.16,1 l -3.96,1.207 0.26,9.5 c 0.14,5.225 -0.09,18.045 -0.5,28.488 -0.67,16.678 -0.97,19.028 -2.45,19.312 -1.05,0.201 -2.27,-0.777 -3.19,-2.574 z"
   style="fill:#178eb3;fill-rule:nonzero"
   id="path5605"
   sodipodi:nodetypes="ccccccccccccccccccccccccc" />
        </g>
    </g>
</svg>
