<?xml version="1.0" encoding="UTF-8" standalone="no"?>
<svg
   width="100%"
   height="100%"
   viewBox="0 0 100 88"
   version="1.1"
   xml:space="preserve"
   style="fill-rule:evenodd;clip-rule:evenodd;stroke-linejoin:round;stroke-miterlimit:2;"
   id="svg192"
   sodipodi:docname="イ_1.svg"
   inkscape:version="1.2.2 (b0a84865, 2022-12-01)"
   xmlns:inkscape="http://www.inkscape.org/namespaces/inkscape"
   xmlns:sodipodi="http://sodipodi.sourceforge.net/DTD/sodipodi-0.dtd"
   xmlns="http://www.w3.org/2000/svg"
   xmlns:svg="http://www.w3.org/2000/svg"><defs
   id="defs196" /><sodipodi:namedview
   id="namedview194"
   pagecolor="#ffffff"
   bordercolor="#000000"
   borderopacity="0.25"
   inkscape:showpageshadow="2"
   inkscape:pageopacity="0.0"
   inkscape:pagecheckerboard="0"
   inkscape:deskcolor="#d1d1d1"
   showgrid="false"
   inkscape:zoom="2.6818182"
   inkscape:cx="61.152542"
   inkscape:cy="89.677966"
   inkscape:window-width="1271"
   inkscape:window-height="741"
   inkscape:window-x="0"
   inkscape:window-y="1075"
   inkscape:window-maximized="0"
   inkscape:current-layer="svg192" />
    <g
   transform="matrix(1,0,0,1,-1911,-297)"
   id="g190">
        
        <g
   transform="matrix(1.2502,0,0,1.2502,18.409,290.92)"
   id="g188">
            <path
   d="m 1537.85,74.48 c 0,-0.361 1.08,-2.089 2.39,-3.839 4.07,-5.418 11.61,-22.16 11.61,-25.759 0,-0.42 -1.64,-0.309 -3.65,0.246 -2.69,0.741 -4.35,0.673 -6.25,-0.254 -2.5,-1.215 -2.36,-1.308 3.68,-2.456 3.46,-0.656 6.44,-1.366 6.63,-1.577 0.18,-0.211 0.65,-2.568 1.04,-5.238 l 0.71,-4.854 -5.33,0.824 c -7.04,1.089 -11.64,0.974 -12.94,-0.324 -0.74,-0.743 0.98,-1.397 5.78,-2.199 12.77,-2.133 12.33,-1.948 12.33,-5.238 0,-4.964 -1.72,-7.16 -5.09,-6.486 -1.6,0.32 -4.15,0.094 -5.66,-0.502 -2.55,-1.008 -2.61,-1.139 -0.75,-1.869 1.1,-0.432 8.38,-2.003 16.19,-3.491 11.99,-2.288 14.73,-2.524 17.75,-1.529 1.96,0.648 3.56,1.255 3.55,1.35 -0.01,0.095 -0.67,1.973 -1.46,4.173 -2.38,6.607 -2.08,7.841 1.72,7.052 5.25,-1.089 8.9,-0.729 10.89,1.073 1.03,0.927 1.86,2.065 1.86,2.53 0,0.464 -3.48,0.851 -7.75,0.86 -4.26,0.008 -8.27,0.346 -8.9,0.75 -0.63,0.404 -1.47,2.835 -1.85,5.402 -0.66,4.371 -0.55,4.688 1.64,5 1.29,0.183 2.49,1.12 2.68,2.083 0.27,1.418 -0.39,1.751 -3.49,1.757 -2.11,0.004 -6.81,0.289 -10.46,0.633 l -6.63,0.627 -1.23,4.116 c -1.69,5.652 -6.21,14.374 -9.73,18.784 -3.11,3.901 -9.28,9.452 -9.28,8.355 z m 29.25,-36.164 c 1.36,-0.383 1.75,-1.579 1.75,-5.363 v -4.87 l -3.75,0.568 c -4.77,0.721 -4.88,0.851 -5.71,6.653 l -0.69,4.846 3.33,-0.671 c 1.83,-0.369 4.11,-0.892 5.07,-1.163 z m 2.03,-14.287 c 0.43,-0.398 1.06,-3.103 1.4,-6.011 l 0.63,-5.286 -2.9,0.579 c -1.6,0.318 -4.71,0.878 -6.91,1.244 -5.51,0.918 -5.68,1.127 -3.04,3.768 1.71,1.707 2.18,3.061 1.8,5.092 -0.53,2.76 -0.53,2.764 3.85,2.051 2.42,-0.393 4.74,-1.039 5.17,-1.438 z m -41.4,46.251 c -1.45,-3.601 -1.46,-7.011 -0.06,-16.323 0.62,-4.125 1.14,-11.169 1.16,-15.653 l 0.03,-8.152 -6.67,6.904 c -3.66,3.797 -6.84,6.729 -7.05,6.516 -0.21,-0.213 1.7,-3.614 4.25,-7.556 8.14,-12.58 14.56,-25.827 13.87,-28.59 -0.71,-2.814 -0.47,-2.913 3.07,-1.298 4.43,2.019 4.27,5.116 -0.69,13.239 -3.92,6.419 -4.3,7.527 -3.12,9.138 1.45,1.985 1.64,15.522 0.47,33.942 -0.53,8.414 -0.91,10.042 -2.38,10.323 -1.15,0.22 -2.13,-0.63 -2.88,-2.489 z"
   style="fill:#004459;fill-rule:nonzero"
   id="path184"
   sodipodi:nodetypes="scscccccccccssccccscccscsccccccccscscccccccccccccccccccccsccccccccc" />
            <path
   d="m 1527.6,70.218 c -1.45,-3.602 -1.47,-7.011 -0.06,-16.323 0.61,-4.125 1.14,-11.169 1.15,-15.653 l 0.03,-8.153 -6.66,6.904 c -3.67,3.797 -6.84,6.729 -7.05,6.516 -0.22,-0.213 1.69,-3.613 4.25,-7.556 8.13,-12.58 14.56,-25.827 13.87,-28.59 -0.71,-2.814 -0.47,-2.913 3.07,-1.297 4.43,2.018 4.27,5.116 -0.69,13.239 -3.93,6.418 -4.31,7.526 -3.13,9.138 1.46,1.984 1.64,15.522 0.48,33.942 -0.53,8.413 -0.91,10.042 -2.38,10.323 -1.15,0.219 -2.14,-0.63 -2.88,-2.49 z"
   style="fill:#178eb3;fill-rule:nonzero"
   id="path186"
   sodipodi:nodetypes="cccccccccccccc" />
        </g>
    </g>
</svg>
