<?xml version="1.0" encoding="UTF-8" standalone="no"?>
<svg
   width="100%"
   height="100%"
   viewBox="0 0 44 84"
   version="1.1"
   xml:space="preserve"
   style="fill-rule:evenodd;clip-rule:evenodd;stroke-linejoin:round;stroke-miterlimit:2;"
   id="svg12199"
   sodipodi:docname="イ_0.svg"
   inkscape:version="1.2.2 (b0a84865, 2022-12-01)"
   xmlns:inkscape="http://www.inkscape.org/namespaces/inkscape"
   xmlns:sodipodi="http://sodipodi.sourceforge.net/DTD/sodipodi-0.dtd"
   xmlns="http://www.w3.org/2000/svg"
   xmlns:svg="http://www.w3.org/2000/svg"><defs
   id="defs12203" /><sodipodi:namedview
   id="namedview12201"
   pagecolor="#ffffff"
   bordercolor="#000000"
   borderopacity="0.25"
   inkscape:showpageshadow="2"
   inkscape:pageopacity="0.0"
   inkscape:pagecheckerboard="0"
   inkscape:deskcolor="#d1d1d1"
   showgrid="false"
   inkscape:zoom="2.8095238"
   inkscape:cx="3.9152542"
   inkscape:cy="42"
   inkscape:window-width="1309"
   inkscape:window-height="456"
   inkscape:window-x="47"
   inkscape:window-y="1166"
   inkscape:window-maximized="0"
   inkscape:current-layer="svg12199" />
    <g
   transform="matrix(1,0,0,1,-1775,-296)"
   id="g12197">
        <path
   d="m 1808.73,301.054 c -1.3,-0.249 -1.77,0.48 -0.79,2.307 2.02,3.789 -6.51,16.614 -20.67,31.055 -6.95,7.09 -12.29,12.893 -11.86,12.893 1.15,0 13.72,-8.54 19.61,-13.328 2.82,-2.285 5.49,-3.784 5.94,-3.332 1.21,1.206 1,14.12 -0.47,29.633 -1.12,11.8 -1.02,14 0.71,16.643 4.17,6.362 4.95,3.079 5.3,-22.355 0.28,-20.461 0.03,-24.667 -1.54,-25.971 -1.61,-1.339 -0.8,-2.867 5.83,-10.98 l 7.7,-9.424 -3.99,-3.572 c -2.34,-2.088 -4.47,-3.317 -5.77,-3.567 z"
   style="fill-rule:nonzero"
   id="path12189"
   sodipodi:nodetypes="cccsccccccccccc" />
        <g
   transform="matrix(1.2502,0,0,1.2502,18.409,290.92)"
   id="g12195">
            
            
        </g>
    </g>
</svg>
