<?xml version="1.0" encoding="UTF-8" standalone="no"?><!DOCTYPE svg PUBLIC "-//W3C//DTD SVG 1.1//EN" "http://www.w3.org/Graphics/SVG/1.1/DTD/svg11.dtd"><svg width="100%" height="100%" viewBox="0 0 93 94" version="1.1" xmlns="http://www.w3.org/2000/svg" xmlns:xlink="http://www.w3.org/1999/xlink" xml:space="preserve" xmlns:serif="http://www.serif.com/" style="fill-rule:evenodd;clip-rule:evenodd;stroke-linejoin:round;stroke-miterlimit:2;"><g id="g2212"><g id="g2210"><path id="path2206" d="M28.732,91.844c-1.901,-2.294 -2.051,-6.693 -0.438,-12.688c1.225,-4.566 2.15,-18.255 1.713,-25.416c-0.163,-2.663 -0.85,-2.313 -7.989,4.082c-8.014,7.171 -19.141,13.695 -21.203,12.425c-0.625,-0.391 2.388,-3.892 6.726,-7.778c13.602,-12.222 22.891,-23 25.129,-29.18c0.687,-1.885 -0.125,-2.039 -7.601,-1.448c-6.327,0.5 -8.977,0.2 -10.865,-1.226c-1.375,-1.039 -2.2,-2.188 -1.838,-2.553c0.363,-0.365 6.552,-1.539 13.753,-2.608c7.201,-1.069 18.328,-3.348 24.741,-5.065c13.115,-3.512 19.253,-3.917 21.341,-1.41c2.388,2.878 -1.213,4.53 -16.365,7.501l-14.127,2.773l-0,3.698c-0,2.833 1.475,5.082 6.351,9.628l6.363,5.931l3.951,-5.511c2.175,-3.03 3.963,-6.683 3.963,-8.119c-0,-3.574 5.326,-3.496 8.701,0.128c3.363,3.61 3.251,4.108 -1.512,7.161c-7.702,4.92 -11.302,8.795 -9.839,10.563c2.337,2.812 13.252,8.176 22.178,10.904c9.652,2.947 11.965,4.447 9.352,6.059c-2.963,1.836 -16.103,4.177 -19.141,3.413c-2.675,-0.672 -13.09,-10.643 -27.629,-26.458l-5.751,-6.251l-5.614,5.563l2.601,2.844c2.288,2.501 2.475,3.672 1.587,9.721c-1.162,7.881 -1.487,18.753 -0.575,18.753c0.35,-0 3.363,-1.969 6.714,-4.376c6.138,-4.406 8.926,-5.396 8.926,-3.172c0,1.418 -20.065,23.799 -21.341,23.799c-0.475,-0 -1.487,-0.76 -2.262,-1.689l-0,0.002Zm13.177,-80.892c-7.989,-5.714 -9.114,-8.683 -3.301,-8.683c8.739,-0 16.303,6.33 14.177,11.867c-1.125,2.917 -3.225,2.303 -10.876,-3.184Z" style="fill:#004459;fill-rule:nonzero;"/></g></g></svg>