<?xml version="1.0" encoding="UTF-8" standalone="no"?><!DOCTYPE svg PUBLIC "-//W3C//DTD SVG 1.1//EN" "http://www.w3.org/Graphics/SVG/1.1/DTD/svg11.dtd"><svg width="100%" height="100%" viewBox="0 0 67 76" version="1.1" xmlns="http://www.w3.org/2000/svg" xmlns:xlink="http://www.w3.org/1999/xlink" xml:space="preserve" xmlns:serif="http://www.serif.com/" style="fill-rule:evenodd;clip-rule:evenodd;stroke-linejoin:round;stroke-miterlimit:2;"><g><path d="M26.98,0.775c-4.25,-0.849 -5.21,0.672 -2.07,3.276c2.18,1.81 2.62,13.145 0.56,14.42c-0.73,0.448 -6.86,0.903 -13.63,1.011c-11.12,0.178 -12.2,0.399 -11.19,2.301c0.62,1.158 1.13,5.974 1.13,10.701c0,9.019 2.04,14.032 4.96,12.223c1.15,-0.71 1.44,-3.668 1.04,-10.633l-0.56,-9.648l16.35,-2.043c8.99,-1.123 19.94,-2.413 24.34,-2.868l7.99,-0.826l-0.89,3.619c-3.11,12.607 -15.1,33.317 -25.74,44.471c-4.48,4.694 -7.81,8.534 -7.4,8.534c0.41,-0 3.35,-1.733 6.55,-3.852c10.51,-6.957 21.32,-20.752 30.8,-39.293c2.65,-5.188 5.49,-10.239 6.31,-11.225c1.21,-1.457 0.71,-2.265 -2.69,-4.336c-4.81,-2.936 -4.67,-2.922 -13.63,-1.41c-3.74,0.63 -8.97,1.45 -11.62,1.82l-4.83,0.672l0.83,-6.613c0.93,-7.447 -0.06,-8.991 -6.61,-10.301Z" style="fill-rule:nonzero;"/></g></svg>