<?xml version="1.0" encoding="UTF-8" standalone="no"?><!DOCTYPE svg PUBLIC "-//W3C//DTD SVG 1.1//EN" "http://www.w3.org/Graphics/SVG/1.1/DTD/svg11.dtd"><svg width="100%" height="100%" viewBox="0 0 82 95" version="1.1" xmlns="http://www.w3.org/2000/svg" xmlns:xlink="http://www.w3.org/1999/xlink" xml:space="preserve" xmlns:serif="http://www.serif.com/" style="fill-rule:evenodd;clip-rule:evenodd;stroke-linejoin:round;stroke-miterlimit:2;"><g><g><path d="M32.427,92.55c-0.95,-1.147 -4.45,-4.251 -7.801,-6.901l-6.076,-4.817l7.239,0.336c6.788,0.316 7.314,0.137 8.151,-2.788c0.988,-3.422 1.488,-26.254 0.588,-26.254c-0.313,-0 -6.614,1.166 -13.99,2.591c-11.139,2.149 -13.977,2.326 -16.64,1.034c-2.951,-1.44 -2.15,-1.77 10.564,-4.359c7.564,-1.54 15.365,-2.851 17.353,-2.909c3.563,-0.107 3.6,-0.177 2.813,-5.948c-0.45,-3.211 -1.063,-6.103 -1.388,-6.424c-0.325,-0.32 -3.55,0.002 -7.176,0.72c-4.363,0.861 -7.376,0.886 -8.889,0.071c-1.275,-0.678 -2.088,-1.445 -1.838,-1.707c0.263,-0.261 6.076,-1.682 12.927,-3.159c6.851,-1.475 13.727,-3.485 15.278,-4.467c2.238,-1.41 3.875,-1.502 7.813,-0.442c8.989,2.42 4.714,6.246 -6.988,6.246l-4.163,-0l0.737,6.563c0.413,3.61 0.838,6.684 0.938,6.833c0.513,0.692 17.915,-2.432 20.378,-3.66c5.139,-2.553 17.04,2.754 14.69,6.55c-0.538,0.861 -4.038,1.256 -9.176,1.033c-4.564,-0.198 -12.24,-0.238 -17.053,-0.089l-8.752,0.272l-0.05,15.986c-0.05,21.818 -3.963,32.4 -9.489,25.687l0,0.002Zm-31.23,-61.279c-0.3,-4.604 0.388,-6.911 3.351,-11.28c1.675,-2.46 3.038,-4.955 3.038,-5.546c-0,-0.592 0.563,-1.076 1.25,-1.076c0.688,0 1.25,0.926 1.25,2.056c0,1.784 1.113,1.95 8.439,1.259c4.638,-0.438 9.989,-0.8 11.877,-0.805c3.051,-0.008 3.438,-0.474 3.426,-4.072c-0,-2.236 -0.813,-5.611 -1.801,-7.501c-1.737,-3.348 -1.7,-3.439 1.613,-3.439c1.863,0 4.651,0.877 6.176,1.948c2.376,1.667 2.663,2.681 1.975,7.016l-0.812,5.07l4.863,-0.715c2.688,-0.393 8.539,-1.08 13.002,-1.529c4.463,-0.45 8.802,-1.363 9.627,-2.03c1.737,-1.407 12.877,5.633 12.877,8.141c-0,0.84 -4.776,2.985 -10.627,4.767c-5.851,1.781 -10.602,2.894 -10.577,2.474c0.025,-0.42 1.701,-2.697 3.726,-5.061c2.025,-2.363 3.501,-4.464 3.301,-4.668c-0.351,-0.351 -32.831,2.354 -48.983,4.081l-7.514,0.805l-1.863,5.791c-1.388,4.349 -2.55,5.889 -4.663,6.189c-2,0.284 -2.851,-0.261 -2.951,-1.875Z" style="fill:#004459;fill-rule:nonzero;"/><path d="M1.022,31.194c-0.3,-4.605 0.388,-6.912 3.351,-11.282c1.675,-2.458 3.038,-4.954 3.038,-5.546c-0,-0.591 0.563,-1.075 1.25,-1.075c0.688,-0 1.25,0.925 1.25,2.056c0,1.783 1.126,1.951 8.439,1.259c4.638,-0.439 9.989,-0.801 11.877,-0.806c3.051,-0.008 3.438,-0.473 3.426,-4.072c-0,-2.234 -0.813,-5.61 -1.801,-7.501c-1.737,-3.347 -1.7,-3.438 1.613,-3.438c1.863,-0 4.651,0.876 6.176,1.948c2.375,1.667 2.663,2.681 1.975,7.017l-0.812,5.068l4.863,-0.714c2.688,-0.392 8.526,-1.081 13.002,-1.53c4.476,-0.449 8.802,-1.361 9.627,-2.029c1.737,-1.408 12.877,5.632 12.877,8.14c-0,0.841 -4.789,2.986 -10.627,4.767c-5.838,1.782 -10.602,2.896 -10.577,2.476c0.025,-0.421 1.701,-2.698 3.726,-5.061c2.025,-2.364 3.513,-4.465 3.3,-4.669c-0.35,-0.352 -32.83,2.355 -48.982,4.081l-7.514,0.804l-1.863,5.791c-1.388,4.351 -2.55,5.891 -4.663,6.191c-2,0.282 -2.851,-0.261 -2.951,-1.875Z" style="fill:#178eb3;fill-rule:nonzero;"/></g></g></svg>