<?xml version="1.0" encoding="UTF-8" standalone="no"?>
<svg
   width="100%"
   height="100%"
   viewBox="0 0 82 92"
   version="1.1"
   xml:space="preserve"
   style="fill-rule:evenodd;clip-rule:evenodd;stroke-linejoin:round;stroke-miterlimit:2;"
   id="svg3605"
   sodipodi:docname="ウェ_2.svg"
   inkscape:version="1.2.2 (b0a84865, 2022-12-01)"
   xmlns:inkscape="http://www.inkscape.org/namespaces/inkscape"
   xmlns:sodipodi="http://sodipodi.sourceforge.net/DTD/sodipodi-0.dtd"
   xmlns="http://www.w3.org/2000/svg"
   xmlns:svg="http://www.w3.org/2000/svg"><defs
   id="defs3609" /><sodipodi:namedview
   id="namedview3607"
   pagecolor="#ffffff"
   bordercolor="#000000"
   borderopacity="0.25"
   inkscape:showpageshadow="2"
   inkscape:pageopacity="0.0"
   inkscape:pagecheckerboard="0"
   inkscape:deskcolor="#d1d1d1"
   showgrid="false"
   showguides="true"
   inkscape:zoom="1.3455802"
   inkscape:cx="51.65058"
   inkscape:cy="70.973099"
   inkscape:window-width="1452"
   inkscape:window-height="763"
   inkscape:window-x="0"
   inkscape:window-y="38"
   inkscape:window-maximized="0"
   inkscape:current-layer="svg3605" />
    <g
   transform="matrix(1,0,0,1,-1053,-1509)"
   id="g3603">
        
        
        <g
   transform="matrix(1.2502,0,0,1.2502,21.431,298.58)"
   id="g3601">
            <path
   d="m 848.91,968.74 c -1.385,-0.176 -2.362,0.18 -2.362,1.139 0,0.669 0.751,3.183 1.669,5.587 1.925,5.041 1.144,6.155 -4.337,6.182 -4.79,0.023 -6.63,0.949 -5.234,2.632 0.691,0.832 3.093,1.383 6.026,1.383 4.702,0 4.876,0.103 4.876,2.863 0,2.649 -0.349,2.911 -4.64,3.5 -2.552,0.349 -6.573,0.637 -8.939,0.637 -5.247,0 -5.993,0.992 -3.853,5.132 0.908,1.756 2.499,5.655 3.536,8.675 1.036,3.01 2.393,6.09 3.013,6.83 1.326,1.6 2.582,1.76 3.05,0.39 0.525,-1.55 21.133,-3.63 21.612,-2.19 0.213,0.64 1.267,1.16 2.345,1.16 1.452,0 2.74,-1.74 4.983,-6.75 1.664,-3.71 4.008,-7.797 5.209,-9.079 l 2.184,-2.331 -3.267,-2.92 c -3.512,-3.139 -6.39,-3.513 -15.482,-2.016 -4.691,0.772 -4.751,0.746 -4.751,-1.931 0,-2.529 0.423,-2.792 6.251,-3.937 7.391,-1.452 7.827,-1.668 7.122,-3.504 -0.75,-1.955 -5.237,-2.741 -9.156,-1.603 l -3.286,0.954 0.622,-3.31 c 0.54,-2.878 0.229,-3.588 -2.371,-5.44 -1.64,-1.167 -3.434,-1.876 -4.82,-2.053 z m 15.211,24.706 c 2.721,0.218 2.615,1.905 1.441,7.564 l -1.134,5.47 -4.987,0.34 c -4.508,0.31 -4.958,0.15 -4.698,-1.66 0.21,-1.46 1.184,-2.08 3.598,-2.32 4.541,-0.43 4.053,-3.545 -0.628,-3.995 -2.748,-0.265 -3.252,-0.686 -2.993,-2.501 0.263,-1.851 1.125,-2.264 5.674,-2.72 1.599,-0.161 2.82,-0.251 3.727,-0.178 z m -15.127,1.912 c 0.534,0.247 0.536,0.969 0.536,2.41 0,2.332 -0.438,2.902 -2.249,2.912 -1.238,0.01 -2.872,0.41 -3.634,0.89 -1.112,0.7 -0.979,1.1 0.676,1.98 1.135,0.61 2.771,0.83 3.636,0.5 1.171,-0.45 1.571,0.04 1.571,1.9 0,2.18 -0.504,2.55 -3.935,2.88 l -3.934,0.37 -1.47,-5.83 c -1.62,-6.436 -1.868,-6.068 5.09,-7.575 2.116,-0.458 3.18,-0.685 3.713,-0.437 z m 28.57,18.532 c -3.756,-0.42 -2.595,2.07 3.581,7.15 7.701,6.34 10.848,6.06 8.021,-0.7 -1.138,-2.73 -2.393,-3.75 -6.209,-5.05 -2.341,-0.79 -4.14,-1.26 -5.393,-1.4 z m -25.07,3.77 c -1.901,0 -0.914,2.99 2.136,6.47 4.318,4.92 7.851,4.47 6.522,-0.82 -0.504,-2.01 -6.079,-5.65 -8.658,-5.65 z m -20.46,2.5 c -0.547,0 -2.224,2.25 -3.726,5 -2.619,4.8 -3.522,9.43 -2.112,10.84 1.953,1.95 5.901,-0.76 6.899,-4.74 0.836,-3.33 0.093,-11.1 -1.061,-11.1 z m 8.15,2.51 c -0.409,0.1 -0.775,0.37 -1.07,0.85 -0.898,1.45 4.428,11.02 7.251,13.02 1.465,1.04 4.689,2.6 7.164,3.46 5.329,1.86 18.738,2.04 24.393,0.34 2.141,-0.65 4.39,-1.99 4.999,-2.99 0.922,-1.5 0.609,-2.17 -1.867,-3.99 -1.636,-1.21 -4.951,-3.9 -7.367,-5.99 -2.416,-2.1 -4.63,-3.57 -4.92,-3.28 -0.289,0.29 0.27,2.61 1.244,5.16 2.287,5.99 1.351,6.68 -8.205,6.05 -8.957,-0.59 -14.657,-3.5 -17.4,-8.88 -1.358,-2.66 -2.992,-4.04 -4.221,-3.75 z"
   style="fill:#ff0000;fill-rule:nonzero"
   id="path3599"
   sodipodi:nodetypes="cscccsscscccccscccccsccccccccccccccccccsccccsccccccccccsccsscccscccccccccccccc" />
        </g>
    </g>
</svg>
