<?xml version="1.0" encoding="UTF-8" standalone="no"?><!DOCTYPE svg PUBLIC "-//W3C//DTD SVG 1.1//EN" "http://www.w3.org/Graphics/SVG/1.1/DTD/svg11.dtd"><svg width="100%" height="100%" viewBox="0 0 64 75" version="1.1" xmlns="http://www.w3.org/2000/svg" xmlns:xlink="http://www.w3.org/1999/xlink" xml:space="preserve" xmlns:serif="http://www.serif.com/" style="fill-rule:evenodd;clip-rule:evenodd;stroke-linejoin:round;stroke-miterlimit:2;"><g><path d="M38.079,1c-1.053,-0.01 -2.135,0.49 -4.101,1.51c-6.28,3.26 -11.893,4.17 -16.008,2.62c-5.004,-1.89 -5.817,-0.51 -2.477,4.18c3.131,4.39 5.42,4.49 14.346,0.63l5,-2.17l-4.375,4.64c-2.407,2.55 -8.173,7.69 -12.814,11.42c-6.986,5.62 -8.439,7.43 -8.439,10.49c0,5.31 3.425,4.8 9.435,-1.41c11.508,-11.89 25.549,-13.56 28.768,-3.42c0.974,3.07 -2.226,7.96 -6.73,10.29l-3.51,1.81l0.568,-3.87c0.707,-4.81 -2.144,-7.21 -8.584,-7.21c-8.37,-0 -14.096,8.48 -9.303,13.78c1.729,1.91 1.223,2.57 -5.777,7.6c-12.821,9.2 -12.653,9.01 -12.83,14.32c-0.097,2.92 0.411,4.93 1.24,4.93c0.773,0 3.732,-2.94 6.576,-6.54c8.045,-10.18 15.123,-10.44 16.469,-0.62c0.383,2.79 1.437,5.97 2.342,7.06c0.906,1.09 2.11,1.98 2.678,1.98c0.568,-0 2.777,-3.65 4.906,-8.11c4.536,-9.51 7.309,-11.55 12.67,-9.32c2.027,0.83 4.301,2.67 5.055,4.08c1.154,2.16 0.827,3.03 -2.067,5.52c-1.891,1.63 -3.233,3.13 -2.982,3.35c0.251,0.21 3.693,0.7 7.647,1.09l7.189,0.71l0,-4.41c0,-8.93 -6.864,-15.41 -16.328,-15.41c-4.557,-0 -5.978,0.7 -9.982,4.9l-4.67,4.92l-0.737,-3.69c-0.58,-2.9 -1.578,-3.85 -4.699,-4.48c-3.673,-0.73 -3.796,-0.91 -1.664,-2.47c1.265,-0.93 4.584,-1.68 7.375,-1.69c7.149,-0.02 17.57,-5.15 19.996,-9.84c6.15,-11.89 -3.232,-22.64 -16.768,-19.2c-4.607,1.17 -4.971,1.1 -3.521,-0.66c0.889,-1.08 4.604,-3.88 8.255,-6.22c3.652,-2.34 6.419,-4.91 6.151,-5.72c-0.269,-0.8 -2.237,-2.49 -4.375,-3.74c-1.847,-1.07 -2.871,-1.61 -3.924,-1.63l-0.001,-0Zm-9.76,33.97c2.467,0.95 2.722,3.18 0.606,5.3c-1.797,1.79 -3.479,1.87 -6.002,0.27c-1.616,-1.03 -1.518,-1.55 0.709,-3.78c1.596,-1.6 3.387,-2.28 4.687,-1.79Z" style="fill-rule:nonzero;"/></g></svg>