<?xml version="1.0" encoding="UTF-8" standalone="no"?><!DOCTYPE svg PUBLIC "-//W3C//DTD SVG 1.1//EN" "http://www.w3.org/Graphics/SVG/1.1/DTD/svg11.dtd"><svg width="100%" height="100%" viewBox="0 0 78 70" version="1.1" xmlns="http://www.w3.org/2000/svg" xmlns:xlink="http://www.w3.org/1999/xlink" xml:space="preserve" xmlns:serif="http://www.serif.com/" style="fill-rule:evenodd;clip-rule:evenodd;stroke-linejoin:round;stroke-miterlimit:2;"><g><g><path d="M23.494,67.863c-0,-0.406 3.263,-2.959 7.263,-5.672c19.228,-13.057 28.992,-30.67 28.992,-52.306c0,-6.956 0.275,-7.864 2.426,-7.864c1.337,0 3.975,1.327 5.863,2.947l3.426,2.948l-5.639,16.742c-3.1,9.209 -6.038,17.633 -6.538,18.721c-0.675,1.491 0.95,3.12 6.626,6.622c8.589,5.302 11.339,8.594 11.339,13.597c0,6.919 -3.55,5.706 -12.639,-4.318l-8.527,-9.406l-5.463,5.226c-6.739,6.458 -15.953,11.713 -22.316,12.73c-2.651,0.424 -4.813,0.439 -4.813,0.033Zm-19.191,-4.368c-2.613,-2.892 -2.638,-6.935 -0.05,-10.876c1.263,-1.925 2.25,-7.011 2.663,-13.622c0.575,-9.21 0.312,-11.218 -2.075,-15.814c-3.501,-6.701 -2.126,-8.516 4.525,-5.989l4.751,1.801l1.25,26.862l9.339,-9.415c5.139,-5.179 9.789,-9.414 10.314,-9.414c2.313,-0 0.388,3.264 -8.713,14.789c-5.326,6.747 -11.515,14.899 -13.728,18.116c-4.5,6.511 -5.288,6.855 -8.276,3.563l-0,-0.001Zm29.505,-48.798c-6.226,-5.72 -6.676,-7.675 -1.751,-7.675c5.189,-0 12.065,5.012 12.065,8.801c-0,4.92 -4.251,4.457 -10.314,-1.126Z" style="fill:#004459;fill-rule:nonzero;"/></g></g></svg>