<?xml version="1.0" encoding="UTF-8" standalone="no"?><!DOCTYPE svg PUBLIC "-//W3C//DTD SVG 1.1//EN" "http://www.w3.org/Graphics/SVG/1.1/DTD/svg11.dtd"><svg width="100%" height="100%" viewBox="0 0 81 90" version="1.1" xmlns="http://www.w3.org/2000/svg" xmlns:xlink="http://www.w3.org/1999/xlink" xml:space="preserve" xmlns:serif="http://www.serif.com/" style="fill-rule:evenodd;clip-rule:evenodd;stroke-linejoin:round;stroke-miterlimit:2;"><g><path d="M43.86,1.47c-1.27,0.06 -1.9,0.82 -1.24,2.22c0.57,1.21 1.05,5.83 1.07,10.28l0.05,8.1l-8.76,1.55c-4.81,0.86 -11.41,1.63 -14.67,1.72c-5.78,0.16 -5.88,0.23 -4.07,2.82c2.51,3.57 2.62,20.3 0.15,21.24c-0.94,0.37 -4.46,1.06 -7.81,1.55c-7.74,1.12 -8.88,1.81 -6.2,3.77c1.53,1.12 3.28,1.24 6.12,0.39c4.49,-1.32 31.32,-6.09 34.3,-6.09c1.69,-0 1.84,2.1 1.21,16.47c-0.59,13.09 -0.36,17.19 1.09,20c1,1.94 2.64,3.53 3.64,3.53c1.49,-0 1.87,-3.56 2.15,-20.31l0.35,-20.32l14.1,-0.14c7.75,-0.07 14.47,-0.51 14.93,-0.96c1.34,-1.35 -2.45,-4.22 -7.15,-5.42c-2.96,-0.75 -5.8,-0.6 -8.75,0.45c-2.41,0.85 -6.51,1.59 -9.12,1.62l-4.74,0.07l0.36,-9.68l0.37,-9.7l7.19,-0.37c5.33,-0.28 7.19,-0.85 7.19,-2.22c-0,-2.75 -6.17,-4.72 -9.72,-3.1c-5.21,2.37 -5.68,1.79 -4.95,-6.19c0.6,-6.67 0.38,-7.72 -1.98,-9.38c-1.92,-1.34 -3.84,-1.97 -5.11,-1.9Zm0.51,24.17l-0,19.34l-5.94,0.83c-3.27,0.46 -7.77,1.15 -10,1.53l-4.06,0.7l-0,-9.49c-0,-10.71 -0.99,-9.8 12.81,-11.85l7.19,-1.06Z" style="fill-rule:nonzero;"/></g></svg>