<?xml version="1.0" encoding="UTF-8" standalone="no"?><!DOCTYPE svg PUBLIC "-//W3C//DTD SVG 1.1//EN" "http://www.w3.org/Graphics/SVG/1.1/DTD/svg11.dtd"><svg width="100%" height="100%" viewBox="0 0 84 97" version="1.1" xmlns="http://www.w3.org/2000/svg" xmlns:xlink="http://www.w3.org/1999/xlink" xml:space="preserve" xmlns:serif="http://www.serif.com/" style="fill-rule:evenodd;clip-rule:evenodd;stroke-linejoin:round;stroke-miterlimit:2;"><g><g><path d="M50.1,0.795c-1.442,0.145 -2.721,1.106 -4.468,2.947c-1.615,1.703 -6.82,4.896 -11.564,7.093c-4.745,2.199 -8.628,4.452 -8.628,5.009c0,1.74 3.8,1.137 19.009,-3.016c15.949,-4.354 17.867,-6.095 11.116,-10.081c-2.412,-1.426 -4.021,-2.097 -5.465,-1.952Zm13.065,8.699c-0.97,-0.238 -1.473,0.22 -1.473,1.379c0,0.836 -2.65,4.211 -5.889,7.5c-3.371,3.422 -5.109,5.987 -4.064,5.995c3.636,0.025 17.766,-5.624 18.436,-7.37c0.39,-1.017 -0.784,-3.052 -2.718,-4.717c-1.882,-1.618 -3.321,-2.55 -4.292,-2.787Zm-24.164,7.485c-2.863,-0.62 -3.192,2.17 0.28,6.583c1.425,1.812 3.393,3.293 4.375,3.293c2.851,0 2.126,-5.868 -0.994,-8.055c-1.471,-1.03 -2.706,-1.615 -3.661,-1.821Zm-17.967,0.647c-2.134,0.114 -1.489,2.446 1.97,6.813c4.129,5.213 7.687,6.052 8.468,1.996c0.558,-2.893 -2.755,-6.567 -7.376,-8.177c-1.329,-0.463 -2.35,-0.669 -3.06,-0.632l-0.002,0Zm29.63,10.981c-1.961,0.09 -4.657,0.766 -9.728,2.105c-8.046,2.127 -10.944,2.451 -12.047,1.348c-0.798,-0.799 -2.464,-1.453 -3.701,-1.453c-1.784,0 -2.252,1.014 -2.252,4.902c0,5.696 -6.067,24.362 -9.967,30.675c-1.471,2.376 -4.895,7.014 -7.607,10.289c-2.712,3.288 -4.93,6.401 -4.93,6.926c0,4.214 11.921,-5.338 17.473,-13.989c3.178,-4.951 4.748,-6.301 7.349,-6.301c1.82,-0 5.404,-0.588 7.965,-1.3c4.921,-1.376 37.496,-4.914 38.35,-4.176c0.939,0.812 0.046,16.09 -1.214,20.791c-1.324,4.938 -1.548,5.063 -8.973,4.713c-2.579,-0.113 -4.689,0.162 -4.689,0.625c-0,0.463 2.391,3.576 5.313,6.926c2.923,3.363 6.14,5.976 7.152,5.826c3.191,-0.5 7.219,-9.601 9.469,-21.391c1.196,-6.263 2.928,-12.889 3.852,-14.727c1.576,-3.138 1.432,-3.551 -2.3,-6.689c-3.534,-2.975 -4.663,-3.263 -10.055,-2.55c-5.77,0.775 -6.01,0.687 -4.754,-1.663c2.083,-3.888 1.623,-5.038 -3.135,-7.851c-3.148,-1.85 -4.065,-3.016 -3.124,-3.956c2.549,-2.549 1.327,-5.547 -3.126,-7.66c-2.133,-1.011 -3.358,-1.509 -5.32,-1.419l-0.001,-0.001Zm-2.209,5.902c2.067,-0.039 1.832,0.859 1.288,2.661c-0.468,1.547 -1.25,3.248 -1.737,3.773c-0.486,0.537 -5.142,1.712 -10.348,2.613l-9.467,1.65l1.241,-3.563c0.703,-2.013 2.4,-3.812 3.926,-4.157c8.664,-1.958 13.031,-2.937 15.097,-2.977Zm4.288,11.134c3.961,-0.037 4.152,0.163 3.338,3.401c-0.474,1.888 -0.964,3.538 -1.087,3.663c-0.124,0.125 -5.564,1.125 -12.089,2.225c-6.524,1.101 -13.467,2.313 -15.426,2.713c-3.272,0.663 -3.489,0.475 -2.671,-2.225c0.49,-1.613 1.322,-3.401 1.851,-3.976c1.307,-1.412 20.865,-5.763 26.084,-5.801Zm2.101,16.216c-1.729,-0 -0.329,3.863 3.143,8.651c4.322,5.963 6.629,6.088 7.195,0.387c0.342,-3.45 -0.193,-4.2 -4.636,-6.476c-2.764,-1.4 -5.331,-2.562 -5.702,-2.562Zm-9.439,1.3c-0.793,-0.25 -1.479,-0.225 -1.904,0.2c-1.113,1.112 0.43,5.588 2.715,7.876c3.1,3.101 5.675,2.35 5.225,-1.525c-0.295,-2.526 -3.656,-5.789 -6.036,-6.551Zm-11.477,2.463c-1.45,-0.2 -2.358,0.412 -1.763,1.975c0.418,1.088 0.759,2.375 0.759,2.888c-0,0.5 1.174,2.163 2.608,3.713c2.063,2.213 2.979,2.488 4.377,1.325c2.439,-2.025 2.219,-3.638 -0.952,-7.013c-1.582,-1.688 -3.578,-2.688 -5.029,-2.888Zm-11.19,2.475c-1.435,-0.425 -2.435,0.2 -1.89,2.2c0.326,1.213 0.973,3.876 1.435,5.939c0.463,2.05 1.443,4.463 2.178,5.351c3.851,4.638 6.139,-3.126 2.766,-9.389c-1.184,-2.201 -3.053,-3.676 -4.489,-4.101Z" style="fill:#f00;fill-rule:nonzero;"/></g></g></svg>