<?xml version="1.0" encoding="UTF-8" standalone="no"?><!DOCTYPE svg PUBLIC "-//W3C//DTD SVG 1.1//EN" "http://www.w3.org/Graphics/SVG/1.1/DTD/svg11.dtd"><svg width="100%" height="100%" viewBox="0 0 90 98" version="1.1" xmlns="http://www.w3.org/2000/svg" xmlns:xlink="http://www.w3.org/1999/xlink" xml:space="preserve" xmlns:serif="http://www.serif.com/" style="fill-rule:evenodd;clip-rule:evenodd;stroke-linejoin:round;stroke-miterlimit:2;"><g><g><path d="M53.396,92.729c-2.363,-5.613 -2.376,-5.851 -1.051,-28.392l1.026,-17.378l-4.264,0.725c-2.337,0.4 -6.651,1.088 -9.576,1.538c-4.476,0.688 -5.313,1.275 -5.313,3.701c-0,10.014 -10.952,31.355 -19.066,37.131c-2.138,1.525 -3.388,1.95 -2.788,0.95c0.6,-0.988 2.65,-4.276 4.551,-7.289c3.813,-6.051 7.914,-17.44 9.651,-26.817c1.076,-5.801 1.013,-6.013 -1.55,-5.326c-11.639,3.163 -16.553,3.589 -20.041,1.763c-3.538,-1.85 -3.488,-1.875 7.527,-4.013c16.777,-3.25 15.465,-2.275 15.465,-11.527l-0,-8.094l-4.264,0.801c-4.488,0.843 -9.489,-0.148 -9.489,-1.882c0,-0.565 2.113,-1.401 4.689,-1.858c8.538,-1.514 9.064,-1.866 9.064,-6.129c-0,-2.208 -0.901,-5.3 -2.001,-6.873c-2.788,-3.975 -1.3,-4.777 4.864,-2.625c5.213,1.821 5.263,1.89 4.85,7.307c-0.362,4.683 -0.112,5.354 1.663,4.668c1.15,-0.44 5.138,-1.157 8.864,-1.595l6.764,-0.796l-0,-4.535c-0,-2.494 -1.151,-6.696 -2.576,-9.337c-1.413,-2.643 -2.288,-5.094 -1.925,-5.446c1.163,-1.162 9.226,0.939 10.777,2.809c1.037,1.26 1.25,4.012 0.65,8.816c-0.85,6.731 -0.788,6.936 1.637,5.636c3.463,-1.854 9.252,-1.693 12.015,0.337c3.013,2.2 1.463,4.565 -2.988,4.565c-1.938,0 -5.276,0.352 -7.426,0.782c-3.888,0.776 -3.913,0.825 -3.913,8.751l-0,7.974l5.313,-0.013c2.925,0 6.851,-0.812 8.739,-1.8c5.276,-2.75 15.952,0.988 15.952,5.601c0,2.3 -0.912,2.45 -14.352,2.45l-14.352,0l-0.338,24.679c-0.3,22.454 -0.537,24.717 -2.55,25.104c-1.563,0.3 -2.801,-0.975 -4.238,-4.363Zm-6.364,-49.845l5.939,-0.851l-0,-16.771l-6.564,0.935c-3.613,0.514 -7.539,0.975 -8.751,1.025c-1.863,0.078 -2.188,1.383 -2.188,8.986c-0,8.576 0.1,8.851 2.813,8.213c1.55,-0.375 5.488,-1.062 8.751,-1.525l0,-0.012Z" style="fill:#004459;fill-rule:nonzero;"/><path d="M53.296,92.654c-2.376,-5.601 -2.388,-5.876 -1.063,-28.229c0.6,-10.127 0.55,-17.178 -0.113,-17.166c-3.425,0.075 -25.891,3.901 -33.792,5.764c-8.314,1.963 -9.602,1.988 -13.19,0.287l-3.988,-1.888l11.164,-2.162c16.878,-3.263 15.553,-2.288 15.553,-11.54l-0,-8.095l-4.276,0.8c-4.451,0.835 -9.477,-0.143 -9.477,-1.844c0,-1.034 31.055,-7.597 35.944,-7.595c2.412,0 2.813,-0.659 2.813,-4.707c-0,-2.588 -1.163,-6.867 -2.576,-9.51c-1.413,-2.642 -2.288,-5.092 -1.938,-5.445c1.163,-1.162 9.227,0.939 10.777,2.808c1.05,1.262 1.25,4.014 0.65,8.818c-0.837,6.731 -0.775,6.935 1.65,5.635c3.463,-1.854 9.239,-1.692 12.015,0.337c3.013,2.199 1.45,4.565 -3.001,4.565c-1.937,-0 -5.275,0.352 -7.426,0.781c-3.888,0.778 -3.9,0.825 -3.9,8.752l-0,7.963l5.313,-0.012c2.925,-0 6.851,-0.8 8.726,-1.788c5.289,-2.75 15.965,0.988 15.965,5.601c0,2.3 -0.925,2.45 -14.352,2.45l-14.352,0l-0.338,24.679c-0.312,22.454 -0.537,24.717 -2.55,25.092c-1.563,0.312 -2.813,-0.975 -4.238,-4.351Zm-6.364,-49.845l5.939,-0.851l-0,-16.772l-6.564,0.934c-3.613,0.515 -7.551,0.976 -8.751,1.026c-1.876,0.078 -2.188,1.383 -2.188,8.974c-0,8.589 0.087,8.864 2.813,8.226c1.537,-0.375 5.488,-1.062 8.751,-1.537Z" style="fill:#178eb3;fill-rule:nonzero;"/></g></g></svg>