<?xml version="1.0" encoding="UTF-8" standalone="no"?><!DOCTYPE svg PUBLIC "-//W3C//DTD SVG 1.1//EN" "http://www.w3.org/Graphics/SVG/1.1/DTD/svg11.dtd"><svg width="100%" height="100%" viewBox="0 0 68 72" version="1.1" xmlns="http://www.w3.org/2000/svg" xmlns:xlink="http://www.w3.org/1999/xlink" xml:space="preserve" xmlns:serif="http://www.serif.com/" style="fill-rule:evenodd;clip-rule:evenodd;stroke-linejoin:round;stroke-miterlimit:2;"><g><path d="M36.029,1.12c-1.44,0.26 -3.309,1.19 -6.758,3c-7.221,3.8 -10.245,4.1 -17.598,1.75c-2.327,-0.75 -2.812,-0.44 -2.812,1.8c-0,3.03 5.189,8.84 7.892,8.84c0.966,-0 5.008,-1.73 8.983,-3.86c6.041,-3.22 7.088,-3.48 6.381,-1.56c-6.724,18.23 -7.224,19.06 -13.762,22.77c-13.468,7.66 -19.985,17.98 -17.02,26.96c1.851,5.61 5.283,8.48 9.562,7.98c4.677,-0.54 7.565,-5.08 13.645,-21.46c5.355,-14.42 5.394,-14.46 16.934,-16.49c13.766,-2.42 22.566,12.79 14.783,25.56l-2.599,4.26l-2.709,-3.21c-7.875,-9.33 -20.836,-7.33 -20.836,3.22c0,4.1 3.238,8.4 7.5,9.96c6.487,2.37 16.737,-0.56 22.652,-6.47c10.912,-10.91 9.313,-30.87 -2.918,-36.42c-5.799,-2.63 -14.233,-3.17 -20.68,-1.32c-2.752,0.79 -4.055,0.73 -4.055,-0.16c-0,-1.93 7.191,-14.19 9.385,-16.02c2.975,-2.46 2.189,-6.01 -1.789,-8.07c-1.731,-0.89 -2.742,-1.31 -4.182,-1.06l0.001,-0Zm-14.86,37.47c0.901,-0.02 0.11,1.98 -2.881,8.96c-2.316,5.42 -4.967,11.05 -5.89,12.53c-1.894,3.03 -3.629,3.39 -5.827,1.19c-4.757,-4.76 2.101,-16.28 13.152,-22.09c0.658,-0.35 1.146,-0.58 1.446,-0.59Zm16.7,18.17c2.215,-0.43 8.453,4.89 8.453,7.2c0,1.86 -6.595,1.62 -9.273,-0.34c-2.699,-1.97 -2.183,-6.28 0.82,-6.86Z" style="fill-rule:nonzero;"/></g></svg>