<?xml version="1.0" encoding="UTF-8" standalone="no"?><!DOCTYPE svg PUBLIC "-//W3C//DTD SVG 1.1//EN" "http://www.w3.org/Graphics/SVG/1.1/DTD/svg11.dtd"><svg width="100%" height="100%" viewBox="0 0 46 82" version="1.1" xmlns="http://www.w3.org/2000/svg" xmlns:xlink="http://www.w3.org/1999/xlink" xml:space="preserve" xmlns:serif="http://www.serif.com/" style="fill-rule:evenodd;clip-rule:evenodd;stroke-linejoin:round;stroke-miterlimit:2;"><g><path d="M15.71,2.38c-2.15,-0.36 -2.54,6.14 -2.54,25.38c0,19.79 0.33,24.43 1.85,25.69c1.58,1.31 0.72,2.91 -5.86,10.96l-7.7,9.42l4,3.57c4.67,4.18 8.51,4.92 6.56,1.26c-2.03,-3.79 6.5,-16.61 20.66,-31.05c6.96,-7.09 12.29,-12.89 11.87,-12.89c-1.17,0 -13.76,8.57 -19.8,13.47c-4.61,3.74 -5.41,4.03 -6.12,2.17c-0.83,-2.15 0.26,-27.68 1.59,-37.36c0.55,-4.01 0.16,-5.87 -1.72,-8.19c-1.16,-1.43 -2.07,-2.31 -2.79,-2.43Z" style="fill-rule:nonzero;"/></g></svg>