<?xml version="1.0" encoding="UTF-8" standalone="no"?><!DOCTYPE svg PUBLIC "-//W3C//DTD SVG 1.1//EN" "http://www.w3.org/Graphics/SVG/1.1/DTD/svg11.dtd"><svg width="100%" height="100%" viewBox="0 0 84 93" version="1.1" xmlns="http://www.w3.org/2000/svg" xmlns:xlink="http://www.w3.org/1999/xlink" xml:space="preserve" xmlns:serif="http://www.serif.com/" style="fill-rule:evenodd;clip-rule:evenodd;stroke-linejoin:round;stroke-miterlimit:2;"><g><g><path d="M35.812,89.992c-3.088,-1.075 -7.127,-3.026 -8.952,-4.326c-3.525,-2.5 -10.189,-14.452 -9.064,-16.265c1.475,-2.4 4.351,-0.825 6.614,3.613c3.425,6.726 10.551,10.364 21.753,11.102c11.94,0.787 13.115,-0.063 10.252,-7.551c-1.213,-3.188 -1.913,-6.101 -1.55,-6.464c0.362,-0.35 3.125,1.488 6.151,4.101c3.025,2.613 7.163,5.988 9.214,7.488c3.088,2.276 3.488,3.113 2.325,5.001c-0.75,1.238 -3.563,2.913 -6.251,3.726c-7.064,2.125 -23.829,1.9 -30.492,-0.425Zm-34.168,-5.001c-1.763,-1.763 -0.638,-7.551 2.638,-13.54c1.887,-3.438 3.975,-6.251 4.663,-6.251c1.437,0 2.375,9.714 1.325,13.878c-1.25,4.963 -6.189,8.351 -8.626,5.913Zm35.555,-14.84c-3.813,-4.338 -5.051,-8.076 -2.675,-8.076c3.225,-0 10.201,4.538 10.827,7.051c1.662,6.613 -2.751,7.176 -8.152,1.025Zm33.143,-3.863c-10.302,-8.476 -9.439,-11.177 2.263,-7.176c4.776,1.625 6.351,2.9 7.764,6.301c3.538,8.464 -0.4,8.801 -10.027,0.875Zm-53.133,-9.664c-0.776,-0.938 -2.463,-4.788 -3.764,-8.551c-1.3,-3.764 -3.288,-8.639 -4.425,-10.84c-2.676,-5.177 -1.738,-6.418 4.826,-6.418c2.95,-0 7.976,-0.358 11.176,-0.795c5.364,-0.735 5.801,-1.064 5.801,-4.376c0,-3.452 -0.225,-3.581 -6.101,-3.581c-3.663,0 -6.676,-0.69 -7.538,-1.729c-1.738,-2.104 0.562,-3.261 6.551,-3.29c6.851,-0.034 7.826,-1.425 5.413,-7.729c-1.138,-3.004 -2.075,-6.147 -2.075,-6.985c-0,-2.398 4.875,-1.776 8.976,1.143c3.251,2.315 3.638,3.203 2.963,6.801l-0.775,4.138l4.101,-1.193c4.9,-1.421 10.514,-0.44 11.451,2.005c0.876,2.296 0.338,2.564 -8.901,4.379c-7.289,1.431 -7.814,1.764 -7.814,4.925c0,3.348 0.063,3.378 5.939,2.412c11.364,-1.871 14.965,-1.401 19.353,2.523l4.088,3.645l-2.738,2.913c-1.5,1.612 -4.426,6.713 -6.514,11.364c-2.8,6.251 -4.413,8.439 -6.226,8.439c-1.35,-0 -2.662,-0.663 -2.937,-1.463c-0.588,-1.788 -26.355,0.813 -27.017,2.738c-0.588,1.713 -2.151,1.513 -3.813,-0.475Zm13.614,-9.202c0,-2.325 -0.512,-2.925 -1.975,-2.362c-1.075,0.412 -3.126,0.125 -4.538,-0.626c-2.076,-1.112 -2.238,-1.6 -0.85,-2.487c0.95,-0.601 3,-1.101 4.55,-1.113c2.263,-0.013 2.813,-0.725 2.813,-3.638c0,-3.601 -0.025,-3.613 -5.313,-2.463c-8.701,1.888 -8.389,1.425 -6.364,9.464l1.838,7.301l4.913,-0.475c4.289,-0.413 4.926,-0.863 4.926,-3.601Zm20.041,-6.176c1.95,-9.429 1.538,-10.032 -6.464,-9.229c-5.688,0.566 -6.763,1.091 -7.088,3.404c-0.325,2.262 0.3,2.787 3.738,3.125c5.851,0.563 6.463,4.451 0.788,5.001c-3.026,0.287 -4.239,1.075 -4.501,2.9c-0.325,2.251 0.237,2.451 5.876,2.063l6.226,-0.425l1.425,-6.839Z" style="fill:#004459;fill-rule:nonzero;"/><path d="M16.408,55.461c-1.075,-1.525 -1.95,-3.488 -1.95,-4.375c0,-1.726 4.463,-2.226 5.464,-0.613c0.325,0.538 2.887,0.763 5.7,0.488c4.989,-0.476 5.089,-0.576 5.089,-5.301c-0,-5.751 2.725,-7.764 9.739,-7.176c6.276,0.525 7.276,4.413 1.275,4.988c-3.013,0.287 -4.238,1.075 -4.501,2.888c-0.337,2.325 0.238,2.475 7.952,2.088c9.276,-0.475 11.514,0.637 9.364,4.663c-1.513,2.813 -5.801,3.588 -6.601,1.175c-0.601,-1.8 -26.367,0.813 -27.017,2.738c-0.688,2 -2.451,1.4 -4.514,-1.563Zm35.756,-10.852c-0.887,-0.55 -1.35,-3.338 -1.15,-7.026l0.325,-6.113l-5.626,0.36c-3.088,0.197 -10.126,1.19 -15.627,2.203c-17.691,3.275 -19.954,3.4 -21.716,1.275c-0.9,-1.075 -1.313,-2.463 -0.938,-3.088c0.388,-0.613 6.376,-1.51 13.327,-1.988c6.939,-0.479 13.952,-1.378 15.59,-1.998c1.638,-0.621 7.139,-1.506 12.227,-1.967c9.014,-0.818 9.364,-0.744 13.402,2.871l4.163,3.707l-3.65,4.613c-4.476,5.664 -8.377,8.364 -10.327,7.151Z" style="fill:#178eb3;fill-rule:nonzero;"/></g></g></svg>