<?xml version="1.0" encoding="UTF-8" standalone="no"?><!DOCTYPE svg PUBLIC "-//W3C//DTD SVG 1.1//EN" "http://www.w3.org/Graphics/SVG/1.1/DTD/svg11.dtd"><svg width="100%" height="100%" viewBox="0 0 82 52" version="1.1" xmlns="http://www.w3.org/2000/svg" xmlns:xlink="http://www.w3.org/1999/xlink" xml:space="preserve" xmlns:serif="http://www.serif.com/" style="fill-rule:evenodd;clip-rule:evenodd;stroke-linejoin:round;stroke-miterlimit:2;"><g><path d="M56.32,0.359c-2.34,-0.155 -4.48,0.163 -5.03,1.049c-1.1,1.777 -16.77,4.319 -27.27,4.424c-5.33,0.053 -9.69,0.396 -9.69,0.763c-0.01,0.368 1.54,1.521 3.43,2.563c2.49,1.376 5.31,1.681 10.31,1.115c4.35,-0.493 7.22,-0.284 7.82,0.564c0.51,0.739 0.79,8.078 0.62,16.309l-0.31,14.965l-9.38,1.555c-5.16,0.855 -13.17,2.186 -17.81,2.961c-9.03,1.506 -10.46,2.801 -5.1,4.59c2.18,0.727 5.5,0.557 9.55,-0.494c13.83,-3.588 32.89,-5.579 49.85,-5.209c9.41,0.205 17.54,-0.052 18.05,-0.571c1.34,-1.331 -1.92,-4.063 -6.76,-5.669c-2.69,-0.895 -6.35,-0.986 -10.63,-0.266c-3.58,0.604 -9.78,1.386 -13.77,1.74l-7.26,0.645l0.38,-16.711l0.38,-16.709l8.89,-0.84c10.84,-1.025 13.42,-2.318 9.94,-4.979c-1.33,-1.01 -3.86,-1.639 -6.2,-1.795l-0.01,-0Z" style="fill-rule:nonzero;"/></g></svg>