<?xml version="1.0" encoding="UTF-8" standalone="no"?><!DOCTYPE svg PUBLIC "-//W3C//DTD SVG 1.1//EN" "http://www.w3.org/Graphics/SVG/1.1/DTD/svg11.dtd"><svg width="100%" height="100%" viewBox="0 0 96 80" version="1.1" xmlns="http://www.w3.org/2000/svg" xmlns:xlink="http://www.w3.org/1999/xlink" xml:space="preserve" xmlns:serif="http://www.serif.com/" style="fill-rule:evenodd;clip-rule:evenodd;stroke-linejoin:round;stroke-miterlimit:2;"><g><g><path d="M4.203,76.312c-3.401,-3.403 -4.289,-8.919 -1.251,-7.751c1.788,0.684 13.128,-12.234 20.416,-23.255c1.726,-2.603 3.351,-4.521 3.601,-4.261c1.363,1.362 -16.39,38.336 -18.403,38.336c-0.713,0 -2.676,-1.381 -4.363,-3.069Zm20.991,-7.221c-5.689,-2.715 -3.864,-3.557 12.814,-5.948c17.603,-2.525 15.628,-0.034 15.603,-19.729c-0.013,-9.441 -0.538,-17.987 -1.176,-18.991c-0.937,-1.493 -2.275,-1.594 -7.351,-0.554c-6.213,1.27 -12.964,0.121 -10.727,-1.824c0.626,-0.55 6.777,-2.004 13.653,-3.231c6.876,-1.226 15.74,-3.298 19.69,-4.602c6.564,-2.164 7.589,-2.208 11.677,-0.499c8.389,3.505 3.351,6.473 -11.464,6.76c-8.764,0.172 -10.089,0.927 -7.214,4.11c1.8,1.984 1.976,4.452 1.3,18.541l-0.787,16.254l5.276,0.007c2.9,0.003 7.838,-0.914 10.976,-2.038c5.464,-1.958 5.951,-1.933 11.665,0.591c4.338,1.922 5.838,3.236 5.526,4.851c-0.375,1.996 -2.326,2.234 -19.779,2.399c-16.24,0.155 -35.068,2.145 -44.994,4.756c-1.025,0.271 -3.138,-0.113 -4.688,-0.852l-0,-0.001Zm-16.428,-39.136c-2.138,-2.431 -3.888,-4.681 -3.888,-5.001c-0,-0.32 1.713,-0.583 3.813,-0.583c4.113,0 9.939,4.731 9.939,8.07c-0,3.629 -5.776,2.172 -9.864,-2.486Zm10.114,-23.458c-2.2,-2.268 -4.001,-4.518 -4.001,-5c0,-2.19 8.789,-0.731 11.202,1.857c6.639,7.123 -0.387,10.183 -7.201,3.143Z" style="fill:#004459;fill-rule:nonzero;"/></g></g></svg>