<?xml version="1.0" encoding="UTF-8" standalone="no"?><!DOCTYPE svg PUBLIC "-//W3C//DTD SVG 1.1//EN" "http://www.w3.org/Graphics/SVG/1.1/DTD/svg11.dtd"><svg width="100%" height="100%" viewBox="0 0 99 86" version="1.1" xmlns="http://www.w3.org/2000/svg" xmlns:xlink="http://www.w3.org/1999/xlink" xml:space="preserve" xmlns:serif="http://www.serif.com/" style="fill-rule:evenodd;clip-rule:evenodd;stroke-linejoin:round;stroke-miterlimit:2;"><g><g><path d="M60.859,78.462c-9.126,-9.987 -8.251,-13.479 2.063,-8.216c6.539,3.337 9.277,6.749 8.789,10.952c-0.65,5.706 -3.875,4.892 -10.852,-2.736Zm-37.293,-0.268c-0.438,-1.204 -1.888,-3.768 -3.226,-5.699c-2.95,-4.255 -2.062,-5.543 2.413,-3.503c4.414,2.01 6.239,0.165 8.602,-8.716c2.613,-9.812 2.388,-13.306 -0.925,-14.356c-1.526,-0.482 -2.926,-0.37 -3.138,0.249c-2.288,6.859 -21.641,29.212 -25.292,29.212c-2.388,-0 -1.413,-1.984 4.776,-9.687c6.888,-8.585 13.539,-19.698 15.152,-25.303c1.225,-4.294 1.313,-4.258 -5.176,-2.316c-4.9,1.47 -11.076,0.078 -11.076,-2.501c-0,-1.696 31.967,-10.41 36.568,-9.968c2.488,0.241 4.063,1.079 4.063,2.163c0,1.774 -1.838,2.588 -11.352,5.029c-4.738,1.216 -5.051,1.569 -4.538,5.068c0.425,2.903 1.188,3.761 3.363,3.761c1.55,-0 4.263,1.14 6.039,2.534l3.225,2.534l3.138,-5.359c7.676,-13.103 12.427,-25.304 12.79,-32.841c0.35,-7.324 0.437,-7.495 3.763,-7.234c1.888,0.147 4.425,1.274 5.651,2.506c2.15,2.151 2.125,2.489 -0.738,8.674l-2.975,6.436l7.063,5.816c3.901,3.199 11.439,7.896 16.765,10.436c5.326,2.542 9.689,4.984 9.689,5.425c0.013,1.233 -2.7,2.011 -10.301,2.962l-6.951,0.867l-8.564,-10.126c-4.714,-5.571 -8.889,-10.13 -9.302,-10.131c-0.4,-0.001 -2.325,2.951 -4.263,6.56c-5.726,10.669 -10.727,16.98 -14.465,18.284c-2.713,0.948 -3.825,2.439 -4.913,6.629c-3.926,15.062 -5.476,19.394 -7.851,21.971c-3.088,3.359 -6.926,3.658 -8.014,0.625l-0,-0.001Zm41.494,-20.522c-3.976,-2.192 -9.376,-7.612 -9.376,-9.404c-0,-2.114 3.988,-2.097 9.101,0.04c5.276,2.206 7.551,5.075 6.539,8.26c-0.901,2.856 -2.563,3.149 -6.264,1.104Zm-33.28,-44.271c-9.339,-7.773 -9.527,-11.603 -0.438,-9.133c6.851,1.865 9.539,4.54 9.077,9.067c-0.525,5.265 -2.363,5.279 -8.639,0.066Z" style="fill:#004459;fill-rule:nonzero;"/><path d="M23.391,78.115c-0.425,-1.204 -1.875,-3.768 -3.213,-5.699c-2.951,-4.255 -2.063,-5.543 2.413,-3.503c4.413,2.011 6.226,0.165 8.589,-8.716c2.613,-9.812 2.388,-13.306 -0.925,-14.356c-1.513,-0.481 -2.926,-0.369 -3.126,0.25c-2.288,6.86 -21.641,29.212 -25.292,29.212c-2.387,0 -1.412,-1.984 4.776,-9.688c6.889,-8.583 13.54,-19.698 15.14,-25.302c1.238,-4.295 1.325,-4.259 -5.163,-2.317c-4.913,1.471 -11.077,0.079 -11.077,-2.499c0,-1.698 31.968,-10.412 36.568,-9.968c2.488,0.239 4.064,1.078 4.064,2.162c-0,1.774 -1.838,2.587 -11.352,5.028c-4.739,1.218 -5.064,1.569 -4.551,5.068c0.438,2.917 1.2,3.761 3.401,3.761c1.562,-0 4.15,1.055 5.738,2.344c2.875,2.327 2.888,2.395 0.85,9.064c-1.113,3.695 -2.975,10.095 -4.126,14.221c-2.275,8.132 -5.926,13.127 -9.601,13.127c-1.275,-0 -2.676,-0.985 -3.113,-2.188l-0,-0.001Zm8.226,-64.793c-9.351,-7.771 -9.539,-11.603 -0.45,-9.133c6.864,1.867 9.539,4.54 9.077,9.068c-0.525,5.265 -2.363,5.28 -8.627,0.065Z" style="fill:#178eb3;fill-rule:nonzero;"/></g></g></svg>