<?xml version="1.0" encoding="UTF-8" standalone="no"?><!DOCTYPE svg PUBLIC "-//W3C//DTD SVG 1.1//EN" "http://www.w3.org/Graphics/SVG/1.1/DTD/svg11.dtd"><svg width="100%" height="100%" viewBox="0 0 93 80" version="1.1" xmlns="http://www.w3.org/2000/svg" xmlns:xlink="http://www.w3.org/1999/xlink" xml:space="preserve" xmlns:serif="http://www.serif.com/" style="fill-rule:evenodd;clip-rule:evenodd;stroke-linejoin:round;stroke-miterlimit:2;"><g><g><path d="M28.671,73.955c-3.888,-6.167 -4.401,-8.946 -1.438,-7.81c4.938,1.898 7.651,2.057 8.902,0.522c2.25,-2.762 6.288,-17.457 7.251,-26.356c0.825,-7.709 0.7,-8.416 -1.438,-8.4c-5.988,0.044 -7.564,1.409 -9.789,8.515c-4.901,15.621 -15.653,31.311 -24.641,35.958c-7.727,4.001 -7.877,1.723 -0.388,-6.312c6.689,-7.189 11.939,-16.03 16.153,-27.212l3.063,-8.151l-6.326,1.853c-4.764,1.4 -7.052,1.521 -9.302,0.495c-5.676,-2.587 -3.563,-4.783 5.451,-5.672c4.651,-0.458 9.076,-1.234 9.851,-1.724c0.776,-0.492 2.088,-4.945 2.913,-9.897c1.201,-7.18 1.188,-9.895 -0.087,-13.408c-0.875,-2.423 -1.225,-4.767 -0.775,-5.211c1.188,-1.195 6.113,0.402 9.601,3.114l3.051,2.378l-2.363,9.469c-1.288,5.208 -2.038,9.781 -1.663,10.163c0.388,0.381 2.213,0.115 4.076,-0.592c4.938,-1.879 7.489,-1.592 11.102,1.246c3.125,2.459 3.163,2.659 1.325,7.048c-1.038,2.484 -2.688,9.059 -3.663,14.61c-2.601,14.815 -5.164,22.67 -8.789,26.986c-4.576,5.426 -7.901,4.98 -12.077,-1.614l-0,0.002Zm31.642,-5.672c-0.687,-1.303 -1.837,-7.35 -2.525,-13.44c-0.7,-6.089 -1.838,-13.038 -2.525,-15.44c-1.826,-6.308 -1.688,-6.607 2.8,-5.922c2.426,0.372 7.939,-0.592 13.715,-2.401l9.651,-3.023l5.101,2.6c6.451,3.291 6.976,4.805 3.676,10.4c-3.763,6.385 -6.464,17.151 -4.801,19.155c2.15,2.584 0.038,4.187 -5.538,4.2c-9.189,0.025 -14.503,1.378 -15.29,3.896c-0.95,2.997 -2.651,2.987 -4.264,-0.025Zm16.203,-10.773c1.5,-0.928 4.188,-19.418 2.988,-20.548c-0.625,-0.582 -4.651,-0.475 -8.964,0.237l-7.826,1.297l0.712,8.264c1.238,14.193 1.026,13.803 7.014,12.455c2.876,-0.644 5.601,-1.411 6.076,-1.704l0,-0.001Z" style="fill:#004459;fill-rule:nonzero;"/><path d="M28.508,73.878c-3.888,-6.168 -4.4,-8.947 -1.437,-7.809c4.938,1.896 7.651,2.055 8.901,0.521c2.25,-2.763 6.289,-17.456 7.251,-26.355c0.825,-7.71 0.7,-8.417 -1.437,-8.402c-5.989,0.044 -7.552,1.409 -9.79,8.516c-4.9,15.621 -15.652,31.311 -24.628,35.958c-7.739,4 -7.877,1.724 -0.401,-6.312c6.702,-7.189 11.94,-16.031 16.153,-27.212l3.063,-8.152l-6.313,1.853c-4.776,1.4 -7.064,1.522 -9.314,0.495c-5.676,-2.586 -3.564,-4.783 5.463,-5.672c4.638,-0.457 9.064,-1.234 9.839,-1.724c0.775,-0.491 2.088,-4.944 2.913,-9.897c1.2,-7.179 1.188,-9.895 -0.075,-13.408c-0.888,-2.423 -1.238,-4.767 -0.788,-5.211c1.188,-1.195 6.114,0.404 9.602,3.115l3.05,2.379l-2.363,9.467c-1.287,5.209 -2.037,9.782 -1.662,10.163c0.387,0.382 2.213,0.115 4.075,-0.591c4.939,-1.879 7.489,-1.593 11.102,1.245c3.126,2.459 3.163,2.659 1.325,7.049c-1.037,2.484 -2.688,9.059 -3.663,14.61c-2.6,14.814 -5.163,22.669 -8.789,26.985c-4.563,5.426 -7.901,4.981 -12.064,-1.613l-0.013,0.002Z" style="fill:#178eb3;fill-rule:nonzero;"/></g></g></svg>