<?xml version="1.0" encoding="UTF-8" standalone="no"?><!DOCTYPE svg PUBLIC "-//W3C//DTD SVG 1.1//EN" "http://www.w3.org/Graphics/SVG/1.1/DTD/svg11.dtd"><svg width="100%" height="100%" viewBox="0 0 71 83" version="1.1" xmlns="http://www.w3.org/2000/svg" xmlns:xlink="http://www.w3.org/1999/xlink" xml:space="preserve" xmlns:serif="http://www.serif.com/" style="fill-rule:evenodd;clip-rule:evenodd;stroke-linejoin:round;stroke-miterlimit:2;"><g><path d="M37.45,2.604c-0.81,0.111 -0.77,0.94 0.06,2.493c1.5,2.799 -1.62,16.489 -4.23,18.539c-0.77,0.607 -6.73,1.771 -13.24,2.585c-6.51,0.815 -12.05,1.694 -12.31,1.952c-0.25,0.258 1.26,1.359 3.36,2.449c3.84,1.985 4.87,1.919 18.63,-1.213c2.8,-0.637 2.78,-0.52 -1.1,7.197c-5.73,11.366 -10.46,17.934 -20.32,28.162c-9.21,9.567 -9.74,11.495 -1.43,5.221c12.56,-9.484 21.87,-20.13 28.87,-33.037c2.61,-4.813 5.27,-9.112 5.91,-9.551c0.65,-0.439 4.05,-1.172 7.58,-1.631c3.52,-0.459 7.74,-1.166 9.39,-1.57c2.84,-0.699 2.94,-0.516 2.12,3.881c-2.4,12.757 -13.91,40.127 -17.45,41.486c-0.89,0.342 -3.96,0.095 -6.82,-0.547l-5.19,-1.166l4.99,5.666c2.74,3.116 4.98,6.431 4.98,7.365c0,3.21 2.39,1.691 6.32,-4.021c5.29,-7.685 11.25,-21.007 16.2,-36.162c2.24,-6.876 4.68,-13.265 5.42,-14.199c1.01,-1.276 0.74,-2.146 -1.1,-3.494c-3.97,-2.902 -7.55,-3.285 -16.34,-1.754c-4.56,0.794 -8.61,1.122 -9,0.728c-0.4,-0.393 0.41,-3.394 1.79,-6.668c2.96,-7.003 2.69,-8.425 -2.09,-10.896c-2.55,-1.317 -4.2,-1.925 -5,-1.814l0,-0.001Z" style="fill-rule:nonzero;"/></g></svg>