<?xml version="1.0" encoding="UTF-8" standalone="no"?><!DOCTYPE svg PUBLIC "-//W3C//DTD SVG 1.1//EN" "http://www.w3.org/Graphics/SVG/1.1/DTD/svg11.dtd"><svg width="100%" height="100%" viewBox="0 0 76 78" version="1.1" xmlns="http://www.w3.org/2000/svg" xmlns:xlink="http://www.w3.org/1999/xlink" xml:space="preserve" xmlns:serif="http://www.serif.com/" style="fill-rule:evenodd;clip-rule:evenodd;stroke-linejoin:round;stroke-miterlimit:2;"><g><path d="M24.91,0.542c-0.87,0.427 -0.49,1.502 1.49,3.053c2.38,1.863 5.37,9.427 5.39,13.633c0.01,1.448 -9.49,4.737 -16.24,5.625l-3.13,0.41l3.67,2.002c3.29,1.793 4.24,1.809 9.09,0.156c2.98,-1.015 6.16,-1.56 7.08,-1.209c0.91,0.351 2.2,4.006 2.86,8.121l1.21,7.481l-13.43,3.947c-7.39,2.171 -15.43,4.272 -17.87,4.668c-5.02,0.815 -4.9,2.338 0.29,3.476c2.35,0.516 7.93,-0.715 17.01,-3.755c7.44,-2.488 13.98,-4.056 14.55,-3.485c0.56,0.572 1.67,6.103 2.47,12.291c2.02,15.669 2.2,16.449 4.47,18.721c1.11,1.11 2.66,1.796 3.44,1.522c2.03,-0.714 1.43,-7.098 -2.07,-22.117c-2.13,-9.168 -2.64,-13.39 -1.69,-14c1.39,-0.886 20.89,-4.46 27.59,-5.055c4.89,-0.434 5.52,-3.11 1.13,-4.787c-4.34,-1.659 -8.35,-1.039 -20.33,3.14c-5.11,1.783 -9.69,2.809 -10.18,2.282c-0.48,-0.528 -1.42,-4.203 -2.08,-8.168l-1.21,-7.209l8.57,-2.602c8.29,-2.519 10.77,-4.998 6.59,-6.602c-3.19,-1.222 -5.81,-0.883 -7.93,1.02c-1.08,0.978 -3.49,2.157 -5.34,2.619c-3.31,0.827 -3.38,0.727 -3.75,-5.842c-0.38,-6.624 -0.43,-6.698 -5.65,-8.502c-3.01,-1.042 -5.13,-1.261 -6,-0.834Z" style="fill-rule:nonzero;"/></g></svg>