<?xml version="1.0" encoding="UTF-8" standalone="no"?><!DOCTYPE svg PUBLIC "-//W3C//DTD SVG 1.1//EN" "http://www.w3.org/Graphics/SVG/1.1/DTD/svg11.dtd"><svg width="100%" height="100%" viewBox="0 0 88 81" version="1.1" xmlns="http://www.w3.org/2000/svg" xmlns:xlink="http://www.w3.org/1999/xlink" xml:space="preserve" xmlns:serif="http://www.serif.com/" style="fill-rule:evenodd;clip-rule:evenodd;stroke-linejoin:round;stroke-miterlimit:2;"><g><g><path d="M65.869,78.84c-3.025,-2.454 -13.802,-15.975 -17.928,-22.51c-2.062,-3.26 -4.038,-5.928 -4.388,-5.93c-0.362,-0.001 -2.9,2.826 -5.626,6.281c-5.651,7.126 -15.29,15.352 -22.053,18.815c-5.201,2.66 -14.815,4.53 -14.803,2.879c0.013,-0.604 3.964,-3.531 8.777,-6.504c14.49,-8.935 28.642,-25.308 33.943,-39.235c3.538,-9.311 3.275,-9.984 -2.926,-7.793c-2.863,1.011 -6.188,1.526 -7.388,1.146c-1.551,-0.491 -3.938,1.341 -8.227,6.322c-5.338,6.18 -12.327,11.836 -14.64,11.836c-2.05,-0 -0.225,-3.253 6.139,-10.973c8.626,-10.448 14.327,-21.587 14.327,-27.983c0,-4.475 0.25,-4.801 3.663,-4.801c4.401,-0 7.777,3.002 6.714,5.975c-0.425,1.183 -2.163,4.568 -3.851,7.521c-1.7,2.954 -2.75,5.706 -2.338,6.117c0.413,0.411 4.126,-0.483 8.239,-1.984c7.026,-2.562 7.726,-2.608 11.352,-0.739c5.338,2.76 5.763,4.932 1.9,9.532c-1.837,2.175 -5.013,7.288 -7.076,11.361l-3.738,7.405l4.601,5.084c8.601,9.524 16.89,16.015 26.842,21.019c5.476,2.749 9.951,5.479 9.951,6.065c0,2.508 -18.54,3.453 -21.466,1.094Z" style="fill:#004459;fill-rule:nonzero;"/><path d="M0.909,78.297c0.012,-0.604 3.963,-3.529 8.776,-6.503c14.49,-8.934 28.642,-25.308 33.943,-39.235c3.538,-9.311 3.288,-9.983 -2.925,-7.793c-2.863,1.01 -6.189,1.527 -7.389,1.147c-1.55,-0.492 -3.925,1.341 -8.226,6.322c-5.339,6.18 -12.327,11.836 -14.64,11.836c-2.05,-0 -0.225,-3.253 6.138,-10.973c8.627,-10.448 14.328,-21.588 14.328,-27.984c-0,-4.474 0.237,-4.8 3.65,-4.8c4.414,-0 7.789,3 6.726,5.974c-0.425,1.183 -2.162,4.569 -3.85,7.521c-1.7,2.953 -2.751,5.706 -2.338,6.118c0.412,0.41 4.126,-0.483 8.239,-1.986c7.026,-2.561 7.738,-2.606 11.352,-0.737c5.338,2.761 5.763,4.932 1.887,9.543c-1.837,2.18 -5.513,8.237 -8.163,13.458c-7.627,14.986 -20.754,29.12 -32.668,35.203c-5.239,2.671 -14.853,4.545 -14.828,2.891l-0.012,-0.002Z" style="fill:#178eb3;fill-rule:nonzero;"/></g></g></svg>