<?xml version="1.0" encoding="UTF-8" standalone="no"?><!DOCTYPE svg PUBLIC "-//W3C//DTD SVG 1.1//EN" "http://www.w3.org/Graphics/SVG/1.1/DTD/svg11.dtd"><svg width="100%" height="100%" viewBox="0 0 66 79" version="1.1" xmlns="http://www.w3.org/2000/svg" xmlns:xlink="http://www.w3.org/1999/xlink" xml:space="preserve" xmlns:serif="http://www.serif.com/" style="fill-rule:evenodd;clip-rule:evenodd;stroke-linejoin:round;stroke-miterlimit:2;"><g><path d="M30.21,1.106c-1.1,-0.122 -1.6,0.678 -1.04,2.453c1.21,3.795 -6.15,16.43 -15.33,26.352c-4.42,4.767 -7.51,8.668 -6.88,8.668c2.27,0 12.32,-7.467 18.42,-13.682c4.25,-4.334 7.21,-6.322 9.4,-6.322c1.76,-0 6.98,-1.049 11.61,-2.332c4.63,-1.283 8.41,-1.827 8.41,-1.209c0,0.618 -1.48,4.06 -3.28,7.647c-10.85,21.511 -26.1,38.555 -48.02,53.65c-5.02,3.458 -1.74,2.555 7.36,-2.026c15,-7.556 26.25,-17.099 36.96,-31.352c6.5,-8.65 17.61,-26.609 17.61,-28.463c-0,-0.527 -1.58,-1.995 -3.52,-3.263c-3.15,-2.069 -4.02,-2.134 -8.42,-0.62c-2.69,0.929 -8.02,2.057 -11.85,2.506l-6.95,0.817l1.51,-3.317c1.33,-2.917 1.16,-3.691 -1.41,-6.429c-1.8,-1.914 -3.49,-2.957 -4.58,-3.079l0,0.001Z" style="fill-rule:nonzero;"/></g></svg>