<?xml version="1.0" encoding="UTF-8" standalone="no"?><!DOCTYPE svg PUBLIC "-//W3C//DTD SVG 1.1//EN" "http://www.w3.org/Graphics/SVG/1.1/DTD/svg11.dtd"><svg width="100%" height="100%" viewBox="0 0 98 96" version="1.1" xmlns="http://www.w3.org/2000/svg" xmlns:xlink="http://www.w3.org/1999/xlink" xml:space="preserve" xmlns:serif="http://www.serif.com/" style="fill-rule:evenodd;clip-rule:evenodd;stroke-linejoin:round;stroke-miterlimit:2;"><g><g><path d="M50.384,93.945c-3.525,-2.383 -3.963,-6.27 -3.313,-29.188c0.5,-17.511 0.263,-24.446 -0.937,-27.33c-1.876,-4.513 -1.226,-5.609 2.738,-4.615c6.776,1.703 6.763,1.621 6.038,32.608c-0.638,27.676 -1.138,30.81 -4.526,28.523l0,0.002Zm-36.406,-8.751c3.814,-4.213 9.789,-18.866 11.077,-27.205c1.288,-8.25 1.088,-12.838 -0.762,-17.157c-1.401,-3.268 3.463,-2.851 7.301,0.625c2.963,2.695 3.05,3.156 1.913,10.93c-0.651,4.464 -2.813,11.598 -4.801,15.852c-3.538,7.564 -12.877,19.163 -15.44,19.163c-0.7,0 -0.388,-0.992 0.712,-2.206l0,-0.002Zm-2.5,-43.134c11.664,-11.738 25.454,-32.13 24.054,-35.571c-0.363,-0.88 -1,-2.444 -1.413,-3.475c-0.55,-1.355 0.063,-1.876 2.213,-1.876c6.126,0 11.564,6.973 7.851,10.055c-1.325,1.106 0.063,2.579 6.701,7.112c4.601,3.144 10.615,7.527 13.365,9.739c7.876,6.332 15.565,10.798 24.791,14.407l8.527,3.337l-4.776,0.79c-2.638,0.434 -8.489,0.797 -13.002,0.804l-8.226,0.014l-6.339,-7.814c-8.451,-10.422 -21.453,-23.441 -23.391,-23.441c-0.85,-0 -2.188,1.394 -2.963,3.098c-2.413,5.276 -20.228,22.946 -29.055,28.821c-4.625,3.071 -8.726,5.586 -9.126,5.586c-0.4,-0 4.463,-5.214 10.789,-11.587l0,0.001Z" style="fill:#004459;fill-rule:nonzero;"/><path d="M50.222,93.867c-3.513,-2.383 -3.963,-6.27 -3.313,-29.187c0.5,-17.512 0.262,-24.447 -0.938,-27.331c-1.863,-4.513 -1.213,-5.608 2.738,-4.613c6.789,1.702 6.764,1.619 6.051,32.608c-0.65,27.675 -1.15,30.81 -4.538,28.523Zm-36.406,-8.75c3.813,-4.213 9.789,-18.867 11.089,-27.206c1.275,-8.25 1.075,-12.838 -0.775,-17.156c-1.4,-3.268 3.463,-2.852 7.301,0.625c2.976,2.694 3.051,3.155 1.913,10.929c-0.65,4.465 -2.813,11.598 -4.801,15.853c-3.538,7.563 -12.877,19.163 -15.44,19.163c-0.7,-0 -0.387,-0.993 0.713,-2.207l-0,-0.001Zm-2.488,-43.136c11.664,-11.738 25.442,-32.13 24.041,-35.57c-0.362,-0.881 -1,-2.445 -1.412,-3.476c-0.55,-1.355 0.062,-1.875 2.225,-1.875c6.113,-0 11.564,6.973 7.851,10.054c-1.337,1.106 0.05,2.579 6.689,7.112c4.601,3.144 10.627,7.528 13.377,9.739c7.876,6.333 15.552,10.798 24.779,14.408l8.526,3.336l-4.775,0.79c-2.626,0.436 -8.477,0.797 -13.003,0.804l-8.213,0.014l-6.351,-7.814c-8.452,-10.421 -21.441,-23.441 -23.379,-23.441c-0.863,0 -2.2,1.394 -2.976,3.098c-2.4,5.276 -20.215,22.946 -29.054,28.821c-4.626,3.073 -8.727,5.586 -9.127,5.586c-0.4,-0 4.463,-5.213 10.802,-11.587l0,0.001Z" style="fill:#178eb3;fill-rule:nonzero;"/></g></g></svg>