<?xml version="1.0" encoding="UTF-8" standalone="no"?><!DOCTYPE svg PUBLIC "-//W3C//DTD SVG 1.1//EN" "http://www.w3.org/Graphics/SVG/1.1/DTD/svg11.dtd"><svg width="100%" height="100%" viewBox="0 0 95 82" version="1.1" xmlns="http://www.w3.org/2000/svg" xmlns:xlink="http://www.w3.org/1999/xlink" xml:space="preserve" xmlns:serif="http://www.serif.com/" style="fill-rule:evenodd;clip-rule:evenodd;stroke-linejoin:round;stroke-miterlimit:2;"><g><g><path d="M60.661,75.445c-14.265,-8.341 -29.343,-15.292 -35.081,-16.171c-3.401,-0.521 -7.226,0.046 -12.327,1.826c-6.814,2.377 -7.639,2.427 -10.389,0.622c-4.338,-2.841 -2.888,-4.822 4.125,-5.66c8.489,-1.01 12.152,-2.728 21.679,-10.16c10.427,-8.13 24.041,-19.975 23.541,-20.475c-0.55,-0.545 -19.403,5.047 -25.154,7.459c-6.338,2.662 -11.152,2.572 -13.714,-0.255c-3.351,-3.7 -2.451,-4.823 4.5,-5.67c10.202,-1.241 30.355,-6.596 37.994,-10.091c6.413,-2.936 7.163,-3.03 10.514,-1.297c1.988,1.027 4.213,2.998 4.951,4.38c1.162,2.159 0.8,2.816 -2.551,4.675c-2.15,1.189 -10.201,6.884 -17.877,12.654c-7.689,5.769 -15.803,11.591 -18.028,12.938c-4.201,2.53 -5.314,4.699 -2.401,4.699c0.913,0 7.251,2.292 14.065,5.094c18.178,7.468 26.092,9.676 38.656,10.789c6.189,0.548 11.252,1.555 11.252,2.239c-0,1.594 -13.665,7.039 -19.378,7.728c-3.513,0.421 -6.364,-0.637 -14.377,-5.325l-0,0.001Zm-24.267,-65.682c-3.55,-2.833 -6.238,-5.786 -5.963,-6.563c0.712,-2.025 10.526,-1.294 14.102,1.053c2.225,1.452 3,3.104 3,6.314c0,5.946 -2.925,5.735 -11.139,-0.804Z" style="fill:#004459;fill-rule:nonzero;"/><path d="M60.498,75.368c-14.252,-8.342 -29.342,-15.293 -35.081,-16.172c-3.388,-0.521 -7.226,0.047 -12.327,1.827c-6.813,2.376 -7.638,2.427 -10.389,0.621c-4.338,-2.84 -2.888,-4.822 4.138,-5.659c8.477,-1.011 12.152,-2.728 21.666,-10.161c10.427,-8.13 24.042,-19.974 23.542,-20.474c-0.538,-0.545 -19.391,5.047 -25.142,7.458c-6.351,2.662 -11.164,2.572 -13.715,-0.255c-3.35,-3.699 -2.462,-4.823 4.489,-5.669c10.201,-1.242 30.355,-6.596 37.993,-10.092c6.414,-2.935 7.164,-3.029 10.514,-1.296c1.988,1.026 4.214,2.998 4.964,4.379c1.15,2.159 0.787,2.817 -2.563,4.676c-2.151,1.189 -10.189,6.883 -17.878,12.653c-7.676,5.77 -15.79,11.592 -18.028,12.938c-4.201,2.531 -5.301,4.7 -2.388,4.7c0.913,-0 7.239,2.291 14.065,5.093c18.178,7.469 26.092,9.677 38.644,10.789c6.188,0.548 11.251,1.556 11.251,2.24c0,1.594 -13.652,7.038 -19.378,7.727c-3.5,0.421 -6.363,-0.636 -14.377,-5.325l0,0.002Zm-24.279,-65.681c-3.55,-2.833 -6.238,-5.786 -5.963,-6.563c0.712,-2.026 10.526,-1.294 14.102,1.052c2.225,1.453 3.013,3.105 3.013,6.315c-0,5.946 -2.938,5.733 -11.152,-0.804Z" style="fill:#178eb3;fill-rule:nonzero;"/></g></g></svg>