<?xml version="1.0" encoding="UTF-8" standalone="no"?><!DOCTYPE svg PUBLIC "-//W3C//DTD SVG 1.1//EN" "http://www.w3.org/Graphics/SVG/1.1/DTD/svg11.dtd"><svg width="100%" height="100%" viewBox="0 0 64 73" version="1.1" xmlns="http://www.w3.org/2000/svg" xmlns:xlink="http://www.w3.org/1999/xlink" xml:space="preserve" xmlns:serif="http://www.serif.com/" style="fill-rule:evenodd;clip-rule:evenodd;stroke-linejoin:round;stroke-miterlimit:2;"><g><path d="M15.33,0.596c-5.34,0 -4.99,1.12 2.15,6.772c6.62,5.243 8.75,5.595 8.75,1.445c0,-4.092 -5.47,-8.217 -10.9,-8.217Zm-14.09,23.777c0,0.516 2.25,2.971 5.01,5.457c5.48,4.956 9.99,5.956 9.99,2.215c0,-1.269 -1.1,-3.31 -2.46,-4.537c-2.54,-2.301 -12.54,-4.8 -12.54,-3.135Zm60,4.229c0,-0.572 -2.95,1.83 -6.56,5.338c-16.12,15.663 -36.9,28.484 -46.17,28.484c-2.63,-0 -4.78,0.392 -4.78,0.871c0,0.478 1.46,2.601 3.24,4.717c1.78,2.115 3.93,3.845 4.78,3.845c2.76,-0 23.63,-14.518 32.23,-22.406c7.89,-7.25 17.26,-18.566 17.26,-20.85l0,0.001Z" style="fill-rule:nonzero;"/></g></svg>