<?xml version="1.0" encoding="UTF-8" standalone="no"?><!DOCTYPE svg PUBLIC "-//W3C//DTD SVG 1.1//EN" "http://www.w3.org/Graphics/SVG/1.1/DTD/svg11.dtd"><svg width="100%" height="100%" viewBox="0 0 68 64" version="1.1" xmlns="http://www.w3.org/2000/svg" xmlns:xlink="http://www.w3.org/1999/xlink" xml:space="preserve" xmlns:serif="http://www.serif.com/" style="fill-rule:evenodd;clip-rule:evenodd;stroke-linejoin:round;stroke-miterlimit:2;"><g><path d="M52.76,1.098c-1.56,-0.259 -3.18,-0.194 -4.59,0.348c-6.6,2.519 -36.01,8.78 -38.83,8.264c-3.73,-0.683 -3.57,1.083 0.32,3.631c3.46,2.27 2.98,2.333 23.05,-3.071c7.87,-2.119 14.55,-3.614 14.84,-3.32c1.32,1.316 -13.16,23.24 -22.51,34.074c-5.16,5.985 -14.76,14.838 -21.67,19.986c-2.05,1.522 -3.09,2.785 -2.32,2.807c2.63,0.074 19.98,-12.078 28.14,-19.715l8.14,-7.618l13.02,13.061c7.16,7.184 14.01,13.061 15.23,13.061c3.56,-0 2.6,-5.003 -2.23,-11.588c-3.45,-4.701 -6.6,-7.063 -14.89,-11.176l-10.51,-5.214l4.67,-5.702c2.57,-3.135 6.85,-8.796 9.5,-12.578c2.66,-3.782 5.64,-7.541 6.63,-8.355c2.94,-2.433 -1.3,-6.118 -5.99,-6.895Z" style="fill-rule:nonzero;"/></g></svg>