<?xml version="1.0" encoding="UTF-8" standalone="no"?><!DOCTYPE svg PUBLIC "-//W3C//DTD SVG 1.1//EN" "http://www.w3.org/Graphics/SVG/1.1/DTD/svg11.dtd"><svg width="100%" height="100%" viewBox="0 0 98 80" version="1.1" xmlns="http://www.w3.org/2000/svg" xmlns:xlink="http://www.w3.org/1999/xlink" xml:space="preserve" xmlns:serif="http://www.serif.com/" style="fill-rule:evenodd;clip-rule:evenodd;stroke-linejoin:round;stroke-miterlimit:2;"><g><g><path d="M22.619,77.423c-1.938,-1.944 -1.863,-4.246 0.35,-10.377c2.388,-6.641 2.575,-26.879 0.25,-26.879c-0.9,-0 -4.338,0.919 -7.639,2.04c-5.513,1.88 -6.313,1.883 -10.226,0.02c-7.589,-3.62 -5.501,-5.523 7.138,-6.512l11.365,-0.889l-0.801,-5.768c-0.437,-3.173 -1.412,-7.334 -2.162,-9.247c-1.776,-4.532 -0.763,-5.335 4.925,-3.928l4.676,1.155l0.75,17.185l4.626,-0.765c2.55,-0.42 5.413,-0.771 6.376,-0.779c1.413,-0.011 1.6,-1.892 1,-9.784c-0.412,-5.373 -1.338,-11.3 -2.05,-13.172c-1.513,-3.992 0.65,-5.602 4.651,-3.459c2.613,1.394 4.025,8.127 4.025,19.074l0,6.077l6.151,0c5.851,0 6.201,-0.192 7.001,-3.815c0.45,-2.099 0.951,-8.835 1.101,-14.968c0.15,-6.133 0.612,-11.49 1.025,-11.904c1.125,-1.129 8.476,3.014 8.476,4.778c0,0.843 -0.825,5.47 -1.85,10.282c-1.013,4.813 -1.863,10.09 -1.876,11.726c-0.025,2.885 0.176,2.943 6.539,1.95c3.613,-0.563 8.301,-1.02 10.402,-1.014c4.575,0.011 10.451,3.951 10.501,7.035c0.038,2.011 -1.137,2.125 -14.239,1.376l-14.29,-0.815l-0.775,4.248c-0.438,2.337 -0.613,6.211 -0.413,8.61l0.375,4.362l-6.876,0.756c-3.776,0.415 -8.676,1.687 -10.877,2.826c-5.025,2.602 -6.588,2.602 -8.489,-0.005c-1.2,-1.636 -1.162,-3.264 0.175,-7.7c0.926,-3.093 1.688,-6.975 1.688,-8.627c0,-2.871 -0.262,-2.965 -5.938,-2.141c-3.263,0.474 -6.126,1.028 -6.364,1.229c-0.225,0.203 -0.012,6.679 0.488,14.391l0.913,14.023l10.764,-0.829c33.955,-2.618 31.755,-2.675 35.818,0.917c5.563,4.911 2.738,5.891 -14.427,4.996c-15.603,-0.815 -31.068,0.923 -35.431,3.981c-3.188,2.233 -4.851,2.315 -6.826,0.34Zm37.993,-30.136c0.088,-0.134 0.538,-2.667 1.001,-5.627l0.812,-5.383l-11.927,0.764l-0.362,6.445l-0.375,6.444l5.338,-1.199c2.938,-0.66 5.413,-1.309 5.513,-1.444Z" style="fill:#004459;fill-rule:nonzero;"/><path d="M22.444,77.345c-1.938,-1.944 -1.863,-4.245 0.337,-10.376c2.401,-6.641 2.588,-26.88 0.263,-26.88c-0.913,0 -4.351,0.919 -7.639,2.041c-5.513,1.88 -6.326,1.882 -10.226,0.02c-7.589,-3.621 -5.501,-5.524 7.138,-6.513l11.365,-0.889l-0.801,-5.768c-0.437,-3.173 -1.412,-7.334 -2.162,-9.246c-1.776,-4.532 -0.763,-5.335 4.925,-3.929l4.676,1.156l0.75,17.185l4.626,-0.783c2.55,-0.431 9.527,-1.145 15.502,-1.588c10.752,-0.793 10.89,-0.847 11.69,-4.435c0.437,-1.999 0.912,-8.652 1.063,-14.785c0.15,-6.135 0.6,-11.491 1.012,-11.904c1.138,-1.129 8.489,3.014 8.489,4.778c0,0.842 -0.825,5.469 -1.85,10.281c-1.025,4.814 -1.863,10.091 -1.876,11.726c-0.025,2.886 0.175,2.943 6.539,1.95c3.613,-0.562 8.289,-1.02 10.402,-1.014c4.563,0.012 10.451,3.951 10.501,7.035c0.038,2.012 -1.137,2.126 -14.239,1.377l-14.29,-0.815l-0.838,4.463c-0.462,2.454 -0.462,6.195 0.013,8.312c0.987,4.479 -1.801,6.487 -5.151,3.711c-1.588,-1.316 -1.863,-3.215 -1.338,-9.054l0.675,-7.389l-9.589,0.828c-5.276,0.456 -12.314,1.171 -15.64,1.592l-6.063,0.762l0.887,13.887c0.488,7.639 1.113,14.138 1.401,14.443c0.287,0.306 8.238,-0.125 17.677,-0.958c23.342,-2.06 24.554,-1.99 28.655,1.63c5.351,4.734 2.375,5.715 -14.615,4.829c-15.615,-0.814 -31.08,0.922 -35.443,3.98c-3.188,2.233 -4.838,2.316 -6.826,0.34Z" style="fill:#178eb3;fill-rule:nonzero;"/></g></g></svg>