<?xml version="1.0" encoding="UTF-8" standalone="no"?><!DOCTYPE svg PUBLIC "-//W3C//DTD SVG 1.1//EN" "http://www.w3.org/Graphics/SVG/1.1/DTD/svg11.dtd"><svg width="100%" height="100%" viewBox="0 0 66 70" version="1.1" xmlns="http://www.w3.org/2000/svg" xmlns:xlink="http://www.w3.org/1999/xlink" xml:space="preserve" xmlns:serif="http://www.serif.com/" style="fill-rule:evenodd;clip-rule:evenodd;stroke-linejoin:round;stroke-miterlimit:2;"><g><path d="M56.26,1.608c-1.03,0.275 -1.39,1.839 -1.02,4.676c0.5,3.813 -0.47,6.858 -5.21,16.303c-7.19,14.322 -18.07,28.938 -28.98,38.938c-9.27,8.492 -9.15,9.698 0.33,3.312c13.66,-9.194 30.6,-29.606 39.75,-47.885c4,-8.003 4.01,-8.469 0.19,-12.287c-2.32,-2.318 -4.02,-3.332 -5.06,-3.056l0,-0.001Zm-55.32,8c-0.71,0.711 9.42,15.892 11.96,17.93c5.21,4.176 7.07,-1.019 2.84,-7.949c-2.18,-3.58 -13.54,-11.239 -14.8,-9.981Z" style="fill-rule:nonzero;"/></g></svg>