<?xml version="1.0" encoding="UTF-8" standalone="no"?><!DOCTYPE svg PUBLIC "-//W3C//DTD SVG 1.1//EN" "http://www.w3.org/Graphics/SVG/1.1/DTD/svg11.dtd"><svg width="100%" height="100%" viewBox="0 0 64 78" version="1.1" xmlns="http://www.w3.org/2000/svg" xmlns:xlink="http://www.w3.org/1999/xlink" xml:space="preserve" xmlns:serif="http://www.serif.com/" style="fill-rule:evenodd;clip-rule:evenodd;stroke-linejoin:round;stroke-miterlimit:2;"><g><path d="M28.65,1.985c-2.03,-0.532 -2.42,0.029 -2.42,3.521c0,5.251 -9.8,20.251 -18.63,28.512c-3.45,3.222 -5.86,5.858 -5.36,5.858c2.14,-0 11.48,-7.18 19.34,-14.852c6.8,-6.643 9.27,-8.292 12.5,-8.348c2.22,-0.038 7.07,-0.524 10.78,-1.08c6.27,-0.94 6.69,-0.848 5.89,1.318c-1.06,2.854 -11.3,19.965 -14.4,24.062l-2.25,2.977l-2.99,-5.369c-2.24,-4.011 -4.24,-5.792 -7.89,-7.045c-2.69,-0.922 -5.19,-1.382 -5.55,-1.021c-0.36,0.36 2.87,4.082 7.18,8.273l7.83,7.621l-12.29,12.143c-6.76,6.679 -14.26,13.64 -16.66,15.471c-5.64,4.289 -3.71,4.298 3.64,0.016c18.78,-10.938 36.51,-29.456 47.67,-49.795c2.26,-4.126 4.91,-8.444 5.89,-9.598c1.59,-1.869 1.37,-2.313 -2.02,-4.064c-3.34,-1.727 -4.61,-1.757 -10.43,-0.247c-3.64,0.946 -9.06,2.129 -12.05,2.629l-5.42,0.912l2.15,-3.287c2.03,-3.091 2.03,-3.426 0.03,-5.631c-1.17,-1.289 -3.21,-2.628 -4.54,-2.976Z" style="fill-rule:nonzero;"/></g></svg>