<?xml version="1.0" encoding="UTF-8" standalone="no"?><!DOCTYPE svg PUBLIC "-//W3C//DTD SVG 1.1//EN" "http://www.w3.org/Graphics/SVG/1.1/DTD/svg11.dtd"><svg width="100%" height="100%" viewBox="0 0 93 100" version="1.1" xmlns="http://www.w3.org/2000/svg" xmlns:xlink="http://www.w3.org/1999/xlink" xml:space="preserve" xmlns:serif="http://www.serif.com/" style="fill-rule:evenodd;clip-rule:evenodd;stroke-linejoin:round;stroke-miterlimit:2;"><g><g><path d="M45.146,97.675c-0.888,-1.639 -1.376,-12.514 -1.376,-30.151c0,-25.256 -0.187,-27.587 -2.15,-27.587c-1.188,0 -9.239,1.714 -17.903,3.809c-12.352,2.99 -16.465,3.534 -19.103,2.531c-1.838,-0.702 -3.35,-1.75 -3.35,-2.33c-0,-0.579 9.426,-2.736 20.94,-4.792l20.941,-3.741l0.388,-5.341c0.237,-3.3 -0.35,-6.466 -1.538,-8.283l-1.925,-2.943l-8.464,2.419c-12.015,3.437 -13.515,2.905 -4.088,-1.453c15.827,-7.321 23.754,-12.625 23.754,-15.901c-0,-2.646 0.4,-2.902 3.438,-2.157c5.075,1.248 9.064,4.186 9.064,6.672c-0,1.592 -2.376,2.998 -8.714,5.154l-8.714,2.965l3.088,3.665c2.588,3.074 2.95,4.479 2.275,8.71c-0.8,5.032 -0.8,5.043 2.813,4.304c2,-0.407 7.201,-1.294 11.589,-1.969c4.376,-0.676 9.189,-2.032 10.69,-3.013c2.3,-1.508 3.463,-1.528 7.526,-0.13c5.626,1.932 8.851,4.761 7.651,6.704c-0.513,0.835 -5.826,1.419 -13.59,1.494c-7.013,0.068 -15.84,0.49 -19.615,0.937l-6.876,0.814l-0.713,29.114c-0.6,24.198 -1.05,29.447 -2.7,31.088c-1.801,1.799 -2.088,1.747 -3.338,-0.589Z" style="fill:#004459;fill-rule:nonzero;"/><path d="M45.008,97.598c-0.875,-1.639 -1.375,-12.515 -1.375,-30.151c-0,-25.257 -0.175,-27.587 -2.15,-27.587c-1.176,-0 -9.227,1.713 -17.891,3.808c-12.364,2.989 -16.465,3.533 -19.103,2.53c-1.85,-0.701 -3.363,-1.75 -3.363,-2.329c0,-0.58 9.427,-2.736 20.941,-4.793l20.941,-3.739l0.4,-5.342c0.237,-3.301 -0.35,-6.466 -1.538,-8.284l-1.938,-2.942l-8.451,2.419c-12.027,3.437 -13.515,2.904 -4.101,-1.454c15.84,-7.321 23.754,-12.624 23.754,-15.901c0,-2.646 0.413,-2.901 3.438,-2.155c5.076,1.246 9.064,4.184 9.064,6.672c0,1.59 -2.375,2.997 -8.701,5.153l-8.714,2.964l3.088,3.666c2.588,3.073 2.95,4.478 2.275,8.709c-0.813,5.032 -0.8,5.043 2.813,4.304c1.988,-0.407 7.201,-1.292 11.577,-1.969c4.388,-0.676 9.189,-2.031 10.689,-3.013c2.3,-1.507 3.463,-1.527 7.539,-0.128c5.613,1.931 8.839,4.76 7.639,6.703c-0.513,0.834 -5.826,1.418 -13.59,1.493c-7.001,0.069 -15.828,0.49 -19.616,0.937l-6.876,0.816l-0.712,29.113c-0.601,24.199 -1.051,29.447 -2.688,31.089c-1.801,1.799 -2.101,1.746 -3.351,-0.59l0,0.001Z" style="fill:#178eb3;fill-rule:nonzero;"/></g></g></svg>