<?xml version="1.0" encoding="UTF-8" standalone="no"?><!DOCTYPE svg PUBLIC "-//W3C//DTD SVG 1.1//EN" "http://www.w3.org/Graphics/SVG/1.1/DTD/svg11.dtd"><svg width="100%" height="100%" viewBox="0 0 79 82" version="1.1" xmlns="http://www.w3.org/2000/svg" xmlns:xlink="http://www.w3.org/1999/xlink" xml:space="preserve" xmlns:serif="http://www.serif.com/" style="fill-rule:evenodd;clip-rule:evenodd;stroke-linejoin:round;stroke-miterlimit:2;"><g><path d="M48.34,1.303c-0.65,0.119 -0.8,0.942 -1.03,2.578c-0.3,2.06 -3.1,4.134 -11,8.145c-5.83,2.959 -13.42,6.469 -16.88,7.799c-7.43,2.859 -4.33,3.227 6.22,0.738c7.18,-1.693 7.63,-1.655 10.32,0.863c2.05,1.925 2.81,4.051 2.81,7.91l-0,5.278l-18.75,3.568c-10.31,1.963 -18.75,3.98 -18.75,4.483c-0.01,2.388 7.33,2.146 21.43,-0.704c8.5,-1.716 15.6,-2.966 15.79,-2.775c0.2,0.191 -0.27,4.503 -1.02,9.582c-1.38,9.197 -6.29,21.709 -11.26,28.693c-3.96,5.56 -0.77,4.392 4.49,-1.643c6.13,-7.042 12.95,-21.451 13.89,-29.34c0.41,-3.49 1.13,-6.965 1.6,-7.722c0.49,-0.802 7.22,-1.72 16.09,-2.197c16.33,-0.878 18.84,-2.197 11.12,-5.858c-3.55,-1.686 -4.81,-1.728 -9.06,-0.297c-2.72,0.914 -7.9,1.931 -11.51,2.258l-6.56,0.594l-0,-5.856c-0,-4.967 -0.47,-6.11 -3.13,-7.529c-1.71,-0.92 -3.12,-2.051 -3.12,-2.514c-0,-0.463 3.94,-2.387 8.75,-4.275c4.82,-1.889 8.75,-3.619 8.75,-3.846c-0,-2.095 -2.17,-4.781 -5.09,-6.289c-2.28,-1.178 -3.44,-1.764 -4.1,-1.644Z" style="fill-rule:nonzero;"/></g></svg>