<?xml version="1.0" encoding="UTF-8" standalone="no"?><!DOCTYPE svg PUBLIC "-//W3C//DTD SVG 1.1//EN" "http://www.w3.org/Graphics/SVG/1.1/DTD/svg11.dtd"><svg width="100%" height="100%" viewBox="0 0 68 69" version="1.1" xmlns="http://www.w3.org/2000/svg" xmlns:xlink="http://www.w3.org/1999/xlink" xml:space="preserve" xmlns:serif="http://www.serif.com/" style="fill-rule:evenodd;clip-rule:evenodd;stroke-linejoin:round;stroke-miterlimit:2;"><g><path d="M58.24,1.262c-1.09,0.276 -1.55,1.985 -1.58,5.172c-0.1,11.121 -14.34,33.804 -32.34,51.49c-12.03,11.823 -11.83,12.815 0.84,4.266c15.38,-10.364 29.14,-26.926 38.18,-45.945l3.81,-8.006l-3.56,-3.559c-2.54,-2.537 -4.26,-3.694 -5.35,-3.418Zm-38.19,4.809c-0.55,1.65 8.13,15.946 10.13,16.68c2.66,0.977 3.74,-1.289 2.86,-5.981c-0.68,-3.638 -2.02,-5.28 -6.71,-8.256c-3.22,-2.042 -6.05,-3.142 -6.28,-2.443Zm-18.98,6.013l-0,3.762c-0,2.426 1.29,5.143 3.63,7.647c4.4,4.708 7.63,5.086 7.63,0.894c-0,-3.394 -2.8,-7.024 -7.82,-10.158l-3.44,-2.144l-0,-0.001Z" style="fill-rule:nonzero;"/></g></svg>