<?xml version="1.0" encoding="UTF-8" standalone="no"?><!DOCTYPE svg PUBLIC "-//W3C//DTD SVG 1.1//EN" "http://www.w3.org/Graphics/SVG/1.1/DTD/svg11.dtd"><svg width="100%" height="100%" viewBox="0 0 74 87" version="1.1" xmlns="http://www.w3.org/2000/svg" xmlns:xlink="http://www.w3.org/1999/xlink" xml:space="preserve" xmlns:serif="http://www.serif.com/" style="fill-rule:evenodd;clip-rule:evenodd;stroke-linejoin:round;stroke-miterlimit:2;"><g><g><path d="M62.535,81.015c-1.8,-4.489 -1.875,-6.406 -0.6,-14.361c2.138,-13.206 0.888,-51.983 -1.875,-58.339c-3.288,-7.591 -0.338,-9.295 7.488,-4.321c4.163,2.646 4.376,3.109 3.651,7.814c-0.438,2.75 -0.738,19.509 -0.675,37.243c0.1,32.078 -0.475,37.144 -4.226,37.144c-0.925,-0 -2.625,-2.332 -3.763,-5.181l-0,0.001Zm-61.96,-3.673c0,-0.744 1.875,-3.697 4.163,-6.563c10.202,-12.75 12.652,-21.148 11.765,-40.217c-0.325,-6.876 -1.013,-13.767 -1.526,-15.315c-0.775,-2.314 -0.487,-2.813 1.638,-2.813c1.425,0 4.026,0.653 5.776,1.452c2.913,1.324 3.188,2.114 3.176,9.064c-0.038,28.274 -7.089,47.089 -20.241,53.977c-4.051,2.123 -4.751,2.184 -4.751,0.416l0,-0.001Zm37.444,-8.766c-1.038,-1.947 -1.226,-6.478 -0.601,-15.244c1.163,-16.354 0.988,-28.046 -0.5,-33.15c-0.987,-3.372 -0.837,-4.27 0.801,-4.897c1.1,-0.423 3.438,0.036 5.188,1.02l3.188,1.789l-0.35,23.111c-0.35,22.568 -1.313,28.535 -4.763,29.659c-0.813,0.265 -2.151,-0.765 -2.963,-2.289l-0,0.001Z" style="fill:#004459;fill-rule:nonzero;"/><path d="M62.385,80.938c-1.788,-4.49 -1.875,-6.406 -0.588,-14.361c2.126,-13.206 0.876,-51.984 -1.875,-58.34c-3.3,-7.592 -0.35,-9.295 7.476,-4.32c4.163,2.645 4.376,3.109 3.651,7.813c-0.425,2.751 -0.738,19.51 -0.675,37.244c0.1,32.078 -0.475,37.143 -4.213,37.143c-0.938,0 -2.638,-2.331 -3.776,-5.18l-0,0.001Zm-61.96,-3.673c0,-0.744 1.875,-3.697 4.163,-6.564c10.202,-12.749 12.652,-21.147 11.765,-40.216c-0.325,-6.876 -1.013,-13.769 -1.526,-15.315c-0.775,-2.314 -0.475,-2.813 1.651,-2.813c1.425,-0 4.013,0.652 5.763,1.45c2.913,1.325 3.188,2.115 3.176,9.064c-0.038,28.274 -7.089,47.089 -20.241,53.977c-4.051,2.124 -4.751,2.186 -4.751,0.417Zm37.444,-8.767c-1.038,-1.946 -1.213,-6.477 -0.601,-15.243c1.163,-16.354 0.988,-28.046 -0.5,-33.151c-0.975,-3.372 -0.837,-4.269 0.8,-4.897c1.101,-0.422 3.439,0.036 5.201,1.02l3.176,1.789l-0.35,23.112c-0.35,22.567 -1.313,28.534 -4.763,29.658c-0.813,0.265 -2.151,-0.765 -2.963,-2.289l-0,0.001Z" style="fill:#178eb3;fill-rule:nonzero;"/></g></g></svg>