<?xml version="1.0" encoding="UTF-8" standalone="no"?><!DOCTYPE svg PUBLIC "-//W3C//DTD SVG 1.1//EN" "http://www.w3.org/Graphics/SVG/1.1/DTD/svg11.dtd"><svg width="100%" height="100%" viewBox="0 0 76 76" version="1.1" xmlns="http://www.w3.org/2000/svg" xmlns:xlink="http://www.w3.org/1999/xlink" xml:space="preserve" xmlns:serif="http://www.serif.com/" style="fill-rule:evenodd;clip-rule:evenodd;stroke-linejoin:round;stroke-miterlimit:2;"><g><path d="M49.81,0.409c-1.95,0.08 -3.69,0.468 -4.36,1.129c-1.5,1.474 -18.94,6.332 -22.73,6.332c-3.04,0 -3.86,1.879 -1.28,2.921c2.92,1.176 5.96,0.835 20.44,-2.296c7.95,-1.719 14.69,-3.125 14.98,-3.125c1.48,0 0.25,-3.589 -1.45,-4.243c-1.49,-0.571 -3.65,-0.799 -5.6,-0.718Zm17.54,19.933c-2.12,-0.195 -4.25,0.145 -6.21,1.035c-1.72,0.778 -14.66,3.423 -28.76,5.879c-14.1,2.457 -27.03,4.912 -28.75,5.457l-3.12,0.993l2.81,1.505c2.3,1.23 5.5,0.936 17.5,-1.605c12.29,-2.603 14.96,-2.835 16.38,-1.43c4.19,4.147 -4.08,24.352 -14.75,36.016c-7.61,8.319 -6.72,9.305 2.1,2.334c14.34,-11.338 25.29,-32.738 19.83,-38.77c-1.96,-2.163 -1.66,-2.303 6.41,-3.066c4.66,-0.44 11.32,-0.804 14.79,-0.809c3.48,-0.005 7.38,-0.775 8.66,-1.713c2.24,-1.635 2.21,-1.782 -0.7,-3.648c-1.95,-1.252 -4.07,-1.982 -6.19,-2.178Z" style="fill-rule:nonzero;"/></g></svg>