<?xml version="1.0" encoding="UTF-8" standalone="no"?><!DOCTYPE svg PUBLIC "-//W3C//DTD SVG 1.1//EN" "http://www.w3.org/Graphics/SVG/1.1/DTD/svg11.dtd"><svg width="100%" height="100%" viewBox="0 0 88 80" version="1.1" xmlns="http://www.w3.org/2000/svg" xmlns:xlink="http://www.w3.org/1999/xlink" xml:space="preserve" xmlns:serif="http://www.serif.com/" style="fill-rule:evenodd;clip-rule:evenodd;stroke-linejoin:round;stroke-miterlimit:2;"><g><g><path d="M58.163,71.507c-3.825,-3.954 -9.976,-11.268 -13.677,-16.253c-3.688,-4.985 -7.063,-9.064 -7.501,-9.064c-0.425,0 -2.075,2.748 -3.676,6.106c-3.65,7.68 -8.814,12.681 -18.127,17.567c-6.777,3.543 -14.59,5.098 -14.553,2.894c0.013,-0.515 3.401,-2.888 7.539,-5.271c12.339,-7.104 20.053,-16.058 22.203,-25.777l1.138,-5.109l-7.014,1.65c-3.85,0.908 -8.451,1.659 -10.201,1.671c-3.463,0.021 -8.564,-3.022 -7.251,-4.327c0.637,-0.644 20.803,-4.383 23.728,-4.401c1.388,-0.009 2.463,-12.506 1.263,-14.661c-0.65,-1.155 -3.625,-2.689 -6.613,-3.411c-7.614,-1.837 -7.227,-4.723 0.825,-5.978c3.438,-0.536 11.727,-2.187 18.44,-3.666c9.889,-2.181 12.802,-2.412 15.415,-1.224c6.176,2.815 1.513,5.423 -14.677,8.213c-3.513,0.606 -4.426,1.28 -3.988,2.947c0.312,1.187 0.05,5.392 -0.563,9.342c-0.625,3.951 -1.05,7.184 -0.95,7.184c0.1,0 5.263,-1.108 11.464,-2.462c11.89,-2.594 18.516,-2.044 21.704,1.803c2.663,3.202 0.075,4.407 -9.727,4.545c-14.24,0.201 -24.354,1.533 -24.929,3.282c-0.287,0.847 4.738,6.809 11.152,13.248c11.464,11.507 14.365,13.42 31.355,20.667c3.263,1.393 5.938,3.059 5.938,3.702c0,0.969 -15.352,3.973 -20.315,3.973c-0.788,-0 -4.576,-3.236 -8.402,-7.189l0,-0.001Z" style="fill:#004459;fill-rule:nonzero;"/><path d="M0.479,72.68c0.013,-0.517 3.401,-2.888 7.539,-5.272c12.339,-7.105 20.066,-16.059 22.216,-25.778l1.125,-5.107l-7.001,1.65c-3.863,0.908 -8.451,1.659 -10.214,1.669c-3.513,0.021 -8.539,-3.029 -7.214,-4.367c0.475,-0.461 8.064,-1.929 16.878,-3.259c8.826,-1.332 21.153,-3.512 27.392,-4.847c11.952,-2.556 18.565,-1.998 21.753,1.833c2.651,3.201 0.075,4.406 -9.739,4.544c-5.288,0.075 -12.964,0.496 -17.053,0.938l-7.438,0.802l-2.351,7.993c-4.013,13.656 -9.026,19.833 -21.341,26.299c-6.763,3.549 -14.577,5.108 -14.552,2.902Zm21.441,-60.4c-4.488,-1.798 -2.55,-4.171 4.263,-5.233c3.388,-0.527 11.64,-2.169 18.353,-3.648c9.889,-2.183 12.802,-2.414 15.415,-1.224c6.839,3.116 2.726,4.96 -20.966,9.399c-12.239,2.295 -13.014,2.328 -17.065,0.705l0,0.001Z" style="fill:#178eb3;fill-rule:nonzero;"/></g></g></svg>