<?xml version="1.0" encoding="UTF-8" standalone="no"?><!DOCTYPE svg PUBLIC "-//W3C//DTD SVG 1.1//EN" "http://www.w3.org/Graphics/SVG/1.1/DTD/svg11.dtd"><svg width="100%" height="100%" viewBox="0 0 38 79" version="1.1" xmlns="http://www.w3.org/2000/svg" xmlns:xlink="http://www.w3.org/1999/xlink" xml:space="preserve" xmlns:serif="http://www.serif.com/" style="fill-rule:evenodd;clip-rule:evenodd;stroke-linejoin:round;stroke-miterlimit:2;"><g><path d="M4.84,1.666c-4.44,-1.272 -5.48,0.851 -1.88,3.836c2.07,1.721 2.07,3.639 0.15,64.535c-0.08,2.326 0.85,5.12 2.19,6.596c1.27,1.408 2.92,2.359 3.65,2.113c0.88,-0.291 1.46,-8.766 1.69,-24.477l0.33,-24.029l3.42,2.455c1.87,1.351 7.02,5.601 11.44,9.444c8.44,7.34 11.35,8.529 11.35,4.646c-0,-4.546 -8.88,-12.476 -17.51,-15.648c-7.74,-2.845 -8.14,-3.196 -8.51,-7.423c-0.21,-2.441 0.14,-7.27 0.76,-10.732c1.3,-7.155 -0.04,-9.295 -7.08,-11.314l0,-0.002Z" style="fill-rule:nonzero;"/></g></svg>