<?xml version="1.0" encoding="UTF-8" standalone="no"?><!DOCTYPE svg PUBLIC "-//W3C//DTD SVG 1.1//EN" "http://www.w3.org/Graphics/SVG/1.1/DTD/svg11.dtd"><svg width="100%" height="100%" viewBox="0 0 90 77" version="1.1" xmlns="http://www.w3.org/2000/svg" xmlns:xlink="http://www.w3.org/1999/xlink" xml:space="preserve" xmlns:serif="http://www.serif.com/" style="fill-rule:evenodd;clip-rule:evenodd;stroke-linejoin:round;stroke-miterlimit:2;"><g><g><path d="M2.602,73.649c-3.988,-3.232 -2.1,-5.204 4.976,-5.204c3.313,0 7.864,-0.367 10.102,-0.817l4.088,-0.817l-0.738,-11.998c-0.4,-6.598 -1.613,-14.46 -2.675,-17.467c-1.063,-3.008 -1.938,-5.963 -1.938,-6.564c-0,-2.068 5.913,-1.089 9.239,1.53l3.338,2.622l-1.688,31.929l6.739,-0.619c3.713,-0.341 6.976,-0.826 7.263,-1.079c0.288,-0.251 0.775,-11.853 1.088,-25.782c0.5,-21.456 0.275,-26.061 -1.45,-30.163c-3.238,-7.724 -2.838,-8.724 3.15,-7.922c8.377,1.126 9.277,2.832 7.539,14.282c-1.838,12.051 -1.863,16.61 -0.113,16.61c0.751,-0 4.864,-0.933 9.139,-2.072c8.289,-2.208 14.515,-1.598 14.515,1.423c0,1.073 -2.15,2.359 -5.313,3.175c-2.926,0.755 -6.164,1.602 -7.189,1.881c-1.037,0.278 -4.288,0.637 -7.226,0.797c-6.276,0.34 -6.276,0.325 -6.801,16.455l-0.35,11.033l3.125,-0.621c1.713,-0.341 8.939,-1.345 16.053,-2.23c12.177,-1.516 13.19,-1.467 17.503,0.842c2.925,1.566 4.576,3.355 4.576,4.95c-0,2.344 -0.713,2.474 -11.552,2.111c-14.99,-0.501 -48.145,1.836 -59.285,4.177c-11.189,2.356 -12.689,2.313 -16.115,-0.462Z" style="fill:#004459;fill-rule:nonzero;"/><path d="M42.171,69.306c-0.313,-0.861 -0.288,-13.659 0.063,-28.442c0.537,-23.015 0.337,-27.576 -1.413,-31.72c-3.251,-7.719 -2.863,-8.726 3.125,-7.923c8.389,1.125 9.289,2.832 7.551,14.281c-1.837,12.052 -1.862,16.61 -0.112,16.61c0.75,0 4.863,-0.931 9.139,-2.071c8.289,-2.208 14.515,-1.598 14.515,1.422c-0,1.063 -2.188,2.396 -5.314,3.243c-6.926,1.877 -18.44,3.442 -18.465,2.511c-0.013,-0.4 -0.563,0.116 -1.225,1.146c-0.675,1.032 -1.225,6.269 -1.238,11.637c-0.025,11.214 -2.075,20.87 -4.438,20.87c-0.888,-0 -1.875,-0.704 -2.188,-1.563l-0,-0.001Z" style="fill:#178eb3;fill-rule:nonzero;"/></g></g></svg>