<?xml version="1.0" encoding="UTF-8" standalone="no"?><!DOCTYPE svg PUBLIC "-//W3C//DTD SVG 1.1//EN" "http://www.w3.org/Graphics/SVG/1.1/DTD/svg11.dtd"><svg width="100%" height="100%" viewBox="0 0 92 94" version="1.1" xmlns="http://www.w3.org/2000/svg" xmlns:xlink="http://www.w3.org/1999/xlink" xml:space="preserve" xmlns:serif="http://www.serif.com/" style="fill-rule:evenodd;clip-rule:evenodd;stroke-linejoin:round;stroke-miterlimit:2;"><g><g><path d="M33.835,87.487c-3.238,-3.289 -5.888,-6.447 -5.888,-7.017c-0,-0.57 2.6,-0.648 5.763,-0.171l5.776,0.864l-0.475,-9.391c-0.263,-5.164 -0.85,-9.764 -1.313,-10.221c-0.45,-0.457 -3.663,-0.223 -7.138,0.521c-4.238,0.911 -7.364,0.949 -9.564,0.115c-6.601,-2.512 -2.288,-4.297 18.703,-7.745c18.94,-3.108 21.341,-3.266 25.216,-1.647c8.939,3.735 2.926,6.917 -13.077,6.92l-5.763,0.002l-0,14.811c-0,14.778 -1.076,18.941 -4.889,18.941c-0.8,0 -4.113,-2.691 -7.351,-5.982Zm-20.253,-5.228c-0.963,-3.033 6.501,-14.419 9.451,-14.419c2.526,0 1.676,9.076 -1.225,13.127c-2.925,4.091 -7.126,4.75 -8.226,1.292Zm46.445,-5.751c-8.764,-10.647 -7.876,-12.893 2.925,-7.42c6.614,3.353 9.139,6.62 8.514,11.006c-0.762,5.393 -5.188,4.008 -11.439,-3.586Zm-59.56,-17.732c0,-0.516 3.426,-3.75 7.602,-7.188c7.501,-6.174 16.165,-15.561 20.415,-22.13l2.176,-3.377l-4.501,0.732c-3.313,0.538 -5.151,0.147 -6.951,-1.479c-1.338,-1.216 -2.188,-2.632 -1.863,-3.146c0.313,-0.515 4.226,-1.326 8.689,-1.804c8.039,-0.861 8.126,-0.911 9.389,-5.461c0.7,-2.526 1.275,-6.67 1.275,-9.208c0.013,-5.735 1.388,-6.656 6.226,-4.155c4.338,2.246 4.613,3.83 1.688,9.963c-1.15,2.421 -1.813,4.688 -1.463,5.038c0.35,0.35 5.251,-0.289 10.889,-1.419c7.914,-1.588 10.952,-1.735 13.34,-0.648c5.501,2.51 3.788,4.955 -4.101,5.839c-11.564,1.295 -11.651,1.45 -4.688,7.744c8.076,7.301 17.165,13.09 25.004,15.941c11.877,4.317 10.402,6.893 -3.975,6.925l-8.977,0.018l-7.951,-9.112c-4.376,-5.014 -9.539,-11.202 -11.49,-13.752c-5.963,-7.827 -11.176,-6.284 -16.84,4.987c-3.588,7.143 -14.34,17.896 -22.666,22.669c-6.563,3.766 -11.252,5.026 -11.227,3.022l0,0.001Zm30.318,-11.196c-4.526,-0.87 -3.338,-3.916 1.875,-4.816c2.575,-0.445 7.701,-1.655 11.402,-2.689c5.063,-1.417 7.439,-1.546 9.689,-0.523c4.076,1.859 3.725,3.478 -1.088,4.997c-3.713,1.17 -18.79,4.143 -18.99,3.743c-0.038,-0.094 -1.351,-0.415 -2.888,-0.712Z" style="fill:#004459;fill-rule:nonzero;"/><path d="M0.33,58.698c-0,-0.515 3.425,-3.751 7.614,-7.189c7.501,-6.172 16.165,-15.561 20.403,-22.13l2.188,-3.375l-4.514,0.731c-3.313,0.538 -5.15,0.146 -6.938,-1.479c-1.35,-1.216 -2.188,-2.632 -1.875,-3.147c0.325,-0.515 4.238,-1.326 8.688,-1.804c8.039,-0.861 8.127,-0.91 9.389,-5.461c0.701,-2.525 1.276,-6.668 1.288,-9.206c0.013,-5.737 1.388,-6.657 6.214,-4.157c4.35,2.247 4.613,3.831 1.7,9.963c-1.163,2.422 -1.813,4.689 -1.463,5.038c0.338,0.35 5.239,-0.289 10.877,-1.419c7.914,-1.588 10.952,-1.735 13.34,-0.647c5.063,2.306 3.813,4.833 -2.851,5.722c-11.514,1.538 -22.203,3.493 -24.066,4.4c-1.025,0.507 -3.463,3.852 -5.414,7.438c-4.625,8.501 -14.739,18.764 -23.353,23.7c-6.564,3.764 -11.24,5.024 -11.227,3.022Z" style="fill:#178eb3;fill-rule:nonzero;"/></g></g></svg>