<?xml version="1.0" encoding="UTF-8" standalone="no"?><!DOCTYPE svg PUBLIC "-//W3C//DTD SVG 1.1//EN" "http://www.w3.org/Graphics/SVG/1.1/DTD/svg11.dtd"><svg width="100%" height="100%" viewBox="0 0 80 51" version="1.1" xmlns="http://www.w3.org/2000/svg" xmlns:xlink="http://www.w3.org/1999/xlink" xml:space="preserve" xmlns:serif="http://www.serif.com/" style="fill-rule:evenodd;clip-rule:evenodd;stroke-linejoin:round;stroke-miterlimit:2;"><g><path d="M53.84,0.993c-2.25,-0.267 -4.7,0.061 -6.64,1.064c-1.94,1.003 -8.03,2.522 -13.53,3.377c-5.51,0.856 -11.69,1.971 -13.76,2.477l-3.75,0.92l3.13,1.394c3.36,1.498 6.07,1.319 26.15,-1.724c14.65,-2.22 15.8,-2.638 13.83,-5.014c-1.14,-1.368 -3.18,-2.228 -5.43,-2.494Zm11.16,35.536c-2.81,0.737 -13.82,2.491 -24.48,3.897c-10.66,1.406 -24.14,3.267 -29.96,4.135c-10.48,1.562 -10.55,1.597 -7.54,3.709c3.77,2.637 3.36,2.643 16.93,-0.28c16.29,-3.509 34.6,-5.401 47.42,-4.902c9.94,0.387 11.28,0.183 11.66,-1.775c0.71,-3.622 -7.62,-6.465 -14.03,-4.783l0,-0.001Z" style="fill-rule:nonzero;"/></g></svg>