<?xml version="1.0" encoding="UTF-8" standalone="no"?><!DOCTYPE svg PUBLIC "-//W3C//DTD SVG 1.1//EN" "http://www.w3.org/Graphics/SVG/1.1/DTD/svg11.dtd"><svg width="100%" height="100%" viewBox="0 0 93 80" version="1.1" xmlns="http://www.w3.org/2000/svg" xmlns:xlink="http://www.w3.org/1999/xlink" xml:space="preserve" xmlns:serif="http://www.serif.com/" style="fill-rule:evenodd;clip-rule:evenodd;stroke-linejoin:round;stroke-miterlimit:2;"><g><g><path d="M6.985,77.844c-0.375,-0.618 1.975,-2.837 5.238,-4.931c3.263,-2.095 7.802,-5.732 10.077,-8.084l4.151,-4.274l-4.464,-2.629c-4.775,-2.823 -5.575,-5.852 -3.175,-12.161c1.413,-3.708 1.1,-3.727 -7.151,-0.414c-3.288,1.326 -4.551,1.307 -7.176,-0.103c-6.151,-3.29 -4.076,-5.664 6.251,-7.152c5.188,-0.747 9.726,-1.642 10.064,-1.987c0.35,-0.347 1.262,-6.056 2.05,-12.687c1.113,-9.573 1.075,-12.985 -0.212,-16.543c-2.476,-6.824 1.612,-8.243 8.588,-2.981l3.051,2.311l-3.276,14.182c-1.8,7.8 -3.163,14.282 -3.038,14.405c0.113,0.122 2.188,-0.184 4.589,-0.681c3.938,-0.816 4.363,-1.311 4.363,-5.103c-0,-5.243 1.538,-5.824 5.938,-2.235l3.426,2.807l-4.476,11.877c-6.288,16.709 -6.276,16.52 -1.825,19.006c3.138,1.751 3.813,2.921 3.813,6.564c-0,5.372 -2.013,5.735 -7.276,1.309c-4.576,-3.858 -5.689,-3.892 -8.076,-0.245c-2.001,3.05 -15.54,10.872 -18.816,10.872c-1.063,-0 -2.25,-0.507 -2.638,-1.124l0,0.001Zm25.467,-29.553c3.625,-9.692 3.475,-10.662 -1.388,-9.266c-4.601,1.318 -5.526,2.514 -6.664,8.547c-0.637,3.414 -0.325,4.759 1.401,6.019c3.4,2.493 3.875,2.123 6.651,-5.3Zm9.464,26.179c2.062,-1.743 6.426,-5.414 9.689,-8.157c3.263,-2.744 5.938,-5.694 5.938,-6.556c0,-0.862 -2.525,-4.534 -5.626,-8.16c-3.088,-3.624 -5.626,-7.107 -5.626,-7.738c0,-2.788 4.526,-0.699 9.702,4.478c3.1,3.094 5.763,5.626 5.926,5.626c1.15,-0 7.414,-21.127 6.526,-22.021c-0.288,-0.284 -2.551,0.335 -5.038,1.376c-5.764,2.406 -11.377,2.419 -13.353,0.031c-1.812,-2.184 -2.45,-1.865 12.315,-6.101c11.577,-3.319 17.203,-2.92 16.853,1.197c-0.263,3.085 -6.026,18.222 -9.789,25.73l-2.938,5.839l4.588,3.126c2.525,1.721 8.389,4.98 13.027,7.244c4.638,2.265 8.439,4.631 8.439,5.257c-0,0.64 -4.738,0.89 -10.839,0.57c-10.765,-0.565 -10.865,-0.601 -14.853,-5.351l-4.013,-4.78l-3.588,2.531c-5.513,3.89 -16.365,9.109 -18.866,9.065c-1.75,-0.031 -1.425,-0.715 1.526,-3.208l-0,0.002Z" style="fill:#004459;fill-rule:nonzero;"/><path d="M41.791,74.391c2.062,-1.743 6.426,-5.412 9.689,-8.156c3.263,-2.743 5.938,-5.694 5.938,-6.556c0,-0.863 -2.525,-4.535 -5.626,-8.159c-3.088,-3.626 -5.626,-7.108 -5.626,-7.74c0,-2.788 4.526,-0.698 9.714,4.478c3.088,3.094 5.751,5.626 5.914,5.626c1.15,-0 7.414,-21.127 6.526,-22.021c-0.288,-0.284 -2.551,0.336 -5.038,1.376c-5.764,2.406 -11.365,2.42 -13.353,0.032c-1.812,-2.183 -2.45,-1.866 12.327,-6.101c11.577,-3.32 17.191,-2.921 16.841,1.196c-0.263,3.087 -6.026,18.222 -9.789,25.73l-2.938,5.84l4.588,3.126c2.525,1.72 8.389,4.979 13.027,7.245c4.638,2.264 8.439,4.629 8.439,5.255c-0,0.642 -4.739,0.891 -10.839,0.57c-10.765,-0.565 -10.865,-0.6 -14.853,-5.35l-4.013,-4.781l-3.588,2.533c-5.513,3.889 -16.365,9.109 -18.866,9.064c-1.75,-0.032 -1.425,-0.715 1.526,-3.207Z" style="fill:#178eb3;fill-rule:nonzero;"/></g></g></svg>