<?xml version="1.0" encoding="UTF-8" standalone="no"?><!DOCTYPE svg PUBLIC "-//W3C//DTD SVG 1.1//EN" "http://www.w3.org/Graphics/SVG/1.1/DTD/svg11.dtd"><svg width="100%" height="100%" viewBox="0 0 59 71" version="1.1" xmlns="http://www.w3.org/2000/svg" xmlns:xlink="http://www.w3.org/1999/xlink" xml:space="preserve" xmlns:serif="http://www.serif.com/" style="fill-rule:evenodd;clip-rule:evenodd;stroke-linejoin:round;stroke-miterlimit:2;"><g><path d="M48.11,1.522c-1.84,0.081 -4.37,0.795 -9.27,2.215c-5.5,1.594 -14.69,3.862 -20.41,5.041c-10.46,2.152 -11.71,3.278 -6.04,5.435c2.33,0.887 6.67,0.096 18.16,-3.306c10.32,-3.058 15.49,-4.064 16.37,-3.186c1.32,1.314 -6.38,16.155 -12.01,23.154l-2.69,3.36l-9.1,-3.108c-10.46,-3.571 -10.69,-2.802 -0.94,3.112c3.8,2.303 6.91,4.49 6.91,4.861c-0.02,1.507 -16.12,19.082 -22.89,24.98c-3.99,3.478 -6.45,6.324 -5.45,6.324c2.63,0 16.41,-10.412 26.01,-19.654l8.29,-7.984l7.96,8.806c8.19,9.068 11.09,10.706 11.09,6.289c-0,-4.797 -3.42,-10.705 -9.07,-15.678l-5.66,-4.978l7.38,-11.844c4.05,-6.514 8.53,-13.092 9.95,-14.619c3.06,-3.29 2.47,-4.61 -3.43,-7.639c-2.17,-1.11 -3.32,-1.663 -5.16,-1.582l0,0.001Z" style="fill-rule:nonzero;"/></g></svg>