<?xml version="1.0" encoding="UTF-8" standalone="no"?><!DOCTYPE svg PUBLIC "-//W3C//DTD SVG 1.1//EN" "http://www.w3.org/Graphics/SVG/1.1/DTD/svg11.dtd"><svg width="100%" height="100%" viewBox="0 0 70 87" version="1.1" xmlns="http://www.w3.org/2000/svg" xmlns:xlink="http://www.w3.org/1999/xlink" xml:space="preserve" xmlns:serif="http://www.serif.com/" style="fill-rule:evenodd;clip-rule:evenodd;stroke-linejoin:round;stroke-miterlimit:2;"><g><path d="M23.14,0.922c-0.97,0.974 3.12,5.391 8.95,9.655c2.68,1.962 5.63,3.566 6.56,3.566c2.63,0 1.99,-4.543 -1.12,-7.881c-2.75,-2.944 -12.98,-6.745 -14.39,-5.34Zm25.98,14.897c-1.88,0.164 -4.69,0.971 -9.96,2.553c-6.11,1.833 -16.05,4.355 -22.09,5.603l-10.98,2.27l3.51,2.304c3.5,2.289 3.62,2.273 17.86,-2.414c7.89,-2.596 14.71,-4.356 15.15,-3.91c1.34,1.341 -22.22,23.226 -34.2,31.764c-14.88,10.607 -5.8,7.914 12.71,-3.771c4.2,-2.651 8,-4.819 8.44,-4.819c1.2,0 0.96,10.519 -0.52,22.566c-0.9,7.333 -0.9,11.748 -0.02,14.064c1.45,3.822 4.41,4.454 5.66,1.209c0.45,-1.191 0.72,-11.309 0.59,-22.484l-0.24,-20.32l10.69,-9.707c5.87,-5.339 10.73,-10.117 10.79,-10.617c0.06,-0.5 -1.32,-1.845 -3.07,-2.99c-1.51,-0.988 -2.44,-1.465 -4.32,-1.301Zm-4.54,27.337c-0.91,0.202 2.46,3.596 7.49,7.543c5.03,3.947 10.18,8.32 11.44,9.719c2.77,3.062 4.84,2.646 5.39,-1.086c0.6,-4.057 -6.6,-10.546 -15.29,-13.789c-4.06,-1.515 -8.12,-2.588 -9.03,-2.386l-0,-0.001Z" style="fill-rule:nonzero;"/></g></svg>