<?xml version="1.0" encoding="UTF-8" standalone="no"?><!DOCTYPE svg PUBLIC "-//W3C//DTD SVG 1.1//EN" "http://www.w3.org/Graphics/SVG/1.1/DTD/svg11.dtd"><svg width="100%" height="100%" viewBox="0 0 88 88" version="1.1" xmlns="http://www.w3.org/2000/svg" xmlns:xlink="http://www.w3.org/1999/xlink" xml:space="preserve" xmlns:serif="http://www.serif.com/" style="fill-rule:evenodd;clip-rule:evenodd;stroke-linejoin:round;stroke-miterlimit:2;"><g><g><path d="M52.325,80.197c-3.376,-3.713 -5.814,-7.07 -5.426,-7.457c0.387,-0.389 2.838,-0.118 5.438,0.601c2.613,0.719 5.051,0.992 5.439,0.607c1.487,-1.499 0.612,-27.38 -1.026,-30.308c-2.512,-4.505 -0.025,-6.062 4.989,-3.128l4.088,2.381l-0.35,19.209c-0.488,27.427 -2.35,29.98 -13.152,18.097l-0,-0.002Zm-30.193,0.619c-1.65,-3.204 -1.775,-4.868 -0.65,-9.305c0.75,-2.972 1.363,-8.868 1.363,-13.101l0,-7.697l-7.126,6.507c-8.626,7.882 -12.315,10.393 -14.315,9.729c-0.85,-0.286 2.013,-4.327 6.639,-9.372c11.514,-12.539 21.641,-28.068 17.202,-26.37c-0.975,0.375 -4.975,1.688 -8.876,2.918c-6.676,2.103 -7.301,2.11 -10.314,0.133c-1.775,-1.158 -3.213,-2.531 -3.213,-3.051c-0,-0.519 3.788,-1.548 8.439,-2.284c4.638,-0.738 11.164,-2.592 14.515,-4.122c5.2,-2.379 6.601,-2.565 9.689,-1.285c4.475,1.856 4.6,4.837 0.35,8.789c-1.788,1.666 -4.851,5.334 -6.801,8.15c-3.263,4.702 -3.376,5.282 -1.538,7.128c1.65,1.653 1.963,4.594 1.725,16.586c-0.4,19.861 -2.663,25.189 -7.089,16.648l0,-0.001Zm16.541,-11.934c-1.751,-1.754 -0.651,-6.266 2.938,-11.981c2.062,-3.267 4.3,-5.938 4.988,-5.938c1.888,-0 1.488,9.66 -0.588,13.662c-1,1.945 -2.738,3.887 -3.85,4.313c-2.501,0.959 -2.476,0.96 -3.488,-0.056Zm37.993,-7.605c-5.726,-7.75 -7.826,-12.815 -5.313,-12.815c1.513,0 11.914,6.818 13.502,8.85c3.526,4.5 2.963,12.404 -0.888,12.404c-0.587,-0 -3.875,-3.798 -7.301,-8.439Zm-43.594,-11.958c-2.451,-2.601 -3.751,-7.108 -2.063,-7.108c0.375,0 2.625,0.815 5.001,1.812c3.35,1.395 4.338,2.543 4.338,5.001c-0,4.119 -3.551,4.263 -7.276,0.295Zm7.288,-8.137c0,-0.565 1.701,-4.18 3.788,-8.033c5.451,-10.053 9.865,-23.44 9.077,-27.506c-0.563,-2.903 -0.238,-3.438 2.075,-3.438c4.288,-0 7.564,2.334 7.564,5.398c-0,1.546 -2.025,6.613 -4.488,11.26l-4.488,8.45l3.55,-0.788c1.95,-0.433 7.089,-1.918 11.427,-3.3c8.526,-2.721 12.802,-2.047 17.09,2.699c1.9,2.1 1.563,2.549 -5.526,7.387c-4.15,2.832 -8.089,5.15 -8.751,5.15c-0.688,-0 -0.438,-2.164 0.562,-5.001c2.151,-6.101 1.851,-6.161 -11.801,-2.383c-6.902,1.91 -10.652,3.767 -13.89,6.876c-4.413,4.248 -6.189,5.176 -6.189,3.231l0,-0.002Zm-12.439,-32.164c-3.451,-3.226 -5.939,-6.423 -5.514,-7.103c1.026,-1.657 8.714,-0.315 12.527,2.185c2.363,1.548 2.976,2.902 2.676,5.9c-0.213,2.139 -1.063,4.114 -1.9,4.388c-0.838,0.275 -4.351,-2.142 -7.789,-5.37Z" style="fill:#004459;fill-rule:nonzero;"/><path d="M22.007,80.737c-1.65,-3.204 -1.775,-4.868 -0.65,-9.305c0.738,-2.972 1.351,-8.866 1.351,-13.101l-0,-7.697l-7.114,6.507c-8.626,7.883 -12.315,10.393 -14.315,9.729c-0.85,-0.286 2.013,-4.327 6.639,-9.371c11.502,-12.54 21.641,-28.069 17.202,-26.371c-0.975,0.375 -4.975,1.688 -8.888,2.918c-6.677,2.103 -7.289,2.112 -10.315,0.133c-1.762,-1.158 -3.213,-2.531 -3.213,-3.049c0,-0.521 3.801,-1.548 8.439,-2.286c4.651,-0.736 11.177,-2.592 14.528,-4.122c5.188,-2.379 6.588,-2.565 9.689,-1.285c4.475,1.857 4.6,4.838 0.35,8.789c-1.801,1.666 -4.851,5.335 -6.801,8.15c-3.263,4.702 -3.389,5.282 -1.538,7.129c1.65,1.652 1.963,4.593 1.713,16.585c-0.388,19.862 -2.663,25.189 -7.077,16.649l0,-0.002Zm10.927,-31.496c-2.438,-2.601 -3.738,-7.108 -2.05,-7.108c0.362,-0 2.613,0.815 5.001,1.811c3.338,1.397 4.338,2.543 4.338,5.001c-0,4.119 -3.563,4.264 -7.289,0.296Zm-5.151,-40.3c-3.45,-3.228 -5.926,-6.425 -5.501,-7.104c1.013,-1.656 8.702,-0.316 12.527,2.184c2.363,1.549 2.976,2.903 2.676,5.9c-0.213,2.139 -1.075,4.115 -1.9,4.388c-0.838,0.275 -4.351,-2.141 -7.802,-5.368Z" style="fill:#178eb3;fill-rule:nonzero;"/></g></g></svg>