<?xml version="1.0" encoding="UTF-8" standalone="no"?><!DOCTYPE svg PUBLIC "-//W3C//DTD SVG 1.1//EN" "http://www.w3.org/Graphics/SVG/1.1/DTD/svg11.dtd"><svg width="100%" height="100%" viewBox="0 0 82 82" version="1.1" xmlns="http://www.w3.org/2000/svg" xmlns:xlink="http://www.w3.org/1999/xlink" xml:space="preserve" xmlns:serif="http://www.serif.com/" style="fill-rule:evenodd;clip-rule:evenodd;stroke-linejoin:round;stroke-miterlimit:2;"><g><g><path d="M50.284,74.559c-2.612,-3.8 -4.5,-7.166 -4.188,-7.48c0.313,-0.314 2.501,-0.018 4.864,0.659c2.35,0.675 5.188,1.229 6.301,1.229c2.938,-0 9.464,-14.071 11.026,-23.732c1.738,-10.824 0.425,-12.357 -8.776,-10.232c-9.477,2.186 -12.577,-1.032 -7.364,-7.645c2.401,-3.067 11.24,-18.105 11.24,-19.146c-0,-1.025 -4.614,-0.483 -13.428,1.58c-8.726,2.039 -8.976,2.204 -6.938,4.455c2.625,2.904 1.825,5.273 -7.239,21.646c-9.726,17.566 -25.041,33.074 -32.655,33.074c-3.701,-0 -2.625,-1.879 4.638,-8.084c8.852,-7.561 17.128,-19.211 22.566,-31.746c5.189,-11.984 5.576,-15.832 1.488,-14.677c-10.139,2.862 -14.852,3.419 -16.615,1.958c-3.426,-2.845 -2.013,-4.78 4.113,-5.638c8.964,-1.254 27.317,-5.312 37.569,-8.308c8.663,-2.534 9.351,-2.564 13.477,-0.595c5.463,2.608 6.663,5.42 3.3,7.773c-3.063,2.151 -14.027,17.279 -14.027,19.365c-0,1.065 1.9,1.245 6.764,0.637c6.313,-0.788 7.063,-0.593 10.926,2.866c4.026,3.598 4.088,3.788 1.926,6.18c-1.226,1.357 -3.876,8.723 -5.876,16.368c-2.013,7.645 -4.214,14.948 -4.901,16.229c-1.7,3.189 -9.814,10.172 -11.802,10.172c-0.888,0 -3.763,-3.109 -6.389,-6.908Z" style="fill:#004459;fill-rule:nonzero;"/><path d="M0.752,67.79c-0,-0.605 3.1,-3.748 6.888,-6.986c13.052,-11.147 26.867,-35.218 26.867,-46.8c-0,-2.819 0.55,-5.126 1.238,-5.126c0.675,0 3.063,1.643 5.313,3.65c3.838,3.436 3.988,3.878 2.575,7.632c-3.263,8.634 -14.764,27.695 -20.815,34.484c-3.513,3.94 -8.902,8.756 -11.965,10.703c-5.501,3.486 -10.101,4.599 -10.101,2.443Z" style="fill:#178eb3;fill-rule:nonzero;"/></g></g></svg>