<?xml version="1.0" encoding="UTF-8" standalone="no"?><!DOCTYPE svg PUBLIC "-//W3C//DTD SVG 1.1//EN" "http://www.w3.org/Graphics/SVG/1.1/DTD/svg11.dtd"><svg width="100%" height="100%" viewBox="0 0 99 63" version="1.1" xmlns="http://www.w3.org/2000/svg" xmlns:xlink="http://www.w3.org/1999/xlink" xml:space="preserve" xmlns:serif="http://www.serif.com/" style="fill-rule:evenodd;clip-rule:evenodd;stroke-linejoin:round;stroke-miterlimit:2;"><g><g><path d="M5.943,55.96c10.427,-15.006 16.99,-31.332 14.49,-36.019c-0.788,-1.469 -1.163,-2.938 -0.838,-3.263c1.088,-1.092 9.639,3.169 10.415,5.19c1.637,4.286 -8.402,21.904 -18.691,32.783c-9.314,9.853 -11.727,10.439 -5.376,1.31l0,-0.001Zm67.361,3.151c-2.063,-0.399 -5.113,-4.679 -11.702,-16.395c-16.065,-28.575 -22.403,-37.735 -26.092,-37.735c-1.237,-0 -2.95,-0.844 -3.8,-1.876c-1.338,-1.614 -0.863,-1.875 3.413,-1.875c4.926,0 5.113,0.176 16.565,15.663c12.877,17.42 27.017,31.368 38.956,38.427l7.889,4.67l-11.227,-0.17c-6.163,-0.094 -12.477,-0.413 -14.002,-0.709Z" style="fill:#004459;fill-rule:nonzero;"/><path d="M5.806,55.881c10.439,-15.006 17.002,-31.332 14.49,-36.019c-0.788,-1.47 -1.163,-2.939 -0.838,-3.264c1.088,-1.092 9.639,3.17 10.414,5.192c1.65,4.284 -8.401,21.903 -18.69,32.782c-9.314,9.853 -11.715,10.438 -5.376,1.309Zm67.36,3.15c-2.062,-0.398 -5.113,-4.679 -11.701,-16.395c-16.065,-28.575 -22.404,-37.735 -26.092,-37.735c-1.238,-0 -2.938,-0.844 -3.801,-1.876c-1.337,-1.614 -0.862,-1.875 3.426,-1.875c4.913,0 5.101,0.176 16.553,15.663c12.889,17.42 27.029,31.368 38.956,38.427l7.901,4.67l-11.227,-0.17c-6.176,-0.094 -12.477,-0.413 -14.015,-0.709Z" style="fill:#178eb3;fill-rule:nonzero;"/></g></g></svg>