<?xml version="1.0" encoding="UTF-8" standalone="no"?><!DOCTYPE svg PUBLIC "-//W3C//DTD SVG 1.1//EN" "http://www.w3.org/Graphics/SVG/1.1/DTD/svg11.dtd"><svg width="100%" height="100%" viewBox="0 0 84 40" version="1.1" xmlns="http://www.w3.org/2000/svg" xmlns:xlink="http://www.w3.org/1999/xlink" xml:space="preserve" xmlns:serif="http://www.serif.com/" style="fill-rule:evenodd;clip-rule:evenodd;stroke-linejoin:round;stroke-miterlimit:2;"><g><path d="M22.88,1.63c-1.77,0.03 -2.85,0.57 -2,1.6c2.66,3.22 -7.18,21.89 -15.97,30.31c-2.07,1.98 -3.76,4.08 -3.76,4.66c0,3.33 18.63,-13.31 26.82,-23.95c5.64,-7.33 5.77,-8.67 1.08,-11.14c-1.93,-1.02 -4.4,-1.5 -6.17,-1.48Zm32.08,0.04c-0.83,-0 0.58,2.39 3.11,5.31c2.54,2.92 8.54,9.99 13.34,15.7c4.8,5.7 9.39,10.16 10.18,9.9c4.31,-1.42 0.24,-13.02 -6.58,-18.76c-4.93,-4.14 -18.14,-12.15 -20.05,-12.15Z" style="fill-rule:nonzero;"/></g></svg>