<?xml version="1.0" encoding="UTF-8" standalone="no"?><!DOCTYPE svg PUBLIC "-//W3C//DTD SVG 1.1//EN" "http://www.w3.org/Graphics/SVG/1.1/DTD/svg11.dtd"><svg width="100%" height="100%" viewBox="0 0 84 76" version="1.1" xmlns="http://www.w3.org/2000/svg" xmlns:xlink="http://www.w3.org/1999/xlink" xml:space="preserve" xmlns:serif="http://www.serif.com/" style="fill-rule:evenodd;clip-rule:evenodd;stroke-linejoin:round;stroke-miterlimit:2;"><g><g><path d="M1.764,72.111c-1.2,-2.648 -0.9,-4.164 1.975,-9.854c5.626,-11.124 7.389,-30.55 3.726,-41.276c-2.4,-7.07 -1.388,-8.534 4.526,-6.543l4.375,1.471l-0.3,8.906l-0.312,8.905l7.301,-1.954c7.651,-2.05 11.439,-1.575 11.439,1.429c0,1.62 -3.15,2.663 -15.777,5.221c-3.001,0.607 -4.213,4.783 -4.213,14.455l-0,6.071l7.913,-4.352c4.351,-2.394 8.289,-4.353 8.752,-4.353c2.075,-0 0.475,2.951 -3.226,5.992c-2.238,1.831 -7.776,6.858 -12.289,11.17c-4.526,4.313 -9.189,7.842 -10.352,7.842c-1.162,-0 -2.75,-1.408 -3.538,-3.13Zm47.858,0.245c-2.338,-0.82 -5.439,-3.078 -6.876,-5.017c-2.426,-3.26 -2.663,-5.611 -3.251,-31.255c-0.487,-21.748 -1.025,-28.344 -2.5,-30.581c-1.563,-2.381 -1.588,-3.025 -0.175,-3.909c2.3,-1.425 5.263,-0.52 9.576,2.926l3.601,2.868l-1.5,8.129c-0.826,4.47 -1.501,9.912 -1.501,12.091c0,3.717 0.175,3.871 2.813,2.474c5.014,-2.647 13.44,-10.103 13.44,-11.877c-0,-2.749 4.313,-1.999 7.401,1.289c4.663,4.962 3.088,6.735 -11.152,12.557l-13.127,5.37l-0.35,10.556c-0.312,9.172 -0.012,10.998 2.276,13.909c2.4,3.047 3.413,3.352 11.101,3.352c9.989,-0 11.627,-1.253 14.565,-11.123c1.063,-3.597 2.538,-6.339 3.288,-6.093c1.65,0.554 6.464,19.229 5.551,21.594c-1.563,4.069 -24.079,5.93 -33.18,2.74Z" style="fill:#004459;fill-rule:nonzero;"/><path d="M49.484,72.278c-2.338,-0.822 -5.438,-3.08 -6.876,-5.019c-2.413,-3.259 -2.663,-5.611 -3.238,-31.255c-0.487,-21.748 -1.038,-28.344 -2.5,-30.581c-1.563,-2.382 -1.601,-3.025 -0.175,-3.909c2.288,-1.425 5.251,-0.519 9.576,2.926l3.601,2.868l-1.5,8.129c-0.826,4.471 -1.501,9.912 -1.501,12.091c0,3.718 0.175,3.871 2.813,2.475c5.001,-2.648 13.44,-10.104 13.44,-11.878c-0,-2.749 4.301,-1.998 7.389,1.29c4.663,4.961 3.088,6.734 -11.14,12.557l-13.127,5.369l-0.362,10.558c-0.313,9.17 -0.013,10.996 2.288,13.908c2.387,3.046 3.4,3.352 11.101,3.352c9.977,-0 11.627,-1.254 14.553,-11.124c1.075,-3.597 2.55,-6.338 3.288,-6.091c1.662,0.552 6.463,19.228 5.563,21.593c-1.563,4.07 -24.091,5.929 -33.193,2.739l0,0.002Z" style="fill:#178eb3;fill-rule:nonzero;"/></g></g></svg>