<?xml version="1.0" encoding="UTF-8" standalone="no"?><!DOCTYPE svg PUBLIC "-//W3C//DTD SVG 1.1//EN" "http://www.w3.org/Graphics/SVG/1.1/DTD/svg11.dtd"><svg width="100%" height="100%" viewBox="0 0 57 70" version="1.1" xmlns="http://www.w3.org/2000/svg" xmlns:xlink="http://www.w3.org/1999/xlink" xml:space="preserve" xmlns:serif="http://www.serif.com/" style="fill-rule:evenodd;clip-rule:evenodd;stroke-linejoin:round;stroke-miterlimit:2;"><g><path d="M1.54,1.155c-0.63,0.127 -1.01,0.433 -0.99,0.949c0.03,0.516 0.87,2.028 1.88,3.363c1.46,1.931 1.84,7.173 1.84,25.633c-0,12.76 0.57,25.23 1.26,27.7c1.57,5.66 4.94,8.75 10.93,10.01c5.27,1.11 33.17,0.51 37.5,-0.81c3.85,-1.18 3.54,-4.1 -0.62,-5.74c-2.51,-0.98 -4.96,-0.95 -9.07,0.13c-3.09,0.82 -10.75,1.8 -17.02,2.19c-10.53,0.64 -11.59,0.49 -14.11,-2.02c-2.47,-2.48 -2.68,-3.81 -2.36,-14.7l0.36,-11.98l17.33,-4.24c19.64,-4.81 20.21,-5.04 18.28,-7.38c-2.69,-3.23 -8.32,-3.47 -12.32,-0.51c-2.91,2.15 -22.61,9.06 -23.49,8.23c-0.1,-0.1 0.27,-5.81 0.84,-12.686c1.01,-12.309 0.98,-12.545 -2.07,-15.314c-2.17,-1.98 -6.29,-3.206 -8.17,-2.824l-0,-0.001Z" style="fill-rule:nonzero;"/></g></svg>