<?xml version="1.0" encoding="UTF-8" standalone="no"?><!DOCTYPE svg PUBLIC "-//W3C//DTD SVG 1.1//EN" "http://www.w3.org/Graphics/SVG/1.1/DTD/svg11.dtd"><svg width="100%" height="100%" viewBox="0 0 80 78" version="1.1" xmlns="http://www.w3.org/2000/svg" xmlns:xlink="http://www.w3.org/1999/xlink" xml:space="preserve" xmlns:serif="http://www.serif.com/" style="fill-rule:evenodd;clip-rule:evenodd;stroke-linejoin:round;stroke-miterlimit:2;"><g><g><path d="M36.941,75.742c-1.888,-2.272 -1.95,-5.358 -0.55,-25.505l1,-14.378l-6.713,6.59c-9.939,9.773 -29.893,21.016 -29.893,16.845c0,-0.667 4.089,-4.244 9.064,-7.949c4.989,-3.704 12.702,-10.177 17.153,-14.384c7.376,-6.993 8.051,-8.049 7.764,-12.289c-0.275,-4.115 -0.038,-4.549 2.163,-3.851c2.638,0.835 5.263,-2.157 7.001,-7.968c0.9,-2.978 0.85,-2.997 -6.189,-2.27c-3.9,0.402 -10.939,1.721 -15.627,2.929c-8.064,2.078 -8.714,2.08 -11.802,0.054c-4.638,-3.035 -4.251,-5.833 0.788,-5.853c2.237,-0.008 13.914,-1.47 25.941,-3.245c34.231,-5.051 33.793,-5.036 37.894,-1.234c5.226,4.851 3.363,6.156 -7.364,5.152c-11.502,-1.079 -14.115,-0.362 -13.34,3.671c0.425,2.243 -0.925,4.872 -5.275,10.201l-5.839,7.18l0.375,21.339c0.2,11.737 -0.075,22.603 -0.625,24.151c-1.163,3.297 -3.588,3.631 -5.926,0.814Zm30.593,-25.633c-4.739,-4.244 -10.44,-9.343 -12.677,-11.327c-8.177,-7.265 -3.914,-8.08 8.401,-1.608c11.414,6 16.528,11.1 16.04,15.989c-0.2,2.067 -1,3.961 -1.763,4.211c-0.762,0.25 -5.263,-3.019 -10.001,-7.265Z" style="fill:#004459;fill-rule:nonzero;"/><path d="M0.66,59.215c0,-0.667 3.926,-4.128 8.714,-7.688c4.789,-3.562 11.877,-9.379 15.765,-12.929c7.026,-6.427 16.915,-20.11 18.653,-25.824c0.913,-2.979 0.863,-2.996 -6.176,-2.27c-3.913,0.403 -10.939,1.72 -15.627,2.929c-8.064,2.077 -8.714,2.08 -11.802,0.054c-4.638,-3.036 -4.251,-5.832 0.787,-5.854c2.238,-0.008 13.915,-1.469 25.942,-3.244c34.231,-5.051 33.793,-5.037 37.894,-1.235c5.226,4.851 3.363,6.157 -7.364,5.152c-11.502,-1.078 -14.115,-0.361 -13.34,3.671c0.425,2.238 -0.937,4.907 -5.275,10.286c-10.452,12.972 -24.579,26.455 -33.031,31.528c-8.626,5.182 -15.14,7.515 -15.14,5.424Z" style="fill:#178eb3;fill-rule:nonzero;"/></g></g></svg>