<?xml version="1.0" encoding="UTF-8" standalone="no"?><!DOCTYPE svg PUBLIC "-//W3C//DTD SVG 1.1//EN" "http://www.w3.org/Graphics/SVG/1.1/DTD/svg11.dtd"><svg width="100%" height="100%" viewBox="0 0 71 68" version="1.1" xmlns="http://www.w3.org/2000/svg" xmlns:xlink="http://www.w3.org/1999/xlink" xml:space="preserve" xmlns:serif="http://www.serif.com/" style="fill-rule:evenodd;clip-rule:evenodd;stroke-linejoin:round;stroke-miterlimit:2;"><g><path d="M63.97,1.02c-1.23,-0.391 -14.52,1.027 -29.53,3.15c-15,2.124 -28.55,3.545 -30.1,3.157c-3.57,-0.896 -3.6,1.006 -0.07,4.293c3.26,3.04 2.64,3 12.5,0.72c15.89,-3.683 40.09,-7.1 41.36,-5.836c1.56,1.562 -4.28,14.266 -12.28,26.706c-3.22,5 -11.37,14.57 -18.12,21.28c-6.75,6.7 -11.86,12.19 -11.35,12.19c1.69,0 11.97,-7.02 19.68,-13.45c8.85,-7.37 21.4,-23.47 26.93,-34.53c2.11,-4.21 4.7,-8.641 5.76,-9.844c1.74,-1.98 1.72,-2.423 -0.3,-4.657c-1.23,-1.357 -3.25,-2.788 -4.48,-3.179Z" style="fill-rule:nonzero;"/></g></svg>