<?xml version="1.0" encoding="UTF-8" standalone="no"?><!DOCTYPE svg PUBLIC "-//W3C//DTD SVG 1.1//EN" "http://www.w3.org/Graphics/SVG/1.1/DTD/svg11.dtd"><svg width="100%" height="100%" viewBox="0 0 88 94" version="1.1" xmlns="http://www.w3.org/2000/svg" xmlns:xlink="http://www.w3.org/1999/xlink" xml:space="preserve" xmlns:serif="http://www.serif.com/" style="fill-rule:evenodd;clip-rule:evenodd;stroke-linejoin:round;stroke-miterlimit:2;"><g><g><path d="M56.439,93.183c-0.463,-0.473 -0.85,-13.041 -0.85,-27.931l-0,-27.07l-9.064,1.655c-4.988,0.91 -15.678,3.167 -23.766,5.016c-15.278,3.494 -21.091,3.25 -21.891,-0.919c-0.288,-1.49 3,-2.378 16.115,-4.35l16.49,-2.477l1.587,-4.615c3.614,-10.488 3.689,-10.388 -8.113,-10.388c-7.114,0 -10.677,-0.49 -11.027,-1.516c-0.288,-0.834 0.788,-1.788 2.388,-2.118c16.027,-3.323 25.929,-4.798 27.667,-4.128c2.913,1.115 2.663,4.637 -0.313,4.637c-3.263,-0 -4.225,1.864 -1.938,3.762c2.576,2.137 2.351,3.48 -1.375,8.366l-3.238,4.238l6.351,-0.841c4.576,-0.607 6.939,-0.363 8.414,0.87c1.888,1.566 2,1.127 1.325,-5.154c-0.412,-3.776 -1.125,-8.488 -1.6,-10.471c-0.85,-3.514 -0.763,-3.591 3.363,-2.977c2.863,0.425 6.439,-0.336 10.964,-2.332c8.227,-3.628 10.164,-3.678 14.365,-0.372c4.313,3.389 4.151,4.677 -1.213,9.89c-2.463,2.396 -5.326,6.001 -6.376,8.014c-1.85,3.582 -1.787,3.738 2.676,7.521c9.839,8.349 12.427,18.407 6.488,25.304c-2.875,3.35 -3.05,3.388 -5.938,1.303c-1.638,-1.181 -4.788,-3.407 -7.014,-4.945c-5.613,-3.876 -5.138,-5.398 1.538,-4.867c4.151,0.33 5.801,-0.045 6.338,-1.441c1.001,-2.599 -2.125,-8.154 -7.476,-13.298c-2.463,-2.37 -4.475,-5.058 -4.475,-5.974c-0,-0.916 1.687,-5.026 3.763,-9.131c2.075,-4.106 3.4,-7.465 2.963,-7.465c-3.888,-0 -10.39,3.243 -10.99,5.479c-0.387,1.456 -0.775,16.148 -0.85,32.651c-0.075,16.502 -0.525,31.37 -0.987,33.037c-0.888,3.153 -2.813,4.519 -4.301,3.037Zm-34.643,-21.125c-1.675,-2.01 -7.314,-17.532 -7.401,-20.36c-0.038,-1.169 0.962,-1.438 3.388,-0.907c2.15,0.474 6.888,-0.417 12.702,-2.396c9.076,-3.087 9.351,-3.106 13.114,-0.902c4.826,2.819 5.401,5.561 2.063,9.813c-1.475,1.88 -2.313,4.278 -1.913,5.526c0.813,2.55 -0.562,3.083 -10.976,4.267c-5.889,0.671 -7.189,1.238 -7.189,3.154c-0,3.204 -1.888,4.102 -3.788,1.804l-0,0.001Zm10.352,-10.022c2.487,-0.593 3.738,-1.908 4.5,-4.747c0.588,-2.161 0.925,-4.111 0.75,-4.335c-0.537,-0.672 -11.276,1.178 -12.989,2.237c-2.476,1.53 -0.45,9.071 2.225,8.28c1.15,-0.339 3.626,-0.984 5.514,-1.435Zm-10.002,-29.68c-4.851,-7.168 -3.126,-9.302 3.625,-4.491c2.501,1.772 3.576,3.508 3.326,5.301c-0.6,4.144 -3.851,3.766 -6.951,-0.81Zm15.94,-21.81c-2.938,-0.99 -8.751,-6.847 -8.751,-8.825c-0,-1.243 0.862,-1.558 2.813,-1.033c1.55,0.414 3.788,0.762 4.975,0.77c1.188,0.01 3.101,1.458 4.251,3.218c1.8,2.742 1.85,3.437 0.35,4.851c-0.963,0.908 -2.6,1.367 -3.638,1.019Z" style="fill:#004459;fill-rule:nonzero;"/><path d="M56.114,92.453c-0.325,-0.916 -0.8,-16.857 -1.05,-35.422c-0.238,-18.565 -0.9,-35.378 -1.451,-37.361c-0.987,-3.534 -0.912,-3.593 3.238,-2.975c2.863,0.423 6.439,-0.337 10.965,-2.333c8.226,-3.627 10.164,-3.677 14.365,-0.372c4.3,3.39 4.15,4.677 -1.213,9.891c-2.476,2.395 -5.339,6.001 -6.376,8.012c-1.85,3.583 -1.8,3.738 2.663,7.523c9.851,8.349 12.427,18.406 6.501,25.304c-2.888,3.349 -3.063,3.388 -5.939,1.302c-1.637,-1.182 -4.788,-3.406 -7.026,-4.944c-5.601,-3.877 -5.126,-5.398 1.55,-4.867c4.151,0.33 5.801,-0.045 6.339,-1.442c1,-2.6 -2.125,-8.153 -7.476,-13.298c-2.463,-2.369 -4.488,-5.058 -4.488,-5.973c-0,-0.917 1.7,-5.026 3.775,-9.132c2.063,-4.107 3.401,-7.466 2.951,-7.466c-3.876,-0 -10.377,3.243 -10.977,5.481c-0.388,1.455 -0.775,16.147 -0.85,32.65c-0.088,16.503 -0.525,31.37 -0.988,33.038c-0.975,3.464 -3.613,4.863 -4.513,2.384Z" style="fill:#178eb3;fill-rule:nonzero;"/></g></g></svg>