<?xml version="1.0" encoding="UTF-8" standalone="no"?><!DOCTYPE svg PUBLIC "-//W3C//DTD SVG 1.1//EN" "http://www.w3.org/Graphics/SVG/1.1/DTD/svg11.dtd"><svg width="100%" height="100%" viewBox="0 0 95 89" version="1.1" xmlns="http://www.w3.org/2000/svg" xmlns:xlink="http://www.w3.org/1999/xlink" xml:space="preserve" xmlns:serif="http://www.serif.com/" style="fill-rule:evenodd;clip-rule:evenodd;stroke-linejoin:round;stroke-miterlimit:2;"><g><g><path d="M52.784,84.237c-2.538,-3.877 -2.575,-4.505 -1.288,-21.124l0.963,-12.502l-3.751,5c-4.838,6.476 -8.538,9.751 -14.689,12.996c-9.114,4.817 -8.589,2.733 2.087,-8.352c5.826,-6.043 10.89,-12.105 11.24,-13.474c0.625,-2.366 0.312,-2.431 -6.464,-1.311c-7.714,1.275 -11.252,0.596 -11.252,-2.158c0,-1.234 3.238,-2.273 10.94,-3.517l10.939,-1.765l-0.3,-4.842c-0.363,-5.851 -1.1,-6.815 -3.151,-4.076c-0.912,1.217 -2.188,1.673 -3.075,1.105c-1.388,-0.875 -7.851,-18.606 -7.851,-21.527c-0,-0.666 1.725,-1.211 3.825,-1.211c2.113,-0 9.177,-1.23 15.728,-2.733c11.652,-2.677 11.977,-2.686 16.177,-0.428c5.164,2.784 5.464,5.765 1.088,10.969c-2.05,2.426 -3.063,4.97 -2.813,7.057c0.363,3.12 0.063,3.29 -6.776,3.888c-5.951,0.519 -6.964,0.94 -5.989,2.49c0.638,1.025 0.838,3.136 0.451,4.688c-0.851,3.395 -0.451,3.425 11.064,0.806c8.139,-1.851 9.226,-1.852 13.064,-0.02c7.452,3.554 5.426,5.472 -6.751,6.374c-13.514,1.003 -18.065,1.831 -17.577,3.205c0.987,2.732 17.615,14.568 26.016,18.505c5.151,2.417 9.614,4.587 9.914,4.822c1.563,1.236 -2.725,2.703 -10.114,3.461l-8.339,0.852l-17.09,-20.674l-0.625,17.961c-0.663,18.907 -1.625,21.594 -5.601,15.537l0,-0.002Zm11.677,-68.378c2.55,-6.696 1.125,-7.553 -9.052,-5.421c-4.625,0.971 -8.688,2.033 -9.013,2.362c-0.326,0.327 -0.238,2.831 0.2,5.565l0.787,4.971l7.639,-1.366c7.251,-1.297 7.726,-1.605 9.439,-6.111Zm-47.32,62.905c-0.85,-2.049 -1.188,-5.16 -0.738,-6.912c1.563,-6.264 3.188,-28.554 2.426,-33.352l-0.788,-4.887l-6.176,6.936c-6.051,6.789 -9.739,8.73 -9.739,5.133c-0,-0.99 0.513,-2.119 1.15,-2.506c2.025,-1.255 12.74,-18.263 16.478,-26.152c2.688,-5.693 3.425,-8.718 2.863,-11.734c-0.65,-3.471 -0.4,-4.064 1.713,-4.064c3.288,0 9.051,4.646 9.051,7.294c-0,1.16 -2.563,5.941 -5.701,10.624c-5.301,7.892 -5.588,8.716 -3.913,11.271c1.45,2.21 1.7,6.832 1.288,23.352c-0.663,25.715 -1.088,28.724 -4.076,28.724c-1.363,-0 -2.913,-1.508 -3.838,-3.727Z" style="fill:#004459;fill-rule:nonzero;"/><path d="M52.659,84.157c-2.538,-3.875 -2.575,-4.504 -1.3,-21.124l0.962,-12.502l-3.738,5c-4.838,6.478 -8.538,9.752 -14.689,12.996c-9.114,4.819 -8.589,2.734 2.087,-8.352c5.826,-6.041 10.89,-12.105 11.24,-13.474c0.625,-2.365 0.3,-2.43 -6.464,-1.31c-7.714,1.275 -11.252,0.596 -11.252,-2.158c0,-1.235 3.226,-2.269 10.94,-3.505l10.939,-1.753l-0.425,-7.161c-0.338,-5.746 -0.038,-7.161 1.475,-7.161c3.088,-0 7.151,6.136 6.301,9.526c-0.9,3.567 -0.575,3.594 11.027,0.957c8.139,-1.85 9.226,-1.852 13.064,-0.02c7.452,3.555 5.414,5.473 -6.751,6.376c-13.514,1.001 -18.065,1.83 -17.578,3.203c0.976,2.734 17.616,14.568 26.017,18.505c5.151,2.417 9.614,4.587 9.914,4.823c1.563,1.237 -2.725,2.702 -10.126,3.46l-8.327,0.852l-17.09,-20.674l-0.625,17.961c-0.663,18.907 -1.625,21.594 -5.601,15.537l0,-0.002Z" style="fill:#178eb3;fill-rule:nonzero;"/></g></g></svg>