<?xml version="1.0" encoding="UTF-8" standalone="no"?><!DOCTYPE svg PUBLIC "-//W3C//DTD SVG 1.1//EN" "http://www.w3.org/Graphics/SVG/1.1/DTD/svg11.dtd"><svg width="100%" height="100%" viewBox="0 0 79 56" version="1.1" xmlns="http://www.w3.org/2000/svg" xmlns:xlink="http://www.w3.org/1999/xlink" xml:space="preserve" xmlns:serif="http://www.serif.com/" style="fill-rule:evenodd;clip-rule:evenodd;stroke-linejoin:round;stroke-miterlimit:2;"><g><path d="M69.97,0.57l-30.01,4.79c-16.5,2.63 -32.16,4.79 -34.8,4.81c-5.47,0.02 -5.7,2.05 -0.56,4.95c2.9,1.63 5.78,1.28 30.77,-3.72c15.17,-3.04 27.97,-5.13 28.45,-4.65c1.08,1.08 -5.94,9.89 -17.33,21.76l-8.58,8.93l-6.93,-2.43c-8.69,-3.05 -10.86,-2.45 -5.3,1.48c2.35,1.66 8.06,6.55 12.67,10.87c4.61,4.31 9.26,7.84 10.31,7.84c4.13,0 0.62,-11.1 -4.34,-13.76c-1.36,-0.73 -2.48,-1.8 -2.48,-2.37c-0,-0.58 8.01,-7.67 17.81,-15.76c9.8,-8.09 17.98,-15.12 18.17,-15.61c0.2,-0.49 -1.49,-2.3 -3.75,-4.01l-4.1,-3.12Z" style="fill-rule:nonzero;"/></g></svg>