<?xml version="1.0" encoding="UTF-8" standalone="no"?><!DOCTYPE svg PUBLIC "-//W3C//DTD SVG 1.1//EN" "http://www.w3.org/Graphics/SVG/1.1/DTD/svg11.dtd"><svg width="100%" height="100%" viewBox="0 0 95 76" version="1.1" xmlns="http://www.w3.org/2000/svg" xmlns:xlink="http://www.w3.org/1999/xlink" xml:space="preserve" xmlns:serif="http://www.serif.com/" style="fill-rule:evenodd;clip-rule:evenodd;stroke-linejoin:round;stroke-miterlimit:2;"><g><g><path d="M5.864,72.418l-3.751,-2.104l8.751,-1.646c4.801,-0.905 20.841,-3.392 35.631,-5.526c14.778,-2.133 28.005,-4.588 29.38,-5.456c4.513,-2.847 18.128,1.924 18.128,6.352c-0,2.191 1.287,2.038 -20.629,2.419c-13.802,0.24 -23.716,1.224 -37.506,3.718c-25.516,4.612 -25.754,4.631 -30.004,2.243Zm22.003,-33.019c-1.638,-0.659 -2.7,-1.49 -2.338,-1.849c0.363,-0.357 7.139,-1.996 15.065,-3.64c7.926,-1.644 15.54,-3.688 16.903,-4.542c2.013,-1.256 3.413,-1.202 7.301,0.281c8.489,3.229 6.239,5.253 -7.676,6.914c-6.876,0.82 -15.04,2.085 -18.128,2.811c-6.701,1.572 -7.251,1.573 -11.127,0.025Zm-3.188,-28.063c-1.325,-1.009 -2.113,-1.835 -1.725,-1.835c2.7,-0 31.205,-6.38 33.818,-7.574c5.826,-2.652 16.527,1.149 14.127,5.018c-0.438,0.718 -3.25,1.305 -6.226,1.305c-2.988,0 -12.014,1.126 -20.053,2.501c-17.24,2.945 -16.828,2.934 -19.928,0.585l-0.013,-0Z" style="fill:#004459;fill-rule:nonzero;"/><path d="M5.739,72.339l-3.751,-2.102l8.751,-1.647c4.814,-0.906 20.854,-3.393 35.631,-5.526c14.79,-2.134 28.005,-4.589 29.38,-5.457c4.526,-2.847 18.128,1.924 18.128,6.352c-0,2.191 1.3,2.038 -20.629,2.421c-13.789,0.24 -23.716,1.224 -37.506,3.717c-25.504,4.613 -25.741,4.63 -30.004,2.244l-0,-0.002Zm22.016,-33.019c-1.638,-0.658 -2.701,-1.49 -2.338,-1.847c0.35,-0.359 7.138,-1.997 15.065,-3.641c7.926,-1.645 15.54,-3.688 16.902,-4.543c2.013,-1.254 3.413,-1.2 7.302,0.281c8.488,3.229 6.238,5.253 -7.677,6.914c-6.876,0.821 -15.04,2.086 -18.128,2.811c-6.701,1.572 -7.251,1.573 -11.126,0.025Zm-3.188,-28.062c-1.326,-1.01 -2.113,-1.835 -1.738,-1.835c2.713,0 31.217,-6.38 33.83,-7.574c5.826,-2.652 16.515,1.148 14.128,5.019c-0.438,0.717 -3.251,1.305 -6.239,1.305c-2.975,-0 -12.002,1.125 -20.053,2.5c-17.228,2.946 -16.815,2.933 -19.928,0.585Z" style="fill:#178eb3;fill-rule:nonzero;"/></g></g></svg>