<?xml version="1.0" encoding="UTF-8" standalone="no"?><!DOCTYPE svg PUBLIC "-//W3C//DTD SVG 1.1//EN" "http://www.w3.org/Graphics/SVG/1.1/DTD/svg11.dtd"><svg width="100%" height="100%" viewBox="0 0 74 68" version="1.1" xmlns="http://www.w3.org/2000/svg" xmlns:xlink="http://www.w3.org/1999/xlink" xml:space="preserve" xmlns:serif="http://www.serif.com/" style="fill-rule:evenodd;clip-rule:evenodd;stroke-linejoin:round;stroke-miterlimit:2;"><g><path d="M34.11,2.33c-0.72,0.26 -0.86,1.17 -0.47,2.75c0.93,3.67 -2.21,11.8 -13.51,35.04l-9.01,18.55l-9.5,-1.52l1.92,3.72c1.06,2.04 2.91,4.28 4.11,4.98c2.76,1.61 2.49,1.61 5.67,-0.09c3.23,-1.73 44.27,-16.06 45.99,-16.06c0.66,0 3.17,3.09 5.59,6.87c2.42,3.79 4.96,6.88 5.65,6.88c4.3,0 1.82,-11.66 -3.64,-17.13c-1.93,-1.92 -6.55,-5.15 -10.27,-7.18l-6.76,-3.67l4.21,5.32c2.42,3.04 3.75,5.78 3.11,6.39c-1.06,1.02 -40.65,10.27 -41.28,9.64c-0.17,-0.17 1.44,-3.11 3.57,-6.53c2.13,-3.42 8.31,-13.95 13.73,-23.39c10.42,-18.16 10.84,-20.2 4.8,-23.43c-1.91,-1.02 -3.2,-1.41 -3.91,-1.14Z" style="fill-rule:nonzero;"/></g></svg>