<?xml version="1.0" encoding="UTF-8" standalone="no"?><!DOCTYPE svg PUBLIC "-//W3C//DTD SVG 1.1//EN" "http://www.w3.org/Graphics/SVG/1.1/DTD/svg11.dtd"><svg width="100%" height="100%" viewBox="0 0 96 86" version="1.1" xmlns="http://www.w3.org/2000/svg" xmlns:xlink="http://www.w3.org/1999/xlink" xml:space="preserve" xmlns:serif="http://www.serif.com/" style="fill-rule:evenodd;clip-rule:evenodd;stroke-linejoin:round;stroke-miterlimit:2;"><g><g><path d="M66.027,79.771c-3.751,-3.294 -8.727,-7.45 -11.065,-9.234l-4.238,-3.243l-5.401,4.127c-8.664,6.613 -26.741,12.155 -26.741,8.197c-0,-0.629 4.15,-3.194 9.226,-5.703c5.076,-2.509 10.564,-5.979 12.189,-7.71c2.926,-3.109 2.926,-3.173 0.488,-4.955c-1.35,-0.992 -4.551,-2.138 -7.114,-2.546c-5.901,-0.944 -6.663,-3.072 -3.413,-9.452l2.601,-5.109l-4.801,0.725c-2.638,0.397 -8.076,1.446 -12.077,2.33c-6.226,1.375 -7.739,1.337 -10.614,-0.275c-1.838,-1.034 -3.526,-2.758 -3.726,-3.831c-0.312,-1.626 2.413,-2.219 16.465,-3.575l16.828,-1.624l2.763,-11.161c2.025,-8.176 2.538,-12.974 1.963,-17.948c-0.788,-6.614 -0.725,-6.787 2.313,-6.787c1.713,0 4.876,1.568 7.013,3.483l3.901,3.484l-2.125,4.955c-2.913,6.771 -8.202,22.175 -7.777,22.607c0.2,0.194 3.576,0.02 7.502,-0.386c5.863,-0.605 7.151,-1.153 7.151,-3.063c-0,-2.812 3.363,-3.062 6.226,-0.464c1.775,1.598 3.525,1.648 12.427,0.353c9.764,-1.424 10.614,-1.359 14.915,1.134c2.65,1.54 4.563,3.613 4.563,4.962c-0,2.149 -1.063,2.284 -14.502,1.859l-14.503,-0.458l-2.525,3.583c-3.963,5.611 -9.352,16.877 -8.489,17.738c0.425,0.429 4.251,2.792 8.514,5.252c8.151,4.717 13.377,10.876 13.377,15.784c-0,4.628 -3.726,3.624 -11.314,-3.049Zm-11.902,-34.955c0.812,-2.625 0.512,-2.806 -4.526,-2.725c-7.476,0.123 -9.764,1.281 -11.714,5.92l-1.688,4.005l11.764,6.013l2.651,-5.2c1.45,-2.859 3.038,-6.466 3.513,-8.013Z" style="fill:#004459;fill-rule:nonzero;"/><path d="M65.902,79.692c-3.751,-3.294 -8.714,-7.449 -11.052,-9.233l-4.238,-3.244l-5.401,4.127c-8.664,6.613 -26.754,12.156 -26.754,8.197c-0,-0.627 4.163,-3.194 9.239,-5.702c5.075,-2.509 10.564,-5.978 12.189,-7.711c2.913,-3.109 2.925,-3.172 0.488,-4.953c-1.363,-0.993 -4.564,-2.139 -7.114,-2.548c-4.463,-0.713 -6.826,-3.172 -5.351,-5.561c1.288,-2.093 8.076,-1.168 14.202,1.937l6.064,3.073l4.05,-9.012c2.226,-4.957 4.326,-11.15 4.689,-13.765c0.537,-3.888 1.112,-4.684 3.163,-4.375c1.387,0.207 3.65,1.899 5.038,3.759l2.513,3.383l-3.188,4.806c-4.826,7.306 -9.989,17.96 -9.114,18.835c0.425,0.428 4.263,2.792 8.514,5.252c8.164,4.716 13.377,10.876 13.377,15.784c-0,4.627 -3.726,3.623 -11.314,-3.049Z" style="fill:#178eb3;fill-rule:nonzero;"/></g></g></svg>