<?xml version="1.0" encoding="UTF-8" standalone="no"?><!DOCTYPE svg PUBLIC "-//W3C//DTD SVG 1.1//EN" "http://www.w3.org/Graphics/SVG/1.1/DTD/svg11.dtd"><svg width="100%" height="100%" viewBox="0 0 62 78" version="1.1" xmlns="http://www.w3.org/2000/svg" xmlns:xlink="http://www.w3.org/1999/xlink" xml:space="preserve" xmlns:serif="http://www.serif.com/" style="fill-rule:evenodd;clip-rule:evenodd;stroke-linejoin:round;stroke-miterlimit:2;"><g><path d="M51.31,2.2c-1.57,-0.6 -1.79,0.05 -1.22,3.6c0.56,3.44 -0.36,6.47 -4.51,14.8c-7.15,14.37 -7.82,15.16 -11.58,13.73c-4.93,-1.87 -16.44,-5.18 -15.8,-4.53c0.33,0.32 4.11,2.86 8.4,5.64l7.81,5.04l-2.46,3.42c-5.11,7.1 -16.35,19.31 -23.45,25.48c-4.05,3.51 -7.6,6.6 -7.89,6.86c-0.28,0.25 0.01,0.46 0.65,0.46c3.43,0 23.13,-15.86 32.27,-25.96c2.63,-2.91 5.15,-5.3 5.59,-5.3c0.45,0 3.75,2.58 7.34,5.72c3.59,3.14 7.1,5.35 7.8,4.92c2.84,-1.75 1,-6.34 -4.76,-11.89l-6.01,-5.8l3.12,-4.91c1.71,-2.7 5.79,-9.54 9.06,-15.19l5.95,-10.29l-3.22,-2.53c-1.77,-1.39 -3.66,-2.53 -4.2,-2.53c-0.53,0 -1.84,-0.33 -2.89,-0.74Z" style="fill-rule:nonzero;"/></g></svg>