<?xml version="1.0" encoding="UTF-8" standalone="no"?><!DOCTYPE svg PUBLIC "-//W3C//DTD SVG 1.1//EN" "http://www.w3.org/Graphics/SVG/1.1/DTD/svg11.dtd"><svg width="100%" height="100%" viewBox="0 0 94 83" version="1.1" xmlns="http://www.w3.org/2000/svg" xmlns:xlink="http://www.w3.org/1999/xlink" xml:space="preserve" xmlns:serif="http://www.serif.com/" style="fill-rule:evenodd;clip-rule:evenodd;stroke-linejoin:round;stroke-miterlimit:2;"><g><g><path d="M49.721,81.543c-11.04,-2.013 -13.89,-5.386 -15.403,-18.235c-0.437,-3.74 -0.9,-6.8 -1.013,-6.8c-0.112,-0 -4.95,1.731 -10.751,3.847c-7.051,2.573 -11.752,3.605 -14.19,3.118c-7.614,-1.523 -9.477,-6.294 -2.938,-7.543c2.238,-0.426 9.552,-1.966 16.253,-3.421l12.189,-2.647l0,-10.878l-6.864,0.805c-4.7,0.553 -7.438,0.315 -8.726,-0.755c-2.863,-2.374 -1.438,-3.354 7.451,-5.121c8.864,-1.763 9.252,-2.332 6.264,-9.461c-1.35,-3.241 -2.413,-4.261 -3.863,-3.706c-8.827,3.387 -11.577,1.254 -3.901,-3.018c8.751,-4.872 18.153,-12.266 19.003,-14.951c0.638,-2.018 1.488,-2.369 4.151,-1.73c4.863,1.165 10.239,4.066 10.239,5.532c-0,0.696 -4.513,3.296 -10.014,5.779c-9.389,4.23 -9.864,4.625 -7.501,6.275c1.712,1.202 2.512,3.169 2.512,6.199c0,3.779 0.326,4.289 2.188,3.429c1.201,-0.555 5.001,-1.038 8.439,-1.072c9.664,-0.095 8.339,3.017 -2.813,6.603l-9.064,2.911l0,10.817l9.252,-2.549c10.214,-2.814 15.752,-2.329 15.752,1.382c0,1.901 -2.288,2.805 -13.214,5.23c-12.065,2.68 -13.14,3.151 -12.515,5.491c0.375,1.408 0.688,4.413 0.7,6.679c0.038,8.909 9.314,12.659 25.617,10.351c11.014,-1.56 14.365,-4.075 17.665,-13.278c1.45,-4.028 3.238,-7.526 3.976,-7.772c0.762,-0.254 1.7,2.144 2.175,5.567c0.45,3.307 1.375,8.181 2.05,10.831c0.663,2.652 0.938,5.538 0.601,6.414c-1.751,4.572 -29.78,8.214 -43.707,5.677Z" style="fill:#004459;fill-rule:nonzero;"/><path d="M49.621,81.466c-11.04,-2.014 -13.89,-5.386 -15.403,-18.236c-0.437,-3.74 -0.9,-6.8 -1.013,-6.8c-0.125,0 -4.963,1.731 -10.751,3.847c-7.051,2.573 -11.752,3.606 -14.19,3.118c-7.614,-1.524 -9.477,-6.295 -2.938,-7.542c2.225,-0.427 9.539,-1.967 16.253,-3.423l12.189,-2.647l0,-10.818l-7.226,0.755c-5.639,0.589 -7.576,0.335 -8.814,-1.157c-0.875,-1.053 -1.138,-2.171 -0.588,-2.485c1.151,-0.658 11.302,-2.896 18.216,-4.015c2.6,-0.42 6.651,-1.894 8.989,-3.277c2.925,-1.728 5.938,-2.392 9.651,-2.124c8.589,0.617 7.026,3.614 -3.675,7.051l-9.064,2.913l-0,10.817l9.264,-2.549c10.214,-2.816 15.74,-2.33 15.74,1.381c-0,1.902 -2.276,2.805 -13.202,5.231c-12.077,2.679 -13.152,3.15 -12.515,5.491c0.375,1.406 0.688,4.413 0.7,6.678c0.038,8.909 9.314,12.66 25.617,10.352c11.014,-1.56 14.352,-4.076 17.665,-13.278c1.45,-4.03 3.238,-7.527 3.976,-7.773c0.762,-0.254 1.7,2.144 2.175,5.567c0.45,3.307 1.375,8.182 2.038,10.832c0.675,2.65 0.95,5.537 0.613,6.413c-1.751,4.572 -29.78,8.213 -43.707,5.676l-0,0.002Z" style="fill:#178eb3;fill-rule:nonzero;"/></g></g></svg>