<?xml version="1.0" encoding="UTF-8" standalone="no"?><!DOCTYPE svg PUBLIC "-//W3C//DTD SVG 1.1//EN" "http://www.w3.org/Graphics/SVG/1.1/DTD/svg11.dtd"><svg width="100%" height="100%" viewBox="0 0 94 83" version="1.1" xmlns="http://www.w3.org/2000/svg" xmlns:xlink="http://www.w3.org/1999/xlink" xml:space="preserve" xmlns:serif="http://www.serif.com/" style="fill-rule:evenodd;clip-rule:evenodd;stroke-linejoin:round;stroke-miterlimit:2;"><g><g><path d="M44.35,81.003c-9.402,-1.484 -17.678,-5.201 -20.204,-9.072c-1.112,-1.696 -2.55,-6.326 -3.2,-10.289c-0.638,-3.963 -1.363,-7.396 -1.588,-7.627c-0.237,-0.232 -2.55,1.024 -5.151,2.789c-3.738,2.537 -5.626,3.043 -8.989,2.412c-2.35,-0.442 -4.275,-1.497 -4.275,-2.346c-0,-0.849 4.263,-3.655 9.476,-6.235l9.489,-4.69l-0.875,-5.274c-0.487,-2.899 -1.375,-6.219 -1.975,-7.377c-3.163,-6.017 0.387,-7.766 7.264,-3.577c3.625,2.218 3.925,2.85 3.238,7.061l-0.751,4.626l10.39,-5.84l-0,-10.864c-0,-6.462 -0.763,-13.018 -1.876,-16.18c-1.025,-2.924 -1.875,-5.807 -1.875,-6.409c-0,-1.972 7.164,-1.142 10.014,1.159c2.713,2.197 2.738,2.551 1.425,14.633c-0.737,6.808 -1.187,12.529 -1.012,12.712c0.187,0.181 3.238,-2.212 6.788,-5.32c5.951,-5.198 6.851,-5.583 11.19,-4.799c7.413,1.335 8.088,2.414 5.35,8.438c-1.312,2.868 -3.25,9.434 -4.325,14.59c-2.088,10.031 -6.239,16.923 -9.427,15.687c-2.188,-0.843 -7.501,-8.271 -7.501,-10.475c-0,-0.971 1.075,-1.239 3.025,-0.75c2.176,0.548 3.363,0.118 4.251,-1.539c1.538,-2.873 3.326,-16.675 2.163,-16.675c-0.475,0 -3.276,1.662 -6.226,3.692c-5.626,3.868 -6.914,7.161 -6.951,17.688c-0.013,5.211 -2.25,12.375 -3.863,12.375c-1.876,0 -2.751,-6.096 -2.088,-14.443l0.65,-7.978l-10.914,7.507l0.775,7.77c0.95,9.571 1.925,11.539 7.026,14.278c4.426,2.37 30.042,3.843 40.244,2.313c4.826,-0.723 5.651,-1.342 7.264,-5.443c1,-2.546 2.2,-6.739 2.663,-9.317c1.125,-6.173 2.825,-5.938 4.513,0.625c0.75,2.922 2.238,8.036 3.313,11.363c1.075,3.353 1.463,6.508 0.862,7.074c-3.85,3.657 -34.018,5.985 -48.307,3.725l-0,0.002Z" style="fill:#004459;fill-rule:nonzero;"/><path d="M36.311,60.218c-0.45,-1.779 -0.525,-6.812 -0.175,-11.187l0.637,-7.953l-13.652,9.44c-12.377,8.554 -14.064,9.365 -17.978,8.63c-5.638,-1.056 -5.488,-3.442 0.363,-6.17c2.575,-1.201 10.739,-5.621 18.128,-9.821l13.44,-7.637l-0,-10.881c-0,-6.478 -0.763,-13.034 -1.876,-16.197c-1.037,-2.923 -1.875,-5.807 -1.875,-6.408c-0,-1.972 7.164,-1.143 10.002,1.159c2.712,2.196 2.75,2.551 1.437,14.632c-0.737,6.809 -1.2,12.53 -1.012,12.712c0.175,0.183 3.238,-2.211 6.788,-5.319c5.939,-5.198 6.839,-5.583 11.189,-4.8c7.414,1.335 8.089,2.414 5.351,8.439c-1.312,2.868 -3.263,9.434 -4.325,14.59c-2.088,10.03 -6.239,16.922 -9.439,15.686c-2.176,-0.843 -7.489,-8.27 -7.489,-10.473c-0,-0.973 1.075,-1.239 3.025,-0.751c2.176,0.547 3.363,0.117 4.251,-1.539c1.525,-2.873 3.313,-16.675 2.163,-16.675c-0.475,-0 -3.276,1.661 -6.226,3.691c-5.626,3.868 -6.914,7.162 -6.951,17.688c-0.013,5.212 -2.251,12.376 -3.863,12.376c-0.613,-0 -1.463,-1.454 -1.913,-3.233l-0,0.001Z" style="fill:#178eb3;fill-rule:nonzero;"/></g></g></svg>