<?xml version="1.0" encoding="UTF-8" standalone="no"?><!DOCTYPE svg PUBLIC "-//W3C//DTD SVG 1.1//EN" "http://www.w3.org/Graphics/SVG/1.1/DTD/svg11.dtd"><svg width="100%" height="100%" viewBox="0 0 85 49" version="1.1" xmlns="http://www.w3.org/2000/svg" xmlns:xlink="http://www.w3.org/1999/xlink" xml:space="preserve" xmlns:serif="http://www.serif.com/" style="fill-rule:evenodd;clip-rule:evenodd;stroke-linejoin:round;stroke-miterlimit:2;"><g><path d="M55.27,1.95c-1.38,0.01 -2.99,0.36 -5.37,1.05c-3.19,0.92 -11.71,2.42 -18.93,3.32c-13.08,1.64 -13.11,1.65 -9.84,3.81c3.13,2.07 3.95,2.05 17.44,-0.38c8.2,-1.48 14.61,-2.08 15.25,-1.44c0.92,0.91 -2.3,19.58 -4.79,27.8c-0.45,1.5 -3.56,2.41 -12.14,3.58c-6.35,0.87 -17.17,2.54 -24.04,3.72c-11.68,1.99 -12.26,2.23 -8.75,3.55c4.22,1.59 4.37,1.58 25,-2.17c12.18,-2.2 18.77,-2.65 35.01,-2.36c16.96,0.3 20,0.07 20,-1.49c0,-1.02 -2.16,-2.9 -4.81,-4.2c-4.06,-1.98 -5.54,-2.13 -9.52,-0.93c-4.6,1.37 -15.05,1.96 -15.05,0.84c0,-1.28 8.83,-25.25 10.1,-27.42c1.53,-2.6 0.79,-3.44 -5.55,-6.3c-1.47,-0.66 -2.63,-0.99 -4.01,-0.98Z" style="fill-rule:nonzero;"/></g></svg>