<?xml version="1.0" encoding="UTF-8" standalone="no"?><!DOCTYPE svg PUBLIC "-//W3C//DTD SVG 1.1//EN" "http://www.w3.org/Graphics/SVG/1.1/DTD/svg11.dtd"><svg width="100%" height="100%" viewBox="0 0 66 61" version="1.1" xmlns="http://www.w3.org/2000/svg" xmlns:xlink="http://www.w3.org/1999/xlink" xml:space="preserve" xmlns:serif="http://www.serif.com/" style="fill-rule:evenodd;clip-rule:evenodd;stroke-linejoin:round;stroke-miterlimit:2;"><g><path d="M54.97,1.85c-2.76,0.35 -14.28,1.86 -25.61,3.35c-11.32,1.49 -22.15,2.49 -24.06,2.2c-4.55,-0.66 -4.43,1 0.23,3.42c3.3,1.7 5.03,1.71 15.94,0.08c20.42,-3.06 32.86,-3.8 32.86,-1.95c-0,1.68 -2.77,17.9 -3.15,18.48c-0.13,0.18 -1.82,-0.49 -3.76,-1.5c-1.95,-1.01 -4.05,-1.52 -4.68,-1.13c-0.62,0.39 -9.33,1.75 -19.34,3.04c-10.01,1.28 -18.48,2.61 -18.81,2.95c-0.34,0.33 0.9,1.18 2.75,1.89c2.42,0.92 6.59,0.75 14.86,-0.59c6.33,-1.02 15.36,-1.87 20.08,-1.87c8.25,0 8.55,0.1 7.9,2.81c-0.37,1.55 -1.04,5.39 -1.5,8.54c-0.45,3.16 -1.23,6.39 -1.72,7.2c-0.81,1.3 -14.49,3.45 -37.57,5.9c-7.43,0.79 -7.87,1 -5.62,2.69c1.81,1.37 4.33,1.64 9.93,1.06c4.12,-0.42 14.6,-1.11 23.28,-1.53c14.98,-0.73 15.79,-0.9 15.8,-3.4c0.03,-4.11 10.41,-43.69 11.96,-45.61c2.44,-3 -3.73,-6.81 -9.77,-6.03Z" style="fill-rule:nonzero;"/></g></svg>