<?xml version="1.0" encoding="UTF-8" standalone="no"?><!DOCTYPE svg PUBLIC "-//W3C//DTD SVG 1.1//EN" "http://www.w3.org/Graphics/SVG/1.1/DTD/svg11.dtd"><svg width="100%" height="100%" viewBox="0 0 88 73" version="1.1" xmlns="http://www.w3.org/2000/svg" xmlns:xlink="http://www.w3.org/1999/xlink" xml:space="preserve" xmlns:serif="http://www.serif.com/" style="fill-rule:evenodd;clip-rule:evenodd;stroke-linejoin:round;stroke-miterlimit:2;"><g><g><path d="M12.541,69.189c-1.325,-1.325 -2.413,-3.814 -2.413,-5.533c0,-2.746 0.538,-3.126 4.426,-3.126c2.438,0 6.626,-1.125 9.327,-2.5c2.7,-1.375 5.2,-2.501 5.575,-2.501c3.701,0 -7.263,14.172 -11.889,15.382c-1.65,0.43 -3.526,-0.214 -5.026,-1.723l0,0.001Zm51.609,-1.864c-4.401,-5.336 -7.177,-10.295 -6.276,-11.197c0.362,-0.36 3.888,1.046 7.838,3.123c3.951,2.079 8.252,3.78 9.552,3.78c3.4,-0 2.925,3.133 -0.913,6.159c-4.526,3.552 -5.951,3.29 -10.201,-1.865Zm-62.786,-17.045c0,-4.486 2.326,-6.002 9.202,-6.002l6.188,-0l-0.8,-18.753c-0.812,-18.542 -0.787,-18.753 1.838,-18.753c1.463,-0 4.563,-1.18 6.901,-2.623c2.338,-1.442 5.076,-2.303 6.089,-1.914c3.5,1.342 1.825,4.578 -3.788,7.302c-4.639,2.253 -5.626,3.336 -5.626,6.166c-0,3.209 0.387,3.458 5.938,3.814c4.276,0.274 5.939,0.907 5.939,2.257c-0,1.35 -1.663,1.982 -5.939,2.255c-5.251,0.338 -5.938,0.713 -5.938,3.261c-0,2.368 0.925,3.078 5.213,3.996c7.176,1.535 7.626,3.987 0.813,4.477c-5.264,0.378 -5.401,0.5 -5.401,4.764c-0,3.373 0.5,4.352 2.188,4.271c1.212,-0.056 11.476,-0.198 22.816,-0.313l20.628,-0.207l0,-8.733l-5.888,0.303c-4.751,0.245 -5.976,-0.119 -6.339,-1.884c-0.387,-1.856 0.513,-2.188 5.889,-2.188c6.213,-0 6.338,-0.077 6.338,-3.751c0,-3.668 -0.137,-3.751 -6.251,-3.751c-5.413,0 -6.251,-0.333 -6.251,-2.5c0,-2.168 0.838,-2.5 6.251,-2.5c6.114,-0 6.251,-0.084 6.251,-3.751c0,-3.612 -0.2,-3.751 -5.626,-3.751c-4.776,0 -5.626,-0.375 -5.626,-2.476c0,-2.977 3.601,-4.098 11.352,-3.544l5.526,0.395l-0.95,38.391l6.688,-0.443c7.727,-0.51 9.264,1.458 4.826,6.214c-2.513,2.694 -3.175,2.785 -13.477,1.84c-14.277,-1.31 -48.495,-1.27 -59.91,0.07c-9.026,1.06 -9.064,1.054 -9.064,-1.938l0,-0.001Zm31.731,-9.078c-0.876,-2.296 5.138,-15.677 7.063,-15.677c1.438,-0 1.125,2.795 -1.438,12.814c-1.212,4.774 -4.288,6.339 -5.625,2.863Zm13.739,-0.049c-0.45,-1.143 -0.475,-5.997 -0.075,-10.785l0.725,-8.705l-5.863,0.367c-5.263,0.33 -5.839,0.107 -5.513,-2.131c0.2,-1.375 0.475,-5.876 0.625,-10.002c0.237,-6.731 0.55,-7.542 3.075,-7.901c2.138,-0.304 2.813,0.22 2.813,2.188c0,2.185 0.775,2.588 5.001,2.588c3.613,-0 5.001,0.52 5.001,1.875c-0,1.238 -1.238,1.875 -3.651,1.875c-5.238,0 -7.601,1.185 -7.601,3.816c-0,1.854 1.15,2.372 5.938,2.679l5.939,0.381l-0.4,4.376c-1.476,15.97 -2.263,20.48 -3.663,20.943c-0.851,0.285 -1.913,-0.418 -2.351,-1.564Z" style="fill:#004459;fill-rule:nonzero;"/><path d="M55.886,35.9c-2.613,-2.608 -0.563,-4.202 5.376,-4.202c6.113,0 6.251,-0.084 6.251,-3.75c-0,-3.669 -0.138,-3.751 -6.251,-3.751c-5.414,-0 -6.251,-0.334 -6.251,-2.5c-0,-2.168 0.837,-2.501 6.251,-2.501c6.113,0 6.251,-0.084 6.251,-3.75c-0,-3.612 -0.2,-3.751 -5.626,-3.751c-4.764,-0 -5.626,-0.375 -5.626,-2.477c-0,-2.976 3.6,-4.099 11.352,-3.544l5.525,0.395l-0.45,14.377c-0.25,7.908 -0.525,14.444 -0.625,14.524c-0.862,0.748 -15.515,1.589 -16.177,0.929l-0,0.001Z" style="fill:#178eb3;fill-rule:nonzero;"/></g></g></svg>