<?xml version="1.0" encoding="UTF-8" standalone="no"?><!DOCTYPE svg PUBLIC "-//W3C//DTD SVG 1.1//EN" "http://www.w3.org/Graphics/SVG/1.1/DTD/svg11.dtd"><svg width="100%" height="100%" viewBox="0 0 75 94" version="1.1" xmlns="http://www.w3.org/2000/svg" xmlns:xlink="http://www.w3.org/1999/xlink" xml:space="preserve" xmlns:serif="http://www.serif.com/" style="fill-rule:evenodd;clip-rule:evenodd;stroke-linejoin:round;stroke-miterlimit:2;"><g><g><path d="M2.434,92.303c-2.163,-2.156 -1.863,-6.133 0.937,-12.451c3.226,-7.291 4.726,-34.303 2.563,-46.06c-0.825,-4.47 -1.788,-9.673 -2.138,-11.564c-0.725,-3.827 1.551,-4.609 5.751,-1.982c1.863,1.164 4.751,0.785 14.34,-1.875c14.127,-3.918 16.103,-4.031 20.916,-1.187c4.051,2.393 4.451,4.145 1.888,8.213c-0.963,1.524 -2.676,6.935 -3.813,12.024c-3.063,13.791 -4.676,15.969 -8.752,11.885c-1.537,-1.532 -3.363,-1.801 -7.964,-1.168c-9.589,1.319 -9.751,2.098 -1.825,8.523l7.189,5.822l4.738,-4.635c2.613,-2.549 5.689,-6.753 6.826,-9.344c1.138,-2.59 2.388,-4.708 2.776,-4.705c0.387,0.002 2.525,1.12 4.763,2.481c6.251,3.815 5.213,6.201 -5.338,12.313c-5.139,2.982 -9.352,5.861 -9.352,6.398c0,1.209 8.901,7.172 13.49,9.031c1.863,0.758 8.139,2.606 13.939,4.108c10.44,2.703 13.578,4.8 9.202,6.161c-5.989,1.868 -20.503,3.151 -23.366,2.064c-1.688,-0.644 -10.715,-8.586 -20.054,-17.649l-16.965,-16.477l0,26.439l8.189,-3.832c4.501,-2.107 8.576,-3.419 9.064,-2.917c0.475,0.503 -1.35,2.679 -4.051,4.835c-2.713,2.156 -8.463,6.875 -12.777,10.484c-4.325,3.611 -8.038,6.564 -8.263,6.564c-0.226,-0 -1.088,-0.676 -1.913,-1.501l-0,0.002Zm20.803,-49.065c3.676,-0.977 7.401,-1.501 8.276,-1.163c0.875,0.337 2.026,-0.403 2.538,-1.646c1.601,-3.838 4.226,-17.135 3.588,-18.164c-1,-1.628 -5.638,-1.113 -15.027,1.67c-7.439,2.203 -9.039,3.155 -9.514,5.63c-0.675,3.518 0.25,3.639 8.576,1.124c6.489,-1.958 10.514,-1.53 10.514,1.115c0,1.704 -6.063,3.856 -14.689,5.22c-5.251,0.829 -6.114,1.981 -4.564,6.043c0.926,2.411 1.826,2.426 10.302,0.171Zm0.575,-34.32c-6.088,-4.414 -7.476,-6.332 -5.438,-7.584c1.788,-1.112 11.027,0.415 12.714,2.107c0.663,0.659 1.325,2.814 1.463,4.788c0.363,4.985 -2.5,5.21 -8.739,0.689Z" style="fill:#004459;fill-rule:nonzero;"/><path d="M34.739,50.1c-1.925,-1.217 -1.563,-5.774 1.5,-18.847c1.038,-4.45 1.613,-8.529 1.288,-9.064c-1.075,-1.732 -5.851,-1.075 -17.04,2.338c-9.589,2.925 -11.34,3.135 -14.065,1.68c-1.95,-1.041 -3.113,-2.753 -3.113,-4.578c-0,-3.222 2.388,-3.79 6.126,-1.458c1.863,1.163 4.751,0.785 14.34,-1.875c14.127,-3.918 16.102,-4.031 20.915,-1.187c4.051,2.393 4.451,4.145 1.876,8.213c-0.963,1.524 -2.676,6.935 -3.801,12.024c-2.925,13.14 -4.201,15.175 -8.026,12.754Zm-11.039,-41.261c-6.101,-4.413 -7.477,-6.331 -5.451,-7.584c1.8,-1.111 11.039,0.417 12.727,2.107c0.662,0.66 1.325,2.816 1.463,4.79c0.362,4.984 -2.501,5.209 -8.739,0.687Z" style="fill:#178eb3;fill-rule:nonzero;"/></g></g></svg>