<?xml version="1.0" encoding="UTF-8" standalone="no"?><!DOCTYPE svg PUBLIC "-//W3C//DTD SVG 1.1//EN" "http://www.w3.org/Graphics/SVG/1.1/DTD/svg11.dtd"><svg width="100%" height="100%" viewBox="0 0 63 80" version="1.1" xmlns="http://www.w3.org/2000/svg" xmlns:xlink="http://www.w3.org/1999/xlink" xml:space="preserve" xmlns:serif="http://www.serif.com/" style="fill-rule:evenodd;clip-rule:evenodd;stroke-linejoin:round;stroke-miterlimit:2;"><g><path d="M42.62,2.76c-1.82,-0.32 -3.5,-0.26 -3.89,0.37c-0.89,1.45 -16.62,5.09 -22.19,5.14c-3.9,0.04 -3.99,0.14 -1.7,1.88c3.13,2.37 5.07,2.31 19.86,-0.55c12.79,-2.49 14.58,-3.19 12.64,-4.97c-0.95,-0.86 -2.9,-1.55 -4.72,-1.87Zm8.44,18.99c-3.9,0.51 -9.94,1.7 -20.01,3.85c-12.99,2.76 -25.02,5.23 -26.74,5.49c-3.04,0.45 -3.01,0.52 1.05,2.37c3.92,1.78 5.14,1.65 20.41,-2.19c22.62,-5.7 26.05,-6.21 26.05,-3.86c-0,2.87 -8.2,17.99 -13.71,25.3c-4.4,5.82 -12.56,14.16 -23.17,23.66l-3.75,3.36l5,-2.84c14,-7.97 26.45,-19 34.29,-30.39c6.13,-8.92 12.66,-20.88 11.99,-21.97c-0.33,-0.53 -2.22,-1.64 -4.2,-2.46c-1.54,-0.64 -3.31,-0.83 -7.21,-0.32Z" style="fill-rule:nonzero;"/></g></svg>