<?xml version="1.0" encoding="UTF-8" standalone="no"?><!DOCTYPE svg PUBLIC "-//W3C//DTD SVG 1.1//EN" "http://www.w3.org/Graphics/SVG/1.1/DTD/svg11.dtd"><svg width="100%" height="100%" viewBox="0 0 76 70" version="1.1" xmlns="http://www.w3.org/2000/svg" xmlns:xlink="http://www.w3.org/1999/xlink" xml:space="preserve" xmlns:serif="http://www.serif.com/" style="fill-rule:evenodd;clip-rule:evenodd;stroke-linejoin:round;stroke-miterlimit:2;"><g><path d="M31.34,0.82l2.25,3.44c2.03,3.09 2.23,6.31 1.99,31.78c-0.14,15.58 0.15,29.31 0.66,30.52c1.17,2.77 1.18,2.77 6.47,-0.82c9.57,-6.51 20.56,-17.44 26.6,-26.48c7.43,-11.1 8.33,-14.6 1.72,-6.68c-7.18,8.61 -14.69,15.63 -21.88,20.48c-3.63,2.44 -7.02,4.44 -7.55,4.44c-1.27,0 -1.14,-14.49 0.31,-34.38c1.32,-18.08 0.87,-19.5 -6.85,-21.39l-3.72,-0.91Zm-18.9,10.42c-1.92,0 -1.91,0.26 0.1,3.32c4.42,6.76 -0.19,28.98 -8.82,42.48l-0.01,-0c-2.36,3.69 -3.77,6.71 -3.15,6.71c2.13,0 11.28,-11.86 14.97,-19.38c3.02,-6.17 6.37,-20.98 6.37,-28.19c0,-1.44 -6.72,-4.94 -9.46,-4.94Z" style="fill-rule:nonzero;"/></g></svg>