<?xml version="1.0" encoding="UTF-8" standalone="no"?><!DOCTYPE svg PUBLIC "-//W3C//DTD SVG 1.1//EN" "http://www.w3.org/Graphics/SVG/1.1/DTD/svg11.dtd"><svg width="100%" height="100%" viewBox="0 0 56 73" version="1.1" xmlns="http://www.w3.org/2000/svg" xmlns:xlink="http://www.w3.org/1999/xlink" xml:space="preserve" xmlns:serif="http://www.serif.com/" style="fill-rule:evenodd;clip-rule:evenodd;stroke-linejoin:round;stroke-miterlimit:2;"><g><path d="M4.38,1.2c-3.92,-0.87 -4.78,1.62 -1.49,4.34c1.67,1.39 1.91,5.64 1.71,30c-0.21,25.62 -0.01,28.77 2.07,32.3c1.27,2.15 2.8,3.91 3.39,3.91c1.82,0 22.31,-17.91 30.47,-26.63c7.78,-8.32 16.25,-19.63 14.7,-19.63c-0.46,0 -2.99,2.44 -5.62,5.43c-8.59,9.76 -33.02,28.33 -37.27,28.33c-1.53,-0 -1.67,-4.16 -0.95,-28.05c0.93,-30.99 1.61,-28.08 -7.01,-30Z" style="fill-rule:nonzero;"/></g></svg>