<?xml version="1.0" encoding="UTF-8" standalone="no"?><!DOCTYPE svg PUBLIC "-//W3C//DTD SVG 1.1//EN" "http://www.w3.org/Graphics/SVG/1.1/DTD/svg11.dtd"><svg width="100%" height="100%" viewBox="0 0 90 82" version="1.1" xmlns="http://www.w3.org/2000/svg" xmlns:xlink="http://www.w3.org/1999/xlink" xml:space="preserve" xmlns:serif="http://www.serif.com/" style="fill-rule:evenodd;clip-rule:evenodd;stroke-linejoin:round;stroke-miterlimit:2;"><g><g><path d="M21.908,77.756c-1.138,-2.754 -1.188,-5.457 -0.175,-10.913c1.475,-7.98 1.75,-15.965 0.6,-17.121c-0.413,-0.409 -3.676,2.169 -7.252,5.729c-6.851,6.82 -12.677,10.599 -14.127,9.158c-0.462,-0.474 1.413,-3.242 4.176,-6.15c10.052,-10.572 22.378,-28.377 21.428,-30.961c-0.2,-0.549 -3.688,0.361 -7.763,2.024c-8.939,3.652 -10.827,3.731 -14.653,0.615c-3.35,-2.735 -3.088,-2.908 7.051,-4.647c6.239,-1.07 6.251,-1.08 6.626,-6.271c0.35,-4.683 -0.062,-5.534 -4.063,-8.586c-7.713,-5.889 -4.888,-8.515 5.939,-5.51c5.113,1.422 8.464,6.577 5.926,9.123c-0.713,0.712 -1.301,2.959 -1.301,4.991c0,3.499 0.125,3.585 2.288,1.625c3.026,-2.737 8.002,-2.623 11.565,0.265l2.888,2.334l-3.263,3.028c-1.801,1.667 -5.276,6.07 -7.727,9.787c-3.975,6.034 -4.25,6.976 -2.6,8.8c2.013,2.218 2.513,21.051 0.825,30.587c-1.113,6.222 -4.251,7.254 -6.388,2.094l-0,-0.001Zm33.605,-3.356c-8.501,-3.671 -9.202,-6.449 -9.514,-37.738c-0.163,-15.956 -0.825,-28.78 -1.563,-30.154c-2.575,-4.818 4.126,-5.584 9.364,-1.071c3.101,2.66 3.263,3.245 1.988,7.189c-3.588,11.195 -3.976,50.408 -0.525,53.858c2.95,2.951 19.603,3.443 22.391,0.662c0.463,-0.473 1.475,-4.332 2.25,-8.578c0.763,-4.246 1.988,-7.916 2.713,-8.156c1.213,-0.405 6.714,15.94 6.714,19.955c-0,3.092 -6.489,5.067 -18.128,5.516c-8.151,0.315 -12.477,-0.094 -15.69,-1.483Zm-20.616,-27.618c-5.388,-5.879 -5.713,-8.602 -0.887,-7.398c4.688,1.171 7.813,4.229 7.813,7.658c0,4.79 -2.388,4.7 -6.926,-0.26Z" style="fill:#004459;fill-rule:nonzero;"/><path d="M55.4,74.323c-8.501,-3.672 -9.201,-6.45 -9.514,-37.739c-0.162,-15.956 -0.825,-28.779 -1.562,-30.153c-2.576,-4.818 4.125,-5.585 9.364,-1.072c3.1,2.661 3.25,3.246 1.987,7.189c-3.588,11.196 -3.975,50.408 -0.525,53.859c2.951,2.95 19.604,3.443 22.391,0.661c0.463,-0.471 1.488,-4.332 2.251,-8.578c0.762,-4.245 1.988,-7.916 2.713,-8.156c1.212,-0.405 6.713,15.94 6.713,19.956c0,3.092 -6.488,5.068 -18.128,5.517c-8.151,0.314 -12.477,-0.095 -15.69,-1.484Z" style="fill:#178eb3;fill-rule:nonzero;"/></g></g></svg>