<?xml version="1.0" encoding="UTF-8" standalone="no"?><!DOCTYPE svg PUBLIC "-//W3C//DTD SVG 1.1//EN" "http://www.w3.org/Graphics/SVG/1.1/DTD/svg11.dtd"><svg width="100%" height="100%" viewBox="0 0 64 80" version="1.1" xmlns="http://www.w3.org/2000/svg" xmlns:xlink="http://www.w3.org/1999/xlink" xml:space="preserve" xmlns:serif="http://www.serif.com/" style="fill-rule:evenodd;clip-rule:evenodd;stroke-linejoin:round;stroke-miterlimit:2;"><g><g><path d="M11.855,77.21c-0.725,-0.875 -2.513,-6.008 -3.95,-11.405c-1.45,-5.397 -3.451,-11.773 -4.451,-14.168c-1,-2.397 -1.563,-4.785 -1.238,-5.309c0.325,-0.523 4.451,-0.676 9.164,-0.338l8.577,0.612l2.175,-7.766c2.075,-7.371 1.825,-11.337 -0.45,-7.636c-1.988,3.199 -4.951,0.229 -7.051,-7.035c-1.138,-3.987 -3.176,-9.413 -4.513,-12.058c-1.338,-2.644 -2.088,-5.145 -1.676,-5.555c0.4,-0.41 4.526,-0.807 9.152,-0.883c4.613,-0.075 12.789,-1.201 18.165,-2.504c9.577,-2.321 9.839,-2.321 14.152,-0.003c5.989,3.228 7.402,6.131 4.364,9.006c-3.876,3.688 -7.414,10.405 -6.764,12.883c0.538,2.038 -0.45,2.421 -8.176,3.182c-7.864,0.775 -8.652,1.092 -7.464,2.994c1.038,1.661 0.563,3.277 -2.15,7.373c-1.901,2.885 -3.138,5.578 -2.726,5.984c0.4,0.407 6.226,-0.443 12.94,-1.889l12.202,-2.626l5.251,2.545c6.451,3.122 7.588,5.661 4.463,9.903c-1.325,1.778 -3.601,5.6 -5.076,8.494c-2.225,4.364 -2.425,5.682 -1.15,7.719c0.838,1.351 1.225,2.76 0.863,3.13c-0.376,0.37 -9.352,1.283 -19.966,2.027c-14.29,1.004 -19.541,1.814 -20.278,3.134c-1.238,2.204 -2.663,2.265 -4.389,0.189Zm23.942,-10.148c5.538,-0.908 10.276,-2.368 10.889,-3.361c2.238,-3.623 4.026,-13.811 2.663,-15.172c-0.913,-0.922 -6.489,-0.668 -18.578,0.845c-9.502,1.19 -17.49,2.364 -17.74,2.612c-0.263,0.247 0.225,4.132 1.075,8.631l1.55,8.183l5.163,-0.067c2.851,-0.036 9.589,-0.789 14.978,-1.671Zm-6.676,-43.31c3.088,-0.676 6.813,-1.496 8.263,-1.824c1.726,-0.39 3.376,-2.525 4.776,-6.211c2.501,-6.553 1.763,-8.566 -2.85,-7.693c-1.825,0.346 -7.326,1.262 -12.227,2.035l-8.902,1.406l1.201,5.226c2.237,9.654 1.225,8.922 9.739,7.061Z" style="fill:#004459;fill-rule:nonzero;"/><path d="M15.819,28.132c-1.001,-2.384 -1.813,-5.057 -1.826,-5.939c-0.012,-0.881 -1.425,-4.638 -3.15,-8.348c-1.726,-3.71 -2.838,-7.054 -2.463,-7.43c0.387,-0.377 4.476,-0.747 9.101,-0.822c4.614,-0.076 12.79,-1.202 18.166,-2.504c9.564,-2.323 9.839,-2.323 14.152,-0.004c5.988,3.228 7.401,6.13 4.363,9.006c-3.838,3.649 -7.414,10.395 -6.776,12.814c0.5,1.912 -0.5,2.368 -6.713,3.057c-16.641,1.849 -19.166,2.293 -19.166,3.373c-0,2.945 -4.076,0.649 -5.688,-3.203Zm13.189,-4.457c3.088,-0.676 6.814,-1.497 8.264,-1.824c1.725,-0.39 3.376,-2.526 4.776,-6.211c2.5,-6.552 1.763,-8.567 -2.851,-7.694c-1.825,0.348 -7.326,1.263 -12.227,2.037l-8.901,1.405l1.2,5.226c2.238,9.655 1.225,8.921 9.739,7.061Z" style="fill:#178eb3;fill-rule:nonzero;"/></g></g></svg>