<?xml version="1.0" encoding="UTF-8" standalone="no"?><!DOCTYPE svg PUBLIC "-//W3C//DTD SVG 1.1//EN" "http://www.w3.org/Graphics/SVG/1.1/DTD/svg11.dtd"><svg width="100%" height="100%" viewBox="0 0 90 90" version="1.1" xmlns="http://www.w3.org/2000/svg" xmlns:xlink="http://www.w3.org/1999/xlink" xml:space="preserve" xmlns:serif="http://www.serif.com/" style="fill-rule:evenodd;clip-rule:evenodd;stroke-linejoin:round;stroke-miterlimit:2;"><g><g><path d="M27.848,87.853c-1.938,-2.338 -2.013,-5.788 -0.588,-27.404l0.988,-15.003l-3.726,5.001c-8.114,10.865 -22.904,22.816 -22.829,18.441c0.013,-0.525 3.151,-4.601 6.989,-9.064c8.401,-9.802 17.228,-22.454 16.303,-23.366c-0.375,-0.374 -3.338,0.237 -6.589,1.337c-6.851,2.338 -10.902,2.551 -14.302,0.725c-5.264,-2.815 -2.563,-4.527 10.714,-6.802l13.127,-2.25l0,-4.726c0,-8.201 -0.5,-8.629 -7.576,-6.555c-11.477,3.363 -11.002,1.129 1.088,-5.158c6.401,-3.332 12.514,-7.388 13.589,-9.014c1.063,-1.625 2.851,-2.954 3.976,-2.952c2.588,0 10.176,4.573 10.176,6.126c0,0.641 -3.738,2.411 -8.313,3.931c-6.739,2.243 -7.889,2.994 -6.126,3.983c1.775,0.998 2.025,2.234 1.337,6.787l-0.837,5.569l4.363,-0.817c5.138,-0.964 9.576,0.179 9.576,2.468c0,0.993 -2.938,2.204 -7.501,3.103l-7.501,1.477l0,5.405c0,5.226 0.138,5.414 4.476,6.126c5.588,0.901 8.026,2.851 8.026,6.414c0,4.388 -1.313,4.638 -6.976,1.325l-5.301,-3.113l-0.425,18.066c-0.35,14.427 -0.838,18.478 -2.413,20.053c-1.813,1.813 -2.138,1.8 -3.725,-0.113Zm26.504,-22.716c-0.638,-1.213 -1.588,-5.563 -2.088,-9.689c-0.5,-4.126 -1.688,-10.039 -2.613,-13.127c-2.775,-9.234 -2.588,-9.595 4.838,-9.492c3.613,0.05 10.252,-0.977 14.765,-2.284c8.814,-2.555 12.852,-2.189 17.528,1.592c2.838,2.3 2.85,2.433 0.688,5.733c-3.563,5.451 -6.014,13.465 -4.564,14.928c2.801,2.788 1.088,4.25 -5.913,5.05c-18.328,2.088 -17.815,1.926 -17.815,5.864c-0,4.088 -2.938,4.963 -4.826,1.425Zm15.065,-12.239c4.338,-0.775 4.7,-1.201 5.938,-7.014c2.476,-11.538 2.15,-11.833 -9.789,-8.964l-8.839,2.113l0.675,5.076c1.4,10.351 1.688,11.002 4.651,10.289c1.513,-0.363 4.826,-1.038 7.364,-1.5Z" style="fill:#004459;fill-rule:nonzero;"/><path d="M54.252,65.05c-0.65,-1.201 -1.588,-5.551 -2.088,-9.689c-0.513,-4.114 -1.688,-10.027 -2.613,-13.128c-2.775,-9.221 -2.6,-9.584 4.838,-9.48c3.613,0.05 10.252,-0.976 14.765,-2.283c8.802,-2.551 12.852,-2.189 17.49,1.566l2.876,2.329l-2.563,4.255c-1.413,2.338 -3.263,6.501 -4.113,9.239c-1.75,5.664 -7.089,11.552 -8.864,9.789c-0.688,-0.687 -0.313,-4.975 0.95,-10.801c1.413,-6.489 1.688,-10.077 0.838,-10.918c-0.85,-0.847 -4.226,-0.548 -10.302,0.916c-8.051,1.925 -8.964,2.451 -8.364,4.713c0.375,1.413 1.063,7.764 1.513,14.115c0.725,10.152 0.588,11.564 -1.188,11.564c-1.1,0 -2.538,-0.975 -3.175,-2.187Z" style="fill:#178eb3;fill-rule:nonzero;"/></g></g></svg>