<?xml version="1.0" encoding="UTF-8" standalone="no"?><!DOCTYPE svg PUBLIC "-//W3C//DTD SVG 1.1//EN" "http://www.w3.org/Graphics/SVG/1.1/DTD/svg11.dtd"><svg width="100%" height="100%" viewBox="0 0 66 65" version="1.1" xmlns="http://www.w3.org/2000/svg" xmlns:xlink="http://www.w3.org/1999/xlink" xml:space="preserve" xmlns:serif="http://www.serif.com/" style="fill-rule:evenodd;clip-rule:evenodd;stroke-linejoin:round;stroke-miterlimit:2;"><g><path d="M54.81,1.2c-2.2,0.08 -4.99,0.49 -9.08,1.27c-24.54,4.69 -33.62,5.26 -41.95,2.61c-2.74,-0.87 -2.85,-0.74 -1.48,1.83c0.82,1.52 1.92,8.39 2.45,15.26c0.7,8.95 1.56,13.08 3.03,14.55c1.53,1.53 2.42,1.7 3.47,0.65c1.05,-1.04 1.05,-4.44 0.04,-13.04c-0.76,-6.39 -0.97,-11.99 -0.46,-12.44c0.5,-0.45 9.77,-1.83 20.61,-3.08c14.46,-1.66 20.08,-1.9 21.1,-0.88c2.15,2.15 -1.9,17.93 -7.61,29.68c-2.68,5.52 -8.36,14.16 -12.63,19.21c-6.29,7.45 -7.07,8.82 -4.16,7.28c5.28,-2.77 17,-15.3 22.75,-24.3c2.75,-4.31 6.75,-12.75 8.87,-18.75c2.12,-6 4.44,-11.92 5.15,-13.15c1.71,-2.97 0.8,-4.17 -4.51,-5.92c-1.77,-0.58 -3.39,-0.85 -5.59,-0.78Z" style="fill-rule:nonzero;"/></g></svg>