<?xml version="1.0" encoding="UTF-8" standalone="no"?><!DOCTYPE svg PUBLIC "-//W3C//DTD SVG 1.1//EN" "http://www.w3.org/Graphics/SVG/1.1/DTD/svg11.dtd"><svg width="100%" height="100%" viewBox="0 0 98 101" version="1.1" xmlns="http://www.w3.org/2000/svg" xmlns:xlink="http://www.w3.org/1999/xlink" xml:space="preserve" xmlns:serif="http://www.serif.com/" style="fill-rule:evenodd;clip-rule:evenodd;stroke-linejoin:round;stroke-miterlimit:2;"><g><g><path d="M44.77,96.279c-1.537,-2.088 -5.101,-5.463 -7.926,-7.501l-5.113,-3.713l7.551,0.8c6.688,0.7 7.639,0.512 8.289,-1.563c1.375,-4.413 3.238,-19.841 3.263,-27.042c0.025,-6.238 -0.288,-7.188 -2.351,-7.188c-3.4,-0 -29.954,4.675 -34.968,6.163c-3.288,0.975 -5.063,0.8 -8.126,-0.8l-3.913,-2.038l3.75,-1.013c2.063,-0.562 13.178,-2.537 24.692,-4.388c19.628,-3.15 20.941,-3.525 20.941,-6.063c-0,-4.49 -3.263,-13.927 -6.289,-18.164c-3,-4.23 -2.238,-4.136 -14.965,-1.823c-4.325,0.786 -4.313,0.766 1.101,-1.805c10.189,-4.84 22.653,-13.88 22.653,-16.428c0,-1.323 0.313,-2.404 0.688,-2.404c2.113,-0 8.189,4.152 9.401,6.422c1.751,3.258 1.013,3.808 -10.089,7.48c-4.476,1.479 -8.339,2.87 -8.601,3.093c-0.25,0.223 1.312,1.904 3.5,3.738c2.176,1.834 5.114,5.585 6.514,8.335l2.55,5l5.514,-5.417c3.35,-3.283 5.526,-6.548 5.526,-8.284c-0,-3.772 1.912,-3.623 5.688,0.444c5.013,5.417 4.076,7.036 -6.739,11.608c-8.826,3.73 -9.739,4.438 -9.226,7.117c0.312,1.638 1.2,2.963 1.988,2.963c3.65,-0.025 18.04,-2.7 21.128,-3.936c5.839,-2.327 18.703,4.061 15.215,7.562c-0.413,0.412 -9.139,0.937 -19.403,1.162l-18.653,0.4l-0.013,8.352c-0.025,20.028 -4.95,42.732 -9.289,42.732c-0.812,-0 -2.75,-1.713 -4.288,-3.801Zm-17.815,-59.615c-6.826,-6.382 -6.564,-7.497 1.275,-5.388c5.201,1.4 8.889,5.165 8.889,9.069c0,3.776 -3.588,2.475 -10.164,-3.681Z" style="fill:#004459;fill-rule:nonzero;"/><path d="M26.842,36.588c-6.826,-6.382 -6.563,-7.497 1.276,-5.387c5.2,1.399 8.889,5.163 8.889,9.069c-0,3.776 -3.589,2.475 -10.165,-3.682Zm34.894,-5.702c3.925,-3.967 6.526,-7.71 6.526,-9.376c-0,-3.685 1.95,-3.502 5.688,0.533c4.951,5.344 4.038,6.999 -6.276,11.432c-5.126,2.208 -10.027,4.013 -10.889,4.013c-0.863,0 1.375,-2.97 4.951,-6.602Zm-31.13,-10.833c10.139,-4.798 22.653,-13.863 22.653,-16.416c0,-2.897 0.35,-2.933 5.026,-0.515c4.688,2.424 7.189,6.729 4.788,8.27c-2.55,1.641 -27.704,9.585 -33.168,10.474l-4.775,0.776l5.476,-2.589Z" style="fill:#178eb3;fill-rule:nonzero;"/></g></g></svg>