<?xml version="1.0" encoding="UTF-8" standalone="no"?><!DOCTYPE svg PUBLIC "-//W3C//DTD SVG 1.1//EN" "http://www.w3.org/Graphics/SVG/1.1/DTD/svg11.dtd"><svg width="100%" height="100%" viewBox="0 0 61 65" version="1.1" xmlns="http://www.w3.org/2000/svg" xmlns:xlink="http://www.w3.org/1999/xlink" xml:space="preserve" xmlns:serif="http://www.serif.com/" style="fill-rule:evenodd;clip-rule:evenodd;stroke-linejoin:round;stroke-miterlimit:2;"><g><path d="M1.24,2.5c-0.55,0.55 10.38,9.75 14.01,11.8c3.68,2.08 5.63,1.78 5.63,-0.85c0,-4.7 -4.57,-8.49 -12.04,-9.98c-3.92,-0.79 -7.34,-1.23 -7.6,-0.97Zm57.14,11.97c0,-0.49 -6.61,5.7 -14.69,13.75c-16.26,16.2 -33.58,28.25 -38.76,26.97c-3.85,-0.95 -3.71,2.31 0.26,6.28c1.69,1.69 3.62,3.07 4.3,3.07c2.24,-0 20.63,-14.67 28.48,-22.72c6.95,-7.13 20.41,-25.17 20.41,-27.35Z" style="fill-rule:nonzero;"/></g></svg>