<?xml version="1.0" encoding="UTF-8" standalone="no"?><!DOCTYPE svg PUBLIC "-//W3C//DTD SVG 1.1//EN" "http://www.w3.org/Graphics/SVG/1.1/DTD/svg11.dtd"><svg width="100%" height="100%" viewBox="0 0 81 94" version="1.1" xmlns="http://www.w3.org/2000/svg" xmlns:xlink="http://www.w3.org/1999/xlink" xml:space="preserve" xmlns:serif="http://www.serif.com/" style="fill-rule:evenodd;clip-rule:evenodd;stroke-linejoin:round;stroke-miterlimit:2;"><g><g><path d="M28.152,87.865c-3.301,-2.862 -6.014,-5.763 -6.014,-6.451c0,-0.687 2.788,-1.3 6.189,-1.362c7.376,-0.125 7.876,-1.1 8.064,-15.965l0.125,-9.614l-4.688,0.662c-2.576,0.363 -8.889,1.413 -14.015,2.326c-9.577,1.7 -13.802,0.962 -13.802,-2.401c-0,-1.212 4.238,-2.15 15.315,-3.4c15.214,-1.713 15.314,-1.738 15.702,-5.101c0.663,-5.676 -1.525,-8.151 -7.189,-8.151c-5.538,-0 -10.214,-2.641 -7.338,-4.132c0.9,-0.469 8.013,-1.891 15.79,-3.16c10.264,-1.672 14.727,-1.942 16.252,-0.981c1.163,0.729 2.001,1.819 1.863,2.422c-0.212,1.012 -1.638,1.482 -10.477,3.47c-3.138,0.707 -3.188,0.86 -1.875,6.506l1.338,5.776l5.001,-0.775c16.165,-2.488 17.452,-2.425 21.328,0.913c4.588,3.975 4.038,4.2 -13.202,5.25l-13.127,0.813l0.425,9.564c0.613,14.077 -0.663,21.966 -4.188,25.779c-1.651,1.776 -3.551,3.226 -4.226,3.226c-0.675,-0 -3.938,-2.351 -7.251,-5.214Zm-25.117,-50.034c-2.287,-2.288 -1.775,-8.747 0.988,-12.268c1.338,-1.719 2.45,-4.358 2.463,-5.865c0.037,-3.867 2.575,-4.969 4.926,-2.143c1.888,2.277 2.538,2.31 13.552,0.681c10.552,-1.563 11.564,-1.951 11.564,-4.46c0,-1.511 -1.7,-4.364 -3.75,-6.341c-4.514,-4.316 -4.814,-6.876 -0.813,-6.876c8.314,-0 13.315,4.398 13.315,11.726l-0,2.811l11.514,-1.575c9.952,-1.361 12.052,-1.318 15.515,0.321c7.039,3.343 10.214,9.221 4.976,9.221c-0.863,-0 -4.351,1.404 -7.739,3.12c-7.564,3.841 -8.526,3.881 -7.526,0.318c0.425,-1.547 1.138,-4.169 1.575,-5.825l0.8,-3.012l-9.314,0.787c-5.126,0.433 -16.877,2.251 -26.129,4.04l-16.803,3.255l-2.5,6.386c-2.675,6.813 -4.188,8.126 -6.614,5.699Z" style="fill:#004459;fill-rule:nonzero;"/><path d="M28.052,87.79c-3.313,-2.863 -6.014,-5.763 -6.014,-6.451c0,-0.687 2.776,-1.3 6.189,-1.362c7.376,-0.125 7.864,-1.1 8.064,-15.965l0.125,-9.614l-4.689,0.662c-2.587,0.363 -8.888,1.413 -14.027,2.326c-9.576,1.7 -13.789,0.962 -13.789,-2.401c-0,-1.212 4.225,-2.15 15.314,-3.4c15.215,-1.713 15.315,-1.738 15.703,-5.101c0.65,-5.676 -1.525,-8.151 -7.201,-8.151c-5.526,-0 -10.214,-2.642 -7.339,-4.134c0.913,-0.468 8.014,-1.89 15.803,-3.159c10.251,-1.673 14.727,-1.943 16.252,-0.981c1.15,0.729 1.988,1.819 1.863,2.421c-0.225,1.013 -1.638,1.483 -10.489,3.471c-3.138,0.706 -3.176,0.86 -1.875,6.507l1.35,5.776l5.001,-0.775c16.152,-2.488 17.452,-2.425 21.316,0.913c4.6,3.975 4.038,4.2 -13.19,5.25l-13.127,0.813l0.412,9.564c0.626,14.065 -0.662,21.966 -4.188,25.779c-1.638,1.763 -3.538,3.213 -4.213,3.213c-0.688,0 -3.951,-2.338 -7.251,-5.201Z" style="fill:#178eb3;fill-rule:nonzero;"/></g></g></svg>