<?xml version="1.0" encoding="UTF-8" standalone="no"?><!DOCTYPE svg PUBLIC "-//W3C//DTD SVG 1.1//EN" "http://www.w3.org/Graphics/SVG/1.1/DTD/svg11.dtd"><svg width="100%" height="100%" viewBox="0 0 81 82" version="1.1" xmlns="http://www.w3.org/2000/svg" xmlns:xlink="http://www.w3.org/1999/xlink" xml:space="preserve" xmlns:serif="http://www.serif.com/" style="fill-rule:evenodd;clip-rule:evenodd;stroke-linejoin:round;stroke-miterlimit:2;"><g><path d="M60.26,1.22c-2.44,-0.49 -5.41,-0.27 -7.86,0.87c-3.41,1.59 -35.72,9.58 -39.29,9.71c-0.59,0.02 -0.11,0.77 1.06,1.66c1.78,1.35 3.69,1.24 11.19,-0.67c5.72,-1.45 9.48,-1.86 10.23,-1.11c0.65,0.66 1.46,5.32 1.78,10.37l0.59,9.18l-15.93,3.49c-8.76,1.92 -17.13,3.95 -18.59,4.52l-2.66,1.03l2.88,1.11c1.99,0.77 6.25,0.28 13.75,-1.58c5.98,-1.48 12.98,-3.02 15.56,-3.41l4.69,-0.72l-0,11c-0,6.05 -0.36,13.68 -0.81,16.95l-0.82,5.96l-7,-0.68c-5.66,-0.54 -6.54,-0.39 -4.61,0.79c1.32,0.8 5.26,3.81 8.76,6.68c3.5,2.87 6.48,5.26 6.63,5.31c0.15,0.05 0.98,-1.18 1.86,-2.72c1.03,-1.81 1.82,-10.04 2.23,-23.03c0.35,-11.12 1.11,-20.68 1.68,-21.25c0.57,-0.57 8.4,-1.32 17.4,-1.66c17.86,-0.69 21.2,-2.21 12.67,-5.77c-3.68,-1.54 -5.73,-1.7 -9.17,-0.72c-2.44,0.7 -6.97,1.63 -10.06,2.07c-3.1,0.44 -7.18,1.09 -9.07,1.45l-3.44,0.66l-0,-8.31c-0,-4.57 -0.55,-9.34 -1.22,-10.6c-1.11,-2.06 -0.43,-2.43 6.66,-3.67c4.34,-0.75 9.72,-1.37 11.95,-1.37c3.15,-0 3.96,-0.48 3.64,-2.15c-0.33,-1.7 -2.24,-2.9 -4.68,-3.39Z" style="fill-rule:nonzero;"/></g></svg>