<?xml version="1.0" encoding="UTF-8" standalone="no"?><!DOCTYPE svg PUBLIC "-//W3C//DTD SVG 1.1//EN" "http://www.w3.org/Graphics/SVG/1.1/DTD/svg11.dtd"><svg width="100%" height="100%" viewBox="0 0 610 471" version="1.1" xmlns="http://www.w3.org/2000/svg" xmlns:xlink="http://www.w3.org/1999/xlink" xml:space="preserve" xmlns:serif="http://www.serif.com/" style="fill-rule:evenodd;clip-rule:evenodd;stroke-linejoin:round;stroke-miterlimit:2;"><g id="text"><path d="M162.493,386.227c-0.734,0 -1.44,0.027 -2.146,0.027c-1.27,0 -1.92,0.876 -2.118,2.119c-0.113,0.848 -0.085,1.723 -0.085,2.598l-0,53.262c-0,2.005 -0.028,4.038 -0,6.043l12.737,0l-0,-27.676c-0,-0.678 0.028,-1.355 0.028,-2.004c-0.028,-1.074 0.395,-1.638 1.412,-1.638l2.118,0c9.8,0 19.628,-0.029 29.427,0c4.744,0 4.18,-0.678 4.18,4.659c0.027,8.897 0.027,17.763 0.027,26.659l12.737,0c0.028,-20.079 0.028,-40.157 -0,-60.237c-0,-3.021 -0.677,-3.728 -3.417,-3.812l-54.9,0Zm7.258,11.183l38.887,0l-0,9.687l-38.887,0l-0,-9.687Z" style="fill:url(#_Linear1);fill-rule:nonzero;"/><path d="M1.298,386.226l-0,11.889c5.513,0.001 11.626,0.001 17.868,0.001c9.646,0 19.6,-0.001 28.121,0.005c2.622,0.001 2.667,0.026 2.671,2.362c0.017,11.669 0.017,23.338 -0,35.007c-0.004,2.292 -0.051,2.331 -2.436,2.335c-10.873,0.016 -21.747,0.013 -32.621,0.002c-2.456,-0.003 -2.48,-0.031 -2.485,-2.508c-0.013,-7.337 -0.004,-14.674 -0.006,-22.011l-12.403,0c-0.002,10.79 -0.002,21.58 -0,32.368c-0,0.531 -0.028,1.066 0.029,1.59c0.189,1.776 0.915,2.545 2.638,2.763c0.61,0.077 1.235,0.04 1.855,0.04c17.945,0.002 35.891,0.001 53.836,0.001c0.443,0 0.886,0.02 1.325,-0.015c2.092,-0.162 2.852,-0.892 3.011,-2.933c0.055,-0.703 0.021,-1.413 0.021,-2.12c0.001,-9.017 0.002,-45.086 -0,-54.102c-0.001,-4.579 -0.091,-4.673 -4.55,-4.673c-8.831,-0.001 -18.634,-0.002 -28.437,-0.002c-9.803,0 -19.606,0.001 -28.437,0.001Z" style="fill:url(#_Linear2);fill-rule:nonzero;"/><path d="M295.083,403.933c-17.594,0 -35.188,0 -52.754,0.029c-0.903,0 -1.779,0.113 -2.654,0.226c-1.553,0.198 -2.26,1.243 -2.429,2.711c-0.112,0.79 -0.057,1.581 -0.057,2.372c-0.028,8.839 -0.028,17.679 -0.028,26.518c-0,9.093 -0,25.332 0.028,34.425l12.737,0c0.028,-3.615 -0,-14.318 0.028,-17.932c-0,-2.146 0.057,-2.146 2.26,-2.203c0.621,-0.029 42.445,0 42.445,0c0.791,0 1.582,0.028 2.372,-0.029c2.118,-0.197 2.966,-1.073 3.22,-3.191c0.028,-0.536 -0,-1.045 -0,-1.581c0.028,-12.2 0.028,-24.401 -0,-36.599c-0,-3.841 -0.819,-4.633 -4.632,-4.746l-0.536,0Zm-46.174,10.562l39.763,0l-0,24.371l-39.763,0l-0,-24.371Z" style="fill:url(#_Linear3);fill-rule:nonzero;"/><path d="M374.523,403.933c-17.593,0 -35.187,0 -52.78,0.029c-0.877,0 -1.752,0.113 -2.628,0.226c-1.553,0.198 -2.258,1.243 -2.429,2.711c-0.112,0.79 -0.084,1.581 -0.084,2.372l-0,26.518c-0,9.093 -0,25.332 0.028,34.425l12.736,0l-0,-17.932c0.057,-2.146 0.085,-2.146 2.288,-2.203c0.621,-0.029 42.445,0 42.445,0c0.791,0 1.582,0.028 2.373,-0.029c2.118,-0.197 2.965,-1.073 3.191,-3.191c0.057,-0.536 0.029,-1.045 0.029,-1.581l-0,-36.599c-0,-3.841 -0.82,-4.633 -4.66,-4.746l-0.509,0Zm-46.201,10.562l39.791,0l-0,24.371l-39.791,0l-0,-24.371Z" style="fill:url(#_Linear4);fill-rule:nonzero;"/><path d="M598.668,438.867l-39.733,0l-0,-23.496l39.733,0l-0,23.496Zm6.383,-34.934c-0.536,-0.028 -1.045,0 -1.582,0l-27.873,0c-4.575,0 -9.178,0.029 -13.782,-0.028c-2.033,0 -2.089,-0.084 -2.173,-2.033c-0.029,-0.621 -0,-1.242 -0,-1.864c-0,-2.005 0.027,-18.554 0.027,-20.559l-12.369,0l-0,38.633c-0,9.122 -0.028,18.216 -0,27.308c-0,4.435 0.282,4.745 4.575,4.745l53.318,0c0.537,0 1.074,0.029 1.61,0c2.288,-0.17 3.05,-0.988 3.163,-3.361c0.056,-0.508 0.028,-1.045 0.028,-1.581l-0,-36.346c-0,-4.123 -0.734,-4.857 -4.942,-4.914" style="fill:#fff;fill-rule:nonzero;"/><path d="M136.006,403.933c-8.488,-0.001 -16.976,0 -25.463,0c-8.576,0 -17.152,-0.003 -25.728,0.005c-0.882,0 -1.777,-0.011 -2.643,0.121c-2.178,0.336 -2.9,1.136 -3.066,3.295c-0.053,0.703 -0.02,1.414 -0.02,2.121c-0.001,9.017 -0,18.036 -0,27.054c-0,3.272 -0.028,6.543 0.009,9.813c0.034,2.939 0.849,3.712 3.829,3.782c0.265,0.005 0.53,0.002 0.796,0.002c10.167,0 20.334,0.001 30.501,-0.002c0.167,0 0.334,0.002 0.501,0.003l-0,-12.303c-0.266,0.003 -0.534,0.009 -0.799,0.009c-2.01,0 -4.02,0 -6.029,0.001c-4.622,0.003 -9.243,0.006 -13.864,-0.012c-2.08,-0.009 -2.153,-0.073 -2.164,-2.047c-0.029,-5.835 -0.028,-11.67 -0.001,-17.505c0.01,-2.024 0.062,-2.079 2.107,-2.082c11.141,-0.018 22.281,-0.019 33.421,0.001c1.994,0.004 2.039,0.062 2.051,2.141c0.028,5.039 0.01,10.079 0.01,15.12c0.001,4.184 -0.03,11.865 0.017,16.047l12.308,0c0.012,-12.719 0.011,-28.936 -0,-41.658c-0.002,-3.123 -0.566,-3.703 -3.652,-3.892c-0.298,-0.018 -1.714,-0.014 -2.121,-0.014Z" style="fill:url(#_Linear5);fill-rule:nonzero;"/><path d="M481.001,435.224c-0.017,-5.39 -0.011,-10.78 -0.003,-16.17c0.004,-2.861 0.016,-2.872 2.937,-2.873c10.603,-0.006 21.207,-0.003 31.81,-0.002c0.443,-0 0.885,0.022 1.325,0.004c0.962,-0.039 1.515,0.337 1.491,1.371c-0.015,0.618 0.006,1.237 0.006,1.856c0.001,8.043 0.001,21.614 0.001,29.657l12.359,-0c0.001,-11.62 0.001,-28.767 0.001,-40.386c-0,-0.53 0.024,-1.062 -0.014,-1.591c-0.134,-1.851 -0.876,-2.733 -2.701,-3.042c-0.862,-0.145 -1.761,-0.109 -2.643,-0.11c-8.659,-0.007 -17.319,-0.004 -25.978,-0.004c-8.925,-0 -17.85,-0.013 -26.775,0.006c-3.737,0.008 -4.58,0.845 -4.582,4.457c-0.006,12.46 -0.004,24.919 -0.001,37.378c0.001,0.618 -0.028,1.246 0.066,1.851c0.227,1.458 0.942,2.181 2.402,2.423c0.605,0.101 1.233,0.074 1.85,0.074c9.96,0.004 19.919,0.006 29.878,-0.005l-0,-12.285c-6.245,-0.001 -12.491,0.007 -18.738,-0.005c-2.661,-0.004 -2.684,-0.025 -2.691,-2.604" style="fill:#fff;fill-rule:nonzero;"/><path d="M451.888,437.84c-13.257,-0.001 -26.513,0.006 -39.77,-0.005c-4.128,-0.004 -3.612,0.367 -3.617,-3.749c-0.017,-13.893 -0.007,-32.623 -0.009,-46.517l-12.442,-0c-0.001,8.553 -0.001,21.944 -0.001,30.497l-0,11.136c0.001,5.744 -0.015,11.49 0.007,17.235c0.012,3.082 0.619,3.647 3.769,3.688c0.177,0.002 0.354,0.001 0.531,0.001c17.177,-0 34.354,-0 51.532,-0.001l-0,-12.285Z" style="fill:#fff;fill-rule:nonzero;"/></g><g id="Layer-1" serif:id="Layer 1"><path d="M216.36,166.981c-7.908,0 -14.348,6.44 -14.348,14.348l0.014,180.817c-0.014,3.834 1.483,7.441 4.194,10.153c2.699,2.698 6.306,4.195 10.141,4.181l22.469,0l8.644,0.014l13.079,-0.014l0.521,0.014l0.013,-0.014l136.09,0.014c7.908,0 14.348,-6.439 14.348,-14.348l-0,-137.52l-0.014,-13.613l0.014,-18.422l-13.614,0.013l-0,19.852l-0.012,12.17l0.012,137.534c-0,0.4 -0.32,0.721 -0.721,0.721l-180.83,0c-0.401,0 -0.735,-0.334 -0.735,-0.735l-0,-180.831c-0,-0.4 0.321,-0.72 0.722,-0.72l50.845,0l-0.013,-13.614l-50.819,0Z" style="fill:url(#_Linear6);fill-rule:nonzero;"/><path d="M394.089,136.036c0.057,0.075 0.057,0.17 -0,0.246l-2.55,2.55c0.868,-0.944 1.662,-1.908 2.399,-2.947l0.151,0.151Z" style="fill:#1b0351;fill-rule:nonzero;"/><path d="M419.325,160.435l-18.724,18.723c-0.028,-0 -0.056,0.028 -0.113,0.028c-0.028,-0 -0.057,-0.028 -0.085,-0.028l-19.514,-19.514l9.46,-9.46l2.91,-2.909l5.705,-5.705l0.761,-0.734l1.102,-1.13c0.282,0.65 0.593,1.243 0.932,1.836c1.073,1.92 2.288,3.53 2.288,3.53c0.112,0.141 0.197,0.254 0.282,0.367c0.028,0.057 0.057,0.057 0.057,0.085l14.939,14.911Z" style="fill:#1b0351;fill-rule:nonzero;"/><path d="M265.283,113.213l-15.001,15.001c-0.038,0.038 -0.057,0.057 -0.094,0.057c-0.038,0 -0.076,-0.019 -0.114,-0.057l-7.443,-7.444l-16.966,-16.966c-0.057,-0.056 -0.057,-0.151 0,-0.208l15.001,-15l7.897,7.916l16.72,16.701Z" style="fill:#1b0351;fill-rule:nonzero;"/><path d="M341.591,83.312l-23.37,23.371c-0.17,0.17 -0.302,0.34 -0.397,0.529c-0.605,1.001 -0.454,2.324 0.397,3.174l23.37,23.389c0.944,0.945 2.419,1.019 3.439,0.208c0.095,-0.057 0.188,-0.133 0.265,-0.208l9.389,-9.39l13.981,-13.999c1.039,-1.021 1.039,-2.683 -0,-3.703l-23.37,-23.371c-0.492,-0.491 -1.153,-0.774 -1.852,-0.774c-0.699,0 -1.36,0.283 -1.852,0.774Z" style="fill:url(#_Linear7);fill-rule:nonzero;"/><path d="M293.372,0.254l-7.286,7.258c-0.311,0.339 -0.311,0.848 -0,1.158l7.286,7.286c0.31,0.31 0.847,0.31 1.158,0l7.286,-7.286c0.31,-0.31 0.31,-0.819 -0,-1.158l-7.286,-7.258c-0.142,-0.17 -0.367,-0.254 -0.566,-0.254c-0.225,0 -0.424,0.084 -0.592,0.254Zm36.317,31.404l-7.286,7.258c-0.31,0.338 -0.31,0.847 -0,1.157l7.286,7.286c0.31,0.311 0.819,0.311 1.13,0l7.285,-7.286c0.312,-0.31 0.312,-0.819 -0,-1.157l-7.285,-7.258c-0.142,-0.17 -0.339,-0.255 -0.565,-0.255c-0.226,0 -0.424,0.085 -0.565,0.255Zm-41.485,19.994l-13.612,13.612c-0.621,0.621 -0.621,1.581 -0,2.175l13.612,13.611c0.592,0.593 1.553,0.593 2.147,0l13.639,-13.611c0.592,-0.594 0.592,-1.554 -0,-2.175l-13.639,-13.612c-0.284,-0.282 -0.651,-0.452 -1.074,-0.452c-0.395,-0 -0.791,0.17 -1.073,0.452Z" style="fill:url(#_Linear8);fill-rule:nonzero;"/><path d="M428.17,125.172l-7.279,7.279c-0.318,0.319 -0.318,0.836 -0,1.154l7.279,7.279c0.319,0.319 0.836,0.319 1.155,0l7.279,-7.279c0.319,-0.318 0.319,-0.835 -0,-1.154l-7.279,-7.279c-0.155,-0.154 -0.36,-0.24 -0.577,-0.24c-0.219,0 -0.423,0.086 -0.578,0.24Z" style="fill:url(#_Linear9);fill-rule:nonzero;"/><path d="M180.675,122.338l-7.279,7.279c-0.319,0.318 -0.319,0.836 -0,1.154l7.279,7.28c0.318,0.317 0.836,0.317 1.155,0l7.278,-7.28c0.318,-0.318 0.318,-0.836 -0,-1.154l-7.278,-7.279c-0.155,-0.154 -0.36,-0.24 -0.578,-0.24c-0.218,0 -0.423,0.086 -0.577,0.24Z" style="fill:url(#_Linear10);fill-rule:nonzero;"/><path d="M398.059,139.367l-8.754,8.755l-6.298,6.325l-9.376,9.348c-0.056,0.028 -0.056,0.114 -0,0.169l24.428,24.428c0.029,0.029 0.057,0.057 0.086,0.057c0.056,0 0.084,-0.028 0.112,-0.057l9.375,-9.347l15.053,-15.081c0.057,-0.055 0.057,-0.141 -0,-0.169l-3.36,-3.36l-14.94,-14.912c-0,-0.027 -0.028,-0.027 -0.057,-0.084l-6.071,-6.072c-0.028,-0.028 -0.063,-0.042 -0.099,-0.042c-0.035,0 -0.071,0.014 -0.099,0.042Z" style="fill:url(#_Linear11);fill-rule:nonzero;"/><path d="M398.059,65.857l-24.428,24.428c-0.056,0.057 -0.056,0.113 -0,0.169l24.428,24.428c0.029,0.029 0.057,0.057 0.086,0.057c0.056,0 0.084,-0.028 0.112,-0.057l24.428,-24.428c0.057,-0.056 0.057,-0.112 -0,-0.169l-24.428,-24.428c-0.028,-0.028 -0.063,-0.042 -0.099,-0.042c-0.035,0 -0.071,0.014 -0.099,0.042Z" style="fill:url(#_Linear12);fill-rule:nonzero;"/><rect x="397.346" y="112.124" width="1.621" height="31.213" style="fill:url(#_Linear13);"/><path d="M403.793,106.438l-2.147,0.678c-2.88,1.158 -6.129,0.848 -9.179,0.48c-0.564,-0.056 -1.128,-0.113 -1.666,-0.17c0.254,0.284 1.13,1.385 1.243,1.526c-0,0 1.215,1.609 2.287,3.502c1.357,2.4 2.402,5.394 3.022,7.314c0.282,0.96 0.452,1.638 0.509,1.807c0.367,-0.875 0.734,-1.722 1.102,-2.569c1.694,-3.84 3.557,-7.597 6.071,-10.901c0.592,-0.762 1.214,-1.497 1.864,-2.203c-1.045,0.141 -2.062,0.31 -3.106,0.536Z" style="fill:url(#_Linear14);fill-rule:nonzero;"/><path d="M397.353,134.538c-1.638,3.699 -3.388,7.342 -5.76,10.59c-0.735,1.045 -1.526,2.006 -2.401,2.965l-0.029,0.029l0.142,0c1.017,-0.142 2.005,-0.34 2.993,-0.537l2.147,-0.677c2.145,-0.905 4.519,-0.905 6.834,-0.735c0.592,0.057 1.186,0.113 1.78,0.169c0.168,0.028 0.338,0.057 0.535,0.057c0.593,0.085 1.158,0.113 1.695,0.226c-0.226,-0.283 -0.537,-0.65 -0.904,-1.102c-0,-0.027 -0.028,-0.027 -0.057,-0.084c-0.084,-0.114 -0.169,-0.226 -0.281,-0.367c-0,0 -1.215,-1.611 -2.289,-3.53c-0.338,-0.593 -0.649,-1.186 -0.931,-1.836c-0.791,-1.638 -1.413,-3.361 -1.863,-4.716c-0.424,-1.356 -0.707,-2.316 -0.763,-2.542c-0.283,0.707 -0.566,1.384 -0.848,2.09Z" style="fill:url(#_Linear15);fill-rule:nonzero;"/><path d="M364.679,58.402l-10.138,10.137l-0,0.086l10.167,10.137c0.027,0 0.056,0 0.056,-0.028l10.138,-10.109c0.028,-0.029 0.028,-0.057 -0,-0.086l-10.138,-10.137c-0.015,-0.015 -0.029,-0.022 -0.043,-0.022c-0.014,-0 -0.028,0.007 -0.042,0.022Z" style="fill:url(#_Linear16);fill-rule:nonzero;"/><path d="M364.679,27.929l-10.138,10.111l-0,0.113l7.568,7.54c0.028,0.028 0.056,0.056 0.085,0.113l2.485,2.457c0.029,0 0.029,0.029 0.029,0.029c0.027,0 0.056,-0.029 0.056,-0.029l2.795,-2.795l7.343,-7.315c0.028,-0.057 0.028,-0.085 -0,-0.113l-10.138,-10.111c-0.015,-0.014 -0.029,-0.02 -0.043,-0.02c-0.014,0 -0.028,0.006 -0.042,0.02Z" style="fill:url(#_Linear17);fill-rule:nonzero;"/><rect x="364.388" y="47.112" width="0.672" height="12.945" style="fill:url(#_Linear18);"/><path d="M367.051,44.761l-0.904,0.283c-1.158,0.479 -2.513,0.338 -3.784,0.197c-0.226,-0.028 -0.452,-0.057 -0.677,-0.084c0.112,0.141 0.254,0.311 0.423,0.536c0.028,0.028 0.056,0.056 0.085,0.113l0.028,0.029c0.085,0.14 0.536,0.733 0.904,1.411c0.564,0.989 1.017,2.26 1.27,3.05c0.114,0.396 0.198,0.65 0.198,0.735c0.17,-0.339 0.311,-0.706 0.452,-1.045c-0,-0.028 0.029,-0.028 0.029,-0.057c0.706,-1.553 1.439,-3.135 2.484,-4.461c0.256,-0.311 0.509,-0.65 0.791,-0.933c-0.424,0.057 -0.847,0.114 -1.299,0.226Z" style="fill:url(#_Linear19);fill-rule:nonzero;"/><path d="M364.396,56.369c-0.874,2.033 -1.891,4.037 -3.388,5.676c-0,0 0.057,0 0.057,-0.029c0.423,-0.028 0.819,-0.113 1.242,-0.169l0.875,-0.311c1.187,-0.479 2.542,-0.339 3.813,-0.198c0.226,0.029 0.452,0.029 0.677,0.085c-0.084,-0.113 -0.225,-0.283 -0.338,-0.452c-0.057,-0.057 -0.113,-0.141 -0.169,-0.198c-0,0 -0.509,-0.649 -0.961,-1.44c-0.451,-0.875 -0.847,-1.892 -1.129,-2.654c-0,-0.029 -0.029,-0.057 -0.029,-0.085c-0.169,-0.565 -0.282,-0.989 -0.311,-1.045c-0.112,0.282 -0.225,0.537 -0.339,0.82Z" style="fill:url(#_Linear20);fill-rule:nonzero;"/><path d="M201.421,98.813l-10.139,10.139c-0.028,0 -0.028,0.057 -0,0.084l10.139,10.139l0.084,0l10.11,-10.139c0.029,-0.027 0.029,-0.084 -0,-0.084l-7.653,-7.653c-0,-0.029 -0,-0.029 -0.028,-0.057l-2.429,-2.429c-0.014,-0.014 -0.035,-0.021 -0.053,-0.021c-0.017,0 -0.031,0.007 -0.031,0.021Z" style="fill:url(#_Linear21);fill-rule:nonzero;"/><path d="M201.421,68.342l-10.139,10.139c-0.028,0 -0.028,0.055 -0,0.055l7.512,7.513l2.316,2.343l0.311,0.283c-0,0.029 0.028,0.029 0.028,0.029c0.028,0 0.028,0 0.056,-0.029l2.852,-2.852l7.258,-7.287c0.029,0 0.029,-0.055 -0,-0.055l-10.11,-10.139c-0.014,-0.014 -0.035,-0.021 -0.053,-0.021c-0.017,0 -0.031,0.007 -0.031,0.021Z" style="fill:url(#_Linear22);fill-rule:nonzero;"/><rect x="201.116" y="87.525" width="0.672" height="12.945" style="fill:url(#_Linear23);"/><path d="M203.792,85.145l-0.903,0.283c-1.187,0.508 -2.513,0.367 -3.784,0.226c-0.255,-0.028 -0.481,-0.057 -0.706,-0.085c0.084,0.113 0.225,0.282 0.395,0.48c0.028,0.056 0.084,0.112 0.113,0.169c-0,0 0.509,0.65 0.96,1.441c0.565,1.016 1.017,2.288 1.243,3.05c0.113,0.395 0.197,0.678 0.225,0.734c0.142,-0.339 0.311,-0.706 0.453,-1.045c0.706,-1.61 1.468,-3.191 2.542,-4.547c-0,0 0.507,-0.621 0.762,-0.904c-0.424,0.057 -0.876,0.142 -1.3,0.198Z" style="fill:url(#_Linear24);fill-rule:nonzero;"/><path d="M201.11,96.808c-0.876,2.034 -1.865,4.039 -3.389,5.649l0.057,0c0.423,-0.057 0.846,-0.113 1.242,-0.226l0.903,-0.283c1.187,-0.48 2.514,-0.367 3.786,-0.198c0.253,0.029 0.479,0.057 0.705,0.057c-0.113,-0.113 -0.255,-0.282 -0.452,-0.508c-0,-0.029 -0,-0.029 -0.028,-0.057c-0.028,0 -0.028,-0.028 -0.028,-0.056c-0,-0 -0.509,-0.678 -0.961,-1.44c-0.508,-0.904 -0.903,-1.978 -1.157,-2.768c-0.198,-0.537 -0.283,-0.932 -0.311,-1.017c-0.113,0.283 -0.254,0.565 -0.367,0.847Z" style="fill:url(#_Linear25);fill-rule:nonzero;"/><path d="M250.078,79.186l-24.399,24.4c-0.084,0.057 -0.084,0.17 -0,0.226l24.399,24.4c0.029,0.028 0.086,0.057 0.114,0.057c0.028,0 0.057,-0.029 0.084,-0.057l14.996,-14.996l9.433,-9.404c0.056,-0.056 0.056,-0.169 -0,-0.226c-0,0 -18.328,-18.3 -18.356,-18.327l-6.073,-6.073c-0.028,-0.028 -0.063,-0.042 -0.099,-0.042c-0.035,0 -0.07,0.014 -0.099,0.042Z" style="fill:url(#_Linear26);fill-rule:nonzero;"/><path d="M250.078,5.676l-24.399,24.429c-0.084,0.056 -0.084,0.141 -0,0.197l18.131,18.159c0.028,0.056 0.085,0.085 0.112,0.141l6.156,6.128c0.029,0 0.086,0.028 0.114,0.028c0.028,0 0.057,-0.028 0.084,-0.028l6.807,-6.834l17.622,-17.594c0.056,-0.056 0.056,-0.141 -0,-0.197l-24.429,-24.429c-0.028,-0.028 -0.063,-0.043 -0.099,-0.043c-0.035,0 -0.07,0.015 -0.099,0.043Z" style="fill:url(#_Linear27);fill-rule:nonzero;"/><rect x="249.37" y="51.949" width="1.621" height="31.213" style="fill:url(#_Linear28);"/><path d="M255.811,46.258l-2.174,0.678c-2.852,1.186 -6.071,0.847 -9.149,0.479c-0.566,-0.056 -1.131,-0.112 -1.695,-0.169c0.282,0.283 0.621,0.707 1.017,1.215c0.028,0.056 0.085,0.085 0.112,0.141c0.029,0.056 0.085,0.113 0.114,0.17c-0,0 1.242,1.61 2.315,3.501c1.384,2.457 2.429,5.508 3.022,7.399c0.31,0.932 0.48,1.554 0.508,1.723c0.368,-0.847 0.706,-1.695 1.102,-2.514c-0,-0.028 0.028,-0.028 0.028,-0.056c1.666,-3.869 3.53,-7.625 6.072,-10.929c0.592,-0.762 1.185,-1.469 1.863,-2.175c-1.073,0.141 -2.118,0.311 -3.135,0.537Z" style="fill:url(#_Linear29);fill-rule:nonzero;"/><path d="M249.373,74.272c-2.118,4.942 -4.518,9.744 -8.189,13.668l0.14,0c1.017,-0.169 1.977,-0.31 2.994,-0.507l2.175,-0.707c2.851,-1.186 6.071,-0.819 9.149,-0.479c0.565,0.056 1.131,0.112 1.666,0.169c-0.254,-0.255 -0.535,-0.621 -0.876,-1.073c-0.027,-0.029 -0.055,-0.057 -0.083,-0.084c-0.086,-0.114 -0.198,-0.226 -0.283,-0.368c-0,0 -1.243,-1.61 -2.288,-3.502c-1.186,-2.118 -2.146,-4.717 -2.767,-6.579c-0,-0.029 -0.028,-0.057 -0.028,-0.085c-0.424,-1.3 -0.707,-2.232 -0.763,-2.457c-0.282,0.678 -0.565,1.355 -0.847,2.004Z" style="fill:url(#_Linear30);fill-rule:nonzero;"/><path d="M270.89,260.335c4.567,-0.287 7.794,-4.59 6.889,-9.075c-1.3,-6.445 -4.057,-14.879 -10.013,-23.25c-3.873,-5.444 -8.147,-9.522 -11.963,-12.511c-3.753,-2.94 -9.208,-1.638 -11.413,2.589c-2.287,4.386 -4.404,10.47 -4.183,17.81c0.229,7.583 2.86,13.413 4.759,16.749c0.462,0.811 1.173,1.407 1.173,1.407c2.332,2.492 4.877,3.606 6.144,4.144c6.596,2.808 15.318,2.339 18.502,2.144c0.035,-0.002 0.07,-0.005 0.105,-0.007" style="fill:#fff;fill-rule:nonzero;"/><path d="M359.269,267.222c1.997,-0.301 3.873,-1.131 5.356,-2.501c2.414,-2.229 5.626,-6.223 5.907,-11.868c0.318,-6.393 -3.189,-13.58 -8.718,-15.361c-4.478,-1.441 -8.875,1.119 -13.492,3.944c-5.986,3.662 -13.394,8.401 -21.901,14.33c-3.756,2.618 -2.744,8.474 1.688,9.624l0.079,0.02c18.037,4.669 27.126,2.407 31.081,1.812" style="fill:#fff;fill-rule:nonzero;"/><path d="M340.315,316.627c-5.827,5.086 -13.041,8.575 -20.668,10.59c-3.812,1.098 -7.791,1.477 -11.774,1.768c-3.992,0.03 -8.024,-0.166 -11.962,-0.97c-3.935,-0.787 -7.778,-2.021 -11.445,-3.612c-3.622,-1.692 -7.135,-3.64 -10.253,-6.109c-6.293,-4.816 -11.463,-11.009 -14.683,-18.027c5.452,5.433 11.247,10.109 17.536,13.782c6.3,3.628 13.078,6.215 20.102,7.536c7.001,1.483 14.253,1.524 21.497,0.631c7.244,-0.967 14.462,-2.859 21.65,-5.589" style="fill:#fff;fill-rule:nonzero;"/></g><defs><linearGradient id="_Linear1" x1="0" y1="0" x2="1" y2="0" gradientUnits="userSpaceOnUse" gradientTransform="matrix(-91.994,133.418,-133.418,-91.994,215.207,381.766)"><stop offset="0" style="stop-color:#2afdc6;stop-opacity:1"/><stop offset="1" style="stop-color:#0091fc;stop-opacity:1"/></linearGradient><linearGradient id="_Linear2" x1="0" y1="0" x2="1" y2="0" gradientUnits="userSpaceOnUse" gradientTransform="matrix(-92.0028,133.431,-133.431,-92.0028,98.8854,320.222)"><stop offset="0" style="stop-color:#2afdc6;stop-opacity:1"/><stop offset="1" style="stop-color:#0091fc;stop-opacity:1"/></linearGradient><linearGradient id="_Linear3" x1="0" y1="0" x2="1" y2="0" gradientUnits="userSpaceOnUse" gradientTransform="matrix(-91.9842,133.404,-133.404,-91.9842,277.049,414.952)"><stop offset="0" style="stop-color:#2afdc6;stop-opacity:1"/><stop offset="1" style="stop-color:#0091fc;stop-opacity:1"/></linearGradient><linearGradient id="_Linear4" x1="0" y1="0" x2="1" y2="0" gradientUnits="userSpaceOnUse" gradientTransform="matrix(-91.9811,133.4,-133.4,-91.9811,335.061,446.026)"><stop offset="0" style="stop-color:#2afdc6;stop-opacity:1"/><stop offset="1" style="stop-color:#0091fc;stop-opacity:1"/></linearGradient><linearGradient id="_Linear5" x1="0" y1="0" x2="1" y2="0" gradientUnits="userSpaceOnUse" gradientTransform="matrix(-92.0028,133.431,-133.431,-92.0028,161.427,353.864)"><stop offset="0" style="stop-color:#2afdc6;stop-opacity:1"/><stop offset="1" style="stop-color:#0091fc;stop-opacity:1"/></linearGradient><linearGradient id="_Linear6" x1="0" y1="0" x2="1" y2="0" gradientUnits="userSpaceOnUse" gradientTransform="matrix(-188.155,4.12019,4.12019,188.155,487.126,267.788)"><stop offset="0" style="stop-color:#2afdc6;stop-opacity:1"/><stop offset="1" style="stop-color:#0091fc;stop-opacity:1"/></linearGradient><linearGradient id="_Linear7" x1="0" y1="0" x2="1" y2="0" gradientUnits="userSpaceOnUse" gradientTransform="matrix(130.132,135.959,-135.959,130.132,269.102,30.8641)"><stop offset="0" style="stop-color:#2afdc6;stop-opacity:1"/><stop offset="1" style="stop-color:#0091fc;stop-opacity:1"/></linearGradient><linearGradient id="_Linear8" x1="0" y1="0" x2="1" y2="0" gradientUnits="userSpaceOnUse" gradientTransform="matrix(130.104,135.929,-135.929,130.104,277.061,22.5792)"><stop offset="0" style="stop-color:#2afdc6;stop-opacity:1"/><stop offset="1" style="stop-color:#0091fc;stop-opacity:1"/></linearGradient><linearGradient id="_Linear9" x1="0" y1="0" x2="1" y2="0" gradientUnits="userSpaceOnUse" gradientTransform="matrix(-11.9545,-12.4897,12.4897,-11.9545,564.825,275.199)"><stop offset="0" style="stop-color:#2afdc6;stop-opacity:1"/><stop offset="1" style="stop-color:#0091fc;stop-opacity:1"/></linearGradient><linearGradient id="_Linear10" x1="0" y1="0" x2="1" y2="0" gradientUnits="userSpaceOnUse" gradientTransform="matrix(-11.9545,-12.4897,12.4897,-11.9545,437.076,397.473)"><stop offset="0" style="stop-color:#2afdc6;stop-opacity:1"/><stop offset="1" style="stop-color:#0091fc;stop-opacity:1"/></linearGradient><linearGradient id="_Linear11" x1="0" y1="0" x2="1" y2="0" gradientUnits="userSpaceOnUse" gradientTransform="matrix(130.102,135.927,-135.927,130.102,270.041,30.0232)"><stop offset="0" style="stop-color:#2afdc6;stop-opacity:1"/><stop offset="1" style="stop-color:#0091fc;stop-opacity:1"/></linearGradient><linearGradient id="_Linear12" x1="0" y1="0" x2="1" y2="0" gradientUnits="userSpaceOnUse" gradientTransform="matrix(130.102,135.928,-135.928,130.102,306.751,-5.13001)"><stop offset="0" style="stop-color:#2afdc6;stop-opacity:1"/><stop offset="1" style="stop-color:#0091fc;stop-opacity:1"/></linearGradient><linearGradient id="_Linear13" x1="0" y1="0" x2="1" y2="0" gradientUnits="userSpaceOnUse" gradientTransform="matrix(130.132,135.959,-135.959,130.132,288.067,12.7118)"><stop offset="0" style="stop-color:#2afdc6;stop-opacity:1"/><stop offset="1" style="stop-color:#0091fc;stop-opacity:1"/></linearGradient><linearGradient id="_Linear14" x1="0" y1="0" x2="1" y2="0" gradientUnits="userSpaceOnUse" gradientTransform="matrix(129.855,135.669,-135.669,129.855,297.479,4.14074)"><stop offset="0" style="stop-color:#2afdc6;stop-opacity:1"/><stop offset="1" style="stop-color:#0091fc;stop-opacity:1"/></linearGradient><linearGradient id="_Linear15" x1="0" y1="0" x2="1" y2="0" gradientUnits="userSpaceOnUse" gradientTransform="matrix(130.198,136.027,-136.027,130.198,279.4,20.8851)"><stop offset="0" style="stop-color:#2afdc6;stop-opacity:1"/><stop offset="1" style="stop-color:#0091fc;stop-opacity:1"/></linearGradient><linearGradient id="_Linear16" x1="0" y1="0" x2="1" y2="0" gradientUnits="userSpaceOnUse" gradientTransform="matrix(130.144,135.971,-135.971,130.144,304.765,5.94146)"><stop offset="0" style="stop-color:#2afdc6;stop-opacity:1"/><stop offset="1" style="stop-color:#0091fc;stop-opacity:1"/></linearGradient><linearGradient id="_Linear17" x1="0" y1="0" x2="1" y2="0" gradientUnits="userSpaceOnUse" gradientTransform="matrix(129.981,135.801,-135.801,129.981,320.052,-8.57264)"><stop offset="0" style="stop-color:#2afdc6;stop-opacity:1"/><stop offset="1" style="stop-color:#0091fc;stop-opacity:1"/></linearGradient><linearGradient id="_Linear18" x1="0" y1="0" x2="1" y2="0" gradientUnits="userSpaceOnUse" gradientTransform="matrix(130.132,135.959,-135.959,130.132,312.267,-1.22235)"><stop offset="0" style="stop-color:#2afdc6;stop-opacity:1"/><stop offset="1" style="stop-color:#0091fc;stop-opacity:1"/></linearGradient><linearGradient id="_Linear19" x1="0" y1="0" x2="1" y2="0" gradientUnits="userSpaceOnUse" gradientTransform="matrix(129.823,135.636,-135.636,129.823,316.196,-4.74463)"><stop offset="0" style="stop-color:#2afdc6;stop-opacity:1"/><stop offset="1" style="stop-color:#0091fc;stop-opacity:1"/></linearGradient><linearGradient id="_Linear20" x1="0" y1="0" x2="1" y2="0" gradientUnits="userSpaceOnUse" gradientTransform="matrix(129.96,135.78,-135.78,129.96,308.77,2.27282)"><stop offset="0" style="stop-color:#2afdc6;stop-opacity:1"/><stop offset="1" style="stop-color:#0091fc;stop-opacity:1"/></linearGradient><linearGradient id="_Linear21" x1="0" y1="0" x2="1" y2="0" gradientUnits="userSpaceOnUse" gradientTransform="matrix(130.211,136.041,-136.041,130.211,194.769,102.011)"><stop offset="0" style="stop-color:#2afdc6;stop-opacity:1"/><stop offset="1" style="stop-color:#0091fc;stop-opacity:1"/></linearGradient><linearGradient id="_Linear22" x1="0" y1="0" x2="1" y2="0" gradientUnits="userSpaceOnUse" gradientTransform="matrix(130.119,135.946,-135.946,130.119,209.999,87.4413)"><stop offset="0" style="stop-color:#2afdc6;stop-opacity:1"/><stop offset="1" style="stop-color:#0091fc;stop-opacity:1"/></linearGradient><linearGradient id="_Linear23" x1="0" y1="0" x2="1" y2="0" gradientUnits="userSpaceOnUse" gradientTransform="matrix(130.132,135.959,-135.959,130.132,202.259,94.8422)"><stop offset="0" style="stop-color:#2afdc6;stop-opacity:1"/><stop offset="1" style="stop-color:#0091fc;stop-opacity:1"/></linearGradient><linearGradient id="_Linear24" x1="0" y1="0" x2="1" y2="0" gradientUnits="userSpaceOnUse" gradientTransform="matrix(130.229,136.06,-136.06,130.229,206.078,91.188)"><stop offset="0" style="stop-color:#2afdc6;stop-opacity:1"/><stop offset="1" style="stop-color:#0091fc;stop-opacity:1"/></linearGradient><linearGradient id="_Linear25" x1="0" y1="0" x2="1" y2="0" gradientUnits="userSpaceOnUse" gradientTransform="matrix(129.82,135.633,-135.633,129.82,198.695,98.2645)"><stop offset="0" style="stop-color:#2afdc6;stop-opacity:1"/><stop offset="1" style="stop-color:#0091fc;stop-opacity:1"/></linearGradient><linearGradient id="_Linear26" x1="0" y1="0" x2="1" y2="0" gradientUnits="userSpaceOnUse" gradientTransform="matrix(130.104,135.929,-135.929,130.104,222.854,75.1396)"><stop offset="0" style="stop-color:#2afdc6;stop-opacity:1"/><stop offset="1" style="stop-color:#0091fc;stop-opacity:1"/></linearGradient><linearGradient id="_Linear27" x1="0" y1="0" x2="1" y2="0" gradientUnits="userSpaceOnUse" gradientTransform="matrix(130.128,135.955,-135.955,130.128,259.563,39.9975)"><stop offset="0" style="stop-color:#2afdc6;stop-opacity:1"/><stop offset="1" style="stop-color:#0091fc;stop-opacity:1"/></linearGradient><linearGradient id="_Linear28" x1="0" y1="0" x2="1" y2="0" gradientUnits="userSpaceOnUse" gradientTransform="matrix(130.132,135.959,-135.959,130.132,240.899,57.8585)"><stop offset="0" style="stop-color:#2afdc6;stop-opacity:1"/><stop offset="1" style="stop-color:#0091fc;stop-opacity:1"/></linearGradient><linearGradient id="_Linear29" x1="0" y1="0" x2="1" y2="0" gradientUnits="userSpaceOnUse" gradientTransform="matrix(130.14,135.968,-135.968,130.14,250.1,49.051)"><stop offset="0" style="stop-color:#2afdc6;stop-opacity:1"/><stop offset="1" style="stop-color:#0091fc;stop-opacity:1"/></linearGradient><linearGradient id="_Linear30" x1="0" y1="0" x2="1" y2="0" gradientUnits="userSpaceOnUse" gradientTransform="matrix(130.14,135.968,-135.968,130.14,232.287,66.0891)"><stop offset="0" style="stop-color:#2afdc6;stop-opacity:1"/><stop offset="1" style="stop-color:#0091fc;stop-opacity:1"/></linearGradient></defs></svg>