<?xml version="1.0" encoding="UTF-8" standalone="no"?><!DOCTYPE svg PUBLIC "-//W3C//DTD SVG 1.1//EN" "http://www.w3.org/Graphics/SVG/1.1/DTD/svg11.dtd"><svg width="100%" height="100%" viewBox="0 0 228 133" version="1.1" xmlns="http://www.w3.org/2000/svg" xmlns:xlink="http://www.w3.org/1999/xlink" xml:space="preserve" xmlns:serif="http://www.serif.com/" style="fill-rule:evenodd;clip-rule:evenodd;stroke-linecap:round;stroke-linejoin:round;stroke-miterlimit:1.5;"><g><path d="M225.123,25.602c0,-12.668 -10.285,-22.954 -22.953,-22.954l-175.702,0c-12.668,0 -22.954,10.286 -22.954,22.954l0,82.273c0,12.668 10.286,22.954 22.954,22.954l175.702,-0c12.668,-0 22.953,-10.286 22.953,-22.954l0,-82.273Z" style="fill:#fff;stroke:#081b2e;stroke-width:4.17px;"/><path d="M34.513,71.021l81.649,0.171" style="fill:none;stroke:#081b2e;stroke-width:8.33px;"/><path d="M128.852,71.192l53.35,0.112" style="fill:none;stroke:#1a5d47;stroke-width:8.33px;"/><path d="M50.033,87.119l77.146,0.162" style="fill:none;stroke:#1a5d47;stroke-width:8.33px;"/><path d="M140.379,87.016l37.27,0.078" style="fill:none;stroke:#1a5d47;stroke-width:8.33px;"/><path d="M36.123,102.287l47.403,0.1" style="fill:none;stroke:#081b2e;stroke-width:8.33px;"/><path d="M92.702,55.684l46.919,0.099" style="fill:none;stroke:#081b2e;stroke-width:8.33px;"/><path d="M193.578,71.192l2.213,0.005" style="fill:none;stroke:#081b2e;stroke-width:8.33px;"/><path d="M34.513,55.586l46.919,0.098" style="fill:none;stroke:#081b2e;stroke-width:8.33px;"/><g><path d="M60.481,18.67c0.373,-0.267 0.723,-0.364 1.051,-0.293c0.328,0.071 0.661,0.346 0.998,0.825c0.107,0.142 0.24,0.337 0.399,0.585c0.16,0.249 0.324,0.515 0.493,0.799c0.168,0.284 0.332,0.563 0.492,0.838c0.16,0.275 0.293,0.519 0.399,0.732c0.302,0.532 0.417,0.984 0.346,1.357c-0.071,0.373 -0.284,0.656 -0.638,0.852c-0.089,0.053 -0.173,0.093 -0.253,0.119c-0.08,0.027 -0.156,0.058 -0.227,0.094c0.018,0.088 0.032,0.186 0.04,0.292c0.009,0.107 0.014,0.213 0.014,0.32c-0,0.762 -0.426,2.404 -1.278,4.923c-0.603,1.792 -1.366,3.389 -2.288,4.79c-0.923,1.402 -1.97,2.635 -3.141,3.699c-1.171,1.065 -2.452,1.983 -3.845,2.755c-1.393,0.771 -2.87,1.423 -4.431,1.956c-0.976,0.319 -1.792,0.563 -2.448,0.731c-0.657,0.169 -1.118,0.253 -1.384,0.253c-0.337,0 -0.617,-0.049 -0.838,-0.146c-0.222,-0.098 -0.395,-0.217 -0.519,-0.359c-0.125,-0.142 -0.213,-0.306 -0.267,-0.493c-0.053,-0.186 -0.079,-0.368 -0.079,-0.545c-0,-0.834 0.541,-1.393 1.623,-1.677c2.147,-0.568 4.032,-1.224 5.655,-1.969c1.623,-0.745 3.021,-1.624 4.192,-2.635c-0.586,-0.497 -1.131,-0.953 -1.637,-1.37c-0.506,-0.417 -1.003,-0.812 -1.49,-1.185c-0.488,-0.372 -0.972,-0.731 -1.451,-1.077c-0.479,-0.346 -0.984,-0.697 -1.517,-1.052c-0.266,-0.195 -0.457,-0.403 -0.572,-0.625c-0.115,-0.222 -0.173,-0.439 -0.173,-0.652c0,-0.39 0.133,-0.745 0.399,-1.064c0.32,-0.408 0.648,-0.617 0.985,-0.626c0.337,-0.009 0.692,0.111 1.065,0.359c1.117,0.799 2.231,1.619 3.339,2.462c1.109,0.843 2.169,1.69 3.181,2.542c0.904,-1.189 1.632,-2.444 2.182,-3.766c0.55,-1.322 1.002,-2.763 1.357,-4.325l-10.672,0c-0.638,0.976 -1.295,1.854 -1.969,2.635c-0.674,0.781 -1.322,1.455 -1.943,2.023c-0.621,0.567 -1.113,0.962 -1.477,1.184c-0.363,0.222 -0.696,0.332 -0.998,0.332c-0.141,0 -0.292,-0.039 -0.452,-0.119c-0.16,-0.08 -0.306,-0.187 -0.439,-0.32c-0.133,-0.133 -0.244,-0.288 -0.333,-0.465c-0.088,-0.178 -0.133,-0.373 -0.133,-0.586c0,-0.248 0.058,-0.497 0.173,-0.745c0.116,-0.248 0.324,-0.497 0.626,-0.745c0.638,-0.55 1.242,-1.127 1.809,-1.73c0.568,-0.603 1.105,-1.251 1.61,-1.943c0.506,-0.692 0.998,-1.446 1.477,-2.262c0.479,-0.816 0.949,-1.703 1.411,-2.661c0.408,-0.834 0.905,-1.251 1.49,-1.251c0.16,0 0.333,0.036 0.519,0.107c0.186,0.071 0.364,0.164 0.532,0.279c0.169,0.116 0.311,0.262 0.426,0.439c0.115,0.178 0.173,0.373 0.173,0.586c-0,0.319 -0.071,0.639 -0.213,0.958c-0.035,0.106 -0.089,0.244 -0.16,0.412c-0.071,0.169 -0.186,0.413 -0.346,0.732l9.262,0c0.177,0 0.345,0.005 0.505,0.013c0.16,0.009 0.311,0.023 0.453,0.04c-0.196,-0.337 -0.4,-0.687 -0.613,-1.051c-0.212,-0.363 -0.39,-0.652 -0.532,-0.865c-0.763,-1.064 -0.736,-1.871 0.08,-2.421Zm3.034,-1.624c0.355,-0.248 0.696,-0.341 1.024,-0.279c0.329,0.062 0.67,0.324 1.025,0.785c0.106,0.142 0.235,0.333 0.386,0.572c0.151,0.24 0.306,0.492 0.466,0.758l0.479,0.799c0.159,0.266 0.292,0.505 0.399,0.718c0.301,0.515 0.417,0.945 0.346,1.291c-0.071,0.346 -0.284,0.617 -0.639,0.812c-0.461,0.248 -0.847,0.319 -1.158,0.213c-0.31,-0.107 -0.616,-0.417 -0.918,-0.932c-0.106,-0.159 -0.226,-0.35 -0.359,-0.572c-0.133,-0.222 -0.271,-0.443 -0.412,-0.665c-0.142,-0.222 -0.275,-0.439 -0.4,-0.652c-0.124,-0.213 -0.23,-0.391 -0.319,-0.532c-0.781,-1.012 -0.754,-1.784 0.08,-2.316Z" style="fill:#1a5d47;fill-rule:nonzero;"/><path d="M80.893,26.015c-0.55,-0 -0.989,-0.036 -1.318,-0.107c-0.328,-0.071 -0.581,-0.199 -0.758,-0.386c-0.177,-0.186 -0.293,-0.439 -0.346,-0.758c-0.053,-0.32 -0.08,-0.719 -0.08,-1.198l0,-0.718l-1.517,-0c-0.532,-0 -0.896,-0.08 -1.091,-0.24c-0.195,-0.159 -0.293,-0.443 -0.293,-0.851c0,-0.408 0.098,-0.71 0.293,-0.905c0.195,-0.195 0.559,-0.293 1.091,-0.293l1.517,0l0,-0.479c0,-0.514 0.098,-0.874 0.293,-1.078c0.195,-0.204 0.55,-0.306 1.064,-0.306c0.479,0 0.834,0.102 1.065,0.306c0.23,0.204 0.346,0.564 0.346,1.078l-0,0.479l5.934,0l0,-0.452c0,-0.479 0.098,-0.83 0.293,-1.052c0.195,-0.221 0.559,-0.332 1.091,-0.332c0.515,-0 0.874,0.111 1.078,0.332c0.204,0.222 0.306,0.573 0.306,1.052l0,0.452l2.448,0c0.568,0 0.945,0.098 1.131,0.293c0.187,0.195 0.28,0.497 0.28,0.905c-0,0.408 -0.093,0.692 -0.28,0.851c-0.186,0.16 -0.563,0.24 -1.131,0.24l-2.448,-0l0,0.718c0,0.497 -0.031,0.901 -0.093,1.211c-0.062,0.311 -0.182,0.559 -0.359,0.745c-0.178,0.187 -0.431,0.315 -0.759,0.386c-0.328,0.071 -0.758,0.107 -1.291,0.107l-1.889,-0l0,1.011l4.231,-0c0.976,-0 1.659,0.133 2.05,0.399c0.39,0.266 0.585,0.825 0.585,1.677l-0,0.984c-0,0.781 -0.195,1.322 -0.585,1.624c-0.391,0.301 -1.074,0.452 -2.05,0.452l-4.231,0c0,0.16 -0.004,0.319 -0.013,0.479c-0.009,0.16 -0.022,0.311 -0.04,0.452l6.174,0c0.514,0 0.878,0.076 1.091,0.227c0.213,0.15 0.319,0.448 0.319,0.891c0,0.426 -0.106,0.701 -0.319,0.825c-0.213,0.124 -0.577,0.186 -1.091,0.186l-6.361,0c-0.035,0.16 -0.066,0.315 -0.093,0.466c-0.026,0.151 -0.057,0.297 -0.093,0.439l7.265,0c0.568,0 0.945,0.08 1.131,0.24c0.187,0.159 0.28,0.479 0.28,0.958c-0,0.426 -0.093,0.705 -0.28,0.838c-0.186,0.133 -0.563,0.2 -1.131,0.2l-8.17,-0c-0.443,0.674 -0.913,1.273 -1.41,1.796c-0.497,0.523 -1.06,0.994 -1.69,1.41c-0.63,0.417 -1.335,0.794 -2.116,1.131c-0.78,0.338 -1.676,0.666 -2.687,0.985c-0.55,0.178 -0.976,0.222 -1.278,0.133c-0.301,-0.088 -0.523,-0.381 -0.665,-0.878c-0.142,-0.479 -0.111,-0.847 0.093,-1.104c0.204,-0.258 0.634,-0.484 1.291,-0.679c1.242,-0.355 2.297,-0.758 3.167,-1.211c0.869,-0.452 1.596,-0.98 2.182,-1.583l-5.243,-0c-0.532,-0 -0.896,-0.067 -1.091,-0.2c-0.195,-0.133 -0.293,-0.412 -0.293,-0.838c0,-0.479 0.098,-0.799 0.293,-0.958c0.195,-0.16 0.559,-0.24 1.091,-0.24l6.68,0c0.089,-0.301 0.168,-0.603 0.239,-0.905l-5.854,0c-0.568,0 -0.941,-0.071 -1.118,-0.212c-0.178,-0.142 -0.266,-0.426 -0.266,-0.852c-0,-0.444 0.088,-0.732 0.266,-0.865c0.177,-0.133 0.55,-0.2 1.118,-0.2l6.041,0c0.017,-0.141 0.031,-0.288 0.04,-0.439c0.008,-0.15 0.013,-0.315 0.013,-0.492l-4.471,0c-0.497,0 -0.914,-0.031 -1.251,-0.093c-0.337,-0.062 -0.603,-0.173 -0.798,-0.333c-0.195,-0.159 -0.337,-0.372 -0.426,-0.638c-0.089,-0.267 -0.133,-0.604 -0.133,-1.012l-0,-0.984c-0,-0.816 0.186,-1.366 0.559,-1.65c0.372,-0.284 1.055,-0.426 2.049,-0.426l4.471,-0l-0,-1.011l-2.049,-0Zm-6.733,9.367c-0.355,1.331 -0.772,2.604 -1.251,3.819c-0.479,1.215 -1.02,2.435 -1.623,3.659c-0.249,0.515 -0.533,0.843 -0.852,0.985c-0.319,0.142 -0.71,0.08 -1.171,-0.186c-0.408,-0.249 -0.643,-0.577 -0.705,-0.985c-0.062,-0.408 0.084,-0.94 0.439,-1.597c0.497,-0.905 0.945,-1.912 1.344,-3.02c0.399,-1.109 0.767,-2.329 1.104,-3.66c0.16,-0.62 0.391,-1.033 0.692,-1.237c0.302,-0.204 0.683,-0.235 1.145,-0.093c0.461,0.142 0.771,0.386 0.931,0.732c0.16,0.346 0.142,0.873 -0.053,1.583Zm19.107,7.957c-0.248,0.461 -0.536,0.71 -0.864,0.745c-0.329,0.036 -0.759,-0.088 -1.291,-0.372c-0.976,-0.515 -1.876,-0.958 -2.701,-1.331c-0.825,-0.372 -1.681,-0.754 -2.568,-1.144c-0.515,-0.231 -0.839,-0.475 -0.972,-0.732c-0.133,-0.257 -0.102,-0.617 0.093,-1.078c0.196,-0.426 0.453,-0.661 0.772,-0.705c0.319,-0.044 0.736,0.031 1.251,0.226c2.147,0.816 4.009,1.632 5.588,2.448c0.515,0.267 0.821,0.546 0.919,0.839c0.097,0.293 0.022,0.661 -0.227,1.104Zm-19.48,-15.009c0.479,0.39 0.763,0.776 0.852,1.157c0.089,0.382 -0.045,0.812 -0.399,1.291c-0.302,0.408 -0.63,0.599 -0.985,0.572c-0.355,-0.026 -0.79,-0.235 -1.304,-0.625c-0.532,-0.39 -0.98,-0.71 -1.344,-0.958c-0.364,-0.248 -0.794,-0.532 -1.291,-0.852c-0.904,-0.55 -1.091,-1.295 -0.559,-2.235c0.497,-0.816 1.234,-0.923 2.209,-0.319c0.337,0.212 0.621,0.394 0.852,0.545c0.231,0.151 0.448,0.297 0.652,0.439c0.204,0.142 0.408,0.289 0.612,0.439c0.204,0.151 0.439,0.333 0.705,0.546Zm0.346,-4.604c-0.301,0.408 -0.63,0.603 -0.984,0.585c-0.355,-0.017 -0.737,-0.204 -1.145,-0.558c-0.319,-0.267 -0.67,-0.542 -1.051,-0.825c-0.381,-0.284 -0.75,-0.542 -1.104,-0.772c-0.462,-0.32 -0.737,-0.657 -0.825,-1.011c-0.089,-0.355 0.026,-0.763 0.346,-1.225c0.301,-0.425 0.603,-0.665 0.904,-0.718c0.302,-0.053 0.675,0.071 1.118,0.372c0.461,0.302 0.865,0.59 1.211,0.865c0.346,0.275 0.705,0.572 1.078,0.892c0.461,0.408 0.736,0.798 0.825,1.171c0.088,0.372 -0.036,0.78 -0.373,1.224Zm12.535,0.106c0.195,0 0.314,-0.022 0.359,-0.066c0.044,-0.045 0.066,-0.164 0.066,-0.359l0,-0.559l-5.934,-0l-0,0.638c-0,0.142 0.022,0.235 0.066,0.28c0.045,0.044 0.138,0.066 0.28,0.066l5.163,0Zm-8.064,6.121c0,0.124 0.013,0.2 0.04,0.226c0.027,0.027 0.102,0.04 0.226,0.04l4.072,0l-0,-1.224l-4.072,0c-0.177,0 -0.266,0.08 -0.266,0.24l0,0.718Zm6.866,-0.958l0,1.224l3.859,0c0.177,0 0.266,-0.097 0.266,-0.292l-0,-0.612c-0,-0.213 -0.089,-0.32 -0.266,-0.32l-3.859,0Z" style="fill:#091c2e;fill-rule:nonzero;"/><path d="M96.913,36.5c-0.621,-0 -1.029,-0.124 -1.224,-0.373c-0.195,-0.248 -0.293,-0.603 -0.293,-1.064c0,-0.497 0.098,-0.87 0.293,-1.118c0.195,-0.248 0.603,-0.373 1.224,-0.373l7.984,0c-0.106,-0.212 -0.16,-0.452 -0.16,-0.718c0,-0.39 0.12,-0.71 0.36,-0.958c0.239,-0.248 0.687,-0.488 1.343,-0.719c0.621,-0.213 1.154,-0.399 1.597,-0.558c0.444,-0.16 0.905,-0.338 1.384,-0.533c0.266,-0.088 0.413,-0.186 0.439,-0.292c0.027,-0.107 -0.155,-0.16 -0.545,-0.16l-8.25,-0c-0.568,-0 -0.998,-0.098 -1.291,-0.293c-0.293,-0.195 -0.439,-0.541 -0.439,-1.038c0,-0.461 0.146,-0.816 0.439,-1.064c0.293,-0.249 0.723,-0.373 1.291,-0.373l13.146,0c0.692,0.018 1.233,0.155 1.624,0.413c0.39,0.257 0.625,0.572 0.705,0.944c0.08,0.373 -0.018,0.763 -0.293,1.171c-0.275,0.408 -0.732,0.772 -1.37,1.091c-0.692,0.338 -1.433,0.697 -2.223,1.078c-0.789,0.382 -1.725,0.785 -2.807,1.211c-0.249,0.089 -0.373,0.178 -0.373,0.266c0,0.089 0.124,0.204 0.373,0.346c0.035,0.036 0.08,0.067 0.133,0.093c0.053,0.027 0.106,0.058 0.16,0.093l8.968,0c0.621,0 1.029,0.12 1.224,0.36c0.195,0.239 0.293,0.607 0.293,1.104c-0,0.461 -0.098,0.821 -0.293,1.078c-0.195,0.257 -0.603,0.386 -1.224,0.386l-6.36,-0c0.283,0.656 0.425,1.33 0.425,2.022c0,0.816 -0.088,1.531 -0.266,2.143c-0.177,0.612 -0.492,1.135 -0.944,1.57c-0.453,0.434 -1.056,0.78 -1.81,1.038c-0.754,0.257 -1.708,0.439 -2.861,0.545c-0.834,0.089 -1.849,0.062 -3.047,-0.08c-1.198,-0.142 -2.408,-0.399 -3.633,-0.771c-0.585,-0.196 -1.006,-0.471 -1.264,-0.825c-0.257,-0.355 -0.297,-0.79 -0.119,-1.304c0.141,-0.408 0.416,-0.67 0.825,-0.785c0.408,-0.116 0.922,-0.094 1.543,0.066c1.011,0.302 1.96,0.519 2.848,0.652c0.887,0.133 1.658,0.2 2.315,0.2c0.922,-0.018 1.645,-0.195 2.169,-0.533c0.523,-0.337 0.856,-0.762 0.998,-1.277c0.124,-0.461 0.124,-0.905 -0,-1.331c-0.124,-0.425 -0.399,-0.869 -0.825,-1.33l-12.189,-0Zm9.261,-15.222c-0.035,-0.089 -0.071,-0.178 -0.106,-0.267c-0.036,-0.088 -0.071,-0.186 -0.107,-0.292c-0.159,-0.462 -0.173,-0.874 -0.039,-1.238c0.133,-0.363 0.439,-0.652 0.918,-0.865c0.408,-0.177 0.834,-0.199 1.277,-0.066c0.444,0.133 0.763,0.43 0.958,0.891c0.071,0.196 0.155,0.453 0.253,0.772c0.097,0.319 0.191,0.674 0.279,1.065l6.786,-0c1.491,-0 2.498,0.23 3.021,0.692c0.523,0.461 0.758,1.17 0.705,2.129c-0.018,0.354 -0.071,0.758 -0.159,1.21c-0.089,0.453 -0.24,0.989 -0.453,1.61c-0.195,0.657 -0.501,1.047 -0.918,1.171c-0.417,0.125 -0.838,0.116 -1.264,-0.026c-0.479,-0.195 -0.767,-0.444 -0.865,-0.745c-0.098,-0.302 -0.04,-0.817 0.173,-1.544c0.177,-0.621 0.231,-1.033 0.16,-1.237c-0.071,-0.204 -0.302,-0.306 -0.692,-0.306l-15.994,-0c-0.391,-0 -0.657,0.084 -0.799,0.252c-0.142,0.169 -0.213,0.457 -0.213,0.865l0,0.985c0,0.514 -0.141,0.909 -0.425,1.184c-0.284,0.275 -0.657,0.413 -1.118,0.413c-0.515,-0 -0.909,-0.116 -1.184,-0.346c-0.275,-0.231 -0.413,-0.63 -0.413,-1.198l0,-1.969c0,-1.065 0.244,-1.854 0.732,-2.369c0.488,-0.514 1.273,-0.771 2.355,-0.771l7.132,-0Z" style="fill:#091c2e;fill-rule:nonzero;"/></g></g></svg>