<?xml version="1.0" encoding="UTF-8" standalone="no"?>
<!DOCTYPE svg PUBLIC "-//W3C//DTD SVG 1.1//EN" "http://www.w3.org/Graphics/SVG/1.1/DTD/svg11.dtd">
<svg width="100%" height="100%" viewBox="0 0 1920 1187" version="1.1" xmlns="http://www.w3.org/2000/svg" xmlns:xlink="http://www.w3.org/1999/xlink" xml:space="preserve" xmlns:serif="http://www.serif.com/" style="fill-rule:evenodd;clip-rule:evenodd;stroke-linecap:round;stroke-linejoin:round;stroke-miterlimit:1.5;">
    <path d="M1920,1187L1920,0L1265.18,0C1265.18,0 1267.47,-9.581 1258.78,32.953C1245,100.293 1253.78,247.484 1183.38,363.924C1089.75,518.794 819.482,462.011 609.699,630.227C447.511,760.279 423.823,1187 423.823,1187L1920,1187Z" style="fill:rgb(26,93,71);fill-opacity:0.2;"/>
    <g>
        <g transform="matrix(1.24166,0,0,1.27595,-134.504,-193.68)">
            <ellipse cx="279.929" cy="677.6" rx="155.595" ry="148.127" style="fill:rgb(26,93,71);"/>
        </g>
        <g transform="matrix(1.24166,0,0,1.27595,352.937,258.322)">
            <ellipse cx="279.929" cy="677.6" rx="155.595" ry="148.127" style="fill:rgb(26,93,71);"/>
        </g>
        <g transform="matrix(1.39493,0,0,1.08294,-481.274,-130.416)">
            <ellipse cx="1133.53" cy="1223.07" rx="100.302" ry="108.789" style="fill:rgb(26,93,71);"/>
        </g>
        <path d="M968.242,1154.19L1239.83,1187L0,1187L0,412.39C11.207,435.242 22.753,476.321 74.561,490.502C92.329,495.365 153.121,493.229 174.67,485.642L406.271,670.904C395.007,881.609 478.62,969.942 700.515,933.903L860.432,1016.88C896.768,1061.38 918.591,1119.05 968.242,1154.19" style="fill:rgb(26,93,71);"/>
    </g>
    <g opacity="0.28">
        <g transform="matrix(0.886486,-0.462755,0.462755,0.886486,-346.18,377.007)">
            <path d="M715.495,894.451C715.495,966.2 657.244,1024.45 585.495,1024.45C513.746,1024.45 455.495,966.2 455.495,894.451L529.495,894.451C529.495,925.358 554.588,950.451 585.495,950.451C616.402,950.451 641.495,925.358 641.495,894.451L715.495,894.451Z" style="fill:rgb(118,176,145);"/>
        </g>
    </g>
    <g transform="matrix(-1.13258,0.681077,-0.681077,-1.13258,2891.72,1010.4)">
        <path d="M715.495,894.451C715.495,966.2 657.244,1024.45 585.495,1024.45C513.746,1024.45 455.495,966.2 455.495,894.451L529.495,894.451C529.495,925.358 554.588,950.451 585.495,950.451C616.402,950.451 641.495,925.358 641.495,894.451L715.495,894.451Z" style="fill:none;stroke:rgb(118,176,145);stroke-width:4.54px;"/>
    </g>
    <g id="dots" transform="matrix(0.976778,0.214252,-0.214252,0.976778,111.888,-4.71034)">
        <g id="_2" serif:id="2" transform="matrix(1,0,0,1,0,28.0312)">
            <g transform="matrix(1.15696,0,0,1.26007,78.7302,-237.884)">
                <ellipse cx="28.926" cy="911.468" rx="3.457" ry="3.174" style="fill:rgb(118,176,145);"/>
            </g>
            <g transform="matrix(1.15696,0,0,1.26007,106.78,-237.884)">
                <ellipse cx="28.926" cy="911.468" rx="3.457" ry="3.174" style="fill:rgb(118,176,145);"/>
            </g>
            <g transform="matrix(1.15696,0,0,1.26007,134.826,-237.884)">
                <ellipse cx="28.926" cy="911.468" rx="3.457" ry="3.174" style="fill:rgb(118,176,145);"/>
            </g>
            <g transform="matrix(1.15696,0,0,1.26007,162.867,-237.884)">
                <ellipse cx="28.926" cy="911.468" rx="3.457" ry="3.174" style="fill:rgb(118,176,145);"/>
            </g>
            <g transform="matrix(1.15696,0,0,1.26007,190.837,-237.884)">
                <ellipse cx="28.926" cy="911.468" rx="3.457" ry="3.174" style="fill:rgb(118,176,145);"/>
            </g>
            <g transform="matrix(1.15696,0,0,1.26007,218.823,-237.884)">
                <ellipse cx="28.926" cy="911.468" rx="3.457" ry="3.174" style="fill:rgb(118,176,145);"/>
            </g>
            <g transform="matrix(1.15696,0,0,1.26007,246.872,-237.884)">
                <ellipse cx="28.926" cy="911.468" rx="3.457" ry="3.174" style="fill:rgb(118,176,145);"/>
            </g>
            <g transform="matrix(1.15696,0,0,1.26007,274.917,-237.884)">
                <ellipse cx="28.926" cy="911.468" rx="3.457" ry="3.174" style="fill:rgb(118,176,145);"/>
            </g>
        </g>
        <g id="_21" serif:id="2" transform="matrix(1,0,0,1,0,56.0178)">
            <g transform="matrix(1.15696,0,0,1.26007,78.7302,-237.884)">
                <ellipse cx="28.926" cy="911.468" rx="3.457" ry="3.174" style="fill:rgb(118,176,145);"/>
            </g>
            <g transform="matrix(1.15696,0,0,1.26007,106.78,-237.884)">
                <ellipse cx="28.926" cy="911.468" rx="3.457" ry="3.174" style="fill:rgb(118,176,145);"/>
            </g>
            <g transform="matrix(1.15696,0,0,1.26007,134.826,-237.884)">
                <ellipse cx="28.926" cy="911.468" rx="3.457" ry="3.174" style="fill:rgb(118,176,145);"/>
            </g>
            <g transform="matrix(1.15696,0,0,1.26007,162.867,-237.884)">
                <ellipse cx="28.926" cy="911.468" rx="3.457" ry="3.174" style="fill:rgb(118,176,145);"/>
            </g>
            <g transform="matrix(1.15696,0,0,1.26007,190.837,-237.884)">
                <ellipse cx="28.926" cy="911.468" rx="3.457" ry="3.174" style="fill:rgb(118,176,145);"/>
            </g>
            <g transform="matrix(1.15696,0,0,1.26007,218.823,-237.884)">
                <ellipse cx="28.926" cy="911.468" rx="3.457" ry="3.174" style="fill:rgb(118,176,145);"/>
            </g>
            <g transform="matrix(1.15696,0,0,1.26007,246.872,-237.884)">
                <ellipse cx="28.926" cy="911.468" rx="3.457" ry="3.174" style="fill:rgb(118,176,145);"/>
            </g>
            <g transform="matrix(1.15696,0,0,1.26007,274.917,-237.884)">
                <ellipse cx="28.926" cy="911.468" rx="3.457" ry="3.174" style="fill:rgb(118,176,145);"/>
            </g>
        </g>
        <g id="_22" serif:id="2" transform="matrix(1,0,0,1,0,83.9974)">
            <g transform="matrix(1.15696,0,0,1.26007,78.7302,-237.884)">
                <ellipse cx="28.926" cy="911.468" rx="3.457" ry="3.174" style="fill:rgb(118,176,145);"/>
            </g>
            <g transform="matrix(1.15696,0,0,1.26007,106.78,-237.884)">
                <ellipse cx="28.926" cy="911.468" rx="3.457" ry="3.174" style="fill:rgb(118,176,145);"/>
            </g>
            <g transform="matrix(1.15696,0,0,1.26007,134.826,-237.884)">
                <ellipse cx="28.926" cy="911.468" rx="3.457" ry="3.174" style="fill:rgb(118,176,145);"/>
            </g>
            <g transform="matrix(1.15696,0,0,1.26007,162.867,-237.884)">
                <ellipse cx="28.926" cy="911.468" rx="3.457" ry="3.174" style="fill:rgb(118,176,145);"/>
            </g>
            <g transform="matrix(1.15696,0,0,1.26007,190.837,-237.884)">
                <ellipse cx="28.926" cy="911.468" rx="3.457" ry="3.174" style="fill:rgb(118,176,145);"/>
            </g>
            <g transform="matrix(1.15696,0,0,1.26007,218.823,-237.884)">
                <ellipse cx="28.926" cy="911.468" rx="3.457" ry="3.174" style="fill:rgb(118,176,145);"/>
            </g>
            <g transform="matrix(1.15696,0,0,1.26007,246.872,-237.884)">
                <ellipse cx="28.926" cy="911.468" rx="3.457" ry="3.174" style="fill:rgb(118,176,145);"/>
            </g>
            <g transform="matrix(1.15696,0,0,1.26007,274.917,-237.884)">
                <ellipse cx="28.926" cy="911.468" rx="3.457" ry="3.174" style="fill:rgb(118,176,145);"/>
            </g>
        </g>
        <g id="_23" serif:id="2" transform="matrix(1,0,0,1,0,112.019)">
            <g transform="matrix(1.15696,0,0,1.26007,78.7302,-237.884)">
                <ellipse cx="28.926" cy="911.468" rx="3.457" ry="3.174" style="fill:rgb(118,176,145);"/>
            </g>
            <g transform="matrix(1.15696,0,0,1.26007,106.78,-237.884)">
                <ellipse cx="28.926" cy="911.468" rx="3.457" ry="3.174" style="fill:rgb(118,176,145);"/>
            </g>
            <g transform="matrix(1.15696,0,0,1.26007,134.826,-237.884)">
                <ellipse cx="28.926" cy="911.468" rx="3.457" ry="3.174" style="fill:rgb(118,176,145);"/>
            </g>
            <g transform="matrix(1.15696,0,0,1.26007,162.867,-237.884)">
                <ellipse cx="28.926" cy="911.468" rx="3.457" ry="3.174" style="fill:rgb(118,176,145);"/>
            </g>
            <g transform="matrix(1.15696,0,0,1.26007,190.837,-237.884)">
                <ellipse cx="28.926" cy="911.468" rx="3.457" ry="3.174" style="fill:rgb(118,176,145);"/>
            </g>
            <g transform="matrix(1.15696,0,0,1.26007,218.823,-237.884)">
                <ellipse cx="28.926" cy="911.468" rx="3.457" ry="3.174" style="fill:rgb(118,176,145);"/>
            </g>
            <g transform="matrix(1.15696,0,0,1.26007,246.872,-237.884)">
                <ellipse cx="28.926" cy="911.468" rx="3.457" ry="3.174" style="fill:rgb(118,176,145);"/>
            </g>
            <g transform="matrix(1.15696,0,0,1.26007,274.917,-237.884)">
                <ellipse cx="28.926" cy="911.468" rx="3.457" ry="3.174" style="fill:rgb(118,176,145);"/>
            </g>
        </g>
        <g id="_24" serif:id="2" transform="matrix(1,0,0,1,0,140.05)">
            <g transform="matrix(1.15696,0,0,1.26007,78.7302,-237.884)">
                <ellipse cx="28.926" cy="911.468" rx="3.457" ry="3.174" style="fill:rgb(118,176,145);"/>
            </g>
            <g transform="matrix(1.15696,0,0,1.26007,106.78,-237.884)">
                <ellipse cx="28.926" cy="911.468" rx="3.457" ry="3.174" style="fill:rgb(118,176,145);"/>
            </g>
            <g transform="matrix(1.15696,0,0,1.26007,134.826,-237.884)">
                <ellipse cx="28.926" cy="911.468" rx="3.457" ry="3.174" style="fill:rgb(118,176,145);"/>
            </g>
            <g transform="matrix(1.15696,0,0,1.26007,162.867,-237.884)">
                <ellipse cx="28.926" cy="911.468" rx="3.457" ry="3.174" style="fill:rgb(118,176,145);"/>
            </g>
            <g transform="matrix(1.15696,0,0,1.26007,190.837,-237.884)">
                <ellipse cx="28.926" cy="911.468" rx="3.457" ry="3.174" style="fill:rgb(118,176,145);"/>
            </g>
            <g transform="matrix(1.15696,0,0,1.26007,218.823,-237.884)">
                <ellipse cx="28.926" cy="911.468" rx="3.457" ry="3.174" style="fill:rgb(118,176,145);"/>
            </g>
            <g transform="matrix(1.15696,0,0,1.26007,246.872,-237.884)">
                <ellipse cx="28.926" cy="911.468" rx="3.457" ry="3.174" style="fill:rgb(118,176,145);"/>
            </g>
            <g transform="matrix(1.15696,0,0,1.26007,274.917,-237.884)">
                <ellipse cx="28.926" cy="911.468" rx="3.457" ry="3.174" style="fill:rgb(118,176,145);"/>
            </g>
        </g>
        <g id="_25" serif:id="2" transform="matrix(1,0,0,1,0,168)">
            <g transform="matrix(1.15696,0,0,1.26007,106.78,-237.884)">
                <ellipse cx="28.926" cy="911.468" rx="3.457" ry="3.174" style="fill:rgb(118,176,145);"/>
            </g>
            <g transform="matrix(1.15696,0,0,1.26007,134.826,-237.884)">
                <ellipse cx="28.926" cy="911.468" rx="3.457" ry="3.174" style="fill:rgb(118,176,145);"/>
            </g>
            <g transform="matrix(1.15696,0,0,1.26007,162.867,-237.884)">
                <ellipse cx="28.926" cy="911.468" rx="3.457" ry="3.174" style="fill:rgb(118,176,145);"/>
            </g>
            <g transform="matrix(1.15696,0,0,1.26007,190.837,-237.884)">
                <ellipse cx="28.926" cy="911.468" rx="3.457" ry="3.174" style="fill:rgb(118,176,145);"/>
            </g>
            <g transform="matrix(1.15696,0,0,1.26007,218.823,-237.884)">
                <ellipse cx="28.926" cy="911.468" rx="3.457" ry="3.174" style="fill:rgb(118,176,145);"/>
            </g>
            <g transform="matrix(1.15696,0,0,1.26007,246.872,-237.884)">
                <ellipse cx="28.926" cy="911.468" rx="3.457" ry="3.174" style="fill:rgb(118,176,145);"/>
            </g>
            <g transform="matrix(1.15696,0,0,1.26007,274.917,-237.884)">
                <ellipse cx="28.926" cy="911.468" rx="3.457" ry="3.174" style="fill:rgb(118,176,145);"/>
            </g>
        </g>
        <g id="_26" serif:id="2" transform="matrix(1,0,0,1,0,196.012)">
            <g transform="matrix(1.15696,0,0,1.26007,106.78,-237.884)">
                <ellipse cx="28.926" cy="911.468" rx="3.457" ry="3.174" style="fill:rgb(118,176,145);"/>
            </g>
            <g transform="matrix(1.15696,0,0,1.26007,134.826,-237.884)">
                <ellipse cx="28.926" cy="911.468" rx="3.457" ry="3.174" style="fill:rgb(118,176,145);"/>
            </g>
            <g transform="matrix(1.15696,0,0,1.26007,162.867,-237.884)">
                <ellipse cx="28.926" cy="911.468" rx="3.457" ry="3.174" style="fill:rgb(118,176,145);"/>
            </g>
            <g transform="matrix(1.15696,0,0,1.26007,190.837,-237.884)">
                <ellipse cx="28.926" cy="911.468" rx="3.457" ry="3.174" style="fill:rgb(118,176,145);"/>
            </g>
            <g transform="matrix(1.15696,0,0,1.26007,218.823,-237.884)">
                <ellipse cx="28.926" cy="911.468" rx="3.457" ry="3.174" style="fill:rgb(118,176,145);"/>
            </g>
            <g transform="matrix(1.15696,0,0,1.26007,246.872,-237.884)">
                <ellipse cx="28.926" cy="911.468" rx="3.457" ry="3.174" style="fill:rgb(118,176,145);"/>
            </g>
            <g transform="matrix(1.15696,0,0,1.26007,274.917,-237.884)">
                <ellipse cx="28.926" cy="911.468" rx="3.457" ry="3.174" style="fill:rgb(118,176,145);"/>
            </g>
        </g>
        <g id="_27" serif:id="2" transform="matrix(1,0,0,1,0,224.029)">
            <g transform="matrix(1.15696,0,0,1.26007,106.78,-237.884)">
                <ellipse cx="28.926" cy="911.468" rx="3.457" ry="3.174" style="fill:rgb(118,176,145);"/>
            </g>
            <g transform="matrix(1.15696,0,0,1.26007,134.826,-237.884)">
                <ellipse cx="28.926" cy="911.468" rx="3.457" ry="3.174" style="fill:rgb(118,176,145);"/>
            </g>
            <g transform="matrix(1.15696,0,0,1.26007,162.867,-237.884)">
                <ellipse cx="28.926" cy="911.468" rx="3.457" ry="3.174" style="fill:rgb(118,176,145);"/>
            </g>
            <g transform="matrix(1.15696,0,0,1.26007,190.837,-237.884)">
                <ellipse cx="28.926" cy="911.468" rx="3.457" ry="3.174" style="fill:rgb(118,176,145);"/>
            </g>
            <g transform="matrix(1.15696,0,0,1.26007,218.823,-237.884)">
                <ellipse cx="28.926" cy="911.468" rx="3.457" ry="3.174" style="fill:rgb(118,176,145);"/>
            </g>
            <g transform="matrix(1.15696,0,0,1.26007,246.872,-237.884)">
                <ellipse cx="28.926" cy="911.468" rx="3.457" ry="3.174" style="fill:rgb(118,176,145);"/>
            </g>
            <g transform="matrix(1.15696,0,0,1.26007,274.917,-237.884)">
                <ellipse cx="28.926" cy="911.468" rx="3.457" ry="3.174" style="fill:rgb(118,176,145);"/>
            </g>
        </g>
        <g id="_28" serif:id="2" transform="matrix(1,0,0,1,0,251.86)">
            <g transform="matrix(1.15696,0,0,1.26007,106.78,-237.884)">
                <ellipse cx="28.926" cy="911.468" rx="3.457" ry="3.174" style="fill:rgb(118,176,145);"/>
            </g>
            <g transform="matrix(1.15696,0,0,1.26007,134.826,-237.884)">
                <ellipse cx="28.926" cy="911.468" rx="3.457" ry="3.174" style="fill:rgb(118,176,145);"/>
            </g>
            <g transform="matrix(1.15696,0,0,1.26007,162.867,-237.884)">
                <ellipse cx="28.926" cy="911.468" rx="3.457" ry="3.174" style="fill:rgb(118,176,145);"/>
            </g>
            <g transform="matrix(1.15696,0,0,1.26007,190.837,-237.884)">
                <ellipse cx="28.926" cy="911.468" rx="3.457" ry="3.174" style="fill:rgb(118,176,145);"/>
            </g>
            <g transform="matrix(1.15696,0,0,1.26007,218.823,-237.884)">
                <ellipse cx="28.926" cy="911.468" rx="3.457" ry="3.174" style="fill:rgb(118,176,145);"/>
            </g>
            <g transform="matrix(1.15696,0,0,1.26007,246.872,-237.884)">
                <ellipse cx="28.926" cy="911.468" rx="3.457" ry="3.174" style="fill:rgb(118,176,145);"/>
            </g>
        </g>
        <g id="_1" serif:id="1">
            <g transform="matrix(1.15696,0,0,1.26007,50.7272,-237.884)">
                <ellipse cx="28.926" cy="911.468" rx="3.457" ry="3.174" style="fill:rgb(118,176,145);"/>
            </g>
            <g transform="matrix(1.15696,0,0,1.26007,78.7302,-237.884)">
                <ellipse cx="28.926" cy="911.468" rx="3.457" ry="3.174" style="fill:rgb(118,176,145);"/>
            </g>
            <g transform="matrix(1.15696,0,0,1.26007,106.78,-237.884)">
                <ellipse cx="28.926" cy="911.468" rx="3.457" ry="3.174" style="fill:rgb(118,176,145);"/>
            </g>
            <g transform="matrix(1.15696,0,0,1.26007,134.826,-237.884)">
                <ellipse cx="28.926" cy="911.468" rx="3.457" ry="3.174" style="fill:rgb(118,176,145);"/>
            </g>
            <g transform="matrix(1.15696,0,0,1.26007,162.867,-237.884)">
                <ellipse cx="28.926" cy="911.468" rx="3.457" ry="3.174" style="fill:rgb(118,176,145);"/>
            </g>
            <g transform="matrix(1.15696,0,0,1.26007,190.837,-237.884)">
                <ellipse cx="28.926" cy="911.468" rx="3.457" ry="3.174" style="fill:rgb(118,176,145);"/>
            </g>
            <g transform="matrix(1.15696,0,0,1.26007,218.823,-237.884)">
                <ellipse cx="28.926" cy="911.468" rx="3.457" ry="3.174" style="fill:rgb(118,176,145);"/>
            </g>
            <g transform="matrix(1.15696,0,0,1.26007,246.872,-237.884)">
                <ellipse cx="28.926" cy="911.468" rx="3.457" ry="3.174" style="fill:rgb(118,176,145);"/>
            </g>
            <g transform="matrix(1.15696,0,0,1.26007,274.917,-237.884)">
                <ellipse cx="28.926" cy="911.468" rx="3.457" ry="3.174" style="fill:rgb(118,176,145);"/>
            </g>
        </g>
    </g>
    <g transform="matrix(0.89921,0,0,0.924579,172.321,26.2773)">
        <ellipse cx="1769.45" cy="493.453" rx="56.16" ry="54.619" style="fill:none;stroke:rgb(118,176,145);stroke-width:30.7px;"/>
    </g>
    <g transform="matrix(1.82513,0,0,1.87662,-1999.1,-571.526)">
        <ellipse cx="1769.45" cy="493.453" rx="56.16" ry="54.619" style="fill:none;stroke:white;stroke-width:27.01px;"/>
    </g>
    <g transform="matrix(0.489669,0,0,0.503484,178.364,-109.985)">
        <ellipse cx="1769.45" cy="493.453" rx="56.16" ry="54.619" style="fill:none;stroke:rgb(118,176,145);stroke-width:36.24px;"/>
    </g>
    <path d="M0,317.391C3.682,330.165 11.045,355.713 16.615,374.861C39.353,453.038 22.407,700.334 136.432,786.455C254.64,875.736 596.839,843.788 725.865,910.546C824.3,961.476 881.826,1111.83 910.588,1187" style="fill:none;stroke:rgb(194,32,44);stroke-width:4px;"/>
</svg>
