<?xml version="1.0" encoding="UTF-8" standalone="no"?><!DOCTYPE svg PUBLIC "-//W3C//DTD SVG 1.1//EN" "http://www.w3.org/Graphics/SVG/1.1/DTD/svg11.dtd"><svg width="100%" height="100%" viewBox="0 0 349 600" version="1.1" xmlns="http://www.w3.org/2000/svg" xmlns:xlink="http://www.w3.org/1999/xlink" xml:space="preserve" xmlns:serif="http://www.serif.com/" style="fill-rule:evenodd;clip-rule:evenodd;stroke-linecap:round;stroke-linejoin:round;stroke-miterlimit:1.5;"><path d="M315.713,53.208c0,-24.919 -20.231,-45.15 -45.149,-45.15l-161.829,0c-24.918,0 -45.149,20.231 -45.149,45.15l-0,489.531c-0,24.918 20.231,45.149 45.149,45.149l161.829,0c24.918,0 45.149,-20.231 45.149,-45.149l0,-489.531Z" style="fill:none;stroke:#091c2e;stroke-width:12.5px;"/><path d="M280.264,587.392c7.926,-0 22.981,-5.144 29.197,-9.65c11.078,-8.029 22.509,-17.014 22.509,-32.977l-0,-489.53c-0,-9.824 -5.287,-19.234 -13.043,-27.029c-11.918,-11.98 -29.667,-20.148 -43.027,-20.148" style="fill:none;stroke:#091c2e;stroke-width:12.5px;stroke-linecap:square;"/><path d="M63.586,381.259c124.713,-2.463 128.908,89.434 252.127,89.343" style="fill:none;stroke:#091c2e;stroke-width:4.17px;stroke-linecap:square;"/><path d="M315.713,83.736c-124.713,-2.463 -128.909,89.434 -252.127,89.343" style="fill:none;stroke:#091c2e;stroke-width:4.17px;stroke-linecap:square;"/><g><path d="M214.908,522.536c0,-11.099 -9.01,-20.109 -20.109,-20.109l-172.03,-0c-11.098,-0 -20.109,9.01 -20.109,20.109l0,12.633c0,11.099 9.011,20.109 20.109,20.109l172.03,0c11.099,0 20.109,-9.01 20.109,-20.109l0,-12.633Z" style="fill:#fff;stroke:#091c2e;stroke-width:4.17px;"/><path d="M28.438,523.634l153.015,-0.389" style="fill:none;stroke:#091c2e;stroke-width:4.17px;"/><path d="M28.438,536.76l73.826,0.118" style="fill:none;stroke:#091c2e;stroke-width:4.17px;"/></g><g><path d="M133.634,121.234c0,0 -8.996,16.707 -6.426,32.129c0,0 -5.139,-10.282 -5.139,-15.422c-0,0 -4.433,17.657 2.569,33.414c10.281,23.131 28.273,33.414 38.554,35.984l-5.14,-5.142l11.977,5.142l-1.696,2.569c-0,0 23.133,2.57 41.125,-7.711c-0,0 -0.548,5.712 -10.555,7.997c-0,0 2.844,2.284 7.983,2.284c0,0 -30.35,10.283 -55.014,0c0,0 24.172,17.994 65.297,2.572c41.123,-15.422 42.519,-54.04 41.123,-69.398c-2.57,-28.272 -28.273,-71.967 -89.959,-48.836c-0,0 5.141,-7.711 25.703,-10.281c-0,0 -7.711,-2.569 -17.992,0c-0,0 5.139,-5.141 25.703,-5.141c-0,0 -35.842,-7.853 -59.117,15.422c-23.133,23.133 -8.996,24.418 -8.996,24.418" style="fill:#c2202c;fill-rule:nonzero;"/><path d="M170.903,104.528l18.484,-0c0,-0 7.219,-0 7.219,12.85c-0,0 15.422,2.572 23.133,10.283c7.709,7.709 8.316,17.991 2.57,17.991c-7.711,0 -7.711,-5.141 -7.711,-10.282c-0,-0 -11.431,-10.281 -24.992,-10.281c-13.562,0 -26.414,12.852 -31.553,23.133c-0,0 -5.142,0 -2.572,-10.281l12.852,-17.991l2.57,5.139c0,0 7.711,-5.139 12.851,-7.711c-0,0 -12.851,-10.281 -12.851,-12.85" style="fill-rule:nonzero;"/><path d="M181.184,184.206c-2.57,-2.57 -15.422,-12.851 -15.422,-12.851c0,0 4.103,-4.853 16.189,-6.282c-0,0 1.803,6.282 4.374,8.852c2.57,2.57 -2.571,12.851 -5.141,10.281m30.844,-25.703l-23.133,-1.039l0,-5.25l17.992,-14.273l-7.711,-2.571l-28.273,-0c0,-0 2.57,7.711 7.711,7.711l7.711,-0l1.457,1.259l-3.274,6.367l0,5.663c-14.666,0.437 -23.885,7.274 -26.457,12.414c-2.57,5.141 23.133,23.133 28.274,25.703c5.14,2.569 7.71,-12.851 7.973,-17.117c0.262,-4.265 -5.403,-11.156 -5.403,-11.156l17.992,0l-0,5.141c-0,2.57 7.711,-2.571 10.281,-5.141c2.569,-2.57 -5.14,-7.711 -5.14,-7.711" style="fill-rule:nonzero;"/><path d="M176.044,104.528l18.484,-0c-0,-0 7.219,-0 7.219,12.85c-0,0 15.422,2.572 23.133,10.283c7.709,7.709 8.316,17.991 2.569,17.991c-7.711,0 -7.711,-5.141 -7.711,-10.282c0,-0 -11.43,-10.281 -24.992,-10.281c-13.563,0 -26.413,12.852 -31.553,23.133c0,0 -5.141,0 -2.571,-10.281l12.852,-17.991l2.57,5.139c-0,0 7.711,-5.139 12.85,-7.711c0,0 -12.85,-10.281 -12.85,-12.85" style="fill:#fff;fill-rule:nonzero;"/><path d="M186.325,184.206c-2.57,-2.57 -15.422,-12.851 -15.422,-12.851c-0,0 4.102,-4.853 16.188,-6.282c0,0 1.803,6.282 4.375,8.852c2.57,2.57 -2.572,12.851 -5.141,10.281m30.844,-25.703l-23.133,-1.039l-0,-5.25l17.992,-14.273l-7.712,-2.571l-28.272,-0c-0,-0 2.57,7.711 7.711,7.711l7.711,-0l1.456,1.259l-3.273,6.367l-0,5.663c-14.666,0.437 -23.886,7.274 -26.457,12.414c-2.57,5.141 23.133,23.133 28.274,25.703c5.139,2.569 7.709,-12.851 7.973,-17.117c0.262,-4.265 -5.403,-11.156 -5.403,-11.156l17.992,0l-0,5.141c-0,2.57 7.711,-2.571 10.28,-5.141c2.57,-2.57 -5.139,-7.711 -5.139,-7.711" style="fill:#fff;fill-rule:nonzero;"/></g></svg>