<?xml version="1.0" encoding="UTF-8" standalone="no"?><!DOCTYPE svg PUBLIC "-//W3C//DTD SVG 1.1//EN" "http://www.w3.org/Graphics/SVG/1.1/DTD/svg11.dtd"><svg width="100%" height="100%" viewBox="0 0 1722 1328" version="1.1" xmlns="http://www.w3.org/2000/svg" xmlns:xlink="http://www.w3.org/1999/xlink" xml:space="preserve" xmlns:serif="http://www.serif.com/" style="fill-rule:evenodd;clip-rule:evenodd;stroke-linejoin:round;stroke-miterlimit:2;"><g id="text"><path d="M458.709,1090.3c-2.072,0 -4.065,0.076 -6.058,0.076c-3.585,0 -5.42,2.473 -5.979,5.982c-0.319,2.394 -0.24,4.864 -0.24,7.334l0,150.356c0,5.66 -0.079,11.399 0,17.059l35.956,0l0,-78.128c0,-1.914 0.079,-3.825 0.079,-5.657c-0.079,-3.032 1.115,-4.624 3.986,-4.624l5.979,0c27.665,0 55.409,-0.082 83.071,0c13.392,0 11.8,-1.914 11.8,13.152c0.077,25.116 0.077,50.144 0.077,75.257l35.956,0c0.079,-56.682 0.079,-113.361 -0,-170.046c-0,-8.528 -1.912,-10.524 -9.647,-10.761l-154.98,0Zm20.489,31.569l109.777,0l-0,27.346l-109.777,0l0,-27.346Z" style="fill:url(#_Linear1);fill-rule:nonzero;"/><path d="M3.664,1090.3l-0,33.562c15.563,0.003 32.819,0.003 50.44,0.003c27.231,0 55.33,-0.003 79.385,0.014c7.401,0.003 7.528,0.074 7.54,6.668c0.048,32.941 0.048,65.882 -0,98.823c-0.012,6.47 -0.144,6.581 -6.877,6.592c-30.694,0.045 -61.391,0.036 -92.088,0.005c-6.933,-0.008 -7,-0.087 -7.015,-7.08c-0.036,-20.712 -0.011,-41.424 -0.017,-62.135l-35.013,-0c-0.005,30.459 -0.005,60.919 0,91.373c0,1.499 -0.079,3.009 0.082,4.488c0.534,5.014 2.583,7.185 7.447,7.8c1.722,0.217 3.487,0.113 5.237,0.113c50.658,0.006 101.318,0.003 151.976,0.003c1.251,-0 2.501,0.056 3.741,-0.043c5.905,-0.457 8.051,-2.518 8.5,-8.279c0.155,-1.985 0.059,-3.989 0.059,-5.985c0.003,-25.454 0.005,-127.275 -0,-152.727c-0.003,-12.926 -0.257,-13.192 -12.845,-13.192c-24.929,-0.003 -52.603,-0.005 -80.276,-0.005c-27.673,-0 -55.347,0.002 -80.276,0.002Z" style="fill:url(#_Linear2);fill-rule:nonzero;"/><path d="M833.005,1140.28c-49.667,0 -99.334,0 -148.922,0.082c-2.55,0 -5.022,0.319 -7.493,0.638c-4.384,0.559 -6.379,3.509 -6.856,7.653c-0.317,2.23 -0.161,4.463 -0.161,6.696c-0.079,24.952 -0.079,49.907 -0.079,74.859c-0,25.669 -0,71.511 0.079,97.18l35.956,0c0.079,-10.205 -0,-40.419 0.079,-50.621c-0,-6.058 0.161,-6.058 6.379,-6.219c1.754,-0.082 119.821,0 119.821,0c2.233,0 4.466,0.079 6.696,-0.082c5.979,-0.556 8.373,-3.029 9.09,-9.008c0.079,-1.513 -0,-2.95 -0,-4.463c0.079,-34.44 0.079,-68.883 -0,-103.317c-0,-10.843 -2.312,-13.079 -13.076,-13.398l-1.513,0Zm-130.347,29.816l112.249,0l-0,68.798l-112.249,0l-0,-68.798Z" style="fill:url(#_Linear3);fill-rule:nonzero;"/><path d="M1057.26,1140.28c-49.664,0 -99.331,0 -148.996,0.082c-2.475,0 -4.945,0.319 -7.418,0.638c-4.384,0.559 -6.375,3.509 -6.857,7.653c-0.316,2.23 -0.237,4.463 -0.237,6.696l-0,74.859c-0,25.669 -0,71.511 0.079,97.18l35.953,0l-0,-50.621c0.161,-6.058 0.24,-6.058 6.459,-6.219c1.753,-0.082 119.82,0 119.82,0c2.233,0 4.466,0.079 6.699,-0.082c5.979,-0.556 8.37,-3.029 9.008,-9.008c0.161,-1.513 0.082,-2.95 0.082,-4.463l-0,-103.317c-0,-10.843 -2.315,-13.079 -13.155,-13.398l-1.437,0Zm-130.423,29.816l112.328,0l-0,68.798l-112.328,0l-0,-68.798Z" style="fill:url(#_Linear4);fill-rule:nonzero;"/><path d="M1690.01,1238.9l-112.164,0l-0,-66.328l112.164,0l0,66.328Zm18.019,-98.617c-1.513,-0.079 -2.95,0 -4.466,0l-78.684,0c-12.915,0 -25.909,0.082 -38.906,-0.079c-5.739,0 -5.897,-0.237 -6.134,-5.739c-0.082,-1.753 -0,-3.506 -0,-5.262c-0,-5.66 0.076,-52.377 0.076,-58.037l-34.917,0l0,109.059c0,25.751 -0.079,51.423 0,77.089c0,12.52 0.796,13.395 12.915,13.395l150.514,0c1.516,0 3.032,0.082 4.545,0c6.459,-0.48 8.61,-2.789 8.929,-9.488c0.158,-1.434 0.079,-2.95 0.079,-4.463l0,-102.603c0,-11.639 -2.072,-13.711 -13.951,-13.872" style="fill:#fff;fill-rule:nonzero;"/><path d="M383.938,1140.28c-23.961,-0.002 -47.922,0 -71.881,0c-24.209,0 -48.419,-0.008 -72.629,0.014c-2.49,0 -5.016,-0.031 -7.461,0.342c-6.148,0.949 -8.186,3.207 -8.655,9.302c-0.15,1.984 -0.056,3.991 -0.056,5.987c-0.003,25.455 -0,50.915 -0,76.372c-0,9.237 -0.079,18.471 0.025,27.702c0.096,8.297 2.397,10.479 10.809,10.676c0.748,0.014 1.496,0.006 2.247,0.006c28.701,-0 57.402,0.003 86.103,-0.006c0.471,0 0.943,0.006 1.414,0.009l0,-34.731c-0.751,0.008 -1.507,0.025 -2.255,0.025c-5.674,0 -11.349,0 -17.02,0.003c-13.048,0.009 -26.092,0.017 -39.137,-0.034c-5.872,-0.025 -6.078,-0.206 -6.109,-5.778c-0.082,-16.472 -0.079,-32.944 -0.003,-49.416c0.028,-5.714 0.175,-5.869 5.948,-5.877c31.451,-0.051 62.898,-0.054 94.346,0.002c5.629,0.012 5.756,0.175 5.79,6.044c0.079,14.225 0.028,28.453 0.028,42.683c0.003,11.812 -0.085,33.495 0.048,45.3l34.745,0c0.034,-35.905 0.031,-81.685 -0,-117.598c-0.006,-8.816 -1.598,-10.454 -10.31,-10.987c-0.841,-0.051 -4.838,-0.04 -5.987,-0.04Z" style="fill:url(#_Linear5);fill-rule:nonzero;"/><path d="M1357.84,1228.62c-0.048,-15.215 -0.031,-30.431 -0.008,-45.647c0.011,-8.076 0.045,-8.107 8.291,-8.11c29.931,-0.017 59.866,-0.009 89.798,-0.006c1.25,0 2.498,0.062 3.74,0.012c2.716,-0.111 4.277,0.951 4.209,3.87c-0.042,1.744 0.017,3.492 0.017,5.239c0.003,22.705 0.003,61.015 0.003,83.72l34.889,0c0.002,-32.802 0.002,-81.207 0.002,-114.007c0,-1.496 0.068,-2.998 -0.039,-4.492c-0.378,-5.225 -2.473,-7.715 -7.625,-8.587c-2.433,-0.409 -4.971,-0.308 -7.461,-0.311c-24.444,-0.019 -48.891,-0.011 -73.335,-0.011c-25.194,0 -50.389,-0.037 -75.584,0.017c-10.549,0.023 -12.929,2.386 -12.935,12.582c-0.017,35.174 -0.011,70.345 -0.003,105.516c0.003,1.745 -0.079,3.518 0.187,5.226c0.641,4.115 2.659,6.156 6.78,6.84c1.708,0.285 3.481,0.208 5.223,0.208c28.116,0.012 56.23,0.017 84.344,-0.014l0,-34.68c-17.629,-0.002 -35.261,0.02 -52.896,-0.014c-7.512,-0.011 -7.577,-0.07 -7.597,-7.351" style="fill:#fff;fill-rule:nonzero;"/><path d="M1275.66,1236c-37.424,-0.003 -74.845,0.017 -112.269,-0.014c-11.653,-0.012 -10.197,1.036 -10.211,-10.584c-0.048,-39.219 -0.02,-92.093 -0.025,-131.315l-35.123,0c-0.003,24.145 -0.003,61.947 -0.003,86.092l-0,31.436c0.003,16.215 -0.043,32.436 0.02,48.654c0.033,8.7 1.747,10.295 10.639,10.411c0.5,0.005 1,0.003 1.499,0.003c48.49,-0 96.98,-0 145.473,-0.003l-0,-34.68Z" style="fill:#fff;fill-rule:nonzero;"/></g><g id="Layer-1" serif:id="Layer 1"><path d="M610.774,471.379c-22.324,0 -40.504,18.18 -40.504,40.504l0.039,510.437c-0.039,10.824 4.187,21.006 11.84,28.662c7.619,7.616 17.801,11.842 28.627,11.803l63.429,-0l24.402,0.039l36.921,-0.039l1.471,0.039l0.037,-0.039l384.175,0.039c22.324,0 40.504,-18.177 40.504,-40.504l-0,-388.212l-0.04,-38.429l0.04,-52.004l-38.432,0.037l0,56.041l-0.034,34.355l0.034,388.252c0,1.129 -0.903,2.035 -2.035,2.035l-510.474,0c-1.132,0 -2.075,-0.943 -2.075,-2.075l-0,-510.477c-0,-1.129 0.906,-2.032 2.038,-2.032l143.533,-0l-0.037,-38.432l-143.459,0Z" style="fill:url(#_Linear6);fill-rule:nonzero;"/><path d="M1112.49,384.023c0.161,0.212 0.161,0.48 -0,0.695l-7.199,7.198c2.451,-2.665 4.692,-5.386 6.772,-8.319l0.427,0.426Z" style="fill:#1b0351;fill-rule:nonzero;"/><path d="M1183.73,452.899l-52.857,52.854c-0.079,0 -0.158,0.079 -0.319,0.079c-0.079,0 -0.161,-0.079 -0.24,-0.079l-55.087,-55.087l26.705,-26.705l8.215,-8.212l16.104,-16.105l2.149,-2.072l3.111,-3.19c0.796,1.835 1.674,3.509 2.631,5.183c3.029,5.42 6.459,9.965 6.459,9.965c0.316,0.398 0.556,0.717 0.796,1.036c0.079,0.161 0.161,0.161 0.161,0.24l42.172,42.093Z" style="fill:#1b0351;fill-rule:nonzero;"/><path d="M748.882,319.596l-42.347,42.347c-0.107,0.107 -0.161,0.161 -0.266,0.161c-0.107,-0 -0.214,-0.054 -0.321,-0.161l-21.012,-21.014l-47.894,-47.894c-0.161,-0.158 -0.161,-0.427 0,-0.587l42.347,-42.345l22.293,22.347l47.2,47.146Z" style="fill:#1b0351;fill-rule:nonzero;"/><path d="M964.295,235.186l-65.973,65.975c-0.48,0.48 -0.852,0.96 -1.121,1.493c-1.707,2.826 -1.281,6.561 1.121,8.96l65.973,66.026c2.664,2.668 6.828,2.877 9.708,0.587c0.268,-0.16 0.53,-0.375 0.748,-0.587l26.504,-26.507l39.468,-39.519c2.933,-2.882 2.933,-7.574 0,-10.453l-65.972,-65.975c-1.389,-1.386 -3.255,-2.185 -5.228,-2.185c-1.974,-0 -3.84,0.799 -5.228,2.185Z" style="fill:url(#_Linear7);fill-rule:nonzero;"/><path d="M828.175,0.717l-20.568,20.489c-0.878,0.957 -0.878,2.394 -0,3.269l20.568,20.568c0.875,0.875 2.391,0.875 3.269,0l20.568,-20.568c0.875,-0.875 0.875,-2.312 -0,-3.269l-20.568,-20.489c-0.401,-0.48 -1.036,-0.717 -1.598,-0.717c-0.635,0 -1.197,0.237 -1.671,0.717Zm102.521,88.652l-20.568,20.489c-0.875,0.954 -0.875,2.391 -0,3.266l20.568,20.568c0.875,0.878 2.312,0.878 3.19,0l20.565,-20.568c0.881,-0.875 0.881,-2.312 -0,-3.266l-20.565,-20.489c-0.401,-0.48 -0.957,-0.72 -1.595,-0.72c-0.638,0 -1.197,0.24 -1.595,0.72Zm-117.11,56.442l-38.426,38.426c-1.753,1.753 -1.753,4.463 -0,6.14l38.426,38.423c1.671,1.674 4.384,1.674 6.061,0l38.502,-38.423c1.671,-1.677 1.671,-4.387 -0,-6.14l-38.502,-38.426c-0.802,-0.796 -1.838,-1.276 -3.032,-1.276c-1.115,0 -2.233,0.48 -3.029,1.276Z" style="fill:url(#_Linear8);fill-rule:nonzero;"/><path d="M1208.7,353.354l-20.548,20.549c-0.898,0.9 -0.898,2.36 -0,3.257l20.548,20.549c0.9,0.9 2.36,0.9 3.26,-0l20.549,-20.549c0.9,-0.897 0.9,-2.357 -0,-3.257l-20.549,-20.549c-0.437,-0.434 -1.016,-0.677 -1.628,-0.677c-0.619,-0 -1.195,0.243 -1.632,0.677Z" style="fill:url(#_Linear9);fill-rule:nonzero;"/><path d="M510.037,345.354l-20.549,20.548c-0.9,0.898 -0.9,2.36 0,3.258l20.549,20.551c0.897,0.895 2.36,0.895 3.26,0l20.546,-20.551c0.897,-0.898 0.897,-2.36 -0,-3.258l-20.546,-20.548c-0.437,-0.435 -1.016,-0.677 -1.632,-0.677c-0.615,-0 -1.194,0.242 -1.628,0.677Z" style="fill:url(#_Linear10);fill-rule:nonzero;"/><path d="M1123.7,393.426l-24.712,24.715l-17.779,17.855l-26.468,26.389c-0.158,0.079 -0.158,0.322 -0,0.477l68.959,68.959c0.082,0.082 0.161,0.161 0.243,0.161c0.158,0 0.237,-0.079 0.316,-0.161l26.465,-26.386l42.494,-42.573c0.161,-0.155 0.161,-0.398 -0,-0.477l-9.485,-9.485l-42.175,-42.096c-0,-0.076 -0.079,-0.076 -0.161,-0.237l-17.138,-17.141c-0.079,-0.079 -0.178,-0.118 -0.28,-0.118c-0.098,-0 -0.2,0.039 -0.279,0.118Z" style="fill:url(#_Linear11);fill-rule:nonzero;"/><path d="M1123.7,185.911l-68.959,68.959c-0.158,0.161 -0.158,0.319 -0,0.477l68.959,68.959c0.082,0.082 0.161,0.161 0.243,0.161c0.158,0 0.237,-0.079 0.316,-0.161l68.959,-68.959c0.161,-0.158 0.161,-0.316 -0,-0.477l-68.959,-68.959c-0.079,-0.079 -0.178,-0.118 -0.28,-0.118c-0.098,-0 -0.2,0.039 -0.279,0.118Z" style="fill:url(#_Linear12);fill-rule:nonzero;"/><rect x="1121.69" y="316.521" width="4.576" height="88.113" style="fill:url(#_Linear13);"/><path d="M1139.89,300.469l-6.061,1.914c-8.13,3.269 -17.302,2.394 -25.912,1.355c-1.592,-0.158 -3.184,-0.319 -4.703,-0.48c0.717,0.802 3.19,3.91 3.509,4.308c-0,0 3.43,4.542 6.456,9.886c3.831,6.775 6.781,15.227 8.531,20.647c0.796,2.71 1.276,4.624 1.437,5.101c1.036,-2.47 2.072,-4.861 3.111,-7.252c4.782,-10.84 10.041,-21.446 17.138,-30.773c1.671,-2.151 3.427,-4.226 5.262,-6.219c-2.95,0.398 -5.821,0.875 -8.768,1.513Z" style="fill:url(#_Linear14);fill-rule:nonzero;"/><path d="M1121.71,379.794c-4.624,10.442 -9.564,20.726 -16.26,29.895c-2.075,2.95 -4.308,5.663 -6.778,8.37l-0.082,0.082l0.401,0c2.871,-0.401 5.66,-0.96 8.449,-1.516l6.061,-1.911c6.055,-2.555 12.757,-2.555 19.292,-2.075c1.671,0.161 3.348,0.319 5.025,0.477c0.474,0.079 0.954,0.161 1.51,0.161c1.674,0.24 3.269,0.319 4.785,0.638c-0.638,-0.799 -1.516,-1.835 -2.552,-3.111c-0,-0.076 -0.079,-0.076 -0.161,-0.237c-0.237,-0.322 -0.477,-0.638 -0.793,-1.036c-0,0 -3.43,-4.548 -6.462,-9.965c-0.954,-1.674 -1.832,-3.348 -2.628,-5.183c-2.233,-4.624 -3.989,-9.488 -5.259,-13.313c-1.197,-3.828 -1.996,-6.538 -2.154,-7.176c-0.799,1.996 -1.598,3.907 -2.394,5.9Z" style="fill:url(#_Linear15);fill-rule:nonzero;"/><path d="M1029.47,164.866l-28.619,28.616l-0,0.243l28.701,28.616c0.076,0 0.158,0 0.158,-0.079l28.619,-28.537c0.079,-0.082 0.079,-0.161 -0,-0.243l-28.619,-28.616c-0.043,-0.042 -0.082,-0.062 -0.122,-0.062c-0.039,-0 -0.079,0.02 -0.118,0.062Z" style="fill:url(#_Linear16);fill-rule:nonzero;"/><path d="M1029.47,78.842l-28.619,28.543l-0,0.319l21.364,21.285c0.079,0.079 0.158,0.158 0.24,0.319l7.015,6.936c0.082,0 0.082,0.082 0.082,0.082c0.076,-0 0.158,-0.082 0.158,-0.082l7.89,-7.89l20.729,-20.65c0.079,-0.161 0.079,-0.24 -0,-0.319l-28.619,-28.543c-0.043,-0.039 -0.082,-0.056 -0.122,-0.056c-0.039,-0 -0.079,0.017 -0.118,0.056Z" style="fill:url(#_Linear17);fill-rule:nonzero;"/><rect x="1028.65" y="132.995" width="1.897" height="36.543" style="fill:url(#_Linear18);"/><path d="M1036.17,126.358l-2.552,0.799c-3.269,1.352 -7.094,0.954 -10.682,0.556c-0.638,-0.079 -1.276,-0.161 -1.911,-0.237c0.316,0.398 0.717,0.878 1.194,1.513c0.079,0.079 0.158,0.158 0.24,0.319l0.079,0.082c0.24,0.395 1.513,2.069 2.552,3.983c1.592,2.792 2.871,6.38 3.585,8.61c0.322,1.118 0.559,1.835 0.559,2.075c0.48,-0.957 0.878,-1.993 1.276,-2.95c-0,-0.079 0.082,-0.079 0.082,-0.161c1.993,-4.384 4.062,-8.85 7.012,-12.593c0.723,-0.878 1.437,-1.835 2.233,-2.634c-1.197,0.161 -2.391,0.322 -3.667,0.638Z" style="fill:url(#_Linear19);fill-rule:nonzero;"/><path d="M1028.67,159.127c-2.467,5.739 -5.338,11.396 -9.564,16.023c-0,0 0.161,0 0.161,-0.082c1.194,-0.079 2.312,-0.319 3.506,-0.477l2.47,-0.878c3.351,-1.352 7.176,-0.957 10.764,-0.559c0.638,0.082 1.276,0.082 1.911,0.24c-0.237,-0.319 -0.635,-0.799 -0.954,-1.276c-0.161,-0.161 -0.319,-0.398 -0.477,-0.559c-0,0 -1.437,-1.832 -2.713,-4.065c-1.273,-2.47 -2.391,-5.341 -3.187,-7.492c-0,-0.082 -0.082,-0.161 -0.082,-0.24c-0.477,-1.595 -0.796,-2.792 -0.878,-2.95c-0.316,0.796 -0.635,1.516 -0.957,2.315Z" style="fill:url(#_Linear20);fill-rule:nonzero;"/><path d="M568.602,278.944l-28.622,28.622c-0.079,0 -0.079,0.161 -0,0.237l28.622,28.622l0.237,0l28.54,-28.622c0.082,-0.076 0.082,-0.237 -0,-0.237l-21.604,-21.604c-0,-0.082 -0,-0.082 -0.079,-0.161l-6.857,-6.857c-0.04,-0.039 -0.099,-0.059 -0.15,-0.059c-0.048,-0 -0.087,0.02 -0.087,0.059Z" style="fill:url(#_Linear21);fill-rule:nonzero;"/><path d="M568.602,192.926l-28.622,28.622c-0.079,0 -0.079,0.155 -0,0.155l21.206,21.209l6.538,6.614l0.878,0.799c-0,0.082 0.079,0.082 0.079,0.082c0.079,0 0.079,0 0.158,-0.082l8.051,-8.051l20.489,-20.571c0.082,0 0.082,-0.155 -0,-0.155l-28.54,-28.622c-0.04,-0.039 -0.099,-0.059 -0.15,-0.059c-0.048,-0 -0.087,0.02 -0.087,0.059Z" style="fill:url(#_Linear22);fill-rule:nonzero;"/><rect x="567.741" y="247.079" width="1.897" height="36.543" style="fill:url(#_Linear23);"/><path d="M575.295,240.36l-2.549,0.799c-3.351,1.434 -7.094,1.036 -10.682,0.638c-0.72,-0.079 -1.358,-0.161 -1.993,-0.24c0.237,0.319 0.635,0.796 1.115,1.355c0.079,0.158 0.237,0.316 0.319,0.477c-0,0 1.436,1.835 2.71,4.068c1.595,2.868 2.871,6.459 3.509,8.61c0.319,1.115 0.556,1.914 0.635,2.072c0.401,-0.957 0.878,-1.993 1.279,-2.95c1.993,-4.545 4.144,-9.008 7.175,-12.836c0,0 1.432,-1.753 2.152,-2.552c-1.197,0.161 -2.473,0.401 -3.67,0.559Z" style="fill:url(#_Linear24);fill-rule:nonzero;"/><path d="M567.724,273.284c-2.473,5.742 -5.265,11.402 -9.567,15.947l0.16,0c1.195,-0.161 2.389,-0.319 3.507,-0.638l2.549,-0.799c3.351,-1.355 7.097,-1.036 10.687,-0.559c0.715,0.082 1.353,0.161 1.991,0.161c-0.319,-0.319 -0.72,-0.796 -1.276,-1.434c-0,-0.082 -0,-0.082 -0.079,-0.161c-0.079,0 -0.079,-0.079 -0.079,-0.158c-0,0 -1.437,-1.914 -2.713,-4.065c-1.434,-2.552 -2.549,-5.584 -3.266,-7.814c-0.559,-1.516 -0.799,-2.631 -0.878,-2.871c-0.319,0.799 -0.717,1.595 -1.036,2.391Z" style="fill:url(#_Linear25);fill-rule:nonzero;"/><path d="M705.958,223.538l-68.877,68.88c-0.237,0.161 -0.237,0.48 -0,0.638l68.877,68.88c0.082,0.079 0.243,0.161 0.322,0.161c0.079,0 0.161,-0.082 0.237,-0.161l42.333,-42.333l26.629,-26.547c0.158,-0.158 0.158,-0.477 -0,-0.638c-0,0 -51.739,-51.66 -51.818,-51.736l-17.144,-17.144c-0.079,-0.079 -0.178,-0.118 -0.28,-0.118c-0.098,-0 -0.197,0.039 -0.279,0.118Z" style="fill:url(#_Linear26);fill-rule:nonzero;"/><path d="M705.958,16.023l-68.877,68.962c-0.237,0.158 -0.237,0.398 -0,0.556l51.183,51.262c0.079,0.158 0.24,0.24 0.316,0.398l17.378,17.299c0.082,0 0.243,0.079 0.322,0.079c0.079,0 0.161,-0.079 0.237,-0.079l19.216,-19.292l49.746,-49.667c0.158,-0.158 0.158,-0.398 -0,-0.556l-68.962,-68.962c-0.079,-0.079 -0.178,-0.121 -0.28,-0.121c-0.098,-0 -0.197,0.042 -0.279,0.121Z" style="fill:url(#_Linear27);fill-rule:nonzero;"/><rect x="703.959" y="146.649" width="4.576" height="88.113" style="fill:url(#_Linear28);"/><path d="M722.142,130.584l-6.137,1.914c-8.051,3.348 -17.138,2.391 -25.827,1.352c-1.598,-0.158 -3.193,-0.316 -4.785,-0.477c0.796,0.799 1.753,1.996 2.871,3.43c0.079,0.158 0.24,0.24 0.316,0.398c0.082,0.158 0.24,0.319 0.322,0.48c-0,-0 3.506,4.545 6.535,9.883c3.907,6.936 6.857,15.549 8.531,20.887c0.875,2.631 1.355,4.387 1.434,4.864c1.039,-2.391 1.993,-4.785 3.111,-7.097c-0,-0.079 0.079,-0.079 0.079,-0.158c4.703,-10.922 9.965,-21.525 17.141,-30.852c1.671,-2.151 3.345,-4.147 5.259,-6.14c-3.029,0.398 -5.979,0.878 -8.85,1.516Z" style="fill:url(#_Linear29);fill-rule:nonzero;"/><path d="M703.968,209.666c-5.979,13.951 -12.754,27.507 -23.117,38.584l0.395,0c2.871,-0.477 5.581,-0.875 8.452,-1.431l6.14,-1.996c8.048,-3.348 17.138,-2.312 25.827,-1.352c1.595,0.158 3.193,0.316 4.703,0.477c-0.717,-0.72 -1.51,-1.753 -2.473,-3.029c-0.076,-0.082 -0.155,-0.161 -0.234,-0.237c-0.243,-0.322 -0.559,-0.638 -0.799,-1.039c-0,0 -3.509,-4.545 -6.459,-9.886c-3.348,-5.979 -6.058,-13.316 -7.811,-18.572c-0,-0.082 -0.079,-0.161 -0.079,-0.24c-1.197,-3.67 -1.996,-6.301 -2.154,-6.936c-0.796,1.914 -1.595,3.825 -2.391,5.657Z" style="fill:url(#_Linear30);fill-rule:nonzero;"/><path d="M764.71,734.912c12.893,-0.811 22.002,-12.958 19.448,-25.619c-3.67,-18.194 -11.453,-42.002 -28.267,-65.633c-10.933,-15.368 -22.998,-26.88 -33.771,-35.318c-10.594,-8.3 -25.993,-4.624 -32.218,7.308c-6.456,12.382 -12.432,29.557 -11.808,50.277c0.646,21.407 8.073,37.864 13.434,47.282c1.304,2.289 3.311,3.972 3.311,3.972c6.583,7.034 13.768,10.179 17.345,11.698c18.62,7.927 43.242,6.603 52.23,6.052c0.099,-0.005 0.197,-0.014 0.296,-0.019" style="fill:#fff;fill-rule:nonzero;"/><path d="M1014.2,754.355c5.637,-0.849 10.933,-3.193 15.119,-7.06c6.815,-6.292 15.882,-17.567 16.675,-33.503c0.898,-18.047 -9.002,-38.335 -24.61,-43.363c-12.641,-4.068 -25.054,3.159 -38.087,11.134c-16.898,10.337 -37.811,23.715 -61.826,40.452c-10.603,7.391 -7.746,23.922 4.765,27.169l0.223,0.056c50.918,13.18 76.576,6.795 87.741,5.115" style="fill:#fff;fill-rule:nonzero;"/><path d="M960.693,893.824c-16.449,14.357 -36.814,24.207 -58.345,29.895c-10.761,3.099 -21.993,4.169 -33.237,4.991c-11.269,0.084 -22.651,-0.469 -33.768,-2.739c-11.109,-2.221 -21.957,-5.705 -32.309,-10.196c-10.225,-4.776 -20.142,-10.276 -28.944,-17.245c-17.764,-13.596 -32.359,-31.078 -41.449,-50.89c15.391,15.337 31.75,28.537 49.503,38.906c17.785,10.242 36.919,17.545 56.747,21.274c19.764,4.186 40.236,4.302 60.685,1.781c20.45,-2.73 40.826,-8.071 61.117,-15.777" style="fill:#fff;fill-rule:nonzero;"/></g><defs><linearGradient id="_Linear1" x1="0" y1="0" x2="1" y2="0" gradientUnits="userSpaceOnUse" gradientTransform="matrix(-259.695,376.633,-376.633,-259.695,607.519,1077.71)"><stop offset="0" style="stop-color:#2afdc6;stop-opacity:1"/><stop offset="1" style="stop-color:#0091fc;stop-opacity:1"/></linearGradient><linearGradient id="_Linear2" x1="0" y1="0" x2="1" y2="0" gradientUnits="userSpaceOnUse" gradientTransform="matrix(-259.719,376.669,-376.669,-259.719,279.149,903.972)"><stop offset="0" style="stop-color:#2afdc6;stop-opacity:1"/><stop offset="1" style="stop-color:#0091fc;stop-opacity:1"/></linearGradient><linearGradient id="_Linear3" x1="0" y1="0" x2="1" y2="0" gradientUnits="userSpaceOnUse" gradientTransform="matrix(-259.667,376.593,-376.593,-259.667,782.095,1171.39)"><stop offset="0" style="stop-color:#2afdc6;stop-opacity:1"/><stop offset="1" style="stop-color:#0091fc;stop-opacity:1"/></linearGradient><linearGradient id="_Linear4" x1="0" y1="0" x2="1" y2="0" gradientUnits="userSpaceOnUse" gradientTransform="matrix(-259.658,376.58,-376.58,-259.658,945.86,1259.11)"><stop offset="0" style="stop-color:#2afdc6;stop-opacity:1"/><stop offset="1" style="stop-color:#0091fc;stop-opacity:1"/></linearGradient><linearGradient id="_Linear5" x1="0" y1="0" x2="1" y2="0" gradientUnits="userSpaceOnUse" gradientTransform="matrix(-259.719,376.669,-376.669,-259.719,455.699,998.941)"><stop offset="0" style="stop-color:#2afdc6;stop-opacity:1"/><stop offset="1" style="stop-color:#0091fc;stop-opacity:1"/></linearGradient><linearGradient id="_Linear6" x1="0" y1="0" x2="1" y2="0" gradientUnits="userSpaceOnUse" gradientTransform="matrix(-531.153,11.6311,11.6311,531.153,1375.13,755.953)"><stop offset="0" style="stop-color:#2afdc6;stop-opacity:1"/><stop offset="1" style="stop-color:#0091fc;stop-opacity:1"/></linearGradient><linearGradient id="_Linear7" x1="0" y1="0" x2="1" y2="0" gradientUnits="userSpaceOnUse" gradientTransform="matrix(367.357,383.806,-383.806,367.357,759.661,87.1279)"><stop offset="0" style="stop-color:#2afdc6;stop-opacity:1"/><stop offset="1" style="stop-color:#0091fc;stop-opacity:1"/></linearGradient><linearGradient id="_Linear8" x1="0" y1="0" x2="1" y2="0" gradientUnits="userSpaceOnUse" gradientTransform="matrix(367.276,383.721,-383.721,367.276,782.129,63.74)"><stop offset="0" style="stop-color:#2afdc6;stop-opacity:1"/><stop offset="1" style="stop-color:#0091fc;stop-opacity:1"/></linearGradient><linearGradient id="_Linear9" x1="0" y1="0" x2="1" y2="0" gradientUnits="userSpaceOnUse" gradientTransform="matrix(-33.7469,-35.2579,35.2579,-33.7469,1594.47,776.873)"><stop offset="0" style="stop-color:#2afdc6;stop-opacity:1"/><stop offset="1" style="stop-color:#0091fc;stop-opacity:1"/></linearGradient><linearGradient id="_Linear10" x1="0" y1="0" x2="1" y2="0" gradientUnits="userSpaceOnUse" gradientTransform="matrix(-33.7469,-35.2579,35.2579,-33.7469,1233.84,1122.05)"><stop offset="0" style="stop-color:#2afdc6;stop-opacity:1"/><stop offset="1" style="stop-color:#0091fc;stop-opacity:1"/></linearGradient><linearGradient id="_Linear11" x1="0" y1="0" x2="1" y2="0" gradientUnits="userSpaceOnUse" gradientTransform="matrix(367.271,383.716,-383.716,367.271,762.314,84.754)"><stop offset="0" style="stop-color:#2afdc6;stop-opacity:1"/><stop offset="1" style="stop-color:#0091fc;stop-opacity:1"/></linearGradient><linearGradient id="_Linear12" x1="0" y1="0" x2="1" y2="0" gradientUnits="userSpaceOnUse" gradientTransform="matrix(367.273,383.718,-383.718,367.273,865.944,-14.4818)"><stop offset="0" style="stop-color:#2afdc6;stop-opacity:1"/><stop offset="1" style="stop-color:#0091fc;stop-opacity:1"/></linearGradient><linearGradient id="_Linear13" x1="0" y1="0" x2="1" y2="0" gradientUnits="userSpaceOnUse" gradientTransform="matrix(367.357,383.806,-383.806,367.357,813.199,35.8848)"><stop offset="0" style="stop-color:#2afdc6;stop-opacity:1"/><stop offset="1" style="stop-color:#0091fc;stop-opacity:1"/></linearGradient><linearGradient id="_Linear14" x1="0" y1="0" x2="1" y2="0" gradientUnits="userSpaceOnUse" gradientTransform="matrix(366.574,382.988,-382.988,366.574,839.77,11.6891)"><stop offset="0" style="stop-color:#2afdc6;stop-opacity:1"/><stop offset="1" style="stop-color:#0091fc;stop-opacity:1"/></linearGradient><linearGradient id="_Linear15" x1="0" y1="0" x2="1" y2="0" gradientUnits="userSpaceOnUse" gradientTransform="matrix(367.541,383.998,-383.998,367.541,788.731,58.9577)"><stop offset="0" style="stop-color:#2afdc6;stop-opacity:1"/><stop offset="1" style="stop-color:#0091fc;stop-opacity:1"/></linearGradient><linearGradient id="_Linear16" x1="0" y1="0" x2="1" y2="0" gradientUnits="userSpaceOnUse" gradientTransform="matrix(367.389,383.839,-383.839,367.389,860.338,16.7725)"><stop offset="0" style="stop-color:#2afdc6;stop-opacity:1"/><stop offset="1" style="stop-color:#0091fc;stop-opacity:1"/></linearGradient><linearGradient id="_Linear17" x1="0" y1="0" x2="1" y2="0" gradientUnits="userSpaceOnUse" gradientTransform="matrix(366.929,383.359,-383.359,366.929,903.492,-24.2001)"><stop offset="0" style="stop-color:#2afdc6;stop-opacity:1"/><stop offset="1" style="stop-color:#0091fc;stop-opacity:1"/></linearGradient><linearGradient id="_Linear18" x1="0" y1="0" x2="1" y2="0" gradientUnits="userSpaceOnUse" gradientTransform="matrix(367.357,383.806,-383.806,367.357,881.514,-3.45065)"><stop offset="0" style="stop-color:#2afdc6;stop-opacity:1"/><stop offset="1" style="stop-color:#0091fc;stop-opacity:1"/></linearGradient><linearGradient id="_Linear19" x1="0" y1="0" x2="1" y2="0" gradientUnits="userSpaceOnUse" gradientTransform="matrix(366.485,382.895,-382.895,366.485,892.605,-13.3939)"><stop offset="0" style="stop-color:#2afdc6;stop-opacity:1"/><stop offset="1" style="stop-color:#0091fc;stop-opacity:1"/></linearGradient><linearGradient id="_Linear20" x1="0" y1="0" x2="1" y2="0" gradientUnits="userSpaceOnUse" gradientTransform="matrix(366.872,383.299,-383.299,366.872,871.643,6.41607)"><stop offset="0" style="stop-color:#2afdc6;stop-opacity:1"/><stop offset="1" style="stop-color:#0091fc;stop-opacity:1"/></linearGradient><linearGradient id="_Linear21" x1="0" y1="0" x2="1" y2="0" gradientUnits="userSpaceOnUse" gradientTransform="matrix(367.578,384.037,-384.037,367.578,549.823,287.973)"><stop offset="0" style="stop-color:#2afdc6;stop-opacity:1"/><stop offset="1" style="stop-color:#0091fc;stop-opacity:1"/></linearGradient><linearGradient id="_Linear22" x1="0" y1="0" x2="1" y2="0" gradientUnits="userSpaceOnUse" gradientTransform="matrix(367.321,383.768,-383.768,367.321,592.816,246.843)"><stop offset="0" style="stop-color:#2afdc6;stop-opacity:1"/><stop offset="1" style="stop-color:#0091fc;stop-opacity:1"/></linearGradient><linearGradient id="_Linear23" x1="0" y1="0" x2="1" y2="0" gradientUnits="userSpaceOnUse" gradientTransform="matrix(367.357,383.806,-383.806,367.357,570.968,267.735)"><stop offset="0" style="stop-color:#2afdc6;stop-opacity:1"/><stop offset="1" style="stop-color:#0091fc;stop-opacity:1"/></linearGradient><linearGradient id="_Linear24" x1="0" y1="0" x2="1" y2="0" gradientUnits="userSpaceOnUse" gradientTransform="matrix(367.63,384.091,-384.091,367.63,581.749,257.419)"><stop offset="0" style="stop-color:#2afdc6;stop-opacity:1"/><stop offset="1" style="stop-color:#0091fc;stop-opacity:1"/></linearGradient><linearGradient id="_Linear25" x1="0" y1="0" x2="1" y2="0" gradientUnits="userSpaceOnUse" gradientTransform="matrix(366.475,382.884,-382.884,366.475,560.906,277.396)"><stop offset="0" style="stop-color:#2afdc6;stop-opacity:1"/><stop offset="1" style="stop-color:#0091fc;stop-opacity:1"/></linearGradient><linearGradient id="_Linear26" x1="0" y1="0" x2="1" y2="0" gradientUnits="userSpaceOnUse" gradientTransform="matrix(367.277,383.722,-383.722,367.277,629.105,212.116)"><stop offset="0" style="stop-color:#2afdc6;stop-opacity:1"/><stop offset="1" style="stop-color:#0091fc;stop-opacity:1"/></linearGradient><linearGradient id="_Linear27" x1="0" y1="0" x2="1" y2="0" gradientUnits="userSpaceOnUse" gradientTransform="matrix(367.346,383.795,-383.795,367.346,732.734,112.911)"><stop offset="0" style="stop-color:#2afdc6;stop-opacity:1"/><stop offset="1" style="stop-color:#0091fc;stop-opacity:1"/></linearGradient><linearGradient id="_Linear28" x1="0" y1="0" x2="1" y2="0" gradientUnits="userSpaceOnUse" gradientTransform="matrix(367.357,383.806,-383.806,367.357,680.046,163.332)"><stop offset="0" style="stop-color:#2afdc6;stop-opacity:1"/><stop offset="1" style="stop-color:#0091fc;stop-opacity:1"/></linearGradient><linearGradient id="_Linear29" x1="0" y1="0" x2="1" y2="0" gradientUnits="userSpaceOnUse" gradientTransform="matrix(367.38,383.83,-383.83,367.38,706.02,138.469)"><stop offset="0" style="stop-color:#2afdc6;stop-opacity:1"/><stop offset="1" style="stop-color:#0091fc;stop-opacity:1"/></linearGradient><linearGradient id="_Linear30" x1="0" y1="0" x2="1" y2="0" gradientUnits="userSpaceOnUse" gradientTransform="matrix(367.38,383.83,-383.83,367.38,655.735,186.566)"><stop offset="0" style="stop-color:#2afdc6;stop-opacity:1"/><stop offset="1" style="stop-color:#0091fc;stop-opacity:1"/></linearGradient></defs></svg>