<?xml version="1.0" encoding="UTF-8" standalone="no"?>
<svg
   height="100"
   width="100"
   viewBox="0 0 100 100"
   version="1.1"
   id="svg1"
   xmlns="http://www.w3.org/2000/svg"
   xmlns:svg="http://www.w3.org/2000/svg">
  <defs
     id="defs1" />
  <path
     d="M 12.207031,92.752342 9.8632813,92.264061 8.4960938,90.21328 l 0.5859375,-2.34375 1.1718747,-0.78125 0.09766,-1.269532 0.195312,-1.757812 0.292969,-1.855469 0.292969,-1.855469 0.878906,-3.90625 1.855469,-6.542968 0.878906,0.195312 v 2.246094 l 0.292969,4.296875 0.09766,2.050781 0.292969,3.710938 0.195312,1.757812 0.195313,1.5625 v 0.195313 l 3.027343,-0.683594 1.953125,-0.488281 2.050781,-0.683594 6.347657,-3.515625 7.324218,-5.46875 6.835938,-6.542969 6.347656,-7.617187 6.054688,-8.789063 0.878906,-1.660156 -3.417969,-3.515625 -5.46875,-4.980469 -5.46875,-4.882812 -5.46875,-4.589844 -5.664062,-4.394531 -5.664063,-4.199219 0.488281,-0.78125 6.25,3.320312 6.152344,3.808594 6.054688,4.101563 5.957031,4.492187 5.761719,4.882813 2.832031,2.539062 2.246094,-4.101562 5.078125,-11.035157 4.6875,-12.207031 4.394531,-14.2578123 5.761719,2.6367188 1.269531,1.4648437 -1.953125,0.4882813 -3.90625,11.6210935 -5.078125,12.5 -5.566406,11.230469 -3.027344,5.078125 4.6875,4.589844 5.566406,5.859375 5.566406,6.054687 5.273438,6.347656 0.683594,2.34375 -1.171875,2.148438 -2.34375,0.585937 -2.050782,-1.171875 -5.078125,-6.445312 -5.078125,-6.152344 -5.175781,-5.957031 -3.613281,-3.808594 -6.933594,9.570313 -7.03125,7.617187 -7.519531,6.445313 -8.007813,5.175781 -0.292968,0.195312 -2.148438,1.757813 -1.855469,1.367187 -1.953125,1.269532 -4.003906,2.148437 -2.050781,0.976563 -2.050781,0.78125 -2.050781,0.683593 z"
     id="text1"
     style="font-size:100px;font-family:HanaMinA;text-anchor:middle"
     aria-label="乄" />
</svg>
