<?xml version="1.0" encoding="UTF-8" standalone="no"?>
<svg
   height="100"
   width="100"
   viewBox="0 0 100 100"
   version="1.1"
   id="svg1"
   xmlns="http://www.w3.org/2000/svg"
   xmlns:svg="http://www.w3.org/2000/svg">
  <defs
     id="defs1" />
  <path
     d="M 37.402344,93.631248 36.035156,93.533592 34.765625,93.33828 33.496094,92.947655 32.226562,92.264061 31.25,91.385155 30.371094,90.310936 29.6875,89.139061 29.296875,87.86953 29.003906,86.502342 V 85.232811 73.221092 l 6.25,1.074219 1.660156,0.976562 -1.660156,0.976563 v 9.570312 l 0.195313,0.488282 0.09766,0.488281 0.195312,0.195312 0.488282,0.195313 0.488281,0.09766 0.683594,0.09766 h 34.179687 l 3.125,-13.183593 h 0.976563 l 0.09766,-0.390625 4.882812,1.464843 2.246094,0.878907 2.050781,0.976562 1.757813,0.976563 1.757812,1.171875 1.5625,1.171875 1.367188,1.367187 1.269531,1.464844 0.976563,1.464844 0.09766,2.441406 -1.660156,1.757812 h -2.441407 l -1.757812,-1.5625 -0.292969,-1.171875 -0.585937,-1.171875 -0.78125,-1.171875 -0.878907,-1.171875 -1.074218,-1.367187 -1.367188,-1.269531 -1.5625,-1.367188 -3.710937,-2.734375 -1.953125,-1.171875 -0.976563,12.597656 1.855469,1.171875 1.269531,1.953125 -1.269531,1.855469 -1.855469,1.269531 z M 9.5703125,91.482811 7.1289062,91.385155 5.46875,89.724998 l 0.097656,-2.34375 1.6601563,-1.757812 1.4648438,-0.488281 1.3671877,-0.585938 1.171875,-0.683594 1.074219,-0.878906 0.976562,-0.976562 0.878906,-1.171875 0.78125,-1.367188 0.683594,-1.660156 0.585937,-1.855469 0.195313,-2.050781 h 0.976562 l 0.292969,2.148437 0.195313,2.148438 -0.09766,1.953125 -0.390625,2.050781 -0.585937,1.855469 -0.878906,1.757812 -1.269531,1.660157 -1.464844,1.5625 -1.660156,1.269531 z M 58.203125,83.572655 56.054687,82.498436 55.273437,81.424217 54.492187,80.447655 53.613281,79.373436 52.539062,78.396873 50,76.346092 l -1.464844,-1.074219 -3.125,-2.050781 -1.953125,-0.878906 0.390625,-0.878906 2.050781,0.390625 1.953125,0.390625 1.953125,0.488281 1.855469,0.488281 1.660156,0.585938 3.222657,1.5625 1.464843,0.878906 1.464844,0.976562 1.269531,1.171875 0.78125,2.246094 -1.074218,2.148438 z m 34.082031,-11.914063 -2.246094,-0.683594 -0.683593,-0.683593 -0.878907,-0.78125 -1.074218,-0.78125 -1.367188,-0.878907 -1.464844,-0.878906 -3.710937,-1.660156 -4.492188,-1.855469 -2.539062,-0.78125 0.195312,-0.976562 2.734375,0.292968 2.539063,0.09766 2.34375,0.292968 0.878906,0.09766 v -2.929688 h -24.21875 l -6.347656,3.125 V 34.646873 h -4.6875 v -2.148437 h 20.3125 V 26.346092 H 55.46875 V 24.58828 l -0.488281,0.09766 -4.394532,0.78125 -4.296875,0.488281 v 0.78125 H 4.7851562 V 24.58828 H 17.578125 L 16.601562,23.318748 V 22.24453 21.267967 L 16.308594,19.314842 16.015625,17.55703 15.625,15.701561 15.332031,14.822655 14.84375,14.139061 l 0.683594,-0.683594 0.683593,0.683594 0.878907,0.390625 0.878906,0.683594 0.78125,0.683593 1.5625,1.660157 0.683594,0.976562 1.171875,2.050781 0.585937,1.171875 -0.390625,2.34375 -0.683594,0.488282 h 7.03125 l 0.195313,-0.585938 0.390625,-1.464844 0.292969,-1.367187 0.390625,-1.367188 0.292968,-1.367187 0.390625,-1.269531 0.292969,-1.171875 0.390625,-1.171875 0.195313,-1.171875 0.195312,-0.585938 -0.09766,-0.09766 0.292969,-0.488281 H 7.3242187 V 10.428123 H 22.558594 V 1.5414047 l 6.347656,0.9765625 1.5625,1.0742188 -1.5625,0.9765625 v 5.8593745 h 3.710937 l 5.175782,-5.273437 6.347656,5.273437 v 2.050782 H 33.105469 l 4.492187,2.734375 0.878906,1.660156 -2.246093,0.195312 -4.199219,5.371094 -0.976563,1.074219 -0.976562,1.074219 h 6.738281 l 4.296875,-4.6875 5.175781,4.6875 v 0.292968 l 7.8125,-2.832031 3.808594,-1.660156 3.613281,-1.757813 3.515625,-1.953125 2.636719,-1.757812 -1.367187,-1.171875 -2.441407,-2.441406 -0.976562,-1.3671878 -0.976563,0.6835938 -1.757812,1.171875 -1.953125,1.171875 -1.855469,1.074219 -2.050781,0.976562 -4.492188,1.5625 -0.390625,-0.78125 1.855469,-1.464844 3.320313,-2.832031 2.832031,-2.832031 2.539062,-2.9296875 1.171875,-1.4648438 0.976563,-1.5625 0.78125,-1.2695312 0.09766,-0.1953125 0.292969,-0.29296878 4.882812,4.00390628 0.195313,0.5859375 h 10.15625 l 1.074219,-1.0742188 0.195312,0.1953125 2.050781,-1.6601562 5.761719,4.6875 -2.539062,1.5625 -2.539063,1.0742185 -4.6875,3.90625 -1.660156,1.074219 0.78125,0.390625 3.027344,1.171875 3.125,0.976562 3.125,0.78125 3.320312,0.683594 8.300781,1.367188 -6.152343,5.957031 -3.710938,-0.976563 -2.050781,-0.683593 v 1.367187 H 73.828125 v 6.152344 h 13.183594 l 3.222656,-3.613281 4.199219,3.613281 v 2.148437 h -42.1875 l 6.054687,3.027344 h 24.21875 l 3.125,-2.636719 5.761719,4.6875 -2.636719,2.148438 v 17.675781 l -5.957031,3.027344 1.074219,0.09766 2.050781,0.488281 3.613281,0.878907 3.125,1.269531 1.367188,0.78125 1.074218,2.148437 -0.683593,2.34375 z M 22.558594,71.365623 V 58.96328 H 4.296875 v -2.050782 h 18.261719 v -8.203125 h -6.347657 v 1.660157 l -6.3476557,3.125 V 28.103905 l 6.3476557,3.125 H 34.375 l 3.222656,-2.636719 5.761719,4.785156 -2.636719,2.050781 v 14.355469 l -6.347656,3.125 v -4.199219 h -5.46875 v 8.203125 h 6.738281 l 5.175781,-5.273437 6.347657,5.273437 V 58.96328 H 28.90625 v 9.179687 z m 22.070312,-0.488281 -0.292969,-0.878906 7.324219,-3.515625 5.761719,-3.125 3.027344,-1.855469 1.269531,-0.878906 0.585937,-0.488281 0.390625,-0.390625 1.660157,2.539062 2.246093,2.441406 0.09766,1.855469 -2.050782,-0.878906 -3.417968,1.367187 -3.90625,1.269532 -4.6875,1.171875 -2.441407,0.488281 z M 58.300781,57.498436 h 24.21875 v -4.589844 h -24.21875 z m 0,-6.640625 h 24.21875 V 46.365623 H 58.300781 Z M 16.210937,46.658592 H 34.375 V 40.896873 H 16.210937 Z m 42.089844,-2.34375 h 24.21875 V 39.724998 H 58.300781 Z M 16.210937,38.748436 H 34.375 V 33.377342 H 16.210937 Z M 56.542969,24.295311 h 19.824218 l 2.050782,-2.246094 -3.613282,-1.953125 -3.027343,-1.855469 v -0.09766 l -4.6875,2.441406 -3.90625,1.660157 -4.003907,1.367187 z M 70.800781,12.771873 74.21875,9.842186 76.5625,7.6937485 H 65.527344 l -1.367188,1.171875 4.101563,2.4414065 z"
     id="text1"
     style="font-size:100px;font-family:HanaMinA;text-anchor:middle"
     aria-label="戇" />
</svg>
