<?xml version="1.0" encoding="UTF-8" standalone="no"?>
<svg
   height="100"
   width="100"
   viewBox="0 0 100 100"
   version="1.1"
   id="svg1"
   xmlns="http://www.w3.org/2000/svg"
   xmlns:svg="http://www.w3.org/2000/svg">
  <defs
     id="defs1" />
  <path
     d="M 63.183594,92.264061 V 31.814842 l -1.5625,2.734375 -2.050782,2.929688 -2.148437,2.832031 -0.878906,-0.488281 3.808593,-9.960938 2.34375,-7.03125 0.488282,-1.464844 v -0.488281 l 0.09766,0.09766 2.636719,-9.570312 0.976562,-4.1015625 0.78125,-3.7109375 0.292969,-1.3671875 5.957031,2.34375 1.269531,1.3671875 -1.855468,0.5859375 -0.683594,2.34375 -1.269531,4.1015625 -2.929688,7.8125 -0.976562,2.34375 1.464843,0.683594 h 8.105469 l 0.78125,-3.90625 2.832031,-12.1093753 0.683594,-2.9296875 H 81.25 L 81.738281,3.592186 87.402344,6.4242172 88.574219,7.889061 86.523437,8.279686 83.300781,14.920311 81.25,18.728905 78.320312,23.80703 h 3.808594 l 5.273438,-5.273438 6.25,5.273438 v 2.148437 H 82.128906 v 16.796875 h 1.269531 l 4.394532,-4.785156 5.175781,4.785156 v 2.050781 H 82.128906 V 62.08828 h 1.269531 l 4.394532,-4.6875 5.175781,4.6875 v 2.050781 H 82.128906 v 19.433594 h 1.464844 l 5.175781,-5.175782 6.347656,5.175782 v 2.148437 H 68.945312 v 3.613281 z M 26.171875,92.459373 V 53.299217 l 6.347656,3.125 h 5.859375 l 0.390625,-2.734375 1.074219,-8.886719 h -4.101563 v 3.613282 l -6.347656,3.125 V 35.818748 l -9.667969,28.320313 -1.855468,6.25 -0.488282,2.050781 -0.292968,1.367188 -0.292969,-0.09766 0.488281,1.171875 0.878906,3.125 0.585938,3.417969 0.292969,3.710938 0.09766,4.101562 -1.074219,2.148438 -2.34375,0.878906 -2.148437,-1.171875 -0.78125,-2.246094 0.390625,-3.710937 v -3.222657 l -0.195313,-3.027343 -0.390625,-2.636719 -0.683593,-2.441406 -0.585938,-1.269532 -0.292969,-0.09766 0.09766,-0.390625 -0.09766,-0.390625 -1.0742185,-1.855469 -1.3671875,-1.757812 -1.6601563,-1.5625 -1.953125,-1.464844 0.390625,-0.878906 2.5390625,0.585937 2.4414068,1.171875 2.148437,1.5625 0.292969,0.390625 8.398437,-18.847656 8.203125,-16.992187 V 18.240623 l 6.347656,1.074219 1.5625,1.074219 -1.5625,0.878906 v 16.308594 l 2.539063,-3.808594 1.171875,-1.953125 1.171875,-2.050781 -1.269531,-1.757813 -0.976563,-1.171875 -1.074219,-1.171875 -1.171875,-0.878906 0.390625,-0.878906 3.125,1.074219 1.5625,0.78125 1.074219,0.683593 1.269531,-3.125 1.464844,-4.101562 0.488281,-1.269531 4.589844,2.441406 v -2.148438 l 6.25,1.074219 1.5625,1.074219 -1.5625,0.878906 v 25.585938 l -6.25,3.125 v -5.175782 h -5.371094 l 1.367188,0.390625 1.464844,1.269532 -1.855469,0.78125 -0.976563,4.296875 -0.78125,3.222656 -0.488281,1.660156 H 53.125 l 2.929687,-2.539062 5.46875,4.6875 -2.636718,1.855468 v 23.632813 1.269531 l -0.195313,1.171875 -0.390625,1.269531 -0.488281,1.074219 -0.78125,1.074219 -0.878906,0.78125 -1.074219,0.683594 -1.171875,0.488281 -1.269531,0.195312 -1.171875,0.195313 V 89.334373 L 45.117187,87.86953 v -1.464844 h 6.347657 0.488281 l 0.390625,-0.09766 0.292969,-0.09766 0.09766,-0.09766 v -0.09766 L 53.027344,85.330467 53.125,84.74453 v -0.683594 -3.320313 l -1.660156,1.074219 -2.34375,-0.585937 -1.367188,-1.953125 v -1.660157 l -0.195312,-1.757812 -0.195313,-1.660156 -0.292969,-1.757813 -0.09766,-0.488281 -2.246094,1.660156 -2.832031,1.855469 L 37.5,77.908592 36.523437,78.396873 35.9375,80.545311 34.472656,79.373436 32.519531,75.662498 V 89.334373 Z M 68.945312,83.572655 H 75.78125 V 64.139061 H 68.945312 Z M 53.125,75.271873 V 58.572655 H 42.871094 l -0.683594,2.34375 -2.050781,6.054687 -1.074219,2.929688 -1.074219,2.441406 7.226563,-1.660156 1.5625,-0.292969 -1.171875,-5.566406 -0.488282,-2.050782 -0.585937,-1.953125 0.878906,-0.390625 3.417969,5.273438 1.855469,3.613281 0.878906,1.757813 1.367187,3.613281 z M 68.945312,62.08828 H 75.78125 V 44.803123 h -6.835938 z m 0,-19.335938 H 75.78125 V 25.955467 H 68.945312 Z M 35.742187,42.654686 H 50.097656 V 23.02578 l -1.464844,2.734375 -1.367187,2.246093 -1.171875,1.757813 0.585937,0.585937 1.074219,1.464844 1.171875,1.660156 0.976563,1.757813 -0.09766,2.34375 -1.660156,1.757812 h -2.441406 l -1.660156,-1.757812 -0.488282,-1.5625 -0.585937,-1.5625 -0.195313,-0.585938 -1.953125,2.050782 -1.855468,1.660156 -1.953125,1.464844 -1.269532,0.78125 z M 15.625,42.264061 13.867188,40.701561 13.476563,39.724998 13.085938,38.748436 12.5,37.771873 11.816406,36.697655 10.839844,35.721092 9.8632813,34.646873 8.6914063,33.572655 5.9570312,31.424217 4.296875,30.545311 l 0.2929687,-0.878906 1.8554688,0.488281 1.953125,0.390625 1.6601565,0.585937 1.757812,0.683594 1.464844,0.683594 1.464844,0.878906 2.636718,2.050781 1.074219,1.171875 0.976563,1.269532 0.195312,2.441406 -1.5625,1.855469 z M 22.265625,18.631248 20.3125,17.166405 19.921875,16.189842 18.847656,14.139061 18.164062,13.064842 17.285156,11.990623 16.308594,10.916405 14.0625,8.8656235 12.695313,7.7914047 l -1.5625,-0.8789062 0.292968,-0.8789063 1.855469,0.4882813 1.660156,0.390625 1.757813,0.5859375 1.5625,0.6835937 1.464843,0.6835938 1.367188,0.8789062 1.367187,0.9765623 1.269532,0.976563 1.074218,1.171875 0.488282,0.683593 14.257812,-0.09766 V 1.8343735 l 6.347656,1.0742187 1.5625,0.9765625 -1.5625,0.9765625 v 8.5937498 h 3.417969 l 5.273438,-5.2734373 6.25,5.2734373 v 2.148438 H 25.976562 l 0.09766,0.878906 -1.464844,1.953125 z m 10.253906,54.785157 3.222656,-0.683594 2.34375,-14.160156 h -5.566406 z"
     id="text1"
     style="font-size:100px;font-family:HanaMinA;text-anchor:middle"
     aria-label="ç•" />
</svg>
