<?xml version="1.0" encoding="UTF-8" standalone="no"?>
<svg
   height="100"
   width="100"
   viewBox="0 0 100 100"
   version="1.1"
   id="svg1"
   xmlns="http://www.w3.org/2000/svg"
   xmlns:svg="http://www.w3.org/2000/svg">
  <defs
     id="defs1" />
  <path
     d="M 10.546875,93.631248 9.1796875,92.361717 6.7382812,86.404686 7.7148437,86.209373 11.328125,85.721092 13.378906,85.330467 14.257813,85.135155 V 75.36953 l -2.050782,1.074218 -2.5390622,1.171875 -2.8320313,0.976563 -2.8320313,0.78125 -0.3906249,-0.878906 4.6875,-3.320313 2.1484377,-1.5625 3.710937,-3.417969 0.09766,-0.09766 v -0.09766 h 0.195312 L 15.917969,68.533592 17.382812,66.678123 18.75,64.822655 19.53125,63.748436 H 4.296875 V 61.599998 H 16.40625 V 54.27578 H 9.0820313 V 52.127342 H 16.40625 v -6.25 H 6.4453125 V 43.728905 H 16.40625 v -7.324219 l 6.25,1.074219 1.660156,1.074218 -1.660156,0.878907 v 4.296875 h 7.910156 v -7.324219 l 6.347656,1.074219 1.5625,1.074218 -1.5625,0.878907 v 4.296875 h 2.441407 l 3.320312,-3.613282 4.199219,3.613282 v 2.148437 h -9.960938 v 6.25 h 2.34375 l 2.34375,-3.125 3.125,3.125 v 2.148438 h -7.8125 v 7.324218 h 3.027344 l 4.296875,-4.6875 5.273438,4.6875 v 2.148438 H 26.757812 l -1.953125,2.636719 -1.757812,2.050781 -1.855469,1.855469 -0.585937,0.585937 V 83.96328 l 4.589843,-0.878907 2.832032,-0.390625 2.929687,-0.585937 0.292969,0.878906 -7.617188,3.808594 -4.6875,1.953125 -4.199218,1.660156 -3.417969,1.171875 z M 42.871094,93.33828 42.1875,92.752342 l 2.050781,-3.515625 1.855469,-3.710937 1.660156,-4.101563 1.464844,-4.394531 1.269531,-4.882813 0.976563,-5.175781 0.78125,-5.664062 0.585937,-5.957032 0.292969,-6.445312 0.09766,-6.738281 v -30.46875 l 6.25,1.074218 0.390625,0.195313 7.128906,-2.636719 L 90.039062,2.2249985 90.625,2.029686 90.820312,2.810936 95.800781,7.0101547 95.898437,8.670311 93.75,7.5960922 l -1.367188,0.4882813 -8.984375,2.1484375 0.878907,9.277344 1.074218,9.765625 1.171875,9.082031 1.269532,8.398437 1.367187,7.714844 1.660156,7.03125 1.660157,6.347656 1.953125,5.566407 2.050781,4.980468 2.246094,4.101563 L 93.75,87.86953 92.675781,85.818748 90.429687,80.935936 88.574219,75.36953 86.914062,69.314842 85.546875,62.674217 84.375,55.349998 83.398437,47.342186 82.714844,38.748436 82.226562,29.471092 82.03125,19.607811 82.324219,10.52578 75,12.185936 l -7.128906,1.464844 -3.613282,0.683593 -3.710937,0.585938 -1.074219,0.09766 v 27.148438 0.09766 l -0.390625,7.03125 -0.683594,6.640625 -0.976562,6.152344 -1.171875,5.859375 -1.464844,5.371093 -1.757812,4.980469 -2.148438,4.492188 -2.34375,4.101562 -2.636719,3.515625 z M 56.640625,89.041405 55.371094,87.674217 53.125,81.717186 l 0.976562,-0.195313 5.371094,-0.78125 7.617188,-1.171875 V 15.408592 l 6.25,1.074219 1.5625,1.074219 -1.5625,0.878906 v 60.253906 l 3.710937,-0.585937 3.222656,-0.390625 1.367188,-0.09766 -0.878906,-2.539062 -2.539063,-6.347656 -1.074219,-2.246094 0.78125,-0.488281 3.320313,3.515625 2.832031,3.808593 2.34375,3.808594 1.855469,4.003906 0.878906,1.953125 0.683594,1.953125 -0.488281,2.441407 -1.953125,1.367187 -2.34375,-0.488281 -1.367188,-1.953125 -0.292969,-1.757813 -0.292968,-1.855468 -0.488282,-1.855469 -0.585937,-1.855469 -4.296875,1.757813 -2.929688,1.074218 -5.859375,1.953125 -8.300781,2.441407 -3.125,0.78125 z m -16.601563,0 -1.953125,-1.367188 -3.710937,-6.152344 -4.003906,-5.371093 -4.003907,-4.980469 -1.464843,-1.5625 0.585937,-0.78125 3.90625,2.050781 1.855469,1.171875 1.855469,1.464844 0.390625,0.292969 3.125,-4.101563 2.050781,-2.734375 0.488281,-0.585937 4.296875,4.589843 0.390625,1.855469 -2.246094,-0.488281 -2.832031,1.757812 -2.34375,1.171875 -0.78125,0.390625 2.734375,2.734375 3.417969,3.808594 1.5625,2.050781 L 43.75,86.697655 42.480469,88.65078 Z M 22.65625,61.599998 h 7.910156 V 54.27578 H 22.65625 Z m 0,-9.472656 h 7.910156 v -6.25 H 22.65625 Z M 8.203125,38.357811 V 18.142967 l 5.761719,2.929688 H 20.3125 l 2.34375,-2.636719 5.078125,4.6875 -2.636719,1.269531 v 9.472656 l -4.785156,2.34375 v -2.34375 h -6.347656 v 1.5625 z M 39.257812,37.86953 V 33.865623 H 32.910156 L 28.125,36.209373 V 18.631248 l 4.785156,2.441407 h 6.347656 l 2.832032,-2.636719 5.566406,4.6875 -2.636719,1.855469 v 9.960937 z m -6.347656,-6.054688 h 6.347656 v -8.691406 h -6.347656 z m -18.945312,0 H 20.3125 V 23.123436 H 13.964844 Z M 4.5898437,14.334373 V 12.283592 H 23.730469 V 1.0531235 l 6.347656,0.9765625 1.5625,1.0742187 -1.5625,0.9765625 v 8.2031248 h 9.570312 l 4.296875,-4.785156 5.273438,4.785156 v 2.050781 z"
     id="text1"
     style="font-size:100px;font-family:HanaMinA;text-anchor:middle"
     aria-label="瓤" />
</svg>
