<?xml version="1.0" encoding="UTF-8" standalone="no"?>
<svg
   height="100"
   width="100"
   viewBox="0 0 100 100"
   version="1.1"
   id="svg1"
   xmlns="http://www.w3.org/2000/svg"
   xmlns:svg="http://www.w3.org/2000/svg">
  <defs
     id="defs1" />
  <path
     d="M 13.28125,94.11953 V 55.83828 l 6.25,1.074218 1.5625,0.976563 -1.5625,0.976562 v 28.515625 h 60.9375 V 55.83828 l 6.25,1.074218 1.5625,0.976563 -1.5625,0.976562 v 31.640625 l -6.25,3.125 V 89.43203 h -60.9375 v 1.5625 z M 26.855469,84.158592 V 55.83828 l 6.347656,3.125 h 34.082031 l 3.222656,-2.636719 5.761719,4.785156 -2.636719,2.050781 v 17.871094 l -6.347656,3.125 v -3.125 H 33.203125 Z m 6.347656,-5.175781 H 47.363281 V 71.072655 H 33.203125 Z m 20.507812,0 H 67.285156 V 71.072655 H 53.710937 Z M 33.203125,68.924217 h 14.160156 v -7.8125 H 33.203125 Z m 20.507812,0 h 13.574219 v -7.8125 H 53.710937 Z M 6.9335937,52.127342 V 50.076561 H 47.363281 V 42.752342 H 14.257813 V 40.603905 H 47.363281 V 32.693748 H 19.042969 V 30.642967 H 47.363281 V 22.732811 H 6.9335937 V 20.68203 H 47.363281 V 12.771873 H 19.042969 V 10.721092 H 47.363281 V 1.7367172 l 6.347656,1.0742188 1.5625,1.0742187 -1.5625,0.8789063 v 5.957031 h 20.410157 l 3.222656,-2.6367185 5.761719,4.6874995 -2.636719,2.148438 v 5.761719 h 5.664062 l 4.296875,-4.785157 5.273438,4.785157 v 2.050781 H 80.46875 v 9.960937 l -6.347656,3.222657 V 32.693748 H 53.710937 v 7.910157 h 22.949219 l 4.296875,-4.6875 5.273438,4.6875 v 2.148437 H 53.710937 v 7.324219 h 31.835938 l 4.394531,-4.785156 5.175781,4.785156 v 2.050781 z M 53.710937,30.642967 H 74.121094 V 22.732811 H 53.710937 Z m 0,-9.960937 H 74.121094 V 12.771873 H 53.710937 Z"
     id="text1"
     style="font-size:100px;font-family:HanaMinA;text-anchor:middle"
     aria-label="畵" />
</svg>
