<?xml version="1.0" encoding="UTF-8" standalone="no"?>
<svg
   height="100"
   width="100"
   viewBox="0 0 100 100"
   version="1.1"
   id="svg1"
   xmlns="http://www.w3.org/2000/svg"
   xmlns:svg="http://www.w3.org/2000/svg">
  <defs
     id="defs1" />
  <path
     d="M 4.8828125,90.603905 V 88.553123 H 83.59375 l 5.273437,-5.273437 6.25,5.273437 v 2.050782 z M 21.289062,84.74453 V 45.486717 l 6.347657,3.125 h 44.726562 l 3.125,-2.636719 5.761719,4.785157 -2.539063,2.050781 v 28.320312 l -6.347656,3.125 V 80.05703 H 27.636719 v 1.5625 z m 6.347657,-6.835938 H 72.363281 V 65.017967 H 27.636719 Z m 0,-15.039062 H 72.363281 V 50.760155 H 27.636719 Z M 4.4921875,44.217186 l -0.390625,-0.78125 3.4179687,-2.734375 3.0273438,-2.734375 2.734375,-2.734375 2.34375,-2.636719 1.953125,-2.734375 1.757812,-2.734375 1.269532,-2.734375 0.976562,-2.734375 0.683594,-2.832031 0.292969,-2.246094 0.195312,-1.660156 6.152344,1.953125 1.367187,1.171875 -1.855468,0.878906 -0.390625,1.367188 -1.171875,3.320312 -0.976563,1.953125 0.488281,0.683594 2.832032,2.539062 3.808593,2.148438 4.785157,1.855469 5.957031,1.5625 3.125,0.488281 V 8.9632797 H 9.5703125 V 6.9124985 H 84.082031 l 2.148438,-1.7578125 0.195312,0.2929687 1.367188,-1.171875 5.761718,4.6875 -2.636718,1.6601563 -6.25,2.539062 v -0.78125 l -6.738282,2.539063 -1.757812,0.585937 -1.855469,0.78125 -0.390625,-0.78125 1.464844,-1.171875 4.101562,-3.613281 2.050782,-1.7578123 H 53.125 V 22.342186 h 21.582031 l 5.175781,-5.273438 6.347657,5.273438 v 2.050781 H 53.125 v 11.328125 l 6.054687,0.585938 9.375,0.390625 10.546875,0.09766 11.71875,-0.390625 6.054688,-0.195313 -5.859375,7.03125 -11.914063,0.09766 -10.839843,-0.390625 -9.667969,-0.878907 -8.496094,-1.269531 -7.519531,-1.757812 -6.25,-2.148438 -5.273438,-2.539062 -3.90625,-3.222657 -2.441406,-3.417968 -1.367187,2.050781 -2.246094,2.832031 -2.636719,2.734375 -2.929687,2.539063 -3.320313,2.34375 -3.613281,2.148437 z"
     id="text1"
     style="font-size:100px;font-family:HanaMinA;text-anchor:middle"
     aria-label="ç–" />
</svg>
