<?xml version="1.0" encoding="UTF-8" standalone="no"?>
<svg
   height="100"
   width="100"
   viewBox="0 0 100 100"
   version="1.1"
   id="svg1"
   xmlns="http://www.w3.org/2000/svg"
   xmlns:svg="http://www.w3.org/2000/svg">
  <defs
     id="defs1" />
  <path
     d="M 62.597656,93.631248 V 79.471092 H 37.402344 v -2.148437 h 25.195312 v -32.03125 l 6.347656,1.074218 1.5625,1.074219 -1.5625,0.976563 v 28.90625 h 18.261719 l 4.296875,-4.6875 5.175781,4.6875 v 2.148437 H 68.945312 V 90.506248 Z M 7.03125,87.08828 V 20.291405 l 6.25,3.125 h 3.90625 l 0.390625,-1.464844 0.390625,-2.246094 0.976562,-4.199219 0.390625,-2.148437 0.488282,-1.953125 1.074218,-5.9570313 0.292969,-1.8554687 h 0.09766 L 21.484375,2.6156235 27.34375,5.154686 28.613281,6.5218735 26.5625,7.107811 l -0.683594,1.8554687 -2.539062,5.7617183 -1.953125,3.90625 -2.246094,3.90625 -0.585938,0.878907 h 10.9375 l 3.125,-2.636719 5.761719,4.785156 -2.636719,2.050781 V 77.71328 l -6.25,3.125 v -3.125 H 13.28125 v 6.25 z m 6.25,-11.523438 H 29.492187 V 50.857811 H 13.28125 Z m 58.789062,-5.566406 v -2.050781 h 9.863282 l 4.296875,-4.785157 5.273437,4.785157 v 2.050781 z m -32.03125,0 v -2.050781 h 9.863282 l 4.296875,-4.785157 5.273437,4.785157 v 2.050781 z M 72.070312,58.96328 v -2.050782 h 9.863282 l 4.296875,-4.785156 5.273437,4.785156 v 2.050782 z m -32.03125,0 v -2.050782 h 9.863282 l 4.296875,-4.785156 5.273437,4.785156 v 2.050782 z m 4.785157,-8.105469 V 8.1820297 l 6.347656,3.1250003 h 6.738281 l 0.09766,-0.195313 3.125,-6.0546873 0.878907,-1.8554687 0.09766,-0.390625 -0.09766,-0.097656 0.585937,-0.6835937 4.785156,4.1015625 0.683594,1.7578125 -2.539062,-0.2929688 -2.539063,1.953125 -0.976562,0.5859378 -1.953125,1.171875 h 19.140625 l 3.222656,-2.636719 5.761719,4.785156 -2.636719,2.050781 v 30.664063 l -6.347656,3.125 V 44.11953 H 51.171875 v 3.613281 z M 13.28125,48.709373 H 29.492187 V 25.564842 H 13.28125 Z m 37.890625,-6.738281 h 28.027344 v -8.59375 H 51.171875 Z m 0,-10.644531 h 28.027344 v -7.8125 H 51.171875 Z m 0,-9.863281 H 79.199219 V 13.455467 H 51.171875 Z"
     id="text1"
     style="font-size:100px;font-family:HanaMinA;text-anchor:middle"
     aria-label="皥" />
</svg>
