<?xml version="1.0" encoding="UTF-8" standalone="no"?>
<svg
   height="100"
   width="100"
   viewBox="0 0 100 100"
   version="1.1"
   id="svg1"
   xmlns="http://www.w3.org/2000/svg"
   xmlns:svg="http://www.w3.org/2000/svg">
  <defs
     id="defs1" />
  <path
     d="m 23.632812,86.014061 0.292969,-0.09766 4.003906,-0.390625 3.90625,-0.488282 3.90625,-0.390625 1.5625,-0.195312 V 76.736717 H 23.632812 Z m 0,-11.425781 H 37.304687 V 65.310936 H 23.632812 Z m 50,-4.980469 2.929688,-5.859375 2.34375,-6.054688 2.050781,-6.542968 1.367188,-5.273438 H 63.28125 l 1.855469,5.664063 2.148437,5.859375 2.34375,5.273437 2.636719,4.785156 z m -50,-6.347656 H 37.304687 V 53.982811 H 23.632812 Z m 5.078125,-15.527344 -1.171875,-0.195313 -1.171875,-0.292968 -1.171875,-0.585938 -1.074218,-0.683594 -0.878907,-0.976562 -0.683593,-1.171875 -0.488282,-1.171875 -0.292968,-1.269531 -0.09766,-1.269532 v -4.6875 l -8.203124,1.367188 v 16.40625 l -0.195313,5.371094 -0.390625,5.078125 -0.488281,4.6875 -0.585938,4.492187 -0.78125,4.101563 -0.976562,3.710937 L 9.0820313,84.158592 7.8125,87.185936 6.3476562,89.920311 4.6875,92.264061 3.90625,91.77578 4.4921875,89.139061 5.6640625,83.279686 6.25,79.861717 6.640625,76.248436 6.9335937,72.24453 7.1289062,67.947655 7.2265625,63.357811 v -4.980469 -5.175781 -36.71875 l 6.2500005,3.125 h 9.765624 V 1.248436 l 6.25,1.0742187 1.5625,0.9765625 -1.5625,0.9765625 v 4.8828125 h 7.519532 L 40.332031,5.4476547 44.53125,9.1585922 V 11.209373 H 29.492187 v 8.398438 h 14.746094 l 3.125,-2.636719 5.273438,4.296875 v -5.371094 l 6.25,3.222657 H 68.75 V 1.248436 l 6.347656,1.0742187 1.5625,0.9765625 -1.5625,0.9765625 V 19.11953 H 87.5 l 3.222656,-2.636719 5.761719,4.6875 -2.636719,1.5625 -1.464844,0.683594 -2.929687,4.394531 -3.515625,4.785156 -1.367188,1.660156 -1.367187,1.855469 -0.78125,-0.488281 0.78125,-2.050781 0.683594,-2.050782 1.367187,-3.808593 1.953125,-6.25 V 21.170311 H 75.097656 v 22.558594 h 7.519531 l 3.222657,-2.636719 5.761718,4.785156 -2.636718,1.5625 -0.78125,0.292969 -1.464844,5.078125 -2.539063,6.835937 -2.832031,6.347657 -3.222656,5.664062 -1.367188,2.148438 1.464844,1.855468 3.417969,3.320313 3.613281,2.832031 3.90625,2.441406 4.101563,2.050782 3.125,1.367187 -6.054688,4.882813 -4.589844,-2.636719 -4.296875,-3.125 -3.90625,-3.710938 -3.417968,-4.003906 -0.585938,-0.976562 -2.832031,3.417968 -4.199219,4.101563 -4.589844,3.417969 -4.882812,2.832031 -5.175781,2.148437 -0.390625,-0.878906 4.492187,-2.929687 4.296875,-3.320313 3.90625,-3.710937 3.515625,-4.199219 3.320313,-4.589844 v -0.09766 l -2.636719,-4.785156 -2.148438,-5.371094 -1.855468,-5.859375 -1.367188,-6.25 -0.78125,-6.152344 h -3.320312 v 4.6875 l -0.195313,6.25 -0.585937,5.761719 -0.78125,5.46875 -0.976563,5.078125 -1.269531,4.6875 -1.660156,4.199219 -1.757813,3.808593 -2.148437,3.417969 -2.34375,2.832031 -2.636719,2.441407 -0.683594,-0.683594 1.660156,-2.929688 1.5625,-3.125 1.171875,-2.636718 -4.394531,1.464843 -7.421875,1.953125 -3.808594,0.878907 -12.011718,2.539062 -6.054688,1.171875 -0.976562,1.757813 -1.171875,-1.464844 -1.953125,-6.054688 1.074219,-0.195312 5.859374,-0.488281 V 48.709373 l 6.25,3.125 h 13.671875 l 3.125,-2.636718 5.761719,4.785156 -2.636719,2.050781 v 27.832031 l 3.515625,-0.390625 1.757813,-0.09766 0.878906,-2.636719 1.074219,-4.101562 0.78125,-4.492188 0.585937,-4.785156 0.390625,-5.273437 0.09766,-5.566407 V 50.564842 22.049217 l -2.148438,1.269531 -1.5625,0.585938 -1.855469,2.929687 -1.464843,2.148438 -1.660157,2.148437 -0.585937,1.269532 -0.878906,-0.390625 0.390625,-1.367188 0.09766,-1.367187 0.195312,-1.269532 0.390625,-2.539062 0.09766,-1.269531 0.292968,-1.171875 0.09766,-1.269532 H 13.476563 V 34.74453 l 8.203124,-1.367188 V 22.732811 l 6.25,1.074219 1.5625,1.074218 -1.5625,0.878907 v 6.542968 l 1.757813,-0.292968 4.394531,-6.054688 7.03125,4.199219 0.390625,2.050781 -13.574219,2.246094 v 5.664062 0.585938 0.585937 0.292969 0.292969 l 0.09766,0.195312 0.09766,0.195313 0.292969,0.195312 0.292968,0.195313 0.585938,0.195312 0.78125,0.09766 h 13.476562 l 2.246094,-6.835938 H 46.875 l -0.976563,6.933594 1.367188,0.878906 0.878906,1.367188 -0.878906,1.464843 -1.464844,0.976563 z M 58.886719,43.728905 H 68.75 V 21.170311 h -9.863281 z"
     id="text1"
     style="font-size:100px;font-family:HanaMinA;text-anchor:middle"
     aria-label="皻" />
</svg>
