<?xml version="1.0" encoding="UTF-8" standalone="no"?>
<svg
   height="100"
   width="100"
   viewBox="0 0 100 100"
   version="1.1"
   id="svg1"
   xmlns="http://www.w3.org/2000/svg"
   xmlns:svg="http://www.w3.org/2000/svg">
  <defs
     id="defs1" />
  <path
     d="m 74.511719,93.631248 v -3.125 L 64.0625,88.943748 v -1.5625 h 10.449219 l 0.683593,-0.09766 0.488282,-0.09766 0.488281,-0.195313 0.09766,-0.09766 v -0.09766 l 0.09766,-0.09766 0.09766,-0.390625 0.195312,-0.488282 V 51.93203 l -4.589844,7.421875 -4.003906,5.761718 -4.296875,5.371094 -4.492187,5.078125 -4.785157,4.589844 -4.980468,4.296875 -5.175782,3.808594 -5.46875,3.417968 -5.761718,2.832032 -0.390625,-0.78125 5.078125,-3.808594 4.785156,-3.90625 4.6875,-4.199219 4.492187,-4.492187 4.199219,-4.785157 4.003906,-5.078125 3.808594,-5.371093 3.515625,-5.761719 3.417969,-5.957031 1.855469,-4.003907 H 39.160156 V 44.314842 H 53.515625 V 9.1585922 H 45.410156 V 7.0101547 H 80.664062 L 85.9375,1.7367172 92.285156,7.0101547 v 2.1484375 h -9.375 V 44.314842 h 1.5625 l 5.273438,-5.273437 6.25,5.273437 v 2.050781 H 82.910156 v 38.867188 1.269531 l -0.292969,1.367188 -0.390625,1.269531 -0.683593,1.171875 -0.878907,1.074219 -0.976562,0.878906 -1.269531,0.683594 -1.269532,0.390625 -1.269531,0.195312 z M 11.816406,86.795311 V 50.467186 l -2.832031,4.785156 -3.125,4.394531 -3.2226562,4.296875 -0.8789063,-0.488281 6.9335938,-14.355469 3.1249997,-7.519531 v -5.175781 l 1.660157,0.878906 2.539062,-7.421875 1.464844,-4.882812 L 18.75,20.096092 19.628906,15.896873 H 5.078125 v -2.050781 h 22.460937 l 5.273438,-5.2734373 6.25,5.2734373 v 2.050781 H 24.21875 l 1.757812,0.683594 1.269532,1.464844 -1.855469,0.585937 -2.539063,8.105469 -1.855468,4.980469 -3.320313,7.617187 0.488281,0.195313 h 10.644532 l 3.222656,-2.636719 5.761719,4.785156 -2.636719,2.050782 v 35.742187 l -6.347656,3.125 V 77.322655 H 18.164062 v 6.347656 z M 18.164062,75.271873 H 28.808594 V 41.678123 H 18.164062 Z M 59.863281,44.314842 H 76.660156 V 9.1585922 H 59.863281 Z"
     id="text1"
     style="font-size:100px;font-family:HanaMinA;text-anchor:middle"
     aria-label="砑" />
</svg>
