<?xml version="1.0" encoding="UTF-8" standalone="no"?>
<svg
   height="100"
   width="100"
   viewBox="0 0 100 100"
   version="1.1"
   id="svg1"
   xmlns="http://www.w3.org/2000/svg"
   xmlns:svg="http://www.w3.org/2000/svg">
  <defs
     id="defs1" />
  <path
     d="m 40.722656,93.826561 -0.585937,-0.683594 3.222656,-4.003906 2.832031,-4.785156 2.636719,-5.761719 2.34375,-6.640625 2.050781,-7.617188 1.757813,-8.691406 1.464843,-9.765625 1.074219,-10.644531 0.78125,-11.71875 0.390625,-11.523438 H 45.3125 V 9.842186 h 30.371094 l 3.125,-2.6367188 5.761718,4.7851558 -2.636718,1.5625 -0.683594,0.292969 -1.5625,22.65625 h 7.421875 l 3.125,-2.636719 5.761719,4.785157 -2.636719,1.5625 -0.195313,4.003906 -0.195312,6.25 -0.292969,5.859375 -0.585937,5.371094 -0.585938,4.980468 -0.78125,4.492188 -0.878906,4.199219 -1.074219,3.808593 -1.171875,3.320313 -1.367187,2.929687 -0.585938,1.171875 -0.683594,1.074219 -0.976562,0.976563 -0.878906,0.878906 -1.074219,0.683594 -1.171875,0.585937 -1.171875,0.488281 -1.269531,0.292969 -1.269532,0.195313 -1.367187,0.09766 v -3.125 L 65.332031,87.08828 v -1.5625 H 75.78125 76.5625 l 0.585937,-0.09766 0.585938,-0.09766 0.585937,-0.292969 0.488282,-0.195312 0.390625,-0.292969 0.78125,-0.78125 0.390625,-0.488281 0.292968,-0.683594 1.171875,-2.441406 0.976563,-2.929688 0.878906,-3.320312 0.878906,-3.808594 0.683594,-4.296875 0.585938,-4.785156 0.488281,-5.273438 0.390625,-5.566406 0.195312,-6.054687 0.195313,-5.46875 h -7.617188 l -0.488281,6.445312 -6.445312,2.636719 3.027343,-35.742188 H 64.941406 l -0.683594,11.914063 -1.171875,11.914062 -1.464843,10.839844 -1.855469,9.863281 -2.246094,8.886719 -2.539062,7.8125 -3.027344,6.835938 -3.320313,5.761718 -3.808593,4.589844 z M 21.875,93.533592 V 31.521873 H 4.3945312 V 29.373436 H 36.132812 l 5.175782,-5.273438 6.347656,5.273438 v 2.148437 H 27.734375 V 90.603905 Z M 4.6875,86.111717 4.1992187,85.428123 5.2734375,83.767967 6.25,81.912498 7.1289062,79.959373 7.8125,77.615623 8.3984375,75.076561 8.984375,72.24453 9.2773438,69.021873 9.4726563,65.506248 9.5703125,61.697655 V 57.596092 39.822655 l 5.7617185,1.074218 1.367188,1.074219 -1.367188,0.878906 v 14.746094 l -0.292968,4.296875 -0.390625,4.101563 -0.585938,3.710937 -0.78125,3.417969 -0.878906,3.027344 -1.171875,2.832031 -1.3671877,2.34375 -1.4648438,2.050781 -1.7578125,1.660156 z m 30.371094,-7.03125 V 39.822655 l 6.25,1.074218 1.5625,1.074219 -1.5625,0.878906 V 75.857811 Z M 9.375,12.674217 V 10.623436 H 30.664062 L 35.839844,5.3499985 42.1875,10.623436 v 2.050781 z"
     id="text1"
     style="font-size:100px;font-family:HanaMinA;text-anchor:middle"
     aria-label="礽" />
</svg>
