<?xml version="1.0" encoding="UTF-8" standalone="no"?>
<svg
   height="100"
   width="100"
   viewBox="0 0 100 100"
   version="1.1"
   id="svg1"
   xmlns="http://www.w3.org/2000/svg"
   xmlns:svg="http://www.w3.org/2000/svg">
  <defs
     id="defs1" />
  <path
     d="m 83.300781,94.11953 v -3.125 l -10.546875,-1.5625 v -1.5625 h 10.546875 l 0.585938,-0.09766 H 84.375 l 0.292969,-0.09766 0.195312,-0.09766 0.09766,-0.09766 0.09766,-0.09766 0.09766,-0.195312 0.09766,-0.292969 0.09766,-0.488281 V 85.721092 68.240623 H 62.5 l -0.683594,3.417969 -1.5625,4.394531 -2.148437,4.101563 -2.636719,3.515625 -3.222656,3.125 -3.710938,2.539062 -4.101562,1.953125 -4.589844,1.464844 -5.078125,0.976563 -0.292969,-0.976563 4.6875,-1.855469 4.003906,-2.050781 3.515625,-2.441406 2.929688,-2.539063 2.34375,-2.929687 1.953125,-3.222656 1.464844,-3.515625 0.976562,-3.808594 0.488281,-4.296875 0.09766,-4.589844 V 28.982811 l 6.25,3.125 h 22.167968 l 3.222657,-2.636719 5.761718,4.6875 -2.636718,2.148438 v 49.414062 l -0.09766,1.367188 -0.195312,1.269531 -0.488281,1.367187 -0.683594,1.171875 -0.78125,0.976563 -1.074219,0.878906 -1.171875,0.683594 -1.269531,0.390625 -1.367188,0.292969 z M 11.328125,91.77578 V 56.131248 l 6.347656,3.125 h 8.203125 V 44.217186 H 5.078125 v -2.050781 h 20.800781 v -14.84375 l 6.25,0.976562 1.5625,1.074219 -1.5625,0.976562 v 11.816407 h 9.179688 l 5.273437,-5.273438 6.347656,5.273438 v 2.050781 H 32.128906 v 15.039062 h 8.203125 l 3.125,-2.636718 5.761719,4.6875 -2.636719,2.148437 v 18.847656 l -6.25,3.222657 v -3.222657 h -22.65625 v 6.347657 z m 6.347656,-11.523438 h 22.65625 V 61.30703 H 17.675781 Z M 63.183594,49.099998 H 85.351562 V 34.158592 H 63.183594 Z M 4.1015625,29.373436 3.515625,28.592186 l 4.7851563,-5.273438 4.1015627,-5.175781 1.757812,-2.636719 1.5625,-2.636718 1.367188,-2.734375 1.171875,-2.636719 0.976562,-2.8320313 0.78125,-2.734375 0.292969,-0.8789062 5.761719,2.734375 1.171875,1.4648437 -1.953125,0.4882813 -1.953125,4.1015625 -0.878907,1.5625 H 41.601562 L 46.875,6.1312485 l 6.25,5.2734375 v 2.148437 H 27.148437 l 2.148438,0.878907 1.757812,0.78125 1.660157,0.976562 1.464843,0.976563 1.464844,1.074218 1.269531,1.171875 1.074219,1.269532 0.976563,1.367187 0.09766,2.34375 -1.464844,1.855469 -2.441406,0.09766 -1.855469,-1.5625 -0.292969,-0.976562 -0.488281,-1.074219 -0.585937,-1.171875 -0.878907,-1.074219 -0.976562,-1.269531 -2.34375,-2.34375 -3.027344,-2.636719 -1.074219,-0.683594 h -2.441406 l -1.367187,1.953125 -2.148438,2.636719 -2.246093,2.539063 -2.539063,2.441406 -2.734375,2.246094 -2.9296875,2.148437 z m 41.4062495,-1.855469 -0.488281,-0.78125 4.785156,-4.785156 2.148438,-2.34375 1.953125,-2.441406 1.757812,-2.34375 1.5625,-2.539063 1.367188,-2.5390623 1.171875,-2.5390625 0.976562,-2.6367187 0.976563,-3.515625 5.859375,2.734375 1.074219,1.4648437 -1.953125,0.4882813 -1.855469,3.90625 -1.074219,1.7578125 H 83.59375 l 5.273437,-5.2734375 6.25,5.2734375 v 2.148437 h -26.5625 l 2.246094,0.878907 1.757813,0.78125 1.5625,0.976562 1.5625,0.976563 1.367187,1.074218 1.269531,1.171875 1.171875,1.269532 0.976563,1.367187 0.09766,2.34375 -1.5625,1.855469 -2.34375,0.09766 -1.855469,-1.5625 -0.292968,-0.976562 -0.488282,-1.074219 -0.683593,-1.171875 -0.78125,-1.074219 -0.976563,-1.269531 -2.34375,-2.34375 -3.027344,-2.636719 -1.171875,-0.683594 h -2.734375 l -1.074218,1.464844 -2.050782,2.539063 -2.34375,2.34375 -2.441406,2.148437 -2.734375,2.050781 -2.929687,1.855469 z M 62.890625,66.092186 H 85.351562 V 51.248436 H 63.183594 v 10.253906 z"
     id="text1"
     style="font-size:100px;font-family:HanaMinA;text-anchor:middle"
     aria-label="箶" />
</svg>
