<?xml version="1.0" encoding="UTF-8" standalone="no"?>
<svg
   height="100"
   width="100"
   viewBox="0 0 100 100"
   version="1.1"
   id="svg1"
   xmlns="http://www.w3.org/2000/svg"
   xmlns:svg="http://www.w3.org/2000/svg">
  <defs
     id="defs1" />
  <path
     d="M 28.417969,93.924217 V 90.99453 L 20.3125,89.529686 v -1.367188 h 8.105469 l 0.390625,-0.09766 h 0.390625 l 0.292968,-0.195312 0.195313,-0.195313 0.195312,-0.292969 0.09766,-0.390625 0.09766,-0.585937 V 52.71328 H 15.332031 v 5.175781 l -0.292968,5.761719 -0.488282,5.273437 -0.78125,4.785156 -0.878906,4.492188 -1.074219,4.003906 -1.367187,3.613281 -1.464844,3.222657 -1.8554688,2.734375 -1.953125,2.148437 -2.1484374,1.5625 L 2.34375,94.803123 3.6132813,92.654686 4.7851562,90.310936 5.7617187,87.576561 6.640625,84.549217 7.5195312,81.131248 8.1054688,77.224998 8.59375,73.02578 8.8867188,68.33828 9.0820313,63.357811 V 3.2992172 l 6.2499997,3.2226563 h 14.746094 l 2.832031,-2.6367188 5.566406,4.6875 -2.636718,1.8554683 v 75.292969 l -0.09766,1.269531 -0.195312,1.269532 -0.292969,1.171875 -0.488281,1.074218 -0.78125,1.074219 -0.976563,0.878906 -0.976562,0.683594 -1.269531,0.390625 -1.171875,0.292969 z M 42.089844,93.33828 V 6.2289047 l 5.761718,2.9296875 h 39.257813 l 3.125,-2.6367187 5.761719,4.6874995 -2.636719,2.148438 v 74.023437 l -6.25,3.125 V 84.158592 H 47.851562 v 6.347656 z M 47.851562,82.107811 H 87.109375 V 11.209373 H 47.851562 Z m 1.660157,-2.832031 -0.488282,-0.78125 3.125,-2.734375 2.636719,-2.929688 2.34375,-3.417969 2.050781,-3.710937 1.660157,-4.101563 1.269531,-4.6875 0.976562,-4.980468 0.585938,-5.566407 0.195312,-6.054687 -0.09766,-5.46875 h -12.5 v -2.148438 h 12.5 V 15.408592 l 6.347656,1.074219 1.5625,1.074219 -1.5625,0.878906 v 14.257812 h 3.613282 l 5.273437,-5.175781 6.25,5.175781 v 2.148438 H 70.019531 l -0.09766,5.761719 -0.488281,4.980468 1.269531,1.171875 1.855469,1.953125 1.757812,2.050782 3.125,4.296875 2.832031,4.589843 2.441407,4.785157 1.074218,2.441406 -0.09766,2.441406 -1.757812,1.660156 -2.441407,-0.195312 -1.660156,-1.757813 -1.464844,-4.6875 -1.757812,-4.6875 -2.050781,-4.6875 -3.417969,-7.03125 -0.878906,4.882813 -1.464844,5.46875 -1.855469,4.882812 -2.246094,4.394532 -2.734375,3.90625 -3.125,3.320312 -3.515625,2.539063 z M 15.332031,50.564842 H 30.078125 V 30.154686 H 15.332031 Z m 0,-22.558594 H 30.078125 V 8.5726547 H 15.332031 Z"
     id="text1"
     style="font-size:100px;font-family:HanaMinA;text-anchor:middle"
     aria-label="胭" />
</svg>
