<?xml version="1.0" encoding="UTF-8" standalone="no"?>
<svg
   height="100"
   width="100"
   viewBox="0 0 100 100"
   version="1.1"
   id="svg1"
   xmlns="http://www.w3.org/2000/svg"
   xmlns:svg="http://www.w3.org/2000/svg">
  <defs
     id="defs1" />
  <path
     d="M 57.324219,94.11953 V 5.4476547 l 6.347656,3.125 h 22.753906 l 3.125,-2.6367187 5.761719,4.785156 -2.539063,1.5625 -1.269531,0.488281 -1.855469,3.515625 -3.417968,5.566407 -6.054688,8.59375 -4.785156,5.957031 -1.953125,1.953125 5.664062,1.855469 4.882813,3.027343 3.808594,3.613282 2.832031,3.90625 1.953125,4.199218 1.074219,4.199219 0.488281,4.003906 -0.09766,3.808594 -0.683594,3.417969 -0.976563,3.027344 -0.585937,1.074218 -0.78125,1.171875 -0.78125,0.976563 -0.878906,0.878906 -1.074219,0.78125 -1.074219,0.585938 -1.269531,0.488281 -1.269531,0.390625 -1.269532,0.09766 -1.367187,0.09766 v -3.125 l -6.25,-1.5625 v -1.5625 h 6.25 l 0.78125,-0.09766 0.585937,-0.09766 0.585938,-0.09766 0.488281,-0.195313 0.78125,-0.488281 0.390625,-0.390625 0.390625,-0.488281 0.390625,-0.488282 L 87.5,68.728905 88.183594,66.092186 88.574219,63.162498 88.476562,59.842186 87.890625,56.424217 86.621094,52.908592 84.570312,49.392967 81.640625,45.974998 77.636719,42.55703 72.65625,39.236717 v 0.09766 l -0.78125,-0.585937 8.691406,-16.308594 4.003906,-8.691406 1.171875,-2.734375 0.09766,-0.292969 H 63.671875 V 90.99453 Z M 4.1992187,93.435936 3.6132813,92.752342 l 5.9570312,-5.957031 5.4687505,-6.347656 5.078124,-6.738282 4.492188,-7.03125 4.199219,-7.617187 3.222656,-6.933594 -2.636719,-2.929687 -3.710937,-3.90625 -4.003907,-3.710938 -4.199218,-3.515625 -8.886719,-6.835937 0.4882813,-0.78125 5.1757817,2.539062 4.882812,2.734375 4.6875,3.222656 4.492187,3.417969 4.296875,3.710938 1.269532,1.269531 1.757812,-4.785156 2.832031,-8.886719 2.246094,-9.472656 1.5625,-8.300782 H 6.4453125 V 13.846092 H 42.578125 l 3.125,-2.636719 5.761719,4.6875 -2.636719,1.660157 -0.585938,0.195312 -1.660156,7.8125 -2.734375,9.667969 -3.222656,9.179687 -2.929688,6.835938 2.832032,3.027344 3.613281,4.589843 3.515625,4.785157 3.222656,4.980468 0.292969,2.34375 -1.464844,1.953125 -2.34375,0.292969 -1.953125,-1.464844 -2.832031,-4.882812 -2.929688,-4.785156 -3.222656,-4.492188 -1.171875,-1.367187 -2.539062,4.980468 -4.6875,7.617188 -5.175782,7.03125 -5.761718,6.445312 -6.152344,5.859375 z"
     id="text1"
     style="font-size:100px;font-family:HanaMinA;text-anchor:middle"
     aria-label="邓" />
</svg>
