<?xml version="1.0" encoding="UTF-8" standalone="no"?>
<svg
   height="100"
   width="100"
   viewBox="0 0 100 100"
   version="1.1"
   id="svg1"
   xmlns="http://www.w3.org/2000/svg"
   xmlns:svg="http://www.w3.org/2000/svg">
  <defs
     id="defs1" />
  <path
     d="m 10.839844,94.11953 v -60.9375 l -4.1015628,4.492187 -2.9296874,2.636719 -0.78125,-0.585938 8.4960942,-13.671875 4.003906,-7.519531 3.808593,-7.910156 3.808594,-9.2773438 5.46875,3.125 1.074219,1.5625 -1.953125,0.2929688 -1.074219,2.2460937 2.734375,1.171875 2.148438,1.1718753 1.953125,1.171875 1.953125,1.367187 1.660156,1.367188 1.5625,1.5625 1.464844,1.5625 1.367187,1.757812 1.269531,1.757813 0.09766,2.441406 -1.464844,1.757812 -2.441406,0.195313 -1.855469,-1.5625 -0.683594,-1.5625 -0.78125,-1.5625 -0.878906,-1.5625 -1.074219,-1.5625 -2.539062,-3.125 -4.882813,-4.6875 -0.292969,-0.2929688 -3.808593,7.1289058 -4.785157,7.617188 -2.539062,3.515625 -2.636719,3.417969 -0.78125,0.878906 5.761719,2.832031 h 15.234375 l 3.222656,-2.636719 5.761719,4.785157 -2.636719,2.050781 v 22.070312 l -6.347656,3.125 V 60.52578 H 17.1875 v 10.546875 h 14.84375 l 4.296875,-4.785157 5.273437,4.785157 v 2.050781 H 17.1875 V 83.18203 h 13.28125 l 5.273437,-5.273438 6.25,5.273438 v 2.050781 H 17.1875 v 5.761719 z m 28.90625,-0.09766 -0.292969,-0.878906 4.882812,-1.953125 4.394532,-2.246094 3.808593,-2.734375 3.320313,-3.222656 2.929687,-3.613281 2.441407,-4.101563 1.953125,-4.589843 0.878906,-2.734375 H 42.578125 v -2.148438 h 22.167969 l 1.269531,-6.054687 0.683594,-6.347657 0.195312,-1.171875 6.054688,1.855469 1.5625,1.171875 -1.855469,0.878906 -0.78125,4.6875 -1.269531,4.980469 h 14.160156 l 5.273437,-5.273437 6.347657,5.273437 v 2.148438 H 70.3125 l 3.515625,5.761718 1.953125,2.734375 2.148437,2.34375 2.148438,2.050782 2.246094,1.660156 2.34375,1.367187 2.441406,0.976563 2.539062,0.683594 7.714844,1.367187 -6.152344,5.957031 -3.417968,-0.976562 -3.125,-1.367188 -2.929688,-1.660156 -2.734375,-2.050781 -2.34375,-2.441406 -2.148437,-2.832032 -1.855469,-3.027343 -1.5625,-3.320313 -1.269531,-3.710937 -0.488282,-2.148438 -1.269531,3.320313 -2.636719,5.078125 -3.125,4.394531 -3.613281,3.710937 -4.101562,3.222657 L 50,91.385155 45.019531,93.142967 Z M 49.804687,58.96328 V 22.732811 l 6.347657,3.222656 h 26.5625 l 3.222656,-2.636719 5.761719,4.6875 -2.636719,2.148438 V 54.27578 l -6.347656,3.125 v -5.273438 h -26.5625 V 55.83828 Z M 17.1875,58.474998 H 32.421875 V 48.514061 H 17.1875 Z m 38.964844,-8.398437 h 26.5625 V 39.529686 h -26.5625 z M 17.1875,46.365623 H 32.421875 V 37.478905 H 17.1875 Z m 38.964844,-8.886718 h 26.5625 v -9.472657 h -26.5625 z M 16.796875,28.006248 V 25.955467 H 26.5625 l 4.296875,-4.785156 5.273437,4.785156 v 2.050781 z M 58.007812,24.295311 V 13.846092 H 44.140625 V 11.697655 H 58.007812 V 0.66249847 l 6.25,1.07421873 1.5625,1.0742188 -1.5625,0.9765625 V 11.697655 H 74.902344 V 0.66249847 L 81.25,1.7367172 82.8125,2.810936 81.25,3.7874985 v 7.9101565 h 4.199219 l 5.273437,-5.1757815 6.25,5.1757815 v 2.148437 H 81.25 v 6.835938 l -6.347656,3.125 V 13.846092 H 64.257812 v 7.324219 z"
     id="text1"
     style="font-size:100px;font-family:HanaMinA;text-anchor:middle"
     aria-label="饃" />
</svg>
