<?xml version="1.0" encoding="UTF-8" standalone="no"?>
<svg
   height="100"
   width="100"
   viewBox="0 0 100 100"
   version="1.1"
   id="svg1"
   xmlns="http://www.w3.org/2000/svg"
   xmlns:svg="http://www.w3.org/2000/svg">
  <defs
     id="defs1" />
  <path
     d="m 36.132812,94.510155 -0.390625,-0.78125 4.394532,-3.417969 4.003906,-4.296875 3.417969,-5.175781 3.027343,-6.152344 2.636719,-7.128906 2.050781,-8.203125 1.660157,-9.277344 1.171875,-10.351563 0.683593,-11.328125 0.195313,-11.328125 H 42.871094 v -2.050781 h 42.089843 l 3.125,-2.636719 5.761719,4.6875 -2.539062,1.5625 v 8.886719 l -0.195313,10.546875 -0.195312,9.472656 -0.292969,8.496094 -0.488281,7.421875 -0.683594,6.445313 -0.683594,5.46875 -0.878906,4.492187 -1.171875,3.613281 -1.367188,2.832032 -0.78125,1.074218 -0.878906,0.878907 -0.976562,0.878906 -0.976563,0.78125 -1.171875,0.585937 -1.074219,0.585938 -1.171875,0.390625 -1.269531,0.292969 -1.269531,0.09766 -1.269531,0.09766 v -3.125 L 63.964844,87.185936 v -1.5625 h 11.328125 l 0.683593,-0.09766 0.585938,-0.09766 1.171875,-0.488281 0.488281,-0.292969 0.488281,-0.390625 0.976563,-0.878906 0.488281,-0.683594 0.683594,-1.464843 0.878906,-2.832032 0.78125,-4.101562 0.683594,-5.078125 0.585937,-6.25 0.488282,-7.324219 0.390625,-8.300781 0.195312,-9.375 0.09766,-10.449219 V 17.068748 H 65.332031 l -0.488281,11.71875 -1.074219,11.523438 -1.660156,10.644531 -2.050781,9.570313 -2.636719,8.398437 -3.222656,7.421875 -3.710938,6.347656 -4.296875,5.175782 -4.785156,4.003906 z M 7.03125,93.33828 4.6875,93.045311 3.3203125,90.99453 3.6132813,88.65078 4.3945312,87.674217 5.1757812,86.404686 5.859375,85.037498 6.5429687,83.474998 7.2265625,81.61953 7.8125,79.666405 8.3984375,77.615623 9.375,72.732811 9.8632813,70.096092 h 0.8789067 l 0.390625,2.734375 0.195312,2.539063 0.09766,2.539062 v 2.34375 l -0.09766,2.246094 -0.195312,2.148437 -0.390625,1.953125 -0.390625,1.855469 -0.585938,1.855469 -0.78125,1.660156 z m 21.875,-5.273438 -2.246094,-0.585937 -1.269531,-2.148438 V 83.96328 82.596092 L 25.195312,81.228905 25,79.959373 24.707031,78.592186 24.316406,77.224998 23.925781,75.857811 22.851562,73.02578 l -0.878906,-1.269532 0.683594,-0.585937 1.171875,1.074219 1.269531,0.976562 1.171875,1.171875 1.074219,1.171875 0.878906,1.367188 0.976563,1.367187 0.78125,1.464844 0.683593,1.5625 0.585938,1.5625 0.390625,1.660156 -0.585938,2.34375 z m -10.742188,2.050781 -2.050781,-1.171875 -0.78125,-2.246093 0.585938,-2.441407 0.09766,-1.269531 0.09766,-1.367187 v -3.027344 l -0.09766,-1.5625 -0.292969,-3.515625 -0.488281,-1.757813 0.878906,-0.390625 0.878906,1.660157 0.976563,1.660156 0.78125,1.5625 1.367187,3.222656 0.488282,1.5625 0.390625,1.5625 0.292968,1.5625 0.195313,1.5625 0.09766,1.5625 -1.171875,2.148438 z m 21.09375,-5.175781 -2.34375,-0.195312 -1.5625,-1.855469 -0.292968,-1.367188 -0.585938,-2.539062 -0.390625,-1.269531 -0.488281,-1.171875 -0.585938,-1.269532 -1.269531,-2.34375 -0.683594,-1.171875 -0.976562,-0.976562 0.585937,-0.78125 1.269532,0.78125 1.367187,0.683594 1.171875,0.878906 1.171875,0.878906 1.171875,1.074219 1.953125,2.34375 1.757813,2.832031 0.78125,1.464844 -0.195313,2.441406 z M 8.203125,66.77578 V 30.154686 l -1.8554688,2.34375 -2.0507812,2.246094 -0.78125,-0.390625 4.5898438,-11.425782 3.3203122,-9.179687 1.953125,-6.5429688 0.976563,-3.4179687 0.292969,-0.8789063 5.761718,2.734375 1.171875,1.4648438 -1.953125,0.390625 -1.953125,4.980469 -0.195312,0.488281 h 9.375 l 3.125,-2.636719 5.761718,4.6875 -2.636718,1.5625 -1.367188,0.585938 -0.976562,1.660156 -2.148438,2.929687 -2.636719,3.027344 -4.003906,4.101563 h 9.570313 l 2.832031,-2.636719 5.566406,4.6875 -2.636719,1.855469 V 63.943748 L 31.542969,66.77578 V 63.943748 H 13.964844 Z m 5.761719,-4.980469 h 6.152343 V 47.439842 h -6.152343 z m 11.425781,0 h 6.152344 V 47.439842 H 25.390625 Z M 13.964844,45.291405 h 6.152343 V 30.935936 h -6.152343 z m 11.425781,0 h 6.152344 V 30.935936 H 25.390625 Z M 13.964844,28.885155 h 6.542968 l 1.074219,-1.855469 2.832031,-5.761719 1.367188,-3.222656 0.390625,-1.464844 0.390625,-1.269531 0.09766,-0.292969 H 16.601562 l -1.757812,3.808594 -1.5625,3.027344 -2.929687,5.175781 z"
     id="text1"
     style="font-size:100px;font-family:HanaMinA;text-anchor:middle"
     aria-label="魛" />
</svg>
