<?xml version="1.0" encoding="UTF-8" standalone="no"?>
<svg
   height="100"
   width="100"
   viewBox="0 0 100 100"
   version="1.1"
   id="svg1"
   xmlns="http://www.w3.org/2000/svg"
   xmlns:svg="http://www.w3.org/2000/svg">
  <defs
     id="defs1" />
  <path
     d="M 7.5195312,94.314842 5.078125,93.924217 3.8085938,91.873436 l 0.3906249,-2.34375 0.8789063,-1.074219 0.78125,-1.269531 0.78125,-1.367188 0.6835937,-1.660156 0.6835938,-1.855469 1.171875,-4.199218 0.5859375,-2.34375 0.585938,-2.539063 0.390625,-2.734375 h 0.976562 l 0.292969,2.832031 0.195312,2.636719 0.195313,2.539063 -0.09766,2.441406 -0.195313,2.246094 -0.195312,2.246093 -0.488282,2.050782 -0.488281,1.855468 -0.585937,1.953125 -0.8789067,1.757813 z m 41.9921878,-1.5625 V 50.36953 l 6.25,3.125 h 27.246093 l 3.125,-2.636719 5.859375,4.785156 -2.636718,2.050781 v 30.371094 l -6.347657,3.125 V 85.916405 H 55.761719 v 3.710937 z m -18.164063,-3.90625 -2.34375,-0.585937 -1.269531,-2.050782 V 84.74453 l -0.09766,-1.367188 -0.195313,-1.367187 -0.195312,-1.367188 -0.78125,-2.832031 -1.171875,-2.734375 -0.585938,-1.464844 -0.976562,-1.367187 0.683593,-0.683594 1.269532,1.171875 1.367187,0.976562 1.171875,1.171875 1.171875,1.269532 0.976563,1.269531 0.976562,1.464844 0.78125,1.5625 0.78125,1.5625 0.585938,1.5625 0.488281,1.757812 -0.585938,2.34375 z m -11.71875,2.148438 -2.050781,-1.171875 -0.683594,-2.246094 0.488281,-2.539063 0.195313,-1.269531 0.09766,-2.929687 -0.195312,-3.222657 -0.195313,-1.757812 -0.292969,-1.757813 -0.390625,-1.855468 0.878907,-0.390625 0.878906,1.757812 0.976562,1.5625 1.660157,3.320313 1.074218,3.222656 0.390625,1.660156 0.390625,1.5625 0.195313,1.5625 0.09766,1.660156 -1.171875,2.148438 z m 22.851563,-5.371094 -2.441407,-0.195313 -1.5625,-1.757812 -0.683593,-2.734375 -0.390625,-1.269531 -0.488282,-1.269532 -1.074218,-2.539062 -1.464844,-2.34375 -0.78125,-1.269531 -0.976563,-1.074219 0.488282,-0.78125 1.269531,0.78125 1.464844,0.78125 1.269531,0.878906 1.269531,0.878906 1.269531,1.171875 1.074219,1.074219 1.074219,1.367188 1.757812,2.734375 0.78125,1.5625 -0.09766,2.441406 z m 13.28125,-1.757813 H 83.007812 V 55.642967 H 55.761719 Z M 9.1796875,67.166405 V 29.178123 l -2.34375,3.125 L 4.6875,34.549217 3.8085938,33.96328 10.15625,19.412498 13.769531,9.7445297 15.820313,2.810936 16.113281,2.029686 21.777344,4.764061 22.949219,6.2289047 20.996094,6.717186 18.945312,11.697655 18.75,12.283592 h 10.546875 l 3.125,-2.6367185 5.761719,4.6874995 -2.636719,1.5625 -1.367188,0.585938 -1.171875,1.855469 -2.246093,2.832031 -2.734375,3.125 -4.394532,4.199219 h 10.644532 l 2.929687,-2.539063 5.46875,4.6875 -2.636719,1.855469 v 31.738281 l -5.761718,2.929688 V 64.236717 H 14.941406 Z M 14.941406,62.08828 h 7.03125 V 47.439842 h -7.03125 z m 12.304688,0 h 7.03125 V 47.439842 h -7.03125 z m 18.945312,-16.503907 -1.269531,-1.367187 -1.757813,-6.152344 1.074219,-0.09766 8.496094,-0.683594 7.226562,-20.3125 2.148438,-6.933594 1.757812,-6.6406245 0.292969,-0.78125 5.761719,2.6367187 1.269531,1.4648438 -1.953125,0.4882812 -3.222656,8.1054688 -3.125,6.933594 -5.664063,10.742187 -2.441406,4.101563 13.769531,-1.367188 4.882813,-0.585937 10.546875,-0.976563 2.929687,-0.195312 -2.34375,-4.785157 -3.222656,-5.273437 -5.46875,-7.8125 0.585938,-0.683594 2.734375,1.953125 2.539062,2.050781 2.34375,2.34375 2.148438,2.441407 2.050781,2.539062 1.855469,2.734375 1.757812,2.734375 1.5625,2.929688 1.464844,3.027343 1.269531,3.125 -0.195312,2.34375 -1.757813,1.5625 -2.441406,-0.195312 -1.5625,-1.757813 L 89.355469,40.310936 88.28125,37.381248 87.5,35.330467 l -8.496094,2.148438 -14.453125,3.125 -12.402344,2.34375 -3.710937,0.585937 -1.367188,0.292969 z m -31.25,-0.292968 h 7.03125 V 30.642967 h -7.03125 z m 12.304688,0 h 7.03125 V 30.642967 h -7.03125 z M 14.941406,28.49453 h 7.324219 l 1.171875,-1.855469 2.148437,-4.101563 1.757813,-3.515625 0.683594,-1.660156 0.488281,-1.464844 0.390625,-1.269531 0.09766,-0.292969 H 17.773437 l -3.515624,7.03125 -3.222657,5.273438 z"
     id="text1"
     style="font-size:100px;font-family:HanaMinA;text-anchor:middle"
     aria-label="é®" />
</svg>
