<?xml version="1.0" encoding="UTF-8" standalone="no"?>
<svg
   height="100"
   width="100"
   viewBox="0 0 100 100"
   version="1.1"
   id="svg1"
   xmlns="http://www.w3.org/2000/svg"
   xmlns:svg="http://www.w3.org/2000/svg">
  <defs
     id="defs1" />
  <path
     d="m 34.375,94.217186 -0.585938,-0.195313 1.171875,-3.125 0.976563,-3.417968 0.585937,-2.636719 -1.660156,-0.195313 -1.5625,-1.855468 -0.292969,-1.269532 -0.195312,-1.367187 -0.390625,-1.171875 -0.292969,-1.269531 -0.488281,-1.269532 -0.976563,-2.34375 -1.269531,-2.34375 -0.878906,-0.976562 0.488281,-0.78125 1.171875,0.78125 1.367188,0.683594 1.171875,0.878906 1.074218,0.878906 1.171875,1.171875 1.953125,2.34375 0.878907,1.367188 0.488281,-3.90625 0.488281,-5.273438 0.390625,-5.859375 0.292969,-6.347656 0.09766,-6.738281 V 6.5218735 L 43.75,8.5726547 h 38.867187 l 5.273438,-5.2734375 6.347656,5.2734375 V 10.721092 H 43.75 v 32.03125 l -0.195313,7.324219 -0.292968,6.835937 -0.585938,6.445313 -0.683594,5.859375 -0.78125,5.46875 -0.976562,4.882812 -1.171875,4.492188 -1.367188,4.003906 -1.5625,3.320313 z m 29.199219,-0.585938 -0.488282,-0.878906 2.636719,-2.832031 2.246094,-3.222656 2.050781,-3.808594 1.757813,-4.394531 1.464843,-5.078125 1.171875,-5.664063 0.878907,-6.347656 0.683593,-7.03125 0.292969,-7.617188 v -9.570312 l 6.25,1.269531 1.5625,1.074219 -1.660156,0.976562 -0.195313,6.542969 -0.683593,7.8125 v 0.09766 l 0.878906,4.6875 0.878906,4.394532 1.171875,4.199218 1.367188,3.808594 1.464843,3.515625 1.5625,3.222656 1.855469,2.832032 1.953125,2.636718 2.636719,2.832032 -5.664063,4.199218 -2.246093,-3.027343 -1.953125,-3.417969 -1.757813,-3.515625 -1.367187,-3.808594 -1.171875,-4.003906 -0.878907,-4.296875 -0.488281,-3.320313 -0.585937,2.832032 -1.660157,5.957031 -2.050781,5.273437 -2.441406,4.492188 -2.734375,3.90625 -3.222656,3.027344 z m -18.75,-0.585937 -0.390625,-0.488281 2.148437,-2.148438 1.855469,-2.34375 1.757812,-2.539062 1.464844,-2.832032 1.171875,-3.027343 0.976563,-3.320313 0.78125,-3.613281 0.585937,-4.003906 0.292969,-4.199219 v -2.050781 h -4.6875 v 6.25 l -4.199219,2.148437 V 37.771873 l 4.199219,1.074219 1.074219,1.074219 -1.074219,0.78125 v 19.628906 h 4.6875 V 32.693748 l 4.199219,1.074219 1.074218,0.976563 -1.074218,0.78125 v 24.414062 0.09766 0.292969 h 3.710937 V 37.771873 l 5.175781,1.074219 1.367188,1.074219 -1.367188,0.878906 v 4.394531 l 2.441407,-8.984375 1.464843,-6.542968 0.585938,-3.417969 0.585937,-3.417969 0.488282,-3.515625 0.78125,-7.226562 L 75,10.916405 l 6.152344,1.953125 1.367187,1.171875 -1.757812,0.78125 -0.292969,1.757812 -1.660156,7.324219 -0.976563,3.515625 -1.074219,3.417969 -0.488281,1.367187 h 11.523438 l 3.125,-2.636719 5.761718,4.6875 -2.539062,1.5625 -1.367188,0.585938 -3.320312,5.761719 -3.320313,4.980468 -1.074218,1.855469 -0.78125,-0.390625 0.585937,-2.050781 0.390625,-2.050781 1.660156,-6.933594 0.390625,-1.464844 L 87.5,34.646873 87.597656,34.256248 H 75.488281 l -1.269531,3.125 -1.464844,3.027344 -1.660156,2.929688 -1.757813,2.832031 -0.78125,-0.390625 v 19.824219 l -5.175781,2.636718 v -5.761718 h -3.808594 l -0.09766,2.246093 -0.585937,4.492188 -0.878907,4.199219 -0.976562,3.808593 -1.367188,3.515625 -1.660156,3.222657 -1.855469,2.832031 -2.246093,2.441406 -2.441407,2.148438 z M 6.7382812,93.33828 4.296875,93.045311 2.9296875,91.092186 3.2226563,88.748436 4.0039062,87.674217 5.46875,85.037498 6.640625,81.61953 7.8125,77.615623 8.8867188,72.732811 9.2773438,70.096092 H 10.15625 l 0.292969,2.734375 0.292969,2.539063 0.195312,2.539062 v 2.246094 l -0.09766,2.34375 -0.195313,2.050781 -0.292968,1.953125 L 9.8632813,88.455467 9.2773438,90.21328 8.59375,91.873436 Z M 27.441406,88.064842 25.097656,87.381248 23.925781,85.330467 V 83.96328 l -0.09766,-1.367188 -0.292969,-2.734375 -0.292969,-1.367187 -0.78125,-2.636719 -0.976562,-2.832031 -0.78125,-1.269532 0.78125,-0.585937 1.074219,1.074219 1.269531,0.976562 2.148437,2.441406 1.757813,2.636719 0.78125,1.464844 0.585937,1.5625 0.585938,1.5625 0.488281,1.660156 -0.683594,2.34375 z m -10.253906,2.050781 -2.148437,-1.074218 -0.683594,-2.34375 0.292969,-1.171875 0.195312,-1.269532 0.09766,-1.269531 0.09766,-1.367187 0.09766,-1.464844 v -1.5625 l -0.195313,-3.320313 -0.195312,-1.757812 -0.292969,-1.757813 0.878906,-0.292968 0.78125,1.660156 0.878906,1.5625 0.78125,1.660156 0.683594,1.5625 0.585938,1.5625 0.488281,1.5625 0.390625,1.5625 0.390625,1.5625 0.195312,1.5625 0.09766,1.5625 -1.171875,2.050781 z M 7.6171875,66.77578 V 30.349998 L 5.9570312,32.498436 4.0039062,34.74453 3.2226563,34.353905 7.5195312,23.02578 9.6679688,16.971092 12.5,7.2054672 13.28125,4.2757797 13.574219,3.0062485 19.433594,5.545311 20.605469,7.107811 18.75,7.498436 l -1.855469,4.882812 -0.195312,0.585938 h 8.496093 l 3.222657,-2.636719 5.761718,4.6875 -2.636718,1.5625 -1.367188,0.585938 -0.976562,1.660156 -3.222657,4.394531 -2.734375,3.027344 -1.660156,1.660156 -0.78125,0.976563 h 9.375 l 2.441406,-2.636719 4.980469,4.6875 -2.636719,1.367187 v 31.640625 l -4.785156,2.34375 v -2.34375 H 13.378906 Z m 5.7617185,-4.980469 h 5.46875 V 47.439842 h -5.46875 z m 10.742188,0 h 6.054687 V 47.439842 H 24.121094 Z M 13.378906,45.291405 h 5.46875 V 30.935936 h -5.46875 z m 10.742188,0 h 6.054687 V 30.935936 H 24.121094 Z M 45.214844,32.40078 v -2.050782 h 12.988281 l 0.390625,-1.269531 1.074219,-4.003906 0.585937,-1.953125 3.222656,-10.15625 0.488282,-1.074219 5.371093,3.222656 1.074219,1.5625 -2.148437,0.292969 -2.636719,4.394531 -4.296875,6.738282 -1.269531,1.660156 -0.390625,0.585937 h 4.492187 l 3.222656,-3.710937 4.199219,3.710937 V 32.40078 Z M 13.378906,28.885155 h 6.054688 l 0.976562,-1.855469 2.539063,-5.664063 0.683593,-1.660156 L 24.21875,18.045311 25,15.310936 l 0.09766,-0.292969 h -9.277343 l -3.125,6.738281 -1.5625,2.929688 -1.367188,2.34375 z m 41.699219,-0.09766 -2.34375,-0.585937 -1.269531,-1.953125 -0.09766,-1.269531 -0.292968,-2.539063 -0.292969,-1.269531 -0.292969,-1.171875 -0.390625,-1.269531 -0.488281,-1.171875 -1.171875,-2.441407 -0.78125,-1.074218 0.683594,-0.683594 1.074218,0.878906 1.269532,0.78125 1.171875,0.878906 2.050781,2.148438 1.757812,2.539062 0.683594,1.464844 0.683594,1.464844 0.585937,1.464844 -0.488281,2.441406 z"
     id="text1"
     style="font-size:100px;font-family:HanaMinA;text-anchor:middle"
     aria-label="鱖" />
</svg>
