<?xml version="1.0" encoding="UTF-8" standalone="no"?>
<svg
   height="100"
   width="100"
   viewBox="0 0 100 100"
   version="1.1"
   id="svg1"
   xmlns="http://www.w3.org/2000/svg"
   xmlns:svg="http://www.w3.org/2000/svg">
  <defs
     id="defs1" />
  <path
     d="M 48.4375,93.826561 V 63.65078 l 6.25,3.125 h 25.683594 l 3.222656,-2.636719 5.761719,4.6875 -2.636719,2.148437 V 90.21328 l -6.347656,3.125 V 89.139061 H 54.6875 v 1.5625 z m -41.3085938,0.390625 -2.34375,-0.292969 -1.3671874,-2.050781 0.390625,-2.34375 0.8789062,-1.074219 0.6835937,-1.171875 0.78125,-1.464844 0.6835938,-1.660156 1.2695313,-3.808594 0.5859375,-2.246093 1.0742187,-4.882813 0.292969,-2.734375 h 0.976562 l 0.683594,5.46875 0.09766,2.539063 v 2.34375 l -0.195312,2.34375 -0.292969,2.148437 -0.292969,2.050781 -0.488281,1.953125 -0.6835937,1.855469 -0.6835938,1.757813 z M 29.6875,88.846092 27.441406,88.260155 26.171875,86.209373 V 84.74453 l -0.09766,-1.367188 -0.09766,-1.464844 -0.195312,-1.367187 -0.390625,-1.367188 -0.878906,-2.734375 -1.074219,-2.832031 -0.878906,-1.367187 0.683593,-0.585938 1.171875,1.074219 1.367188,0.976562 1.171875,1.269532 1.074219,1.171875 0.976562,1.367187 0.878906,1.464844 0.78125,1.464844 0.683594,1.5625 0.683594,1.660156 0.390625,1.660156 -0.585938,2.34375 z m -11.035156,2.148438 -2.050782,-1.171875 -0.683593,-2.246094 0.195312,-1.269531 0.195313,-1.269532 0.195312,-1.269531 0.09766,-1.464844 0.09766,-1.464843 -0.09766,-1.5625 -0.09766,-1.660157 -0.195312,-1.757812 -0.195313,-1.757813 -0.390625,-1.855468 0.878906,-0.390625 0.878907,1.757812 0.976562,1.5625 1.464844,3.320313 0.683594,1.660156 0.488281,1.5625 0.390625,1.660156 0.292969,1.5625 0.195312,1.5625 0.195313,1.660156 -1.171875,2.148438 z M 54.6875,86.990623 H 80.371094 V 78.689842 H 54.6875 Z m -14.355469,-1.367187 -2.441406,-0.195313 -1.5625,-1.855468 -0.195313,-1.367188 -0.292968,-1.269531 -0.390625,-1.367188 -0.976563,-2.441406 -1.171875,-2.441406 -1.367187,-2.441406 -1.074219,-1.074219 0.585937,-0.78125 1.269532,0.78125 1.367187,0.78125 1.367188,0.878906 1.171875,0.976563 2.148437,2.246093 1.074219,1.269532 0.878906,1.367187 0.878906,1.464844 0.78125,1.5625 -0.292968,2.34375 z M 54.6875,76.541405 H 80.371094 V 68.826561 H 54.6875 Z m -46.1914062,-9.375 V 29.568748 L 6.4453125,32.205467 4.3945312,34.549217 3.6132813,34.060936 9.5703125,19.412498 11.816406,13.064842 13.867188,6.4242172 14.746094,3.1039047 14.84375,2.9085922 15.039063,2.029686 20.898437,4.764061 21.972656,6.2289047 20.117187,6.717186 17.96875,12.283592 h 9.667969 l 3.125,-2.6367185 5.761718,4.6874995 -2.636718,1.5625 -1.269532,0.585938 -0.195312,0.390625 -0.878906,1.367187 -2.148438,2.929688 -2.734375,3.125 -4.199219,4.199219 h 9.960938 l 2.832031,-2.539063 5.566406,4.6875 -2.636718,1.855469 v 31.738281 l -5.761719,2.929688 V 64.236717 H 14.257813 Z M 14.257813,62.08828 h 6.542968 V 47.439842 h -6.542968 z m 11.718749,0 h 6.445313 V 47.439842 h -6.445313 z m 29.296875,-1.5625 H 54.003906 L 52.734375,60.330467 51.5625,59.939842 50.390625,59.451561 49.316406,58.572655 48.4375,57.693748 47.753906,56.521873 47.363281,55.349998 46.972656,53.982811 46.875,52.71328 V 39.041405 l 5.566406,0.976562 V 20.68203 l 6.25,3.125 h 18.261719 l 3.222656,-2.636719 5.761719,4.785156 -2.636719,2.050781 v 8.496094 l -6.347656,3.125 v -3.125 H 58.691406 v 1.5625 l -4.882812,2.441406 0.976562,0.585938 -1.5625,0.976562 v 6.347657 L 68.75,45.096092 l 6.542969,-1.464844 2.539062,-0.683593 1.953125,-0.683594 1.367188,-0.683594 0.390625,-0.195312 0.390625,-0.292969 0.683593,1.367187 3.710938,3.515625 0.09766,1.757813 -1.953125,-0.78125 -1.269531,0.292969 -1.953125,0.488281 -2.34375,0.292969 -5.859375,0.683593 -3.710938,0.390625 -4.101562,0.292969 -4.492188,0.292969 -5.078125,0.195312 h -2.441406 v 3.90625 0.390625 l 0.09766,0.195313 0.09766,0.195312 0.09766,0.195313 0.195312,0.09766 0.390625,0.195313 0.488282,0.195312 0.683593,0.09766 H 86.621094 L 89.0625,46.365623 h 1.074219 l -0.976563,8.984375 1.464844,0.976563 1.074219,1.5625 L 90.625,59.549217 89.0625,60.52578 Z M 14.257813,45.291405 h 6.542968 V 30.642967 h -6.542968 z m 11.718749,0 h 6.445313 V 30.642967 h -6.445313 z m 32.714844,-10.9375 H 76.953125 V 25.955467 H 58.691406 Z m -14.648437,-1.953125 -2.246094,-0.976563 -0.878906,-2.246094 0.976562,-2.246093 0.488281,-0.195313 0.585938,-0.585937 0.585937,-0.878907 0.585938,-1.171875 0.585937,-1.464843 0.585938,-1.660157 0.976562,-4.101562 0.488282,-2.441406 0.195312,-2.636719 0.976563,-0.09766 0.292968,2.734375 0.195313,1.5625 H 65.136719 V 0.85781097 l 6.347656,1.07421873 1.5625,1.0742188 -1.5625,0.8789062 V 15.99453 h 4.6875 l 0.683594,-1.171875 3.417968,-7.8125003 0.390625,-1.171875 0.292969,-0.9765625 0.195313,-0.8789062 v -0.097656 l -0.09766,-0.097656 0.585938,-1.0742188 5.273437,3.4179688 0.976563,1.6601562 -2.636719,0.1953125 -5.859375,6.1523438 -1.367187,1.367187 -0.488282,0.488282 h 10.644532 l 3.125,-2.539063 5.761718,4.6875 -2.636718,1.5625 -1.660157,0.683594 -2.929687,4.199219 -2.050781,2.441406 -1.171875,1.269531 -0.878907,1.464844 -0.878906,-0.488281 0.683594,-1.5625 1.5625,-6.054688 L 87.5,20.389061 87.988281,18.142967 H 48.730469 v 1.171875 l 0.09766,2.148438 -0.09766,1.953125 -0.195313,1.953125 -0.292969,1.660156 -0.488281,1.5625 -0.585937,1.5625 -0.976563,1.367187 z M 14.257813,28.49453 h 6.835937 l 1.171875,-1.855469 1.953125,-4.003906 1.660156,-3.613282 0.585938,-1.5625 0.878906,-2.832031 0.09766,-0.292969 H 16.992187 l -3.417968,6.933594 -3.125,5.371094 z M 58.59375,15.896873 56.152344,15.701561 54.589844,13.943748 54.296875,11.990623 53.710937,10.037498 53.027344,8.0843735 52.539062,7.107811 51.464844,5.0570297 l -0.878907,-0.78125 0.585938,-0.78125 1.074219,0.6835938 1.074218,0.4882812 1.074219,0.6835938 1.074219,0.6835937 0.976562,0.78125 0.878907,0.8789063 0.878906,0.9765625 1.660156,2.050781 0.683594,1.074219 -0.195313,2.441406 z"
     id="text1"
     style="font-size:100px;font-family:HanaMinA;text-anchor:middle"
     aria-label="鱨" />
</svg>
