<?xml version="1.0" encoding="UTF-8" standalone="no"?>
<svg
   height="100"
   width="100"
   viewBox="0 0 100 100"
   version="1.1"
   id="svg1"
   xmlns="http://www.w3.org/2000/svg"
   xmlns:svg="http://www.w3.org/2000/svg">
  <defs
     id="defs1" />
  <path
     d="M 21.875,93.631248 V 59.451561 l 6.25,3.125 h 43.652344 l 3.125,-2.636719 5.761718,4.785156 L 78.125,66.77578 v 22.167968 l -6.347656,3.125 V 86.795311 H 28.125 v 3.710937 z m 6.25,-8.886718 h 43.652344 v -9.375 H 28.125 Z m 0,-11.425782 h 43.652344 v -8.59375 H 28.125 Z M 6.9335937,55.349998 V 53.201561 H 83.496094 l 4.296875,-4.6875 5.273437,4.6875 v 2.148437 z M 57.324219,7.498436 l 0.683593,-0.78125 0.195313,0.097656 2.34375,-1.953125 5.761719,4.7851563 -2.636719,1.5624995 -2.441406,1.074219 -3.320313,2.832031 -4.296875,3.125 -2.246094,1.171875 h 22.167969 l 3.222656,-2.539062 5.761719,4.6875 -2.636719,2.050781 v 22.558594 l -6.347656,3.125 V 45.096092 H 26.367187 v 1.5625 l -6.25,3.222656 V 19.412498 L 14.648438,22.146873 10.742188,23.80703 6.5429687,25.271873 6.25,24.392967 16.40625,17.55703 22.167969,13.064842 27.050781,8.5726547 29.003906,6.326561 30.859375,4.0804672 32.421875,1.8343735 32.714844,1.5414047 37.5,5.545311 38.183594,7.4007797 36.132812,7.2054672 35.742187,7.498436 Z M 26.367187,43.045311 H 46.875 V 33.18203 H 26.367187 Z m 26.757813,0 H 73.535156 V 33.18203 H 53.125 Z M 26.367187,31.033592 H 46.875 V 21.560936 H 26.367187 Z m 26.757813,0 H 73.535156 V 21.560936 H 53.125 Z M 26.367187,19.412498 h 22.460938 l 0.585937,-0.488281 4.296875,-5.566406 1.757813,-2.734375 0.683594,-0.9765625 H 33.691406 l -3.125,2.8320315 -5.761719,4.101562 -1.855468,1.171875 z"
     id="text1"
     style="font-size:100px;font-family:HanaMinA;text-anchor:middle"
     aria-label="é²" />
</svg>
