<?xml version="1.0" encoding="UTF-8" standalone="no"?>
<svg
   height="100"
   width="100"
   viewBox="0 0 100 100"
   version="1.1"
   id="svg1"
   xmlns="http://www.w3.org/2000/svg"
   xmlns:svg="http://www.w3.org/2000/svg">
  <defs
     id="defs1" />
  <path
     d="m 46.875,91.580467 h -1.367188 l -1.269531,-0.195312 -1.171875,-0.292969 -1.171875,-0.585938 -1.074219,-0.78125 -0.878906,-0.976562 -0.683594,-1.171875 -0.488281,-1.269531 -0.195312,-1.269532 -0.09766,-1.367187 V 80.447655 H 18.457031 v 3.613281 l -6.25,3.125 V 61.990623 l 6.25,3.222657 H 38.476562 V 60.135155 H 22.65625 l -6.25,3.125 V 46.756248 l 6.25,3.125 h 55.175781 l 3.125,-2.636718 5.761719,4.785156 -2.636719,2.050781 v 6.054688 l -6.25,3.125 v -3.125 H 61.035156 v 5.175781 h 19.921875 l 3.125,-2.636719 5.761719,4.6875 -2.636719,2.148438 v 11.035156 l -6.25,3.125 v -3.125 H 61.035156 v 5.761719 h 26.953125 l 2.441406,-8.886719 h 1.074219 l -1.074219,8.984375 1.5625,0.976562 1.074219,1.5625 -1.074219,1.5625 -1.5625,1.074219 z M 61.035156,78.396873 H 80.957031 V 73.611717 H 61.035156 Z M 18.457031,78.299217 H 38.476562 V 73.514061 H 18.457031 Z M 61.035156,71.46328 H 80.957031 V 67.361717 H 61.035156 Z M 18.457031,71.365623 H 38.476562 V 67.264061 H 18.457031 Z M 61.035156,58.084373 H 77.832031 V 52.029686 H 61.035156 Z m -38.378906,0 H 38.476562 V 52.029686 H 22.65625 Z M 6.9335937,44.803123 V 42.752342 H 85.546875 l 3.320312,-3.710937 4.199219,3.710937 v 2.050781 z M 18.75,40.408592 V 17.068748 l 6.25,3.125 h 50 l 3.125,-2.636718 5.761719,4.6875 L 81.25,24.392967 v 12.890625 l -6.25,3.125 v -3.125 H 25 Z M 25,35.232811 H 46.875 V 29.666405 H 25 Z m 28.125,0 H 75 V 29.666405 H 53.125 Z M 25,27.615623 H 46.875 V 22.24453 H 25 Z m 28.125,0 H 75 V 22.24453 H 53.125 Z M 54.6875,18.33828 V 2.6156235 l 6.347656,3.2226562 h 19.335938 l 3.222656,-2.6367187 5.761719,4.6875 -2.636719,2.148437 v 5.078125 L 80.371094,18.33828 V 15.115623 H 61.035156 Z m -41.40625,0 V 2.6156235 l 6.25,3.2226562 h 19.433594 l 3.125,-2.6367187 5.761718,4.6875 -2.636718,2.148437 v 5.078125 l -6.25,3.222657 V 15.115623 H 19.53125 Z M 61.035156,13.064842 H 80.371094 V 7.889061 H 61.035156 Z m -41.503906,0 H 38.964844 V 7.889061 H 19.53125 Z M 46.875,86.30703 h 7.8125 V 52.029686 h -9.960938 v 31.640625 0.683594 0.488281 l 0.09766,0.292969 v 0.292968 l 0.09766,0.195313 0.09766,0.09766 0.195313,0.195313 0.390625,0.195312 0.488281,0.09766 z"
     id="text1"
     style="font-size:100px;font-family:HanaMinA;text-anchor:middle"
     aria-label="鼉" />
</svg>
