<?xml version="1.0" encoding="UTF-8" standalone="no"?>
<svg
   height="100"
   width="100"
   viewBox="0 0 100 100"
   version="1.1"
   id="svg1"
   xmlns="http://www.w3.org/2000/svg"
   xmlns:svg="http://www.w3.org/2000/svg">
  <defs
     id="defs1" />
  <path
     d="M 73.242187,94.217186 64.453125,93.045311 56.640625,90.408592 50.097656,86.30703 44.726562,80.83828 42.96875,77.810936 24.414062,89.627342 24.21875,91.77578 22.558594,90.896873 18.652344,85.818748 19.53125,85.330467 21.484375,84.451561 22.65625,83.96328 v -4.003907 l -4.980469,4.199219 -8.2031247,6.347656 -1.2695313,0.878907 v 2.246093 L 6.4453125,92.849998 2.1484375,88.064842 3.0273438,87.478905 6.4453125,85.818748 V 47.439842 l 6.2500005,1.074219 1.5625,0.976562 -1.5625,0.976563 v 0.78125 l 0.195312,-0.195313 0.976563,0.683594 2.246093,1.074219 1.855469,1.074219 0.878906,0.683593 1.5625,1.269532 0.683594,0.683593 0.683594,0.78125 v 2.34375 l -1.5625,1.757813 -2.441407,0.09766 -1.757812,-1.660156 v -0.585938 l -0.09766,-0.585937 -0.195313,-0.78125 -0.488281,-1.5625 -0.976562,-1.757813 -1.074219,-1.953125 -0.488281,-0.390625 V 62.86953 l 0.195312,-0.195313 0.878906,0.78125 0.976563,0.683594 1.855468,1.269531 1.660157,1.464844 1.464843,1.367187 1.367188,1.5625 0.09766,2.34375 -1.464844,1.855469 -2.441406,0.195313 -1.855468,-1.5625 -0.09766,-0.878907 -0.195312,-0.78125 -0.195313,-0.878906 -0.292968,-0.878906 -0.976563,-2.832031 -0.878906,-2.148438 -0.09766,-0.195312 v 18.847656 l 3.417968,-1.464844 6.347656,-2.34375 0.195313,0.390625 V 46.365623 l 6.347656,1.074219 1.5625,1.074219 -1.5625,0.878906 v 1.855469 l 0.195313,-0.292969 0.78125,0.488281 0.878906,0.195313 0.976562,0.390625 1.757813,0.976562 0.878906,0.585938 1.5625,1.464844 0.878906,0.976562 -0.09766,-9.765625 0.09766,-1.269531 6.25,1.464844 1.464844,1.171875 -1.464844,0.78125 v 7.8125 l 1.171875,8.300781 2.246094,6.933594 3.222656,5.566406 0.976563,0.976562 V 6.5218735 l 5.273437,2.6367187 H 82.910156 L 87.207031,4.373436 92.480469,9.1585922 V 11.209373 H 56.054687 V 73.02578 h 27.34375 l 2.636719,-2.636719 -0.78125,-0.390625 -1.074219,-1.660156 -2.539062,-3.125 -1.464844,-1.367188 -1.660156,-1.367187 -0.09766,-0.09766 -0.976563,1.074219 -2.832031,2.34375 -3.320313,1.855469 -3.710937,1.367187 -4.003906,0.976563 -4.394532,0.488281 -0.195312,-0.976562 4.003906,-1.367188 3.515625,-1.660156 3.125,-1.855469 2.441406,-1.953125 2.148438,-2.246094 0.488281,-0.683593 -3.613281,-1.953125 -0.585938,-0.195313 -0.683593,2.246094 -6.933594,1.171875 4.394531,-14.355469 H 57.421875 V 44.607811 H 67.96875 l 2.050781,-6.738281 h -2.34375 l -5.761719,2.929687 V 14.139061 l 5.761719,2.832031 h 14.84375 l 3.222656,-2.636719 5.761719,4.785157 -2.636719,2.050781 V 37.86953 l -6.347656,3.125 v -3.125 H 70.605469 l 5.175781,2.539062 1.269531,1.5625 -1.757812,0.390625 -0.78125,2.246094 h 7.03125 l 5.273437,-5.273438 6.25,5.273438 v 2.050781 h -8.300781 l -0.390625,3.320313 -0.976563,3.90625 -1.5625,3.613281 -0.878906,1.464844 2.050781,0.976562 1.953125,1.367188 1.855469,1.464843 1.855469,1.660157 1.660156,1.757812 0.585938,2.34375 -0.488282,0.78125 4.492188,3.710938 v 2.148437 h -0.488281 l -0.78125,11.328125 1.660156,0.292969 1.269531,2.050781 -0.390625,2.34375 -2.050781,1.269531 -10.9375,1.5625 z m 0.292969,-6.347656 9.082031,-0.195313 7.8125,-0.976562 2.636719,-11.523438 H 56.054687 v 6.25 l -1.074218,0.585938 4.394531,2.734375 6.445312,2.148437 z m -44.53125,-6.542969 6.152344,-2.34375 2.636719,-0.976563 4.589843,-1.367187 -1.5625,-2.636719 -2.636718,-8.105469 -0.878907,-6.445312 -1.367187,1.464844 -2.441406,0.09766 -1.757813,-1.660156 -0.09766,-0.78125 -0.292969,-1.660157 -0.585937,-1.464843 -0.585938,-1.5625 -0.878906,-1.5625 -0.292969,-0.292969 v 11.816406 l 1.171875,0.390625 1.269531,0.585938 1.171875,0.585937 2.246094,1.367188 2.050781,1.5625 1.757813,1.757812 0.390625,2.34375 -1.367188,2.050781 -2.34375,0.390625 -1.953125,-1.367187 -0.390625,-0.878906 -0.78125,-1.855469 -1.171875,-1.953125 -2.050781,-2.929688 z m 47.265625,-24.21875 0.78125,-1.757813 0.878906,-3.027343 0.488282,-3.125 v -2.539063 h -4.492188 l -2.929687,9.375 0.488281,0.09766 2.539062,0.292969 z M 5.859375,42.752342 V 9.1585922 l 5.46875,0.8789058 1.953125,-1.5624995 4.492187,-3.125 5.273438,-3.4179688 0.488281,-0.1953125 0.488281,1.2695313 4.003907,3.6132812 0.09766,1.6601563 -2.050781,-0.8789063 -8.007813,2.6367183 -3.417968,1.074219 -1.367188,0.390625 -1.074219,0.683594 v 11.132812 h 4.589844 l 3.320312,-3.710937 4.199219,3.710937 V 25.36953 H 12.207031 V 37.478905 H 38.671875 V 25.36953 h -10.15625 v -2.050782 h 10.15625 V 12.771873 H 27.441406 v -2.050781 h 11.230469 l 2.929687,-2.6367185 5.46875,4.6874995 -2.539062,1.855469 v 24.902344 l -5.859375,2.929687 V 39.529686 H 12.207031 Z m 61.816406,-6.933594 h 14.84375 v -7.617187 h -14.84375 z m 0,-9.667968 h 14.84375 v -7.03125 h -14.84375 z"
     id="text1"
     style="font-size:100px;font-family:HanaMinA;text-anchor:middle"
     aria-label="鼴" />
</svg>
