<?xml version="1.0" encoding="UTF-8" standalone="no"?>
<svg
   width="100%"
   height="100%"
   viewBox="0 0 74 84"
   version="1.1"
   xml:space="preserve"
   style="fill-rule:evenodd;clip-rule:evenodd;stroke-linejoin:round;stroke-miterlimit:2;"
   id="svg5192"
   sodipodi:docname="ã„_1.svg"
   inkscape:version="1.2.2 (b0a84865, 2022-12-01)"
   xmlns:inkscape="http://www.inkscape.org/namespaces/inkscape"
   xmlns:sodipodi="http://sodipodi.sourceforge.net/DTD/sodipodi-0.dtd"
   xmlns="http://www.w3.org/2000/svg"
   xmlns:svg="http://www.w3.org/2000/svg"><defs
   id="defs5196" /><sodipodi:namedview
   id="namedview5194"
   pagecolor="#ffffff"
   bordercolor="#000000"
   borderopacity="0.25"
   inkscape:showpageshadow="2"
   inkscape:pageopacity="0.0"
   inkscape:pagecheckerboard="0"
   inkscape:deskcolor="#d1d1d1"
   showgrid="false"
   inkscape:zoom="2.8095238"
   inkscape:cx="18.864407"
   inkscape:cy="42.177966"
   inkscape:current-layer="svg5192" />
    <g
   transform="matrix(1,0,0,1,-395,-300)"
   id="g5190">
        
        <path
   d="m 455.14,302.018 c -1.918,-0.069 -2.156,1.476 0.811,4.687 5.137,5.562 5.236,7.437 0.443,8.336 -4.711,0.884 -6.358,2.436 -7.525,7.088 -0.615,2.449 0.013,4.213 2.591,7.278 3.252,3.864 3.34,4.323 1.969,10.264 -2.629,11.388 -7.728,19.957 -17.973,30.197 -5.353,5.35 -9.732,9.992 -9.732,10.314 0,1.999 5.817,-0.151 12.521,-4.627 11.589,-7.739 19.138,-21.329 20.828,-37.498 0.673,-6.437 0.406,-7.936 -1.992,-11.18 -3.629,-4.908 -2.938,-6.392 3.73,-8.016 4.29,-1.044 5.791,-2.105 6.719,-4.742 1.059,-3.011 0.705,-3.817 -3.115,-7.111 -3.758,-3.24 -7.357,-4.922 -9.276,-4.991 z m -57.62,4.215 c -1.611,0.618 -1.463,1.335 0.957,4.611 2.66,3.601 2.836,4.899 2.463,18.146 -0.46,16.318 1.692,26.299 6.756,31.363 4.717,4.718 7.377,3.449 7.508,-3.582 0.085,-4.623 1.186,-7.489 5.312,-13.822 2.863,-4.394 5.205,-8.653 5.205,-9.465 0,-3.35 -3.49,-0.869 -9.377,6.664 -3.438,4.4 -6.811,7.838 -7.496,7.641 -1.729,-0.498 -3.121,-9.255 -2.308,-14.531 0.37,-2.407 1.456,-7.126 2.412,-10.488 1.399,-4.927 1.436,-6.733 0.189,-9.312 -1.855,-3.837 -8.952,-8.249 -11.621,-7.225 z"
   style="fill:#800000;fill-rule:nonzero"
   id="path5184"
   sodipodi:nodetypes="cccccccsccccccccccccccscccccc" />
        
    </g>
</svg>
