<?xml version="1.0" encoding="UTF-8" standalone="no"?>
<svg
   width="100%"
   height="100%"
   viewBox="0 0 70 60"
   version="1.1"
   xml:space="preserve"
   style="fill-rule:evenodd;clip-rule:evenodd;stroke-linejoin:round;stroke-miterlimit:2;"
   id="svg8794"
   sodipodi:docname="ã„_0.svg"
   inkscape:version="1.2.2 (b0a84865, 2022-12-01)"
   xmlns:inkscape="http://www.inkscape.org/namespaces/inkscape"
   xmlns:sodipodi="http://sodipodi.sourceforge.net/DTD/sodipodi-0.dtd"
   xmlns="http://www.w3.org/2000/svg"
   xmlns:svg="http://www.w3.org/2000/svg"><defs
   id="defs8798" /><sodipodi:namedview
   id="namedview8796"
   pagecolor="#ffffff"
   bordercolor="#000000"
   borderopacity="0.25"
   inkscape:showpageshadow="2"
   inkscape:pageopacity="0.0"
   inkscape:pagecheckerboard="0"
   inkscape:deskcolor="#d1d1d1"
   showgrid="false"
   inkscape:zoom="3.0799066"
   inkscape:cx="24.026702"
   inkscape:cy="30.682748"
   inkscape:window-width="1459"
   inkscape:window-height="741"
   inkscape:window-x="5"
   inkscape:window-y="1081"
   inkscape:window-maximized="0"
   inkscape:current-layer="svg8794" />
    <g
   transform="matrix(1,0,0,1,-308,-310)"
   id="g8792">
        <path
   d="m 309.129,311.742 c -0.804,0.511 -0.422,1.971 1.291,4.289 2.401,3.248 2.64,5.068 2.449,18.717 -0.235,16.804 1.087,23.688 5.729,29.822 2.149,2.84 3.971,4.014 5.822,3.75 2.335,-0.333 2.706,-1.218 2.781,-6.635 0.053,-3.834 1.14,-8.287 2.813,-11.516 3.221,-6.218 3.278,-6.613 0.933,-6.613 -0.987,0 -3.379,2.238 -5.314,4.973 -1.936,2.734 -4.082,4.798 -4.77,4.585 -2.99,-0.924 -3.393,-11.671 -0.812,-21.617 3.019,-11.635 2.135,-14.814 -5.1,-18.35 -3.029,-1.48 -5.018,-1.917 -5.822,-1.406 z m 45.365,4.644 c -0.467,0.468 1.255,3.179 3.826,6.026 5.581,6.177 9.361,14.023 9.399,19.506 0.025,3.695 -0.308,4.017 -4.563,4.377 -5.995,0.506 -6.723,2.989 -1.18,4.029 2.388,0.448 5.648,1.911 7.245,3.252 4.941,4.15 6.607,2.757 7.021,-5.861 0.412,-8.577 -2.039,-15.31 -8.375,-22.996 -3.863,-4.687 -11.969,-9.737 -13.373,-8.332 z"
   style="fill-rule:nonzero"
   id="path8784"
   sodipodi:nodetypes="cccccccscccccccccccccccc" />
        
        
    </g>
</svg>
