<?xml version="1.0" encoding="UTF-8" standalone="no"?>
<svg
   width="100%"
   height="100%"
   viewBox="0 0 87 75"
   version="1.1"
   xml:space="preserve"
   style="fill-rule:evenodd;clip-rule:evenodd;stroke-linejoin:round;stroke-miterlimit:2;"
   id="svg5434"
   sodipodi:docname="いい_0.svg"
   inkscape:version="1.2.2 (b0a84865, 2022-12-01)"
   xmlns:inkscape="http://www.inkscape.org/namespaces/inkscape"
   xmlns:sodipodi="http://sodipodi.sourceforge.net/DTD/sodipodi-0.dtd"
   xmlns="http://www.w3.org/2000/svg"
   xmlns:svg="http://www.w3.org/2000/svg"><defs
   id="defs5438" /><sodipodi:namedview
   id="namedview5436"
   pagecolor="#ffffff"
   bordercolor="#000000"
   borderopacity="0.25"
   inkscape:showpageshadow="2"
   inkscape:pageopacity="0.0"
   inkscape:pagecheckerboard="0"
   inkscape:deskcolor="#d1d1d1"
   showgrid="false"
   inkscape:zoom="3.1466667"
   inkscape:cx="27.330508"
   inkscape:cy="37.658898"
   inkscape:current-layer="svg5434" />
    <g
   transform="matrix(1,0,0,1,-302,-1251)"
   id="g5432">
        <path
   d="m 367.509,1251.92 c -8.777,-0.22 -23.208,13.81 -34.047,35.23 -1.825,3.62 -3.782,6.57 -4.347,6.57 -0.566,0 -1.654,-1.37 -2.418,-3.05 -0.764,-1.68 -2.516,-3.65 -3.893,-4.39 -2.076,-1.11 -3.261,-0.67 -6.937,2.55 l -4.434,3.9 0.043,-4.2 c 0.024,-2.3 0.849,-5.6 1.832,-7.32 4.025,-7.04 0.17,-8.79 -4.816,-2.18 -6.178,8.18 -7.447,21.81 -2.287,24.57 2.912,1.56 5.662,-0.14 9.019,-5.57 1.505,-2.44 3.226,-4.26 3.826,-4.06 0.601,0.21 2.367,2.87 3.926,5.91 3.71,7.25 7.379,9.74 10.189,6.93 1.111,-1.11 2.022,-3.36 2.022,-4.99 0,-3.88 11.182,-25.74 17.193,-33.62 5.974,-7.83 11.073,-11.73 12.922,-9.88 1.287,1.29 0.199,18.32 -2.079,32.56 -1.061,6.64 1.524,9.4 7.254,7.76 6.957,-2 11.191,1.24 8.414,6.43 -1.541,2.88 -13.652,9.19 -24.953,13.01 -5.463,1.85 -8.269,3.49 -8.564,5 -0.388,1.99 0.185,2.15 4.947,1.39 2.963,-0.47 10.695,-2.62 17.18,-4.77 18.78,-6.23 25.653,-14.7 18.59,-22.91 -2.106,-2.45 -4.427,-3.49 -8.857,-3.99 -5.924,-0.67 -5.994,-0.73 -5.334,-4.57 2.256,-13.11 3.297,-28.09 2.16,-31.09 -1.327,-3.49 -3.625,-5.14 -6.551,-5.22 z"
   style="fill-rule:nonzero"
   id="path5424"
   sodipodi:nodetypes="ccsscccccccccccsccccsccccccccc" />
        
        <g
   transform="matrix(1.2502,0,0,1.2502,21.431,298.58)"
   id="g5430">
            
        </g>
    </g>
</svg>
