<?xml version="1.0" encoding="UTF-8" standalone="no"?>
<svg
   width="100%"
   height="100%"
   viewBox="0 0 77 68"
   version="1.1"
   xml:space="preserve"
   style="fill-rule:evenodd;clip-rule:evenodd;stroke-linejoin:round;stroke-miterlimit:2;"
   id="svg7217"
   sodipodi:docname="いい_2.svg"
   inkscape:version="1.2.2 (b0a84865, 2022-12-01)"
   xmlns:inkscape="http://www.inkscape.org/namespaces/inkscape"
   xmlns:sodipodi="http://sodipodi.sourceforge.net/DTD/sodipodi-0.dtd"
   xmlns="http://www.w3.org/2000/svg"
   xmlns:svg="http://www.w3.org/2000/svg"><defs
   id="defs7221" /><sodipodi:namedview
   id="namedview7219"
   pagecolor="#ffffff"
   bordercolor="#000000"
   borderopacity="0.25"
   inkscape:showpageshadow="2"
   inkscape:pageopacity="0.0"
   inkscape:pagecheckerboard="0"
   inkscape:deskcolor="#d1d1d1"
   showgrid="false"
   inkscape:zoom="3.4705882"
   inkscape:cx="11.813559"
   inkscape:cy="49.991526"
   inkscape:current-layer="svg7217"
   inkscape:window-width="1377"
   inkscape:window-height="697"
   inkscape:window-x="18"
   inkscape:window-y="1062"
   inkscape:window-maximized="0" />
    <g
   transform="matrix(1,0,0,1,-485,-1248)"
   id="g7215">
        
        
        <g
   transform="matrix(1.2502,0,0,1.2502,21.431,298.58)"
   id="g7213">
            <path
   d="m 419.611,759.838 c -1.72,0 -1.945,0.729 -1.945,6.292 0,17.306 -7.807,31.392 -23.187,41.835 -3.197,2.17 -5.812,4.213 -5.812,4.538 0,0.324 1.732,0.314 3.851,-0.025 5.094,-0.815 12.466,-5.019 17.857,-10.184 l 4.362,-4.179 6.821,7.524 c 7.27,8.018 10.109,8.987 10.109,3.452 0,-4.002 -2.195,-6.632 -9.067,-10.875 -4.537,-2.8 -5.841,-4.105 -5.3,-5.297 0.396,-0.87 2.748,-7.609 5.228,-14.974 l 4.51,-13.39 -2.742,-2.358 c -1.508,-1.296 -3.616,-2.359 -4.685,-2.359 z m -24.093,4.001 c -3.933,0 -3.577,1.565 1.398,6.14 4.856,4.466 8.25,4.835 8.25,0.9 0,-3.031 -5.495,-7.04 -9.648,-7.04 z m -21.91,7.271 c -1.864,0.133 -1.781,1.971 0.139,5.655 1.916,3.676 2.128,5.281 1.668,12.648 -0.329,5.288 -1.128,9.358 -2.137,10.898 -2.065,3.153 -2.048,6.385 0.046,8.699 2.382,2.633 3.02,2.359 6.614,-2.85 1.776,-2.573 6.716,-9.095 10.978,-14.491 7.282,-9.218 8.822,-11.829 6.976,-11.829 -0.427,0 -4.139,3.389 -8.251,7.53 l -7.475,7.532 -0.5,-10.744 -0.5,-10.742 -3.796,-1.442 c -1.662,-0.631 -2.913,-0.924 -3.76,-0.864 z"
   style="fill:#ff0000;fill-rule:nonzero"
   id="path7211"
   sodipodi:nodetypes="sscsccccscccccsscsscccccccsccccccc" />
        </g>
    </g>
</svg>
