<?xml version="1.0" encoding="UTF-8" standalone="no"?><!DOCTYPE svg PUBLIC "-//W3C//DTD SVG 1.1//EN" "http://www.w3.org/Graphics/SVG/1.1/DTD/svg11.dtd"><svg width="100%" height="100%" viewBox="0 0 78 85" version="1.1" xmlns="http://www.w3.org/2000/svg" xmlns:xlink="http://www.w3.org/1999/xlink" xml:space="preserve" xmlns:serif="http://www.serif.com/" style="fill-rule:evenodd;clip-rule:evenodd;stroke-linejoin:round;stroke-miterlimit:2;"><g><path d="M10.543,0.21c-2.7,0 -2.825,1.99 -0.391,6.25c3.272,5.72 2.33,9.62 -3.943,16.33c-5.747,6.14 -5.801,6.28 -4.297,10.89c1.118,3.42 1.221,8.2 0.389,18c-1.193,14.04 -0.245,26.19 2.279,29.23c3.506,4.23 6.27,1.74 9.119,-8.2c4.155,-14.5 22.358,-37.44 36.086,-45.47c7.337,-4.3 13.905,-4.2 14.531,0.21c0.555,3.92 -5.645,16.76 -13.717,28.41c-9.731,14.05 -10.448,15.54 -8.389,17.47c1.224,1.14 3.783,1.33 9.198,0.66c4.125,-0.5 11.091,-0.42 15.479,0.18c5.539,0.75 8.491,0.66 9.662,-0.31c5.172,-4.29 -7.873,-9.61 -19.609,-8c-7.53,1.03 -7.608,1.32 3.285,-12.52c12.852,-16.33 16.72,-28.39 10.674,-33.29c-3.484,-2.82 -7.607,-2.95 -15.881,-0.49c-12.623,3.75 -27.786,16.97 -39.467,34.41l-6.281,9.38l0.82,-13.19c0.742,-11.94 0.587,-13.49 -1.635,-16.31l-2.453,-3.12l6.865,-6.05c7.717,-6.81 9.373,-9.93 7.672,-14.47c-1.628,-4.35 -7.277,-10 -9.996,-10Z" style="fill-rule:nonzero;"/></g></svg>