<?xml version="1.0" encoding="UTF-8" standalone="no"?><!DOCTYPE svg PUBLIC "-//W3C//DTD SVG 1.1//EN" "http://www.w3.org/Graphics/SVG/1.1/DTD/svg11.dtd"><svg width="100%" height="100%" viewBox="0 0 81 73" version="1.1" xmlns="http://www.w3.org/2000/svg" xmlns:xlink="http://www.w3.org/1999/xlink" xml:space="preserve" xmlns:serif="http://www.serif.com/" style="fill-rule:evenodd;clip-rule:evenodd;stroke-linejoin:round;stroke-miterlimit:2;"><g><path d="M16.28,0.754c-3.72,0 -3.96,0.828 -1.13,3.951c2.42,2.672 3.61,13.348 1.79,16.051c-0.91,1.36 -3.17,1.793 -8.21,1.577c-6.54,-0.281 -6.88,-0.15 -5.67,2.119c1.83,3.41 3.42,4.148 8.94,4.148l4.84,0l-0,15.336l-6.31,4.975c-3.47,2.737 -7.12,4.811 -8.12,4.609c-2.8,-0.565 -2.29,6.432 0.66,9.098c2.11,1.912 2.78,1.992 4.52,0.543c1.78,-1.478 2.43,-1.215 5.02,2.015c1.63,2.043 2.98,4.137 2.98,4.653c0.01,1.762 4.7,0.94 6.41,-1.125c1.21,-1.46 1.62,-5.106 1.39,-12.494l-0.32,-10.432l6.2,-4.457c5.81,-4.172 8.79,-8.515 7.05,-10.258c-0.42,-0.417 -3.3,1.031 -6.41,3.218c-3.1,2.188 -5.9,3.979 -6.23,3.979c-0.32,-0 -0.58,-2.411 -0.58,-5.357c-0,-5.35 0.01,-5.364 8.12,-9.366c9.56,-4.716 10.76,-7.781 3.04,-7.781c-2.79,-0 -6.17,0.583 -7.5,1.295c-2.87,1.536 -3.01,0.475 -0.7,-5.205c0.94,-2.319 1.45,-4.931 1.13,-5.805c-0.8,-2.232 -7.11,-5.287 -10.91,-5.287Zm37.46,5.463c-0.48,-0.048 -0.62,0.316 -0.62,1.074c-0,1.004 1.11,2.833 2.47,4.063c1.36,1.23 2.17,2.723 1.8,3.318c-0.37,0.596 -0.05,1.084 0.7,1.084c0.75,-0 2.51,1.934 3.9,4.297c1.39,2.364 4.05,4.846 5.9,5.516c1.85,0.669 4.41,0.926 5.7,0.57c2.04,-0.565 5.09,-1.232 7.02,-1.535c0.33,-0.053 -1.64,-1.271 -4.38,-2.707c-2.74,-1.436 -5.71,-3.545 -6.6,-4.688c-0.89,-1.142 -1.82,-1.796 -2.07,-1.453c-0.25,0.344 -2.12,-0.861 -4.16,-2.677c-2.03,-1.817 -5.18,-4.272 -6.99,-5.457c-1.37,-0.896 -2.19,-1.357 -2.67,-1.405Zm2.75,25.078c-0.46,0.223 -0.67,0.741 -0.54,1.59c0.48,3.099 5.64,11.319 7.52,11.979c5.31,1.853 5.99,-3.154 1.18,-8.609c-3.21,-3.643 -6.79,-5.628 -8.16,-4.959l-0,-0.001Zm-7.3,11.684c-2.12,2.118 -0.31,6.396 7.14,16.848c3.8,5.329 7.75,9.689 8.78,9.689c2.3,0 4.17,-4.607 3.28,-8.08c-1.06,-4.14 -17.61,-20.05 -19.2,-18.457Zm-32.63,10.559c0.33,0.042 0.34,0.681 0.34,1.957c0,3.086 -1.38,4.229 -3.52,2.906c-1.13,-0.697 -0.87,-1.552 0.99,-3.236c1.24,-1.115 1.87,-1.67 2.19,-1.627Z" style="fill:#800000;fill-rule:nonzero;"/></g></svg>