<?xml version="1.0" encoding="UTF-8" standalone="no"?><!DOCTYPE svg PUBLIC "-//W3C//DTD SVG 1.1//EN" "http://www.w3.org/Graphics/SVG/1.1/DTD/svg11.dtd"><svg width="100%" height="100%" viewBox="0 0 67 73" version="1.1" xmlns="http://www.w3.org/2000/svg" xmlns:xlink="http://www.w3.org/1999/xlink" xml:space="preserve" xmlns:serif="http://www.serif.com/" style="fill-rule:evenodd;clip-rule:evenodd;stroke-linejoin:round;stroke-miterlimit:2;"><g><path d="M15.36,1.105c-1.61,-0.12 -2.68,0.096 -2.68,0.686c0,0.407 1.12,2.169 2.5,3.918c1.71,2.182 2.5,5.071 2.5,9.217c0,7.445 -2.36,9.176 -10.81,7.91c-5.57,-0.836 -5.67,-0.793 -4.25,1.865c1.6,2.994 6.05,5.103 10.76,5.103c2.88,-0 3.05,0.4 3.05,7.28c0,7.25 -0.03,7.303 -6.42,12.504c-3.53,2.872 -7.19,5.22 -8.13,5.22c-2.46,0 -2.1,4.24 0.65,7.635c2.09,2.585 2.6,2.71 4.53,1.114c1.93,-1.608 2.48,-1.405 5.13,1.916c1.64,2.042 2.98,4.174 2.98,4.738c0,0.563 1.26,0.845 2.79,0.625c4.42,-0.635 6.06,-5.456 5.23,-15.402l-0.72,-8.752l4.27,-3.32c11.51,-8.965 20.05,-10.81 25.38,-5.487c4.49,4.492 4.37,14.036 -0.23,18.639c-6.81,6.805 -15.46,2.569 -15.46,-7.566c0,-6.546 -1.78,-6.986 -3.78,-0.934c-3.33,10.117 2.33,19.297 11.9,19.297c12.98,0 21.48,-13.785 16.79,-27.234c-3.26,-9.362 -17.06,-11.304 -30.85,-4.342l-7.81,3.946l0.01,-5.875l0.02,-5.875l7.8,-3.752c4.43,-2.131 7.8,-4.56 7.8,-5.625c-0,-2.385 -7.01,-3.189 -10.68,-1.225c-3.71,1.987 -4.15,0.978 -1.92,-4.379c2.37,-5.662 1.14,-8.571 -4.44,-10.518c-2.16,-0.751 -4.3,-1.206 -5.91,-1.326l-0,-0.001Zm39.96,15.508c-1.95,-0.123 -3.93,0.071 -5.74,0.668c-5.71,1.884 -5.7,3.771 0.02,3.771c3.84,0 4.35,0.335 3.69,2.426c-0.67,2.103 -0.05,2.489 4.6,2.897c7.3,0.638 7.82,0.484 8.25,-2.422c0.56,-3.752 -4.97,-6.972 -10.82,-7.34Zm-39.22,37.22c0.32,0.043 0.34,0.682 0.34,1.957c0,3.087 -1.39,4.23 -3.53,2.907c-1.12,-0.697 -0.86,-1.552 1,-3.237c1.23,-1.114 1.86,-1.669 2.19,-1.627Z" style="fill-rule:nonzero;"/></g></svg>