<?xml version="1.0" encoding="UTF-8" standalone="no"?><!DOCTYPE svg PUBLIC "-//W3C//DTD SVG 1.1//EN" "http://www.w3.org/Graphics/SVG/1.1/DTD/svg11.dtd"><svg width="100%" height="100%" viewBox="0 0 99 87" version="1.1" xmlns="http://www.w3.org/2000/svg" xmlns:xlink="http://www.w3.org/1999/xlink" xml:space="preserve" xmlns:serif="http://www.serif.com/" style="fill-rule:evenodd;clip-rule:evenodd;stroke-linejoin:round;stroke-miterlimit:2;"><g><g><path d="M61.375,2.043c-1.451,0.281 -1.563,1.751 -1.826,7.244c-0.362,7.538 -5.113,19.739 -12.789,32.842l-3.138,5.36l-3.226,-2.536c-1.775,-1.394 -4.488,-2.535 -6.038,-2.535c-2.176,-0 -2.938,-0.857 -3.363,-3.76c-0.513,-3.499 -0.2,-3.851 4.55,-5.068c9.514,-2.44 11.34,-3.255 11.34,-5.029c-0,-1.084 -1.563,-1.921 -4.051,-2.161c-4.601,-0.444 -36.581,8.27 -36.581,9.967c0,2.579 6.176,3.973 11.089,2.501c6.477,-1.94 6.389,-1.979 5.164,2.316c-1.613,5.603 -8.264,16.721 -15.153,25.305c-6.176,7.703 -7.163,9.685 -4.763,9.685c3.651,0 22.991,-22.351 25.279,-29.21c0.213,-0.619 1.625,-0.731 3.138,-0.248c3.313,1.05 3.538,4.543 0.925,14.355c-2.363,8.882 -4.188,10.726 -8.601,8.715c-4.476,-2.039 -5.363,-0.751 -2.413,3.504c1.338,1.931 2.788,4.495 3.226,5.697c1.1,3.033 4.925,2.735 8.026,-0.625c2.363,-2.576 3.913,-6.908 7.839,-21.971c1.1,-4.189 2.2,-5.679 4.913,-6.627c3.738,-1.303 8.739,-7.618 14.465,-18.287c1.938,-3.609 3.863,-6.561 4.263,-6.558c0.412,0.002 4.601,4.559 9.301,10.129l8.564,10.128l7.076,-0.878c11.952,-1.486 11.927,-2.748 -0.125,-8.616c-4.988,-2.427 -12.252,-7.019 -16.14,-10.209l-7.076,-5.801l2.976,-6.436c2.875,-6.185 2.9,-6.523 0.75,-8.674c-1.238,-1.232 -3.776,-2.361 -5.651,-2.508c-0.838,-0.065 -1.475,-0.104 -1.95,-0.01l-0,-0.001Zm-34.531,2.31c-3.338,0.4 -1.475,4.012 5.526,9.84c6.276,5.214 8.114,5.199 8.639,-0.066c0.462,-4.528 -2.226,-7.201 -9.089,-9.066c-2.263,-0.618 -3.963,-0.841 -5.076,-0.708Zm32.068,43.136c-1.638,-0.008 -2.638,0.515 -2.638,1.572c-0,1.793 5.401,7.214 9.376,9.406c3.713,2.045 5.364,1.75 6.276,-1.107c1.013,-3.184 -1.262,-6.051 -6.551,-8.259c-2.55,-1.067 -4.826,-1.605 -6.463,-1.612Zm-2.988,21.204c-1.976,0.615 -0.175,4.32 5.526,10.563c6.976,7.628 10.201,8.44 10.864,2.734c0.475,-4.203 -2.263,-7.612 -8.802,-10.949c-3.863,-1.974 -6.401,-2.717 -7.588,-2.348Z" style="fill:#f00;fill-rule:nonzero;"/></g></g></svg>