<?xml version="1.0" encoding="UTF-8" standalone="no"?><!DOCTYPE svg PUBLIC "-//W3C//DTD SVG 1.1//EN" "http://www.w3.org/Graphics/SVG/1.1/DTD/svg11.dtd"><svg width="100%" height="100%" viewBox="0 0 91 95" version="1.1" xmlns="http://www.w3.org/2000/svg" xmlns:xlink="http://www.w3.org/1999/xlink" xml:space="preserve" xmlns:serif="http://www.serif.com/" style="fill-rule:evenodd;clip-rule:evenodd;stroke-linejoin:round;stroke-miterlimit:2;"><g><path d="M48.69,2.08c-0.649,-0.011 -1.298,0.001 -1.945,0.008c-1.701,0.414 -0.658,2.341 -0.104,3.279c1.834,3.347 3.486,6.837 4.022,10.654c0.947,4.862 1.397,9.827 2.406,14.664c-0.507,1.726 -2.626,0.75 -3.609,0.055c-1.044,-0.635 -3.195,-1.867 -3.762,-0.104c-0.47,1.828 -0.961,4.208 -3.151,4.665c-1.164,0.425 -3.117,0.898 -3.845,-0.36c-0.415,-2.112 1.451,-3.746 2.099,-5.611c1.557,-3.08 4.088,-6.042 4.071,-9.621c-0.704,-1.834 -3.276,-3.32 -5.014,-2.143c-1.001,1.816 -0.16,4.025 -0.998,5.918c-1.177,5.203 -4.31,9.688 -5.854,14.746c0.039,2.16 2.712,1.894 4.092,1.383c2.05,-0.645 3.933,-1.76 6.055,-2.187c-2.763,4.868 -6.235,9.341 -9.686,13.68c0.085,1.906 2.493,3.204 4.151,2.199c3.128,-1.437 5.933,-3.888 9.379,-4.692c1.871,-0.526 3.504,0.644 4.994,1.569c1.511,0.641 1.421,-1.644 1.113,-2.528c-0.756,-2.222 -2.507,-4.098 -4.488,-5.298c-0.715,-0.453 -2.043,-0.208 -1.473,0.888c0.554,1.53 -0.019,3.576 -1.832,3.854c-1.207,0.454 -2.772,0.778 -3.902,0.052c-0.864,-1.721 1.32,-2.821 1.988,-4.148c2.553,-3.145 4.8,-6.703 8.195,-9.022c1.883,-0.467 2.144,2.085 2.485,3.321c1.208,5.01 2.85,10.135 2.89,15.268c-1.885,1.791 -4.686,1.859 -6.986,2.849c-6.215,1.86 -12.815,2.716 -18.545,5.766c-0.443,0.956 1.279,1.009 1.92,1.107c2.736,0.327 6.033,-0.606 8.316,1.278c0.51,2.478 -1.446,4.522 -2.32,6.672c-2.529,4.561 -6.123,8.543 -8.935,12.818c2.443,-0.069 4.488,-1.986 6.293,-3.5c3.5,-3.287 6.278,-7.23 9.021,-11.145c3.037,1.841 5.472,4.783 9.006,5.72c1.536,-1.369 0.08,-3.629 -1.258,-4.582c-2.455,-1.871 -5.801,-3.765 -6.099,-7.232c-0.21,-1.699 1.102,-3.204 2.787,-3.357c2.596,-0.755 5.388,-1.385 8.045,-1.338c2.8,2.853 3.677,6.931 5.359,10.443c0.62,1.526 1.239,3.052 1.859,4.578c-4.447,3.429 -9.438,6.22 -13.348,10.281c1.592,0.571 3.355,-0.351 4.911,-0.744c3.748,-1.352 7.028,-4.143 10.875,-5.127c1.61,0.98 2.025,3.028 3.41,4.252c4.228,5.348 9.217,10.514 15.643,13.111c1.955,-0.004 1.968,-2.531 2.033,-3.95c0.369,-5.973 0.155,-12.064 -1.328,-17.857c-0.404,-0.353 -0.95,1.375 -1.285,1.791c-1.305,2.597 -2.119,5.781 -4.592,7.536c-2.441,0.2 -3.827,-2.288 -5.528,-3.614c-1.606,-1.629 -4.196,-3.617 -3.308,-6.22c1.136,-2.709 3.621,-4.54 5.373,-6.834l3.623,-4.055c-2.1,-1.587 -3.737,-3.99 -6.412,-4.658c-1.864,1.103 -1.406,3.667 -2.418,5.365c-0.765,2.05 -1.713,4.351 -3.656,5.504c-2.2,-0.063 -2.448,-2.736 -3.377,-4.215c-1.039,-2.216 -2.712,-5.114 -1.088,-7.441c2.24,-2.335 5.8,-1.912 8.652,-2.918c0.787,-0.197 2.544,-0.884 1.543,-1.832c-2.271,-2.395 -5.863,-1.061 -8.6,-0.385c-1.829,0.509 -4.597,0.938 -5.488,-1.246c-0.524,-1.385 -1.183,-3.434 0.119,-4.553c1.482,-0.922 3.384,-0.543 4.912,-1.414c3.487,-1.178 6.745,-3.418 10.494,-3.592c1.748,0.262 2.561,2.407 4.377,2.391c1.596,-2.36 0.299,-5.739 -2.21,-6.883c-1.291,-0.731 -2.953,-1.504 -4.28,-1.738c0.141,1.269 0.831,2.683 -0.17,3.826c-1.328,1.359 -3.495,1.472 -5.281,1.433c-1.14,-0.017 -1.433,-1.452 -0.533,-2.074c3.56,-4.614 8.382,-8.252 11.309,-13.334c0.578,-2.284 -2.741,-4.855 -4.438,-2.681c-1.985,2.256 -2.199,6.095 -5.345,7.279c-1.415,0.485 -3.344,0.49 -4.44,-0.592c-0.523,-1.53 1.164,-2.685 1.594,-4.045c1.745,-3.19 4.4,-6.101 5.191,-9.681c-0.523,-1.916 -2.364,-3.128 -3.976,-4.041c-1.822,-0.101 -1.316,2.053 -1.576,3.213c-0.908,6.507 -5.386,11.822 -6.6,18.225c-0.252,1.257 0.896,2.31 2.113,1.748c1.737,-0.464 3.458,-2.308 5.313,-1.497c1.108,1.743 -0.995,3.254 -1.948,4.475c-1.619,1.694 -3.244,3.796 -5.658,4.285c-1.989,-0.46 -1.736,-2.938 -2.242,-4.469c-1.95,-9.566 -2.268,-19.352 -2.719,-29.07c-0.256,-2.2 -2.015,-4.462 -4.439,-4.396c-0.644,-0.08 -1.293,-0.114 -1.942,-0.125Zm-30.986,4.998c-1.321,0.586 -0.034,2.21 -0.08,3.289c1.412,7.821 1.412,15.796 1.955,23.703c-4.872,1.567 -10.411,1.691 -14.654,4.766c0.158,0.957 1.752,0.718 2.483,0.986c3.044,0.415 6.596,-0.453 9.252,1.336c0.483,2.16 -1.339,3.903 -1.93,5.853c-3.873,8.279 -9.025,15.877 -13.262,23.959c-0.312,0.768 -0.689,1.705 -0.516,2.448c2.24,-0.883 3.554,-3.134 5.225,-4.758c4.041,-4.649 7.058,-10.095 10.902,-14.873c0.936,-0.735 2.424,0.101 2.125,1.31c0.264,6.08 -1.088,12.075 -1.522,18.107c-0.461,4.564 -1.312,9.421 0.344,13.842c0.423,0.925 1.475,2.771 2.559,1.741c1.509,-2.03 1.243,-4.779 1.709,-7.159c1.151,-11.247 -0.029,-22.645 1.054,-33.91c0.306,-1.375 2.139,-1.608 2.891,-0.435c1.022,0.79 2.308,2.353 3.697,1.691c0.977,-2.395 -1.361,-4.605 -3.316,-5.523c-1.609,-0.739 -4.062,-2.107 -3.363,-4.236c1.225,-2.898 5.694,-2.151 6.712,-5.151c-0.201,-1.971 -2.799,-1.588 -4.169,-2.131c-2.283,-1.175 -1.635,-4.295 -1.528,-6.363c0.331,-4.547 0.739,-9.107 1.699,-13.57c-1.47,-3.032 -5.063,-4.658 -8.267,-4.922Zm61.473,38.729l-0.25,0.008l-0.064,0.002c-1.341,0.853 0.054,2.608 0.701,3.519c1.816,2.301 3.89,5.08 6.891,5.661c2.023,-1.205 1.165,-4.153 -0.34,-5.44c-1.894,-1.826 -4.357,-3.25 -6.937,-3.75l-0.001,0Z" style="fill:#f00;fill-rule:nonzero;"/><g><path d="M48.598,0.682c-3.818,-0 -4.012,1.499 -0.865,6.731c1.29,2.143 2.73,6.991 3.198,10.773c0.467,3.781 1.175,8.201 1.574,9.822c0.653,2.66 0.471,2.812 -1.864,1.562c-3.802,-2.034 -5.03,-1.713 -5.476,1.43c-0.263,1.843 -1.407,2.954 -3.318,3.224c-2.89,0.411 -2.877,0.342 1.212,-7.041c3.538,-6.386 3.888,-7.743 2.451,-9.476c-0.923,-1.112 -2.734,-2.023 -4.026,-2.023c-1.811,-0 -2.35,0.929 -2.363,4.064c-0.009,2.234 -1.645,7.273 -3.634,11.196c-2.883,5.683 -3.291,7.402 -2.01,8.464c1.126,0.935 2.635,0.944 5.049,0.026l3.441,-1.309l-2.206,3.469c-1.212,1.908 -3.365,4.749 -4.783,6.31c-2.352,2.592 -2.404,3.012 -0.595,4.821c1.809,1.809 2.498,1.678 7.895,-1.484c4.857,-2.847 6.328,-3.206 8.245,-2.008c2.967,1.852 3.207,1.834 4.039,-0.336c0.379,-0.988 -0.447,-3.239 -1.834,-5.002c-3.015,-3.833 -6.682,-4.357 -5.757,-0.823c0.462,1.764 -0.152,2.533 -2.365,2.956c-2.056,0.392 -2.661,0.133 -1.938,-0.823c6.454,-8.539 9.568,-11.902 10.273,-11.102c0.823,0.934 4.114,15.549 3.938,17.48c-0.049,0.531 -5.888,2.406 -12.977,4.167c-8.933,2.219 -12.891,3.757 -12.891,5.01c0,1.31 1.462,1.778 5.312,1.699c2.923,-0.059 5.315,0.391 5.315,1c-0,2.1 -4.076,9.125 -8.368,14.424c-3.765,4.648 -3.994,5.312 -1.849,5.312c2.662,-0 8.087,-4.671 12.336,-10.623l2.678,-3.748l3.803,2.81c4.713,3.486 6.402,3.55 6.402,0.25c0,-1.516 -1.49,-3.413 -3.659,-4.658c-2.012,-1.155 -3.902,-3.367 -4.198,-4.918c-0.457,-2.386 0.155,-2.963 3.972,-3.756c2.481,-0.515 4.96,-0.948 5.512,-0.96c0.551,-0.014 2.3,3.168 3.887,7.072l2.883,7.099l-6.67,4.778c-3.671,2.628 -6.686,5.201 -6.701,5.716c-0.058,1.992 5.624,0.795 10.899,-2.296c3.037,-1.78 5.642,-3.045 5.787,-2.812c3.069,4.894 8.376,10.749 12.36,13.634c8.108,5.874 9.684,5.173 9.684,-4.305c-0,-8.553 -1.076,-15.795 -2.344,-15.775c-0.429,0.007 -1.725,2.259 -2.877,5.002c-1.153,2.744 -2.672,4.988 -3.376,4.988c-0.704,0 -2.97,-1.81 -5.038,-4.023c-4.168,-4.459 -4.379,-3.721 3.596,-12.637l3.161,-3.536l-3.527,-3.048c-4.019,-3.47 -5.222,-3.178 -6.412,1.562c-0.462,1.841 -1.575,4.402 -2.474,5.686c-1.529,2.181 -1.769,2.053 -3.674,-1.963c-3.208,-6.761 -2.722,-7.901 3.898,-9.111c6,-1.097 7.098,-2.557 3.588,-4.771c-1.25,-0.789 -3.657,-0.744 -6.91,0.125c-4.063,1.084 -5.122,0.997 -5.68,-0.458c-1.105,-2.88 -0.803,-4.082 1.029,-4.082c0.944,0 4.365,-1.171 7.602,-2.604c5.389,-2.383 6.072,-2.436 8.076,-0.622c2.563,2.319 3.859,1.452 3.859,-2.577c0,-1.93 -1.221,-3.517 -3.689,-4.792c-4.787,-2.477 -5.484,-2.405 -4.731,0.476c0.461,1.763 -0.152,2.531 -2.355,2.951c-1.638,0.313 -2.977,0.332 -2.977,0.043c0,-0.29 2.929,-3.621 6.509,-7.406c5.314,-5.619 6.263,-7.265 5.179,-8.986c-2.393,-3.801 -5.213,-3.193 -7.197,1.556c-1.277,3.056 -2.668,4.459 -4.426,4.459c-1.41,-0 -2.564,-0.243 -2.564,-0.541c-0,-0.298 1.774,-3.395 3.94,-6.881c3.825,-6.151 3.872,-6.413 1.681,-8.836c-3.212,-3.548 -5.62,-3.144 -5.639,0.944c-0.008,1.89 -1.669,6.698 -3.689,10.683c-4.682,9.23 -3.702,12.927 2.538,9.589c3.597,-1.925 2.927,0.341 -1.297,4.386c-2.785,2.669 -3.87,3.116 -4.341,1.795c-1.419,-3.983 -3.173,-18.563 -3.186,-26.411c-0.01,-9.135 -1.364,-10.981 -8.053,-10.981l0.002,-0Zm-30.111,4.998l-0,0.001c-1.727,0 -1.961,0.665 -1.209,3.441c0.512,1.89 1.179,8.007 1.482,13.596l0.556,10.157l-7.278,1.776c-9.335,2.278 -10.109,5.414 -1.336,5.414c3.268,0 5.941,0.437 5.939,0.973c-0.003,1.625 -7.283,15.51 -11.988,22.864c-5.739,8.972 -5.326,13.052 0.688,6.792c2.311,-2.407 6.361,-7.697 9,-11.758c5.55,-8.54 5.617,-8.315 3.336,11.404c-1.119,9.674 -1.129,13.541 -0.035,15.94c0.793,1.743 2.032,3.167 2.751,3.167c2.711,0 3.746,-6.991 3.746,-25.282c-0,-18.196 0.08,-18.79 2.285,-16.795c3.229,2.922 5.467,2.594 4.992,-0.732c-0.225,-1.581 -1.9,-3.517 -3.839,-4.444c-4.46,-2.131 -4.351,-3.878 0.35,-5.652c4.447,-1.679 4.499,-5.028 0.089,-5.654c-2.873,-0.408 -2.948,-0.697 -2.266,-8.75c0.389,-4.581 1.043,-9.188 1.449,-10.235c0.812,-2.084 -4.984,-6.222 -8.712,-6.222l-0,-0.001Zm62.347,38.909c-3.709,-0.978 -4.044,2.295 0.972,7.31c4.261,4.261 6.517,4.385 7.108,0.39c0.253,-1.702 -0.877,-3.477 -3.318,-5.215c-1.914,-1.363 -3.525,-2.16 -4.762,-2.485Z" style="fill:#f00;fill-rule:nonzero;"/></g></g></svg>