<?xml version="1.0" encoding="UTF-8" standalone="no"?><!DOCTYPE svg PUBLIC "-//W3C//DTD SVG 1.1//EN" "http://www.w3.org/Graphics/SVG/1.1/DTD/svg11.dtd"><svg width="100%" height="100%" viewBox="0 0 53 79" version="1.1" xmlns="http://www.w3.org/2000/svg" xmlns:xlink="http://www.w3.org/1999/xlink" xml:space="preserve" xmlns:serif="http://www.serif.com/" style="fill-rule:evenodd;clip-rule:evenodd;stroke-linejoin:round;stroke-miterlimit:2;"><g><path d="M19.363,0.69c-0.543,0.151 -0.557,0.853 -0.557,2.25c0,1.481 -3.618,5.407 -9.357,10.154c-8.641,7.147 -10.439,9.936 -6.408,9.936c0.874,-0 4.19,-1.316 7.367,-2.924c3.52,-1.782 6.411,-2.522 7.4,-1.895c0.894,0.567 4.328,1.039 7.633,1.049l6.01,0.02l-2.26,3.875c-2.746,4.712 -16.787,18.064 -22.604,21.496c-3.124,1.843 -3.792,2.767 -2.566,3.544c3.079,1.952 7.927,1.106 12.852,-2.24l4.9,-3.328l1.955,2.971c1.076,1.633 4.702,6.085 8.061,9.892c3.358,3.808 7.52,10.017 9.246,13.799c1.726,3.782 3.689,7.578 4.361,8.438c1.601,2.047 2.828,1.972 5.114,-0.314c1.44,-1.441 1.607,-2.819 0.714,-5.93c-0.639,-2.23 -1.162,-4.145 -1.162,-4.256c0,-0.623 -10.119,-12.218 -16.928,-19.398l-7.902,-8.332l7.254,-6.67c3.989,-3.669 8.591,-7.602 10.227,-8.74l2.975,-2.07l-3.674,-3.87c-3.465,-3.65 -4.197,-3.867 -12.996,-3.867l-9.326,-0l3.308,-3.066c4.262,-3.95 4.304,-7.869 0.102,-9.467c-2.122,-0.807 -3.196,-1.208 -3.739,-1.057Z" style="fill:#800000;fill-rule:nonzero;"/></g></svg>