<?xml version="1.0" encoding="UTF-8" standalone="no"?><!DOCTYPE svg PUBLIC "-//W3C//DTD SVG 1.1//EN" "http://www.w3.org/Graphics/SVG/1.1/DTD/svg11.dtd"><svg width="100%" height="100%" viewBox="0 0 92 91" version="1.1" xmlns="http://www.w3.org/2000/svg" xmlns:xlink="http://www.w3.org/1999/xlink" xml:space="preserve" xmlns:serif="http://www.serif.com/" style="fill-rule:evenodd;clip-rule:evenodd;stroke-linejoin:round;stroke-miterlimit:2;"><g><g><path d="M60.528,1.214c-2.056,0.427 -2.798,2.269 -0.852,5.237c1.581,2.415 2.06,6.175 2.06,16.181c0,14.686 0.96,13.427 -11.627,15.243c-4.628,0.668 -5.905,1.332 -5.582,2.902c0.344,1.673 1.922,1.989 8.816,1.764l8.393,-0.274l0,22.361c0,12.3 0.35,23.279 0.779,24.394c1.283,3.342 3.527,1.424 4.456,-3.804c0.477,-2.694 0.902,-13.955 0.942,-25.025l0.073,-20.131l11.463,-0.813c6.303,-0.447 11.757,-1.11 12.119,-1.473c0.362,-0.361 -0.462,-1.782 -1.836,-3.155c-2.773,-2.773 -7.21,-3.312 -15.181,-1.844l-5.313,0.98l0,-9.349c0,-5.143 0.651,-11.217 1.446,-13.495c1.301,-3.734 1.16,-4.372 -1.411,-6.453c-3.314,-2.684 -6.684,-3.673 -8.742,-3.247l-0.001,0l-0.002,0.001Zm-29.736,1.729c-6.252,-1.075 -5.339,3.04 1.878,8.458c8.343,6.262 11.329,5.761 9.707,-1.628c-0.823,-3.744 -3.776,-5.486 -11.582,-6.83l-0.003,0Zm5.764,17.328c-2.263,0.17 -5.374,0.715 -9.933,1.678c-6.47,1.366 -14.466,2.86 -17.772,3.323c-6.191,0.864 -9.009,3.701 -5.737,5.773c2.798,1.771 7.575,1.342 21.336,-1.912c7.104,-1.679 14.277,-3.226 15.941,-3.437c4.141,-0.527 4.697,-3.178 1.018,-4.855c-1.173,-0.534 -2.589,-0.739 -4.853,-0.57Zm0.75,11.938c-2.227,-0.057 -5.69,0.542 -10.383,1.791c-7.526,2.004 -8.28,2.464 -7.111,4.355c2.02,3.268 19.712,-0.209 20.446,-4.017c0.262,-1.362 -0.724,-2.072 -2.951,-2.129l-0.001,0Zm-0.2,10.547c-2.122,-0.22 -5.107,0.035 -8.563,0.809c-7.403,1.656 -9.426,3.195 -6.656,5.068c3.152,2.129 18.602,-1.05 18.602,-3.828c-0,-1.133 -1.26,-1.829 -3.382,-2.049l-0.001,-0Zm-2.738,8.629c-1.102,0.352 -4.536,1.589 -7.63,2.748c-3.094,1.159 -7.736,2.044 -10.315,1.966c-2.578,-0.077 -4.69,0.235 -4.69,0.694c0,1.013 6.285,19.393 7.082,20.715c1.208,1.998 4.015,0.8 4.395,-1.876c0.339,-2.384 1.545,-3.009 7.902,-4.099c6.269,-1.075 7.522,-1.713 7.633,-3.879c0.074,-1.426 1.2,-4.407 2.503,-6.625l2.366,-4.033l-3.62,-3.124c-1.993,-1.721 -4.523,-2.84 -5.626,-2.487Zm-1.884,7.385c1.558,1.559 -1.184,7.011 -3.863,7.684c-1.597,0.4 -3.728,1.045 -4.739,1.433c-2.475,0.949 -4.239,-5.64 -1.906,-7.121c2.148,-1.364 9.705,-2.799 10.508,-1.996Z" style="fill:#f00;fill-rule:nonzero;"/></g></g></svg>