<?xml version="1.0" encoding="UTF-8" standalone="no"?><!DOCTYPE svg PUBLIC "-//W3C//DTD SVG 1.1//EN" "http://www.w3.org/Graphics/SVG/1.1/DTD/svg11.dtd"><svg width="100%" height="100%" viewBox="0 0 74 77" version="1.1" xmlns="http://www.w3.org/2000/svg" xmlns:xlink="http://www.w3.org/1999/xlink" xml:space="preserve" xmlns:serif="http://www.serif.com/" style="fill-rule:evenodd;clip-rule:evenodd;stroke-linejoin:round;stroke-miterlimit:2;"><g><g><path d="M37.886,2.058c-17.766,3.423 -32.193,7.004 -32.543,8.075c-0.988,2.972 6.338,3.528 18.303,1.388c7.576,-1.356 12.464,-1.712 13.227,-0.964c0.788,0.764 0.35,3.708 -1.25,8.3l-2.463,7.118l-11.064,2.212c-9.839,1.968 -11.365,2.006 -13.728,0.355c-1.45,-1.02 -3.713,-1.855 -5.025,-1.855c-2.001,0 -2.251,0.627 -1.588,3.932c0.437,2.162 1.15,10.312 1.588,18.109c0.6,10.359 1.425,15.176 3.075,17.886c2.363,3.894 7.926,7.377 14.24,8.913c6.338,1.543 29.58,1.176 37.506,-0.593c12.677,-2.83 14.39,-3.848 14.302,-8.519c-0.137,-7.169 -3.063,-21.607 -4.326,-21.36c-0.675,0.131 -1.95,3.787 -2.825,8.125c-1,4.91 -2.663,8.96 -4.426,10.728c-7.188,7.215 -42.256,6.461 -49.058,-1.054c-2.525,-2.788 -3.025,-10.654 -1.35,-21.324l0.913,-5.786l7.139,-1.349c3.913,-0.743 11.214,-1.727 16.19,-2.188c6.226,-0.577 9.064,-1.358 9.064,-2.483c-0,-0.901 -0.55,-1.983 -1.238,-2.404c-1.425,-0.883 3.725,-11.781 6.776,-14.305c3.125,-2.599 2.338,-4.803 -3,-8.335c-3.526,-2.328 -5.989,-3.094 -8.439,-2.622Z" style="fill:#f00;fill-rule:nonzero;"/></g></g></svg>