<?xml version="1.0" encoding="UTF-8" standalone="no"?><!DOCTYPE svg PUBLIC "-//W3C//DTD SVG 1.1//EN" "http://www.w3.org/Graphics/SVG/1.1/DTD/svg11.dtd"><svg width="100%" height="100%" viewBox="0 0 51 60" version="1.1" xmlns="http://www.w3.org/2000/svg" xmlns:xlink="http://www.w3.org/1999/xlink" xml:space="preserve" xmlns:serif="http://www.serif.com/" style="fill-rule:evenodd;clip-rule:evenodd;stroke-linejoin:round;stroke-miterlimit:2;"><g><path d="M41.68,0.587c-2.83,-0.318 -7.2,-0.082 -14,0.611c-8.27,0.843 -14.28,0.853 -17.92,0.029c-6.53,-1.478 -7.61,-0.819 -4.42,2.706c4.21,4.654 6.25,5.096 14.13,3.054c4.06,-1.052 8.09,-1.912 8.95,-1.912c0.86,-0 -1.33,3.06 -4.87,6.801c-3.54,3.741 -6.43,7.117 -6.43,7.502c-0,1.701 2.91,0.367 8.42,-3.859c6.84,-5.24 12.66,-7.944 17.09,-7.944c3.57,-0 4.82,-1.431 3.73,-4.273c-0.58,-1.524 -1.86,-2.397 -4.68,-2.715Zm-35.7,32.13c-0.95,0.602 -2.44,2.561 -3.85,5.471c-4.82,9.958 0.21,18.585 12.02,20.596c7.03,1.197 34.31,0.233 35.96,-1.271c1.78,-1.636 -0.16,-4.868 -3.74,-6.231c-2.25,-0.854 -5.58,-0.849 -10.27,0.018c-3.81,0.705 -10.81,1.283 -15.55,1.283c-7.93,0 -8.93,-0.304 -12.41,-3.791c-3.86,-3.855 -4.07,-5.626 -1.61,-13.4c0.79,-2.52 0.39,-3.275 -0.55,-2.674l0,-0.001Z" style="fill-rule:nonzero;"/></g></svg>