<?xml version="1.0" encoding="UTF-8" standalone="no"?><!DOCTYPE svg PUBLIC "-//W3C//DTD SVG 1.1//EN" "http://www.w3.org/Graphics/SVG/1.1/DTD/svg11.dtd"><svg width="100%" height="100%" viewBox="0 0 54 72" version="1.1" xmlns="http://www.w3.org/2000/svg" xmlns:xlink="http://www.w3.org/1999/xlink" xml:space="preserve" xmlns:serif="http://www.serif.com/" style="fill-rule:evenodd;clip-rule:evenodd;stroke-linejoin:round;stroke-miterlimit:2;"><g><path d="M19.705,1.347c-0.614,0.137 -0.989,0.437 -0.989,0.926c0,0.534 0.886,2.237 1.969,3.783c1.083,1.546 2.28,5.813 2.658,9.48c0.654,6.338 0.531,6.709 -2.472,7.463c-4.292,1.077 -10.669,-0.254 -15.703,-3.277l-4.172,-2.506l0.422,2.939c0.702,4.896 7.75,8.651 16.234,8.651c7.657,0 9.253,1.216 4.502,3.428c-2.884,1.341 -2.846,1.382 2.96,3.226c1.113,0.353 2.291,2.043 2.618,3.754c0.496,2.596 0.025,3.225 -2.836,3.797c-8.365,1.673 -12.249,10.029 -8.764,18.85c1.31,3.316 5.665,7.545 7.793,7.568c0.458,0.005 1.145,0.321 1.525,0.702c2.197,2.196 24.848,-0.063 26.439,-2.637c0.334,-0.54 -3.83,-0.964 -9.252,-0.944c-10.966,0.042 -18.542,-2.077 -19.625,-5.488c-0.393,-1.238 -1.099,-2.251 -1.568,-2.252c-0.469,-0.001 -0.969,-1.668 -1.111,-3.703c-0.188,-2.683 0.631,-4.4 2.98,-6.248c1.782,-1.402 3.902,-2.549 4.709,-2.549c0.808,-0 2.841,2.953 4.52,6.563c3.66,7.871 7.847,9.535 9.967,3.961c1.082,-2.846 0.852,-3.869 -1.405,-6.272l-2.697,-2.871l2.656,0.201c1.461,0.11 2.656,0.583 2.656,1.051c0,1.274 3.525,2.376 5.354,1.674c2.216,-0.851 1.778,-6.107 -0.717,-8.602c-1.134,-1.133 -5.172,-3.486 -8.975,-5.226c-3.802,-1.741 -6.914,-3.64 -6.914,-4.221c0,-0.581 -0.34,-1.946 -0.758,-3.033c-0.53,-1.382 -0.033,-1.979 1.649,-1.979c1.324,0 5.322,-0.866 8.885,-1.924c4.993,-1.482 6.478,-2.493 6.478,-4.414c0,-1.37 -0.785,-2.794 -1.744,-3.162c-1.546,-0.593 -8.966,0.909 -13.963,2.826c-1.44,0.553 -1.797,-0.807 -1.797,-6.853c0,-6.661 -0.384,-7.849 -3.293,-10.137c-2.402,-1.89 -6.381,-2.955 -8.221,-2.545l0.002,-0Zm15.69,38.453c0.922,-0.269 3.231,0.941 6.935,3.631c0.287,0.209 -0.276,0.313 -1.25,0.233c-4.04,-0.331 -6.148,-1.393 -6.148,-3.1c0,-0.418 0.155,-0.674 0.463,-0.763l0,-0.001Z" style="fill:#800000;fill-rule:nonzero;"/></g></svg>