<?xml version="1.0" encoding="UTF-8" standalone="no"?><!DOCTYPE svg PUBLIC "-//W3C//DTD SVG 1.1//EN" "http://www.w3.org/Graphics/SVG/1.1/DTD/svg11.dtd"><svg width="100%" height="100%" viewBox="0 0 66 74" version="1.1" xmlns="http://www.w3.org/2000/svg" xmlns:xlink="http://www.w3.org/1999/xlink" xml:space="preserve" xmlns:serif="http://www.serif.com/" style="fill-rule:evenodd;clip-rule:evenodd;stroke-linejoin:round;stroke-miterlimit:2;"><g><path d="M48.53,1.343c-0.96,0.088 -1.93,0.36 -2.86,0.83c-1.72,0.864 -8.65,2.819 -15.4,4.346c-11.26,2.547 -12.45,2.612 -14.47,0.779c-3.21,-2.901 -3.89,-2.503 -3.89,2.277c0,8.331 2.28,10.071 8.15,6.225c3.42,-2.243 22.02,-8.255 22.87,-7.397c1.84,1.831 -26.13,27.686 -36.54,33.785c-6.06,3.555 -6.5,4.353 -4.44,8.204c0.72,1.33 1.73,2.418 2.26,2.418c0.53,-0 4.59,-2.575 9.02,-5.721c4.43,-3.147 10.03,-6.74 12.43,-7.986c5.41,-2.801 26.44,-10.278 27.09,-9.631c0.26,0.26 -1.5,1.82 -3.92,3.466c-4.8,3.271 -5.76,6.12 -2.06,6.12c2.46,-0 16.28,-10.092 17.98,-13.129c0.64,-1.161 0.12,-2.217 -1.57,-3.118c-2.03,-1.086 -5.75,-0.352 -18.41,3.637c-8.74,2.75 -16.06,4.822 -16.28,4.604c-0.21,-0.219 1.73,-2.017 4.33,-3.997c2.59,-1.979 7.67,-6.265 11.27,-9.523c3.6,-3.258 7.96,-6.279 9.69,-6.713c3.46,-0.869 3.8,-1.944 1.81,-5.67c-1.44,-2.681 -4.2,-4.071 -7.06,-3.806Zm-9.93,35.213c-1.61,0 -1.83,2.256 -1.48,14.936c0.44,15.83 0.83,16.845 7.94,21.102c1.36,0.819 3.89,1.182 5.6,0.805c1.72,-0.376 3.84,-0.757 4.69,-0.844c0.86,-0.087 1.57,-0.588 1.57,-1.115c0,-0.527 1.13,-1.318 2.52,-1.758c1.38,-0.439 2.23,-1.256 1.89,-1.816c-0.35,-0.56 -2.69,-0.312 -5.2,0.553c-3.89,1.336 -5.1,1.271 -8.08,-0.44c-1.93,-1.106 -4.01,-3.144 -4.63,-4.527c-1.14,-2.544 -1.12,-3.236 0.4,-15.738c0.89,-7.333 -0.9,-11.156 -5.22,-11.156l-0,-0.002Z" style="fill:#800000;fill-rule:nonzero;stroke:#000;stroke-width:0.1px;"/></g></svg>