<?xml version="1.0" encoding="UTF-8" standalone="no"?><!DOCTYPE svg PUBLIC "-//W3C//DTD SVG 1.1//EN" "http://www.w3.org/Graphics/SVG/1.1/DTD/svg11.dtd"><svg width="100%" height="100%" viewBox="0 0 69 77" version="1.1" xmlns="http://www.w3.org/2000/svg" xmlns:xlink="http://www.w3.org/1999/xlink" xml:space="preserve" xmlns:serif="http://www.serif.com/" style="fill-rule:evenodd;clip-rule:evenodd;stroke-linejoin:round;stroke-miterlimit:2;"><g><path d="M21.742,4.413c-0.38,0.38 0.329,2.583 1.574,4.896c2.439,4.528 2.117,13.586 -0.578,16.277c-0.821,0.82 -5.293,1.357 -10.672,1.283c-8.376,-0.115 -9.147,0.078 -8.109,2.018c1.64,3.065 8.123,5.422 12.502,4.547c2.058,-0.412 3.744,-0.432 3.744,-0.045c0,1.625 -8.896,20.765 -11.758,25.299c-2.972,4.708 -3.865,8.108 -3.44,13.096c0.361,4.224 4.496,1.623 7.598,-4.779c1.666,-3.439 5.663,-12.696 8.883,-20.574c3.219,-7.878 6.638,-14.754 7.597,-15.279c0.96,-0.526 5.123,-2.242 9.248,-3.813c4.548,-1.732 7.5,-3.592 7.5,-4.725c0,-2.67 -7.136,-3.068 -11.797,-0.658c-4.538,2.347 -4.608,2.092 -1.244,-4.504c2.506,-4.91 2.515,-5.151 0.313,-7.625c-2.501,-2.809 -10.266,-6.509 -11.361,-5.414Zm32.612,26.585c-4.937,-0.201 -10.579,0.37 -15.074,1.788c-7.094,2.238 -4.829,4.011 3.973,3.109c8.215,-0.842 10.913,0.223 7.578,2.99c-1.024,0.85 -1.864,2.106 -1.864,2.789c-0,0.712 1.205,0.873 2.815,0.379c1.547,-0.475 5.451,-1.172 8.676,-1.549c6.725,-0.784 8.338,-3.056 4.734,-6.66c-1.67,-1.67 -5.901,-2.644 -10.838,-2.846Zm-21.014,16.627c-1.887,-0 -2.582,4.58 -1.994,13.127c0.309,4.494 3.615,9.427 7.74,11.547c3.111,1.599 18.379,2.118 23.322,0.793c3.351,-0.898 3.679,-4.418 0.69,-7.408c-1.785,-1.785 -3.651,-1.997 -11.691,-1.326c-8.508,0.71 -9.934,0.51 -12.879,-1.807c-2.782,-2.187 -3.313,-3.591 -3.313,-8.765c-0,-4.643 -0.462,-6.16 -1.875,-6.16l-0,-0.001Z" style="fill-rule:nonzero;"/></g></svg>