<?xml version="1.0" encoding="UTF-8" standalone="no"?><!DOCTYPE svg PUBLIC "-//W3C//DTD SVG 1.1//EN" "http://www.w3.org/Graphics/SVG/1.1/DTD/svg11.dtd"><svg width="100%" height="100%" viewBox="0 0 60 75" version="1.1" xmlns="http://www.w3.org/2000/svg" xmlns:xlink="http://www.w3.org/1999/xlink" xml:space="preserve" xmlns:serif="http://www.serif.com/" style="fill-rule:evenodd;clip-rule:evenodd;stroke-linejoin:round;stroke-miterlimit:2;"><g><path d="M23.242,0.53c-2.421,-0.029 -3.785,1.459 -1.826,4.494c1.452,2.25 1.669,4.295 0.896,8.435c-1.501,8.04 -4.93,9.357 -15.053,5.786c-6.341,-2.238 -6.252,-2.228 -6.252,-0.528c0,0.741 1.645,2.99 3.655,5c2.844,2.844 4.785,3.655 8.752,3.655c2.803,-0 5.097,0.194 5.097,0.431c0,0.237 -1.172,3.754 -2.605,7.815c-3.616,10.244 -4.11,13.557 -2.473,16.615c2,3.736 4.355,3.292 8.426,-1.588c1.941,-2.327 5.716,-5.702 8.39,-7.5c14.254,-9.586 29.054,3.629 18.072,16.137c-5.522,6.29 -14.207,10.382 -26.373,12.424c-2.578,0.433 -4.687,1.324 -4.687,1.98c0,1.627 10.907,1.506 19.004,-0.211c14.31,-3.033 22.254,-9.8 23.213,-19.775c1.664,-17.317 -11.888,-24.004 -30.652,-15.127c-4.298,2.033 -7.814,3.498 -7.814,3.256c0,-0.242 1.134,-4.113 2.521,-8.603c2.298,-7.44 2.881,-8.241 6.565,-9.033c8.793,-1.893 19.67,-7.047 19.67,-9.321c-0,-3.853 -5.564,-4.143 -12.457,-0.65c-8.341,4.226 -9.513,3.977 -6.233,-1.33c2.759,-4.463 2.76,-4.494 0.33,-7.748c-2.268,-3.038 -5.745,-4.584 -8.166,-4.614Z" style="fill-rule:nonzero;"/></g></svg>