<?xml version="1.0" encoding="UTF-8" standalone="no"?><!DOCTYPE svg PUBLIC "-//W3C//DTD SVG 1.1//EN" "http://www.w3.org/Graphics/SVG/1.1/DTD/svg11.dtd"><svg width="100%" height="100%" viewBox="0 0 84 54" version="1.1" xmlns="http://www.w3.org/2000/svg" xmlns:xlink="http://www.w3.org/1999/xlink" xml:space="preserve" xmlns:serif="http://www.serif.com/" style="fill-rule:evenodd;clip-rule:evenodd;stroke-linejoin:round;stroke-miterlimit:2;"><g><path d="M66.476,0.837c-5.929,-0.661 -11.442,3.79 -18.207,13.752c-2.681,3.947 -5.781,7.526 -6.889,7.951c-2.966,1.138 -8.698,-2.288 -13.197,-7.886c-8.725,-10.858 -9.43,-6.044 -0.947,6.474c5.203,7.678 8.228,9.258 15.205,7.949c5.026,-0.943 9.504,-5.494 13.73,-13.953c4.668,-9.343 6.32,-10.364 11.92,-7.365c9.629,5.156 9.849,18.416 0.457,27.559c-5.723,5.571 -10.774,8.208 -22.602,11.801c-6.266,1.903 -8.64,3.126 -7.486,3.858c2.519,1.596 5.669,1.327 16.549,-1.415c16.337,-4.116 24.408,-10.936 27.082,-22.883c2.018,-9.02 0.837,-14.513 -4.135,-19.219c-4.216,-3.99 -7.923,-6.226 -11.48,-6.623Zm-62.58,19.368c-3.402,0 -3.902,5.367 -1.168,12.527c1.606,4.206 1.918,7.405 1.275,13.086c-0.943,8.334 0.316,9.655 3.934,4.132c4.538,-6.928 1.438,-29.746 -4.041,-29.746l-0,0.001Z" style="fill:#800000;fill-rule:nonzero;"/></g></svg>