<?xml version="1.0" encoding="UTF-8" standalone="no"?><!DOCTYPE svg PUBLIC "-//W3C//DTD SVG 1.1//EN" "http://www.w3.org/Graphics/SVG/1.1/DTD/svg11.dtd"><svg width="100%" height="100%" viewBox="0 0 90 80" version="1.1" xmlns="http://www.w3.org/2000/svg" xmlns:xlink="http://www.w3.org/1999/xlink" xml:space="preserve" xmlns:serif="http://www.serif.com/" style="fill-rule:evenodd;clip-rule:evenodd;stroke-linejoin:round;stroke-miterlimit:2;"><g><g><path d="M56.767,1.392c-2.292,0.183 -5.491,0.785 -10.436,1.875c-6.707,1.481 -15.008,3.13 -18.446,3.667c-8.045,1.255 -8.439,4.142 -0.817,5.98c2.99,0.721 5.965,2.255 6.611,3.41c1.207,2.157 0.127,14.654 -1.267,14.663c-2.926,0.017 -23.082,3.757 -23.725,4.401c-1.307,1.305 3.791,4.346 7.249,4.325c1.76,-0.011 6.353,-0.762 10.207,-1.67l7.009,-1.648l-1.133,5.106c-2.155,9.719 -9.867,18.674 -22.207,25.779c-4.141,2.383 -7.531,4.756 -7.544,5.271c-0.031,2.204 7.786,0.649 14.551,-2.894c9.325,-4.886 14.486,-9.887 18.133,-17.567c1.594,-3.358 3.253,-6.106 3.684,-6.106c0.43,0 3.805,4.078 7.498,9.063c3.693,4.984 9.844,12.299 13.672,16.254c3.828,3.954 7.612,7.185 8.41,7.185c4.953,-0 20.305,-3.003 20.305,-3.972c-0,-0.643 -2.672,-2.307 -5.938,-3.7c-16.987,-7.247 -19.892,-9.162 -31.353,-20.669c-6.414,-6.439 -11.432,-12.401 -11.153,-13.248c0.577,-1.75 10.693,-3.078 24.93,-3.28c9.811,-0.139 12.392,-1.344 9.735,-4.544c-3.193,-3.848 -9.82,-4.397 -21.707,-1.803c-6.205,1.354 -11.362,2.46 -11.462,2.46c-0.1,0 0.324,-3.233 0.944,-7.183c0.619,-3.951 0.874,-8.154 0.563,-9.342c-0.437,-1.666 0.478,-2.34 3.998,-2.948c16.186,-2.79 20.843,-5.398 14.667,-8.212c-1.305,-0.595 -2.685,-0.834 -4.977,-0.653l-0.001,0Z" style="fill:#f00;fill-rule:nonzero;"/></g></g></svg>