<?xml version="1.0" encoding="UTF-8" standalone="no"?><!DOCTYPE svg PUBLIC "-//W3C//DTD SVG 1.1//EN" "http://www.w3.org/Graphics/SVG/1.1/DTD/svg11.dtd"><svg width="100%" height="100%" viewBox="0 0 69 65" version="1.1" xmlns="http://www.w3.org/2000/svg" xmlns:xlink="http://www.w3.org/1999/xlink" xml:space="preserve" xmlns:serif="http://www.serif.com/" style="fill-rule:evenodd;clip-rule:evenodd;stroke-linejoin:round;stroke-miterlimit:2;"><g><path d="M59.112,1.163c-3.425,0.399 -9.21,1.653 -20.148,4.089c-25.909,5.77 -27.014,5.878 -32.287,3.151c-4.929,-2.549 -5.761,-1.531 -3.178,3.886c3.367,7.06 6.532,7.447 19.715,2.416c6.261,-2.389 13.721,-4.709 16.578,-5.156l5.196,-0.81l-6.026,6.482c-8.819,9.486 -12.512,18.308 -11.871,28.369c0.759,11.913 6.546,18.201 18.713,20.328c7.891,1.38 11.061,0.517 11.061,-3.01c0,-2.396 -0.967,-3.182 -5.312,-4.314c-2.923,-0.761 -7.846,-2.612 -10.939,-4.113c-7.625,-3.699 -9.703,-9.448 -6.899,-19.094c3.9,-13.414 15.912,-24.13 27.613,-24.633c7.219,-0.31 8.889,-3.202 3.781,-6.549c-1.504,-0.986 -2.57,-1.442 -5.996,-1.043l-0.001,0.001Z" style="fill-rule:nonzero;"/></g></svg>