<?xml version="1.0" encoding="UTF-8" standalone="no"?><!DOCTYPE svg PUBLIC "-//W3C//DTD SVG 1.1//EN" "http://www.w3.org/Graphics/SVG/1.1/DTD/svg11.dtd"><svg width="100%" height="100%" viewBox="0 0 90 76" version="1.1" xmlns="http://www.w3.org/2000/svg" xmlns:xlink="http://www.w3.org/1999/xlink" xml:space="preserve" xmlns:serif="http://www.serif.com/" style="fill-rule:evenodd;clip-rule:evenodd;stroke-linejoin:round;stroke-miterlimit:2;"><g><g><path d="M40.936,0.861c-0.25,0.004 -0.475,0.016 -0.688,0.041c-2.475,0.307 -2.087,2.317 0.338,8.108c1.725,4.102 1.938,8.707 1.45,30.163c-0.312,13.929 -0.812,25.529 -1.088,25.782c-0.287,0.252 -3.55,0.738 -7.263,1.078l-6.739,0.62l1.688,-31.928l-3.338,-2.623c-3.326,-2.619 -9.239,-3.598 -9.239,-1.53c0,0.601 0.863,3.556 1.938,6.565c1.062,3.008 2.263,10.868 2.675,17.466l0.738,11.998l-4.088,0.817c-2.238,0.449 -6.789,0.816 -10.102,0.816c-7.076,0 -8.964,1.972 -4.976,5.204c3.426,2.775 4.926,2.819 16.115,0.465c11.127,-2.342 44.295,-4.68 59.285,-4.179c10.839,0.363 11.539,0.234 11.539,-2.111c0,-1.595 -1.65,-3.383 -4.563,-4.95c-4.313,-2.308 -5.326,-2.359 -17.503,-0.842c-7.113,0.885 -14.34,1.889 -16.065,2.23l-3.113,0.62l0.35,-11.033c0.525,-16.13 0.513,-16.115 6.789,-16.455c2.95,-0.159 6.201,-0.518 7.226,-0.796c1.038,-0.279 4.276,-1.127 7.201,-1.882c3.151,-0.816 5.301,-2.103 5.301,-3.175c-0,-3.02 -6.226,-3.63 -14.515,-1.422c-4.263,1.14 -8.376,2.073 -9.126,2.073c-1.763,-0 -1.726,-4.561 0.112,-16.611c1.738,-11.451 0.838,-13.158 -7.551,-14.282c-1.125,-0.151 -2.05,-0.236 -2.788,-0.227Z" style="fill:#f00;fill-rule:nonzero;"/></g></g></svg>