<?xml version="1.0" encoding="UTF-8" standalone="no"?><!DOCTYPE svg PUBLIC "-//W3C//DTD SVG 1.1//EN" "http://www.w3.org/Graphics/SVG/1.1/DTD/svg11.dtd"><svg width="100%" height="100%" viewBox="0 0 92 94" version="1.1" xmlns="http://www.w3.org/2000/svg" xmlns:xlink="http://www.w3.org/1999/xlink" xml:space="preserve" xmlns:serif="http://www.serif.com/" style="fill-rule:evenodd;clip-rule:evenodd;stroke-linejoin:round;stroke-miterlimit:2;"><g><g><path d="M39.584,0.14c-2.428,-0.528 -3.204,1.065 -3.212,5.367c-0.004,2.538 -0.579,6.683 -1.28,9.209c-1.264,4.55 -1.349,4.598 -9.388,5.459c-4.461,0.478 -8.371,1.29 -8.689,1.804c-0.317,0.515 0.52,1.931 1.863,3.147c1.797,1.625 3.637,2.017 6.951,1.479l4.508,-0.731l-2.185,3.375c-4.248,6.569 -12.908,15.958 -20.412,22.131c-4.179,3.438 -7.601,6.674 -7.606,7.189c-0.019,2.004 4.664,0.744 11.23,-3.021c8.325,-4.773 19.075,-15.528 22.666,-22.672c5.666,-11.272 10.875,-12.812 16.842,-4.987c1.946,2.552 7.115,8.739 11.487,13.752l7.951,9.114l8.976,-0.02c14.378,-0.03 15.857,-2.608 3.977,-6.926c-7.843,-2.849 -16.925,-8.638 -25.004,-15.937c-6.963,-6.293 -6.868,-6.45 4.69,-7.745c7.887,-0.886 9.601,-3.33 4.095,-5.839c-2.387,-1.088 -5.423,-0.941 -13.339,0.646c-5.637,1.131 -10.536,1.772 -10.886,1.422c-0.35,-0.35 0.309,-2.619 1.463,-5.041c2.924,-6.132 2.657,-7.716 -1.686,-9.963c-1.209,-0.625 -2.203,-1.035 -3.012,-1.21l-0,-0.002Zm10.031,38.547c-1.509,0.081 -3.371,0.469 -5.902,1.178c-3.693,1.034 -8.822,2.245 -11.4,2.691c-5.209,0.901 -6.394,3.944 -1.876,4.815c1.547,0.297 2.85,0.616 2.895,0.71c0.195,0.4 15.272,-2.572 18.984,-3.742c4.817,-1.519 5.167,-3.137 1.086,-4.996c-1.122,-0.511 -2.278,-0.737 -3.787,-0.656Zm8.02,12.95c-3.454,0.225 -8.79,1.041 -18.255,2.595c-20.997,3.447 -25.305,5.235 -18.699,7.746c2.191,0.833 5.316,0.795 9.56,-0.115c3.469,-0.745 6.681,-0.979 7.139,-0.522c0.457,0.457 1.045,5.058 1.306,10.223l0.473,9.389l-5.767,-0.864c-3.173,-0.475 -5.769,-0.4 -5.769,0.17c0,0.57 2.653,3.73 5.894,7.02c3.239,3.289 6.546,5.982 7.347,5.982c3.813,-0 4.888,-4.166 4.888,-18.946l0,-14.808l5.764,-0c16.004,-0.004 22.017,-3.186 13.079,-6.92c-1.936,-0.809 -3.506,-1.177 -6.958,-0.952l-0.002,0l0,0.002Zm-3.51,14.548c-1.223,0.794 0.654,4.126 5.585,10.116c6.251,7.592 10.671,8.976 11.439,3.583c0.624,-4.386 -1.904,-7.653 -8.52,-11.006c-2.701,-1.369 -4.781,-2.254 -6.246,-2.647c-1.099,-0.295 -1.851,-0.311 -2.258,-0.046Zm-31.414,1.445c-2.949,0 -10.413,11.387 -9.45,14.42c1.098,3.458 5.297,2.798 8.224,-1.293c2.899,-4.051 3.748,-13.127 1.226,-13.127Z" style="fill:#f00;fill-rule:nonzero;"/></g></g></svg>