<?xml version="1.0" encoding="UTF-8" standalone="no"?><!DOCTYPE svg PUBLIC "-//W3C//DTD SVG 1.1//EN" "http://www.w3.org/Graphics/SVG/1.1/DTD/svg11.dtd"><svg width="100%" height="100%" viewBox="0 0 69 80" version="1.1" xmlns="http://www.w3.org/2000/svg" xmlns:xlink="http://www.w3.org/1999/xlink" xml:space="preserve" xmlns:serif="http://www.serif.com/" style="fill-rule:evenodd;clip-rule:evenodd;stroke-linejoin:round;stroke-miterlimit:2;"><g><path d="M23.9,1.431c-1.113,-0.056 -1.482,0.849 -0.922,2.729c2.686,9.029 0.48,15.787 -5.235,16.037c-1.203,0.052 -3.179,0.286 -4.392,0.517c-1.214,0.232 -2.903,-0.264 -3.752,-1.103c-1.962,-1.937 -5.924,-3.467 -5.912,-2.283c0.004,0.494 1.096,2.548 2.425,4.564c2.452,3.719 4.605,4.713 9.86,4.557c1.603,-0.048 2.713,0.333 2.467,0.845c-0.247,0.513 -1.552,3.324 -2.899,6.246c-1.347,2.923 -2.879,5.315 -3.404,5.315c-0.526,0 -0.955,0.558 -0.955,1.24c-0,0.682 -1.266,2.695 -2.813,4.475c-1.547,1.779 -2.814,3.652 -2.814,4.162c0,0.51 -0.984,1.912 -2.188,3.115c-1.203,1.203 -2.187,3.836 -2.187,5.85c0,5.965 4.233,4.807 8.326,-2.278c1.887,-3.266 4.02,-6.352 4.74,-6.857c0.821,-0.575 0.844,-0.933 0.061,-0.957c-0.761,-0.023 -0.728,-0.398 0.086,-0.957c1.105,-0.76 7.068,-11.928 7.498,-14.045c1.197,-5.892 5.016,-9.235 12.207,-10.686c4.669,-0.942 7.09,-2.017 7.09,-3.151c0,-0.641 -0.013,-1.587 -0.026,-2.103c-0.043,-1.714 -6.646,-2.773 -8.371,-1.342c-2.512,2.085 -2.987,0.699 -1.297,-3.779c1.423,-3.771 1.289,-4.203 -2.209,-7.061c-2.416,-1.974 -4.272,-2.994 -5.385,-3.05l0.001,0Zm14.98,21.17c-2.374,-0 -2.785,0.576 -2.456,3.438c0.218,1.891 1.07,3.439 1.895,3.439c0.825,-0 2.205,0.703 3.064,1.563c0.86,0.859 2.294,1.562 3.188,1.562c0.894,-0 1.625,0.563 1.625,1.25c0,0.688 0.843,1.25 1.875,1.25c1.031,-0 1.875,0.563 1.875,1.25c0,0.688 0.843,1.25 1.875,1.25c1.031,-0 1.877,0.565 1.877,1.252c0,0.688 0.757,1.25 1.683,1.25c0.927,0 3.005,1.145 4.62,2.545c3.513,3.047 6.696,2.743 7.162,-0.683c0.264,-1.949 -1.312,-3.251 -7.276,-6.012c-7.126,-3.3 -9.154,-4.717 -15.611,-10.912c-1.399,-1.343 -3.828,-2.442 -5.396,-2.442Zm-0.715,9.055c-0.7,-0.699 -9.695,4.615 -11.016,6.508c-1.44,2.063 -1.111,11.699 0.431,12.652c0.792,0.489 -1.816,2.57 -6.072,4.844c-4.103,2.192 -9.015,5.208 -10.916,6.703c-2.339,1.839 -4.416,2.476 -6.43,1.97c-3.396,-0.852 -3.76,0.648 -1.636,6.741c1.88,5.395 4.393,5.889 7.636,1.502c2.599,-3.516 2.885,-3.606 5.684,-1.772c1.621,1.062 5.54,3.31 8.709,4.994c9.632,5.122 16.952,3.763 19.588,-3.635c1.119,-3.14 -1.125,-10.99 -4.293,-15.018l-2.588,-3.289l4.518,0c5.544,0 13.825,4.058 15.795,7.739c1.261,2.356 1.011,3.113 -1.834,5.56c-4.49,3.862 -4.14,5.141 1.394,5.096c2.579,-0.021 5.533,0.191 6.564,0.472c3.35,0.913 2.211,-9.243 -1.595,-14.234c-4.551,-5.966 -10.637,-8.539 -20.201,-8.539c-6.231,0 -8.43,-0.517 -10.109,-2.373c-2.818,-3.113 -1.538,-8.35 2.49,-10.186c2.923,-1.331 5.087,-4.53 3.881,-5.736l-0,0.001Zm-5.92,24.742l2.797,5.779c2.045,4.226 2.46,6.323 1.539,7.795c-1.917,3.063 -7.828,2.985 -14.621,-0.191l-6.114,-2.86l4.237,-3.22c2.33,-1.772 6.02,-4.14 8.199,-5.262l3.963,-2.041Z" style="fill:#800000;fill-rule:nonzero;"/></g></svg>