<?xml version="1.0" encoding="UTF-8" standalone="no"?><!DOCTYPE svg PUBLIC "-//W3C//DTD SVG 1.1//EN" "http://www.w3.org/Graphics/SVG/1.1/DTD/svg11.dtd"><svg width="100%" height="100%" viewBox="0 0 64 68" version="1.1" xmlns="http://www.w3.org/2000/svg" xmlns:xlink="http://www.w3.org/1999/xlink" xml:space="preserve" xmlns:serif="http://www.serif.com/" style="fill-rule:evenodd;clip-rule:evenodd;stroke-linejoin:round;stroke-miterlimit:2;"><g><path d="M6.04,1.182c-0.963,0.538 -1.173,2.901 -0.734,7.149c0.508,4.928 0.095,9.4 -1.313,14.221c-4.71,16.122 -4.732,34.82 -0.051,41.965c2.243,3.423 5.165,3.761 6.045,0.699c0.346,-1.204 0.565,-5.002 0.489,-8.44c-0.077,-3.438 0.849,-9.207 2.058,-12.82c3.07,-9.175 1.792,-10.979 -2.209,-3.119c-1.838,3.61 -3.689,6.563 -4.113,6.563c-0.425,-0 -0.494,-3.882 -0.154,-8.627c0.436,-6.101 1.766,-11.085 4.543,-17.018c4.762,-10.177 4.83,-11.844 0.689,-16.766c-2.572,-3.057 -4.287,-4.345 -5.25,-3.807Zm50.9,7.903c-2.353,-0.249 -5.552,0.2 -8.938,1.418c-4.618,1.66 -8.075,2.026 -13.672,1.441c-8.598,-0.899 -9.413,0.793 -2.21,4.594c7.38,3.894 28.68,0.417 28.68,-4.682c0,-1.575 -1.507,-2.523 -3.86,-2.771Zm-30.24,36.011c-0.635,0.111 -0.943,1.43 -0.943,3.961c0,4.486 3.299,8.515 8.752,10.689c1.718,0.685 8.26,1.282 14.537,1.326c9.028,0.063 11.76,-0.341 13.08,-1.932c1.419,-1.71 1.301,-2.287 -0.786,-3.859c-1.832,-1.381 -4.793,-1.706 -11.707,-1.289c-11.389,0.687 -17.407,-1 -20.029,-5.611c-1.308,-2.302 -2.269,-3.397 -2.904,-3.286l0,0.001Z" style="fill-rule:nonzero;"/></g></svg>