<?xml version="1.0" encoding="UTF-8" standalone="no"?><!DOCTYPE svg PUBLIC "-//W3C//DTD SVG 1.1//EN" "http://www.w3.org/Graphics/SVG/1.1/DTD/svg11.dtd"><svg width="100%" height="100%" viewBox="0 0 93 80" version="1.1" xmlns="http://www.w3.org/2000/svg" xmlns:xlink="http://www.w3.org/1999/xlink" xml:space="preserve" xmlns:serif="http://www.serif.com/" style="fill-rule:evenodd;clip-rule:evenodd;stroke-linejoin:round;stroke-miterlimit:2;"><g><g><path d="M22.838,1.071c-1.585,0.55 -1.99,2.609 -0.756,6.02c1.287,3.559 1.329,6.972 0.209,16.543c-0.776,6.634 -1.693,12.341 -2.039,12.686c-0.345,0.345 -4.878,1.241 -10.074,1.99c-10.322,1.488 -12.4,3.862 -6.254,7.151c2.636,1.411 3.895,1.429 7.189,0.105c8.242,-3.313 8.556,-3.295 7.147,0.413c-2.399,6.308 -1.605,9.336 3.18,12.159l4.453,2.63l-4.141,4.276c-2.279,2.352 -6.815,5.989 -10.078,8.083c-3.264,2.094 -5.622,4.312 -5.241,4.93c0.383,0.617 1.569,1.122 2.636,1.122c3.28,0 16.82,-7.821 18.818,-10.87c2.389,-3.648 3.49,-3.615 8.076,0.244c5.26,4.425 7.275,4.063 7.275,-1.309c-0,-3.642 -0.681,-4.815 -3.812,-6.564c-4.449,-2.487 -4.469,-2.298 1.825,-19.005l4.477,-11.877l-3.433,-2.807c-4.392,-3.591 -5.933,-3.009 -5.933,2.234c-0,3.792 -0.426,4.287 -4.37,5.103c-2.402,0.498 -4.465,0.803 -4.588,0.68c-0.122,-0.122 1.248,-6.603 3.047,-14.402l3.273,-14.183l-3.056,-2.31c-3.481,-2.631 -6.246,-3.593 -7.831,-3.042l0.001,-0Zm51.864,24.201l-0,0.001c-2.808,-0.199 -7.106,0.53 -12.895,2.19c-14.775,4.236 -14.132,3.916 -12.321,6.099c1.982,2.388 7.59,2.375 13.348,-0.031c2.49,-1.04 4.759,-1.658 5.043,-1.374c0.893,0.892 -5.371,22.02 -6.53,22.02c-0.16,-0 -2.823,-2.533 -5.917,-5.628c-5.177,-5.177 -9.705,-7.266 -9.705,-4.478c-0,0.631 2.53,4.117 5.624,7.741c3.095,3.626 5.627,7.297 5.627,8.159c0,0.863 -2.672,3.811 -5.939,6.555c-3.266,2.743 -7.626,6.414 -9.689,8.156c-2.952,2.492 -3.275,3.178 -1.521,3.21c2.491,0.043 13.351,-5.178 18.862,-9.067l3.591,-2.534l4.015,4.782c3.987,4.749 4.084,4.786 14.85,5.351c6.1,0.321 10.838,0.071 10.838,-0.57c0,-0.627 -3.798,-2.99 -8.44,-5.254c-4.641,-2.265 -10.5,-5.527 -13.023,-7.246l-4.59,-3.127l2.933,-5.838c3.771,-7.509 9.529,-22.645 9.789,-25.73c0.174,-2.059 -1.142,-3.187 -3.95,-3.387Zm-41.419,13.461c1.924,0.137 1.325,2.503 -1.396,9.771c-2.776,7.424 -3.24,7.794 -6.649,5.301c-1.723,-1.26 -2.033,-2.608 -1.393,-6.022c1.131,-6.031 2.063,-7.229 6.658,-8.546c1.217,-0.349 2.138,-0.55 2.78,-0.504Z" style="fill:#f00;fill-rule:nonzero;"/></g></g></svg>