<?xml version="1.0" encoding="UTF-8" standalone="no"?><!DOCTYPE svg PUBLIC "-//W3C//DTD SVG 1.1//EN" "http://www.w3.org/Graphics/SVG/1.1/DTD/svg11.dtd"><svg width="100%" height="100%" viewBox="0 0 95 71" version="1.1" xmlns="http://www.w3.org/2000/svg" xmlns:xlink="http://www.w3.org/1999/xlink" xml:space="preserve" xmlns:serif="http://www.serif.com/" style="fill-rule:evenodd;clip-rule:evenodd;stroke-linejoin:round;stroke-miterlimit:2;"><g><path d="M52.16,0.986c-1.711,0.305 -1.576,2.038 0.664,4.516c1.532,1.695 1.541,3.014 0.07,9.341c-0.943,4.053 -2.168,7.786 -2.723,8.299c-0.836,0.773 -14.032,4.961 -15.633,4.961c-0.268,-0 -0.438,-2.39 -0.379,-5.312c0.126,-6.218 -1.58,-10.939 -3.951,-10.939c-0.921,-0 -1.674,-0.443 -1.674,-0.985c-0,-0.541 -1.125,-1.068 -2.5,-1.172c-2.981,-0.224 -3.02,0.024 -0.707,4.498c0.987,1.908 2.059,5.788 2.385,8.623c0.326,2.836 0.89,5.636 1.254,6.225c0.364,0.589 -5.069,2.625 -12.074,4.523c-16.721,4.533 -15.861,4.189 -15.861,6.354c-0,1.973 5.291,3.936 9.064,3.363c1.204,-0.183 5.871,-2.002 10.371,-4.043c8.228,-3.731 10.568,-3.812 10.568,-0.373c-0,1.024 1.549,3.197 3.44,4.83l3.437,2.969l-3.752,3.955c-5.519,5.819 -7.9,6.831 -10.516,4.465c-1.2,-1.086 -2.841,-1.977 -3.646,-1.977c-2.141,-0 -1.871,10.609 0.316,12.424c2.589,2.149 10.16,-2.051 16.922,-9.386l5.463,-5.928l2.293,3.01c1.262,1.654 2.782,3.605 3.377,4.336c0.595,0.731 1.674,2.435 2.399,3.789c0.724,1.353 2.408,2.544 3.744,2.644c1.972,0.149 2.35,-0.495 2.007,-3.433c-0.392,-3.375 -3.094,-7.42 -8.287,-12.408c-2.067,-1.987 -1.905,-2.588 3.125,-11.572l5.309,-9.479l6.875,-1.363c13.711,-2.719 19.379,2.001 19.379,16.145c-0,4.728 -0.562,9.146 -1.25,9.816c-0.717,0.698 -3.386,0.838 -6.252,0.326c-7.118,-1.271 -11.858,-0.053 -14.721,3.786c-3.283,4.402 -2.076,9.1 3.189,12.406c5.197,3.262 13.545,2.623 17.787,-1.362l2.975,-2.795l3.277,2.58c6.178,4.86 9.682,-0.835 4.006,-6.511c-2.671,-2.672 -2.837,-3.704 -2.429,-15.258c0.38,-10.795 0.107,-12.92 -2.123,-16.469c-4.41,-7.016 -9.389,-9.242 -19.65,-8.787l-8.94,0.396l2.377,-4.656c1.307,-2.561 2.375,-5.424 2.375,-6.363c-0,-2.461 -5.054,-6.818 -9.064,-7.813c-0.971,-0.241 -1.746,-0.297 -2.317,-0.195l0.001,-0.001Zm-4.665,29.295l-3.25,6.412c-1.788,3.527 -3.423,6.414 -3.635,6.414c-1.051,-0 -5.822,-5.983 -5.822,-7.301c0,-1.499 3.411,-3.192 9.533,-4.728l3.174,-0.797Zm22.84,26.117c1.258,0.151 2.601,0.5 3.945,1.067l4.898,2.064l-2.951,2.416c-4.559,3.732 -12.676,2.418 -12.676,-2.051c0,-2.614 3.01,-3.948 6.783,-3.496l0.001,0Z" style="fill:#800000;fill-rule:nonzero;"/></g></svg>