<?xml version="1.0" encoding="UTF-8" standalone="no"?><!DOCTYPE svg PUBLIC "-//W3C//DTD SVG 1.1//EN" "http://www.w3.org/Graphics/SVG/1.1/DTD/svg11.dtd"><svg width="100%" height="100%" viewBox="0 0 78 68" version="1.1" xmlns="http://www.w3.org/2000/svg" xmlns:xlink="http://www.w3.org/1999/xlink" xml:space="preserve" xmlns:serif="http://www.serif.com/" style="fill-rule:evenodd;clip-rule:evenodd;stroke-linejoin:round;stroke-miterlimit:2;"><g><path d="M42.305,1.233l2.722,4.406c1.498,2.423 2.723,6.421 2.723,8.886c0,4.127 -0.458,4.685 -5.768,7.034c-4.125,1.821 -7.132,2.331 -10.561,1.781c-4.328,-0.69 -4.774,-0.51 -4.593,1.89c0.109,1.45 0.52,2.65 0.912,2.65c0.883,-0 1.608,5.38 1.548,11.47c-0.034,3.46 0.394,4.44 1.717,3.93c0.969,-0.37 2.093,-2.16 2.494,-3.98c0.402,-1.81 1.041,-4.42 1.422,-5.8c0.381,-1.37 0.559,-2.73 0.397,-3.01c-0.326,-0.57 3.232,-2.75 4.291,-2.64c0.365,0.04 2.206,-0.72 4.09,-1.69l3.425,-1.77l0,23.49l-6.062,0c-11.248,0 -18.549,5.94 -15.891,12.93c1.033,2.72 4.6,4.81 10.701,6.29c6.749,1.62 18.127,-2.17 18.127,-6.05c0,-3.38 2.673,-3.39 7.541,-0.01c4.83,3.34 8.713,3.47 8.713,0.28c0,-3.29 -4.036,-7.24 -10.039,-9.82c-5.175,-2.23 -6.249,-3.28 -6.754,-6.57c-2.664,-17.41 -2.165,-21.24 3.125,-23.974c5.432,-2.809 6.443,-2.365 5.781,2.544c-0.494,3.67 -0.206,4.37 1.773,4.37c1.3,-0 2.362,-0.54 2.362,-1.21c0,-0.66 2.247,-2.49 4.992,-4.06c5.952,-3.4 6.196,-4.736 1.387,-7.577c-4.002,-2.364 -8.944,-2.253 -14.197,0.32c-4.498,2.203 -5.269,1.204 -3.291,-4.264c2.063,-5.706 0.058,-8.083 -7.694,-9.123l-5.394,-0.724l0.001,0.001Zm-35.189,1.724c-0.633,-0.092 -1.133,0.01 -1.453,0.33c-0.354,0.353 0.813,2.785 2.593,5.404c4.027,5.925 4.02,6.216 -0.193,7.274c-1.887,0.473 -4.139,1.447 -5.002,2.164c-2.337,1.939 -1.899,8.291 0.881,12.791c2.143,3.47 2.326,5.14 1.455,13.28c-1.076,10.05 0.1,18.01 3.16,21.39c3.472,3.84 5.438,1.43 5.438,-6.67c0,-4.84 0.936,-9.63 2.67,-13.66c4.09,-9.51 1.19,-9.71 -4.786,-0.34c-1.235,1.94 -1.501,0.83 -1.562,-6.49c-0.048,-5.72 -0.718,-9.68 -1.908,-11.25c-3.286,-4.35 -2.368,-6.508 3.162,-7.442c3.893,-0.658 5.364,-1.608 6.299,-4.067c1.051,-2.765 0.663,-3.781 -2.815,-7.369c-2.96,-3.054 -6.043,-5.069 -7.939,-5.346l0,0.001Zm33.49,50.273c6.959,0.63 8.192,1.48 6.363,4.4c-1.91,3.04 -13.172,3.63 -15.518,0.8c-2.76,-3.33 1.733,-5.88 9.154,-5.2l0.001,0Z" style="fill:#800000;fill-rule:nonzero;"/></g></svg>