<?xml version="1.0" encoding="UTF-8" standalone="no"?><!DOCTYPE svg PUBLIC "-//W3C//DTD SVG 1.1//EN" "http://www.w3.org/Graphics/SVG/1.1/DTD/svg11.dtd"><svg width="100%" height="100%" viewBox="0 0 84 76" version="1.1" xmlns="http://www.w3.org/2000/svg" xmlns:xlink="http://www.w3.org/1999/xlink" xml:space="preserve" xmlns:serif="http://www.serif.com/" style="fill-rule:evenodd;clip-rule:evenodd;stroke-linejoin:round;stroke-miterlimit:2;"><g><g><path d="M38.349,0.754l-0,0.001c-0.666,0.062 -1.28,0.272 -1.853,0.629c-1.421,0.885 -1.393,1.526 0.174,3.908c1.47,2.236 2.009,8.833 2.499,30.58c0.579,25.644 0.824,27.997 3.244,31.256c1.441,1.939 4.534,4.197 6.875,5.018c9.102,3.19 31.624,1.329 33.185,-2.74c0.908,-2.365 -3.9,-21.04 -5.559,-21.592c-0.739,-0.247 -2.218,2.494 -3.286,6.089c-2.931,9.871 -4.572,11.126 -14.558,11.126c-7.695,-0 -8.705,-0.308 -11.102,-3.354c-2.29,-2.911 -2.592,-4.737 -2.282,-13.909l0.36,-10.557l13.128,-5.368c14.233,-5.822 15.807,-7.597 11.146,-12.558c-3.089,-3.288 -7.397,-4.04 -7.397,-1.289c-0,1.773 -8.436,9.229 -13.44,11.877c-2.638,1.395 -2.811,1.244 -2.811,-2.473c-0,-2.18 0.672,-7.621 1.496,-12.092l1.499,-8.129l-3.597,-2.868c-2.161,-1.723 -3.982,-2.811 -5.549,-3.29c-0.783,-0.24 -1.504,-0.328 -2.172,-0.265Zm-30.23,12.663c-2.67,-0.096 -2.787,2.052 -0.98,7.354c3.656,10.728 1.9,30.151 -3.728,41.275c-2.878,5.69 -3.183,7.206 -1.977,9.854c0.784,1.722 2.378,3.131 3.541,3.131c1.163,-0 5.817,-3.53 10.341,-7.842c4.525,-4.313 10.055,-9.34 12.29,-11.172c3.711,-3.04 5.3,-5.992 3.228,-5.992c-0.459,0 -4.397,1.958 -8.751,4.351l-7.917,4.354l0,-6.072c0,-9.671 1.221,-13.843 4.223,-14.451c12.629,-2.558 15.782,-3.6 15.782,-5.221c-0,-3.005 -3.8,-3.482 -11.45,-1.431l-7.297,1.956l0.311,-8.906l0.307,-8.904l-4.376,-1.473c-1.48,-0.497 -2.657,-0.779 -3.547,-0.81l0,-0.001Z" style="fill:#f00;fill-rule:nonzero;"/></g></g></svg>