<?xml version="1.0" encoding="UTF-8" standalone="no"?><!DOCTYPE svg PUBLIC "-//W3C//DTD SVG 1.1//EN" "http://www.w3.org/Graphics/SVG/1.1/DTD/svg11.dtd"><svg width="100%" height="100%" viewBox="0 0 77 45" version="1.1" xmlns="http://www.w3.org/2000/svg" xmlns:xlink="http://www.w3.org/1999/xlink" xml:space="preserve" xmlns:serif="http://www.serif.com/" style="fill-rule:evenodd;clip-rule:evenodd;stroke-linejoin:round;stroke-miterlimit:2;"><g><path d="M29.871,0.918c-2.507,0 -5.902,2.468 -13.316,9.684c-7.725,7.518 -10.631,9.598 -12.984,9.288c-3.674,-0.48 -3.762,0.44 -0.545,5.72c3.873,6.35 7.715,5.57 12.346,-2.5c4.235,-7.39 13.671,-17.482 15.709,-16.809c0.736,0.243 3.807,3.492 6.824,7.219c10.806,13.35 23.307,25.41 30.771,29.69c4.05,2.33 7.5,1.3 7.5,-2.24c0,-2.38 -1.851,-4.37 -8.127,-8.73c-4.469,-3.11 -14.13,-11.43 -21.469,-18.49c-10.185,-9.794 -14.141,-12.832 -16.709,-12.832Z" style="fill-rule:nonzero;"/></g></svg>