<?xml version="1.0" encoding="UTF-8" standalone="no"?><!DOCTYPE svg PUBLIC "-//W3C//DTD SVG 1.1//EN" "http://www.w3.org/Graphics/SVG/1.1/DTD/svg11.dtd"><svg width="100%" height="100%" viewBox="0 0 92 89" version="1.1" xmlns="http://www.w3.org/2000/svg" xmlns:xlink="http://www.w3.org/1999/xlink" xml:space="preserve" xmlns:serif="http://www.serif.com/" style="fill-rule:evenodd;clip-rule:evenodd;stroke-linejoin:round;stroke-miterlimit:2;"><g><g><path d="M23.995,1.018c-2.113,-0 -2.363,0.594 -1.713,4.064c0.575,3.016 -0.175,6.04 -2.863,11.735c-3.726,7.888 -14.44,24.893 -16.478,26.15c-0.625,0.388 -1.137,1.516 -1.137,2.507c-0,3.596 3.675,1.656 9.726,-5.132l6.189,-6.938l0.775,4.888c0.762,4.799 -0.85,27.086 -2.426,33.35c-0.437,1.752 -0.1,4.863 0.751,6.912c0.912,2.219 2.462,3.727 3.825,3.727c2.988,-0 3.413,-3.011 4.076,-28.725c0.425,-16.519 0.162,-21.142 -1.288,-23.354c-1.663,-2.555 -1.388,-3.376 3.913,-11.268c3.138,-4.683 5.714,-9.464 5.714,-10.625c-0,-2.647 -5.776,-7.293 -9.064,-7.293l-0,0.002Zm43.244,1.456c-2.063,0.055 -5.051,0.724 -10.889,2.063c-6.539,1.503 -13.615,2.732 -15.715,2.732c-2.113,-0 -3.826,0.545 -3.826,1.211c0,2.922 6.451,20.652 7.839,21.527c0.9,0.568 2.175,0.113 3.088,-1.104c2.05,-2.739 2.788,-1.774 3.15,4.077l0.301,4.841l-10.94,1.767c-7.713,1.242 -10.939,2.281 -10.939,3.515c0,2.754 3.538,3.433 11.252,2.158c6.763,-1.12 7.088,-1.054 6.463,1.313c-0.35,1.367 -5.413,7.428 -11.239,13.471c-10.689,11.085 -11.202,13.171 -2.088,8.352c6.151,-3.244 9.839,-6.52 14.69,-12.996l3.738,-4.999l-0.962,12.502c-1.276,16.62 -1.238,17.248 1.3,21.123c3.963,6.057 4.938,3.371 5.601,-15.535l0.625,-17.963l8.464,10.248c4.663,5.637 9.226,10.252 10.139,10.252c0.925,-0 4.275,-0.359 7.463,-0.796c8.377,-1.148 7.714,-3.98 -2.062,-8.802c-7.352,-3.623 -23.542,-15.486 -24.392,-17.869c-0.487,-1.373 4.051,-2.199 17.578,-3.2c12.164,-0.903 14.202,-2.821 6.739,-6.375c-3.839,-1.832 -4.926,-1.829 -13.053,0.021c-11.514,2.619 -11.926,2.588 -11.064,-0.806c0.388,-1.553 0.175,-3.662 -0.462,-4.689c-0.963,-1.549 0.05,-1.97 5.988,-2.49c6.851,-0.598 7.139,-0.768 6.776,-3.888c-0.237,-2.087 0.775,-4.631 2.813,-7.056c4.376,-5.205 4.088,-8.185 -1.088,-10.97c-2.087,-1.128 -3.225,-1.689 -5.288,-1.635Zm-6.088,6.76c4.575,-0.345 4.9,1.394 2.988,6.416c-1.713,4.506 -2.201,4.815 -9.439,6.111l-7.639,1.365l-0.788,-4.968c-0.437,-2.734 -0.537,-5.241 -0.2,-5.568c0.325,-0.328 4.376,-1.392 9.014,-2.362c2.538,-0.533 4.538,-0.879 6.064,-0.994Z" style="fill:#f00;fill-rule:nonzero;"/></g></g></svg>