<?xml version="1.0" encoding="UTF-8" standalone="no"?><!DOCTYPE svg PUBLIC "-//W3C//DTD SVG 1.1//EN" "http://www.w3.org/Graphics/SVG/1.1/DTD/svg11.dtd"><svg width="100%" height="100%" viewBox="0 0 59 73" version="1.1" xmlns="http://www.w3.org/2000/svg" xmlns:xlink="http://www.w3.org/1999/xlink" xml:space="preserve" xmlns:serif="http://www.serif.com/" style="fill-rule:evenodd;clip-rule:evenodd;stroke-linejoin:round;stroke-miterlimit:2;"><g><path d="M29.127,2.67c-2.527,-0.26 -4.565,0.28 -4.565,1.76c0,0.96 0.821,2.06 1.825,2.44c2.062,0.79 4.271,7.85 3.459,11.06c-0.912,3.59 -14.506,4.52 -23.725,1.61c-3.833,-1.21 -3.638,1.19 0.425,5.26c3.086,3.08 3.716,3.2 13.197,2.55l9.956,-0.68l-0.381,4.57l-0.381,4.58l-7.041,0.37c-5.073,0.27 -7.582,-0.17 -8.975,-1.56c-2.503,-2.51 -4.147,-2.45 -5.152,0.17c-1.593,4.15 3.487,7.14 13.035,7.68l8.758,0.5l0,8.46l-6.291,0c-7.453,0 -14.232,2.56 -16.111,6.07c-3.514,6.57 -0.058,12.36 8.342,13.99c12.625,2.45 21.562,-0.96 21.562,-8.23c0,-1.69 0.375,-3.07 0.835,-3.07c0.461,0 3.828,1.68 7.483,3.75c7.468,4.21 10.17,4.64 11.262,1.8c1.291,-3.37 -5.73,-9.26 -13.641,-11.46l-7.19,-2l-0,-10.38l8.438,-2.43c6.786,-1.95 8.439,-2.91 8.439,-4.92c-0,-2.09 -0.812,-2.48 -5,-2.42c-2.75,0.04 -6.548,0.52 -8.439,1.07c-3.289,0.96 -3.438,0.81 -3.438,-3.39l-0,-4.4l9.063,-1.43c4.985,-0.79 9.902,-1.55 10.926,-1.69c3.475,-0.49 2.913,-4.52 -0.828,-5.94c-2.687,-1.02 -5.144,-0.88 -10.328,0.59c-3.742,1.07 -6.96,1.78 -7.153,1.59c-0.192,-0.19 0.313,-2.5 1.12,-5.13c1.385,-4.52 1.274,-4.95 -1.987,-7.75c-1.955,-1.68 -4.972,-2.73 -7.5,-2.99l0.001,0Zm-5,53.78c4.935,0 5.439,0.28 5.439,3.05c-0,1.74 -1.197,3.89 -2.779,5c-5.071,3.55 -15.975,1.42 -15.975,-3.12c-0,-2.73 5.953,-4.93 13.314,-4.93l0.001,0Z" style="fill-rule:nonzero;"/></g></svg>