<?xml version="1.0" encoding="UTF-8" standalone="no"?><!DOCTYPE svg PUBLIC "-//W3C//DTD SVG 1.1//EN" "http://www.w3.org/Graphics/SVG/1.1/DTD/svg11.dtd"><svg width="100%" height="100%" viewBox="0 0 72 68" version="1.1" xmlns="http://www.w3.org/2000/svg" xmlns:xlink="http://www.w3.org/1999/xlink" xml:space="preserve" xmlns:serif="http://www.serif.com/" style="fill-rule:evenodd;clip-rule:evenodd;stroke-linejoin:round;stroke-miterlimit:2;"><g><path d="M40.607,0.7c-1.482,0.15 -3.333,0.74 -5.527,1.79c-8.381,4 -11.575,4.42 -15.262,2.01c-4.011,-2.63 -5.31,-1.62 -3.727,2.88c1.749,4.97 6.745,6.32 13.764,3.72l5.66,-2.1l-0.773,2.79c-0.426,1.52 -3.017,7.42 -5.76,13.09c-4.127,8.53 -5.49,10.31 -7.897,10.31c-10.919,0 -18.601,5.89 -20,15.34c-1.223,8.25 -0.158,10.92 4.358,10.92c4.447,0 11.045,-5.64 18.092,-15.47c5.605,-7.82 7.46,-8.35 17.549,-4.98c3.389,1.13 6.342,2.2 6.564,2.38c0.223,0.18 -0.437,1.96 -1.467,3.95c-2.858,5.53 -12.159,13.47 -18.701,15.97c-3.225,1.23 -5.865,2.8 -5.865,3.48c0,2.07 10.46,0.24 16.824,-2.94c5.684,-2.84 10.339,-7.19 14.525,-13.59l1.971,-3.01l5.672,5.23c6.265,5.78 11.016,6.9 11.016,2.6c-0,-2.85 -5.9,-8.98 -11.355,-11.8l-3.418,-1.77l1.879,-5.97c1.033,-3.28 2.151,-6.87 2.486,-7.98c0.732,-2.42 -5.075,-7.36 -8.658,-7.36c-2.008,0 -2.303,0.53 -1.559,2.81c1.031,3.16 1.043,8.93 0.03,13.07c-0.657,2.68 -0.828,2.7 -6.604,0.95c-3.262,-0.99 -7.478,-1.8 -9.369,-1.81c-1.891,-0.01 -3.438,-0.2 -3.438,-0.42c0,-0.22 2.121,-4.59 4.711,-9.69c2.591,-5.11 5.735,-11.7 6.989,-14.65c2.862,-6.74 1.736,-10.21 -2.709,-9.75l-0.001,0Zm-20.92,38.85c0.311,0.13 0.105,0.65 -0.424,1.63c-0.648,1.21 -3.38,4.69 -6.07,7.72c-5.273,5.94 -8.106,5.39 -4.832,-0.95c2.209,-4.27 4.084,-5.93 8.648,-7.66c1.539,-0.59 2.367,-0.86 2.678,-0.74Z" style="fill-rule:nonzero;"/></g></svg>