<?xml version="1.0" encoding="UTF-8" standalone="no"?><!DOCTYPE svg PUBLIC "-//W3C//DTD SVG 1.1//EN" "http://www.w3.org/Graphics/SVG/1.1/DTD/svg11.dtd"><svg width="100%" height="100%" viewBox="0 0 96 83" version="1.1" xmlns="http://www.w3.org/2000/svg" xmlns:xlink="http://www.w3.org/1999/xlink" xml:space="preserve" xmlns:serif="http://www.serif.com/" style="fill-rule:evenodd;clip-rule:evenodd;stroke-linejoin:round;stroke-miterlimit:2;"><g><g><path d="M45.247,0.706c-0.625,0.261 -1,0.853 -1.325,1.862c-0.85,2.685 -10.251,10.079 -19.003,14.951c-7.676,4.272 -4.926,6.404 3.901,3.017c1.45,-0.555 2.513,0.466 3.863,3.708c2.988,7.13 2.6,7.699 -6.264,9.463c-8.889,1.766 -10.314,2.745 -7.451,5.118c1.288,1.072 4.026,1.309 8.727,0.756l6.863,-0.806l0,10.877l-12.189,2.646c-6.714,1.456 -14.015,2.997 -16.253,3.424c-6.538,1.247 -4.676,6.016 2.938,7.539c2.451,0.487 7.139,-0.545 14.19,-3.118c5.801,-2.115 10.639,-3.845 10.752,-3.845c0.125,-0 0.575,3.06 1.012,6.801c1.513,12.85 4.363,16.221 15.415,18.234c13.915,2.537 41.944,-1.104 43.695,-5.676c0.337,-0.876 0.062,-3.762 -0.6,-6.412c-0.675,-2.65 -1.601,-7.526 -2.051,-10.834c-0.475,-3.423 -1.4,-5.819 -2.163,-5.565c-0.737,0.246 -2.525,3.743 -3.975,7.773c-3.313,9.202 -6.664,11.715 -17.678,13.275c-16.29,2.308 -25.579,-1.444 -25.617,-10.351c-0.012,-2.267 -0.325,-5.269 -0.7,-6.676c-0.625,-2.341 0.45,-2.812 12.515,-5.492c10.927,-2.426 13.214,-3.328 13.214,-5.231c0,-3.711 -5.538,-4.196 -15.752,-1.38l-9.252,2.547l0,-10.814l9.064,-2.914c11.152,-3.584 12.477,-6.696 2.813,-6.601c-3.438,0.034 -7.238,0.515 -8.439,1.07c-1.862,0.86 -2.187,0.351 -2.187,-3.428c-0,-3.029 -0.801,-4.997 -2.513,-6.198c-2.363,-1.651 -1.888,-2.046 7.501,-6.276c5.501,-2.482 10.014,-5.081 10.014,-5.778c0,-1.465 -5.363,-4.368 -10.227,-5.533c-1.337,-0.32 -2.212,-0.393 -2.838,-0.133l-0.012,0l0.012,0Z" style="fill:#f00;fill-rule:nonzero;"/></g></g></svg>