<?xml version="1.0" encoding="UTF-8" standalone="no"?><!DOCTYPE svg PUBLIC "-//W3C//DTD SVG 1.1//EN" "http://www.w3.org/Graphics/SVG/1.1/DTD/svg11.dtd"><svg width="100%" height="100%" viewBox="0 0 74 79" version="1.1" xmlns="http://www.w3.org/2000/svg" xmlns:xlink="http://www.w3.org/1999/xlink" xml:space="preserve" xmlns:serif="http://www.serif.com/" style="fill-rule:evenodd;clip-rule:evenodd;stroke-linejoin:round;stroke-miterlimit:2;"><g><path d="M24.43,1.54c-2.12,0.67 -6.21,7.58 -6.21,10.49c0,0.75 0.55,1.37 1.21,1.37c2.53,0 11.41,-5.39 12.62,-7.66c1.06,-1.97 0.72,-2.58 -2.07,-3.64c-1.84,-0.7 -4.34,-0.95 -5.55,-0.56Zm2.7,11.52c-1.68,0.73 -2.97,4.84 -3.59,11.73l-0.66,7.3l-7.36,1.45c-4.05,0.8 -7.71,2 -8.12,2.67c-1.42,2.29 2.68,3.56 9.25,2.87l6.57,-0.7l0,9.74l-8.44,1.47c-13.49,2.34 -14.07,2.52 -14.07,4.42c0,4.28 8.07,5.6 15.44,2.52c6.52,-2.72 7.07,-2.44 7.07,3.57c0,10.57 3.39,15.06 13.13,17.42c5.9,1.42 21.02,0.82 24.81,-0.99c8.41,-4.01 13.07,-15.38 10.8,-26.31c-2.16,-10.4 -3.43,-9.42 -6.26,4.85c-0.95,4.81 -2.65,8.64 -4.98,11.25c-3.36,3.77 -4.07,3.98 -14.06,4.39c-9.61,0.4 -10.8,0.18 -13.74,-2.5c-2.33,-2.12 -3.42,-4.67 -3.97,-9.24l-0.75,-6.31l12.51,-2.82c6.88,-1.55 12.51,-3.24 12.51,-3.75c0,-3.54 -7.82,-5.14 -13.98,-2.87c-1.59,0.59 -4.44,1.44 -6.33,1.9c-3.3,0.8 -3.44,0.64 -3.44,-4c0,-4.81 0.02,-4.83 7.52,-7.1c9.39,-2.84 11.51,-4.98 7,-7.03c-2.61,-1.19 -4.22,-1.09 -8.26,0.49l-5.01,1.97l0,-7.25c0,-4.76 -0.61,-7.75 -1.79,-8.73c-0.63,-0.53 -1.24,-0.66 -1.8,-0.41Z" style="fill:#800000;fill-rule:nonzero;"/></g></svg>