<?xml version="1.0" encoding="UTF-8" standalone="no"?><!DOCTYPE svg PUBLIC "-//W3C//DTD SVG 1.1//EN" "http://www.w3.org/Graphics/SVG/1.1/DTD/svg11.dtd"><svg width="100%" height="100%" viewBox="0 0 85 60" version="1.1" xmlns="http://www.w3.org/2000/svg" xmlns:xlink="http://www.w3.org/1999/xlink" xml:space="preserve" xmlns:serif="http://www.serif.com/" style="fill-rule:evenodd;clip-rule:evenodd;stroke-linejoin:round;stroke-miterlimit:2;"><g><path d="M41.477,0.93c-1.719,-0.14 -3.125,-0.01 -3.125,0.3c0,0.3 1.652,3.35 3.671,6.78c-0,-0 -14.754,11.01 -14.374,6.73c0.684,-7.72 0.656,-7.81 -3.2,-9.8c-4.652,-2.4 -7.073,-0.95 -4.966,2.98c1.524,2.85 1.898,22.72 0.427,22.73c-0.515,0 -3.135,2.02 -5.82,4.49c-3.995,3.67 -5.643,4.4 -9.064,4c-4.893,-0.57 -5.239,0.43 -1.391,4.01c3.97,3.7 8.306,2.71 13.742,-3.13l4.654,-5l0.19,4.07c0.104,2.23 0.33,4.62 0.502,5.31c0.172,0.69 0.382,2.01 0.468,2.93c0.383,4.13 6.224,8.24 13.086,9.23c1.954,0.28 4.648,1.59 6.25,1.6c20.019,0.11 21.165,0.94 25.148,0.65c12.951,-0.96 11.111,-0.65 13.68,-2.34c3.909,-2.56 4.039,-3.78 0.752,-7.07c-3.054,-3.06 -4.207,-3.12 -6.959,-0.36c-2.868,2.86 -5.194,3.22 -20.545,3.16c-23.078,-0.09 -24.83,-1.07 -28.02,-15.53c-0.685,-3.1 1.639,-7.27 4.055,-7.27c0.474,0 2.263,-1.29 3.975,-2.86c4.879,-4.49 13.937,-9.03 18.791,-9.43c6.135,-0.5 6.009,7.41 10.619,9.53c14.619,6.7 -25.203,8.78 -24.758,9.94c0.328,0.85 1.101,1.24 1.717,0.86c0.615,-0.38 1.119,-0.17 1.119,0.46c0,0.63 4.527,1.25 10.061,1.39c9.914,0.24 10.122,0.18 14.328,-4.03c3.848,-3.85 4.205,-4.79 3.625,-9.61c-1.086,-9.01 -5.082,-12.64 -14.262,-12.99c-3.614,-0.13 -4.449,-0.68 -4.801,-3.17c-0.461,-3.25 -2.958,-6.35 -5.111,-6.35c-0.737,0 -1.34,-0.44 -1.34,-0.98c0,-0.53 -1.406,-1.09 -3.125,-1.23l0.001,0Z" style="fill:#800000;fill-rule:nonzero;"/></g></svg>