<?xml version="1.0" encoding="UTF-8" standalone="no"?><!DOCTYPE svg PUBLIC "-//W3C//DTD SVG 1.1//EN" "http://www.w3.org/Graphics/SVG/1.1/DTD/svg11.dtd"><svg width="100%" height="100%" viewBox="0 0 94 83" version="1.1" xmlns="http://www.w3.org/2000/svg" xmlns:xlink="http://www.w3.org/1999/xlink" xml:space="preserve" xmlns:serif="http://www.serif.com/" style="fill-rule:evenodd;clip-rule:evenodd;stroke-linejoin:round;stroke-miterlimit:2;"><g><g><path d="M37.065,0.88c-2.147,-0.249 -3.936,0.037 -3.936,1.023c0,0.601 0.844,3.485 1.876,6.408c1.115,3.162 1.875,9.717 1.875,16.178l-0,10.865l-5.196,2.921l-5.193,2.919l0.75,-4.625c0.683,-4.21 0.391,-4.843 -3.244,-7.061c-6.871,-4.189 -10.423,-2.44 -7.267,3.577c0.609,1.158 1.501,4.477 1.982,7.376l0.87,5.276l-9.478,4.69c-5.214,2.579 -9.481,5.384 -9.481,6.234c-0,0.849 1.923,1.903 4.271,2.343c3.369,0.633 5.257,0.127 8.99,-2.409c2.599,-1.766 4.914,-3.019 5.146,-2.788c0.231,0.233 0.951,3.662 1.595,7.625c0.645,3.963 2.083,8.592 3.194,10.288c2.537,3.872 10.814,7.587 20.207,9.071c14.292,2.26 44.461,-0.068 48.31,-3.726c0.595,-0.565 0.212,-3.717 -0.865,-7.07c-1.07,-3.328 -2.563,-8.442 -3.314,-11.363c-1.689,-6.563 -3.389,-6.799 -4.508,-0.625c-0.468,2.577 -1.668,6.768 -2.668,9.314c-1.613,4.103 -2.437,4.72 -7.258,5.443c-10.201,1.53 -35.825,0.06 -40.244,-2.31c-5.108,-2.74 -6.078,-4.707 -7.032,-14.28l-0.773,-7.769l5.455,-3.754l5.456,-3.752l-0.639,7.976c-0.67,8.348 0.211,14.444 2.088,14.444c1.61,-0 3.846,-7.164 3.861,-12.375c0.032,-10.526 1.325,-13.818 6.947,-17.688c2.952,-2.03 5.752,-3.693 6.223,-3.693c1.161,0 -0.628,13.801 -2.162,16.674c-0.884,1.655 -2.07,2.086 -4.249,1.539c-1.946,-0.489 -3.023,-0.22 -3.023,0.752c0,2.202 5.315,9.629 7.494,10.472c3.198,1.237 7.34,-5.654 9.428,-15.683c1.074,-5.157 3.022,-11.722 4.328,-14.59c2.745,-6.025 2.062,-7.104 -5.347,-8.44c-4.347,-0.783 -5.247,-0.398 -11.188,4.799c-3.553,3.108 -6.606,5.502 -6.789,5.32c-0.182,-0.181 0.272,-5.905 1.012,-12.715c1.312,-12.08 1.277,-12.433 -1.436,-14.631c-1.421,-1.15 -3.923,-1.933 -6.068,-2.181l-0,0.001Z" style="fill:#f00;fill-rule:nonzero;"/></g></g></svg>