<?xml version="1.0" encoding="UTF-8" standalone="no"?><!DOCTYPE svg PUBLIC "-//W3C//DTD SVG 1.1//EN" "http://www.w3.org/Graphics/SVG/1.1/DTD/svg11.dtd"><svg width="100%" height="100%" viewBox="0 0 77 67" version="1.1" xmlns="http://www.w3.org/2000/svg" xmlns:xlink="http://www.w3.org/1999/xlink" xml:space="preserve" xmlns:serif="http://www.serif.com/" style="fill-rule:evenodd;clip-rule:evenodd;stroke-linejoin:round;stroke-miterlimit:2;"><g><path d="M53.534,0.28c-6.465,0.8 -42.49,5.78 -48.109,6.65c-5.013,0.77 -5.38,3.83 -0.674,5.61c2.492,0.95 5.556,0.79 11.564,-0.6c13.121,-3.03 18.803,-3.65 18.803,-2.04c0,0.78 -0.917,3.22 -2.037,5.42c-4.512,8.86 -11.151,16.17 -22.586,24.87c-9.955,7.57 -11.53,9.21 -9.182,9.55c1.716,0.26 6.409,-1.76 11.896,-5.12c6.638,-4.05 9.026,-5 8.922,-3.54c-0.186,2.63 7.677,3.32 15.408,1.34c8.33,-2.12 9.721,-2.35 19.406,-3.21c4.841,-0.43 9.16,-1 9.598,-1.26c0.438,-0.26 1.526,0.41 2.42,1.48c1.35,1.63 1.225,2.7 -0.739,6.35c-1.299,2.41 -2.483,5.21 -2.631,6.22c-0.561,3.82 -3.008,5.13 -9.21,4.9c-3.412,-0.12 -6.619,-0.64 -7.127,-1.14c-1.764,-1.77 1.762,-5.19 5.753,-5.58c5.634,-0.56 4.181,-3.2 -2.046,-3.72c-4.02,-0.34 -5.648,0.17 -7.719,2.39c-2.907,3.12 -3.31,6.24 -1.293,10.01c1.193,2.23 2.246,2.42 10.002,1.83c7.095,-0.54 8.668,-0.33 8.668,1.17c-0,1.02 0.521,1.84 1.16,1.84c2.268,0 4.599,-3.5 6.963,-10.45c1.318,-3.88 2.885,-7.05 3.482,-7.05c1.372,0 0.788,-7.6 -0.742,-9.68c-0.629,-0.85 -1.644,-1.24 -2.254,-0.86c-0.61,0.38 -1.107,0.11 -1.107,-0.6c0,-1.99 -21.193,-0.35 -31.256,2.42c-2.407,0.66 -5.661,1.21 -7.233,1.21c-2.44,0.01 -2.669,-0.34 -1.56,-2.42c0.849,-1.58 0.872,-2.68 0.062,-3.18c-0.68,-0.43 2.411,-5.04 6.871,-10.27c8.412,-9.86 9.126,-11.36 6.61,-13.88c-1.167,-1.16 1.056,-1.5 10.002,-1.5c9.31,0 11.502,-0.35 11.502,-1.84c0,-3.36 -5.83,-6.04 -11.588,-5.32l0.001,-0Z" style="fill:#800000;fill-rule:nonzero;"/></g></svg>