<?xml version="1.0" encoding="UTF-8" standalone="no"?><!DOCTYPE svg PUBLIC "-//W3C//DTD SVG 1.1//EN" "http://www.w3.org/Graphics/SVG/1.1/DTD/svg11.dtd"><svg width="100%" height="100%" viewBox="0 0 78 76" version="1.1" xmlns="http://www.w3.org/2000/svg" xmlns:xlink="http://www.w3.org/1999/xlink" xml:space="preserve" xmlns:serif="http://www.serif.com/" style="fill-rule:evenodd;clip-rule:evenodd;stroke-linejoin:round;stroke-miterlimit:2;"><g><path d="M28.174,0.7c-0.177,0.22 -0.91,1.53 -1.631,2.92c-0.721,1.39 -5.574,4.76 -10.783,7.5c-12.139,6.37 -12.754,8.6 -1.512,5.48c5.629,-1.56 6.965,-0.44 6.996,5.89c0.018,3.54 -0.414,3.97 -4.67,4.68c-2.578,0.42 -6.275,0.77 -8.217,0.78c-2.682,0.01 -3.43,0.54 -3.115,2.21c0.504,2.66 7.053,3.57 12.373,1.71c3.153,-1.1 3.649,-0.97 3.649,0.98c0,2.05 -6.837,9.1 -17.273,17.82c-2.19,1.83 -3.981,3.91 -3.981,4.61c0,2.02 10.692,3.13 15.15,1.58c2.187,-0.76 4.079,-1.39 4.205,-1.39c0.126,0 -0.027,3.07 -0.338,6.82c-0.311,3.75 -0.195,8.29 0.256,10.09c0.551,2.19 1.524,3.13 2.963,2.86c1.73,-0.33 2.384,-2.66 3.393,-12.08c1.198,-11.19 1.408,-11.76 5.002,-13.61c4.638,-2.4 5.581,-3.77 5.605,-8.14c0.024,-4.26 -0.509,-4.27 -5.426,-0.12l-3.931,3.32l-0.434,-2.97c-0.434,-2.96 0.667,-4.24 9.297,-10.82c3.59,-2.74 3.605,-2.8 1.139,-4.77c-1.375,-1.09 -3.942,-2.28 -5.705,-2.65c-2.757,-0.56 -3.128,-1.18 -2.651,-4.43c0.346,-2.36 -0.087,-4.18 -1.15,-4.84c-1.245,-0.76 -0.457,-1.57 2.924,-2.98c2.545,-1.06 5.456,-1.93 6.469,-1.93c2.341,0 3.334,-1.58 2.175,-3.45c-0.893,-1.45 -10.166,-5.8 -10.779,-5.07Zm21.06,17.48c-1.454,-0.57 -3.562,2.4 -7.028,9.57c-4.759,9.84 -6.023,15.87 -3.127,14.91c1.515,-0.5 8.433,-8.92 10.797,-13.14c1.065,-1.9 1.722,-1.83 7.571,0.91c9.158,4.29 9.641,5.27 5.134,10.41c-2.096,2.38 -3.81,4.97 -3.81,5.74c0,3.3 17.319,-1.18 18.523,-4.8c0.281,-0.84 -0.474,-3.71 -1.678,-6.38c-1.756,-3.9 -3.33,-5.27 -7.955,-6.96c-11.532,-4.19 -16.437,-6.64 -17.166,-8.54c-0.365,-0.95 -0.777,-1.53 -1.262,-1.72l0.001,0Zm-29.482,27.08c0.181,0.11 0.263,0.35 0.263,0.71c0,1.07 -2.251,3.1 -5.002,4.5c-2.75,1.4 -5,2.31 -5,2.01c0,-0.3 2.25,-2.33 5,-4.51c2.761,-2.18 4.195,-3.03 4.739,-2.71Z" style="fill:#800000;fill-rule:nonzero;"/></g></svg>