<?xml version="1.0" encoding="UTF-8" standalone="no"?><!DOCTYPE svg PUBLIC "-//W3C//DTD SVG 1.1//EN" "http://www.w3.org/Graphics/SVG/1.1/DTD/svg11.dtd"><svg width="100%" height="100%" viewBox="0 0 90 98" version="1.1" xmlns="http://www.w3.org/2000/svg" xmlns:xlink="http://www.w3.org/1999/xlink" xml:space="preserve" xmlns:serif="http://www.serif.com/" style="fill-rule:evenodd;clip-rule:evenodd;stroke-linejoin:round;stroke-miterlimit:2;"><g><g><path d="M54.525,2.602c-3.338,-0 -3.638,0.307 -2.776,2.811c0.525,1.548 1.013,5.606 1.076,9.018l0.125,6.204l-5.314,1.058c-7.451,1.486 -7.238,4.662 0.313,4.662c4.613,0 5.626,0.409 5.626,2.287c-0,1.858 -1.938,2.696 -10.314,4.45c-15.04,3.15 -15.078,3.166 -13.353,5.245c1.863,2.242 5.039,2.215 13.665,-0.116c5.851,-1.579 33.455,-5.616 38.406,-5.616c2.463,0 1.888,-3.507 -0.825,-4.957c-3.275,-1.753 -8.164,-1.604 -16.015,0.484c-3.613,0.961 -6.563,1.344 -6.563,0.85c-0,-2.365 3.638,-5.083 8.526,-6.36c3.1,-0.811 5.188,-2.029 4.901,-2.869c-0.688,-2.065 -6.026,-3.177 -9.402,-1.958c-2.788,1.007 -2.838,0.888 -2.038,-5.199c0.988,-7.398 -0.587,-9.994 -6.038,-9.994Zm-41.419,11.39c-1.238,0.19 -2.038,0.708 -2.038,1.629c-0,0.972 2.363,3.502 5.251,5.625c8.126,5.977 13.539,4.679 9.789,-2.344c-1.675,-3.127 -9.302,-5.482 -13.002,-4.91Zm49.683,22.965c-1.651,0.08 -3.863,0.677 -7.814,1.853c-4.701,1.4 -10.039,2.548 -11.852,2.548c-4.101,-0 -4.088,0.369 0.35,8.422l3.613,6.539l-7.351,6.801c-4.051,3.738 -8.501,7.164 -9.889,7.614c-3.688,1.163 -3.088,3.125 0.975,3.125c1.913,0 6.564,-1.937 10.314,-4.3c7.789,-4.926 10.027,-4.276 7.689,2.212c-0.825,2.276 -1.5,5.651 -1.5,7.489c-0,1.85 -0.225,3.351 -0.488,3.351c-0.262,-0 -5.338,-1.4 -11.277,-3.126c-5.926,-1.713 -12.014,-3.125 -13.514,-3.125c-2.126,-0 -2.388,-0.325 -1.226,-1.488c2.251,-2.25 1.813,-7.089 -1.062,-11.727l-2.563,-4.151l2.575,-4.75c1.413,-2.613 3.276,-5.776 4.126,-7.026c1.313,-1.919 1.1,-2.637 -1.4,-4.689c-1.626,-1.332 -3.876,-2.423 -5.001,-2.424c-2.813,-0.002 -16.39,6.614 -16.415,7.988c-0.013,0.612 3.075,0.8 6.863,0.412c7.539,-0.787 7.939,-0.325 4.876,5.601c-1.888,3.651 -1.85,4.213 0.738,9.727c1.513,3.225 2.55,7.213 2.313,8.876c-0.375,2.676 -1.151,3.076 -6.676,3.413c-7.689,0.488 -9.327,1.838 -6.276,5.214c2.775,3.075 4.288,3.138 9.914,0.45c4.1,-1.951 4.888,-1.938 12.864,0.2c4.676,1.262 15.253,5 23.504,8.326c9.527,3.826 16.828,6.001 20.003,5.963c6.076,-0.062 18.591,-5.926 19.153,-8.976c0.363,-1.963 -0.9,-2.188 -12.639,-2.188c-7.176,0 -15.54,-0.337 -18.591,-0.762l-5.551,-0.751l13.878,-13.652l-5.314,0.825l-5.313,0.813l-0,-5.113c-0,-3.026 -0.588,-5.114 -1.45,-5.114c-0.825,0 -0.513,-1.012 0.75,-2.413c1.2,-1.337 1.825,-3.025 1.375,-3.75c-0.45,-0.738 -0.375,-1.363 0.188,-1.388c0.55,-0.025 3.4,-0.512 6.326,-1.088c6.013,-1.162 6.388,-0.575 2.675,4.139c-1.813,2.325 -3.338,3.113 -4.988,2.588c-1.651,-0.513 -2.376,-0.15 -2.376,1.2c0,2.913 20.954,16.515 22.716,14.752c2.676,-2.675 -1.15,-8.576 -7.301,-11.239l-5.613,-2.438l4.576,-2.688c5.288,-3.126 5.2,-5.051 -0.35,-7.676c-4.376,-2.063 -5.001,-3.888 -2.151,-6.249c2.888,-2.399 2.238,-4.744 -1.9,-6.887c-1.75,-0.902 -2.851,-1.343 -4.513,-1.264l-0,0.001Zm-2.588,5.784c0.875,0.053 0.862,0.6 0.862,1.699c0,1.006 -0.987,2.34 -2.187,2.978c-1.213,0.625 -4.026,1.537 -6.251,2.012c-3.501,0.763 -4.064,0.538 -4.064,-1.575c0,-1.858 1.338,-2.788 5.551,-3.847c3.501,-0.881 5.226,-1.321 6.089,-1.267Z" style="fill:#f00;fill-rule:nonzero;"/></g></g></svg>