<?xml version="1.0" encoding="UTF-8" standalone="no"?>
<svg
   width="100%"
   height="100%"
   viewBox="0 0 75 74"
   version="1.1"
   xml:space="preserve"
   style="fill-rule:evenodd;clip-rule:evenodd;stroke-linejoin:round;stroke-miterlimit:2;"
   id="svg186"
   sodipodi:docname="ア_0.svg"
   inkscape:version="1.2.2 (b0a84865, 2022-12-01)"
   xmlns:inkscape="http://www.inkscape.org/namespaces/inkscape"
   xmlns:sodipodi="http://sodipodi.sourceforge.net/DTD/sodipodi-0.dtd"
   xmlns="http://www.w3.org/2000/svg"
   xmlns:svg="http://www.w3.org/2000/svg"><defs
   id="defs190" /><sodipodi:namedview
   id="namedview188"
   pagecolor="#ffffff"
   bordercolor="#000000"
   borderopacity="0.25"
   inkscape:showpageshadow="2"
   inkscape:pageopacity="0.0"
   inkscape:pagecheckerboard="0"
   inkscape:deskcolor="#d1d1d1"
   showgrid="false"
   inkscape:zoom="3.1891892"
   inkscape:cx="26.338983"
   inkscape:cy="41.389831"
   inkscape:window-width="1431"
   inkscape:window-height="688"
   inkscape:window-x="0"
   inkscape:window-y="38"
   inkscape:window-maximized="0"
   inkscape:current-layer="svg186" />
    
<path
   d="M 63.23,2.047 C 58.57,3.913 9.6,11.382 5.41,10.867 -0.64,10.123 -0.86,12.623 4.94,16.211 l 4.23,2.613 11.72,-3.082 C 36.3,11.686 59.5,7.161 60.38,8.039 c 0.88,0.879 -4.74,8.528 -11.35,15.453 -3.25,3.399 -4.39,5.312 -3.16,5.312 3.35,0 27.17,-18.296 27.29,-20.959 C 73.26,5.65 65.52,1.131 63.23,2.047 Z M 32.26,17.132 c -0.37,0.58 0,1.877 0.94,4.151 4.11,9.906 -4.26,36.281 -15.36,48.467 -5.24,5.742 0.68,2.657 6.65,-3.465 8.16,-8.386 14.6,-21.68 16.91,-34.955 2.03,-11.58 1.93,-11.837 -5.63,-14.047 -2.02,-0.592 -3.13,-0.73 -3.51,-0.15 z"
   style="fill-rule:nonzero"
   id="path1399" /></svg>
