<?xml version="1.0" encoding="UTF-8" standalone="no"?>
<svg
   width="100%"
   height="100%"
   viewBox="0 0 80 61"
   version="1.1"
   xml:space="preserve"
   style="fill-rule:evenodd;clip-rule:evenodd;stroke-linejoin:round;stroke-miterlimit:2;"
   id="svg1705"
   sodipodi:docname="イェ_0.svg"
   inkscape:version="1.2.2 (b0a84865, 2022-12-01)"
   xmlns:inkscape="http://www.inkscape.org/namespaces/inkscape"
   xmlns:sodipodi="http://sodipodi.sourceforge.net/DTD/sodipodi-0.dtd"
   xmlns="http://www.w3.org/2000/svg"
   xmlns:svg="http://www.w3.org/2000/svg"><defs
   id="defs1709" /><sodipodi:namedview
   id="namedview1707"
   pagecolor="#ffffff"
   bordercolor="#000000"
   borderopacity="0.25"
   inkscape:showpageshadow="2"
   inkscape:pageopacity="0.0"
   inkscape:pagecheckerboard="0"
   inkscape:deskcolor="#d1d1d1"
   showgrid="false"
   inkscape:zoom="3.8688525"
   inkscape:cx="26.881356"
   inkscape:cy="30.629237"
   inkscape:current-layer="svg1705" />
    <g
   transform="matrix(1,0,0,1,-2347,-1251)"
   id="g1703">
        <path
   d="m 2396.51,1252.01 c -0.6,0.37 -0.37,1.55 0.51,2.61 1.38,1.67 0.07,3.39 -9.2,12.14 -5.95,5.61 -15.79,13.76 -21.87,18.11 -14.85,10.62 -5.6,7.8 13.08,-3.98 4.33,-2.74 8.15,-4.7 8.48,-4.36 0.57,0.57 -1.83,23.66 -2.54,24.4 -0.58,0.62 -30.03,5.24 -33.82,5.31 l -3.75,0.06 2.95,2.46 c 3.62,3.02 3.36,3.02 17.28,-0.02 14.69,-3.21 22.44,-3.99 42.27,-4.26 14.3,-0.2 16.3,-0.49 16.66,-2.4 0.67,-3.43 -7.81,-6.46 -13.46,-4.81 -2.44,0.72 -7.96,1.69 -12.25,2.16 l -7.82,0.86 v -14.85 -14.85 l 6.25,-5.39 c 3.44,-2.96 6.25,-6.05 6.23,-6.87 -0.02,-1.93 -7.56,-7.22 -9,-6.33 z"
   style="fill-rule:nonzero"
   id="path1695"
   sodipodi:nodetypes="cccccccccccccccccccccc" />
        
    </g>
</svg>
