<?xml version="1.0" encoding="UTF-8" standalone="no"?><!DOCTYPE svg PUBLIC "-//W3C//DTD SVG 1.1//EN" "http://www.w3.org/Graphics/SVG/1.1/DTD/svg11.dtd"><svg width="100%" height="100%" viewBox="0 0 81 57" version="1.1" xmlns="http://www.w3.org/2000/svg" xmlns:xlink="http://www.w3.org/1999/xlink" xml:space="preserve" xmlns:serif="http://www.serif.com/" style="fill-rule:evenodd;clip-rule:evenodd;stroke-linejoin:round;stroke-miterlimit:2;"><g><path d="M58.38,0.79c-2.24,-0.02 -5.68,0.56 -12.51,1.72c-7.55,1.29 -18.09,2.74 -23.42,3.22c-5.33,0.48 -9.69,1.31 -9.69,1.83c0,0.53 1.78,1.58 3.95,2.33c3.2,1.12 7.07,0.77 20.18,-1.78c8.93,-1.74 16.49,-2.91 16.8,-2.59c0.32,0.32 -2.05,3.38 -5.25,6.81c-5.82,6.22 -5.85,6.23 -9.97,4.51c-4.94,-2.06 -6.3,-1.21 -3.79,2.36c1.31,1.88 1.83,6.18 1.83,15.25l0,12.63l-10.31,1.54c-22.43,3.34 -25.99,4.21 -24.52,5.99c1.87,2.24 4.51,2.1 19.83,-1.05c10.29,-2.12 17.99,-2.75 35.63,-2.89c18.54,-0.15 22.5,-0.5 22.5,-1.97c-0,-4.02 -6.25,-5.18 -20.26,-3.77c-7.31,0.73 -14.2,1.34 -15.29,1.34c-1.73,-0 -1.88,-1.36 -1.13,-10.32c0.47,-5.67 0.9,-11.49 0.95,-12.93c0.08,-1.97 3.04,-4.24 11.98,-9.19c6.53,-3.62 11.88,-7.04 11.88,-7.6c-0,-0.56 -1.84,-2.15 -4.08,-3.54c-2.03,-1.25 -3.07,-1.88 -5.31,-1.9Z" style="fill-rule:nonzero;"/></g></svg>