<?xml version="1.0" encoding="UTF-8" standalone="no"?><!DOCTYPE svg PUBLIC "-//W3C//DTD SVG 1.1//EN" "http://www.w3.org/Graphics/SVG/1.1/DTD/svg11.dtd"><svg width="100%" height="100%" viewBox="0 0 72 83" version="1.1" xmlns="http://www.w3.org/2000/svg" xmlns:xlink="http://www.w3.org/1999/xlink" xml:space="preserve" xmlns:serif="http://www.serif.com/" style="fill-rule:evenodd;clip-rule:evenodd;stroke-linejoin:round;stroke-miterlimit:2;"><g><path d="M38.06,1.117c-1.77,-0.218 -3.17,0.03 -3.13,0.871c0.02,0.516 0.87,2.028 1.87,3.363c1.11,1.465 1.84,5.211 1.84,9.448l-0,7.019l-11.02,2.113c-6.06,1.162 -14.5,2.476 -18.75,2.92c-8.5,0.888 -9.89,2.325 -3.78,3.906c2.75,0.715 7.74,0.173 16.5,-1.796c6.9,-1.552 12.8,-2.579 13.09,-2.28c1.82,1.819 -15.64,22.736 -26.16,31.346c-4.79,3.92 -8.45,7.385 -8.14,7.699c1.29,1.29 19.53,-11.888 28.42,-20.533l9.53,-9.271l0.9,15.617c0.49,8.589 0.5,16.271 0,17.07c-0.61,0.994 -3.11,1.187 -7.93,0.609l-7.04,-0.843l5.63,3.668c3.09,2.017 6.99,5.152 8.65,6.968c1.67,1.816 3.51,3.303 4.1,3.303c2.92,0 3.6,-7.846 2.77,-31.975l-0.88,-25.191l4.25,-0.728c2.33,-0.402 8.04,-1.108 12.69,-1.571c9.46,-0.94 11.1,-2.075 6.9,-4.765c-3.93,-2.522 -8.99,-2.952 -11.38,-0.967c-1.1,0.913 -4.35,1.975 -7.23,2.361l-5.23,0.703l0.85,-7.584c0.79,-6.963 0.63,-7.747 -1.97,-9.566c-1.45,-1.015 -3.58,-1.697 -5.35,-1.914Z" style="fill-rule:nonzero;"/></g></svg>