<?xml version="1.0" encoding="UTF-8" standalone="no"?><!DOCTYPE svg PUBLIC "-//W3C//DTD SVG 1.1//EN" "http://www.w3.org/Graphics/SVG/1.1/DTD/svg11.dtd"><svg width="100%" height="100%" viewBox="0 0 91 95" version="1.1" xmlns="http://www.w3.org/2000/svg" xmlns:xlink="http://www.w3.org/1999/xlink" xml:space="preserve" xmlns:serif="http://www.serif.com/" style="fill-rule:evenodd;clip-rule:evenodd;stroke-linejoin:round;stroke-miterlimit:2;"><g><g><path d="M81.1,90.989c-3.975,-2.886 -9.289,-8.741 -12.352,-13.636c-0.15,-0.233 -2.75,1.032 -5.788,2.813c-5.276,3.09 -10.952,4.289 -10.902,2.297c0.013,-0.516 3.038,-3.088 6.701,-5.717l6.676,-4.778l-2.888,-7.099c-1.588,-3.903 -3.338,-7.086 -3.888,-7.072c-0.55,0.012 -3.025,0.445 -5.513,0.96c-3.813,0.793 -4.426,1.37 -3.963,3.756c0.287,1.551 2.175,3.764 4.188,4.919c2.175,1.245 3.663,3.142 3.663,4.658c-0,3.301 -1.688,3.233 -6.401,-0.251l-3.801,-2.812l-2.675,3.75c-4.251,5.951 -9.677,10.624 -12.34,10.624c-2.15,0 -1.912,-0.665 1.851,-5.313c4.288,-5.299 8.363,-12.322 8.363,-14.424c0,-0.609 -2.387,-1.059 -5.313,-1c-3.85,0.079 -5.313,-0.389 -5.313,-1.699c-0,-1.253 3.963,-2.79 12.889,-5.01c7.089,-1.761 12.927,-3.635 12.977,-4.165c0.175,-1.932 -3.113,-16.549 -3.938,-17.482c-0.7,-0.801 -3.813,2.564 -10.276,11.103c-0.713,0.957 -0.113,1.213 1.937,0.82c2.213,-0.423 2.826,-1.19 2.376,-2.954c-0.925,-3.534 2.738,-3.01 5.751,0.823c1.387,1.763 2.213,4.013 1.838,5.001c-0.838,2.17 -1.076,2.19 -4.039,0.337c-1.925,-1.196 -3.388,-0.839 -8.251,2.008c-5.388,3.163 -6.088,3.292 -7.889,1.483c-1.812,-1.809 -1.762,-2.229 0.588,-4.821c1.425,-1.56 3.575,-4.4 4.788,-6.309l2.201,-3.469l-3.439,1.309c-2.412,0.918 -3.925,0.91 -5.05,-0.025c-1.276,-1.061 -0.875,-2.782 2.012,-8.465c1.988,-3.923 3.626,-8.962 3.639,-11.196c0.012,-3.136 0.55,-4.063 2.362,-4.063c1.288,0 3.101,0.909 4.026,2.022c1.438,1.731 1.088,3.09 -2.45,9.476c-4.088,7.383 -4.113,7.452 -1.213,7.043c1.913,-0.27 3.05,-1.383 3.313,-3.226c0.45,-3.143 1.675,-3.463 5.476,-1.429c2.338,1.25 2.513,1.098 1.863,-1.563c-0.4,-1.62 -1.113,-6.041 -1.576,-9.822c-0.462,-3.782 -1.9,-8.63 -3.188,-10.775c-3.15,-5.232 -2.963,-6.728 0.851,-6.728c6.701,-0 8.051,1.846 8.063,10.983c0.013,7.849 1.763,22.426 3.188,26.409c0.463,1.322 1.551,0.873 4.339,-1.796c4.225,-4.046 4.888,-6.309 1.287,-4.385c-6.238,3.339 -7.213,-0.359 -2.525,-9.589c2.013,-3.984 3.675,-8.791 3.688,-10.683c0.012,-4.088 2.425,-4.491 5.638,-0.941c2.188,2.421 2.138,2.683 -1.687,8.834c-2.163,3.485 -3.939,6.582 -3.939,6.881c0,0.297 1.151,0.541 2.563,0.541c1.763,0 3.151,-1.401 4.426,-4.457c1.988,-4.749 4.801,-5.361 7.201,-1.56c1.088,1.721 0.138,3.369 -5.176,8.989c-3.588,3.784 -6.513,7.117 -6.513,7.407c-0,0.289 1.338,0.27 2.975,-0.044c2.201,-0.42 2.813,-1.188 2.363,-2.951c-0.762,-2.881 -0.062,-2.951 4.726,-0.475c2.463,1.276 3.688,2.861 3.688,4.792c0,4.029 -1.3,4.895 -3.863,2.576c-2,-1.814 -2.688,-1.761 -8.076,0.623c-3.238,1.431 -6.651,2.603 -7.602,2.603c-1.825,-0 -2.137,1.203 -1.025,4.083c0.563,1.455 1.613,1.54 5.676,0.455c3.251,-0.868 5.664,-0.911 6.914,-0.122c3.513,2.214 2.413,3.675 -3.588,4.772c-6.626,1.209 -7.114,2.347 -3.901,9.109c1.913,4.015 2.15,4.143 3.676,1.961c0.9,-1.284 2.013,-3.841 2.475,-5.682c1.188,-4.741 2.388,-5.033 6.414,-1.563l3.525,3.047l-3.163,3.534c-7.976,8.915 -7.764,8.179 -3.6,12.638c2.075,2.213 4.338,4.024 5.05,4.024c0.701,-0 2.213,-2.244 3.363,-4.987c1.163,-2.745 2.451,-4.995 2.888,-5.001c1.263,-0.021 2.338,7.217 2.338,15.771c0,9.478 -1.575,10.178 -9.689,4.305Zm-63.072,-4.505c-1.088,-2.399 -1.076,-6.266 0.037,-15.94c2.288,-19.719 2.213,-19.943 -3.338,-11.403c-2.638,4.061 -6.688,9.351 -9.001,11.758c-6.014,6.26 -6.426,2.18 -0.675,-6.794c4.7,-7.353 11.976,-21.237 11.976,-22.862c0,-0.535 -2.675,-0.974 -5.938,-0.974c-8.764,0 -8.001,-3.133 1.338,-5.412l7.276,-1.775l-0.55,-10.158c-0.3,-5.587 -0.975,-11.706 -1.488,-13.596c-0.75,-2.776 -0.513,-3.438 1.213,-3.438c3.725,-0 9.526,4.138 8.714,6.222c-0.413,1.047 -1.063,5.652 -1.451,10.233c-0.687,8.054 -0.612,8.344 2.263,8.751c4.413,0.627 4.363,3.974 -0.087,5.651c-4.701,1.776 -4.813,3.523 -0.35,5.654c1.938,0.927 3.613,2.864 3.838,4.444c0.475,3.327 -1.763,3.655 -4.988,0.732c-2.213,-1.996 -2.288,-1.401 -2.288,16.796c-0,18.289 -1.038,25.279 -3.751,25.279c-0.713,0 -1.95,-1.425 -2.75,-3.168Zm64.16,-34.379c-6.689,-6.688 -3.863,-10.277 3.788,-4.825c2.438,1.738 3.576,3.513 3.326,5.215c-0.601,3.995 -2.851,3.872 -7.114,-0.39Z" style="fill:#004459;fill-rule:nonzero;"/><path d="M80.925,90.911c-3.975,-2.885 -9.289,-8.74 -12.352,-13.636c-0.15,-0.232 -2.75,1.033 -5.788,2.813c-5.276,3.092 -10.952,4.289 -10.902,2.298c0.025,-0.516 3.038,-3.088 6.701,-5.717l6.676,-4.779l-2.775,-6.814c-1.513,-3.747 -3.038,-7.089 -3.376,-7.425c-0.337,-0.337 -5.576,0.827 -11.652,2.586c-11.727,3.398 -16.227,3.582 -16.227,0.66c-0,-1.231 3.738,-2.72 11.877,-4.728c16.227,-4.004 15.065,-3.314 13.639,-8.099c-0.675,-2.27 -2.55,-11.818 -4.163,-21.217c-1.613,-9.398 -3.85,-18.385 -4.951,-19.969c-2.888,-4.116 -2.5,-6.074 1.188,-6.074c6.789,0 8.039,1.796 8.089,11.608c0.037,8.902 2.088,22.895 4.813,32.913l1.388,5.14l5.063,-1.349c3.288,-0.88 5.714,-0.928 6.964,-0.139c3.513,2.214 2.413,3.676 -3.588,4.772c-6.614,1.209 -7.101,2.348 -3.901,9.109c1.913,4.016 2.15,4.144 3.676,1.963c0.9,-1.284 2.012,-3.842 2.475,-5.684c1.188,-4.739 2.388,-5.033 6.414,-1.562l3.525,3.046l-3.163,3.535c-7.976,8.916 -7.764,8.179 -3.588,12.638c2.063,2.213 4.326,4.024 5.038,4.024c0.7,0 2.213,-2.245 3.376,-4.988c1.15,-2.743 2.438,-4.993 2.875,-5.001c1.263,-0.021 2.338,7.218 2.338,15.772c0,9.477 -1.575,10.179 -9.689,4.304Z" style="fill:#178eb3;fill-rule:nonzero;"/></g></g></svg>