<?xml version="1.0" encoding="UTF-8" standalone="no"?><!DOCTYPE svg PUBLIC "-//W3C//DTD SVG 1.1//EN" "http://www.w3.org/Graphics/SVG/1.1/DTD/svg11.dtd"><svg width="100%" height="100%" viewBox="0 0 75 77" version="1.1" xmlns="http://www.w3.org/2000/svg" xmlns:xlink="http://www.w3.org/1999/xlink" xml:space="preserve" xmlns:serif="http://www.serif.com/" style="fill-rule:evenodd;clip-rule:evenodd;stroke-linejoin:round;stroke-miterlimit:2;"><g><path d="M21.18,1.071c-2.71,0 -2.84,0.477 -0.93,3.541c1.11,1.768 0.86,3.515 -1.15,8.063c-2.49,5.622 -10.94,19.011 -16.66,26.379c-2.48,3.202 -2.53,3.456 -0.38,2.283c1.32,-0.726 5.17,-4.145 8.54,-7.596c5.01,-5.125 6.73,-6.157 9.38,-5.639c1.78,0.349 6.62,0.079 10.74,-0.599c6.47,-1.063 7.73,-0.944 9.16,0.859c4.32,5.47 -4.66,24.627 -18.43,39.318c-8.92,9.518 -9.18,9.95 -4.37,7.27c12.71,-7.083 22.94,-19.274 29.87,-35.582l3.54,-8.336l-5.5,-5.863l13.77,-1.639c15.52,-1.846 17.59,-2.571 15.28,-5.354c-2.11,-2.547 -10.33,-3.425 -12.73,-1.359c-2.02,1.747 -36.09,8.475 -39.43,7.787c-1.54,-0.317 -0.87,-2.078 3.13,-8.26c2.8,-4.321 5.09,-8.358 5.09,-8.972c-0,-1.797 -6.38,-6.301 -8.92,-6.301Z" style="fill-rule:nonzero;"/></g></svg>