<?xml version="1.0" encoding="UTF-8" standalone="no"?><!DOCTYPE svg PUBLIC "-//W3C//DTD SVG 1.1//EN" "http://www.w3.org/Graphics/SVG/1.1/DTD/svg11.dtd"><svg width="100%" height="100%" viewBox="0 0 67 53" version="1.1" xmlns="http://www.w3.org/2000/svg" xmlns:xlink="http://www.w3.org/1999/xlink" xml:space="preserve" xmlns:serif="http://www.serif.com/" style="fill-rule:evenodd;clip-rule:evenodd;stroke-linejoin:round;stroke-miterlimit:2;"><g><path d="M56.21,0.247c-2.03,-0.097 -4.95,0.374 -10.63,1.322c-16.2,2.702 -31.71,4.504 -38.74,4.504c-6.85,-0 -7.64,1.575 -2.19,4.393c3.51,1.812 5.19,1.724 22.92,-1.217c20.84,-3.457 25.81,-3.829 25.81,-1.935c0,2.535 -6.58,31.964 -7.58,33.857c-0.73,1.408 -5.22,2.573 -15.79,4.097c-27.23,3.927 -24.96,3.373 -22.2,5.422c2.67,1.979 3.56,1.935 28.69,-1.379c20.54,-2.709 20.31,-2.632 17.5,-5.738c-2.14,-2.368 -2.03,-3.006 3.13,-17.789c2.94,-8.434 6.12,-16.223 7.05,-17.309c2.39,-2.771 2.24,-3.117 -2.66,-6.143c-2.14,-1.323 -3.28,-1.988 -5.31,-2.086l0,0.001Z" style="fill-rule:nonzero;"/></g></svg>