<?xml version="1.0" encoding="UTF-8" standalone="no"?><!DOCTYPE svg PUBLIC "-//W3C//DTD SVG 1.1//EN" "http://www.w3.org/Graphics/SVG/1.1/DTD/svg11.dtd"><svg width="100%" height="100%" viewBox="0 0 74 77" version="1.1" xmlns="http://www.w3.org/2000/svg" xmlns:xlink="http://www.w3.org/1999/xlink" xml:space="preserve" xmlns:serif="http://www.serif.com/" style="fill-rule:evenodd;clip-rule:evenodd;stroke-linejoin:round;stroke-miterlimit:2;"><g><g><path d="M21.043,74.733c-6.314,-1.537 -11.865,-5.018 -14.24,-8.913c-1.65,-2.711 -2.475,-7.528 -3.063,-17.887c-0.45,-7.797 -1.163,-15.946 -1.6,-18.109c-0.663,-3.305 -0.4,-3.931 1.6,-3.931c1.3,0 3.563,0.836 5.026,1.857c2.35,1.65 3.875,1.61 13.715,-0.356l11.064,-2.213l2.463,-7.118c1.6,-4.592 2.037,-7.536 1.25,-8.301c-0.763,-0.748 -5.651,-0.391 -13.227,0.967c-11.952,2.139 -19.291,1.581 -18.303,-1.392c0.362,-1.071 14.777,-4.649 32.53,-8.071c2.463,-0.474 4.926,0.294 8.451,2.62c5.326,3.533 6.126,5.737 2.988,8.337c-3.038,2.522 -8.188,13.42 -6.763,14.303c0.687,0.42 1.237,1.503 1.237,2.405c0,1.126 -2.837,1.903 -9.063,2.48c-4.989,0.462 -12.277,1.447 -16.203,2.189l-7.126,1.349l-0.913,5.786c-1.675,10.671 -1.175,18.538 1.35,21.324c6.801,7.516 41.87,8.27 49.058,1.055c1.75,-1.767 3.426,-5.818 4.426,-10.728c0.888,-4.338 2.15,-7.995 2.825,-8.126c1.263,-0.249 4.189,14.19 4.326,21.359c0.088,4.67 -1.625,5.69 -14.302,8.52c-7.926,1.769 -31.168,2.136 -37.506,0.594Z" style="fill:#004459;fill-rule:nonzero;"/><path d="M4.94,34.956c-1.2,-0.315 -2.188,-1.3 -2.188,-2.19c0,-1.07 5.176,-2.633 15.315,-4.626l15.315,-3.009l2.476,-7.131c1.587,-4.602 2.037,-7.552 1.25,-8.315c-0.775,-0.748 -5.651,-0.392 -13.24,0.966c-11.952,2.139 -19.29,1.582 -18.303,-1.391c0.363,-1.072 14.778,-4.65 32.543,-8.072c2.45,-0.474 4.913,0.293 8.439,2.621c5.338,3.531 6.126,5.737 3,8.336c-3.05,2.523 -8.201,13.421 -6.776,14.304c0.688,0.42 1.238,1.509 1.238,2.419c-0,1.155 -2.926,1.921 -9.689,2.536c-5.326,0.485 -13.515,1.677 -18.203,2.648c-4.688,0.97 -8.626,1.699 -8.751,1.621c-0.125,-0.081 -1.213,-0.403 -2.426,-0.718l0,0.001Z" style="fill:#178eb3;fill-rule:nonzero;"/></g></g></svg>