<?xml version="1.0" encoding="UTF-8" standalone="no"?><!DOCTYPE svg PUBLIC "-//W3C//DTD SVG 1.1//EN" "http://www.w3.org/Graphics/SVG/1.1/DTD/svg11.dtd"><svg width="100%" height="100%" viewBox="0 0 101 96" version="1.1" xmlns="http://www.w3.org/2000/svg" xmlns:xlink="http://www.w3.org/1999/xlink" xml:space="preserve" xmlns:serif="http://www.serif.com/" style="fill-rule:evenodd;clip-rule:evenodd;stroke-linejoin:round;stroke-miterlimit:2;"><g><g><path d="M33.234,89.549l-5.526,-5.626l9.276,0l0,-18.753c0,-10.314 -0.462,-18.753 -1.037,-18.753c-0.563,0 -3.651,0.898 -6.876,1.993c-5.101,1.74 -5.839,2.439 -5.839,5.509c0,2.91 0.425,3.402 2.513,2.857c1.388,-0.362 2.8,-1.101 3.125,-1.641c0.926,-1.484 5.776,0.143 5.251,1.756c-0.262,0.772 -2.813,1.906 -5.676,2.518c-4.7,1.007 -5.213,1.483 -5.213,4.835c0,3.284 0.325,3.615 2.813,2.838c4.663,-1.462 7.526,-1.372 8.089,0.255c0.337,0.955 -1.638,2.124 -5.189,3.073l-5.713,1.53l0,8.964c0,6.271 -0.55,9.413 -1.8,10.456c-1.463,1.213 -2.138,0.833 -3.576,-2.035c-1.413,-2.787 -1.663,-7.785 -1.175,-23.825c0.625,-20.161 0.638,-20.293 3.376,-19.607c1.512,0.38 6.288,-0.499 10.601,-1.953c12.402,-4.178 12.602,-3.866 13.29,20.867c0.45,16.688 0.2,21.158 -1.463,25.317c-1.113,2.778 -2.413,5.052 -2.888,5.052c-0.462,0 -3.338,-2.532 -6.363,-5.626l-0,-0.001Zm41.881,-11.877c-4.038,-5.501 -7.488,-10.002 -7.651,-10.002c-0.162,0 -3.388,3.236 -7.163,7.189c-3.776,3.954 -8.739,8.285 -11.027,9.627l-4.163,2.436l4.138,-4.937c2.275,-2.715 6.351,-8.245 9.039,-12.287l4.913,-7.348l-3.926,-4.95c-2.15,-2.722 -4.95,-5.598 -6.226,-6.391c-1.275,-0.794 -2.313,-1.87 -2.313,-2.392c0,-2.271 3.814,-0.586 9.002,3.977l5.601,4.927l2.075,-6.599c2.188,-6.944 2.726,-13.96 1.138,-14.939c-0.513,-0.319 -3.463,-0.293 -6.564,0.059c-4.876,0.555 -6.026,1.282 -8.689,5.507c-1.675,2.678 -3.425,4.868 -3.875,4.868c-0.45,0 0.712,-4.359 2.6,-9.689c4.913,-13.868 8.039,-29.994 6.251,-32.15c-1.925,-2.328 0.275,-3.467 3.976,-2.057c6.526,2.482 6.651,4.085 1.238,17.296c-2.751,6.722 -4.501,12.409 -3.889,12.637c1.513,0.558 9.139,-1.96 16.941,-5.596c5.2,-2.422 7.063,-2.747 9.789,-1.709c5.288,2.007 3.088,4.217 -6.239,6.273l-8.576,1.89l3.363,2.206c4.388,2.873 4.288,5.601 -0.675,17.634l-4.051,9.859l7.851,7.221c4.314,3.972 11.477,9.099 15.915,11.394c6.989,3.614 7.689,4.282 5.264,4.986c-1.551,0.447 -5.939,0.869 -9.752,0.938l-6.951,0.124l-7.364,-10.002Zm-73.761,-34.911c-2.001,-0.783 -0.988,-1.405 5,-3.108c4.126,-1.171 8.489,-2.416 9.689,-2.767c1.676,-0.487 2.188,-1.983 2.188,-6.265c0,-5.057 -0.25,-5.546 -2.5,-4.832c-2.801,0.89 -7.501,-0.249 -7.501,-1.821c-0,-0.565 1.975,-1.396 4.375,-1.847c4.364,-0.818 4.376,-0.848 4.376,-7.567c0,-3.71 -0.563,-7.093 -1.25,-7.518c-0.688,-0.425 -1.25,-1.303 -1.25,-1.949c-0,-1.836 4.15,-1.383 7.263,0.791c2.488,1.743 2.713,2.665 1.988,8.084l-0.8,6.116l4.201,-1.208c2.325,-0.664 4.413,-1.208 4.65,-1.208c0.813,0 -0.575,-13.112 -1.65,-15.502c-0.937,-2.124 -0.675,-2.279 2.576,-1.463c5.638,1.414 6.526,2.731 5.863,8.667c-0.613,5.338 -0.575,5.4 2.963,4.94c4.426,-0.575 7.326,1.198 6.301,3.857c-0.5,1.312 -2.288,2.002 -5.188,2.002c-4.401,-0 -4.414,0.015 -4.414,5.657l0,5.658l3.926,-2.029c3.101,-1.6 4.576,-1.735 6.976,-0.639c5.376,2.447 2.401,4.27 -11.602,7.12c-7.513,1.532 -17.327,3.947 -21.803,5.369c-8.764,2.788 -10.527,2.968 -14.377,1.462Zm29.692,-9.717c0.525,-0.29 0.937,-2.745 0.937,-5.454c0,-4.023 -0.437,-4.927 -2.387,-4.927c-5.139,0 -6.364,1.35 -6.364,7.034c0,5.383 0.088,5.496 3.438,4.694c1.9,-0.452 3.863,-1.059 4.376,-1.347Z" style="fill:#004459;fill-rule:nonzero;"/><path d="M18.056,30.628c0,-5.141 -0.25,-5.631 -2.5,-4.916c-2.801,0.891 -7.501,-0.248 -7.501,-1.821c-0,-0.564 1.975,-1.395 4.375,-1.847c4.364,-0.818 4.376,-0.847 4.376,-7.567c0,-3.709 -0.563,-7.094 -1.25,-7.518c-0.688,-0.425 -1.25,-1.302 -1.25,-1.949c-0,-1.836 4.15,-1.384 7.263,0.792c2.488,1.743 2.713,2.665 1.988,8.082l-0.813,6.116l4.214,-1.207c2.313,-0.664 4.413,-1.207 4.65,-1.207c0.813,0 -0.575,-13.112 -1.65,-15.502c-0.95,-2.126 -0.675,-2.279 2.576,-1.463c5.638,1.414 6.526,2.73 5.863,8.665c-0.613,5.34 -0.575,5.401 2.963,4.942c4.426,-0.575 7.326,1.197 6.301,3.856c-0.5,1.312 -2.288,2.001 -5.188,2.001c-4.376,0 -4.414,0.04 -4.414,5.492c0,3.856 -0.587,5.719 -1.975,6.251c-3.65,1.402 -4.276,0.783 -4.276,-4.241c0,-4.096 -0.425,-5.001 -2.4,-5.001c-5.088,-0 -6.351,1.36 -6.351,6.876c0,3.733 -0.6,5.588 -1.975,6.117c-3.013,1.158 -3.026,1.144 -3.026,-4.951Z" style="fill:#178eb3;fill-rule:nonzero;"/></g></g></svg>