<?xml version="1.0" encoding="UTF-8" standalone="no"?><!DOCTYPE svg PUBLIC "-//W3C//DTD SVG 1.1//EN" "http://www.w3.org/Graphics/SVG/1.1/DTD/svg11.dtd"><svg width="100%" height="100%" viewBox="0 0 86 91" version="1.1" xmlns="http://www.w3.org/2000/svg" xmlns:xlink="http://www.w3.org/1999/xlink" xml:space="preserve" xmlns:serif="http://www.serif.com/" style="fill-rule:evenodd;clip-rule:evenodd;stroke-linejoin:round;stroke-miterlimit:2;"><g><g><path d="M72.396,82.93c-5.176,-4.587 -9.277,-8.466 -9.114,-8.622c0.737,-0.74 14.752,3.227 16.49,4.668c2.113,1.753 5.563,7.801 5.563,9.753c0,3.728 -4.475,1.725 -12.939,-5.799Zm-33.168,0.763c3.175,-2.968 7.389,-7.6 9.364,-10.293l3.6,-4.897l-5.263,0.841c-7.326,1.172 -7.914,-0.468 -8.214,-22.952l-0.262,-18.728l4.525,0c4.276,0 4.614,-0.299 6.064,-5.476c2.35,-8.389 1.525,-10.216 -4.388,-9.811c-5.189,0.356 -11.302,-0.653 -10.264,-1.693c0.337,-0.334 7.788,-1.985 16.565,-3.671c8.776,-1.685 16.727,-3.709 17.678,-4.495c3.05,-2.531 14.202,0.563 14.202,3.94c-0,0.544 -4.363,1.353 -9.689,1.797c-14.753,1.227 -16.965,1.794 -15.228,3.892c1.151,1.387 0.65,3.004 -2.375,7.658c-2.113,3.246 -3.688,6.044 -3.526,6.219c0.188,0.175 4.789,-0.744 10.227,-2.043c8.351,-1.989 10.514,-2.113 13.702,-0.78l3.776,1.58l-0.825,11.756c-0.45,6.466 -0.875,16.696 -0.95,22.735c-0.088,8.84 -0.5,11.128 -2.113,11.746c-1.1,0.423 -2.426,0.09 -2.938,-0.737c-0.5,-0.829 -1.288,-10.849 -1.738,-22.27c-0.463,-11.421 -1.025,-20.961 -1.263,-21.202c-0.237,-0.241 -4.6,0.414 -9.689,1.455c-15.915,3.258 -14.877,2.728 -14.877,7.574c-0,4.138 0.187,4.332 3.438,3.56c1.888,-0.447 5.326,-1.58 7.626,-2.514c4.626,-1.871 10.189,-1.104 10.189,1.404c0,0.88 -2.113,1.988 -4.688,2.462c-16.628,3.059 -16.565,3.028 -16.565,7.646c-0,4.938 1.238,5.258 8.726,2.262c5.351,-2.143 11.815,-1.483 10.952,1.119c-0.275,0.834 -4.813,2.279 -10.089,3.209l-9.589,1.693l-0,9.611l4.063,-1.366c2.238,-0.752 4.651,-1.824 5.376,-2.384c0.75,-0.574 3.2,0.123 5.626,1.601l4.313,2.619l-8.039,7.278c-4.426,4.003 -11.452,9.027 -15.627,11.165l-7.589,3.886l5.776,-5.396Zm-38.906,1.734c-0,-0.614 1.2,-2.188 2.663,-3.498c7.988,-7.18 20.465,-26.742 19.478,-30.542c-0.738,-2.83 0.225,-3.05 4.613,-1.049c4.651,2.119 4.763,4.097 0.538,10.058c-7.514,10.595 -27.292,28.739 -27.292,25.032l-0,-0.001Zm8.301,-39.323c8.164,-8.473 12.114,-14.313 11.239,-16.608c-0.45,-1.177 0.075,-1.832 1.476,-1.832c2.587,0 7.751,3.383 7.751,5.076c-0,2.722 -21.941,19.929 -25.404,19.929c-0.775,0 1.45,-2.954 4.938,-6.563l-0,-0.002Zm-5.801,-17.53c0,-0.319 3.951,-4.604 8.789,-9.525c5.476,-5.573 9.064,-10.35 9.539,-12.668c0.4,-2.047 1.263,-3.722 1.888,-3.722c1.5,-0 7.288,5.794 7.288,7.292c0,1.623 -11.751,10.406 -20.315,15.188c-3.951,2.206 -7.189,3.753 -7.189,3.434l0,0.001Z" style="fill:#004459;fill-rule:nonzero;"/><path d="M72.221,82.853c-5.164,-4.587 -9.264,-8.466 -9.114,-8.623c0.737,-0.74 14.765,3.227 16.502,4.668c2.113,1.753 5.564,7.802 5.564,9.753c-0,3.728 -4.476,1.726 -12.952,-5.798Zm-33.168,0.762c3.175,-2.967 7.364,-7.554 9.301,-10.194l3.526,-4.798l-5.426,0.423c-3.788,0.296 -5.601,-0.097 -6.013,-1.314c-0.388,-1.095 -0.063,-1.401 0.875,-0.825c1.3,0.805 6.713,-1.016 12.739,-4.279c1.363,-0.74 3.376,-0.261 6.251,1.481l4.226,2.573l-8.039,7.278c-4.413,4.003 -11.452,9.028 -15.627,11.166l-7.577,3.885l5.764,-5.396Z" style="fill:#178eb3;fill-rule:nonzero;"/></g></g></svg>