<?xml version="1.0" encoding="UTF-8" standalone="no"?><!DOCTYPE svg PUBLIC "-//W3C//DTD SVG 1.1//EN" "http://www.w3.org/Graphics/SVG/1.1/DTD/svg11.dtd"><svg width="100%" height="100%" viewBox="0 0 81 68" version="1.1" xmlns="http://www.w3.org/2000/svg" xmlns:xlink="http://www.w3.org/1999/xlink" xml:space="preserve" xmlns:serif="http://www.serif.com/" style="fill-rule:evenodd;clip-rule:evenodd;stroke-linejoin:round;stroke-miterlimit:2;"><g><path d="M31.27,1.346c-3.4,0 -3.44,0.083 -1.54,2.987c1.47,2.242 1.87,5.572 1.59,13.361l-0.36,10.375l-6.26,1.705c-3.44,0.937 -10.19,2.436 -15,3.332l-8.75,1.629l4.71,2.298c4.64,2.267 4.83,2.26 13.75,-0.607c4.97,-1.599 9.66,-3.142 10.42,-3.43c0.91,-0.343 1.68,3.378 2.24,10.842c1.19,15.804 2.35,17.697 13.26,21.643c2.66,0.961 20.18,1.029 24.85,0.096c4.9,-0.979 5.03,-3.452 0.29,-5.414c-2.67,-1.108 -4.87,-1.15 -8.44,-0.16c-9.08,2.523 -20.73,1.126 -23.22,-2.787c-1.1,-1.735 -1.28,-20.251 -0.23,-24.162c0.58,-2.141 3.01,-3.324 12.23,-5.938c17.47,-4.959 17.73,-4.734 7.55,6.524c-3.85,4.242 -6.6,7.712 -6.13,7.712c2.03,-0 27.95,-16.996 27.65,-18.127c-0.18,-0.687 -2.33,-2.337 -4.76,-3.666l-4.43,-2.416l-31.93,8.926l0.84,-10.375c0.8,-9.841 0.7,-10.478 -1.99,-12.361c-1.56,-1.092 -4.41,-1.986 -6.34,-1.986l-0,-0.001Z" style="fill-rule:nonzero;"/></g></svg>