<?xml version="1.0" encoding="UTF-8" standalone="no"?><!DOCTYPE svg PUBLIC "-//W3C//DTD SVG 1.1//EN" "http://www.w3.org/Graphics/SVG/1.1/DTD/svg11.dtd"><svg width="100%" height="100%" viewBox="0 0 73 93" version="1.1" xmlns="http://www.w3.org/2000/svg" xmlns:xlink="http://www.w3.org/1999/xlink" xml:space="preserve" xmlns:serif="http://www.serif.com/" style="fill-rule:evenodd;clip-rule:evenodd;stroke-linejoin:round;stroke-miterlimit:2;"><g><g><path d="M43.334,88.394l-2.8,-4.529l-8.614,0.616c-6.451,0.462 -9.064,1.205 -10.427,2.967c-1.775,2.293 -1.863,2.29 -3.763,-0.15c-1.488,-1.929 -1.85,-5.07 -1.563,-13.752c0.213,-6.189 -0.05,-12.94 -0.587,-15.003l-0.975,-3.75l7.851,-0.13c4.313,-0.072 11.664,-1.108 16.327,-2.303l8.477,-2.173l4.338,3.309c3.588,2.734 4.126,3.72 3.088,5.66c-0.688,1.291 -1.263,8.167 -1.263,15.28c0,9.68 -0.487,13.63 -1.938,15.71c-2.75,3.929 -4.925,3.462 -8.151,-1.752Zm-5.538,-9.63c1.375,0.065 3.775,0.531 5.313,1.034c2.788,0.904 2.813,0.773 2.813,-10.408c0,-6.228 -0.412,-11.567 -0.938,-11.863c-0.512,-0.296 -5.438,0.094 -10.939,0.868c-9.964,1.401 -10.001,1.421 -10.376,5.35l-0.388,3.944l4.763,-1.106c7.414,-1.722 12.865,-1.419 13.702,0.765c1.051,2.751 0.651,2.918 -9.326,3.846l-9.002,0.835l0,8.345l5.939,-0.864c3.275,-0.476 7.064,-0.811 8.439,-0.746Zm-25.904,-29.285c-1.688,-1.925 -10.977,-23.738 -10.977,-25.784c-0,-0.43 2.613,-0.782 5.801,-0.782c3.188,-0 17.278,-1.453 31.305,-3.23l25.529,-3.229l4.313,3.293c4.888,3.731 5.238,5.097 2.125,8.469c-1.2,1.306 -4.15,6.132 -6.563,10.725l-4.388,8.351l-6.389,-0.413c-8.501,-0.549 -35.993,2.19 -36.518,3.641c-0.638,1.745 -2.113,1.381 -4.238,-1.041Zm17.777,-8.751c0,-3.199 -0.35,-3.438 -5.188,-3.438c-7.101,-0 -7.639,-2.668 -0.825,-4.008c4.626,-0.907 5.451,-1.545 5.788,-4.463c0.451,-3.911 0.3,-3.941 -10.439,-1.963l-7.838,1.444l1.812,6.37c1,3.504 2.051,7.073 2.338,7.933c0.338,0.999 3.013,1.563 7.439,1.563c6.713,0 6.913,-0.102 6.913,-3.438Zm20.929,0.331c3.838,-0.017 4.2,-0.427 6.563,-7.45c3.626,-10.711 3.626,-10.696 -4.825,-10.696c-11.74,-0 -15.165,1.04 -15.165,4.608c-0,2.885 0.287,3.003 5.426,2.233c4.288,-0.643 5.9,-0.345 7.651,1.416c2.138,2.139 2.138,2.267 -0.113,3.149c-1.287,0.506 -4.113,0.959 -6.301,1.008c-5.938,0.131 -7.914,1.284 -7.914,4.612c0,2.849 0.276,2.958 5.314,2.073c2.925,-0.513 7.138,-0.941 9.364,-0.953Zm-31.443,-27.497c-5.226,-5.228 -5.776,-8.152 -1.525,-8.152c4.613,-0 9.752,4.693 9.302,8.487c-0.576,4.76 -2.776,4.665 -7.777,-0.335Zm16.765,2.917c0,-0.789 2.538,-4.141 5.626,-7.449c3.101,-3.308 5.626,-6.601 5.626,-7.317c0,-1.819 3.938,-1.558 6.564,0.436c4.013,3.041 2.413,5.462 -7.026,10.675c-10.027,5.535 -10.79,5.792 -10.79,3.655Z" style="fill:#004459;fill-rule:nonzero;"/><path d="M18.98,13.485c-5.226,-5.228 -5.776,-8.153 -1.525,-8.153c4.613,0 9.752,4.694 9.302,8.488c-0.563,4.759 -2.776,4.664 -7.777,-0.335Zm16.765,2.917c0,-0.789 2.538,-4.14 5.626,-7.448c3.101,-3.308 5.626,-6.602 5.626,-7.319c0,-1.819 3.938,-1.557 6.564,0.437c4.013,3.042 2.413,5.462 -7.026,10.674c-10.027,5.536 -10.79,5.792 -10.79,3.656Z" style="fill:#178eb3;fill-rule:nonzero;"/></g></g></svg>