<?xml version="1.0" encoding="UTF-8" standalone="no"?><!DOCTYPE svg PUBLIC "-//W3C//DTD SVG 1.1//EN" "http://www.w3.org/Graphics/SVG/1.1/DTD/svg11.dtd"><svg width="100%" height="100%" viewBox="0 0 70 102" version="1.1" xmlns="http://www.w3.org/2000/svg" xmlns:xlink="http://www.w3.org/1999/xlink" xml:space="preserve" xmlns:serif="http://www.serif.com/" style="fill-rule:evenodd;clip-rule:evenodd;stroke-linejoin:round;stroke-miterlimit:2;"><g><g><path d="M5.832,100.204c0.275,-0.272 5.013,-3.835 10.514,-7.919c13.865,-10.285 22.979,-19.05 20.766,-19.955c-0.963,-0.392 -3.863,-2.637 -6.476,-4.988l-4.726,-4.276l-15.815,7.73l7.501,-6.547c11.389,-9.94 21.879,-21.376 21.879,-23.849c-0,-1.217 0.762,-2.211 1.687,-2.211c2.001,0 5.814,3.961 5.814,6.036c-0,1.879 3.188,1.782 8.939,-0.273c4.688,-1.676 6.876,-1.163 11.277,2.639c1.912,1.649 1.475,2.606 -5.126,11.389c-7.727,10.265 -20.279,22.647 -29.155,28.756c-7.839,5.393 -30.392,16.61 -27.079,13.47l-0,-0.002Zm46.27,-43.778c2.688,-4.066 4.65,-7.631 4.363,-7.924c-0.3,-0.292 -3.613,0.108 -7.364,0.888c-4.801,0.996 -8.939,3.053 -13.915,6.916l-7.088,5.498l4.45,0.836c3.101,0.581 5.114,1.954 6.627,4.514l2.175,3.681l2.925,-3.51c1.613,-1.929 5.139,-6.835 7.827,-10.9l-0,0.001Zm-51.371,-0.026c-0,-0.238 3.788,-2.808 8.439,-5.714c4.638,-2.905 11.602,-7.842 15.477,-10.97l7.039,-5.689l-11.427,-9.051l-7.976,4.232c-9.052,4.806 -11.427,4.713 -4.388,-0.171c2.587,-1.799 8.863,-7.46 13.952,-12.58c7.138,-7.195 9.076,-9.901 8.551,-11.917c-0.512,-1.944 -0.1,-2.608 1.613,-2.608c2.875,0 7.564,5.799 6.638,8.205c-0.85,2.229 -1.475,2.278 9.327,-0.716c8.314,-2.305 9.314,-2.35 12.052,-0.55c1.65,1.079 3.263,2.654 3.588,3.499c0.675,1.754 -22.366,22.125 -33.555,29.68c-10.677,7.197 -29.33,16.328 -29.33,14.35Zm43.057,-34.607c3.888,-4.204 6.826,-7.895 6.526,-8.201c-0.313,-0.305 -3.813,0.293 -7.789,1.331c-3.976,1.039 -7.701,1.6 -8.264,1.249c-0.575,-0.351 -3.625,1.218 -6.776,3.487l-5.751,4.124l5.076,1.264c2.788,0.695 5.776,1.967 6.626,2.827c0.85,0.859 1.938,1.563 2.413,1.563c0.475,-0 4.051,-3.441 7.939,-7.644Z" style="fill:#004459;fill-rule:nonzero;"/><path d="M0.581,56.322c-0,-0.236 3.8,-2.808 8.439,-5.713c4.638,-2.906 11.614,-7.843 15.477,-10.971l7.039,-5.687l-11.427,-9.053l-7.964,4.234c-9.051,4.805 -11.427,4.712 -4.401,-0.173c2.601,-1.799 8.877,-7.46 13.953,-12.579c7.138,-7.194 9.089,-9.901 8.551,-11.917c-0.5,-1.944 -0.1,-2.608 1.613,-2.608c2.875,-0 7.576,5.798 6.651,8.206c-0.863,2.228 -1.488,2.277 9.314,-0.716c8.326,-2.307 9.314,-2.352 12.064,-0.55c1.651,1.079 3.263,2.653 3.588,3.499c0.663,1.753 -22.366,22.125 -33.567,29.68c-10.665,7.197 -29.33,16.327 -29.33,14.349l-0,-0.001Zm43.069,-34.607c3.888,-4.204 6.826,-7.893 6.514,-8.2c-0.3,-0.306 -3.813,0.293 -7.789,1.331c-3.976,1.039 -7.689,1.6 -8.264,1.249c-0.562,-0.352 -3.613,1.217 -6.776,3.486l-5.738,4.126l5.076,1.263c2.787,0.695 5.763,1.966 6.613,2.826c0.85,0.859 1.938,1.563 2.413,1.563c0.475,0 4.051,-3.44 7.951,-7.644Z" style="fill:#178eb3;fill-rule:nonzero;"/></g></g></svg>