<?xml version="1.0" encoding="UTF-8" standalone="no"?><!DOCTYPE svg PUBLIC "-//W3C//DTD SVG 1.1//EN" "http://www.w3.org/Graphics/SVG/1.1/DTD/svg11.dtd"><svg width="100%" height="100%" viewBox="0 0 75 77" version="1.1" xmlns="http://www.w3.org/2000/svg" xmlns:xlink="http://www.w3.org/1999/xlink" xml:space="preserve" xmlns:serif="http://www.serif.com/" style="fill-rule:evenodd;clip-rule:evenodd;stroke-linejoin:round;stroke-miterlimit:2;"><g><path d="M35.14,0.544c-3.35,-0.935 -4.79,1.025 -2.28,3.109c1.36,1.128 1.86,4.191 1.86,11.338l0,9.791l-4.06,0.697c-2.24,0.384 -9.61,1.503 -16.39,2.486c-6.78,0.984 -12.6,2.056 -12.92,2.383c-0.33,0.328 0.63,1.252 2.13,2.055c2.52,1.35 13.38,0.126 28.56,-3.221c2.91,-0.642 2.93,-0.566 2.1,7.223c-1.67,15.688 -4.73,24.543 -12.61,36.6l-2.44,3.726l4.55,-3.453c9.3,-7.062 15.5,-19.429 17.59,-35.084l1.4,-10.475l8.24,-0.777c4.53,-0.428 11.79,-0.782 16.14,-0.787c6.85,-0.008 7.85,-0.301 7.48,-2.197c-0.24,-1.259 -2.48,-2.865 -5.28,-3.782c-4.06,-1.328 -5.72,-1.287 -9.99,0.239c-2.81,1.006 -7.88,2.191 -11.25,2.634l-6.12,0.807l0.82,-9.89c0.9,-10.725 0.66,-11.139 -7.53,-13.422Z" style="fill-rule:nonzero;"/></g></svg>