<?xml version="1.0" encoding="UTF-8" standalone="no"?><!DOCTYPE svg PUBLIC "-//W3C//DTD SVG 1.1//EN" "http://www.w3.org/Graphics/SVG/1.1/DTD/svg11.dtd"><svg width="100%" height="100%" viewBox="0 0 91 88" version="1.1" xmlns="http://www.w3.org/2000/svg" xmlns:xlink="http://www.w3.org/1999/xlink" xml:space="preserve" xmlns:serif="http://www.serif.com/" style="fill-rule:evenodd;clip-rule:evenodd;stroke-linejoin:round;stroke-miterlimit:2;"><g><g><path d="M21.041,85.655c-2.65,-3.317 -2.825,-7.377 -0.825,-19.141c1.926,-11.273 1.888,-23.582 -0.075,-26.765c-0.437,-0.702 -4.288,2.378 -8.564,6.843c-7.476,7.82 -10.839,9.858 -10.839,6.558c0,-0.86 3.801,-6.626 8.452,-12.815c11.276,-15.028 18.252,-28.426 18.002,-34.623c-0.15,-4.039 0.213,-4.759 2.401,-4.759c2.663,-0 10.426,6.776 9.689,8.445c-0.225,0.512 -3.701,5.806 -7.714,11.764l-7.314,10.832l2.501,3.545c2.375,3.361 2.45,4.685 1.5,25.424c-0.538,12.034 -1.388,22.864 -1.888,24.067c-1.05,2.557 -3.538,2.85 -5.326,0.625Zm12.527,-19.853c-3.138,-3.179 -1.575,-4.515 6.251,-5.357c4.289,-0.463 15.04,-1.989 23.867,-3.392c8.839,-1.403 17.353,-2.229 18.915,-1.837c4.288,1.077 9.027,5.336 7.539,6.769c-0.688,0.66 -10.814,1.863 -22.504,2.673c-11.689,0.81 -23.791,1.756 -26.879,2.103c-3.651,0.408 -6.176,0.072 -7.189,-0.959Zm9.002,-32.867c-3.263,-2.385 -2.088,-3.22 7.189,-5.114c4.338,-0.884 11.001,-2.319 14.802,-3.188c8.264,-1.886 13.702,-0.897 13.702,2.486c0,1.954 -1.963,2.82 -11.339,4.977c-13.252,3.052 -20.966,3.317 -24.354,0.839Z" style="fill:#004459;fill-rule:nonzero;"/><path d="M33.431,65.724c-3.126,-3.18 -1.563,-4.515 6.251,-5.358c4.301,-0.463 15.04,-1.989 23.879,-3.392c8.839,-1.403 17.34,-2.228 18.903,-1.835c4.288,1.075 9.039,5.336 7.538,6.768c-0.687,0.659 -10.814,1.862 -22.503,2.672c-11.69,0.81 -23.779,1.757 -26.879,2.103c-3.651,0.409 -6.176,0.072 -7.189,-0.958Zm9.001,-32.866c-3.263,-2.387 -2.087,-3.222 7.189,-5.115c4.338,-0.885 11.002,-2.32 14.815,-3.189c8.251,-1.884 13.702,-0.896 13.702,2.487c0,1.954 -1.975,2.819 -11.352,4.977c-13.252,3.051 -20.966,3.318 -24.354,0.84Z" style="fill:#178eb3;fill-rule:nonzero;"/></g></g></svg>