<?xml version="1.0" encoding="UTF-8" standalone="no"?><!DOCTYPE svg PUBLIC "-//W3C//DTD SVG 1.1//EN" "http://www.w3.org/Graphics/SVG/1.1/DTD/svg11.dtd"><svg width="100%" height="100%" viewBox="0 0 88 44" version="1.1" xmlns="http://www.w3.org/2000/svg" xmlns:xlink="http://www.w3.org/1999/xlink" xml:space="preserve" xmlns:serif="http://www.serif.com/" style="fill-rule:evenodd;clip-rule:evenodd;stroke-linejoin:round;stroke-miterlimit:2;"><g><path d="M31.07,0.918c-1.07,0 -6.44,2.63 -11.92,5.842c-5.49,3.22 -11.67,6.2 -13.73,6.63l-3.75,0.78l3.62,3.38c1.99,1.85 4.6,3.37 5.79,3.37c1.19,-0 4.69,-2.96 7.79,-6.58c3.09,-3.62 7.1,-7.38 8.92,-8.349c4.36,-2.333 8.1,-0.552 21.39,10.189c5.5,4.44 15.52,12.39 22.27,17.66c6.75,5.27 12.81,9.59 13.48,9.59c2.41,0 2.73,-4.17 0.62,-8.07c-1.42,-2.65 -4.96,-5.51 -10.51,-8.51c-4.6,-2.49 -15.93,-9.34 -25.19,-15.23c-9.26,-5.885 -17.71,-10.702 -18.78,-10.702Z" style="fill-rule:nonzero;"/></g></svg>