<?xml version="1.0" encoding="UTF-8" standalone="no"?><!DOCTYPE svg PUBLIC "-//W3C//DTD SVG 1.1//EN" "http://www.w3.org/Graphics/SVG/1.1/DTD/svg11.dtd"><svg width="100%" height="100%" viewBox="0 0 49 81" version="1.1" xmlns="http://www.w3.org/2000/svg" xmlns:xlink="http://www.w3.org/1999/xlink" xml:space="preserve" xmlns:serif="http://www.serif.com/" style="fill-rule:evenodd;clip-rule:evenodd;stroke-linejoin:round;stroke-miterlimit:2;"><g><path d="M14.2,1.96c-0.31,0.3 4.65,3.71 11,7.59c6.36,3.87 12.27,7.06 13.12,7.09c2.93,0.1 1.58,-4.45 -2.5,-8.37c-3.19,-3.08 -5.88,-4.24 -12.57,-5.39c-4.67,-0.81 -8.75,-1.22 -9.05,-0.92Zm-0.26,26.3c-0.51,0.45 1.32,1.8 5.3,4.2c4.11,2.48 8.83,5.57 10.48,6.87c3.79,2.99 6.42,3.03 6.42,0.1c0,-3.73 -6.39,-8.46 -13.54,-10.03c-5.33,-1.16 -8.16,-1.6 -8.66,-1.14Zm-12.21,27.46c-0.34,0.34 2.63,1.85 6.6,3.37c9.79,3.74 21.1,10.19 28.54,16.27c6.7,5.47 9.71,5.97 10.32,1.72c0.69,-4.87 -8.61,-12.41 -19.6,-15.87c-10.79,-3.41 -24.94,-6.41 -25.86,-5.49Z" style="fill-rule:nonzero;"/></g></svg>