<?xml version="1.0" encoding="UTF-8" standalone="no"?><!DOCTYPE svg PUBLIC "-//W3C//DTD SVG 1.1//EN" "http://www.w3.org/Graphics/SVG/1.1/DTD/svg11.dtd"><svg width="100%" height="100%" viewBox="0 0 90 100" version="1.1" xmlns="http://www.w3.org/2000/svg" xmlns:xlink="http://www.w3.org/1999/xlink" xml:space="preserve" xmlns:serif="http://www.serif.com/" style="fill-rule:evenodd;clip-rule:evenodd;stroke-linejoin:round;stroke-miterlimit:2;"><g><g><path d="M42.83,97.26c-0.413,-1.58 -0.776,-7.092 -0.788,-12.249c-0.013,-5.157 -0.388,-12.366 -0.825,-16.019l-0.8,-6.642l-5.139,0.845c-2.813,0.465 -10.389,2.173 -16.827,3.794c-10.214,2.57 -12.127,2.732 -14.928,1.263c-3.125,-1.636 -2.95,-1.747 5.614,-3.697c4.863,-1.105 13.977,-2.979 20.24,-4.166l11.402,-2.154l0,-6.761c0,-6.411 -0.137,-6.72 -2.813,-5.973c-1.55,0.433 -5.338,1.131 -8.439,1.552c-4.1,0.557 -6.976,2.009 -10.626,5.365c-2.751,2.532 -6.089,5.415 -7.426,6.409c-2.138,1.587 -2.301,1.58 -1.338,-0.071c0.6,-1.031 2.325,-3.563 3.85,-5.625c4.339,-5.903 8.039,-13.976 8.039,-17.538c0,-2.797 0.4,-3.139 2.813,-2.416c4.913,1.472 6.751,3.996 4.976,6.829c-2.175,3.488 -2.113,3.524 3.776,2.384c2.925,-0.565 5.788,-1.053 6.376,-1.083c1.187,-0.06 0.5,-9.545 -0.926,-12.709c-0.75,-1.672 -0.287,-1.918 2.601,-1.399c5.313,0.951 7.539,3.469 6.914,7.801c-0.638,4.297 1.387,4.816 7.851,2.018c3.85,-1.663 10.626,-0.493 10.626,1.834c0,1.203 -2.337,1.862 -11.876,3.349l-6.251,0.975l-0.375,6.54c-0.288,4.93 0.05,6.54 1.362,6.54c5.064,0 26.392,-3.861 27.805,-5.033c0.987,-0.812 3.463,-1.027 6.126,-0.528c3.825,0.719 4.463,1.325 4.463,4.26l-0,3.421l-18.128,0.858c-9.977,0.471 -18.966,1.174 -19.978,1.562c-1.475,0.567 -1.901,4.368 -2.176,19.633c-0.3,16.285 -0.625,18.983 -2.375,19.317c-1.238,0.238 -2.325,-0.721 -2.788,-2.486l-0.012,0Zm-25.717,-66.841c-1.4,-0.987 -3.188,-2.974 -3.963,-4.414c-1.263,-2.373 -1.125,-2.548 1.513,-1.857c1.612,0.419 4.113,0.463 5.575,0.098c3.589,-0.9 13.128,-16.83 12.19,-20.373c-0.988,-3.79 3.388,-3.465 7.139,0.529l2.963,3.154l-7.439,7.605c-4.563,4.678 -6.464,7.331 -4.926,6.893c1.375,-0.391 5.313,-1.32 8.751,-2.064c3.439,-0.744 8.377,-1.914 10.965,-2.603c4.538,-1.202 4.65,-1.354 2.813,-3.973c-1.05,-1.496 -1.901,-3.099 -1.901,-3.56c0,-1.027 9.439,1.006 12.652,2.725c4.676,2.504 7.664,12.422 3.726,12.422c-0.65,0 -2.863,-1.406 -4.901,-3.125c-2.038,-1.719 -4.588,-3.126 -5.651,-3.126c-1.062,0 -9.801,3.029 -19.428,6.732c-15.852,6.096 -17.753,6.564 -20.078,4.937Z" style="fill:#004459;fill-rule:nonzero;"/><path d="M17,30.341c-1.412,-0.988 -3.188,-2.975 -3.963,-4.415c-1.262,-2.371 -1.125,-2.548 1.513,-1.856c1.613,0.42 4.113,0.464 5.576,0.097c3.576,-0.9 13.115,-16.83 12.189,-20.373c-0.987,-3.789 3.388,-3.464 7.139,0.529l2.963,3.154l-7.439,7.606c-4.563,4.677 -6.463,7.33 -4.925,6.893c1.375,-0.392 5.313,-1.321 8.751,-2.064c3.438,-0.743 8.364,-1.915 10.964,-2.603c4.538,-1.203 4.651,-1.354 2.813,-3.972c-1.05,-1.498 -1.9,-3.101 -1.9,-3.562c-0,-1.027 9.439,1.008 12.652,2.725c4.676,2.506 7.664,12.422 3.725,12.422c-0.65,0 -2.862,-1.406 -4.9,-3.125c-2.051,-1.719 -4.589,-3.126 -5.651,-3.126c-1.063,0 -9.802,3.031 -19.441,6.734c-15.84,6.095 -17.74,6.562 -20.066,4.936Z" style="fill:#178eb3;fill-rule:nonzero;"/></g></g></svg>