<?xml version="1.0" encoding="UTF-8" standalone="no"?><!DOCTYPE svg PUBLIC "-//W3C//DTD SVG 1.1//EN" "http://www.w3.org/Graphics/SVG/1.1/DTD/svg11.dtd"><svg width="100%" height="100%" viewBox="0 0 76 68" version="1.1" xmlns="http://www.w3.org/2000/svg" xmlns:xlink="http://www.w3.org/1999/xlink" xml:space="preserve" xmlns:serif="http://www.serif.com/" style="fill-rule:evenodd;clip-rule:evenodd;stroke-linejoin:round;stroke-miterlimit:2;"><g><path d="M51.83,1.68c-2.11,-0.36 -4.61,-0.17 -6.17,0.77c-2.94,1.77 -20.48,5.49 -25.92,5.49c-3.21,0 -3.54,0.28 -2.21,1.88c0.89,1.08 3.62,1.87 6.43,1.87c5.77,0 7.32,2.66 7.32,12.56c0,6.89 1.38,6.02 -14.77,9.32c-5.03,1.03 -10.66,1.89 -12.51,1.92c-3.22,0.03 -3.26,0.11 -0.93,1.87c3.13,2.36 6.66,2.27 18.41,-0.52l9.57,-2.27l0.43,12.28c0.47,13.81 2.04,16.73 9.96,18.6c6.23,1.47 20.43,1.44 24.35,-0.05c3.17,-1.21 3.27,-1.46 1.39,-3.34c-2.16,-2.16 -5.85,-2.36 -17.28,-0.95c-11.58,1.44 -12.37,0.48 -12.37,-14.93l0,-12.93l9.43,-1.4c5.18,-0.78 11.23,-1.41 13.44,-1.42c7.21,-0.03 13.39,-1.51 13.39,-3.23c-0,-2.28 -9.34,-4.7 -12.22,-3.16c-1.22,0.66 -5.87,1.84 -10.32,2.63c-4.45,0.79 -9.36,1.75 -10.91,2.12c-2.65,0.64 -2.81,0.29 -2.81,-6.06c0,-3.97 -0.77,-7.83 -1.88,-9.42c-1.84,-2.63 -1.72,-2.72 5.31,-4.13c12.65,-2.53 14.7,-3.24 14.7,-5.06c-0,-1.2 -1.72,-2.09 -3.83,-2.45l-0,0.01Z" style="fill-rule:nonzero;"/></g></svg>