<?xml version="1.0" encoding="UTF-8" standalone="no"?><!DOCTYPE svg PUBLIC "-//W3C//DTD SVG 1.1//EN" "http://www.w3.org/Graphics/SVG/1.1/DTD/svg11.dtd"><svg width="100%" height="100%" viewBox="0 0 82 80" version="1.1" xmlns="http://www.w3.org/2000/svg" xmlns:xlink="http://www.w3.org/1999/xlink" xml:space="preserve" xmlns:serif="http://www.serif.com/" style="fill-rule:evenodd;clip-rule:evenodd;stroke-linejoin:round;stroke-miterlimit:2;"><g><path d="M24.22,1.83c-2.33,-0.28 -4.35,-0.1 -4.35,0.76c-0,0.79 0.81,1.76 1.81,2.15c1.87,0.71 4.25,6.34 7.38,17.43l1.79,6.34l-11.7,3.98c-6.43,2.19 -13.26,3.99 -15.18,4.02c-3.38,0.03 -3.41,0.09 -0.98,1.92c4.86,3.68 7.92,3.48 18.13,-1.19c5.45,-2.49 10.13,-4.52 10.42,-4.52c0.51,0 8.92,30.15 10.14,36.36c0.35,1.78 1.81,4.73 3.25,6.56c1.44,1.84 3.16,3.33 3.82,3.33c2.99,0 2.34,-5.18 -2.65,-21.05c-2.95,-9.39 -6.07,-19.4 -6.94,-22.23l-1.57,-5.15l13.08,-5.16c13.09,-5.17 16.7,-6.06 16.7,-4.14c-0,0.57 -2.83,5.14 -6.29,10.17c-3.46,5.02 -6.12,9.31 -5.91,9.52c0.21,0.22 5.35,-3.52 11.41,-8.29c6.06,-4.77 11.53,-8.68 12.16,-8.68c3.02,0 0.56,-3.98 -4.18,-6.75l-5.31,-3.11l-13.75,5.41c-21.08,8.3 -18.7,8.71 -21.29,-3.65c-1.23,-5.87 -2.94,-11.26 -3.8,-11.97c-1.22,-1.01 -3.86,-1.77 -6.19,-2.06Z" style="fill-rule:nonzero;"/></g></svg>