<?xml version="1.0" encoding="UTF-8" standalone="no"?><!DOCTYPE svg PUBLIC "-//W3C//DTD SVG 1.1//EN" "http://www.w3.org/Graphics/SVG/1.1/DTD/svg11.dtd"><svg width="100%" height="100%" viewBox="0 0 73 83" version="1.1" xmlns="http://www.w3.org/2000/svg" xmlns:xlink="http://www.w3.org/1999/xlink" xml:space="preserve" xmlns:serif="http://www.serif.com/" style="fill-rule:evenodd;clip-rule:evenodd;stroke-linejoin:round;stroke-miterlimit:2;"><g><g><path d="M53.432,76.47l-2.575,-5.314l-6.476,0.341c-13.715,0.726 -26.905,3.01 -27.592,4.776c-1.15,3.013 -4.026,1.936 -6.126,-2.304c-1.113,-2.235 -2.551,-9.689 -3.213,-16.565c-0.65,-6.876 -2.125,-15.034 -3.263,-18.128c-3.926,-10.678 -4.613,-9.816 7.214,-9.079c5.825,0.364 12.627,0.279 15.114,-0.187l4.526,-0.849l-0.025,-7.758c-0.025,-5.043 -0.912,-9.69 -2.538,-13.286c-2.975,-6.542 -1.95,-8.255 4.213,-7.097c6.789,1.273 7.414,2.837 6.401,15.878l-0.9,11.509l2.988,-0.792c1.638,-0.435 7.051,-1.699 12.015,-2.809c8.964,-2.005 9.051,-1.999 14.377,0.964c5.888,3.282 6.113,4.261 3.063,13.505c-1.025,3.094 -2.75,11.434 -3.838,18.533c-2.163,14.198 -5.764,23.974 -8.827,23.974c-1.075,-0 -3.113,-2.391 -4.538,-5.314l0,0.002Zm-25.204,-8.426c2.576,-0.012 2.813,-0.593 2.813,-6.989c0,-6.972 0,-6.975 -3.463,-6.215c-2.138,0.47 -4.401,0.07 -5.938,-1.049c-3.138,-2.297 -2.101,-3.299 4.3,-4.158l5.101,-0.685l0,-14.13l-8.751,1.21c-10.189,1.409 -9.689,-0.046 -7.314,20.838l1.45,12.68l4.489,-0.744c2.475,-0.409 5.763,-0.75 7.313,-0.758Zm29.405,-7.029c0.55,-2.675 1.5,-9.643 2.113,-15.488c1.45,-13.943 1.087,-14.326 -12.327,-13.138l-10.127,0.896l0,14.117l6.564,0c4.988,0 6.563,0.449 6.563,1.863c0,1.283 -2.05,2.191 -6.563,2.909l-6.564,1.044l0,12.937l19.328,-0.28l1.013,-4.86Z" style="fill:#004459;fill-rule:nonzero;"/><path d="M10.563,74.323c-2.913,-4.928 -2.813,-5.12 2.538,-5.131c2.588,-0.006 7.651,-0.366 11.252,-0.8l6.563,-0.788l0,-6.801c0,-6.781 -0.012,-6.8 -3.463,-6.041c-3.513,0.773 -9.226,-2.034 -7.551,-3.712c1.063,-1.062 15.84,-2.87 16.665,-2.04c0.338,0.333 0.6,4.31 0.6,8.837l0,8.23l11.79,-0.244c9.063,-0.188 12.126,0.18 13.302,1.593c0.837,1.01 1.2,2.164 0.8,2.563c-0.4,0.398 -6.251,0.961 -12.99,1.248c-18.415,0.787 -32.605,2.893 -33.393,4.959c-1.1,2.853 -3.813,2.021 -6.113,-1.873Z" style="fill:#178eb3;fill-rule:nonzero;"/></g></g></svg>