<?xml version="1.0" encoding="UTF-8" standalone="no"?><!DOCTYPE svg PUBLIC "-//W3C//DTD SVG 1.1//EN" "http://www.w3.org/Graphics/SVG/1.1/DTD/svg11.dtd"><svg width="100%" height="100%" viewBox="0 0 41 80" version="1.1" xmlns="http://www.w3.org/2000/svg" xmlns:xlink="http://www.w3.org/1999/xlink" xml:space="preserve" xmlns:serif="http://www.serif.com/" style="fill-rule:evenodd;clip-rule:evenodd;stroke-linejoin:round;stroke-miterlimit:2;"><g><path d="M27.22,0.38l2.81,3.07c2.6,2.83 2.81,4.22 2.76,17.99c-0.11,28.92 -2.76,38.9 -13.86,52.12c-2.74,3.27 -4.64,5.94 -4.21,5.94c1.61,0 14.83,-13.32 17.68,-17.82c4.61,-7.26 6.53,-16.94 7.45,-37.6c0.95,-21.35 0.86,-21.61 -7.83,-22.96l-4.8,-0.74Zm-26.25,4.36l0.2,18.67c0.14,12.77 0.69,19.27 1.75,20.55c3.45,4.15 4.3,0.96 4.65,-17.34l0.34,-18.29l-3.47,-1.79l-3.47,-1.8Z" style="fill-rule:nonzero;"/></g></svg>