<?xml version="1.0" encoding="UTF-8" standalone="no"?><!DOCTYPE svg PUBLIC "-//W3C//DTD SVG 1.1//EN" "http://www.w3.org/Graphics/SVG/1.1/DTD/svg11.dtd"><svg width="100%" height="100%" viewBox="0 0 84 91" version="1.1" xmlns="http://www.w3.org/2000/svg" xmlns:xlink="http://www.w3.org/1999/xlink" xml:space="preserve" xmlns:serif="http://www.serif.com/" style="fill-rule:evenodd;clip-rule:evenodd;stroke-linejoin:round;stroke-miterlimit:2;"><g><g><path d="M70.575,86.978c-1.087,-2.104 -4,-6.057 -6.463,-8.785c-2.463,-2.726 -4.163,-5.266 -3.788,-5.642c0.375,-0.375 2.813,-0.092 5.426,0.629c3.588,0.989 4.988,0.935 5.726,-0.221c0.537,-0.844 0.987,-15.204 0.987,-31.913c0.025,-25.31 -0.3,-31.019 -1.963,-34.212c-2.637,-5.112 -0.95,-6.794 4.901,-4.867c6.564,2.167 7.301,3.63 5.789,11.455c-0.713,3.72 -1.213,19.917 -1.088,36.124c0.213,30.031 -0.275,35.236 -3.601,39.069c-2.638,3.042 -3.65,2.763 -5.926,-1.638l0,0.001Zm-43.944,-5.708c-1.05,-2.744 -1.025,-6.479 0.175,-22.347c0.925,-12.155 0.888,-12.415 -1.25,-9.377c-6.501,9.248 -18.466,18.753 -23.604,18.753c-1.963,0 -0.525,-2.043 6.351,-9.064c8.476,-8.641 16.678,-18.98 16.678,-21.016c-0,-0.521 -2.951,-0.162 -6.564,0.799c-8.326,2.218 -11.114,2.216 -14.127,-0.015c-3.888,-2.86 -1,-4.252 12.289,-5.929c12.04,-1.521 12.152,-1.571 12.152,-4.952c0,-1.88 -0.525,-4.815 -1.175,-6.523c-1.175,-3.073 -1.238,-3.087 -7.076,-1.331c-11.864,3.572 -10.739,0.952 2.65,-6.152c5.701,-3.022 10.515,-6.483 11.215,-8.062c1.475,-3.312 2.925,-3.425 8.676,-0.685c4.613,2.203 6.714,5.221 4.138,5.956c-0.85,0.241 -4.25,1.405 -7.563,2.584c-5.389,1.923 -5.826,2.359 -4.251,4.202c1.15,1.35 1.438,3.128 0.825,5.181c-1.825,6.122 -1.563,6.462 4.238,5.591c4.288,-0.643 5.901,-0.345 7.664,1.416c2.138,2.139 2.125,2.267 -0.113,3.15c-1.287,0.505 -4.463,0.959 -7.063,1.007c-3.876,0.073 -4.939,0.662 -5.939,3.295c-1.8,4.724 -1.6,5.157 2.763,6.028c5.389,1.079 8.514,4.182 8.514,8.461c0,4.949 -3.088,4.61 -8.289,-0.907l-4.213,-4.465l-0.062,12.904c-0.1,16.467 -1.176,22.749 -4.014,23.296c-1.212,0.232 -2.55,-0.565 -3.025,-1.798Zm28.742,-24.534c-0.563,-0.859 -1.013,-9.016 -1.013,-18.128c0,-17.46 0.275,-18.181 5.714,-15.27c2.25,1.208 2.363,2.289 1.625,15.94c-0.775,14.209 -1.838,19.021 -4.188,19.021c-0.613,-0 -1.588,-0.703 -2.138,-1.563Z" style="fill:#004459;fill-rule:nonzero;"/><path d="M70.463,86.901c-1.088,-2.104 -4.001,-6.056 -6.464,-8.784c-2.462,-2.728 -4.175,-5.267 -3.8,-5.642c0.387,-0.376 2.825,-0.094 5.438,0.627c3.588,0.991 4.988,0.936 5.726,-0.221c0.538,-0.842 0.975,-15.204 0.988,-31.912c0.025,-25.311 -0.313,-31.019 -1.963,-34.212c-2.638,-5.112 -0.95,-6.795 4.901,-4.866c6.563,2.167 7.301,3.628 5.788,11.453c-0.712,3.722 -1.213,19.917 -1.088,36.125c0.213,30.031 -0.275,35.235 -3.6,39.068c-2.638,3.042 -3.651,2.765 -5.926,-1.636Zm-15.202,-30.242c-0.563,-0.859 -1.013,-9.017 -1.013,-18.128c-0,-17.461 0.262,-18.182 5.713,-15.27c2.251,1.207 2.363,2.289 1.626,15.94c-0.776,14.208 -1.838,19.02 -4.189,19.02c-0.612,0 -1.587,-0.702 -2.137,-1.562Z" style="fill:#178eb3;fill-rule:nonzero;"/></g></g></svg>