<?xml version="1.0" encoding="UTF-8" standalone="no"?><!DOCTYPE svg PUBLIC "-//W3C//DTD SVG 1.1//EN" "http://www.w3.org/Graphics/SVG/1.1/DTD/svg11.dtd"><svg width="100%" height="100%" viewBox="0 0 95 86" version="1.1" xmlns="http://www.w3.org/2000/svg" xmlns:xlink="http://www.w3.org/1999/xlink" xml:space="preserve" xmlns:serif="http://www.serif.com/" style="fill-rule:evenodd;clip-rule:evenodd;stroke-linejoin:round;stroke-miterlimit:2;"><g><g><path d="M5.135,82.239c-1.413,-1.546 -2.963,-4.078 -3.426,-5.626c-0.688,-2.264 -0.362,-2.813 1.638,-2.813c1.85,0 4.726,-3.633 10.914,-13.761c4.626,-7.567 8.551,-13.615 8.701,-13.439c0.826,0.9 -12.764,38.448 -13.914,38.45c-0.738,0.001 -2.501,-1.264 -3.913,-2.811Zm66.123,1.392c-5.926,-1.706 -7.727,-6.851 -7.727,-22.014c0,-9.076 -0.512,-12.986 -1.95,-15.042c-1.8,-2.568 -1.775,-2.778 0.35,-2.778c1.263,-0 3.576,0.894 5.126,1.988c2.763,1.929 2.813,2.393 1.988,15.6c-1.038,16.245 -0.475,17.417 8.301,17.417c7.264,0 9.627,-2 10.789,-9.152l0.851,-5.225l2.25,7.501c1.25,4.126 2.275,8.415 2.288,9.533c0.025,3.456 -13.302,4.756 -22.266,2.173l-0,-0.001Zm-45.87,-4.517c4.413,-6.451 8.464,-19.925 7.526,-25.004c-0.875,-4.764 1.163,-5.412 5.651,-1.788c2.613,2.119 2.7,2.614 1.213,7.189c-2.663,8.216 -6.289,14.677 -11.015,19.603c-2.475,2.579 -4.963,4.688 -5.538,4.688c-0.575,-0 0.4,-2.109 2.163,-4.688Zm23.091,2.089c-1.038,-1.932 -1.213,-6.62 -0.588,-15.74c0.651,-9.61 0.476,-13.475 -0.662,-14.858c-2.213,-2.655 -0.525,-3.719 3.213,-2.021l3.163,1.443l-0.35,16.472c-0.363,16.797 -1.6,20.636 -4.776,14.704Zm-15.565,-35.935c-1.775,-1.767 -0.362,-6.196 2.363,-7.436c3.638,-1.663 8.726,-8.144 11.402,-14.521c1.863,-4.466 1.85,-4.688 -0.275,-4.076c-13.29,3.835 -12.927,3.79 -14.853,1.864c-1.675,-1.664 -0.762,-2.13 8.177,-4.169c10.901,-2.49 11.226,-2.898 8.176,-10.207c-1.038,-2.467 -1.875,-4.7 -1.875,-4.96c-0,-0.946 2.675,-0.433 6.851,1.314c4.038,1.685 4.213,2.009 3.138,5.759l-1.138,3.976l5.889,-0.872c3.238,-0.478 6.801,-1.691 7.926,-2.695c2.125,-1.894 7.676,-1.315 10.777,1.123c2.862,2.255 1.625,3.129 -5.626,3.959c-14.003,1.603 -20.316,3.277 -20.316,5.388c-0,1.098 -2,5.63 -4.438,10.072c-2.438,4.441 -3.713,7.799 -2.813,7.463c0.887,-0.338 4.863,-1.553 8.839,-2.701c6.663,-1.928 7.101,-2.28 5.838,-4.652c-1.938,-3.599 -1.113,-3.867 4.788,-1.551c4.063,1.599 5.564,3.075 7.151,7.047c2.901,7.227 0.663,8.884 -4.813,3.578l-4.2,-4.072l-15.165,5.504c-8.339,3.026 -15.453,5.217 -15.803,4.865Zm-24.754,-10.295l-5.263,-5.075l5.626,0.795c5.613,0.794 10.001,4.136 10.001,7.617c0,3.346 -5.151,1.69 -10.364,-3.337Zm6.851,-23.026l-5.863,-5.597l3.963,-0.029c5.676,-0.043 7.751,1.043 9.889,5.159c1.863,3.615 1.513,6.063 -0.875,6.063c-0.688,-0 -3.888,-2.518 -7.114,-5.596Z" style="fill:#004459;fill-rule:nonzero;"/><path d="M71.145,83.554c-5.926,-1.705 -7.726,-6.851 -7.726,-22.013c-0,-9.077 -0.513,-12.986 -1.95,-15.042c-1.801,-2.57 -1.776,-2.778 0.35,-2.778c1.262,-0 3.575,0.893 5.126,1.987c2.762,1.929 2.812,2.393 1.975,15.6c-1.025,16.245 -0.463,17.418 8.314,17.418c7.263,0 9.626,-2.001 10.789,-9.153l0.85,-5.224l2.25,7.501c1.251,4.126 2.276,8.415 2.276,9.533c0.037,3.455 -13.29,4.756 -22.254,2.173l0,-0.002Zm-45.87,-4.517c4.414,-6.452 8.464,-19.924 7.527,-25.004c-0.888,-4.764 1.162,-5.413 5.638,-1.787c2.625,2.119 2.7,2.614 1.225,7.188c-2.663,8.215 -6.288,14.678 -11.014,19.603c-2.476,2.58 -4.963,4.689 -5.539,4.689c-0.575,-0 0.401,-2.109 2.163,-4.689Z" style="fill:#178eb3;fill-rule:nonzero;"/></g></g></svg>