<?xml version="1.0" encoding="UTF-8" standalone="no"?><!DOCTYPE svg PUBLIC "-//W3C//DTD SVG 1.1//EN" "http://www.w3.org/Graphics/SVG/1.1/DTD/svg11.dtd"><svg width="100%" height="100%" viewBox="0 0 65 48" version="1.1" xmlns="http://www.w3.org/2000/svg" xmlns:xlink="http://www.w3.org/1999/xlink" xml:space="preserve" xmlns:serif="http://www.serif.com/" style="fill-rule:evenodd;clip-rule:evenodd;stroke-linejoin:round;stroke-miterlimit:2;"><g><path d="M53.16,1.22c-1.47,-0.18 -2.95,0.04 -5.14,0.59c-8.58,2.13 -32.17,4.26 -40.21,3.61l-7.55,-0.6l2.19,8.61c1.2,4.74 2.57,12.85 3.04,18.02c0.58,6.4 1.63,10.39 3.27,12.48c2.65,3.37 3.61,3.69 5.48,1.81c1.67,-1.67 17.53,-3.66 29.53,-3.71c8.04,-0.03 9.53,-0.35 8.93,-1.91c-0.73,-1.91 7.26,-24.03 10.48,-29.01c2.23,-3.46 1.44,-4.75 -4.93,-8c-2.16,-1.1 -3.62,-1.7 -5.09,-1.89Zm-0.5,5.72c0.95,0.89 -0.62,8.36 -4.88,23.27l-1.82,6.36l-12.16,1.53c-6.69,0.84 -13.9,1.82 -16.02,2.19l-3.87,0.66l-2.16,-13.55c-1.19,-7.44 -2.45,-14.56 -2.81,-15.8c-0.56,-1.96 -0.08,-2.17 3.52,-1.54c2.3,0.4 12.05,-0.35 21.68,-1.67c9.63,-1.32 17.96,-1.97 18.52,-1.45Z" style="fill-rule:nonzero;"/></g></svg>