<?xml version="1.0" encoding="UTF-8" standalone="no"?><!DOCTYPE svg PUBLIC "-//W3C//DTD SVG 1.1//EN" "http://www.w3.org/Graphics/SVG/1.1/DTD/svg11.dtd"><svg width="100%" height="100%" viewBox="0 0 57 71" version="1.1" xmlns="http://www.w3.org/2000/svg" xmlns:xlink="http://www.w3.org/1999/xlink" xml:space="preserve" xmlns:serif="http://www.serif.com/" style="fill-rule:evenodd;clip-rule:evenodd;stroke-linejoin:round;stroke-miterlimit:2;"><g><path d="M47.23,1.19c-2.54,0.07 -6.31,0.68 -13.26,1.87c-8.15,1.41 -18.89,2.67 -23.86,2.82c-4.98,0.14 -9.06,0.68 -9.07,1.21c-0.01,0.53 1.69,1.99 3.78,3.26c3.72,2.26 4.06,2.24 20.94,-1.22c9.43,-1.93 17.86,-3.54 18.71,-3.57c2.08,-0.07 1.98,3.12 -0.36,10.99c-1.78,5.99 -2.13,6.39 -4.53,5.1c-1.98,-1.06 -4.12,-0.93 -9.01,0.56c-9.78,2.96 -21.49,4.92 -25.73,4.3c-4.68,-0.69 -4.87,0.52 -0.51,3.38c3.14,2.05 3.91,2.03 16.56,-0.49c13.29,-2.64 18.89,-3.23 18.89,-1.96c0,3.83 -12.61,22.76 -23.44,35.18c-9.85,11.29 -6.26,10.17 6.38,-1.99c14.11,-13.58 23.35,-27.45 30.63,-45.97c1.31,-3.31 2.75,-6.93 3.22,-8.04c0.63,-1.47 -0.3,-2.56 -3.47,-4.06c-2.02,-0.96 -3.33,-1.44 -5.87,-1.37Z" style="fill-rule:nonzero;"/></g></svg>