<?xml version="1.0" encoding="UTF-8" standalone="no"?>
<!-- Created with Inkscape (http://www.inkscape.org/) -->

<svg
   version="1.1"
   id="svg317"
   width="174.36926"
   height="244.58899"
   viewBox="0 0 174.36926 244.58899"
   sodipodi:docname="ã„.png"
   xmlns:inkscape="http://www.inkscape.org/namespaces/inkscape"
   xmlns:sodipodi="http://sodipodi.sourceforge.net/DTD/sodipodi-0.dtd"
   xmlns="http://www.w3.org/2000/svg"
   xmlns:svg="http://www.w3.org/2000/svg">
  <defs
     id="defs321" />
  <sodipodi:namedview
     id="namedview319"
     pagecolor="#ffffff"
     bordercolor="#000000"
     borderopacity="0.25"
     inkscape:showpageshadow="2"
     inkscape:pageopacity="0.0"
     inkscape:pagecheckerboard="0"
     inkscape:deskcolor="#d1d1d1"
     showgrid="false" />
  <g
     inkscape:groupmode="layer"
     inkscape:label="Image"
     id="g323"
     transform="translate(-8.4523764,-8.1166029)">
    <g
       id="g327">
      <path
         style="fill:#aeaeae"
         d="m 47.699911,191.75873 c 5.567214,-5.9077 14.298181,-15.70568 19.402149,-21.77329 8.191945,-9.7386 9.453412,-10.85854 10.759532,-9.55242 1.306121,1.30612 1.05275,2.12246 -2.1611,6.96287 -2.00238,3.0158 -6.330776,8.60883 -9.618658,12.42896 -3.287882,3.82013 -5.663837,7.29446 -5.279901,7.72074 0.383937,0.42628 0.195708,0.48853 -0.418286,0.13832 -0.613994,-0.35021 -1.963994,0.32073 -3,1.49099 C 54.911933,191.96691 47.016862,197 45.108938,197 c -0.824725,0 -2.856641,1.2375 -4.515368,2.75 -1.658727,1.5125 1.539126,-2.08357 7.106341,-7.99127 z m -16.346444,5.55447 c 0.303212,-0.30321 0.01022,-1.09821 -0.651086,-1.76666 -0.66131,-0.66845 -2.744555,-5.36883 -4.629435,-10.44528 l -3.427055,-9.22991 7.407476,-7.18567 c 4.074112,-3.95213 5.670912,-5.30744 3.548445,-3.01181 l -3.859032,4.17387 2.217988,3.58878 c 3.973311,6.42895 8.535735,7.25146 14.222443,2.56399 4.08881,-3.37034 12.534561,-14.34274 18.286792,-23.7575 l 3.822895,-6.25698 3.281786,2.50314 c 1.804983,1.37672 3.943563,2.24919 4.752401,1.93881 0.808837,-0.31038 1.764504,-0.0888 2.123702,0.49239 0.381494,0.61727 0.07354,0.83433 -0.740507,0.52195 -0.847313,-0.32515 -2.909476,1.34533 -5.260681,4.26145 -7.472798,9.26829 -28.28595,32.84058 -32.594325,36.91527 -2.395401,2.26548 -5.412285,4.37249 -6.704188,4.68225 -1.291902,0.30976 -2.100831,0.31512 -1.797619,0.0119 z M 160.59013,162.82387 c -1.52586,-6.18764 -5.28866,-19.01736 -8.36177,-28.51049 -4.88097,-15.07774 -5.78358,-17.10553 -7.1383,-16.0368 -0.85295,0.67288 -0.43464,-0.21418 0.92956,-1.97125 1.36421,-1.75707 2.70538,-3.21638 2.98038,-3.2429 0.275,-0.0265 5.94292,10.77298 12.59539,23.99891 l 12.09538,24.04715 -0.96693,4.8903 c -0.77932,3.94147 -1.47692,5.07524 -3.59539,5.84347 -1.44565,0.52425 -3.33395,1.24088 -4.19624,1.59252 -1.28526,0.52414 -2.06772,-1.38799 -4.34208,-10.61091 z M 12.119588,168.77868 C 9.8263181,160.29352 8.9559376,153.30321 8.6002594,140.51379 8.4012044,133.35621 8.4033786,129.525 8.6050909,132 c 1.2766811,15.66482 2.6989391,27.38753 4.0426071,33.32048 1.708525,7.54398 1.299693,10.22111 -0.52811,3.4582 z m 8.121733,-3.55357 C 17.60917,153.82202 16.760003,142.06839 17.299283,124.5033 17.884878,105.4297 19.530538,95.319349 24.493322,80.305693 27.231058,72.02336 35.756021,54.111642 38.86658,50.10618 42.761122,45.091183 42.779871,48.947308 38.91956,61.001342 35.264532,72.414354 29.927792,93.121704 28.546596,101.25 c -0.464079,2.73109 -0.285267,3.75021 0.658096,3.75079 0.712422,4.3e-4 -0.519348,0.89905 -2.737267,1.99693 C 21.25614,109.57733 19,113.46629 19,119.8695 c 0,4.12995 0.524513,5.66514 2.851396,8.3457 2.683318,3.09117 2.891545,3.99215 3.532509,15.2848 0.374612,6.6 1.051445,13.88726 1.504074,16.19392 0.764253,3.89473 0.596241,4.41366 -2.355158,7.27427 l -3.178119,3.08035 z M 162.5862,127.66067 c -6.54162,-12.73837 -12.08425,-23.38279 -12.31697,-23.65428 -0.23271,-0.27148 -1.70659,1.07852 -3.27529,3 l -2.85218,3.49361 -1.13992,-3 C 142.37488,105.85 138.96798,97.029854 135.43096,87.899675 131.89393,78.769497 129,70.840348 129,70.279346 c 0,-0.974294 14.83452,-6.77816 15.53483,-6.077854 0.39487,0.394871 13.59636,33.566585 15.51911,38.995268 0.72013,2.03322 1.75407,3.4219 2.29764,3.08595 0.62259,-0.38478 0.68051,0.0975 0.15652,1.30325 -1.69567,3.90198 -1.71031,9.59603 -0.036,13.9803 1.94162,5.08404 4.66539,7.37493 9.00036,7.56992 2.35677,0.10601 2.52902,0.23219 0.77749,0.56955 -1.2375,0.23836 -2.25,0.66592 -2.25,0.95014 0,2.32036 4.47951,15.16581 5.14521,14.75439 0.47013,-0.29056 0.85479,0.59671 0.85479,1.97171 0,1.375 -0.34199,2.71136 -0.75998,2.96969 -0.41798,0.25833 -6.11221,-9.95262 -12.65382,-22.69099 z M 18.481921,72.5 c 0.342813,-1.65 2.257611,-8.175 4.255107,-14.5 1.997497,-6.325 3.663535,-11.95 3.702308,-12.5 0.05424,-0.769406 5.434405,-0.901507 6.221169,-0.152751 0.08828,0.08401 -1.673257,3.279565 -3.91452,7.101227 -2.241263,3.821662 -5.607799,10.571662 -7.481192,15 C 19.391401,71.876814 18.139108,74.15 18.481921,72.5 Z"
         id="path331" />
      <path
         style="fill:#0e0606"
         d="M 82.280184,251.14589 C 63.749785,246.41919 46.923083,233.65835 34.049712,214.56945 13.794403,184.53445 5.4974208,147.63551 10.491851,109.80122 14.138524,82.176588 24.246223,55.162452 35.458467,43.074701 c 1.823684,-1.966086 6.179081,-6.663584 9.67866,-10.438885 30.319081,-32.7078276 72.041703,-32.69076062 102.920223,0.0421 23.57425,24.989946 36.07805,62.263975 34.65482,103.306574 -0.64601,18.62938 -2.52114,29.58543 -7.75917,45.33535 -11.55722,34.7507 -32.83172,59.33298 -59.14575,68.34176 -9.98761,3.41932 -23.581687,4.02115 -33.527066,1.48429 z m 31.548716,-7.65165 c 14.88874,-4.70336 30.21657,-17.31096 40.8509,-33.60112 8.94663,-13.70487 9.14199,-11.3978 -2.61029,-30.82644 -5.61081,-9.27569 -10.73428,-17.56021 -11.38549,-18.41005 -0.99182,-1.29434 -3.78128,2.17396 -17.18402,21.36585 -8.8,12.60105 -16.25342,22.92597 -16.56316,22.94426 -0.30974,0.0183 -6.992411,-10.0931 -14.85039,-22.46977 -7.857978,-12.37666 -14.626606,-22.71277 -15.041397,-22.96913 -0.41479,-0.25635 -4.982114,4.56258 -10.149608,10.70873 -5.167495,6.14615 -14.452,16.42169 -20.632234,22.83453 l -11.236788,11.65971 4.110943,6.36043 c 9.45644,14.63095 25.62766,27.81689 39.652546,32.33252 10.917661,3.51518 24.050948,3.5416 35.038988,0.0705 z M 65.019933,210.24845 C 60.594664,208.02511 57,202.67859 57,198.32 c 0,-8.57742 5.691625,-14.3095 14.215204,-14.31626 14.118574,-0.0112 18.315439,20.24579 5.458556,26.34678 -4.437793,2.10587 -7.309242,2.08072 -11.653827,-0.10207 z m 66.528807,-3.3398 c -10.61234,-9.31776 -2.71188,-27.03785 10.91499,-24.48143 6.35623,1.19243 11.53627,7.27904 11.53627,13.55524 0,8.27237 -5.81719,14.00714 -14.2152,14.0138 -3.84713,0.003 -5.3634,-0.56538 -8.23606,-3.08761 z M 56.391192,174.5 c 6.705228,-7.7 13.914465,-16.1375 16.020528,-18.75 2.106062,-2.6125 4.164807,-4.75 4.574987,-4.75 0.410181,0 7.166163,10.125 15.013293,22.5 7.84713,12.375 14.61602,22.5 15.04198,22.5 0.42596,0 7.89678,-10.125 16.60182,-22.5 8.70503,-12.375 16.09957,-22.5 16.4323,-22.5 0.33274,0 5.90315,8.76978 12.3787,19.4884 6.47555,10.71862 12.13691,19.26394 12.5808,18.9896 1.02527,-0.63365 5.47892,-14.0776 7.32168,-22.10147 l 1.40631,-6.12348 -12.13179,-24.11943 C 154.95931,123.86794 149.275,113.02209 149,113.03173 c -0.275,0.01 -8.55968,10.58146 -18.4104,23.49291 C 120.73887,149.43609 112.33154,160 111.90663,160 c -0.4249,0 -7.87069,-10.35651 -16.54619,-23.01447 -8.6755,-12.65795 -16.083745,-22.89545 -16.462767,-22.75 -0.379021,0.14546 -7.823552,8.57335 -16.543401,18.72864 -8.71985,10.15529 -21.187121,23.98384 -27.705048,30.73012 l -11.850776,12.26595 1.461167,4.26988 c 0.803641,2.34843 2.932748,7.79765 4.731347,12.10937 l 3.270181,7.83949 5.969363,-5.83949 C 41.513656,191.12777 49.685965,182.2 56.391192,174.5 Z m 5.449967,-48.25 C 71.37827,115.1125 79.341778,106 79.537844,106 c 0.196065,0 7.378859,10.2375 15.961764,22.75 8.582902,12.5125 15.983662,22.88399 16.446122,23.04776 0.46247,0.16377 9.06714,-10.52373 19.1215,-23.75 10.05436,-13.22627 18.53988,-24.03884 18.85671,-24.02795 0.31684,0.0109 5.97606,10.56309 12.57606,23.44931 6.6,12.88623 12.28909,23.11481 12.64243,22.73019 0.35333,-0.38462 0.95659,-5.49946 1.34057,-11.3663 l 0.69814,-10.66699 -3.94641,0.52932 c -2.20593,0.29588 -4.92955,0.003 -6.17559,-0.66369 -2.83099,-1.5151 -6.00862,-8.44152 -6.03718,-13.15953 C 160.97676,107.40511 166.29467,100 171.70225,100 c 1.8435,0 2.30955,-0.423756 1.92466,-1.75 C 173.34758,97.2875 172.61777,94.475 172.0051,92 163.03055,55.745364 140.80158,26.603326 115.24351,17.585915 99.917289,12.17851 81.303998,14.317083 66.067845,23.235951 57.747003,28.106766 42.416766,43.976298 36.667399,53.67066 23.362585,76.104727 16.998339,100.99875 17.025704,130.5 c 0.0137,14.77306 0.84448,23.77545 3.174191,34.39585 l 1.183643,5.39584 11.55871,-11.89584 c 6.35729,-6.54272 19.3618,-21.00835 28.898911,-32.14585 z m -32.825234,6.64297 c -2.081997,-0.43988 -4.798365,-2.17026 -6.75,-4.29986 C 19.468976,125.54111 19,124.29553 19,119.91898 c 0,-6.49143 2.271591,-10.38795 7.54388,-12.94022 5.111124,-2.47425 6.801116,-2.47425 11.91224,0 5.272289,2.55227 7.54388,6.44879 7.54388,12.94022 0,4.37312 -0.468871,5.62084 -3.25,8.64856 -3.63947,3.96218 -8.382824,5.45606 -13.734075,4.32543 z m 78.626625,-2.91086 c -13.883793,-4.2107 -12.320294,-24.45473 2.12131,-27.46645 4.30686,-0.89817 11.1526,2.38004 13.59132,6.50846 2.29117,3.87866 2.33574,10.99766 0.0926,14.79497 -3.01105,5.0973 -10.14584,7.87941 -15.80524,6.16302 z"
         id="path329" />
    </g>
  </g>
</svg>
