<?xml version="1.0" encoding="UTF-8" standalone="no"?>
<!-- Created with Inkscape (http://www.inkscape.org/) -->

<svg
   version="1.1"
   id="svg1108"
   width="188.51663"
   height="216.99161"
   viewBox="0 0 188.51663 216.99161"
   sodipodi:docname="ãˆ.png"
   xmlns:inkscape="http://www.inkscape.org/namespaces/inkscape"
   xmlns:sodipodi="http://sodipodi.sourceforge.net/DTD/sodipodi-0.dtd"
   xmlns="http://www.w3.org/2000/svg"
   xmlns:svg="http://www.w3.org/2000/svg">
  <defs
     id="defs1112" />
  <sodipodi:namedview
     id="namedview1110"
     pagecolor="#ffffff"
     bordercolor="#000000"
     borderopacity="0.25"
     inkscape:showpageshadow="2"
     inkscape:pageopacity="0.0"
     inkscape:pagecheckerboard="0"
     inkscape:deskcolor="#d1d1d1"
     showgrid="false" />
  <g
     inkscape:groupmode="layer"
     inkscape:label="Image"
     id="g1114"
     transform="translate(-30.866264,-17.008394)">
    <g
       id="g1118">
      <path
         style="fill:#afafaf"
         d="m 33.683132,210.59448 -2.816868,-2.27625 9.23172,-11.40911 C 60.8507,171.26166 84.102429,144.4494 104.71798,122.39389 112.02309,114.57853 118,107.8165 118,107.36717 c 0,-0.44934 3.0375,-3.92351 6.75,-7.72039 5.37684,-5.499044 6.24142,-6.77762 4.25,-6.285059 -1.375,0.340093 -6.325,1.088444 -11,1.663 -15.21065,1.869387 -24.190757,3.018122 -43,5.500559 -10.175,1.34289 -20.3225,2.44907 -22.55,2.45817 -2.2275,0.009 -4.939634,0.70597 -5.537556,1.30389 -0.782843,0.78285 -1.486915,-1.63832 -2.000348,-2.46904 -0.392152,-0.63451 0.835331,-3.035685 1.177949,-3.378305 C 46.865347,97.664665 147.69513,89.895008 150.6475,90.245244 152.36221,90.448658 141.41923,102.4914 96.349693,150 65.304771,182.725 39.138394,210.25841 38.20219,211.18536 c -1.597039,1.58125 -1.876199,1.54475 -4.519058,-0.59088 z M 156,211.05858 l -10.5678,-0.62532 0.16425,-9.72971 c 0.0989,-5.85774 -0.53806,-10.13955 0,-10.64465 0.49695,-0.46651 2.32709,-1.1478 4.06698,-1.51399 2.62413,-0.55229 2.47219,-2.98994 3.00551,-1.30958 0.42179,1.32895 2.71423,4.95301 5.13742,5.44475 4.33472,0.87965 17.48013,1.02757 28.43151,0.31992 l 7.73788,-0.5 7.40753,8.5 7.40752,8.5 -17.6454,1.16453 c -18.8056,1.24111 -20.42965,1.25932 -35.1454,0.39405 z m 58,-7.0384 c -0.825,-1.04786 -4.89129,-3.73379 -7.73111,-6.94755 -3.65657,-4.13808 -6.21287,-5.79391 -5.03495,-5.83621 0.91482,-0.0328 6.24989,-1.09756 8.67458,-1.30565 3.32538,-0.28538 4.45943,-0.0162 4.61573,1.09544 0.72066,5.12564 1.58079,14.96766 1.30534,14.93648 -0.18127,-0.0205 -1.00459,-0.89466 -1.82959,-1.94251 z m -75.71825,-1.29016 c -1.49823,-3.95118 -4.3078,-20.9668 -4.9351,-34.03399 -0.57336,-11.94358 -1.1172,-16.8518 -2.74993,-17.99542 -1.68218,-1.17824 -0.77611,-1.25606 -0.26021,-1.94603 0.5739,-0.76756 2.84408,2.24542 4.08709,2.24542 h 2.26002 l 0.61659,24.20827 c 0.33912,13.31454 0.1593,24.30445 0.2495,24.57536 1.06128,3.18762 1.69643,5.48982 0.73204,2.94639 z m 6.37244,-32.03495 c -0.3548,-6.15729 -0.64714,-14.40582 -0.64964,-18.33006 -0.004,-6.47517 1.63643,2.92665 -0.59774,1.46277 -2.30646,-1.51126 -5.21918,-11.63032 -18.41221,-8.75701 -7.74496,1.68676 -14.46209,2.92338 -14.92694,2.74804 -0.46486,-0.17535 3.26725,-4.61174 8.29357,-9.85866 5.02632,-5.24692 8.01377,-8.24688 6.63877,-6.66658 l -2.5,2.87326 3.82981,-0.70968 c 2.19327,-0.40642 4.75718,-0.26165 6,0.33879 1.19361,0.57666 3.39944,1.31498 4.90185,1.64071 4.14999,0.89975 9.61044,6.22912 10.6606,10.4047 0.50609,2.01226 1.22011,9.67968 1.58671,17.03872 0.3666,7.35904 1.17927,14.20108 1.80593,15.20453 1.36498,2.18567 1.69174,6.51783 -2.55156,5.01874 l -3.43405,-1.2132 z M 44.349286,101.38949 C 44.92418,100.97776 41.570155,91.925 41.545261,90 c -0.03987,-3.083105 0.227151,-3.461988 2.241744,-3.180873 6.683751,0.932647 82.709135,-9.38879 85.517085,-11.610059 0.65775,-0.520324 6.79951,-2.179306 13.64835,-3.686626 6.84885,-1.50732 13.11017,-2.992973 13.91405,-3.301451 0.86333,-0.331292 1.19667,-0.132202 0.81436,0.486387 -0.35598,0.575991 1.3702,4.118862 3.83596,7.873046 2.46575,3.754184 4.45273,7.296892 4.41551,7.872683 -0.0372,0.575791 -0.55599,0.03439 -1.15281,-1.203107 -0.59683,-1.2375 -1.44188,-2.25 -1.8779,-2.25 -0.43602,0 -20.72975,2.232069 -45.09719,4.960152 C 93.43699,88.688236 67.2,91.616755 59.5,92.467971 c -7.7,0.851217 -15.35,1.76852 -17,2.038451 -1.65,0.269931 1.274393,7.294798 1.849286,6.883068 z M 135.78396,46.76363 c -7.80106,1.562948 -56.758485,-1.500409 -70.426622,-2.712679 -1.925,-0.170734 0.316857,-0.426621 -0.205643,-0.459061 -0.6,-0.03728 -0.304594,0.288224 0.295406,-0.280191 0.564302,-0.534596 16.471778,-4.566128 37.639369,-1.003182 24.79909,4.174202 59.47715,2.387148 55.97076,2.899989 -2.68927,0.393329 -15.99616,1.943106 -16.88188,1.828933 -0.88574,-0.114175 40.89783,-9.748238 -6.39139,-0.273809 z M 109,39.947619 C 85.643255,38.150947 65.584799,44.276325 64.941633,44.236274 64.0886,44.183154 64.42366,36.049501 65.131325,33.486565 c 0.533558,-1.93239 0.72724,-3.906401 0.430403,-4.386693 -0.296837,-0.480292 0.216724,-1.486746 1.141245,-2.236565 0.924521,-0.749819 1.389728,-0.876401 1.033793,-0.281293 -1.526366,2.552018 55.867254,5.413472 74.130714,3.69591 8.55896,-0.804917 9.59469,-0.710689 12,1.091726 3.2322,2.422046 5.11334,4.192865 3.4873,3.282798 -0.62986,-0.352528 -1.41736,0.06826 -1.75,0.935083 -1.01626,2.648346 -0.67511,6.217423 0.64522,6.750188 1.96467,0.792763 5.26331,1.649383 -39.8883,-1.823815 z"
         id="path1122"
         sodipodi:nodetypes="scssssssscsssssssscsssssscccsssssssssssssscsssscssssscssssssscsssssssssssssssssssssssssssssssssssss" />
      <path
         style="fill:#080808"
         d="m 116.01582,232.02956 c -0.94121,-1.75867 0.19361,-2.89399 10.55955,-10.56411 l 11.61409,-8.59367 -0.71778,-30.68589 c -0.39478,-16.87724 -0.87772,-30.8637 -1.0732,-31.08103 -0.91326,-1.01531 -29.99849,4.41224 -35.12668,6.55493 -4.075304,1.70278 -24.422148,21.28955 -36.2718,34.91685 -13.6659,15.71602 -21.213065,23.68294 -25.66187,27.08912 -4.054552,3.10432 -4.205948,3.13778 -5.871281,1.29761 -0.940176,-1.03888 -1.447401,-2.46814 -1.127165,-3.17612 C 32.659919,217.07926 59.895435,188.15 92.863054,153.5 132.62968,111.70403 152.24813,90.405096 151.15209,90.218028 150.24344,90.062944 125.425,92.662657 96,95.995169 L 42.5,102.05428 40.800137,99.978273 C 38.759149,97.485656 39.429453,95.147704 42.360301,94.536574 43.537136,94.291185 51.025,93.378757 59,92.508956 66.975,91.639155 93.43699,88.693812 117.80442,85.96375 142.17186,83.233687 162.50403,81 162.98704,81 c 1.88058,0 2.13804,4.160575 0.42072,6.798963 -0.96696,1.48557 -8.31678,9.586682 -16.33293,18.002467 -8.01616,8.41579 -14.75632,15.84079 -14.97813,16.5 -0.22182,0.65921 -5.56496,6.71107 -11.87364,13.44857 -6.30868,6.7375 -10.82736,12.25 -10.04152,12.25 0.78585,0 7.60683,-1.35032 15.15774,-3.00071 19.22667,-4.20235 18.15413,-5.22841 19.06042,18.23439 0.3867,10.01134 0.80011,18.29946 0.91868,18.41804 0.2535,0.2535 10.59607,-1.76795 26.68162,-5.2149 6.325,-1.35538 11.90774,-2.45813 12.4061,-2.45057 1.42315,0.0216 29.60445,29.18518 31.24911,32.33832 0.8103,1.55352 2.09357,6.05352 2.8517,10 1.16475,6.06316 1.16681,7.39039 0.0133,8.56217 -2.4281,2.46656 -4.23436,0.52288 -5.33833,-5.74447 -1.02489,-5.8184 -1.51635,-6.53286 -15.18665,-22.07763 -7.97709,-9.07089 -14.86057,-16.04737 -15.81136,-16.02497 -0.92613,0.0218 -9.55887,1.95439 -19.18387,4.29461 l -17.5,4.25495 0.30119,10.66244 c 0.24194,8.56493 -0.0215,11.1549 -1.33908,13.16582 C 143.01722,215.62266 119.05494,234 117.62449,234 c -0.30477,0 -1.02867,-0.8867 -1.60867,-1.97044 z M 131.42285,68.875167 c -0.99387,-1.60811 1.29915,-3.478175 7.84166,-6.395243 3.42952,-1.529098 6.47578,-3.144395 6.76947,-3.589548 0.2937,-0.445153 3.2187,-2.006793 6.5,-3.47031 C 155.81529,53.956549 160.525,51.840968 163,50.718774 l 4.5,-2.040351 -52.40191,-3.276832 C 73.68303,42.811795 62.389078,41.817649 61.231428,40.66 c -3.613148,-3.613149 1.171149,-3.676976 49.891162,-0.665601 26.05757,1.610615 49.79038,3.209448 52.73956,3.552964 3.33922,0.388946 5.13773,0.261453 4.76728,-0.337945 C 168.30225,42.680033 161.72678,37.400854 154.01728,31.47791 144.90475,24.477067 140,20.060031 140,18.85446 c 0,-1.019953 0.3375,-1.850674 0.75,-1.846047 1.15586,0.01296 38.25,28.958573 38.25,29.84756 0,0.431009 -4.3875,2.742917 -9.75,5.137573 -5.3625,2.394657 -10.425,4.917541 -11.25,5.606409 -2.93137,2.447673 -25.98759,12.229146 -26.57715,11.275212 z"
         id="path1120" />
    </g>
  </g>
</svg>
