<?xml version="1.0" encoding="UTF-8" standalone="no"?>
<!-- Created with Inkscape (http://www.inkscape.org/) -->

<svg
   version="1.1"
   id="svg1581"
   width="496.53644"
   height="190.49612"
   viewBox="0 0 496.53644 190.49612"
   sodipodi:docname="ã‹.png"
   xmlns:inkscape="http://www.inkscape.org/namespaces/inkscape"
   xmlns:sodipodi="http://sodipodi.sourceforge.net/DTD/sodipodi-0.dtd"
   xmlns="http://www.w3.org/2000/svg"
   xmlns:svg="http://www.w3.org/2000/svg">
  <defs
     id="defs1585" />
  <sodipodi:namedview
     id="namedview1583"
     pagecolor="#ffffff"
     bordercolor="#000000"
     borderopacity="0.25"
     inkscape:showpageshadow="2"
     inkscape:pageopacity="0.0"
     inkscape:pagecheckerboard="0"
     inkscape:deskcolor="#d1d1d1"
     showgrid="false" />
  <g
     inkscape:groupmode="layer"
     inkscape:label="Image"
     id="g1587"
     transform="translate(-20.117487,-19.35568)">
    <g
       id="g1591">
      <path
         style="fill:#acacac"
         d="m 107.08789,170.27302 c -1.36099,-0.2565 -1.93644,-0.74859 -1.32054,-1.12923 2.87667,-1.77789 26.95705,-58.45591 32.38484,-76.224273 l 2.31565,-7.580483 7.94436,-1.157902 c 4.3694,-0.636847 8.16296,-0.939305 8.43013,-0.672131 0.26718,0.267174 -2.15045,7.799448 -5.37251,16.738389 -3.22206,8.93893 -6.3289,17.70841 -6.90409,19.48773 -1.14536,3.54311 -3.58142,5.2521 -3.54006,2.4835 0.0141,-0.94524 0.88792,-5.53232 1.94178,-10.19351 1.05386,-4.66119 1.82981,-8.54278 1.72433,-8.62577 -0.10548,-0.083 -1.16799,-0.45059 -2.36113,-0.8169 -2.5881,-0.79458 -2.22423,-1.82069 -6.35377,17.91756 -5.23758,25.03445 -9.39502,35.18756 -18.60121,45.42706 -4.4445,4.94335 -5.26933,5.29179 -10.28778,4.34596 z m 70.64968,-1.69017 c -6.29273,-2.58776 -19.27403,-10.02381 -20.24694,-11.59801 -0.76222,-1.2333 -4.11994,-1.75297 9.62502,-0.20682 12.77563,1.4371 7.86268,1.2478 11.16667,2.79118 4.41474,2.06225 13.83046,-1.13676 10.41496,-5.10548 -0.87432,-1.01594 -0.68615,0.25462 -1.65745,-0.91573 -1.32509,-1.59663 0.78912,0.51935 2.44071,0.51935 0.57178,0 -0.53931,-6.7781 -0.87266,-7.6468 C 187.71885,144.10375 188.9975,140 190.60841,140 191.37378,140 192,139.55 192,139 c 0,-0.55 -0.45,-1 -1,-1 -0.55,0 -0.99386,-1.0125 -0.98635,-2.25 0.0232,-3.81778 4.01904,-2.53657 5.46811,-2.53657 C 196.24261,133.21343 194,128.55 194,128 c 0,-0.55 -0.68096,-1 -1.51325,-1 -1.22903,0 -1.46381,-1.28319 -1.25,-6.83187 0.23126,-6.00169 0.48077,-6.7761 2.0533,-6.37289 3.95945,1.01521 5.21714,5.87732 5.09705,19.70476 -0.12606,14.51573 -2.41175,25.4536 -6.93024,33.16383 -3.0373,5.18275 -5.08593,5.46931 -13.71929,1.91902 z m -16.73416,-13.48119 c -8.09632,-2.08909 -10.57717,-3.12687 -10.84898,-4.5383 -0.2828,-1.46847 0.11151,-1.71897 1.99658,-1.26838 1.29195,0.30882 4.5466,0.8789 7.23256,1.26683 2.71941,0.39277 -2.46858,-1.38004 -1.38288,-0.29434 1.07235,1.07235 27.50863,11.45201 29.25032,12.20967 4.70908,2.04851 -14.49861,-4.34389 -26.2476,-7.37548 z M 203.5,133.46222 c 0.22183,-16.46001 -10.49042,36.40531 -16.86679,33.28963 -3.53005,-1.72488 4.82933,-58.83281 4.8104,-63.22669 -0.0423,-9.807824 -0.18669,-15.551266 -1.0436,-18.900664 l -0.95699,-3.740635 -19.30865,-7.27966 c -3.89323,-1.467808 31.96859,-5.511516 32.57206,-3.9389 2.97567,7.754471 6.01581,63.872169 -0.0568,77.672709 -3.57722,8.12952 0.6612,0.16239 0.85039,-13.87579 z M 249.40589,119.75 c -4.27236,-7.8375 -10.83647,-19.52787 -14.58691,-25.978603 -3.75044,-6.450732 -7.15605,-13.81714 -7.15605,-14.103908 0,-0.286768 5.75709,0.595512 11.94459,0.67792 6.1875,0.08241 6.76502,-0.943819 5.25252,-0.714695 -1.5125,0.229125 0.13996,2.718985 0.13996,2.984029 0,0.265043 4.93467,8.777849 10.96593,18.917347 C 266.47166,119.19388 270,125.4229 270,126.3082 270,126.78322 258.44663,134 257.68618,134 c -0.2818,0 -4.00793,-6.4125 -8.28029,-14.25 z M 111.63592,79.116698 c 0.0933,-3.751755 0.56371,-5.540598 1.5,-5.704004 3.28918,-0.574047 27.66237,-4.560211 30.5136,-4.990412 1.73223,-0.261364 3.60372,-1.025799 4.15886,-1.698744 C 148.84376,65.468455 161,23.699207 161,21.396714 c 0,-2.140295 1.8614,-2.597562 5.5792,-1.370575 1.94706,0.642586 4.2541,1.273131 5.12676,1.401211 1.09534,0.160762 1.61877,1.369468 1.69035,3.903359 0.0949,3.358289 -1.85703,9.599329 -4.36014,9.598782 -4.75072,-10e-4 -7.03586,2.339877 -16.19904,31.012927 L 149.5,76.384836 l -12,2.173394 c -6.6,1.195366 -15.15,3.039871 -19,4.098899 l -7,1.925506 z m 43.77484,-6.591679 c 1.87964,-10.019323 14.55847,-41.266015 16.46109,-41.266015 0.45805,0 -1.18022,6.678496 -2.54818,11.490996 -1.36796,4.8125 -6.31286,20.604312 -6.40538,22.115558 -0.0925,1.511245 -0.51175,3.338624 -0.9831,3.339879 -0.47134,0.0013 -1.36102,-4.985141 0.56627,-7.381549 0.5538,-0.688592 1.20225,-1.076694 0.68677,-1.076694 -0.51548,0 -0.082,-0.867316 0.2346,-0.04232 0.31659,0.825 0.23585,3.414296 -0.28132,3.414296 -0.51718,0 -0.31379,0.962508 -0.31379,1.666594 0,3.231993 -3.16773,10.069883 -5.02773,10.556285 -1.78086,0.465705 -2.94287,0.134095 -2.38923,-2.817034 z m 7.12352,-0.624593 c -0.88505,-6.464686 -5.45874,-7.139456 -2.2038,-6.75946 2.27849,0.266001 -2.2291,-0.130804 1.81579,0.862359 0.68159,0.167356 41.01031,2.767644 40.53356,3.639195 -0.79869,1.460104 -33.75416,4.144205 -35.92441,4.725775 -4.43776,1.189206 -3.50258,2.780723 -4.22114,-2.467869 z m 72.7751,1.380607 c -2.74829,-0.343592 -3.68444,-1.297283 -6.7526,-6.879106 -1.95908,-3.564117 -4.67197,-6.435747 -5.51366,-7.720332 -1.41979,-2.166869 -6.27351,0.913101 -4.41916,0.428176 1.09932,-0.287478 7.22232,-4.613304 7.11802,-4.257211 -0.31288,1.068118 14.56331,18.092016 14.93054,19.057461 0.52574,1.382157 -4.98287,-4.469147 -4.00177,-3.89025 1.72114,1.015558 2.3537,2.801088 3.10847,2.511454 0.72856,-0.279574 1.04973,-0.06347 0.7137,0.480229 -0.33602,0.5437 -0.9219,0.916529 -1.30194,0.828509 -0.38004,-0.08802 -2.12676,-0.339539 -3.8816,-0.55893 z M 217.0215,64.311864 c -1.69381,-2.870786 -1.86588,-3.794402 -0.82936,-4.451775 0.71932,-0.456205 1.54951,-0.836354 1.84487,-0.844776 0.5581,-0.01591 7.96299,12.48247 7.96299,13.440391 -5.74009,1.790768 -3.10486,2.446372 -8.9785,-8.14384 z"
         id="path1595"
         sodipodi:nodetypes="ssscsssssssssssssssssssssssssssssssssssssssscscsssssssssssssssssssssscscsscssssscssssssssscsssscssssssssscssccss" />
      <path
         style="fill:#0b0b0b"
         d="m 267.95371,208.03642 c -3.85665,-2.03929 -15.66736,-14.00893 -20.46102,-20.73635 -4.38383,-6.15227 -5.58045,-6.5569 -15.49269,-5.23889 -14.10072,1.87494 -31.72601,2.15098 -68.5,1.07281 l -35,-1.02616 -17.66019,-4.47173 C 89.318594,172.18673 74.838129,167.3046 61.077053,160.85845 48.619055,155.0227 33.373826,145.0727 25.539965,137.66468 c -5.036575,-4.76279 -5.650895,-5.76738 -5.363984,-8.77174 0.313327,-3.28097 0.753012,-3.6036 13.324019,-9.77677 23.084457,-11.33595 48.655649,-22.742028 63,-28.101273 7.7,-2.876825 14.45,-5.591829 15,-6.033342 1.52663,-1.225507 12.6722,-3.971279 26,-6.405242 l 12,-2.191477 3.33713,-10.442418 C 158.42005,48.472581 162.93881,36.697561 165.611,32.656169 l 2.54157,-3.84383 7.17371,0.709845 c 10.33145,1.022304 21.06733,3.984091 27.23718,7.514127 7.18238,4.109341 19.29059,17.514019 25.03328,27.713689 3.71111,6.591362 5.10685,8.25 6.94233,8.25 1.26354,0 2.90854,0.234535 3.65555,0.521189 0.85687,0.328812 3.37857,-2.308406 6.83179,-7.144748 12.32269,-17.258322 14.09259,-19.426811 17.92698,-21.964296 8.67137,-5.738439 18.73311,-1.739652 34.12835,13.563456 11.81545,11.74474 15.52812,17.016357 13.99788,19.875624 -1.20381,2.249339 -0.72537,2.518931 6.42038,3.61778 3.83293,0.589416 4.34905,0.319548 12.35731,-6.461371 10.63524,-9.005296 15.11763,-11.356613 20.05822,-10.521905 4.80218,0.811323 11.37901,4.661258 19.49776,11.413565 8.74203,7.270686 13.12063,12.752445 11.62529,14.554216 -0.89875,1.082929 -0.45587,1.573826 2.16583,2.400662 6.4153,2.02327 56.37634,10.422038 61.79559,10.388228 4.48687,-0.028 10.65778,-1.96556 33.5,-10.518481 15.4,-5.766293 29.68102,-11.187445 31.73561,-12.047005 5.22929,-2.187735 7.04339,-0.393185 6.23373,6.166558 -0.31612,2.56109 -2.06041,18.974828 -3.87621,36.474978 -2.50472,24.13981 -3.67678,32.19377 -4.85671,33.3737 -1.40702,1.40702 -4.35199,0.67171 -30.89584,-7.71417 -22.45975,-7.09561 -30.63042,-9.26325 -34.84058,-9.24308 -3.25571,0.0156 -14.88523,2.35519 -28.5,5.73353 -32.55906,8.07914 -32.13886,7.92655 -29,10.53157 2.52068,2.09198 1.76063,3.62129 -5.25,10.56349 -14.1905,14.052 -25.31894,19.03782 -33.29111,14.91525 -1.61798,-0.83669 -6.82695,-4.85882 -11.57548,-8.93806 l -8.6337,-7.41681 -5.12485,0.5839 c -2.81867,0.32115 -6.14606,0.96044 -7.3942,1.42067 -1.93296,0.71273 -2.09415,1.11729 -1.08741,2.72933 0.98868,1.58313 0.64366,2.77132 -2.11031,7.2674 -8.84716,14.44368 -19.84247,26.19953 -28.7431,30.73125 -5.11709,2.60534 -8.659,2.65315 -13.33613,0.18 z m 12.57439,-4.05002 c 2.28776,-1.10749 7.00146,-4.89289 10.4749,-8.41201 6.36429,-6.44799 16.997,-20.9205 16.997,-23.13515 0,-2.62378 -2.86293,-3.68108 -7.58179,-2.79999 l -4.60996,0.86075 2.09588,2.65773 c 3.20617,4.06567 2.49469,4.62116 -1.25898,0.98295 -2.74024,-2.65594 -3.85441,-3.12626 -6.08169,-2.56725 l -2.72684,0.68439 4.2899,4.37109 c 5.42484,5.52751 3.88804,5.78322 -1.71403,0.28521 -2.74018,-2.68929 -4.87095,-3.97108 -6.23377,-3.75 -1.85737,0.3013 -1.5613,0.95182 2.87536,6.31783 2.72026,3.29007 4.93374,6.44007 4.91886,7 -0.0268,1.01006 -3.94426,-2.94686 -9.2175,-9.31043 -1.83182,-2.21058 -3.44455,-3.20554 -4.84937,-2.99178 -1.87917,0.28593 -1.4528,1.1459 3.9772,8.02197 3.3451,4.23595 5.73132,7.91845 5.3027,8.18335 -0.42861,0.2649 -3.60265,-3.08837 -7.05342,-7.45171 -4.1595,-5.25951 -6.9604,-7.93335 -8.31033,-7.93335 -2.71808,0 -2.1105,1.35159 4.6385,10.31844 3.0466,4.04778 5.53928,7.65704 5.53928,8.02058 0,1.94443 -2.14392,-0.29035 -8,-8.33902 -3.575,-4.91353 -7.175,-8.94172 -8,-8.95153 -4.18005,-0.0497 -3.63982,1.71721 3.1424,10.2778 3.83852,4.84503 6.81231,9.30959 6.60843,9.92125 -0.20389,0.61166 -3.90421,-3.47597 -8.22294,-9.08362 -6.59117,-8.55829 -8.18755,-10.09292 -9.94007,-9.55559 -1.1483,0.35208 -2.25384,0.78777 -2.45676,0.96819 -0.20292,0.18043 3.5119,5.04654 8.25516,10.81357 4.74326,5.76703 8.26627,10.70667 7.82892,10.97696 -0.43735,0.2703 -4.79426,-4.4267 -9.68202,-10.43779 C 254.03106,180.70303 252.20637,179 249.82314,179 248.27041,179 247,179.29661 247,179.65913 c 0,2.41809 14.68455,19.33299 20.40004,23.49849 4.61783,3.36551 7.51062,3.54814 13.12806,0.82878 z m 80.26371,-27.56994 c 2.85147,-1.42095 8.58437,-5.75865 12.73976,-9.63933 l 7.55527,-7.05579 -2.28902,-2.43655 c -1.78032,-1.89507 -2.94049,-2.30626 -5.2205,-1.85025 -4.08073,0.81614 -4.24087,1.23025 -1.57362,4.0694 1.28971,1.37283 1.89493,2.49606 1.34493,2.49606 -0.55,0 -2.05688,-1.125 -3.34863,-2.5 -2.12754,-2.26466 -7,-3.51592 -7,-1.79761 0,0.38632 1.43174,2.17958 3.18165,3.98502 1.7499,1.80545 2.87021,3.59406 2.48957,3.97471 C 367.78235,166.55098 362,161.04773 362,159.31291 362,158.59081 361.1,158 360,158 c -2.86675,0 -2.52481,0.88956 2.18763,5.69118 2.3032,2.34679 3.86707,4.58746 3.47526,4.97926 -0.3918,0.39181 -3.12791,-1.67316 -6.08024,-4.58882 -4.11585,-4.06472 -5.7439,-5.09076 -6.98002,-4.399 -1.36866,0.76595 -1.00732,1.49279 2.39262,4.81274 5.78064,5.64465 4.93955,6.65272 -0.95241,1.14148 -3.20777,-3.00049 -5.85453,-4.63684 -7.5,-4.63684 -1.39856,0 -2.50622,0.3375 -2.46145,0.75 0.0448,0.4125 2.48314,2.775 5.41861,5.25 5.05876,4.26522 6.43761,6.00562 4.75,5.99551 -0.4125,-0.002 -3.52215,-2.47748 -6.91033,-5.5 C 343.9515,164.47298 340.49055,162 339.64869,162 c -3.4089,0 -2.3434,2.08101 3.59766,7.02652 3.43951,2.86313 6.40365,5.60345 6.58698,6.08959 0.7762,2.05822 -1.78073,0.43304 -8.78502,-5.58374 -7.77974,-6.68288 -11.65646,-7.86701 -5.88522,-1.79761 11.00501,11.57357 16.25598,13.35233 25.62872,8.6817 z M 261.88457,169.4474 C 373.62172,148.94681 418.05791,139.26341 452,128.01802 c 9.625,-3.18888 18.85,-6.34831 20.5,-7.02096 l 3,-1.22301 -5.5,-1.94262 C 456.30675,112.99493 434.52564,108.61076 371.5,98.005038 348.4,94.117855 322.075,89.563631 313,87.884541 282.73628,82.285035 220.05009,78.852611 183.99024,80.820525 141.35552,83.147253 114.47641,89.373849 77.5,105.48919 c -10.688015,4.65813 -50.393477,23.30504 -51.391663,24.1351 -0.500254,0.416 2.619228,3.10309 11.391663,9.81264 14.663188,11.21507 35.115548,20.89068 58.168651,27.51844 17.229259,4.95341 16.292019,4.99447 21.634779,-0.94796 9.28358,-10.32558 13.42383,-20.4154 18.67345,-45.50741 4.12954,-19.73825 3.76567,-18.71214 6.35377,-17.91756 1.19314,0.36631 2.25565,0.73391 2.36113,0.8169 0.10548,0.083 -0.67047,3.96458 -1.72433,8.62577 -2.96275,13.10417 -3.3959,12.70839 7.78255,7.11106 15.07808,-7.54997 23.47453,-10.27972 33.25,-10.80981 10.41113,-0.56457 14.46095,1.09555 17.5,7.17364 1.71394,3.42788 1.99232,5.93092 1.94629,17.5 -0.0551,13.83719 -1.06325,19.55574 -5.57254,31.60789 C 195.39519,171.23242 190.87787,176 187.07963,176 c -7.89718,0 -22.93127,-7.59703 -39.57963,-20.00038 -6.6,-4.91713 -12.28864,-8.9536 -12.64142,-8.96993 -0.35278,-0.0163 -1.37865,1.81282 -2.2797,4.06478 -2.13611,5.33865 -8.00215,14.5782 -11.77612,18.54846 l -2.98755,3.14294 7.3424,1.61581 c 5.42699,1.1943 16.34234,1.83117 41.84239,2.44133 18.975,0.45404 37.59805,0.9001 41.38457,0.99126 4.91494,0.11831 20.22087,-2.2811 53.5,-8.38687 z M 90.061664,131.17273 c -6.540166,-3.50752 -8.97816,-12.51733 -5.105667,-18.8684 5.520519,-9.05391 16.861973,-9.25632 22.774073,-0.40645 4.24283,6.35113 2.03554,14.83563 -4.97093,19.10752 -4.064445,2.47812 -8.285049,2.53375 -12.697476,0.16733 z m 101.395196,35.4911 c 4.42469,-7.55017 6.77884,-18.66468 6.91846,-32.66383 0.13836,-13.87181 -1.04742,-18.54464 -5.09659,-20.08413 -3.69535,-1.40497 -13.30609,-1.08987 -19.34723,0.63433 -5.5294,1.57814 -29.20921,12.50542 -28.54313,13.1715 0.20096,0.20096 7.42503,-2.17497 16.05349,-5.27984 8.62846,-3.10487 15.95886,-5.37447 16.28979,-5.04354 0.88833,0.88833 1.29608,0.71962 -19.50756,8.07135 -10.60175,3.74652 -19.11545,6.97231 -18.91933,7.16842 0.19612,0.19612 11.10575,-2.76925 24.24363,-6.5897 21.09014,-6.13296 26.00062,-7.26406 24.34412,-5.60757 -0.24245,0.24245 -11.45495,3.65594 -24.91666,7.58554 -22.66045,6.61479 -29.87685,9.08647 -22.47585,7.69817 30.41313,-5.70497 56.12888,-9.28715 53.41667,-7.4409 -0.22917,0.156 -12.34167,2.25682 -26.91667,4.66849 -14.575,2.41167 -27.4,4.77005 -28.5,5.24085 -1.13319,0.485 10.02696,0.6182 25.75,0.30733 18.62727,-0.36829 27.75,-0.21197 27.75,0.47552 0,0.65834 -6.69762,1.06593 -18.75,1.14106 -10.3125,0.0643 -21.675,0.40179 -25.25,0.75 -5.77891,0.56288 -3.89521,0.88973 16.97979,2.94624 12.91388,1.27222 23.67638,2.50972 23.91666,2.75 1.32051,1.3205 -2.65516,1.14171 -24.44351,-1.09928 C 151.27882,144.10885 139.825,143.01818 139,143.04015 c -2.39927,0.0639 3.11923,2.63502 7,3.2614 11.93763,1.92682 39.74473,6.97753 41,7.44698 1.29355,0.48378 1.28064,0.61445 -0.0938,0.94948 -1.34866,0.32873 -33.32003,-4.78154 -39.40616,-6.29864 -1.61333,-0.40215 -1.46396,-0.0432 0.77257,1.85661 1.92835,1.63803 7.03583,3.39046 16.77382,5.75529 7.70068,1.87007 14.53999,3.7331 15.19846,4.14006 3.07594,1.90103 -0.76478,1.49829 -11.27529,-1.18233 -13.40262,-3.41823 -12.24115,-3.21746 -11.47893,-1.98416 0.97291,1.5742 13.95421,9.01025 20.24694,11.59801 8.63336,3.55029 10.68199,3.26373 13.71929,-1.91902 z m 317.63135,-47.99649 c 1.97426,-18.792036 3.52093,-34.270976 3.43704,-34.397643 -0.0839,-0.126667 -13.10219,4.647032 -28.92955,10.60822 -19.06663,7.181213 -28.18638,11.065173 -27.02663,11.510213 1.04739,0.40192 10.34648,-2.19352 23.1533,-6.462251 11.77159,-3.92367 21.67471,-6.862131 22.00693,-6.529913 0.33222,0.332219 0.41653,0.759475 0.18737,0.949458 C 501.6875,94.535407 492.5,97.610509 481.5,101.17898 l -20,6.48814 3.88532,1.1232 c 3.54307,1.02425 5.23869,0.68655 19.24871,-3.83356 15.62411,-5.040878 17.87542,-5.590082 16.98071,-4.14242 -0.27681,0.44789 -6.83922,2.77703 -14.58314,5.17587 -7.74392,2.39884 -13.7315,4.67097 -13.30573,5.04918 0.42577,0.37821 2.22341,1.17105 3.99475,1.76187 2.67538,0.89235 5.10782,0.56859 14.3678,-1.91239 6.13094,-1.64264 11.39416,-2.73962 11.69604,-2.43774 0.89054,0.89054 0.16511,1.17098 -9.58991,3.70729 -5.118,1.33069 -9.168,2.85191 -9,3.3805 0.172,0.5412 4.78354,0.91738 10.55545,0.86104 5.6375,-0.055 10.25,0.24642 10.25,0.66986 0,0.42344 -4.5,1.08893 -10,1.47886 -7.45997,0.52888 -10,1.05725 -10,2.08014 0,0.91626 1.24414,1.37406 3.75,1.37987 5.69985,0.0132 14.25,1.18403 14.25,1.95134 0,0.37479 -3.79855,0.48207 -8.44123,0.23839 C 486.80626,123.73903 480,124.48856 480,125.91181 c 0,0.45165 4.96138,1.39264 11.02529,2.0911 6.06392,0.69846 11.26547,1.65854 11.55902,2.13351 0.72839,1.17855 -0.63826,1.10684 -14.05171,-0.73726 -10.92329,-1.50175 -19.19687,-1.28299 -18.10802,0.47881 0.26409,0.4273 7.25159,2.2923 15.52779,4.14445 8.2762,1.85214 15.04763,3.72979 15.04763,4.17255 0,1.13454 0.281,1.18263 -18.32296,-3.13524 -15.33161,-3.55838 -17.14894,-3.78795 -20.5,-2.58959 -4.4207,1.58085 -5.62844,1.03467 17.73925,8.02219 10.12896,3.0288 18.64146,5.73209 18.91667,6.00729 1.69487,1.69488 -2.67395,0.67428 -21.85064,-5.10449 -13.41101,-4.04132 -22.37202,-6.25268 -23.85032,-5.88568 -1.3024,0.32334 -2.15932,0.79656 -1.90428,1.0516 0.87111,0.87111 53.27085,17.16158 53.7716,16.71697 0.27463,-0.24383 2.11463,-15.81864 4.08889,-34.61068 z M 375.09918,89.380496 c 2.95976,-3.566291 -20.07709,-21.376798 -27.6534,-21.379707 -2.86136,-0.0011 -10.10278,4.876137 -15.40399,10.37488 -6.20258,6.433705 -3.00049,5.889196 5.14954,-0.875669 3.6444,-3.025 6.89224,-5.5 7.21743,-5.5 1.68745,0 -0.0217,1.989385 -5.54328,6.452028 -5.63195,4.55187 -5.95905,5.027 -4.04782,5.879815 1.73837,0.775682 3.15334,-0.01521 8.6308,-4.824149 7.31647,-6.423503 9.10389,-5.901558 2.05154,0.599071 C 340.43193,84.778349 339.97526,86 343.29705,86 c 1.36225,0 3.8866,-1.627838 6.20295,-4 2.14824,-2.2 4.35826,-4 4.91116,-4 0.55289,0 -0.98213,2.025 -3.41116,4.5 -4.20929,4.288956 -4.29917,4.5 -1.91642,4.5 1.63841,0 4.0074,-1.53592 6.87386,-4.456639 2.40563,-2.451151 4.79142,-4.198576 5.30176,-3.883168 0.51034,0.315409 -1.0079,2.545896 -3.37386,4.956639 C 354.3069,87.262995 353.92342,88 355.6047,88 c 1.11162,0 3.3145,-1.35 4.8953,-3 1.5808,-1.65 3.32827,-3 3.88326,-3 0.55499,0 -0.51748,1.575 -2.38326,3.5 l -3.39233,3.5 h 2.88171 c 1.58495,0 3.92322,-0.978441 5.19617,-2.174314 C 367.9585,85.629813 369,85.153256 369,85.766669 c 0,0.613413 -0.45,1.393412 -1,1.733331 -1.54548,0.95516 -1.18531,2.304925 0.75,2.810674 3.43789,0.898416 5.02449,0.665974 6.34918,-0.930178 z M 306.03443,76.935662 c 0.906,-1.692866 0.66653,-2.637587 -1.33074,-5.25 C 297.01466,61.628511 286.0131,51.611941 278.29966,47.645636 276.53947,46.740536 273.10491,46 270.66731,46 c -3.87474,0 -4.97127,0.534392 -8.72068,4.25 C 257.98447,54.176439 246,71.44007 246,73.22112 246,73.649504 247.27704,74 248.83787,74 c 2.52206,0 3.65772,-1.272232 10.20505,-11.432293 4.05194,-6.28776 7.70756,-11.221916 8.1236,-10.96479 0.41604,0.257127 -2.19628,5.032264 -5.80516,10.611416 C 253.21082,74.814666 253.1375,75 256.30284,75 c 2.10928,0 3.51758,-1.619257 8.69716,-10 3.39919,-5.5 6.61632,-10 7.14919,-10 0.53286,0 0.76812,0.3375 0.5228,0.75 -0.24532,0.4125 -2.96229,4.9125 -6.0377,10 L 261.04264,75 h 2.85438 c 2.54299,0 3.42105,-0.981849 8.0486,-9 2.85681,-4.95 5.64577,-9 6.19768,-9 0.88724,0 -1.76192,5.239396 -7.33153,14.5 -2.34571,3.900208 -2.27929,4.708047 0.35512,4.319551 1.48456,-0.218929 3.74814,-2.899235 7.18859,-8.512012 2.76193,-4.505854 5.37706,-7.972837 5.81139,-7.704407 0.43433,0.26843 -1.45362,4.067538 -4.19544,8.442461 -4.66302,7.440426 -4.83931,7.95332 -2.72828,7.937578 1.68625,-0.01257 3.42731,-1.807537 6.88632,-7.099528 2.54621,-3.895485 4.88477,-6.669622 5.1968,-6.16475 0.31202,0.504871 -1.19766,3.575739 -3.35485,6.824149 -2.73073,4.112066 -3.60167,6.217682 -2.86708,6.93158 0.72899,0.708459 2.34403,-0.445244 5.22538,-3.732758 5.1749,-5.904375 6.9373,-6.224551 2.70744,-0.491864 l -3.13586,4.25 2.7492,0.335707 c 2.03599,0.248617 3.23784,-0.335088 4.63276,-2.25 2.4259,-3.330225 4.47414,-3.390593 2.2969,-0.0677 -1.73514,2.648147 -1.61575,2.803832 2.91984,3.807439 3.77486,0.83528 4.43192,0.670283 5.53443,-1.389787 z M 164.97582,61.155148 c 2.82831,-7.510331 5.84845,-15.558565 6.71143,-17.884964 0.86298,-2.326399 1.89396,-4.02901 2.29107,-3.78358 0.39712,0.24543 -2.10789,8.223847 -5.56667,17.729816 -6.47999,17.8093 -6.56759,18.933963 -1.31925,16.938551 1.97313,-0.750183 3.47522,-3.599505 7.92122,-15.025799 3.01751,-7.755039 5.82388,-14.106618 6.23638,-14.114621 1.25008,-0.02425 0.93931,0.985657 -4.61134,14.985449 -4.10211,10.34629 -5.02186,13.578159 -3.93717,13.834574 3.04199,0.719102 4.4956,-1.24226 10.93835,-14.759141 3.67018,-7.700047 7.04931,-13.76755 7.50917,-13.48334 0.45986,0.28421 -0.12729,2.404757 -1.30478,4.712327 -1.17749,2.307569 -4.07305,8.35808 -6.43457,13.44558 L 179.11599,73 h 2.78793 c 2.57545,0 3.26797,-0.971721 9.08665,-12.75 3.4643,-7.0125 6.4838,-12.224513 6.71,-11.582252 0.22619,0.642261 -0.96389,3.891918 -2.64464,7.22146 -1.68075,3.329541 -4.15615,8.541555 -5.50089,11.582252 L 187.11006,73 h 2.28108 c 1.88063,0 3.21435,-1.799394 7.59737,-10.25 6.01619,-11.599441 5.81593,-11.278892 6.57325,-10.521572 0.30897,0.308969 -1.72013,5.108969 -4.50912,10.666667 L 193.98177,73 h 5.86979 5.86979 l 3.19797,-6 c 1.75888,-3.3 3.62915,-6 4.15617,-6 0.52701,0 -0.2843,2.3625 -1.80291,5.25 -1.51862,2.8875 -2.9137,5.5875 -3.10018,6 -0.18649,0.4125 1.21884,0.75 3.12295,0.75 2.90387,0 3.66235,-0.483656 4.70465,-3 0.68345,-1.65 1.68619,-3 2.22831,-3 0.54212,0 0.71252,0.675 0.37868,1.5 -0.33385,0.825 -0.88013,2.175 -1.21398,3 -0.48725,1.204108 0.30179,1.5 4,1.5 C 223.92686,73 226,72.730396 226,72.400881 226,70.641229 214.53808,52.70254 210.65216,48.380463 202.8946,39.752191 189.06788,34.049265 175.82262,34.014781 L 170.14524,34 l -2.47773,5.25 c -2.73939,5.804425 -10.26849,28.106141 -11.24377,33.304812 -0.55523,2.959634 -0.40782,3.253786 1.39441,2.782492 1.53138,-0.400466 3.25003,-3.80579 7.15767,-14.182156 z"
         id="path1593" />
    </g>
  </g>
</svg>
