<?xml version="1.0" encoding="UTF-8" standalone="no"?>
<!-- Created with Inkscape (http://www.inkscape.org/) -->

<svg
   version="1.1"
   id="svg1818"
   width="222.81592"
   height="251.76521"
   viewBox="0 0 222.81592 251.76521"
   sodipodi:docname="き.png"
   xmlns:inkscape="http://www.inkscape.org/namespaces/inkscape"
   xmlns:sodipodi="http://sodipodi.sourceforge.net/DTD/sodipodi-0.dtd"
   xmlns="http://www.w3.org/2000/svg"
   xmlns:svg="http://www.w3.org/2000/svg">
  <defs
     id="defs1822" />
  <sodipodi:namedview
     id="namedview1820"
     pagecolor="#ffffff"
     bordercolor="#000000"
     borderopacity="0.25"
     inkscape:showpageshadow="2"
     inkscape:pageopacity="0.0"
     inkscape:pagecheckerboard="0"
     inkscape:deskcolor="#d1d1d1"
     showgrid="false" />
  <g
     inkscape:groupmode="layer"
     inkscape:label="Image"
     id="g1824"
     transform="translate(-15.666054,-17.179123)">
    <g
       id="g1828"
       inkscape:export-filename="..\all_svg\き.svg"
       inkscape:export-xdpi="96"
       inkscape:export-ydpi="96">
      <path
         style="fill:#afafaf"
         d="m 88.811419,224.891 c -25.128084,-2.42561 -39.026771,-8.65136 -47.267546,-21.17295 -4.349771,-6.60933 -5.935172,-13.01817 -5.322684,-21.51646 0.97098,-13.47237 9.46379,-24.12527 25.278811,-31.7083 14.008872,-6.71701 19.683957,-7.77609 45.1567,-8.42706 12.18619,-0.31143 21.94713,-0.22873 21.69099,0.18377 -0.25615,0.4125 -0.072,0.75 0.40915,0.75 0.48118,0 1.86021,1.75317 3.06451,3.89593 l 2.18964,3.89593 -3.7555,-0.84803 c -18.63419,-4.20779 -37.130389,-0.17848 -47.46681,10.34042 -2.278436,2.31866 -3.781624,3.60504 -3.340416,2.85862 1.033044,-1.74768 -1.755879,-0.96924 -9.954934,2.77862 -16.118708,7.36799 -20.720039,22.9784 -9.544845,32.38171 3.628475,3.05316 13.750368,7.00881 16.257078,6.3533 C 77.192503,204.3984 78,204.53175 78,204.95283 c 0,1.67945 8.249839,9.99675 12.734433,12.83857 6.886871,4.36411 13.483577,6.31212 24.265567,7.16565 l 9.5,0.75204 -13.5,0.0103 c -7.425,0.006 -17.409862,-0.36711 -22.188581,-0.8284 z m 58.785751,-4.00871 c -0.40142,-2.51036 -1.44795,-4.39364 -3.01041,-5.4174 -2.15438,-1.4116 -2.98257,-1.41847 -8.24092,-0.0684 -18.82431,4.83324 -35.14529,2.10063 -46.84584,-7.84336 l -3,-2.54963 3,1.52552 c 1.833994,0.9326 5.332011,1.46948 9,1.38133 3.3,-0.0793 7.35,0.43583 9,1.14473 4.66553,2.00449 16.27613,1.76739 21,-0.42884 2.43329,-1.13129 5.95839,-1.80496 9,-1.71997 2.75,0.0768 8.825,-0.49376 13.5,-1.268 4.675,-0.77424 8.69116,-1.23094 8.9248,-1.01488 0.48686,0.45023 -1.44349,18.25437 -2.03513,18.77051 -0.21432,0.18697 -2.47936,0.56416 -5.03342,0.83819 l -4.64375,0.49824 -0.61533,-3.84808 z m -2.55465,-56.60183 c -3.60748,-1.15725 11.05363,2.1519 13.70748,1.27814 0.9625,-0.3169 3.02492,-4.03796 5.09767,-7.88312 2.07276,-3.84517 3.54443,-7.01752 4.01,-7.01752 0.46558,0 3.0583,1.2747 4.50747,2.41462 2.46476,1.93878 -4.50411,-0.20318 -4.43026,-1.9081 0.0434,-1.00242 6.47086,2.4257 6.73398,3.07031 0.57751,1.41486 -8.74862,15.7536 -10.16886,15.6406 -0.55,-0.0438 -17.66998,-5.02151 -19.45748,-5.59493 z M 143.5,163.83412 c -10.37451,-2.80834 -24.76412,-4.80792 -35.5,-4.93308 -9.282335,-0.10821 -9.408351,-0.14095 -5.5,-1.42904 10.65628,-3.51203 31.9989,-0.29155 48.81553,7.20517 4.54223,2.02489 0.92211,1.5222 -7.81553,-0.84305 z m 5.4044,-7.97656 c -4.46121,-1.92264 -4.91207,-2.54723 -15.41871,-21.36031 -10.18859,-18.24358 -10.97445,-19.35291 -13.40441,-18.92174 -1.4197,0.25192 -18.55628,2.27467 -38.08128,4.495 -19.525,2.22034 -37.33887,4.28886 -39.586379,4.59673 l -4.086379,0.55975 -1.740541,-6.20324 C 35.629403,115.61197 34.993273,112.6908 35.17308,112.53227 35.352886,112.37375 46.975,111.0553 61,109.60238 96.504753,105.92429 95.153664,106.15564 93.976318,103.95575 93.439343,102.9524 93,101.92932 93,101.68224 c 0,-0.24709 2.958043,-0.76603 6.573428,-1.1532 4.367932,-0.46777 6.421422,-1.094007 6.120382,-1.866497 -0.24917,-0.639399 -2.64471,-6.033371 -5.32343,-11.986606 L 95.5,75.851874 89,76.529928 c -3.575,0.372929 -9.156232,1.044571 -9.492193,1.583491 -0.35096,0.562983 1.539294,0.451707 1.227025,-0.362052 -0.464566,-1.21064 -2.83715,-1.145715 -16.337416,0.447066 -8.686657,1.024865 -16.291334,1.672516 -16.899281,1.439225 -1.262487,-0.484462 -3.842149,-10.625338 -2.934907,-11.537376 0.32842,-0.330155 11.582743,-1.534478 25.009607,-2.676273 13.426864,-1.141794 24.715956,-2.379467 25.086872,-2.750382 0.370915,-0.370916 -2.607585,-8.342415 -6.618891,-17.714443 -4.011305,-9.372028 -7.123977,-17.154964 -6.917049,-17.295413 0.206928,-0.140449 2.765787,-0.989533 5.686353,-1.886854 l 5.310121,-1.631493 2.633462,6.177288 c 1.448404,3.397508 6.933847,14.800399 12.189877,25.339757 5.25603,10.539357 23.80918,41.314656 21.60923,41.687819 -1.28164,0.217396 -14.90949,-24.777058 -8.07887,-16.980243 10.69088,12.203119 1.12406,2.32164 2.08349,2.572536 0.95604,0.25001 10.95628,18.272589 12.7042,21.398949 1.74792,3.12635 0.44863,2.73035 2.8776,6.52203 1.8354,2.86511 12.45787,22.56641 10.92112,21.97671 -1.44538,-0.55465 -3.62175,-10.15555 -1.719,-7.58194 1.27119,1.71937 -6.67595,-6.55153 -6.25142,-6.81391 0.42453,-0.26237 -0.0339,-0.68689 0.36413,-0.0429 0.47801,0.77343 12.57474,12.68854 11.72638,12.16422 -0.8614,-0.53237 -6.19204,-3.90761 -5.98178,-2.93878 0.45567,2.09961 -2.6015,-5.83598 -2.03925,-6.71746 0.36392,-0.57054 0.0466,0.47983 0.35823,1.06132 2.47617,4.62027 -1.12475,0.17408 0.36151,1.55149 1.48628,1.37741 3.27259,6.95778 2.77977,6.9662 -0.49281,0.008 -1.216,-3.75702 -0.57806,-3.35111 0.63793,0.4059 3.48013,6.5439 6.83051,11.64625 l 6.0916,9.27699 -2.51833,4.96969 c -1.38508,2.73332 -3.07325,4.93326 -3.75149,4.88874 -0.67823,-0.0445 -3.30117,-0.97219 -5.82875,-2.0615 z M 20.457727,128.33778 c 0,0 -0.0067,0.0528 -0.150273,-0.42923 -0.192593,-0.64662 -2.344108,-8.77962 -3.356265,-12.42977 -1.747814,-6.09268 -1.982255,-4.79425 1.003852,-5.00872 12.406739,-0.89108 12.19118,-0.55027 4.583527,-0.37715 l 4.277323,-3.5e-4 0.633798,4.28979 c 0.590669,3.99787 9.310538,12.39517 9.546622,13.02439 0.411566,1.09692 -17.956987,0.93104 -16.538582,0.93104 z M 143.35337,106.64464 c -1.73065,-2.82955 -4.09402,-6.758264 -5.25192,-8.730471 l -2.68411,-2.691274 6.83075,-1.10336 c 6.45751,-1.043072 24.97736,-3.991119 35.25191,-7.212533 3.3,-1.03466 6.28263,-1.887005 6.62807,-1.894101 C 184.47352,85.005806 185.76588,87.7 187,91 c 1.23412,3.3 3.55015,7.089077 3.48068,7.033009 -0.266,-0.2147 0.0842,-0.138679 -0.035,0.05983 -0.35503,0.591164 -5.66255,1.791005 -5.92734,1.52622 -0.26478,-0.264784 2.82969,-0.826788 1.01004,-0.06649 -1.81966,0.760301 -9.54545,2.985201 -17.16844,4.944211 -11.4949,2.95405 -18.52476,4.90548 -22.78075,7.13573 -0.275,0.1441 -0.49522,-2.15832 -2.22586,-4.98787 z M 22.626781,80.891704 c -0.778482,0.03256 -1.143057,0.134613 -0.746686,0.04521 -0.203733,-1.005551 -1.584461,-9.711525 -3.013414,-14.722868 -0.274373,-0.962227 1.717653,-1.339834 7.913077,-1.5 L 35.059516,64.5 l 1.034258,4 c 0.568842,2.2 1.452941,5.575 1.964665,7.5 0.511724,1.925 2.248443,3.750613 2.25151,4.121232 -16.866771,0.737036 -15.557671,0.681573 -17.683168,0.770472 z m 96.665109,-17.267215 -5.71659,-6.924371 0.31365,-0.425246 c 8.28057,-0.538669 38.61164,-8.75657 40.45929,-9.21533 0.11121,-0.109194 -0.0869,0.06253 6.5e-4,-0.03114 -0.24622,-0.170396 0.50226,4.109103 1.50724,6.721603 3.46797,9.015259 3.53225,9.566743 1.14359,9.811793 -4.88248,0.500889 -32.27413,6.498247 -33.92395,7.624392 -6.1036,2.797039 -4.48054,-1.099643 -4.04462,-5.143131 z"
         id="path1832"
         sodipodi:nodetypes="sssssssscsssssssssccsscscscssssssssscccssssssssssssssssssscsssssssscssssssssssscsssssssssssssssscsscsssssscscssssscssssssssssssscscsscsscssccsssccss" />
      <path
         style="fill:#070707"
         d="m 178,267.11426 c -8.79216,-2.84257 -14.0181,-5.97159 -20.02365,-11.98907 -6.37129,-6.38396 -10.31239,-12.63488 -13.55893,-21.50562 -1.23181,-3.36576 -2.69244,-7.28848 -3.24584,-8.71715 l -1.00618,-2.59758 -6.3327,1.32674 c -7.7752,1.62895 -20.9293,1.74806 -28.03348,0.25383 C 92.866781,221.16533 82.188033,213.18828 76.780574,202.20843 73.734367,196.0231 73.5,194.83112 73.5,185.52361 c 0,-8.93629 0.301492,-10.63755 2.77935,-15.68327 8.62573,-17.56479 29.75969,-25.36489 53.93419,-19.90597 l 3.71354,0.83856 -4.14024,-7.63646 c -2.27714,-4.20006 -4.73573,-8.5241 -5.46354,-9.60898 C 123.59548,132.44262 123,130.8158 123,129.91235 c 0,-0.90345 -0.89238,-2.77711 -1.98307,-4.1637 -2.45075,-3.11562 -2.05638,-3.134 -50.151096,2.3374 -19.048792,2.16704 -35.285248,3.69024 -36.081014,3.38487 C 31.905503,130.36602 24.677464,108.8482 26.590592,107.07676 27.090766,106.61363 37.175,105.27648 49,104.10533 c 11.825,-1.17116 24.316377,-2.65729 27.758617,-3.30252 6.821061,-1.27858 6.921511,-1.500984 3.614698,-8.00315 C 79.617992,91.314473 79,89.471717 79,88.704647 79,87.937578 78.2125,86.641978 77.25,85.825538 75.460991,84.308011 69.77716,84.454335 49.272903,86.545775 42.702394,87.215969 41.991667,87.1111 41.449905,85.391471 41.122159,84.351162 40.455697,82.74878 39.968877,81.830622 39.482057,80.912463 38.137661,76.45578 36.981331,71.92688 35.253635,65.160163 35.112495,63.4759 36.189456,62.477167 36.983387,61.740905 45.581048,60.586478 58,59.548618 69.275,58.606359 79.891463,57.606802 81.59214,57.32738 L 84.684279,56.819339 81.927243,48.65967 C 80.410873,44.171851 77.576311,36.79295 75.628216,32.262111 72.409975,24.777194 72.24224,23.943151 73.793112,23.137274 76.67997,21.637182 93.963993,16.821331 95.10087,17.20029 c 0.589176,0.196392 4.642818,8.201141 9.00809,17.78833 4.36528,9.58719 8.77087,18.349283 9.79021,19.471317 1.85664,2.04369 12.64663,23.022865 15.15704,29.470104 0.73457,1.886523 2.72666,5.261523 4.42686,7.5 C 137.76662,97.069735 151,118.9165 151,120.34844 c 0,1.33066 7.48672,12.4805 11.70923,17.43835 l 2.79929,3.28678 5.99574,-5.57496 c 12.23652,-11.37775 20.8849,-15.7104 31.60638,-15.8341 12.79846,-0.14767 25.53999,9.00174 32.18617,23.11216 2.77197,5.88514 3.16904,7.78301 3.18498,15.22333 0.0204,9.52038 -1.93181,14.96992 -8.92887,24.92471 -3.63075,5.16551 -3.69461,5.40673 -2.23597,8.44633 3.62526,7.55455 7.62697,17.47549 8.69786,21.5635 1.62542,6.20489 1.44659,16.96933 -0.38635,23.25603 -6.6888,22.94153 -35.12349,38.19971 -57.62846,30.92369 z m 30.24075,-8.83366 c 17.40128,-8.17528 26.04199,-25.93552 21.40943,-44.00527 -1.59718,-6.23 -6.2552,-16.43983 -9.77684,-21.4297 -2.88957,-4.09429 -2.31211,-6.66914 2.6966,-12.02386 2.51347,-2.6871 5.71749,-7.39221 7.12005,-10.45579 2.24497,-4.90367 2.49633,-6.54506 2.10076,-13.71807 -0.73445,-13.31778 -7.19305,-23.19585 -18.57247,-28.40552 -10.29027,-4.71104 -22.00393,-1.86071 -32.76281,7.9723 -5.3431,4.88329 -14.54676,17.63126 -18.00455,24.93805 -2.80474,5.9268 -4.97332,6.27402 -14.6242,2.34156 -12.05882,-4.91363 -19.08498,-6.60438 -29.97358,-7.21276 -8.11283,-0.45329 -10.79785,-0.1894 -16.885,1.65952 -16.824048,5.11015 -25.103754,21.9305 -18.924633,38.44568 6.590001,17.61335 29.078773,25.48607 54.302333,19.00979 8.26227,-2.12139 9.89523,-0.90538 12.10155,9.0116 3.87445,17.41492 13.72891,29.82468 28.36588,35.72127 3.73136,1.5032 6.72518,1.82998 14.68673,1.60307 8.808,-0.25103 10.8035,-0.66249 16.74075,-3.45187 z m -24.27137,-9.81654 c -5.65975,-1.74472 -12.36116,-7.39121 -15.21688,-12.82151 -3.01802,-5.73889 -3.0155,-15.55087 0.005,-21.29582 7.88598,-14.99672 29.70568,-17.72923 42.15568,-5.27923 4.29625,4.29625 6.15824,8.22191 6.78032,14.29502 0.73093,7.13582 -1.00521,12.57342 -5.7273,17.93801 -6.77,7.69112 -17.43431,10.41974 -27.99729,7.16353 z m 16.70792,-7.54989 c 10.2939,-4.98319 12.97447,-17.2324 5.67061,-25.91255 -8.29803,-9.86165 -23.73752,-9.01842 -29.9823,1.63749 -2.17428,3.71012 -2.53213,5.33932 -2.15958,9.83182 1.06183,12.80428 14.59908,20.19047 26.47127,14.44324 z M 110.11962,209.84743 C 92.5072,204.78215 85.416318,184.21982 96.725687,171.00737 c 5.470443,-6.39099 10.311743,-8.46959 19.774313,-8.49006 6.98319,-0.0151 8.66783,0.35272 13.25433,2.89398 14.76216,8.17932 17.73393,26.1255 6.23816,37.67151 -6.92682,6.9571 -16.50032,9.46015 -25.87287,6.76463 z m 12.98367,-6.8595 c 8.27166,-2.2977 14.04644,-12.24008 11.81124,-20.3353 -1.27963,-4.63444 -6.36265,-10.52409 -10.61679,-12.30159 -4.49565,-1.8784 -11.04256,-1.65008 -15.89667,0.55439 -11.139195,5.05882 -12.724141,21.16995 -2.82537,28.72011 5.42244,4.13589 10.9356,5.19351 17.52759,3.36239 z m 71.69992,-21.33902 C 178.7018,177.14871 170.87887,160.99033 178.02825,147 c 9.1758,-17.95574 37.97583,-17.07233 46.59098,1.42914 4.5608,9.79455 2.51257,20.73591 -5.13952,27.45453 -6.87009,6.03202 -16.04907,8.17653 -24.6765,5.76524 z m 17.2335,-9.05451 c 4.9638,-3.28488 8.39673,-10.32616 7.67131,-15.73459 C 218.47653,147.67831 210.56771,141 200.92599,141 c -19.05227,0 -24.70047,23.85152 -7.69049,32.47583 6.42365,3.25689 13.01473,2.94789 18.80121,-0.88143 z m -53.52799,-19.61162 2.54242,-5.01721 -3.87483,-5.73279 C 135.85401,110.68658 107.13523,59.189135 94.766991,30.322712 l -2.64675,-6.177288 -5.310121,1.631493 c -2.920566,0.897321 -5.479425,1.746405 -5.686353,1.886854 -0.206928,0.140449 2.905744,7.923385 6.917049,17.295413 4.011306,9.372028 6.989806,17.343527 6.618891,17.714443 -0.370916,0.370915 -11.660008,1.608588 -25.086872,2.750382 -13.426864,1.141795 -24.681187,2.346118 -25.009607,2.676273 -0.907242,0.912038 1.67242,11.052914 2.934907,11.537376 0.607947,0.233291 8.204964,-0.413456 16.88226,-1.437217 l 15.776901,-1.861382 7.374279,14.723986 7.374279,14.723985 -4.202927,0.58685 C 88.391317,106.69664 75.025,108.14947 61,109.60238 c -14.025,1.45292 -25.647114,2.77137 -25.82692,2.92989 -0.179807,0.15853 0.456323,3.0797 1.413621,6.49148 l 1.740541,6.20324 4.086379,-0.55975 C 44.66113,124.35937 62.475,122.29085 82,120.07051 c 19.525,-2.22033 36.66158,-4.24308 38.08128,-4.495 2.42996,-0.43117 3.21582,0.67816 13.40441,18.92174 10.50664,18.81308 10.9575,19.43767 15.41871,21.36031 2.52758,1.08931 5.15052,2.01699 5.82875,2.0615 0.67824,0.0445 2.37725,-2.17681 3.77557,-4.93628 z"
         id="path1830" />
    </g>
  </g>
</svg>
