<?xml version="1.0" encoding="UTF-8" standalone="no"?>
<!-- Created with Inkscape (http://www.inkscape.org/) -->

<svg
   version="1.1"
   id="svg1937"
   width="299.57684"
   height="285.92926"
   viewBox="0 0 299.57684 285.92926"
   sodipodi:docname="ã.png"
   xmlns:inkscape="http://www.inkscape.org/namespaces/inkscape"
   xmlns:sodipodi="http://sodipodi.sourceforge.net/DTD/sodipodi-0.dtd"
   xmlns="http://www.w3.org/2000/svg"
   xmlns:svg="http://www.w3.org/2000/svg">
  <defs
     id="defs1941" />
  <sodipodi:namedview
     id="namedview1939"
     pagecolor="#ffffff"
     bordercolor="#000000"
     borderopacity="0.25"
     inkscape:showpageshadow="2"
     inkscape:pageopacity="0.0"
     inkscape:pagecheckerboard="0"
     inkscape:deskcolor="#d1d1d1"
     showgrid="false" />
  <g
     inkscape:groupmode="layer"
     inkscape:label="Image"
     id="g1943"
     transform="translate(-17.627804,-29.070744)">
    <g
       id="g1947">
      <path
         style="fill:#aeaeae"
         d="m 294.93181,292.73836 c -12.6376,-13.87768 -41.3984,-41.83476 -42.48619,-41.83476 -0.48259,0 -5.49915,-5.5055 -7.78648,-7.46337 -4.15167,-3.55367 -6.91031,-6.57223 -7.64569,-4.26642 -0.50809,1.59312 0.21275,1.79492 0.54828,-0.53292 0.26756,-1.85625 2.70442,-3.82528 2.70442,-4.70093 0,-0.87564 8.647,9.49857 19.54084,20.34296 10.89385,10.8444 20.25385,19.71708 20.8,19.71708 1.67892,0 3.39301,-2.28919 3.39301,-4.53142 0,-1.47957 -9.78633,-11.69123 -32,-33.39075 -17.6,-17.19264 -32,-31.66038 -32,-32.15053 0,-0.49016 13.5,-15.36713 30,-33.05993 16.5,-17.6928 30,-32.91092 30,-33.81805 C 280,135.09883 278.1106,133 276.35474,133 c -0.68489,0 -9.02715,8.33583 -18.53835,18.52408 l -17.29308,18.52407 -2.02116,-4.26579 -2.02115,-4.26579 -4.04467,5.22636 c -1.40725,1.81839 -2.14585,1.14467 -1.66845,1.14388 1.65537,-0.003 43.54478,-45.18109 57.7241,-63.33975 3.67071,-4.700882 7.09836,-8.54706 7.617,-8.54706 0.51863,0 3.22307,1.6875 6.00985,3.75 2.78679,2.0625 6.26042,4.00079 6.68378,4.29846 0.35515,0.24972 0.37991,0.0626 -0.0456,0.52128 -0.4206,0.4534 -5.22918,6.65526 -9.80537,12.43026 -16.35377,20.63796 -44.37846,52.1977 -60.36363,67.97792 -4.72341,4.66286 -10.20165,12.68897 -10.71726,13.29255 -2.57283,3.0118 0.24632,-0.0572 -0.64538,0.92816 -2.90163,3.20627 1.05734,5.70817 21.26453,24.50081 29.21469,27.16956 68.86851,69.47175 68.5101,69.67527 -0.0537,0.0305 0.72278,-0.37563 -0.43919,0.32021 -0.46207,0.2767 -3.42396,1.58758 -6.57548,4.31779 l -5.73003,4.96401 z M 220.3392,220.95606 C 207.90384,209.70203 206,206.96197 206,200.31866 c 0,-6.0089 2.8323,-10.44737 13.7122,-21.48821 C 225.58212,172.8737 230.6578,168 230.9915,168 c 0.70548,0 3.0085,6.04748 3.0085,7.89998 0,0.69189 -5.0625,6.66555 -11.25,13.27478 -8.96402,9.57501 -11.20621,12.54579 -11.03448,14.62011 0.15083,1.8218 3.40452,5.80222 10.83854,13.25935 7.92632,7.95099 13.73093,15.36542 13.47833,16.95148 -0.28823,1.80984 -5.33923,-3.67929 -15.69319,-13.04964 z"
         id="path1951"
         sodipodi:nodetypes="ssssssssssssssscccscssssssssssssscsssssssssss" />
      <path
         style="fill:#060606"
         d="m 204.81079,313.38222 c -1.49037,-1.49037 -1.34943,-1.96932 1.78954,-6.0816 12.35423,-16.18492 20.89682,-37.58813 24.86585,-62.30062 2.72761,-16.98298 3.06533,-15.93107 -9.00066,-28.03458 -7.36549,-7.38841 -10.59931,-11.35038 -10.75,-13.17055 -0.17173,-2.07432 2.07046,-5.0451 11.03448,-14.62011 6.1875,-6.60923 11.25164,-12.83984 11.25365,-13.84578 0.002,-1.00594 -2.34022,-6.54948 -5.20493,-12.31899 -6.6051,-13.30261 -16.53123,-23.96516 -27.14762,-29.16172 L 194.8107,130.5 184.7999,107 c -5.50595,-12.925 -10.31627,-23.830415 -10.68961,-24.234255 -0.37334,-0.40384 0.17591,8.731865 1.22056,20.301565 1.04464,11.5697 1.65493,21.28025 1.35619,21.57898 -0.29874,0.29874 -1.93322,0.61304 -3.63217,0.69844 L 169.96586,125.5 156.73293,96.814008 c -7.27811,-15.777296 -13.35419,-28.351002 -13.50241,-27.941569 -0.14821,0.409434 2.66429,12.788708 6.25,27.509499 C 153.06624,111.10273 156,123.73434 156,124.45219 c 0,1.22049 -5.68138,4.2741 -6.38618,3.43241 -0.17713,-0.21153 -7.4281,-11.7567 -16.11327,-25.65593 C 124.81537,88.32944 117.5561,77.110566 117.36883,77.297839 117.18155,77.485112 120.16558,87.026084 124,98.5 c 3.83442,11.47392 6.86554,20.94806 6.73583,21.05366 -0.1297,0.10559 -1.58583,0.87631 -3.23583,1.71271 l -3,1.52073 -8.5,-10.95873 c -4.675,-6.02731 -9.29495,-11.941903 -10.26655,-13.143553 L 103.96689,96.5 l 0.936,2.5 c 0.5148,1.375 3.44273,8.125 6.50652,15 l 5.57053,12.5 -2.71757,2.21904 -2.71756,2.21904 -2.7724,-2.65613 c -3.44281,-3.29842 -3.55013,-2.32037 -0.27438,2.50034 l 2.49804,3.67619 -2.44654,2.44653 -2.44653,2.44654 -5.3015,-3.51302 C 95.230489,132.14691 91,129.72522 91,130.22777 c 0,0.16398 1.747547,2.74489 3.883438,5.73535 l 3.883439,5.43721 -4.924387,6.04984 c -9.909077,12.17375 -14.813109,24.74525 -21.822253,55.94141 -2.210931,9.84037 -4.948687,21.09037 -6.083902,25 -7.707529,26.5444 -19.836114,47.58863 -36.89445,64.01534 l -7.172497,6.90691 -2.120792,-2.12079 -2.120792,-2.12079 9.465661,-9.78613 c 20.103487,-20.78409 27.46633,-36.39968 37.95071,-80.48828 8.046677,-33.83764 9.68111,-38.41354 20.969058,-58.70668 2.788631,-5.01332 2.89815,-5.57746 1.497702,-7.71482 C 86.679921,137.10806 86,135.58421 86,134.99002 c 0,-0.59419 -2.25,-4.4147 -5,-8.49002 -2.75,-4.07532 -5,-7.86963 -5,-8.43179 0,-0.56216 1.098779,-1.74205 2.441731,-2.62199 2.346651,-1.53758 2.675501,-1.44113 8.445131,2.47695 3.301869,2.24226 6.264697,4.07683 6.584062,4.07683 0.319364,0 -2.045563,-3.9375 -5.255394,-8.75 C 85.0057,108.4375 81.423702,102.63045 80.255535,100.34544 78.231328,96.385967 78.214377,96.115967 79.894538,94.595442 80.864157,93.717949 82.08143,93 82.59959,93 c 0.51816,0 4.959318,4.035908 9.869241,8.96869 4.909922,4.93277 9.065509,8.83031 9.234629,8.66118 0.16913,-0.16913 -2.326328,-6.14498 -5.545456,-13.279678 -3.219127,-7.134697 -6.666528,-15.558725 -7.660891,-18.720061 -1.655113,-5.262037 -1.673075,-5.88274 -0.212499,-7.343316 1.460576,-1.460576 1.806969,-1.456827 4.098052,0.04435 1.376442,0.901879 7.365931,7.896049 13.309974,15.542599 5.94405,7.64655 10.90946,13.813486 11.03425,13.704306 0.12479,-0.10919 -2.6605,-9.171417 -6.18954,-20.138293 -9.50206,-29.528717 -9.77759,-30.62811 -8.09715,-32.308544 0.77259,-0.772596 2.05517,-1.155118 2.85017,-0.850048 0.79499,0.305069 4.48353,5.429104 8.19674,11.386744 3.71322,5.95764 7.76776,11.957073 9.01009,13.332073 1.24233,1.375 6.425,9.151189 11.51704,17.280421 5.09204,8.129231 9.38133,14.654227 9.53175,14.499997 0.15043,-0.15423 -1.92622,-9.280418 -4.61478,-20.280418 -2.68856,-11 -4.90587,-20.9 -4.92737,-22 -0.0215,-1.1 -1.54563,-8.215887 -3.38695,-15.813081 -2.91056,-12.008783 -3.16018,-14.000776 -1.91095,-15.25 1.76502,-1.765024 2.76493,-1.811784 3.997,-0.186919 0.5213,0.6875 5.16673,10.475 10.32318,21.75 5.15645,11.275 9.86377,20.998388 10.46072,21.607529 0.59695,0.60914 3.97313,7.455127 7.50262,15.213304 3.5295,7.758176 6.56391,13.959125 6.74314,13.779895 0.17923,-0.17923 -0.36073,-7.475212 -1.19991,-16.213298 -1.95377,-20.343938 -1.95451,-25.822751 -0.004,-27.773512 0.84092,-0.840916 2.12242,-1.301198 2.84779,-1.022848 0.72537,0.27835 7.8091,15.654672 15.74163,34.169606 l 14.42277,33.663512 6.24153,3.53791 c 3.43285,1.94584 8.49049,5.47916 11.23921,7.8518 6.20081,5.35242 16.16983,18.48709 20.38743,26.86142 l 3.17608,6.30635 17.26205,-18.49084 C 267.34156,141.32087 275.66985,133 276.35474,133 278.1106,133 280,135.09883 280,137.04932 c 0,0.90713 -13.5,16.12525 -30,33.81805 -16.5,17.6928 -30,32.56977 -30,33.05993 0,0.49015 14.4,14.95789 32,32.15053 22.21367,21.69952 32,31.91118 32,33.39075 0,2.24223 -1.71409,4.53142 -3.39301,4.53142 -0.54615,0 -9.85045,-8.81723 -20.67621,-19.59385 l -19.68321,-19.59386 -1.03847,6.34386 c -3.00019,18.32778 -8.02025,34.65855 -15.16824,49.34385 -5.3425,10.97598 -14.36916,24.5 -16.35262,24.5 -0.69282,0 -1.98767,-0.728 -2.87745,-1.61778 z M 175.5,186.09279 c -11.05419,-2.74695 -15.08099,-12.30643 -8.25,-19.5852 7.78711,-8.29757 23.65155,-6.55686 28.23301,3.09784 3.58169,7.54786 -2.43506,15.28607 -12.98301,16.69759 -2.2,0.2944 -5.35,0.1998 -7,-0.21023 z"
         id="path1949" />
    </g>
  </g>
</svg>
