<?xml version="1.0" encoding="UTF-8" standalone="no"?>
<!-- Created with Inkscape (http://www.inkscape.org/) -->

<svg
   version="1.1"
   id="svg9"
   width="182.30644"
   height="324.5423"
   viewBox="0 0 182.30644 324.5423"
   sodipodi:docname="け.png"
   xmlns:inkscape="http://www.inkscape.org/namespaces/inkscape"
   xmlns:sodipodi="http://sodipodi.sourceforge.net/DTD/sodipodi-0.dtd"
   xmlns="http://www.w3.org/2000/svg"
   xmlns:svg="http://www.w3.org/2000/svg">
  <defs
     id="defs13" />
  <sodipodi:namedview
     id="namedview11"
     pagecolor="#ffffff"
     bordercolor="#000000"
     borderopacity="0.25"
     inkscape:showpageshadow="2"
     inkscape:pageopacity="0.0"
     inkscape:pagecheckerboard="0"
     inkscape:deskcolor="#d1d1d1"
     showgrid="false" />
  <g
     inkscape:groupmode="layer"
     inkscape:label="Image"
     id="g15"
     transform="translate(-30.157047,-15.810379)">
    <g
       id="g123"
       inkscape:export-filename="..\all_svg\け.svg"
       inkscape:export-xdpi="96"
       inkscape:export-ydpi="96"
       inkscape:label="g123">
      <path
         style="fill:#afafaf"
         d="m 123.48475,322.08782 c 11.96963,-17.71158 17.83143,-31.9657 20.40056,-49.60797 0.85127,-5.84567 0.87346,-5.87888 0.98921,-1.47985 0.0651,2.475 -0.53286,14.625 -1.32886,27 -0.796,12.375 -1.5448,24.75 -1.664,27.5 -0.1192,2.75 -0.64644,5.5625 -1.17164,6.25 -0.66895,0.87567 -4.49535,1.25 -12.77736,1.25 H 116.11021 Z M 48.654897,296.67103 c -0.456661,-16.95593 -1.759538,-32.88399 -1.436304,-33.20723 0.323234,-0.32323 0.73935,-1.12975 0.742331,2.94941 0.0057,7.73559 4.058141,35.85631 6.438259,45.92724 l 1.380306,5.84046 -6.723141,2.2254 c -2.330269,0.77133 -2.902485,-7.5e-4 -3.158549,3.00203 -0.172203,2.01938 3.213759,-9.78138 2.757098,-26.73731 z m -3.837563,25.23735 c -0.58544,-0.70541 -7.592362,-1.80002 -7.338604,-2.05378 0.253758,-0.25375 -0.393253,-4.71235 -1.437803,-9.90799 -7.067523,-35.15416 -7.800213,-86.6858 -2.024213,-142.36725 1.023807,-9.86965 1.776377,-18.36314 1.672377,-18.87444 -0.163251,-0.80259 17.269295,-1.07987 18.061873,-0.28729 0.155487,0.15549 -0.630243,4.12669 -1.746066,8.8249 C 49.003738,169.87902 45.379074,192.3121 43.318941,211 41.818881,224.60736 41.5,235.78154 41.5,274.73902 c 0,47.54188 6.50513,51.01042 3.317334,47.16936 z M 150.44176,307.5 c 3.22044,-25.90245 3.93312,-97.55886 1.21518,-122.17996 -2.6103,-23.64609 -9.4495,-37.65221 -10.01598,-43.59777 L 139.76993,136.17678 147.98886,136 c 3.79033,-0.0815 -8.63678,0.76559 -8.28036,0.18888 0.44362,-0.71779 16.91118,-1.91948 17.86952,-1.12413 0.76998,0.63902 1.21178,1.46635 0.98178,1.83849 -0.23,0.37215 -0.015,4.03366 0.47778,8.1367 0.49278,4.10303 1.58763,16.19101 2.43299,26.86217 0.84536,10.67116 2.04041,20.00866 2.65567,20.75 0.70793,0.85301 3.29417,1.34789 7.04402,1.34789 7.40907,0 32.28008,-2.84052 35.46138,-4.05005 1.3026,-0.49525 2.42461,-0.68659 2.49336,-0.4252 0.0687,0.26139 0.21403,0.81275 0.32284,1.22525 0.10881,0.4125 0.55441,3.3375 0.99022,6.5 0.43581,3.1625 1.89064,7.25851 2.01506,7.71108 0.0601,0.21875 -0.14997,0.28772 -0.39742,0.31979 -0.86621,0.11227 -1.09974,0.16803 -3.81819,0.49843 -14.27191,1.73459 -42.54831,5.10584 -43.21193,6.1796 -0.42598,0.68925 -1.01287,12.79296 -1.3042,26.89714 -0.33879,16.40197 -1.09349,28.89827 -2.09406,34.67378 -1.89884,10.96046 -5.78037,24.62715 -9.17214,32.29473 -2.49228,5.63414 -2.50694,5.64633 -2.01324,1.67545 z M 74.732025,215.75 c -0.272236,-1.7875 -0.64683,-5.20408 -0.574519,-5.27117 0.07231,-0.0671 16.429994,1.55056 36.092494,1.27356 29.91858,-0.42148 35.75,-0.27925 35.75,0.87199 0,0.75659 -0.5625,1.37689 -1.25,1.37845 -0.6875,0.002 -16.325,1.12193 -34.75,2.48973 -18.425,1.3678 -33.786425,2.49153 -34.136501,2.49718 -0.350075,0.006 -0.859239,-1.45224 -1.131474,-3.23974 z m -2.030521,-10.78345 c -0.332766,-1.2725 -0.417277,-2.61742 -0.187803,-2.98872 0.229474,-0.3713 6.342953,-0.98792 13.585508,-1.37027 12.651304,-0.66789 40.137741,-2.89649 52.150791,-4.22839 l 5.75,-0.6375 2.29358,-1.93268 c 1.52483,-1.28489 -1.67184,-1.70896 -1.3602,2.69101 0.31164,4.4 0.25535,8.40127 -0.12508,8.8917 -0.38044,0.49044 -16.62397,1.11598 -36.09674,1.3901 l -35.405027,0.49839 z M 82.686777,35.353444 C 82.30905,34.975716 82,31.366667 82,27.333333 V 20 h 21.04206 21.04207 L 123.79206,27.75 123.5,35.5 103.43678,35.770111 C 92.402005,35.918671 83.064505,35.731171 82.686777,35.353444 Z M 123,28 V 21 H 103 83 v 7 7 h 20 20 z"
         id="path127"
         sodipodi:nodetypes="ssssssscssssscsssssssssssssssscsssssssssssssssssssssssscscssssscsssscssccccccsscccccccccc" />
      <path
         style="fill:#090909"
         d="M 86.088626,340.2509 C 62.178211,340.08886 45.204983,339.58508 44.52065,339.01714 40.697685,335.84436 39.89949,241.52848 43.428778,210 46.790099,179.97203 52.509975,150.67847 56.275943,144.20503 57.461424,142.16726 59.857722,138.475 61.60105,136 73.986074,118.417 79.135903,97.672159 80.597393,59.477841 81.196696,43.815741 81.071781,41.03949 79.643501,38.277501 77.388404,33.916623 77.33928,19.803577 79.571429,17.571429 c 2.348065,-2.348066 44.509081,-2.348066 46.857141,0 2.16069,2.160692 2.23941,18.163169 0.10323,20.987441 -1.79271,2.370178 -2.11305,32.526585 -0.5305,49.94113 1.86018,20.46967 7.35325,39.15904 13.75013,46.78278 4.8257,5.75123 5.73278,8.27578 8.16242,22.71722 6.57851,39.10174 7.56666,86.78599 2.93225,141.5 -2.72839,32.21158 -3.42109,38.47995 -4.3461,39.32891 -1.50887,1.38481 -15.90272,1.72362 -60.411374,1.42199 z M 141.21809,331.75 c 0.23764,-0.6875 0.53292,-3.5 0.65618,-6.25 0.12327,-2.75 0.87539,-15.125 1.67139,-27.5 0.796,-12.375 1.44886,-24.75 1.45081,-27.5 l 0.004,-5 H 96.388592 47.776714 l 0.640445,28 c 0.352245,15.4 0.896769,30.5875 1.210055,33.75 l 0.56961,5.75 h 45.294824 c 35.338762,0 45.389792,-0.27476 45.726892,-1.25 z m 3.57578,-72.12261 c 0.88659,-0.54793 1.20615,-7.02197 1.20619,-24.43641 l 5e-5,-23.69098 H 98.498564 50.997014 l -0.510143,3 c -0.576109,3.38792 -2.462377,34.76304 -2.477197,41.20431 L 48,259.90862 l 6.75,0.41395 c 11.361277,0.69674 88.75854,0.0992 90.04387,-0.69518 z M 94,246.30602 C 87.48883,243.97899 89.4524,232 96.345012,232 c 1.289757,0 3.159502,0.9 4.154988,2 2.05175,2.26716 0.91502,2.63034 -1.796476,0.57397 -4.252068,-3.22471 -8.94354,2.05829 -6.454493,7.26831 1.554125,3.25307 5.583614,4.10708 7.434609,1.57569 0.71263,-0.97458 1.63784,-1.42858 2.05603,-1.00889 0.86992,0.87307 -3.37849,4.6313 -5.100454,4.51197 C 96.012647,246.87763 94.825,246.60087 94,246.30602 Z m 29,-0.01 c -2.80531,-0.98389 -4,-3.6681 -4,-8.98715 0,-7.43969 1.84053,-6.65315 2.20228,0.94113 0.27196,5.70919 0.50239,6.27896 2.66306,6.58466 3.4046,0.48171 4.53754,-1.17057 5.22909,-7.62611 l 0.61153,-5.70855 0.13171,6 c 0.0724,3.3 -0.1989,6.50185 -0.60298,7.11522 -0.9516,1.44448 -4.31962,2.35245 -6.23469,1.6808 z M 51,239 c 0,-4 0.428571,-7 1,-7 0.55,0 1,1.66633 1,3.70295 v 3.70295 l 3.792163,-3.70295 c 4.518055,-4.41176 6.837667,-5.01356 2.707291,-0.70238 l -2.874728,3.00057 2.001778,2.74943 C 61.740998,245.02831 62.19794,246 61.095068,246 c -0.562631,0 -2.085512,-1.56368 -3.384179,-3.47484 -1.808404,-2.6613 -2.636268,-3.19978 -3.536051,-2.3 C 53.528677,240.87132 53,242.435 53,243.7 c 0,1.265 -0.45,2.3 -1,2.3 -0.571429,0 -1,-3 -1,-7 z m 14,0 v -7 h 5 c 2.75,0 5,0.45 5,1 0,0.55 -2.025,1 -4.5,1 -3.833333,0 -4.5,0.2963 -4.5,2 0,1.66667 0.666667,2 4,2 2.2,0 4,0.45 4,1 0,0.55 -1.8,1 -4,1 -3.576099,0 -4,0.25913 -4,2.44521 0,2.19786 0.480499,2.4831 4.75,2.81975 l 4.75,0.37454 -5.25,0.18025 L 65,246 Z m 40.32007,0 c 0,-4.125 0.1815,-6.0375 0.40333,-4.25 0.37825,3.04798 0.64802,3.25 4.33996,3.25 3.70738,0 3.93664,-0.17471 3.93664,-3 0,-1.65 0.45,-3 1,-3 0.57143,0 1,3 1,7 0,4 -0.42857,7 -1,7 -0.55,0 -1,-1.35 -1,-3 0,-2.82529 -0.22926,-3 -3.93664,-3 -3.69194,0 -3.96171,0.20202 -4.33996,3.25 -0.22183,1.7875 -0.40333,-0.125 -0.40333,-4.25 z m 28.82976,0.25 L 134,232 h 3.30887 c 4.41066,0 6.97028,1.98 6.5361,5.05603 -0.27678,1.96088 -1.17538,2.62817 -4.5461,3.37583 -3.42371,0.75942 -4.27497,1.4071 -4.60016,3.5 -0.21948,1.41248 -0.46647,-0.69436 -0.54888,-4.68186 z M 135.938,206.13807 145.37599,205.5 145.14448,199 c -0.35216,-9.8877 -3.03693,-32.27303 -5.25089,-43.7815 -1.59647,-8.29866 -2.72791,-11.44187 -5.86681,-16.29837 -6.71714,-10.39271 -11.84772,-26.41024 -13.90937,-43.424619 -0.5995,-4.947531 -1.39288,-18.79463 -1.76308,-30.771331 L 117.68125,42.948359 103.09062,43.22418 88.5,43.5 l -0.721442,10 c -0.396793,5.5 -1.186379,16.392999 -1.754636,24.206665 -1.971789,27.112545 -7.50903,44.643515 -19.585584,62.008195 -3.660986,5.26408 -4.718712,7.98266 -6.913856,17.7701 -2.437913,10.86987 -6.682159,34.89203 -7.811489,44.21254 l -0.508595,4.19749 4.147801,0.3778 c 7.078612,0.64474 70.627791,0.53851 80.585801,-0.13472 z M 123.79206,27.75 124.08413,20 H 103.04206 82 v 7.333333 c 0,4.033334 0.30905,7.642383 0.686777,8.020111 0.377728,0.377727 9.715228,0.565227 20.750003,0.416667 L 123.5,35.5 Z"
         id="path125" />
    </g>
  </g>
</svg>
