<?xml version="1.0" encoding="UTF-8" standalone="no"?>
<!-- Created with Inkscape (http://www.inkscape.org/) -->

<svg
   version="1.1"
   id="svg382"
   width="237.58154"
   height="156.64563"
   viewBox="0 0 237.58154 156.64563"
   sodipodi:docname="ã“.png"
   xmlns:inkscape="http://www.inkscape.org/namespaces/inkscape"
   xmlns:sodipodi="http://sodipodi.sourceforge.net/DTD/sodipodi-0.dtd"
   xmlns="http://www.w3.org/2000/svg"
   xmlns:svg="http://www.w3.org/2000/svg">
  <defs
     id="defs386" />
  <sodipodi:namedview
     id="namedview384"
     pagecolor="#ffffff"
     bordercolor="#000000"
     borderopacity="0.25"
     inkscape:showpageshadow="2"
     inkscape:pageopacity="0.0"
     inkscape:pagecheckerboard="0"
     inkscape:deskcolor="#d1d1d1"
     showgrid="false" />
  <g
     inkscape:groupmode="layer"
     inkscape:label="Image"
     id="g388"
     transform="translate(-31.148922,-27.974659)">
    <g
       id="g392">
      <path
         style="fill:#aeaeae"
         d="m 159.63552,176.93548 c -23.27668,-2.06301 -36.33207,-7.63574 -40.74962,-17.39411 -1.53215,-3.38453 -1.73076,-5.58983 -1.22198,-13.5686 0.7363,-11.54675 -1.07887,-19.08307 -5.94056,-24.66427 -1.77285,-2.03523 -1.94045,3.45729 -1.30169,3.8424 0.77158,0.46519 0.62817,-7.48641 1.07761,-10.14665 L 112.1758,111 l 5.6621,0.011 c 8.38134,0.0163 13.36431,1.01965 12.76895,2.57113 -0.27502,0.71671 -1.28243,7.80144 -2.23868,15.74385 -2.79175,23.18771 -0.10545,29.7595 13.13183,32.1258 l 4,0.71504 -2.964,-3.33341 c -1.63019,-1.83338 -0.76146,-1.16728 1.93052,1.48022 8.22844,8.09247 17.07649,12.30291 32.78843,15.60272 l 9.24505,1.94164 -9,-0.0684 c -4.95,-0.0376 -12.98902,-0.42197 -17.86448,-0.85408 z M 267.5,175.39957 c -0.55,-0.16523 -15.175,-1.0052 -32.5,-1.86659 -27.56123,-1.37032 -55.6635,-3.90116 -56.91667,-5.1258 C 177.85417,168.18323 197.76667,168 222.33333,168 H 267 l 0.1268,-3.25 c 0.0698,-1.78988 0.51129,-0.32976 0.98261,3.25 0.93648,7.11274 0.8761,7.84586 -0.60941,7.39957 z M 148,64.154988 c -98.666667,-42.769992 -49.333333,-21.384996 0,0 z m 36.5,-15.968374 c -123,-32.124409 -61.5,-16.062205 0,0 z M 149.5,45 l -13,-0.5 5.5,-1.265519 c 8.44283,-1.942645 21.49976,-3.226874 32,-3.147392 l 9.5,0.07191 -6.47813,1.404228 c -3.56297,0.772326 -8.28797,1.974051 -10.5,2.6705 C 163.7413,45.109183 158.48773,45.345682 149.5,45 Z m -26.66467,-9.598131 c -0.18443,-3.628972 -0.0294,-6.786003 0.34446,-7.015625 0.99959,-0.613902 124.02988,-0.509904 124.64515,0.105364 0.28757,0.287571 0.57465,1.706024 0.63796,3.152116 l 0.11509,2.629259 -9.53899,-0.617881 C 216.00756,32.16326 176.02015,31.768048 162.5,32.898635 147.29906,34.169774 134.3642,36.811064 127.7935,39.985682 125.50046,41.093557 123.52226,42 123.3975,42 c -0.12477,0 -0.37774,-2.969159 -0.56217,-6.598131 z"
         id="path396"
         sodipodi:nodetypes="sssssscsssscssscssssssscsssccccscsscsssscsscsssss" />
      <path
         style="fill:#0b0b0b"
         d="m 168.5,184.3327 c -17.58314,-1.0789 -33.63245,-4.31898 -41.64732,-8.40786 -5.96438,-3.0428 -11.9373,-8.90081 -14.198,-13.92484 -1.61779,-3.59529 -2.13846,-7.44504 -2.58978,-19.14855 -0.49223,-12.76422 -0.82187,-14.93205 -2.56254,-16.85238 -5.59903,-6.17694 -14.976665,-6.78524 -25.277324,-1.63965 -7.865064,3.92891 -17.80604,7.26756 -24.378398,8.18741 -16.840231,2.35692 -30.999192,-14.91152 -25.488122,-31.08562 2.328397,-6.833465 6.181341,-11.338349 12.024454,-14.059052 9.067203,-4.221922 19.753908,-2.787795 35.537073,4.768979 7.678221,3.676232 9.307408,4.093573 15.501599,3.970963 12.731178,-0.252005 15.522408,-4.635728 15.556398,-24.431938 0.019,-11.071534 0.3097,-13.353852 2.16368,-16.987957 2.75018,-5.390794 10.75774,-13.231833 15.59318,-15.268907 13.87755,-5.846338 36.60767,-7.951342 75.2651,-6.970194 40.86811,1.037257 62.01267,2.584132 63.30176,4.630973 0.55909,0.887743 0.75563,2.293995 0.43674,3.125006 -0.73023,1.902951 -5.11754,2.35428 -41.7385,4.29369 -27.98552,1.482087 -41.58241,2.7163 -42.74626,3.880153 C 182.93085,48.735817 201.64167,49 224.83333,49 H 267 v 3.5 3.5 h -54.8562 -54.8562 l -4.6438,3.545807 C 150.08971,61.496 148,63.521 148,64.045807 148,64.640707 170.40423,65 207.5,65 H 267 V 68.5 72 H 204.97525 142.9505 l -0.97525,2.5651 C 141.43886,75.975904 141,78.000904 141,79.0651 141,80.957825 142.37321,81 204,81 h 63 V 84.5 88 H 202.9425 138.885 l 0.3075,4.25 0.3075,4.25 63.75,0.257402 63.75,0.257402 V 100.5074 104 h -63.48866 -63.48866 l 0.23866,4.25 0.23866,4.25 63.25,0.25746 63.25,0.25745 V 116.50746 120 H 202.9425 138.885 l 0.3075,4.25 0.3075,4.25 63.75,0.2574 63.75,0.2574 V 132.5074 136 h -63.56739 -63.56739 l 0.70092,2.25 c 0.38551,1.2375 1.07969,3.2625 1.54264,4.5 L 142.9505,145 H 204.97525 267 v 3.5 3.5 h -60.19617 -60.19616 l 3.32745,3.43306 c 1.8301,1.88818 4.50587,3.92105 5.94617,4.51748 1.79991,0.74536 19.5813,1.00079 56.86892,0.81694 l 54.2502,-0.26748 -2e-4,3.75 L 267,168 h -44.66667 c -24.56666,0 -44.47916,0.18323 -44.25,0.40718 1.2547,1.22613 29.36215,3.75526 56.91667,5.1214 17.325,0.85897 32.02757,1.7389 32.67238,1.95542 1.4141,0.47482 0.63472,4.01624 -1.22324,5.55821 -2.24717,1.86498 -79.10327,4.44688 -97.94914,3.29049 z m 9,-8.35662 C 153.42133,170.93775 140.48143,161.23689 134.84734,144 c -1.90532,-5.82913 -2.15499,-9.18349 -2.41897,-32.5 -0.32282,-28.513534 0.4499,-35.379449 4.99014,-44.339178 1.41777,-2.797846 3.94825,-6.647888 5.62329,-8.555651 6.41602,-7.307439 19.62031,-13.996221 33.4582,-16.948625 l 7,-1.493495 -9.5,-0.07332 c -19.838,-0.153108 -39.43378,3.656811 -47.79676,9.29291 -7.65602,5.159656 -8.7023,7.936976 -8.70885,23.11736 -0.005,11.971742 -0.21567,13.449042 -2.66131,18.67712 -3.01754,6.450634 -7.63882,10.111159 -14.83308,11.749319 -7.309799,1.66447 -10.698522,1.2608 -16.39252,-1.95269 -7.407009,-4.180257 -16.794611,-7.73834 -23.739289,-8.997651 -9.758921,-1.769629 -16.847616,1.246084 -20.368195,8.665151 -3.916123,8.25262 -0.44099,20.26074 6.867029,23.72862 7.251828,3.44122 19.727026,1.12018 34.860778,-6.48593 C 87.025426,114.97009 90.16551,114 93.799664,114 c 16.727726,0 25.180876,11.32533 23.864256,31.97277 -0.70654,11.08006 0.73445,15.66031 6.43627,20.45808 8.44951,7.10979 27.49178,11.16052 53.39981,11.35935 l 9,0.0691 -9,-1.8832 z"
         id="path394" />
    </g>
  </g>
</svg>
