<?xml version="1.0" encoding="UTF-8" standalone="no"?>
<!-- Created with Inkscape (http://www.inkscape.org/) -->

<svg
   version="1.1"
   id="svg614"
   width="294.09958"
   height="320.71579"
   viewBox="0 0 294.09958 320.71579"
   sodipodi:docname="し.png"
   xmlns:inkscape="http://www.inkscape.org/namespaces/inkscape"
   xmlns:sodipodi="http://sodipodi.sourceforge.net/DTD/sodipodi-0.dtd"
   xmlns="http://www.w3.org/2000/svg"
   xmlns:svg="http://www.w3.org/2000/svg">
  <defs
     id="defs618" />
  <sodipodi:namedview
     id="namedview616"
     pagecolor="#ffffff"
     bordercolor="#000000"
     borderopacity="0.25"
     inkscape:showpageshadow="2"
     inkscape:pageopacity="0.0"
     inkscape:pagecheckerboard="0"
     inkscape:deskcolor="#d1d1d1"
     showgrid="false" />
  <g
     inkscape:groupmode="layer"
     inkscape:label="Image"
     id="g620"
     transform="translate(-15.689428,-9.6664133)">
    <g
       id="g624"
       inkscape:export-filename="..\all_svg\し.svg"
       inkscape:export-xdpi="96"
       inkscape:export-ydpi="96">
      <path
         style="fill:#afafaf"
         d="m 79.5,314.5 c -53,-209.66667 -26.5,-104.83333 0,0 z m 2.606934,-0.9447 c -1.569351,-0.81155 -3.081921,-1.24698 -3.361267,-0.96763 -0.949044,0.94904 -7.128159,-13.91346 -8.757038,-22.95221 -2.084266,-11.56573 0.08519,-59.75084 -0.204579,-92.91459 -0.114667,-13.12367 0.528272,-24.82945 0.741417,-25.00943 0.213145,-0.17998 2.549533,0.28683 4.474533,-0.0664 1.963265,-0.36026 2.936724,-0.27872 2.217106,0.1857 -1.023951,0.66084 -1.225793,11.91326 -1,55.74861 L 76.5,282.5 l 3,5.5 c 7.136082,13.08282 23.14948,17.05296 43.48322,10.78064 13.61462,-4.19968 26.03077,-11.90887 38.57319,-23.95009 l 8.96098,-8.12521 0.99093,5.74591 c 0.51979,3.01398 1.48166,6.53759 2.54973,7.89542 1.06807,1.35783 2.61245,2.92001 2.61245,3.4715 -22.45703,21.471 -62.36879,45.97041 -94.563566,29.73713 z M 62.26677,288.97592 c -2.346275,-5.48906 -2.559856,-121.53565 -0.694084,-120.9106 0.957915,0.32091 1.627542,4.53453 1.563134,13.02017 -0.04765,6.27798 -0.979195,29.63951 -1.187093,51.91451 -0.270802,29.0149 1.333378,43.15175 2.234686,49.50869 1.37916,9.72727 5.22202,23.16797 -1.916643,6.46723 z M 185,289.5 c -123.333333,-193 -61.66667,-96.5 0,0 z m -2.69521,-10.11143 c -2.7542,-2.94014 -4.30516,-7.63556 -4.30324,-12.20367 l 0.002,-3.6849 1.74844,3.15807 c 0.96165,1.73694 2.58918,4.3267 3.61674,5.75501 1.51382,2.10422 2.33532,3.71072 1.32999,4.92207 -0.98784,1.19027 -3.52268,3.15014 -2.53169,4.34439 1.93844,2.33568 2.87508,0.92426 0.52119,-1.58855 z M 68.541681,164.27056 c -1.077075,-0.2736 -2.904452,-1.11738 -4.060838,-1.87507 -2.520081,-1.65122 -6.861051,-9.04247 -5.723615,-9.74545 1.24504,-0.76948 13.786074,-1.05033 14.94404,-0.33467 0.566782,0.35029 0.800618,1.83952 0.519634,3.30939 -0.291099,1.52278 -1.193255,-2.67789 -0.661718,-3.0064 0.513066,-0.31709 2.114181,5.70568 2.233528,7.14772 0.119347,1.44203 0.701107,2.92108 1.292801,3.28677 0.591695,0.36569 -0.366739,0.9534 -2.129853,1.30602 -3.40097,0.68019 -3.387824,0.68037 -6.413979,-0.0883 z M 268,67.5 c 0,-0.275 0.225,-0.5 0.5,-0.5 0.275,0 0.5,0.225 0.5,0.5 0,0.275 -0.225,0.5 -0.5,0.5 -0.275,0 -0.5,-0.225 -0.5,-0.5 z m 2,-1 c 0,-0.275 0.225,-0.5 0.5,-0.5 0.275,0 0.5,0.225 0.5,0.5 0,0.275 -0.225,0.5 -0.5,0.5 -0.275,0 -0.5,-0.225 -0.5,-0.5 z M 268,65 c 0,-0.733333 0.3,-1.033333 0.66667,-0.666667 0.36666,0.366667 0.36666,0.966667 0,1.333334 C 268.3,66.033333 268,65.733333 268,65 Z m 4.33333,0.333333 c 0.36667,-0.366666 0.96667,-0.366666 1.33334,0 C 274.03333,65.7 273.73333,66 273,66 c -0.73333,0 -1.03333,-0.3 -0.66667,-0.666667 z M 50,60.5 C 50,60.225 50.225,60 50.5,60 50.775,60 51,60.225 51,60.5 51,60.775 50.775,61 50.5,61 50.225,61 50,60.775 50,60.5 Z M 118.43709,36.75 115.5,33.5 l 3.25,2.937091 c 1.7875,1.6154 3.25,3.0779 3.25,3.25 0,0.772561 -0.82513,0.09236 -3.56291,-2.937091 z M 123,37.5 c 0,-0.275 0.225,-0.5 0.5,-0.5 0.275,0 0.5,0.225 0.5,0.5 0,0.275 -0.225,0.5 -0.5,0.5 -0.275,0 -0.5,-0.225 -0.5,-0.5 z m 1,-2 c 0,-0.275 0.225,-0.5 0.5,-0.5 0.275,0 0.5,0.225 0.5,0.5 0,0.275 -0.225,0.5 -0.5,0.5 -0.275,0 -0.5,-0.225 -0.5,-0.5 z m 72,-8 c 0,-0.275 0.225,-0.5 0.5,-0.5 0.275,0 0.5,0.225 0.5,0.5 0,0.275 -0.225,0.5 -0.5,0.5 -0.275,0 -0.5,-0.225 -0.5,-0.5 z m 2.5,-1.5 c 0.33992,-0.55 0.84303,-1 1.11803,-1 0.275,0 0.22189,0.45 -0.11803,1 -0.33992,0.55 -0.84303,1 -1.11803,1 -0.275,0 -0.22189,-0.45 0.11803,-1 z m -4.09549,-1.154508 c -0.44208,-0.7153 -0.27432,-0.883063 0.44098,-0.440984 C 195.99824,25.116949 196.39316,26 195.55902,26 c -0.24254,0 -0.76207,-0.519529 -1.15451,-1.154508 z M 201,24.5 c 0,-0.275 0.225,-0.5 0.5,-0.5 0.275,0 0.5,0.225 0.5,0.5 0,0.275 -0.225,0.5 -0.5,0.5 -0.275,0 -0.5,-0.225 -0.5,-0.5 z"
         id="path628"
         sodipodi:nodetypes="cccssssssscssscssccsssssscccccssscccssssssssssssssssssssssssssssssssssscssssssssssssssssssssssssssssssss" />
      <path
         style="fill:#030303"
         d="m 92.044936,329.87971 c -10.944503,-2.07692 -18.65275,-10.6152 -24.421209,-27.05093 -6.000559,-17.09703 -7.370535,-39.97033 -5.64656,-94.27572 1.009304,-31.79318 0.984978,-38.11771 -0.150005,-39 -1.66174,-1.29177 -4.36642,-5.14709 -8.358481,-11.9144 L 50.437362,152.5 42.468681,151.94232 C 21.481795,150.47358 9.5998765,133.81473 18.885292,118.87762 20.598381,116.12184 22,113.51675 22,113.08854 c 0,-0.42821 0.903643,-1.59635 2.008096,-2.59587 1.789865,-1.6198 1.846402,-1.99597 0.520237,-3.46136 -2.454445,-2.71213 -5.648755,-14.143855 -5.6409,-20.187522 0.01856,-14.279218 9.781966,-24.047734 25.502382,-25.515729 5.652173,-0.527808 6.927288,-0.986352 7.594849,-2.731181 5.505411,-14.389699 6.589686,-16.288272 12.957299,-22.68833 8.576539,-8.620239 15.108295,-11.296554 26.07783,-10.685105 5.465028,0.304625 9.017247,1.144565 12.999997,3.073914 8.12227,3.934637 11.94511,6.294829 15.11532,9.332085 3.15489,3.022578 3.00793,3.05489 5.13699,-1.129442 2.36274,-4.643599 13.15452,-15.923574 18.5418,-19.380582 11.4821,-7.3680398 25.96397,-9.5380921 35.48359,-5.317078 6.0059,2.663022 9.0363,5.036709 14.29425,11.196559 3.96705,4.647514 4.25343,4.79785 6.3467,3.331663 3.10242,-2.173018 20.59771,-6.333396 26.55923,-6.315781 11.6461,0.03441 26.24465,5.727536 33.63344,13.116327 2.24013,2.240133 5.25991,6.614552 6.71061,9.72093 2.27089,4.862632 2.63908,6.982047 2.64796,15.242479 l 0.0103,9.594516 3.48387,-1.455654 c 2.4673,-1.030903 6.01717,-1.334536 12.16567,-1.040572 7.46835,0.357066 9.3575,0.830925 13.51613,3.390278 9.42946,5.803185 13.83079,16.229026 11.51607,27.279217 -1.34128,6.403108 -2.76481,8.470408 -4.97932,7.231108 -1.3036,-0.72954 -1.52925,-2.68247 -1.31337,-11.367089 L 303.1497,81.24011 299.84046,77.471099 C 295.50265,72.530578 291.55882,71 283.16648,71 c -5.9203,0 -7.91741,0.510107 -14.09319,3.599723 -6.74052,3.372146 -7.31071,3.495387 -9.01904,1.949369 -1.76425,-1.596623 -1.76226,-1.811845 0.0611,-6.61045 2.65773,-6.99456 2.63443,-21.548711 -0.0429,-26.796694 -6.87749,-13.480991 -27.29399,-20.241939 -47.05889,-15.583611 -6.88341,1.622332 -13.28318,4.872162 -16.41973,8.33802 C 195.54672,37.053361 194.39258,38 194.02903,38 c -0.36355,0 -1.71301,-2.538158 -2.9988,-5.640351 -4.95397,-11.952362 -11.5419,-16.302385 -24.74272,-16.337687 -9.95413,-0.02662 -17.01508,2.323748 -24.31433,8.093474 -9.30596,7.355937 -13.34495,14.955481 -14.51433,27.309336 l -0.65547,6.924772 -4.02725,-6.334109 C 117.69442,44.02286 111.13685,37.619333 104.59446,34.260868 97.177415,30.45341 84.498471,29.86959 77.220694,33.000406 67.721914,37.086671 60.365882,47.668431 57.611426,61.208627 L 56.331584,67.5 45.73263,68 c -8.639436,0.407561 -11.108302,0.88118 -13.354003,2.561789 -5.388384,4.032489 -6.818202,7.011285 -7.224157,15.050364 -0.483598,9.576634 1.48139,15.064347 7.123322,19.893627 l 4.120465,3.52697 -2.449129,1.66701 c -1.34702,0.91686 -4.31617,3.50483 -6.598111,5.75103 -3.542639,3.48717 -4.24714,4.88526 -4.820642,9.56661 -1.47187,12.01453 4.732548,19.09305 17.360764,19.80661 4.90481,0.27714 7.671197,-0.0634 9.907244,-1.21975 4.320737,-2.23434 4.947582,-2.05429 5.729669,1.64574 1.073317,5.07783 6.437609,14.49715 9.341846,16.40361 4.093469,2.68714 11.145171,2.26396 16.01887,-0.9613 C 83.126361,160.21154 85.422357,159 85.990981,159 c 0.568624,0 2.6171,-2.475 4.552169,-5.5 1.935069,-3.025 3.922337,-5.5 4.41615,-5.5 2.301375,0 4.0407,3.39932 4.0407,7.89711 0,3.65646 0.519544,5.22747 2.25,6.80361 3.90723,3.5588 6.40806,4.29987 14.43426,4.27732 8.28347,-0.0233 14.66783,-2.08583 18.97653,-6.13061 2.38226,-2.23634 5.21287,-2.16862 6.37736,0.15257 0.41389,0.825 1.21604,4.57711 1.78255,8.33803 1.98835,13.19993 8.35677,18.59904 21.98648,18.64001 4.01895,0.0121 9.30615,-0.48139 11.74933,-1.09659 l 4.44215,-1.11854 -2.99933,-4.07846 C 176.3497,179.4413 175,177.24257 175,176.79838 c 0,-0.44419 -3.87041,-6.31804 -8.6009,-13.053 -12.09222,-17.21609 -11.9661,-16.91808 -8.76826,-20.7185 3.58265,-4.25774 25.56684,-18.71712 38.55321,-25.35712 17.4511,-8.92283 29.7789,-12.15721 37.11232,-9.73697 C 247.38435,112.58225 259,145.89175 259,181.64153 c 0,22.46187 -4.29361,38.01902 -12.47549,45.20281 -10.65375,9.35411 -20.93356,4.94277 -45.40641,-19.48509 l -14.3819,-14.35547 -4.6181,3.38938 c -6.8556,5.03155 -9.08165,9.53336 -9.10165,18.4065 -0.01,4.38448 0.54851,8.37806 1.39823,10 2.19655,4.19277 7.61457,8.87557 12.85656,11.11194 5.7522,2.45404 7.01423,4.79338 3.78336,7.01293 -7.08512,4.86735 -11.26201,9.73631 -12.10633,14.11223 -2.15991,11.19431 -0.64023,18.33203 4.95026,23.25067 4.57821,4.02801 7.54817,4.85474 16.56859,4.61206 l 8.03288,-0.21612 0.54802,7.90832 c 0.30142,4.34957 1.05019,8.80831 1.66395,9.90831 6.99483,12.53643 31.61111,16.46927 45.35086,7.24552 3.49341,-2.3452 6.42354,-7.06942 7.40393,-11.93732 l 0.54213,-2.69181 4.74556,2.1114 c 2.97506,1.32367 7.54368,2.26134 12.24555,2.51328 6.38028,0.34188 8.17063,0.0553 11.99193,-1.9196 6.48596,-3.352 9.00807,-7.64468 9.00807,-15.33185 0,-5.40611 -0.39215,-6.70807 -3.01428,-10.00759 -2.89777,-3.64637 -2.94629,-3.86812 -1.25526,-5.73668 1.7262,-1.90743 1.82032,-1.87277 5.04517,1.85782 1.80738,2.09083 3.95138,6.08985 4.76445,8.88671 1.31774,4.53285 1.30825,5.65783 -0.0873,10.35725 -1.83159,6.16763 -7.03189,12.37954 -12.88455,15.39096 -4.78852,2.46388 -17.77141,3.58393 -22.48721,1.93999 -2.9292,-1.02112 -3.30045,-0.82632 -8.10305,4.25172 -8.75281,9.25481 -21.688,13.21867 -34.49868,10.57177 -12.93605,-2.67279 -22.24214,-10.04265 -25.06784,-19.85217 -0.89504,-3.10717 -1.95955,-6.31527 -2.36557,-7.12911 -0.96981,-1.94389 -18.07505,-4.33989 -21.55023,-3.01863 -1.33592,0.50792 -7.95645,4.70191 -14.71229,9.31998 -34.62303,23.66718 -58.3142,33.48508 -73.738404,30.55807 z M 114.5,320.57619 c 4.4,-1.47732 12.95,-5.39403 19,-8.70379 14.13864,-7.73479 42.5,-26.63954 42.5,-28.3291 0,-0.71412 -0.67954,-1.86238 -1.5101,-2.55168 -0.83055,-0.6893 -2.23235,-3.73774 -3.1151,-6.77431 -2.73597,-9.41139 0.0252,-20.98201 6.8601,-28.74683 3.82732,-4.34806 3.99082,-4.76466 2.25195,-5.73778 -4.44573,-2.48795 -10.42567,-9.16299 -12.47358,-13.92349 -3.71446,-8.6345 -2.49672,-20.10842 2.94525,-27.75095 l 2.00061,-2.8096 -8.43389,-0.44267 c -15.09087,-0.79207 -24.66873,-8.15115 -27.58833,-21.19731 l -1.20313,-5.37615 -5.61689,2.61801 c -4.76372,2.22035 -6.98394,2.61546 -14.61689,2.60122 -10.40828,-0.0194 -15.28761,-1.94439 -20.279709,-8.00068 l -2.973163,-3.60696 -3.373564,2.93927 c -4.445372,3.8731 -8.756678,6.01438 -13.701536,6.80509 l -4.037918,0.64569 -0.740365,6.63292 C 69.986544,182.51519 69.61887,206.65 69.57669,232.5 c -0.06825,41.82547 0.128549,48.10096 1.787483,57 3.586483,19.23901 9.423086,29.88208 18.135827,33.07075 5.575055,2.04035 15.29141,1.26515 25,-1.99456 z m -2.28859,-92.70497 c -4.79626,-1.3832 -10.6126,-7.66083 -12.13464,-13.09703 -1.690406,-6.03753 -0.661921,-11.66634 3.07397,-16.82359 10.6334,-14.67898 33.13497,-6.83592 33.13497,11.5494 0,8.82685 -4.79706,15.50204 -13.18493,18.34705 -3.93958,1.33623 -6.32147,1.34152 -10.88937,0.0242 z M 242.55748,221.75 c 7.91524,-7.2913 11.80247,-28.34257 9.61629,-52.07693 -2.21629,-24.06116 -7.76955,-42.5241 -15.39651,-51.18878 l -4.15728,-4.72292 -7.05999,0.45827 c -8.72649,0.56645 -20.36184,5.12394 -35.43204,13.8785 -12.62683,7.33516 -26.08151,16.61727 -26.79955,18.48845 -0.52567,1.36987 15.29617,24.20657 27.3066,39.41341 10.50262,13.29774 30.904,33.1537 37.31134,36.31383 7.23692,3.56929 10.25059,3.45299 14.61114,-0.56383 z"
         id="path626" />
    </g>
  </g>
</svg>
