<?xml version="1.0" encoding="UTF-8" standalone="no"?>
<!-- Created with Inkscape (http://www.inkscape.org/) -->

<svg
   version="1.1"
   id="svg704"
   width="213.54443"
   height="240.69472"
   viewBox="0 0 213.54443 240.69472"
   sodipodi:docname="ã™.png"
   xmlns:inkscape="http://www.inkscape.org/namespaces/inkscape"
   xmlns:sodipodi="http://sodipodi.sourceforge.net/DTD/sodipodi-0.dtd"
   xmlns="http://www.w3.org/2000/svg"
   xmlns:svg="http://www.w3.org/2000/svg">
  <defs
     id="defs708" />
  <sodipodi:namedview
     id="namedview706"
     pagecolor="#ffffff"
     bordercolor="#000000"
     borderopacity="0.25"
     inkscape:showpageshadow="2"
     inkscape:pageopacity="0.0"
     inkscape:pagecheckerboard="0"
     inkscape:deskcolor="#d1d1d1"
     showgrid="false" />
  <g
     inkscape:groupmode="layer"
     inkscape:label="Image"
     id="g710"
     transform="translate(-15.458356,-7.2544217)">
    <g
       id="g714">
      <path
         style="fill:#aeaeae"
         d="m 85.5,241 c -1.65,-0.41985 -2.564087,-0.81661 -2.031303,-0.88169 0.532783,-0.0651 -1.611254,-2.72546 -4.764527,-5.91199 l -5.733223,-5.79367 4.734645,-2.30027 c 8.674788,-4.21454 18.715632,-11.31731 26.156618,-18.50288 6.69632,-6.46647 14.23538,-16.09429 15.80445,-20.1832 0.34053,-0.88743 2.75644,-3.61269 5.36869,-6.05614 8.56761,-8.014 8.6517,-8.45868 9.8843,-52.27154 C 135.51384,107.97787 136,89.640366 136,88.348623 V 86 l 43.25,0.232542 43.25,0.232541 L 183,86.982542 143.5,87.5 142.8905,106 c -0.33522,10.175 -0.93667,19.6983 -1.33654,21.16289 -0.45834,1.67871 0.0897,5.92304 1.48281,11.48388 4.3352,17.30465 2.40636,38.26012 -4.97326,54.03087 -7.96409,17.01979 -23.71175,33.94209 -41.631479,44.7368 l -5.906461,3.55801 33.48721,0.27772 33.48722,0.27772 -34.5,0.11774 C 104.025,241.71039 87.15,241.41985 85.5,241 Z m 9.646765,-66.06435 c -20.947802,-4.17012 -27.778158,-30.0282 -12.008645,-45.14423 3.168207,-3.03692 13.749049,-7.66172 14.657221,-6.75354 0.233189,0.23319 -4.097712,2.25894 -5.767879,2.95074 -10.40223,4.30875 -14.061562,19.14239 -7.094782,28.75975 3.641859,5.02744 8.398496,7.25163 15.50829,7.25163 6.7225,0 11.90595,-2.35321 16.36163,-7.42796 10.64306,-12.12177 2.7438,-28.71203 -14.60809,-30.68033 L 95.5,123.13232 l 4.53441,-0.25377 c 5.60994,-0.31396 10.80397,1.42273 14.35688,3.50487 9.12498,5.3476 12.60871,12.90181 12.60871,27.3411 0,9.39381 -0.0272,9.49864 -3.25,12.53008 -4.17286,3.92509 -13.98023,8.4211 -19.75,9.05402 -2.475,0.2715 -6.458956,0.10366 -8.853235,-0.37297 z M 65.798297,159.70321 c -4.470487,-9.37471 -4.58119,-21.92172 -0.277537,-31.45585 3.191899,-7.0712 11.450504,-15.59781 18.367454,-18.96351 5.007374,-2.43652 6.742679,-2.73349 16.111786,-2.75724 9.40899,-0.0238 11.11328,0.26063 16.40228,2.73778 3.24625,1.52042 6.11181,2.55485 6.36792,2.29874 0.25611,-0.2561 0.70131,-5.43758 0.98934,-11.51439 L 124.28323,89 118.89161,88.973958 C 101.07844,88.887919 23.401293,92.48057 22.72174,93.421918 22.293697,94.014863 22.068697,92.7 22.22174,90.5 L 22.5,86.5 75.25,86.241159 128,85.982319 127.9864,104.24116 c -0.008,10.04236 -0.28331,19.26487 -0.61288,20.49447 -0.58009,2.16425 -0.74182,2.1101 -5.06582,-1.69603 -5.5589,-4.89314 -12.68183,-7.331 -21.23202,-7.26677 C 87.691981,115.87337 75.975833,123.38522 70.307376,135.5 67.777069,140.90784 67.5,142.56095 67.5,152.25 c 0,5.9125 -0.02915,10.75 -0.06479,10.75 -0.03563,0 -0.772245,-1.48355 -1.636915,-3.29679 z M 18.478659,77.023581 c 0.983749,-1.08703 2.125665,-1.768122 2.537591,-1.513538 1.548803,0.957213 101.42447,-3.630919 102.73618,-4.71954 1.01925,-0.8459 1.28984,-6.194496 1.21028,-23.922422 -0.0564,-12.558114 0.14324,-23.230493 0.44354,-23.716398 0.30031,-0.485905 7.26232,-1.23728 8.51294,-0.999053 2.26455,0.431365 -3.42186,1.033877 -4.06954,13.66462 -0.35769,6.975513 -0.69519,19.54525 -0.75,27.93275 L 129,79 71.292973,82.104079 C 15.505311,85.104915 16.699156,78.98991 18.478659,77.023581 Z M 136.55162,57.75 C 137.31347,25.00563 137.06958,20.862818 140.60699,21 141.75791,21.044633 142,25.134791 142,44.877555 c 0,19.067983 0.27764,24.107974 1.37836,25.02149 1.03625,0.860013 9.66108,0.768267 34.75,-0.369652 45.18182,-2.049242 43.2801,-2.0144 42.54057,-0.779393 -0.247,0.4125 -0.1199,2.8875 0.28245,5.5 l 0.73155,5.573093 L 178.87006,79 H 136.0572 Z"
         id="path718"
         sodipodi:nodetypes="ssscsssssscccccssssscccssssscsssscssssssssscssscsssccccssssssssssscsssscssssssssscccs" />
      <path
         style="fill:#070707"
         d="M 80,246.42901 C 69.930845,243.79388 58.758412,237.51906 50.645571,229.94256 41.632186,221.52505 37.439052,216.0056 32.004055,205.40461 24.884346,191.51758 19.68449,172.53128 16.830168,150 15.022027,135.72701 14.993291,84.414419 16.791667,81.25 L 18.070368,79 h 55.306645 55.306647 l 0.69143,-27.128691 c 0.67802,-26.602286 0.74041,-27.212255 3.21519,-31.435149 1.38806,-2.368551 4.25233,-5.868127 6.36505,-7.776835 10.02865,-9.0602887 28.94764,-6.3465439 36.77988,5.275717 2.61514,3.880611 3.03318,9.832869 0.75206,10.708218 C 174.28987,29.486482 172,27.168074 172,24.100062 172,17.225629 166.327,14 154.23675,14 c -8.37979,0 -9.00229,0.149802 -11.42747,2.75 -5.35025,5.736341 -5.45301,6.409148 -6.2565,40.961178 l -0.49325,21.211178 44.81765,0.288822 c 38.07178,0.245349 45.08953,0.514599 46.62396,1.788822 1.68552,1.399695 1.76268,3.138315 1.15383,26 -1.29877,48.76779 -6.43032,77.15735 -17.97903,99.46637 -10.1758,19.65695 -24.63146,32.21407 -45.10109,39.17773 -6.79304,2.31095 -7.62292,2.35464 -43.5,2.29009 C 93.632918,247.88301 84.277,247.54831 80,246.42901 Z m 82.64466,-6.52768 C 203.9645,227.25184 221.98596,185.76008 221.99757,103.25 L 222,86 h -43 -43 v 2.416736 c 0,1.329205 -0.45849,19.441704 -1.01888,40.250004 -0.83012,30.82437 -1.32428,38.6617 -2.66742,42.30509 -2.35096,6.37719 -9.17307,13.22779 -16.57939,16.64865 C 110.24996,190.15361 108.3572,190.5 100,190.5 c -8.664706,0 -9.971653,-0.26124 -14.864222,-2.9711 -11.993056,-6.64262 -18.917481,-21.46446 -17.937375,-38.39522 0.581872,-10.05149 4.128173,-17.95381 10.920712,-24.33493 12.161104,-11.42451 32.297405,-12.22614 44.188535,-1.75915 4.324,3.80613 4.48573,3.86028 5.06582,1.69603 0.32957,-1.2296 0.60537,-10.45211 0.61288,-20.49447 L 128,85.982319 75.25,86.241159 22.5,86.5 22.196528,110 c -0.322404,24.96604 0.722502,40.02626 3.948584,56.91092 7.776284,40.69949 26.535086,65.59475 55.056601,73.06692 6.465183,1.69378 11.138846,1.91832 40.942947,1.9671 31.41693,0.0514 34.09859,-0.0839 40.5,-2.04361 z m -51.51425,-55.51081 c 2.54672,-0.8095 6.37172,-3.03501 8.5,-4.94558 L 123.5,175.97116 120,177.9013 C 114.93263,180.69579 106.34613,183 101,183 c -5.524007,0 -14.145273,-2.38835 -19,-5.26358 l -3.5,-2.07288 2.892891,3.12209 c 7.002333,7.55713 17.418914,9.52043 29.737519,5.60489 z M 114.5,172.06331 c 3.3,-1.51343 7.4625,-4.12734 9.25,-5.80871 3.22281,-3.03144 3.25,-3.13627 3.25,-12.53008 0,-10.38178 -1.46521,-16.02353 -5.5535,-21.38355 -8.42794,-11.0496 -26.856375,-12.28955 -37.655036,-2.53361 -13.399565,12.10571 -12.11029,33.0611 2.563138,41.6603 8.702189,5.09982 17.899678,5.29447 28.145398,0.59565 z"
         id="path716" />
    </g>
  </g>
</svg>
