<?xml version="1.0" encoding="UTF-8" standalone="no"?>
<!-- Created with Inkscape (http://www.inkscape.org/) -->

<svg
   version="1.1"
   id="svg794"
   width="206.77"
   height="212.71529"
   viewBox="0 0 206.77 212.71529"
   sodipodi:docname="ã›.png"
   xmlns:inkscape="http://www.inkscape.org/namespaces/inkscape"
   xmlns:sodipodi="http://sodipodi.sourceforge.net/DTD/sodipodi-0.dtd"
   xmlns="http://www.w3.org/2000/svg"
   xmlns:svg="http://www.w3.org/2000/svg">
  <defs
     id="defs798" />
  <sodipodi:namedview
     id="namedview796"
     pagecolor="#ffffff"
     bordercolor="#000000"
     borderopacity="0.25"
     inkscape:showpageshadow="2"
     inkscape:pageopacity="0.0"
     inkscape:pagecheckerboard="0"
     inkscape:deskcolor="#d1d1d1"
     showgrid="false" />
  <g
     inkscape:groupmode="layer"
     inkscape:label="Image"
     id="g800"
     transform="translate(-12.849153,-10.284709)">
    <g
       id="g804">
      <path
         style="fill:#b1b1b1"
         d="m 179.99993,216.78853 c 4e-5,-0.39131 -20.36243,-0.84131 -45.24993,-1 L 89.5,215.5 84.312009,212.76458 c -8.992635,-4.74147 -13.373007,-12.89783 -13.233062,-24.64031 0.04342,-3.64335 0.297486,-6.08708 0.564588,-5.43051 0.267103,0.65657 2.031576,1.70397 3.921053,2.32756 C 77.454065,185.6449 79,186.80025 79,187.58876 c 0,0.7885 1.0125,3.43615 2.25,5.88367 2.747738,5.43443 4.713901,6.24077 18.75,7.68946 13.53815,1.3973 80.79518,0.55328 83.79381,-1.05154 2.91111,-1.55798 3.57467,-0.0766 3.30445,7.37723 -0.352,9.7094 -0.39353,9.81423 -3.92992,9.91876 -1.74267,0.0515 -3.16845,-0.2265 -3.16841,-0.61781 z M 62.568032,195.91713 C 61.263759,191.52517 61,184.22507 61,152.5185 61,124.20411 60.691359,114.09136 59.8,113.2 c -0.933333,-0.93333 -0.736589,-1.2 0.885348,-1.2 2.077844,0 5.387581,-6.97837 5.499459,33.625 0.06447,23.39733 -2.769987,49.33721 -2.204278,51.30877 0.541897,1.88857 0.798578,3.62046 0.570401,3.84863 -0.228176,0.22818 -1.120481,-1.96119 -1.982898,-4.86527 z m 7.215505,-31.54941 c -0.962976,-10.30263 1.410949,-10.50707 2.79825,-9.97471 0.869984,0.33385 2.624671,-0.3488 3.899307,-0.3488 2.029998,0 2.362312,1.519 2.678571,5.49543 0.198579,2.4968 0.04877,4.8593 -0.332898,5.25 -0.381673,0.3907 -2.298834,3.38389 -4.260359,6.65153 L 71,177.38234 Z m 39.141503,6.04027 c -0.49923,-0.6006 -0.67664,-1.32306 -0.39425,-1.60545 0.28239,-0.28239 -0.16486,-3.39098 -0.99389,-6.90799 -0.82904,-3.517 -1.51399,-6.61955 -1.52212,-6.89455 -0.0147,-0.49664 3.21976,-0.63917 20.48522,-0.90271 11.82392,-0.18048 18.18749,-2.33512 20.96133,-7.09729 1.79185,-3.07625 2.08092,-5.58849 2.38762,-20.75 L 150.1979,109 h 3.2946 3.29459 l 0.58839,16.25 c 0.78386,21.6485 8.9222,7.92518 4.83628,34.6372 -0.4905,3.20666 -4.51562,5.61057 -7.74535,7.72676 -4.22831,2.7705 -16.92518,4.45865 -31.30005,4.16159 -8.08249,-0.16703 -13.69111,-0.70561 -14.24132,-1.36756 z m 53.64203,-52.95077 c -1.99451,-8.60782 3.67601,-13.80199 5.22561,-13.80398 1.52994,-0.002 0.66597,5.21253 0.37846,11.2629 -0.18087,3.80635 -1.42574,16.65629 -0.8548,17.72312 0.86141,1.60955 2.18357,-6.73243 0.14288,-5.80263 L 165,127.95712 Z M 71,118.69676 v -6.51722 l 8.416128,-0.70106 c 4.628871,-0.38558 10.23514,-2.41489 9.83689,-1.73274 C 88.422624,111.1681 87.38543,106.43611 84.75,108.18477 L 79,112 v 6 c 0,5.67922 0.04449,7.39024 -2.244433,7.39024 -1.330016,0 -4.954711,-0.50887 -5.824695,-0.17502 C 69.588204,125.73045 71,124.22877 71,118.69676 Z M 13.427534,101.60161 c -0.797308,-3.458014 -0.773702,-4.899353 0.09201,-5.617829 0.640462,-0.531536 1.407089,-0.723815 1.703617,-0.427287 1.069374,1.069373 42.927105,-1.436314 44.398915,-2.657808 1.186524,-0.984727 1.422357,-5.55597 1.343229,-26.036335 -0.05279,-13.663044 0.114064,-25.184 0.370782,-25.602125 0.256719,-0.418124 4.634008,-0.613914 9.727311,-0.435088 l 9.260549,0.325138 -7.911973,5.190502 L 64.5,51.531279 63.854355,77.827951 c -0.355105,14.46317 -0.805105,26.450539 -1,26.638609 -0.194895,0.18806 -9.968638,4.65505 -23.137892,3.6709 L 14.5,106.253 Z M 71,93 c 0,-6.05 0.361725,-11 0.803833,-11 0.442108,0 2.254212,1.496411 4.026898,3.325359 3.496133,3.607094 3.46664,2.805172 0.604074,16.424641 -0.336637,1.60165 -1.18781,2.25 -2.953857,2.25 H 71 Z m 38.71071,9.31045 c -0.26513,-0.44575 -0.79615,-3.13973 -1.18006,-5.986628 l -0.69802,-5.176178 4.33369,-0.529499 C 114.54984,90.326921 123.7,89.820753 132.5,89.493327 c 8.8,-0.327425 16.35287,-0.947742 16.78416,-1.378482 0.43129,-0.43074 0.65629,-12.023927 0.5,-25.762638 L 149.5,37.372732 l 3.69255,2.563634 c 2.05323,1.425502 3.91591,3.673516 4.19566,5.063634 0.27672,1.375 0.80226,14.490003 1.16788,29.144451 l 0.66476,26.644449 -11.36042,0.58033 c -28.86354,1.47446 -37.70285,1.69254 -38.14972,0.94122 z M 219,100.39251 c 0,-1.439756 -1.85214,-1.54227 -17.75,-0.982439 -9.7625,0.34378 -21.40631,0.877869 -25.87514,1.186859 l -8.12514,0.56181 -0.60694,-11.329371 c -0.33381,-6.231153 -0.89541,-20.231739 -1.248,-31.112414 L 164.75371,38.93391 157.27011,33.716955 149.78651,28.5 158.14325,28 c 4.59621,-0.275 8.72124,-0.225512 9.16672,0.109972 0.44549,0.335485 0.76997,13.323695 0.72108,28.862689 -0.0628,19.959992 0.24906,28.65992 1.06247,29.640028 1.26848,1.528416 23.39226,1.82462 40.24491,0.538818 4.86114,-0.370889 9.04777,-0.335647 9.30361,0.07832 C 219.24717,88.208943 219.97594,102 219.42255,102 219.19015,102 219,101.27663 219,100.39251 Z M 72.012379,64.25 72.024757,55.5 75.512379,53.240807 79,50.981614 v 10.425859 c 0,7.405016 0.362182,10.572004 1.25,10.930246 0.6875,0.277413 -0.8875,0.539913 -3.5,0.583334 L 72,73 Z"
         id="path808"
         sodipodi:nodetypes="sscssssssssssssssssssssssssscsssssssscccsssssssssscsscssscssssssssssscccssscsssssscssscsssscssscssssscsscccssssssssccccssscc" />
      <path
         style="fill:#080808"
         d="m 89.23015,221.4496 c -8.746943,-2.35489 -13.158546,-5.334 -19.657437,-13.27445 -6.313538,-7.71398 -6.564952,-9.8004 -6.69044,-55.52194 l -0.112436,-40.96597 -23.188211,0.65309 C 14.997797,113.03272 14,112.88042 14,108.43558 c 0,-2.13961 0.277888,-2.17279 24.25,-2.89575 13.3375,-0.40224 24.40946,-0.88521 24.604355,-1.07327 0.194895,-0.18807 0.644895,-12.175439 1,-26.638609 L 64.5,51.531279 l 8,-5.258496 c 4.4,-2.892173 8.523533,-5.261711 9.163406,-5.265639 2.271883,-0.01395 17.980367,-12.445651 27.527894,-21.785588 6.35422,-6.216058 10.20701,-9.2826885 11.18898,-8.905872 0.82372,0.316091 7.15428,4.424372 14.06791,9.129514 C 141.36182,24.150339 147.50826,28 148.10695,28 c 0.59869,0 4.58939,2.467127 8.86822,5.482505 l 7.77971,5.482505 0.64048,19.767495 c 0.35227,10.872122 0.91361,24.865711 1.24742,31.096864 l 0.60694,11.329371 8.12514,-0.56181 c 4.46883,-0.30899 16.11264,-0.843079 25.87514,-1.186859 L 219,98.785018 v 2.485042 c 0,1.36678 -0.5625,2.93891 -1.25,3.49362 -0.68901,0.55593 -10.67461,1.29776 -22.25,1.65296 -11.55,0.35442 -23.1375,0.89789 -25.75,1.20772 l -4.75,0.56332 v 9.93184 9.93184 l 2.95034,-1.52568 c 3.77702,-1.95317 9.33064,-1.94886 13.11904,0.0102 4.1388,2.14026 8.51279,8.55394 9.96666,14.61436 1.53142,6.38369 0.60236,17.64192 -1.91896,23.25367 -2.50245,5.56974 -9.50595,13.24367 -14.33501,15.70727 l -3.97436,2.02757 -3.7076,-2.56938 C 165.06092,178.15622 162.90929,177 162.31869,177 c -3.10405,0 -3.51722,-3.28831 -4.41455,-35.1343 -0.49905,-17.71124 -1.13074,-32.42563 -1.40375,-32.69864 -0.5559,-0.5559 -66.948643,1.54074 -78.25039,2.4711 L 71,112.23498 v 6.13251 6.13251 h 5.42667 c 9.098348,0 15.001901,5.90281 15.001901,15 0,9.09719 -5.903553,15 -15.001901,15 H 71 v 11.44117 11.44117 l 3.330726,-5.44117 c 10.178677,-16.62819 11.067007,-17.67423 12.294027,-14.47666 0.309091,0.80547 -0.302677,2.71797 -1.359484,4.25 -3.324925,4.82004 -9.299122,17.4217 -8.710673,18.37383 C 76.864487,180.58975 80.664919,181 85,181 c 4.335081,0 8.162046,0.45318 8.504365,1.00706 0.744396,1.20446 0.01872,1.4334 -8.872153,2.799 -6.996494,1.07464 -11.263555,0.37093 -12.846547,-2.11862 -0.415272,-0.65309 -0.76193,1.79348 -0.770352,5.43683 -0.02734,11.82723 4.338024,19.91675 13.296696,24.64031 L 89.5,215.5 l 45.25,0.28853 c 48.079,0.30656 47.05488,0.18963 43.6933,4.98896 L 176.88659,223 135.6933,222.93419 c -32.25978,-0.0515 -42.336164,-0.3735 -46.46315,-1.48459 z m 89.65588,-53.05746 c 4.88524,-5.54992 6.10149,-9.4121 6.10684,-19.39214 0.005,-8.41233 -1.76697,-13.09292 -6.17918,-16.32662 -2.32304,-1.70254 -3.08473,-1.80375 -5.63252,-0.74842 -1.62042,0.6712 -4.15349,2.48049 -5.62905,4.02064 l -2.68285,2.80029 0.92676,12.37705 c 0.63915,8.53596 1.61244,14.16067 3.13619,18.12434 2.58633,6.72765 3.33584,6.66326 9.95381,-0.85514 z M 83.6,146.6 c 3.883639,-3.88364 4.451467,-8.01142 1.734729,-12.6105 -3.917109,-6.63113 -13.483075,-6.47088 -16.976364,0.28439 l -1.491643,2.88452 2.89598,-2.14109 c 2.098394,-1.55141 3.637935,-1.95487 5.589968,-1.46494 7.991387,2.00571 7.045094,14.41756 -1.10267,14.46293 -2.142937,0.0119 -2.418875,0.22931 -1.25,0.98469 3.091139,1.99765 7.112951,1.08705 10.6,-2.4 z M 76.434805,101.75 C 79.297371,88.130531 79.326864,88.932453 75.830731,85.325359 74.058045,83.496411 72.245941,82 71.803833,82 71.361725,82 71,86.95 71,93 v 11 h 2.480948 c 1.766047,0 2.61722,-0.64835 2.953857,-2.25 z m 71.425625,-0.38077 11.36042,-0.58033 -0.66476,-26.644449 C 158.19047,59.490003 157.67516,46.375 157.41095,45 157.04752,43.108613 153.09534,39.86191 141.17661,31.663516 132.51193,25.703449 124.23811,20.1083 122.79035,19.22985 c -2.62235,-1.591148 -2.6646,-1.566599 -11.18587,6.499494 -9.1046,8.618265 -19.646913,16.80182 -31.994016,24.835619 L 72.025832,55.5 72.012916,64.25 72,73 h 3.375 c 8.186932,0 8.962225,-0.562333 13.561785,-9.836588 l 4.293937,-8.658019 4.357186,8.671203 c 2.427802,4.83155 5.144252,8.899995 6.134642,9.187893 0.9776,0.28418 4.47745,0.829713 7.77745,1.212295 10.35207,1.200158 10.33597,1.147287 2.66597,8.758519 l -6.841,6.788579 0.90736,5.688059 c 0.49906,3.128432 1.09821,6.280269 1.33147,7.004079 0.43216,1.34103 4.14722,1.29769 38.29663,-0.44679 z m -59.536363,-5.377598 4.824066,-2.462132 5.105443,2.722407 c 2.807994,1.497324 5.278444,2.549404 5.489894,2.337956 0.21145,-0.211449 -0.0622,-2.793169 -0.60812,-5.737157 L 102.14277,87.5 l 4.57572,-4.6837 4.57572,-4.683701 -6.19938,-0.70138 -6.199376,-0.70138 -2.821732,-5.580315 -2.821732,-5.580315 -2.66665,5.262381 c -2.909859,5.742331 -2.881111,5.723074 -9.964416,6.674389 l -4.879077,0.655279 4.25592,4.336467 c 4.515529,4.600988 4.567859,4.92925 2.292827,14.382652 -0.31507,1.309207 -0.171846,2.198804 0.318275,1.976882 0.490122,-0.221922 3.061961,-1.511454 5.715198,-2.865627 z m 14.323993,54.494708 c -3.323155,-3.13915 -4.947759,-5.55832 -5.334922,-7.94412 -1.368113,-8.4307 2.894102,-15.44385 10.656212,-17.53397 3.61807,-0.97424 5.04893,-0.89108 8.70731,0.50607 15.10599,5.76903 10.91531,29.46701 -5.21351,29.48194 -3.4163,0.003 -4.77138,-0.69011 -8.81509,-4.50992 z m 15.56344,-3.384 c 2.64893,-2.36683 3.24305,-3.64134 3.24305,-6.95711 0,-9.85403 -10.23976,-14.45093 -17.04067,-7.65002 -2.84982,2.84982 -3.37472,5.68431 -0.58514,3.15978 2.51611,-2.27705 7.72592,-2.10033 10.17126,0.34501 4.32561,4.32561 1.15487,12.33333 -4.88351,12.33333 -2.04037,0 -2.72918,0.29566 -1.90583,0.81802 2.81012,1.78288 7.73987,0.86466 11.00084,-2.04901 z"
         id="path806" />
    </g>
  </g>
</svg>
