<?xml version="1.0" encoding="UTF-8" standalone="no"?>
<!-- Created with Inkscape (http://www.inkscape.org/) -->

<svg
   version="1.1"
   id="svg971"
   width="202.9863"
   height="308.19955"
   viewBox="0 0 202.9863 308.19955"
   sodipodi:docname="ã.png"
   xmlns:inkscape="http://www.inkscape.org/namespaces/inkscape"
   xmlns:sodipodi="http://sodipodi.sourceforge.net/DTD/sodipodi-0.dtd"
   xmlns="http://www.w3.org/2000/svg"
   xmlns:svg="http://www.w3.org/2000/svg">
  <defs
     id="defs975" />
  <sodipodi:namedview
     id="namedview973"
     pagecolor="#ffffff"
     bordercolor="#000000"
     borderopacity="0.25"
     inkscape:showpageshadow="2"
     inkscape:pageopacity="0.0"
     inkscape:pagecheckerboard="0"
     inkscape:deskcolor="#d1d1d1"
     showgrid="false" />
  <g
     inkscape:groupmode="layer"
     inkscape:label="Image"
     id="g977"
     transform="translate(-11.657357,-5.8004351)">
    <g
       id="g981">
      <path
         style="fill:#afafaf"
         d="m 170,183.36067 c -1.375,-0.20184 -5.79549,-0.85358 -9.82331,-1.44833 -11.62815,-1.717 -31.39927,-8.47475 -37.78538,-13.64591 -2.23301,-1.80818 2.34691,-1.22022 3.53523,-4.08909 2.0255,-4.88999 1.56504,-6.85624 3.85975,-4.39316 3.23015,3.46716 22.88423,8.67096 37.30136,9.47431 8.87499,0.49453 10.60742,1.18929 8.42002,3.3767 -1.22933,1.22933 -2.15447,7.26843 -1.62609,10.61481 0.0651,0.4125 -0.21908,0.68872 -0.63158,0.61382 -0.4125,-0.0749 -1.875,-0.30132 -3.25,-0.50315 z m -66.82611,-25.45854 c -2.5348,-6.60502 -4.275779,-12.9668 -4.83066,-17.65191 -0.718996,-6.07079 1.039787,-16.12051 3.75144,-21.43578 1.04793,-2.05412 -1.41148,5.11676 -1.41148,4.07394 0,-1.04282 8.35208,-21.18402 10.30228,-23.738114 2.14709,-2.81196 -0.6507,1.453854 -1.43535,1.385414 -1.43543,-0.1252 29.10113,-2.49598 32.28393,-2.595734 1.1,-0.03448 -4.10499,2.189964 -8.71392,4.793054 -11.72902,6.62447 -21.14952,15.6034 -25.505,24.30949 -4.48232,8.95964 -5.318,15.52711 -3.10073,24.36824 1.19591,4.76855 1.38558,7.08929 0.6403,7.83457 -0.74527,0.74527 -1.33202,0.3474 -1.98081,-1.34317 z m 8.45025,-8.61132 C 110.54088,148.20755 111.09745,137.64982 112.43021,134 l 1.27806,-3.5 0.44081,6.71162 c 0.24245,3.69138 0.75533,7.02613 1.13974,7.41053 0.3844,0.38441 4.04823,8.45502 5.2891,7.42464 1.55469,-1.29096 -2.45216,-2.83025 -4.1749,-1.13912 -1.375,1.34977 -1.7575,-0.95029 -2.65172,-0.006 -0.89422,0.94393 -1.78388,-1.26722 -2.12716,-1.6105 z M 40.75,99.441877 C 40.3375,99.015512 40,97.195962 40,95.398433 40,93.600904 39.589629,91.050841 39.088064,89.731626 37.787267,86.31027 38.781821,85.542997 45,85.170718 c 25.246237,-1.511476 28.009735,-1.905345 31.788519,-4.53067 12.998057,-9.030451 -6.190362,5.878061 -5.093292,3.019142 0.3491,-0.909727 56.592473,-47.904815 60.123213,-51.282668 6.34797,-6.073085 6.49903,-6.149137 13.55055,-6.822096 l 7.13101,-0.680544 -3,2.957376 c -1.65,1.626557 -20.05429,18.304934 -40.89843,37.063059 L 70.703149,99 62.601574,99.0071 C 58.145708,99.011019 51.575,99.284864 48,99.615653 c -3.575,0.330789 -6.8375,0.25259 -7.25,-0.173776 z m 53.542345,-11.521475 9.792345,-9.191786 13.70766,-0.434051 c 13.95173,-0.441781 90.45315,-7.710224 92.14291,-8.75455 1.49719,-0.925316 2.24746,1.223042 2.41126,6.904525 l 0.15348,5.323162 -3.78017,2.387847 C 203.13651,87.682401 94.241322,95.709828 88.5,96.536348 l -4,0.575839 z M 72.461349,24.352873 c -0.345617,-1.56908 -0.799615,-3.409975 -1.008884,-4.090877 -0.209269,-0.680902 -0.05918,-1.171961 0.333523,-1.091241 C 72.178695,19.251474 73.175,19.071194 74,18.770133 74.825,18.469071 82.005036,17.689151 89.955635,17.036977 111.2626,15.289204 145.62027,9.9577282 161.95455,5.8644968 162.75455,5.6640236 163.43218,5.95 163.46039,6.5 c 0.0681,1.3266464 4.73651,8.908357 5.74702,9.333333 0.43592,0.183334 0.79259,0.997391 0.79259,1.809017 0,0.811626 -0.41891,1.216786 -0.9309,0.900355 -0.512,-0.316431 -2.78695,1.47879 -3.17865,2.112575 -0.48245,0.780613 0.28352,-1.098917 -0.85014,-2.601846 l -1.32606,0.213573 -42.28086,4.608048 c -21.24265,2.315165 -43.375698,3.468523 -45.138519,3.774454 -2.893737,0.502196 -3.266179,0.279069 -3.833522,-2.296636 z"
         id="path985"
         sodipodi:nodetypes="sssssssssssssssssssssssscssssssscsssssscssccsscsssscssccsssssscssssscssss" />
      <path
         style="fill:#050505"
         d="m 11.671152,312.58542 c -0.307814,-0.80215 4.569391,-8.91979 11.265296,-18.75 18.573054,-27.26697 73.520389,-114.83293 76.508899,-121.92721 1.484723,-3.52452 3.580993,-8.22939 4.658373,-10.45527 1.87551,-3.8748 1.8896,-4.31748 0.33117,-10.40061 -4.495527,-17.54778 6.24982,-35.64795 28.68524,-48.31933 4.60893,-2.60309 7.94548,-4.732916 7.41457,-4.732946 -0.53092,-3e-5 -11.33092,1.123148 -24,2.495946 -45.656888,4.94731 -40.712476,4.73823 -43.331363,1.83233 -1.263164,-1.40159 -2.163164,-2.89619 -2,-3.321323 C 71.366502,98.581874 89.616684,81.910563 111.7593,61.959651 133.90191,42.008738 151.83192,25.498589 151.60376,25.270431 151.18464,24.851303 128.75662,27.210005 93,31.433652 79.917708,32.97896 73.088608,33.410894 72.25,32.746072 70.807494,31.602498 70.581829,28.376478 71.887877,27.569296 72.37621,27.26749 93.166059,24.501699 118.08754,21.423095 161.16351,16.10183 163.46349,15.913381 164.69967,17.603946 165.41485,18.582019 166,19.888451 166,20.50713 166,21.458713 143.07416,42.71177 122.85939,60.5 c -3.12514,2.75 -5.72197,5.536983 -5.77073,6.193296 -0.0488,0.656313 -0.92791,1.781313 -1.95365,2.5 -2.87815,2.016566 -30.214378,27.06067 -29.890682,27.384365 0.157427,0.157427 26.154352,-2.843957 57.770952,-6.669743 73.91914,-8.944631 70.48905,-8.641998 71.38833,-6.298501 1.26435,3.294824 -2.33246,4.906006 -13.9728,6.259095 -47.03027,5.466862 -81.86344,22.513568 -87.68081,42.909368 -1.91978,6.73075 -2.32426,15.74917 -0.75,16.72212 0.55,0.33992 1,0.20167 1,-0.30721 0,-0.50888 2.09885,-2.56044 4.66411,-4.55902 5.3352,-4.15661 9.30644,-4.66322 12.38917,-1.58049 1.72836,1.72836 1.94676,2.79653 1.38014,6.75 -0.37024,2.5832 -2.07733,7.55253 -3.79354,11.04297 l -3.12039,6.34624 2.48071,2.00876 c 6.72611,5.44647 21.91948,11.1348 34.2922,12.83885 12.34322,1.69998 12.7076,1.81056 12.7076,3.85651 0,3.33959 -2.51223,4.39123 -8.74244,3.65964 -12.73622,-1.49556 -28.55439,-6.79003 -42.5759,-14.2505 -2.75889,-1.46793 -2.93818,-1.39498 -8.5,3.45865 -5.94715,5.18989 -49.44893,63.80152 -77.364067,104.2356 -18.733834,27.13529 -21.631494,31 -23.242999,31 -0.748339,0 -1.604888,-0.63656 -1.903442,-1.41458 z M 109.87264,173.52234 C 112.14269,171.05963 114,168.67463 114,168.22234 114,167.17638 111.84843,165 110.8144,165 110.10947,165 104,176.18135 104,177.47148 c 0,1.52119 2.18408,0.0525 5.87264,-3.94914 z"
         id="path983" />
    </g>
  </g>
</svg>
