<?xml version="1.0" encoding="UTF-8" standalone="no"?>
<!-- Created with Inkscape (http://www.inkscape.org/) -->

<svg
   version="1.1"
   id="svg1039"
   width="199.74223"
   height="206.2467"
   viewBox="0 0 199.74223 206.2467"
   sodipodi:docname="ãŸ.png"
   xmlns:inkscape="http://www.inkscape.org/namespaces/inkscape"
   xmlns:sodipodi="http://sodipodi.sourceforge.net/DTD/sodipodi-0.dtd"
   xmlns="http://www.w3.org/2000/svg"
   xmlns:svg="http://www.w3.org/2000/svg">
  <defs
     id="defs1043" />
  <sodipodi:namedview
     id="namedview1041"
     pagecolor="#ffffff"
     bordercolor="#000000"
     borderopacity="0.25"
     inkscape:showpageshadow="2"
     inkscape:pageopacity="0.0"
     inkscape:pagecheckerboard="0"
     inkscape:deskcolor="#d1d1d1"
     showgrid="false" />
  <g
     inkscape:groupmode="layer"
     inkscape:label="Image"
     id="g1045"
     transform="translate(-7.7283282,-8.8411951)">
    <g
       id="g1049">
      <path
         style="fill:#afafaf"
         d="m 18.756154,210.0315 c -2.857397,-3.02416 -7.433177,-3.42228 -9.257725,-5.08004 0.4225069,0.28638 -0.2437685,0.004 -0.1692095,-0.49247 0.203812,-1.3563 11.0725155,-19.90829 16.3747045,-32.82022 10.701521,-26.06042 22.444804,-66.50357 25.0117,-86.13877 0.770249,-5.891939 0.851774,-6.01665 4.526581,-6.924461 2.058213,-0.508454 4.020557,-0.64611 4.360764,-0.305903 1.343112,1.343112 -10.231547,46.486064 -18.212071,71.029884 -5.08525,15.6395 -15.302306,44.58987 -19.841485,55.21084 -2.551917,5.97108 -1.615805,6.93989 -2.793259,5.52114 z m 164.797996,-8.03202 c 1.79596,-1.02625 5.52633,-2.94711 8.37968,-4.39302 2.85335,-1.4459 7.22839,-0.60646 7.50793,-0.60646 0.27953,0 0.2566,1.4625 -0.051,3.25 -0.82118,7.85855 -0.28856,2.69425 -0.52844,4.33179 -0.54775,0.18788 -3.02487,0.3865 -8.11237,0.34775 -8.77165,-0.0668 -13.83166,0.8618 -10.73513,-0.90762 z m -41.70048,-1.05172 C 128.27798,199.07683 114.26228,192.39428 105.95035,183.8294 102.42028,180.1919 98.229154,174 99.297106,174 c 0.191657,0 3.032634,1.30023 6.313284,2.8894 16.06904,7.78395 34.74216,11.40808 59.38961,11.52651 21.34334,0.10256 30.69713,-0.86468 31.32478,-3.23916 0.24377,-0.92221 0.49542,-0.27602 0.55922,1.43597 0.10687,2.8677 -0.37599,3.34827 -6.134,6.10495 -8.42168,4.03193 -11.131,5.00195 -18.75,6.71309 -8.75135,1.96545 -22.04011,2.63416 -30.14633,1.517 z M 97.22368,191.5237 c -6.016695,-3.01196 -11.433805,-6.07196 -12.038023,-6.8 -0.829728,-0.99976 -0.376106,-2.41272 1.853602,-5.7737 1.623698,-2.4475 2.541665,-5.66253 3.026111,-6.95 2.968331,-7.88871 0.534964,-0.99869 1.571285,2.37601 2.080896,6.77628 5.182192,11.3438 11.823855,17.4139 3.13537,2.86555 6.96577,4.7334 6.69131,4.7334 -0.27446,0 -6.91144,-1.98764 -12.92814,-4.99961 z M 40.502223,175.5 c 0.359279,-1.1 2.647798,-7.80623 5.085598,-14.90274 6.066349,-17.65931 14.587415,-47.83661 18.94368,-67.088912 3.586335,-15.849635 4.065559,-17.576077 4.990581,-16.651055 0.718994,0.718994 -5.851146,28.277387 -11.61559,48.642707 -4.931696,17.42329 -15.083484,47.44035 -17.079133,50.5 -0.753568,1.15534 -0.828275,1.04046 -0.325136,-0.5 z M 99.68041,121.94167 c -0.359205,-1.34292 -0.659245,-3.87488 -0.666755,-5.62657 -0.0075,-1.7517 -0.49529,-4.4517 -1.083954,-6 -1.157246,-3.04379 -1.193097,-3.32555 -0.419223,-3.29484 0.280763,0.0112 1.809117,-0.65129 3.396342,-1.47208 4.00564,-2.07139 24.30356,-7.111302 38.09318,-9.458416 17.69982,-3.012663 48.86553,-6.116359 49.59328,-4.938839 0.26308,0.425682 0.63632,4.370332 0.82942,8.765889 0.38427,8.747166 -0.36712,9.991096 -4.22679,6.997386 -1.26726,-0.98293 -5.31726,-2.82823 -9,-4.10067 -5.84299,-2.01883 -8.6066,-2.31291 -21.69591,-2.30868 -12.68104,0.004 -16.23678,0.36171 -23,2.31315 -14.88777,4.29569 -23.63488,9.95014 -29.58324,19.12367 l -1.58325,2.44168 z M 115,118.44429 c 0,-0.19799 1.9125,-1.46444 4.25,-2.81434 9.68043,-5.59041 28.88007,-9.31384 41.75,-8.09666 8.60491,0.81381 7.42631,1.79537 -3.5,2.91486 -9.02304,0.92449 -31.62315,5.06725 -37.75,6.91984 -2.6125,0.78995 -4.75,1.27428 -4.75,1.0763 z M 8.9543511,73 C 8.9315518,72.725 8.5411471,70.577809 8.0867851,68.228465 7.6324231,65.87912 7.6064748,63.743212 8.0291224,63.482001 8.4517699,63.220791 14.35482,62.778348 21.147012,62.498795 39.756098,61.732883 55.364047,60.06606 56.625391,58.709946 57.800909,57.446107 63.377249,27.333349 65.367823,11.5 65.613549,9.5454557 66.225025,8.6328376 67.122492,8.8811858 67.880121,9.090838 70.975,9.7990802 74,10.455057 c 7.648413,1.658573 7.537936,1.614007 7.167808,2.89152 C 80.251827,16.508126 76.75969,41.472749 76.285398,48.25 L 75.743029,56 h 7.061914 c 5.447099,0 24.236297,-2.797982 35.340317,-5.262681 0.58805,-0.130525 1.2483,1.562681 1.46722,3.762681 0.21892,2.2 0.61578,4.958863 0.88192,6.130806 0.44349,1.952973 -0.12029,2.221452 -6.75526,3.216938 -17.027527,2.554743 -43.717502,6.274995 -44.272648,5.719848 -0.331245,-0.331244 1.294693,-7.17347 2.424862,-14.232675 C 74.801418,37.158218 77.070859,17.92367 76.428126,16.883706 76.127738,16.397668 74.436608,16 72.670058,16 H 69.45815 L 67.677578,31.167035 C 65.339974,51.07891 62.142798,69.293712 60.844506,70.0961 59.074194,71.190214 9.0364657,73.990447 8.9543511,73 Z"
         id="path1053"
         sodipodi:nodetypes="ccssssssscsssccssssssssssssssssssssssssssssssscsssssscsscssssssssssssssssscssssssssscsss" />
      <path
         style="fill:#080808"
         d="m 19.121631,213.64656 c -0.861632,-1.03821 0.407687,-5.17212 5.449638,-17.74836 C 33.157603,174.48112 44.82596,139.70594 50.373458,119 55.471195,99.972778 60.386719,79.029885 59.860763,78.578753 59.662344,78.40856 48.800904,78.704193 35.72423,79.235714 10.315912,80.268473 8.5673045,80.027949 9.2017429,75.587505 9.4653911,73.742228 10.254242,73.474846 16,73.283225 30.180851,72.810294 59.866544,70.700514 60.844506,70.0961 62.143905,69.293028 65.340527,51.074201 67.683024,31.120651 l 1.786017,-15.213419 3.51548,0.296384 L 76.5,16.5 76.196508,22 c -0.263872,4.781981 -3.939119,32.045624 -5.851039,43.404062 l -0.657155,3.904061 6.905843,-0.6795 c 3.798214,-0.373725 15.392826,-1.839998 25.765803,-3.258385 16.33426,-2.233523 19.05104,-2.387811 20.28675,-1.152102 1.67953,1.679532 0.86849,4.503437 -1.48909,5.184787 C 120.24593,69.666404 110.5,71.035468 99.5,72.445288 c -11,1.40982 -22.554448,3.06585 -25.676551,3.680067 l -5.676552,1.116758 -1.64754,7.628944 C 57.701576,125.60923 42.630227,173.36003 29.451622,202.25 23.599298,215.07939 21.882607,216.97333 19.121631,213.64656 Z M 135.34997,206.5037 c -3.38252,-0.73552 -10.77661,-3.28725 -16.4313,-5.6705 -21.022351,-8.8602 -29.993626,-21.98265 -28.577612,-41.80102 0.79508,-11.12786 3.851847,-21.31157 10.490442,-34.94923 6.78631,-13.94111 25.09662,-22.70817 49.6685,-23.78151 18.58793,-0.811941 30.0197,2.17547 39.25,10.25703 l 5.25,4.59662 0.0703,-3.32754 c 0.0386,-1.83015 0.37671,-4.09986 0.75124,-5.04378 0.58712,-1.47975 1.02527,-1.54271 3.17971,-0.45693 2.90942,1.46627 2.87726,0.78534 1.07094,22.67316 -1.82963,22.1703 -0.10592,42.94898 5.4748,65.9967 2.38088,9.8328 2.43043,10.54665 0.81396,11.72864 -2.43481,1.78038 -5.02606,-0.7837 -5.87599,-5.8144 C 200.12154,198.75992 199.68546,197 199.51589,197 c -0.16957,0 -3.67643,1.59951 -7.79302,3.55448 -13.81167,6.55913 -40.57768,9.38383 -56.3729,5.94922 z M 172,199.43076 c 7.619,-1.71114 10.32832,-2.68116 18.75,-6.71309 7.08225,-3.39067 6.97486,-3.05081 4.65073,-14.71767 -0.907,-4.55305 -1.72294,-16.47508 -2.07655,-30.34159 l -0.58248,-22.84159 -3.16178,-4.15841 c -3.96316,-5.2124 -12.14507,-10.18859 -19.46342,-11.83753 -12.46174,-2.80783 -31.37563,-1.06319 -45.4133,4.18898 -11.8876,4.44772 -22.0575,17.95982 -26.312003,34.95908 -2.107906,8.42234 -1.520977,20.80479 1.281275,27.03106 5.502618,12.22615 23.659168,23.39515 42.181198,25.94776 8.10622,1.11716 21.39498,0.44845 30.14633,-1.517 z"
         id="path1051" />
    </g>
  </g>
</svg>
