<?xml version="1.0" encoding="UTF-8" standalone="no"?>
<!-- Created with Inkscape (http://www.inkscape.org/) -->

<svg
   version="1.1"
   id="svg261"
   width="194.74344"
   height="207.33939"
   viewBox="0 0 194.74344 207.33939"
   sodipodi:docname="ã¡.png"
   xmlns:inkscape="http://www.inkscape.org/namespaces/inkscape"
   xmlns:sodipodi="http://sodipodi.sourceforge.net/DTD/sodipodi-0.dtd"
   xmlns="http://www.w3.org/2000/svg"
   xmlns:svg="http://www.w3.org/2000/svg">
  <defs
     id="defs265" />
  <sodipodi:namedview
     id="namedview263"
     pagecolor="#ffffff"
     bordercolor="#000000"
     borderopacity="0.25"
     inkscape:showpageshadow="2"
     inkscape:pageopacity="0.0"
     inkscape:pagecheckerboard="0"
     inkscape:deskcolor="#d1d1d1"
     showgrid="false" />
  <g
     inkscape:groupmode="layer"
     inkscape:label="Image"
     id="g267"
     transform="translate(-23.256554,-12.574177)">
    <g
       id="g271">
      <path
         style="fill:#b0b0b0"
         d="m 114,211.88524 c -3.025,-0.48452 -9.55,-1.84346 -14.5,-3.01985 -8.045436,-1.91203 -9.015063,-2.3858 -9.142016,-4.46684 l -0.142016,-2.32796 19.642012,0.0389 c 32.54996,0.0644 47.23584,-3.96038 59.11479,-16.20083 5.99912,-6.18168 8.17117,-11.52951 8.14424,-20.05197 -0.0413,-13.08031 -7.08444,-23.45141 -18.94064,-27.89047 -2.92799,-1.09626 -5.80597,-1.6951 -6.39549,-1.33075 -1.01319,0.62618 1.94537,-4.74374 5.21912,-9.47294 l 1.5,-2.16687 5.44394,2.54604 c 3.66411,1.71364 8.89512,5.90827 16,12.83003 5.80583,5.65619 11.85343,11.26081 13.4391,12.45472 2.85907,2.15268 2.88147,2.2518 2.69476,11.92216 l -0.18827,9.75143 -0.73364,2.42355 c -1.15756,3.82393 2.79411,-3.80212 -7.65589,6.64259 -20.91127,20.90068 -25.18122,23.89961 -39.09601,27.45842 -8.32591,2.1294 -24.03025,2.52228 -34.40399,0.86068 z M 59.56892,163.21715 c -0.724733,-2.28343 0.925598,-15.48111 2.874652,-22.98855 1.650081,-6.35584 5.511955,-16.23392 9.165356,-23.44356 C 72.924017,114.18984 74,111.83808 74,111.55892 c 0,-0.70424 -6.097834,-3.79442 -6.565219,-3.32703 -0.208647,0.20864 -1.885073,3.6301 -3.725391,7.60323 l -3.563258,7.54971 -1.714453,-2.5881 c -0.920998,-1.39032 -2.240887,0.15758 -1.360468,0.83379 1.374295,1.05554 3.174952,-2.55825 7.415578,-15.69203 l 4.845892,-15.008377 3.236368,3.136812 3.236368,3.136811 3.114699,-2.302796 3.114699,-2.302797 -5.017408,-5.080517 C 74.257833,84.723342 69.567073,81.063303 69.567073,80.393098 69.567073,79.722893 71.523442,80 70.940983,80 c -0.582459,0 -0.737931,0.519529 -0.345491,1.154508 0.419611,0.678947 0.27652,0.884425 -0.347379,0.498834 C 68.469875,80.554331 66,71.931231 66,66.821861 V 62 h 5.440983 c 5.453254,0 5.678771,-0.807838 7.001156,-3.270271 0.952116,-2.366078 0.440851,0.01345 -0.193313,1.743418 -0.31122,-0.503564 2.30751,-10.698305 4.226413,-18.513211 1.918903,-7.814907 3.286715,-14.536085 3.039584,-14.935952 -0.247131,-0.399867 1.275643,-1.243845 3.383943,-1.875507 4.347727,-1.302611 16.949474,-1.553288 16.468894,-0.362607 -0.19018,0.471182 -1.28131,8.375105 -3.44098,17.650836 C 99.767005,51.712437 98,59.676896 98,60.135503 c 0,0.458608 2.5875,0.627276 5.75,0.374819 3.1625,-0.252458 10.3625,-0.697817 16,-0.989687 L 130,58.989961 v 4.893729 c 0,4.729081 -0.10934,4.914293 -3.25,5.504963 -4.25978,0.801146 -18.78688,9.444078 -19.04343,9.730507 -0.44434,0.496083 1.94106,-0.813775 2.99208,-1.615053 1.13874,-0.868158 -2.66858,-0.365774 -10.982778,1.293299 -3.36028,0.670534 -6.508298,0.708652 -6.865709,1.061341 C 92.492753,80.211436 89.691285,88.6 86.624677,98.5 83.55807,108.4 79.687996,120.52191 78.024514,125.43759 76.361031,130.35326 75,134.49016 75,134.63069 c 0,0.14054 3.4875,-1.33702 7.75,-3.28347 22.50841,-10.27833 35.67638,-13.52431 56.31771,-13.88266 l 15.56771,-0.27027 -5.31771,8.08278 c -2.92474,4.44554 -5.32163,8.56432 -5.32643,9.15286 -0.006,0.67797 -3.60317,1.11711 -9.8183,1.19846 -20.62015,0.26988 -42.711066,8.11103 -64.138312,22.76582 -4.105932,2.80819 -8.011655,5.44787 -8.679384,5.86596 -0.746092,0.46716 -1.434651,0.0651 -1.786364,-1.04302 z M 91.777494,48.443296 C 96.923089,44.839181 92.308384,38.171569 86.5,40.818046 83.294002,42.278797 83.148034,46.289852 86.222506,48.443296 87.444885,49.299483 88.694757,50 89,50 c 0.305243,0 1.555115,-0.700517 2.777494,-1.556704 z M 30,69.5 C 30,67.025 29.9892,64.680398 29.97599,64.289774 29.945876,63.398762 32.671702,63.145649 46.75,62.732182 L 58,62.401779 58.01365,65.95089 c 0.0075,1.95201 0.274942,4.52317 0.594293,5.713688 0.565472,2.10804 0.480225,2.128776 -3.263655,0.793893 -5.106354,-1.820674 -13.876992,-1.807166 -19.935362,0.0307 -2.699912,0.819046 -5.021431,1.494046 -5.158931,1.5 C 30.1125,73.995129 30,71.975 30,69.5 Z m 147.5,-1.552543 c -4.95,-0.404625 -15.8625,-0.783332 -24.25,-0.84157 L 138,67 l 0.005,-4.25 0.005,-4.25 9.74454,-0.07092 c 11.50921,-0.08376 41.23919,-3.271397 42.9055,-4.600303 1.6697,-1.331611 2.77525,0.939124 2.50413,5.143355 -0.12512,1.940328 0.20513,4.990369 0.7339,6.777869 l 0.96139,3.25 -4.1802,-0.15843 C 188.38109,68.754433 182.45,68.352083 177.5,67.947457 Z M 86.4014,18.574068 c 0.193441,-1.607994 4.819353,-6.058672 7.5986,-5.999303 6.56828,0.140308 11.61695,0.519297 12.79418,1.696531 1.45297,1.452971 -0.13156,12.481506 -7.960577,7.508735 C 91.833919,17.33403 85.346515,27.342885 86.4014,18.574068 Z"
         id="path275"
         sodipodi:nodetypes="ssscsssssscsssscssssssssssscssscccccsssssscsccsssssssscssssssssssscscsssssssssscscsssssssscccssssccssssss" />
      <path
         style="fill:#070707"
         d="m 105.5,217.96433 c -4.95,-1.04222 -9.9,-2.30529 -11,-2.80683 C 78.672524,207.94114 76.218887,206.4 68.9202,199.09076 57.246291,187.39997 52.925101,176.34178 52.727951,157.6538 c -0.08041,-7.62251 0.430052,-12.05697 2.047646,-17.78804 l 2.154764,-7.63424 -2.091779,-4.36576 C 53.688103,125.46459 46.263458,113.9344 38.339371,102.24311 30.415284,90.551815 23.675564,80.318109 23.362216,79.501536 23.0189,78.606869 23.529173,77.754404 24.646246,77.35643 25.665811,76.993194 27.175,76.133215 28,75.445366 c 4.691336,-3.911434 20.046943,-5.58877 27.344293,-2.986895 3.74388,1.334883 3.829127,1.314147 3.263655,-0.793893 -0.319351,-1.190518 -0.586783,-3.830876 -0.594293,-5.867463 L 58,62.09423 52.864903,62.702406 c -4.130169,0.489158 -5.044162,0.335371 -4.670426,-0.785837 0.563087,-1.68926 7.92075,-4.291931 18.048723,-6.384484 2.707361,-0.559371 2.638468,-0.673639 -5.273409,-8.746578 -6.640275,-6.775451 -7.739519,-8.33487 -6.402667,-9.08301 1.185046,-0.663185 2.42209,-0.145741 4.655011,1.947148 2.166202,2.030353 3.178739,2.467609 3.519613,1.519918 0.632181,-1.757577 9.243058,-11.972151 12.884064,-15.283603 1.580804,-1.437722 5.781175,-4.137722 9.334159,-6 5.783056,-3.031159 7.25006,-3.373814 14,-3.270043 6.729379,0.103454 8.283449,0.523223 14.454759,3.904358 8.2349,4.511743 14.26337,10.522396 18.47066,18.416073 C 135.08797,44.944997 138,56.364247 138,62.914186 v 3.783433 l 21.75,0.602139 c 11.9625,0.331177 26.80138,1.139731 32.97529,1.796788 l 11.22529,1.194648 -8.22529,8.947077 c -14.56848,15.846896 -26.7242,29.989379 -26.76593,31.140619 -0.0224,0.61661 -1.37303,2.67992 -3.0015,4.58513 -2.93367,3.43221 -2.94156,3.47433 -0.86029,4.5882 3.49245,1.8691 8.75999,6.39998 21.0075,18.06963 6.4604,6.15558 16.18755,14.12759 21.78376,17.85313 5.56114,3.70221 10.11117,7.08066 10.11117,7.50769 0,0.42702 -2.1375,2.51731 -4.75,4.64508 -2.6125,2.12777 -12.85,12.02753 -22.75,21.99948 -17.27143,17.39695 -18.38453,18.31672 -27.5,22.7237 -5.59201,2.70352 -12.67075,5.22149 -17.20784,6.12098 -10.62872,2.10716 -28.97095,1.8761 -40.29216,-0.50758 z m 42.90399,-6.93977 c 13.88702,-3.55171 18.15088,-6.54492 39.88702,-28.00055 l 19.791,-19.5356 -7.77876,-5.49421 c -4.27831,-3.02181 -12.95987,-10.48728 -19.29235,-16.58994 -10.77612,-10.38502 -14.32512,-13.05243 -20.47968,-15.39239 -2.31875,-0.88159 -2.74626,-0.49957 -6.48664,5.79642 -2.20235,3.70711 -4.2946,8.1918 -4.64943,9.96596 C 148.80523,144.72384 148.42736,145 144.9813,145 h -3.76871 l 0.93035,-4.25 c 2.22332,-10.15664 12.76097,-25.30901 34.59842,-49.75 l 12.9554,-14.5 -6.59838,-0.795371 c -11.73942,-1.415073 -45.02591,-1.33187 -51.59838,0.128976 -9.33845,2.075634 -19.76127,7.674122 -26.65893,14.319516 -5.920735,5.704193 -6.195154,5.844894 -8.479907,4.347867 C 95.062523,93.650086 94,92.329134 94,91.565539 c 0,-0.763596 3.001231,-4.138439 6.6694,-7.499652 6.89793,-6.320702 19.53177,-13.450197 25.97714,-14.659356 l 3.56573,-0.668934 -0.38272,-10.618799 C 129.49191,48.750675 129.11396,46.893806 126.62062,42.353134 119.94592,30.19771 112.42363,24.983518 100.45404,24.215357 91.938937,23.668891 87.314135,24.950704 80.843757,29.650559 76.049731,33.13277 70.631959,40.512748 69.498986,45.104174 c -0.556655,2.25587 0.123853,3.276477 5.087981,7.630808 L 80.31755,57.761617 73.158775,59.040961 66,60.320306 v 5.71412 c 0,8.800228 2.000329,13.035559 9.524052,20.165436 l 6.64815,6.300138 -3.216038,2.376004 -3.216037,2.376003 -5.120064,-5.27116 C 59.840971,80.883656 50.50607,76.935159 40.095583,79.069533 c -3.07757,0.630969 -6.150367,1.449518 -6.828437,1.818998 -0.844841,0.460354 2.420789,6.170021 10.37606,18.141626 6.384903,9.608413 12.740531,18.985363 14.123618,20.837673 l 2.514703,3.36783 3.386947,-7.31221 c 1.862822,-4.02171 3.55766,-7.48292 3.766307,-7.69156 C 67.902166,107.7645 74,110.85468 74,111.55892 c 0,0.27916 -1.119033,2.71587 -2.486741,5.41491 -14.326228,28.27145 -15.675704,55.30186 -3.602627,72.16172 4.162765,5.81323 11.906123,12.31433 18.589368,15.60709 4.154439,2.04685 17.96478,5.63798 27.5,7.15089 10.41702,1.65282 26.09187,1.25691 34.40399,-0.86897 z M 86.222506,48.443296 C 83.148034,46.289852 83.294002,42.278797 86.5,40.818046 c 5.808384,-2.646477 10.423089,4.021135 5.277494,7.62525 C 90.555115,49.299483 89.305243,50 89,50 88.694757,50 87.444885,49.299483 86.222506,48.443296 Z"
         id="path273" />
    </g>
  </g>
</svg>
