<?xml version="1.0" encoding="UTF-8" standalone="no"?>
<!-- Created with Inkscape (http://www.inkscape.org/) -->

<svg
   version="1.1"
   id="svg405"
   width="314.27921"
   height="146.92708"
   viewBox="0 0 314.27921 146.92708"
   sodipodi:docname="ã¤.png"
   xmlns:inkscape="http://www.inkscape.org/namespaces/inkscape"
   xmlns:sodipodi="http://sodipodi.sourceforge.net/DTD/sodipodi-0.dtd"
   xmlns="http://www.w3.org/2000/svg"
   xmlns:svg="http://www.w3.org/2000/svg">
  <defs
     id="defs409" />
  <sodipodi:namedview
     id="namedview407"
     pagecolor="#ffffff"
     bordercolor="#000000"
     borderopacity="0.25"
     inkscape:showpageshadow="2"
     inkscape:pageopacity="0.0"
     inkscape:pagecheckerboard="0"
     inkscape:deskcolor="#d1d1d1"
     showgrid="false" />
  <g
     inkscape:groupmode="layer"
     inkscape:label="Image"
     id="g411"
     transform="translate(-11.522002,-13.773744)">
    <g
       id="g415">
      <path
         style="fill:#afafaf"
         d="m 72.414363,149.64858 c -0.923449,-2.83172 -2.124555,-5.71108 -2.669125,-6.39858 -0.875875,-1.10576 -0.422546,-1.60103 1.311497,-1.43284 0.306205,0.0297 6.831205,-0.38044 14.5,-0.91141 45.851235,-3.17465 73.454045,-14.96319 83.681745,-35.7386 3.19589,-6.491773 2.44574,-6.972748 3.26152,-20.183016 0.50335,-8.150888 -0.49744,-13.571206 -3.08012,-19.772277 -5.15797,-12.384382 -1.14864,-5.804153 3.0501,1.910322 14.46197,26.571404 -1.12442,56.618401 -38.114,73.475101 -13.53064,6.16611 -34.412324,11.27852 -56.059299,13.72486 l -4.203319,0.47502 z m 93.346597,-21.05677 c 13.20965,-12.64493 19.16705,-25.27599 19.21322,-40.736475 0.0175,-5.861601 -1.25102,-10.713923 -2.59713,-15.07213 C 176.66128,54.277691 159.56849,39.075214 136.5,32.90054 c -11.49953,-3.078047 -34.70285,-1.932939 -48.692217,0.401502 -8.738802,1.458265 -30.448177,5.595111 -37.405241,8.240171 -1.1,0.418218 -1.657627,-1.127986 0.542373,-2.545236 -4.561743,-0.701825 -0.318854,0.816358 7.440678,-4.468586 -1.197002,-0.889427 18.689586,-9.742309 20.71075,-9.276063 1.393032,0.321347 15.672697,-1.189374 19.484473,-1.79831 3.811784,-0.608934 15.764804,-0.572619 22.999194,-0.587379 14.5535,-0.02969 22.78351,1.500357 32.91999,6.120188 7.18528,3.274784 16.2475,11.103222 17.59663,12.526269 3.34866,3.532127 3.81574,4.523657 4.8646,6.31909 3.96525,6.787687 8.31425,15.388119 9.91766,22.967035 1.60239,7.574134 1.38378,21.398426 -0.45033,28.476471 -3.25358,12.555958 -10.03392,22.657878 -21.2491,31.658648 -3.47156,2.78611 -6.50219,5.06566 -6.73473,5.06566 -0.23255,0 3.05976,-3.33369 7.31623,-7.40819 z M 13.446517,56.642931 C 13.081684,55.189319 17.807256,67.978842 11.922977,54 11.739423,53.563944 11.3208,53.327585 11.63617,52.505744 c 0.31537,-0.821841 0.879012,-0.848881 1.375937,-0.998261 1.021164,-0.306971 4.484119,-1.079787 8.98383,-3.005744 C 26.495648,46.575783 30.402762,45 30.678412,45 c 0.275651,0 -1.901726,1.863547 -4.838614,4.141216 -2.936889,2.277669 -5.478273,7.488424 -7.697431,8.431304 l -4.032516,1.713342 z M 36,56.164766 C 43.134598,52.25305 63.446918,44.749999 74.301369,42.016844 87.77159,38.625037 100.68453,36.94514 111.5,37.177524 c 4.53811,0.09751 6.05269,0.318888 3.5,0.511584 C 96.573083,39.080107 75.373001,43.816484 50.766782,52.039654 42.370052,54.845763 34.825,57.353633 34,57.612698 c -0.825,0.259065 0.075,-0.392504 2,-1.447932 z"
         id="path419"
         sodipodi:nodetypes="sssssssssscsssssssccssssssssssssssssssscssssssss" />
      <path
         style="fill:#060606"
         d="m 75.25,159.87638 c -2.007192,-2.04955 -1.48625,-4.79328 1,-5.26685 1.2375,-0.23572 7.564352,-1.16407 14.059671,-2.063 C 136.93112,146.09426 169.16968,125.4817 176.46881,97.458446 180.33009,82.633988 176.41858,69.583943 163.98463,55.807273 153.59037,44.290556 139.47126,38.68385 117.80903,37.470916 90.42966,35.937861 64.61352,42.314684 29,59.407561 L 17.5,64.927041 15.717127,62.81214 C 14.736547,61.648944 14.094796,60.20286 14.291014,59.598619 14.86679,57.825553 29.182244,46.152182 33,44.342594 34.925,43.430157 39.922084,40.542718 44.10463,37.92606 61.784163,26.865509 82.586249,18.654778 101,15.469053 c 19.04256,-3.294514 43.2291,-1.723537 64,4.156961 31.62976,8.954779 59.55383,23.856781 112.66913,60.127187 15.30698,10.45255 32.46692,22.033179 38.1332,25.734729 7.06866,4.61767 10.20383,7.24156 9.98852,8.3596 -0.82183,4.26739 -2.78804,3.08772 -62.11636,-37.267899 -10.35403,-7.042899 -24.75403,-16.403097 -32,-20.80044 C 217.69279,47.294152 190.51659,33.55534 185.5,32.43588 183.85,32.067679 177.83629,30.247771 172.13619,28.391638 154.39374,22.614133 141.70203,20.570308 123.5,20.559454 105.87267,20.548943 97.209322,21.902523 81.5,27.121628 73.283966,29.85124 51.454254,39.81655 52.189668,40.501857 52.360351,40.660911 56.379839,39.521215 61.121865,37.9692 79.712969,31.884529 88.790329,30.494508 109.5,30.561031 c 21.85291,0.0702 28.89707,1.459432 43.13069,8.506152 30.82983,15.2631 41.32213,48.150002 24.35785,76.346857 -1.9187,3.18912 -7.22742,9.34727 -11.79716,13.68477 -6.99274,6.63736 -10.13691,8.76197 -19.8527,13.41507 -15.26591,7.31116 -29.05903,12.02204 -43.78032,14.95265 -16.453377,3.27543 -24.719175,4.03258 -26.30836,2.40985 z"
         id="path417" />
    </g>
  </g>
</svg>
