<?xml version="1.0" encoding="UTF-8" standalone="no"?>
<!-- Created with Inkscape (http://www.inkscape.org/) -->

<svg
   version="1.1"
   id="svg776"
   width="340.8443"
   height="295.91373"
   viewBox="0 0 340.8443 295.91373"
   sodipodi:docname="ã¦.png"
   xmlns:inkscape="http://www.inkscape.org/namespaces/inkscape"
   xmlns:sodipodi="http://sodipodi.sourceforge.net/DTD/sodipodi-0.dtd"
   xmlns="http://www.w3.org/2000/svg"
   xmlns:svg="http://www.w3.org/2000/svg">
  <defs
     id="defs780" />
  <sodipodi:namedview
     id="namedview778"
     pagecolor="#ffffff"
     bordercolor="#000000"
     borderopacity="0.25"
     inkscape:showpageshadow="2"
     inkscape:pageopacity="0.0"
     inkscape:pagecheckerboard="0"
     inkscape:deskcolor="#d1d1d1"
     showgrid="false" />
  <g
     inkscape:groupmode="layer"
     inkscape:label="Image"
     id="g782"
     transform="translate(-8.9902077,-6.9426303)">
    <g
       id="g786">
      <path
         style="fill:#aeaeae"
         d="m 185.99755,213.42241 c -0.34717,-0.56175 -4.85058,-1.43852 -8.40633,-1.80282 -9.32455,-0.95533 -25.47972,-5.23507 -36.03407,-9.54595 -19.37726,-7.91456 -36.57536,-22.39105 -43.831422,-36.89506 -9.887336,-19.76362 -8.757379,-45.90791 2.830922,-65.500251 2.41,-4.354228 4.10575,-9.370074 7.05971,-12.675448 L 111.23272,83 h 13.51297 13.51296 l -9.04658,8.516077 c -22.40963,21.095473 -32.177976,43.474203 -28.19688,64.597433 5.36983,28.49165 37.4025,50.18943 77.85212,52.73425 l 10.36731,-1.13425 -1.95797,4.19882 c -0.76164,1.63332 -0.91295,2.10252 -1.2791,1.51008 z M 172.5,200.87264 c -21.66654,-2.70637 -44.53499,-13.50337 -54.05149,-25.5196 -7.9906,-10.08952 -10.65099,-17.75013 -10.2408,-29.48842 L 108.5,137.5 l 1.22676,6.40176 c 5.23232,27.30442 30.78398,44.66021 75.23125,51.10031 4.1019,0.59434 7.54967,1.17451 7.66169,1.28927 0.11203,0.11476 -1.58229,5.61464 -1.87287,7.12714 -0.51126,2.6614 0.82242,-1.42256 -5.11341,-1.54498 C 182.26004,201.8039 176.35,201.35354 172.5,200.87264 Z M 73.863347,68.862519 75.042373,61.92525 55.5,62.173269 40,62.589721 V 59.79486 57 h 16 16 l 2.021186,12.51589 C 74.985703,75.488511 71.775,79 71.5,79 71.225,79 75.635671,73.260729 73.863347,68.862519 Z M 113.18156,80.429705 120.58771,74.5 124.54385,71.404887 C 128.63782,68.201946 137.1752,63 138.33786,63 138.70204,63 139,65.925 139,69.5 V 76 l -29.5118,1.755017 12.11985,1.193375 z M 147.37981,73.121281 150,64 l 11.25,0.07307 11.25,0.07307 -5.01169,1.785033 c -2.75643,0.981769 -6.901,2.748889 -9.21016,3.926934 -6.54143,3.337182 -12.22511,7.881855 -10.89834,3.263174 z m 58.16131,-15.05475 C 205.09895,57.351094 195.3992,57 176.07584,57 148.78391,57 147.13607,56.89487 144.72713,55 142.3082,53.097273 140.67035,53 111.05178,53 81.253482,53 78.252094,54.401044 75.603195,52.442624 73.020997,50.533522 73.169534,48.09443 56.773936,49.20388 38.588691,50.434431 40.079939,51.502043 40.412594,46.840495 c 0.04408,-0.617704 7.926926,-0.701068 16.5,-0.751867 C 65.485667,46.03783 79.025,45.757689 87,45.466093 c 21.12144,-0.772279 126.71189,-2.576275 127.11123,-2.176932 0.29489,0.294882 -6.88502,14.679247 -7.63213,15.52737 -0.15335,0.174092 -0.57545,-0.163408 -0.93798,-0.75 z M 213.80661,56.75 c 0.85169,-2.869495 9.03921,-14.930491 10.43158,-16.25 0.71931,-0.681672 -3.54867,0.703259 -4.02974,1.55535 C 219.77527,42.822606 224.48405,42 225.44098,42 226.67728,42 227,43.224325 227,47.914505 v 5.914506 l -4.62595,2.585494 c -5.84833,3.268693 -9.46556,3.361421 -8.56744,0.335495 z"
         id="path790"
         sodipodi:nodetypes="sssscccccssscssssscssssssscccccccsssccsssccccscccsssssssssssssssssssscss" />
      <path
         style="fill:#070707"
         d="m 253.12058,302.09569 c -1.14196,-0.72329 -0.58641,-4.80908 3.2272,-23.73469 6.29862,-31.25784 10.42145,-56.99683 11.70557,-73.07837 0.59227,-7.41717 0.93505,-13.61923 0.76175,-13.78235 -0.17331,-0.16312 -3.0151,0.73964 -6.3151,2.00614 -36.29362,13.92903 -77.12466,18.88711 -103.23168,12.53534 -26.22012,-6.37929 -45.5195,-19.81051 -53.90991,-37.5181 -5.68465,-11.99722 -6.675932,-22.05227 -3.42655,-34.75722 3.81852,-14.9303 12.38443,-28.2281 27.11699,-42.096716 l 8.88337,-8.36243 -29.01207,-0.706803 C 80.75882,81.914414 79.81067,81.953893 76.586009,83.946844 73.430637,85.896971 71.774692,86 43.586511,86 H 13.909091 L 11.454545,83.545455 C 9.0984848,81.189394 9,80.565657 9,68 9,49.589948 7.751479,50.52619 33.449828,49.665526 68.001719,48.508348 74.351049,48.701694 77.272871,51 c 2.41913,1.902888 4.056784,2 33.727129,2 29.67035,0 31.308,0.09711 33.72713,2 2.40828,1.894353 4.05678,2 31.20773,2 18.33652,0 29.03633,0.371193 29.69531,1.030175 0.7069,0.7069 1.9208,-1.239864 3.8683,-6.203721 1.56097,-3.978643 3.78229,-8.154721 4.93628,-9.280175 1.15399,-1.125453 4.10695,-4.69725 6.56213,-7.937325 6.03233,-7.960793 14.68373,-14.807104 25.50312,-20.181972 24.25671,-12.0502727 50.86335,-9.4742014 74.20909,7.184968 12.82797,9.153853 24.22978,27.085646 27.8501,43.800281 2.17263,10.030816 1.51964,24.118602 -1.58004,34.087769 -3.85205,12.38896 -8.63918,20.19657 -18.4573,30.10307 -12.7132,12.82766 -24.66908,19.07492 -41.24726,21.55279 -3.97397,0.59397 -7.61726,1.58939 -8.0962,2.21204 -0.47893,0.62266 -1.39596,9.53099 -2.03784,19.7963 -1.9962,31.92467 -6.05898,60.5557 -14.80537,104.3358 -5.08532,25.45458 -5.61717,26.87421 -9.2146,24.59569 z M 210,200.54381 c 17.61126,-2.37693 32.54656,-6.46366 50.11893,-13.71397 l 9.61894,-3.96874 0.62237,-5.18055 C 270.70255,174.83125 270.98505,168 270.98802,162.5 l 0.005,-10 -8.43948,-1.63664 C 231.67117,144.87437 208.22405,118.5728 204.50721,85.75 L 203.85609,80 H 179.3535 154.85091 l -7.17545,5.413163 C 130.26546,98.547264 117.61631,113.22812 111.84391,127 c -4.07758,9.72836 -5.09528,23.64725 -2.34775,32.10977 3.22671,9.93839 8.97391,17.80315 18.00384,24.63732 19.51217,14.7675 50.61556,21.10005 82.5,16.79672 z m 82.98483,-57.10177 C 322.29816,136.53326 343.16452,110.01582 343.30031,79.5 343.3517,67.952262 341.86821,61.716993 336.30274,50.088563 328.31533,33.399775 312.47468,20.415076 294,15.41271 c -8.68067,-2.350455 -24.31933,-2.350455 -33,0 -22.94672,6.213256 -41.5328,25.004067 -47.56336,48.08729 -2.05451,7.86405 -2.02916,24.158387 0.0498,32 6.23022,23.50001 25.1549,42.35311 48.08006,47.89819 7.92051,1.91579 23.38433,1.93738 31.41836,0.0438 z M 225.5,82.793772 c -1.65,-0.576584 -4.05526,-2.003557 -5.34501,-3.171053 -13.76167,-12.457135 2.30564,-31.871338 19.49158,-23.551767 6.01193,2.910327 8.73351,7.621702 8.11587,14.049548 C 246.78713,80.270732 235.944,86.44337 225.5,82.793772 Z m 10.55685,-1.79302 c 5.21255,-1.448053 9.0693,-5.940374 9.6692,-11.262636 0.43952,-3.899407 0.12398,-4.839325 -2.70701,-8.063654 -5.86101,-6.675322 -15.22852,-7.33039 -21.31326,-1.490432 -1.76318,1.692246 -2.41507,2.510354 -1.44864,1.818019 3.106,-2.225093 9.32317,-1.744953 12.18202,0.940792 3.60506,3.386782 3.56966,9.118458 -0.074,11.984579 -2.91149,2.290175 -8.25403,2.718673 -11.68088,0.936863 -2.05518,-1.068601 -2.03978,-0.978663 0.26064,1.521911 3.70491,4.027274 9.03613,5.302424 15.11195,3.614558 z M 72,68 V 57 H 44 16 v 11 11 h 28 28 z m 67,0.5 V 61 H 109.5 80 V 68.5 76 H 109.5 139 Z M 201,68 V 64 H 175.5 150 v 4 4 h 25.5 25.5 z"
         id="path788" />
    </g>
  </g>
</svg>
