<?xml version="1.0" encoding="UTF-8" standalone="no"?>
<!-- Created with Inkscape (http://www.inkscape.org/) -->

<svg
   version="1.1"
   id="svg866"
   width="213.78085"
   height="206.67477"
   viewBox="0 0 213.78085 206.67477"
   sodipodi:docname="ã¨.png"
   xmlns:inkscape="http://www.inkscape.org/namespaces/inkscape"
   xmlns:sodipodi="http://sodipodi.sourceforge.net/DTD/sodipodi-0.dtd"
   xmlns="http://www.w3.org/2000/svg"
   xmlns:svg="http://www.w3.org/2000/svg">
  <defs
     id="defs870" />
  <sodipodi:namedview
     id="namedview868"
     pagecolor="#ffffff"
     bordercolor="#000000"
     borderopacity="0.25"
     inkscape:showpageshadow="2"
     inkscape:pageopacity="0.0"
     inkscape:pagecheckerboard="0"
     inkscape:deskcolor="#d1d1d1"
     showgrid="false" />
  <g
     inkscape:groupmode="layer"
     inkscape:label="Image"
     id="g872"
     transform="translate(-12.360518,-14.798402)">
    <g
       id="g876">
      <path
         style="fill:#afafaf"
         d="m 70.926954,212.88431 c 1.897452,0.14334 6.683353,0.47265 3.340942,0.51879 -0.716893,0.01 -8.816536,-1.29516 -12.542651,-3.20479 -8.526593,-4.36988 -15.89078,-12.1699 -18.279327,-19.36114 C 41.369793,184.58655 41.326944,174.23568 43.351379,168 l 1.46094,-4.5 -0.478733,6 c -1.180231,14.79196 10.260154,23.15785 37.078902,27.11429 14.252866,2.10266 46.248772,1.37733 68.587512,-1.55483 21.74256,-2.8539 19.63868,-3.40776 20.46281,5.38697 l 0.69779,7.44642 0.20095,2.22262 c 0.29601,3.27398 6.82304,-1.42735 2.01597,-1.29018 -3.36737,0.0961 -23.84237,1.29531 -45.5,2.66493 -53.447547,3.38 -57.319824,1.36619 -56.950566,1.39409 z M 34.5,194.82129 c -1.1,-0.51157 -2.980988,-3.26815 -4.179974,-6.12571 -3.296599,-7.85685 -3.240706,-13.40789 -2.300796,-10.66785 0.341856,0.99658 1.575058,-2.02151 2.024316,-7.84737 1.01476,-13.15914 6.456971,-23.43046 12.012899,-24.54165 1.79465,-0.35893 3.389156,-0.52644 3.543348,-0.37225 0.154192,0.15419 -1.092438,2.48593 -2.77029,5.18164 -7.569975,12.16225 -10.770544,29.3535 -7.447944,40.00524 0.849803,2.72433 1.449099,5.03091 1.331769,5.12571 C 36.595998,195.67386 35.6,195.33287 34.5,194.82129 Z m 23.35246,-51.02563 c 7.020841,-7.24605 16.927435,-13.41371 29.566382,-18.40747 12.794118,-5.05508 13.938568,-4.87036 2.915371,0.47054 -13.837088,6.70428 -27.809781,15.05079 -33.834213,20.21068 -4.499264,3.8536 -4.363819,3.62589 1.35246,-2.27375 z M 50,138.68406 c 0,-2.05422 -4.247138,-4.05296 -7.444223,-4.19969 -1.975828,-0.0907 -1.635965,-0.82348 -0.13238,-1.20709 1.057868,-0.26989 5.107868,-2.86234 9,-5.761 3.892132,-2.89866 8.132039,-5.74244 9.354611,-6.44346 1.424438,-0.81677 5.123845,-3.5206 4.775945,-4.08352 -0.347901,-0.56291 -1.853435,1.83757 0.480515,3.02828 l 4.243546,2.1649 6.110993,-2.97311 C 93.772415,110.75203 124.30741,103.80249 144,104.10548 c 11.62003,0.17879 6.92929,-0.93043 -9.92417,2.88933 -32.51969,7.37043 -63.282044,14.09287 -79.604808,29.13867 C 51.489989,138.8813 50,139.73129 50,138.68406 Z M 80.315066,84.05952 78.223693,57.061028 74.225394,52.518721 c -2.199065,-2.498269 -4.230868,-5.431651 -4.515118,-6.518626 -0.617605,-2.361723 2.384749,-6.482805 6.12802,-8.411426 3.917412,-2.018343 12.462845,-5.340776 11.775054,-4.227906 -1.015883,1.643733 3.738915,69.159337 4.927644,70.479637 0.168564,0.18723 7.950036,-2.38817 17.292156,-5.723096 18.36219,-6.554887 37.68234,-12.260139 48.38633,-14.288511 4.3889,-0.831683 7.92391,-0.919317 8.19466,-1.917174 0.22798,-0.840255 -0.59394,0.113074 -0.53014,3.19881 0.0638,3.085736 0.38675,7.585736 0.71766,10 L 167.20332,99.5 147.35166,99.54366 c -16.03551,0.03527 -22.06244,0.46083 -31.35217,2.21374 -9.91741,1.87135 -27.149152,6.51257 -32.04627,8.63138 -1.346393,0.58253 -1.817721,-2.82846 -3.638154,-26.329263 z M 69.821727,23.760608 c -0.06682,-4.379868 0.04945,-8.185816 0.503101,-8.464478 1.218855,-0.748691 14.688616,-0.61602 15.456879,0.152244 0.362395,0.362395 0.529321,2.162924 0.370947,4.001175 -0.213694,2.480335 0.258103,11.615281 1.829445,12.715892 2.037751,1.427296 1.95566,-6.382709 -2.18235,-5.749758 -2.364862,0.36173 -6.854972,1.702828 -9.978022,2.980218 l -5.849807,4.209395 z"
         id="path880"
         sodipodi:nodetypes="ssssscsssscsssssssssssssssssssssssssscsssssccsssssssssscsssscssssssscs" />
      <path
         style="fill:#060606"
         d="m 65.316041,219.05682 c -3.897542,-1.51643 -8.3756,-3.66345 -9.951241,-4.77117 C 53.78916,213.17793 44.793647,207.92048 35.374771,202.60242 25.955896,197.28436 17.528306,192.13627 16.646794,191.16221 15.746778,190.1677 14.306012,185.0305 13.360783,179.44559 11.377115,167.72505 12.283338,158.43235 16.622393,146 22.59923,128.87505 41.034625,113.2675 66.75,103.56157 c 8.523866,-3.21722 7.93799,-0.63437 6.097848,-26.882569 -1.142132,-16.291624 -1.271508,-16.936782 -4.110938,-20.5 -6.92843,-8.694531 -7.405625,-12.96168 -2.162162,-19.334387 1.966111,-2.389538 4.322207,-4.921803 5.23577,-5.627256 5.618058,-4.338266 28.965842,-7.83992 59.189482,-8.877123 31.21887,-1.071355 44,3.546891 44,15.898663 0,1.83602 -0.93055,5.120867 -2.06788,7.29966 -2.34068,4.484064 -2.64923,15.565514 -0.92643,33.272385 0.51849,5.328981 0.95432,10.888658 0.96851,12.354837 0.0221,2.284037 1.66042,3.740675 11.44062,10.17195 28.777,18.92322 41.82469,38.97946 41.72599,64.13905 -0.036,9.16738 -2.48036,18.1834 -7.09823,26.18147 -3.53474,6.12211 -12.41698,15.94681 -17.7418,19.62432 L 197.5,213.90753 140,217.4319 c -31.625,1.9384 -59.771942,3.71735 -62.548759,3.95321 -3.861138,0.32797 -6.715704,-0.21972 -12.1352,-2.32829 z m 54.251389,-6.99624 c 25.81291,-1.61668 53.23257,-3.2495 60.93257,-3.62849 8.14748,-0.40102 15.04509,-1.23022 16.5,-1.98355 3.93859,-2.03935 12.54786,-11.38926 16.38248,-17.79185 C 217.1226,182.4119 220,171.95245 220,164.60182 c 0,-16.79245 -10.64387,-35.33376 -24.23843,-42.22264 -2.79601,-1.41685 -9.39868,-3.73241 -14.67261,-5.14569 -8.82481,-2.36484 -11.30232,-2.57614 -31.08896,-2.65155 -24.79923,-0.0945 -34.00234,1.20182 -53.341541,7.51361 -28.914709,9.43698 -46.571473,24.11008 -52.74531,43.83232 -6.194614,19.78862 0.61987,35.70907 19.283009,45.05027 4.419488,2.21202 8.351169,4.02186 8.737068,4.02186 0.3859,0 21.821292,-1.32274 47.634204,-2.93942 z M 35.381559,190.45334 c -3.3226,-10.65174 -0.122031,-27.84299 7.447944,-40.00524 1.677852,-2.69571 2.924482,-5.02745 2.77029,-5.18164 -0.154192,-0.15419 -1.748698,0.0133 -3.543348,0.37225 -5.555928,1.11119 -10.732974,12.35478 -11.747734,25.51392 L 29.703565,179 H 26.351783 23 l 0.01736,-5.25 c 0.02293,-6.93395 2.326815,-17.54416 4.908225,-22.60414 C 29.066515,148.90946 30,146.83675 30,146.53984 30,146.24293 28.493358,146 26.651907,146 c -3.148233,0 -3.453423,0.31339 -5.11263,5.25 -2.320264,6.90344 -3.02646,23.49635 -1.308724,30.75 1.283329,5.41924 1.411506,5.56201 8.729472,9.72314 4.084861,2.32273 7.548432,4.10174 7.696825,3.95334 0.148393,-0.14839 -0.425488,-2.49881 -1.275291,-5.22314 z m 32.600524,-64.08221 c 14.009584,-8.21059 32.542367,-14.43476 53.524047,-17.97586 18.28907,-3.08666 49.24076,-1.87534 64.24387,2.51424 1.7875,0.52298 3.25,0.80905 3.25,0.63569 0,-0.92944 -5.81774,-3.92452 -7.98116,-4.10884 -1.38536,-0.11803 -6.79384,-0.93769 -12.01884,-1.82146 -27.07689,-4.57986 -67.40103,1.32958 -92.545134,13.56236 l -6.045134,2.941 -7.393841,-3.54341 -7.393842,-3.5434 -4.561024,2.61927 c -5.520873,3.17048 -13.799319,9.37735 -16.878133,12.6546 l -2.253617,2.39887 6.673096,0.62314 C 45.647111,133.98518 50,136.00488 50,138.61572 c 0,1.02677 1.80952,-0.0573 5.232083,-3.13447 2.877646,-2.58725 8.615146,-6.68681 12.75,-9.11012 z m 5.083658,-11.40631 C 74.333933,114.2861 75,112.87136 75,110.85641 c 0,-2.85205 -0.197913,-3.02391 -2.75,-2.38803 -1.5125,0.37686 -4.55,1.4857 -6.75,2.4641 l -4,1.7789 3.5,1.56273 c 4.278199,1.9102 5.578955,2.02159 8.065741,0.69071 z m 21.933746,-8.14131 c 18.083673,-5.51303 30.427123,-7.231609 52.286433,-7.279847 L 167.07183,99.5 166.51242,93 c -0.30767,-3.575 -1.23859,-14.698063 -2.06871,-24.717918 l -1.5093,-18.217917 2.61308,-4.139389 c 8.90262,-14.102674 0.97191,-17.649192 -37.22599,-16.646997 -30.762708,0.807118 -49.307958,4.508679 -55.970844,11.171565 -3.955124,3.955124 -3.673868,5.765828 1.874738,12.069377 l 3.998299,4.542307 2.091373,26.998492 c 1.820433,23.5008 2.291761,26.91179 3.638154,26.32926 0.850729,-0.36808 5.821549,-1.97246 11.046267,-3.56527 z"
         id="path878" />
    </g>
  </g>
</svg>
