<?xml version="1.0" encoding="UTF-8" standalone="no"?>
<!-- Created with Inkscape (http://www.inkscape.org/) -->

<svg
   version="1.1"
   id="svg439"
   width="183.51387"
   height="372.83209"
   viewBox="0 0 183.51387 372.83209"
   sodipodi:docname="ã«.png"
   xmlns:inkscape="http://www.inkscape.org/namespaces/inkscape"
   xmlns:sodipodi="http://sodipodi.sourceforge.net/DTD/sodipodi-0.dtd"
   xmlns="http://www.w3.org/2000/svg"
   xmlns:svg="http://www.w3.org/2000/svg">
  <defs
     id="defs443" />
  <sodipodi:namedview
     id="namedview441"
     pagecolor="#ffffff"
     bordercolor="#000000"
     borderopacity="0.25"
     inkscape:showpageshadow="2"
     inkscape:pageopacity="0.0"
     inkscape:pagecheckerboard="0"
     inkscape:deskcolor="#d1d1d1"
     showgrid="false" />
  <g
     inkscape:groupmode="layer"
     inkscape:label="Image"
     id="g445"
     transform="translate(-17,-5.1679249)">
    <g
       id="g449">
      <path
         style="fill:#b0b0b0"
         d="M 20.539145,227.75 C 19.063884,221.09748 17,186.43818 17,168.31629 c 0,-22.29533 1.593034,-39.83771 5.086414,-56.01122 2.320986,-10.74561 6.943377,-25.761842 7.996998,-27.709579 0.740237,-1.368411 0.04549,0.06852 0.407912,-0.770834 0.151494,-0.350851 0.126866,-0.307445 0.829876,-0.491324 2.98689,-0.78125 1.968012,4.07962 3.474801,13.583334 1.964381,12.389863 2.029141,14.110513 0.737058,19.583333 -4.661705,19.7454 -6.458238,46.45074 -4.473616,66.5 0.490091,13.83142 2.108016,22.48395 2.537066,30.37334 0.154169,5.04515 0.410971,10.853 0.795313,12.90172 L 35.090626,230 h -7.026261 c -6.471986,0 -7.065622,-0.17749 -7.52522,-2.25 z m 76.486544,-14.05471 c -9.248252,-4.03444 2.899852,-0.6435 0.964469,-0.0327 C 92.889542,212.87259 66.2421,196.83903 64.030921,195.19097 62.796889,194.27121 63.804304,194.95932 63,194.5 c -0.561463,-0.32064 -1,-0.0673 -1,-0.90486 0,-0.8376 1.870542,-3.26772 4.156761,-5.40028 l 4.156761,-3.87739 6.43613,4.87149 C 92.76375,201.30999 100.04438,203.09092 136.25,203.74347 l 27.75,0.50015 v 5.87819 c 0,5.81182 -5.69994,4.35237 -8.55071,4.35237 -2.04236,0 2.63142,0.94247 2.26096,-0.47418 -0.62888,-2.40485 -1.90164,-1.86331 -12.85557,0.13341 -15.93769,0.67307 -47.421472,-0.32146 -47.828991,-0.43812 z M 68.840766,118.94091 c -0.187421,-3.37494 0.03343,-6.36654 0.490771,-6.64799 1.98608,-1.22226 80.700623,-2.75573 82.331333,-1.60394 0.63957,0.45174 1.24206,3.06903 1.33886,5.81619 0.23561,6.68691 0.61579,7.90043 -0.31911,8.47011 -0.18736,0.11417 0.13097,0.51627 -2.41683,-0.78091 -0.9848,-0.5014 -10.65942,-0.8328 -11.06343,-1.39385 -0.37058,-0.51464 7.39764,0.64116 6.29764,0.56988 -1.1,-0.0713 -7.625,-0.90962 -14.5,-1.86298 -18.11293,-2.51171 -46.016653,-1.08254 -60.159234,3.08124 -1.394797,0.41065 -1.713543,-0.48946 -2,-5.64775 z"
         id="path453"
         sodipodi:nodetypes="ssssssssccscssccsssscsscsssccsssssssssss" />
      <path
         style="fill:#020202"
         d="M 48.575634,377.12238 C 47.621827,375.57909 43.226662,349.00296 41.109358,331.97624 36.866518,297.8566 36.052261,275.12028 38.137726,249 c 1.118456,-14.00857 1.070129,-14.94059 -1.425936,-27.5 -5.046943,-25.39462 -6.09558,-34.97978 -6.126519,-56 -0.02937,-19.95496 1.328438,-33.4229 4.973746,-49.33396 1.364184,-5.9544 1.296387,-7.24277 -1.131375,-21.499997 C 33.007258,86.324719 31.4718,76.125 31.015514,72 30.559228,67.875 28.583289,53.475 26.624538,40 22.364388,10.692788 22.098343,7.1753963 24.050499,5.9684795 26.892586,4.2113637 28.090447,7.6188709 30.06725,23.084089 32.354139,40.975219 36.370163,67.207814 38.474487,78 c 5.399693,27.69275 5.551059,29.88937 2.946258,42.75588 -6.487139,32.04346 -5.661064,66.35055 2.510076,104.24412 1.66262,7.71038 1.864677,10.5361 1.072596,15 -1.71285,9.65306 -2.351661,44.48695 -1.118665,61 1.42104,19.03145 4.479115,43.86852 7.554305,61.35455 C 53.749409,375.49158 53.588682,378 50.436572,378 c -0.725196,0 -1.562618,-0.39493 -1.860938,-0.87762 z M 175.50398,351.00645 c -0.86205,-1.39484 -4.21521,-39.78769 -5.4592,-62.50645 -1.2333,-22.52373 -1.29327,-71.08044 -0.10004,-81 0.46312,-3.85 2.72922,-26.35 5.03579,-50 3.11458,-31.93485 5.71504,-52.39251 10.10556,-79.5 3.2515,-20.075 6.85847,-44.15 8.01549,-53.5 2.21828,-17.9260011 3.43925,-21.3877365 6.47344,-18.3535551 1.43335,1.4333551 1.33722,3.363911 -1.06882,21.4642861 C 197.0521,38.549829 193.46703,61.9 190.53939,79.5 c -2.92764,17.6 -5.61188,36.05 -5.96497,41 -0.3531,4.95 -2.1869,24.3 -4.07511,43 -1.88821,18.7 -3.89801,41.19232 -4.46621,49.98293 -2.02235,31.28746 -0.97253,72.97437 2.92171,116.01707 1.22243,13.51149 1.48356,20.40553 0.80489,21.25 -1.20527,1.49971 -3.4054,1.63229 -4.25572,0.25645 z M 99.028297,218.92149 C 83.846059,216.23323 64,207.72559 64,203.90551 c 0,-1.1397 0.3375,-1.9205 0.75,-1.73513 0.4125,0.18538 4.575,2.21995 9.25,4.52127 14.287899,7.03338 22.573623,8.71793 43,8.74225 12.58276,0.015 20.38895,-0.4912 27.78151,-1.80143 C 155.26736,211.77398 158,211.90571 158,214.26965 c 0,3.48939 -45.33857,7.06581 -58.971703,4.65184 z M 67,127.60609 c 0,-2.11757 2.23514,-2.92292 14.5,-5.22452 13.57134,-2.54678 42.86852,-2.57503 56.49162,-0.0545 9.90895,1.83336 12.19331,2.88798 10.31787,4.76342 -0.78735,0.78735 -3.83146,0.59819 -10.95,-0.68041 C 123.80062,123.9747 96.109856,123.96407 83,126.38918 c -16.757167,3.09984 -16,3.04226 -16,1.21685 z"
         id="path451" />
    </g>
  </g>
</svg>
