<?xml version="1.0" encoding="UTF-8" standalone="no"?>
<!-- Created with Inkscape (http://www.inkscape.org/) -->

<svg
   version="1.1"
   id="svg581"
   width="211.10211"
   height="221.47462"
   viewBox="0 0 211.10211 221.47462"
   sodipodi:docname="ぬ.png"
   xmlns:inkscape="http://www.inkscape.org/namespaces/inkscape"
   xmlns:sodipodi="http://sodipodi.sourceforge.net/DTD/sodipodi-0.dtd"
   xmlns="http://www.w3.org/2000/svg"
   xmlns:svg="http://www.w3.org/2000/svg">
  <defs
     id="defs585" />
  <sodipodi:namedview
     id="namedview583"
     pagecolor="#ffffff"
     bordercolor="#000000"
     borderopacity="0.25"
     inkscape:showpageshadow="2"
     inkscape:pageopacity="0.0"
     inkscape:pagecheckerboard="0"
     inkscape:deskcolor="#d1d1d1"
     showgrid="false" />
  <g
     inkscape:groupmode="layer"
     inkscape:label="Image"
     id="g587"
     transform="translate(-11.147011,-8.4113407)">
    <g
       id="g591"
       inkscape:export-filename="..\all_svg\ぬ.svg"
       inkscape:export-xdpi="96"
       inkscape:export-ydpi="96">
      <path
         style="fill:#aeaeae"
         d="m 45.205965,199.3663 c -7.224155,-6.54822 -9.059889,-9.53466 -3.370721,-5.48362 1.622716,1.15548 5.811125,3.45422 9.307575,5.10831 4.778993,2.26083 8.874995,1.9245 6.932982,1.92509 -3.246136,9.9e-4 -5.934881,1.60742 -8.562248,1.34999 -3.564373,-0.34922 2.777172,3.52209 -4.307588,-2.89977 z m 97.254825,3.17527 c 0,-0.55 -5.0754,-1.04513 -6.81075,-1.54157 -1.96751,-0.56285 -9.11662,-5.4341 -12.01606,-9.23546 -1.41466,-1.85471 -3.30999,-5.14797 -4.21185,-7.31837 l -1.63975,-3.94617 3.63065,3.72293 c 6.77078,6.94285 24.05082,12.03645 38.51689,12.97298 3.37763,0.21867 -1.16976,0.73197 -10.61192,3.05409 -12.77062,3.14069 -6.85721,3.61796 -6.85721,2.29157 z M 30.400038,197.13553 c -2.145021,-1.57545 -4.886536,-3.93928 -6.092256,-5.25294 -2.666353,-2.90506 -7.579239,-16.43309 -8.416236,-21.21512 -0.502496,-2.87092 2.468934,0.37534 5.822091,6.52731 4.506909,8.26873 7.032426,14.46425 11.629185,19.3747 3.752293,4.00836 2.153017,4.30877 -2.942784,0.56605 z m 182.532492,0.35696 c -1.21852,-0.61374 -1.5522,-1.34133 -2.64358,-1.77791 -0.68142,-0.27259 -2.23407,-1.51289 -3.60791,-2.20892 -1.5867,-0.80386 -2.6573,-1.94496 -3.34824,-2.38345 -1.1025,-0.69968 0.0729,0.0535 1.97684,-2.17085 1.90393,-2.22432 4.25409,-6.22884 5.55353,-8.67831 1.29944,-2.44946 1.67403,-5.17566 2.10108,-5.17566 0.42706,0 1.84957,2.0891 3.1301,3.65078 2.47774,3.02176 6.88218,6.95785 5.67113,5.64666 0.69243,0.70662 0.77056,0.52321 -0.63171,2.60517 -4.5407,5.26296 -5.82705,7.2789 -8.20124,10.49249 z M 58.972165,194.04297 C 52.329283,191.1929 40,184.28743 40,183.41691 c 0,-0.268 0.870416,-0.0214 1.934259,0.54791 3.657852,1.95762 15.226168,-0.81056 13.791572,-3.13179 -0.268365,-0.43422 -0.296209,0.71659 1.498272,1.23124 1.794481,0.51465 7.990664,0.95288 13.769295,0.97385 l 12.93192,-1.36603 -7.656238,6.28433 c -3.041341,2.49637 -6.489532,5.77641 -8.027835,6.87178 l -2.796914,1.99158 -6.472166,-2.77683 z m 78.057585,-8.56907 c -7.98507,-3.59548 -9.5154,-8.77456 -3.66172,-12.39234 4.51718,-2.79177 5.51512,-2.62938 2.27799,0.37069 -1.45531,1.34874 -2.64602,3.07899 -2.64602,3.84501 0,2.2209 3.44711,4.73876 7.35612,5.3731 5.00481,2.32761 8.45056,2.5422 13.14388,2.34605 4.9234,-0.21833 11.77291,-3.12544 16.75,-7.10913 2.0625,-1.65084 3.75,-2.59603 3.75,-2.10043 0,1.89052 -5.20848,6.39933 -9.7574,8.44666 -6.30437,2.83742 -22.0531,3.54369 -27.21285,1.22039 z m 47.63531,-1.03787 c 3.78609,-5.38004 5.44494,-9.50762 6.9347,-17.2551 1.77509,-9.23136 1.93018,-23.95745 0.32381,-30.747 -0.64203,-2.71366 -1.09695,-6.57573 -1.01093,-8.58237 0.24831,-5.79273 -2.50277,-17.12685 -5.57728,-22.97765 -1.55314,-2.95565 -2.99468,-5.766 -3.2034,-6.245222 -0.20873,-0.479222 2.4887,1.075559 5.99427,3.455072 7.446,5.05419 14.46625,11.83222 18.37917,17.74503 2.5268,3.81826 2.7585,4.93284 2.58447,12.43274 -0.21182,9.12902 -2.30028,20.63898 -5.06525,27.91581 -1.40281,3.69188 -1.53552,4.98368 -0.59241,5.7664 0.82987,0.68873 2.53844,3.10887 3.46306,2.27161 0.74478,-0.67442 -0.94144,-1.88604 -2.65494,0.34978 -3.93505,5.1344 -10.32134,11.02883 -16.69089,15.40537 l -4.95056,3.40156 z M 31.334124,175.75 C 28.043533,172.3125 24.170605,167.475 22.727617,165 19.58888,159.61647 17,150.22967 17,144.23272 c 0,-4.79224 -0.827081,-14.12626 0.225297,-14.12626 0.367664,0 0.352829,0.51078 0.435078,-0.58109 0.250185,-3.32129 10.192329,-13.22353 16.693663,-19.1204 6.71417,-6.08991 18.727695,-13.780788 19.725828,-12.628176 0.344453,0.397763 2.570768,6.037336 4.947367,12.532376 l 5.088308,12.30561 -4.545323,3.19439 c -2.376699,1.67031 -1.301236,4.90957 -0.64581,3.80664 0.980222,-1.64948 -1.17609,-5.10111 -3.15618,-9.61911 l -2.407253,-5.49267 -4.813437,6.49799 c -6.453721,8.71231 -12.093176,20.5689 -14.123049,29.69279 -2.244757,10.08975 -1.632309,22.59291 1.354661,27.65545 1.18437,2.00736 2.014904,3.64974 1.845632,3.64974 -0.169272,0 -3.000068,-2.8125 -6.290658,-6.25 z m 33.452685,0.6065 -2.713191,-0.48224 3.415351,-2.99872 c 1.878442,-1.64929 3.682492,-3.84041 4.008999,-4.86914 0.511415,-1.61132 1.01045,-1.72513 3.602524,-0.82152 4.391114,1.53075 19.828525,-1.46339 26.484651,-3.1165 l 5.372347,-1.33427 3.16348,3.45158 2.62097,2.68569 -11.056075,3.59831 c -9.150453,2.97812 -12.877036,3.66474 -21.62097,3.98369 -5.810692,0.21195 -11.785831,0.16835 -13.278086,-0.0969 z m 56.585181,-5.56363 c -0.70774,-1.14514 -1.46171,-0.47285 8.62801,-7.69326 9.83754,-7.03995 12.37131,-7.45736 25.25911,-4.16122 8.88223,2.27169 14.45644,4.92454 17.24089,8.2052 l 2,2.35641 -2,-1.59488 c -6.99772,-5.58024 -27.49175,-8.41967 -30.95455,-3.30771 -2.46382,3.63722 -2.94632,1.40259 -4.8331,1.40259 -1.88678,0 -5.98147,1.28673 -9.09931,2.8594 -3.11784,1.57267 -5.92631,2.44273 -6.24105,1.93347 z m 59.28866,-7.46174 C 175.67145,157.51457 157.39265,150 148.23337,150 h -3.34644 l 1.77214,-3 c 1.89591,-3.20952 2.41418,-3.37946 9.34093,-3.063 6.7133,0.30671 11.55771,1.74087 21.26171,6.29441 l 8.7617,4.11138 -0.64236,5.0786 c -0.91302,7.21846 -1.47971,7.68783 -4.7204,3.90974 z M 81,161 c 0,-0.55 0.476558,-1 1.059017,-1 0.582459,0 0.81715,-0.39135 0.521534,-0.86967 -0.295616,-0.47831 2.265326,-0.81581 5.690983,-0.75 3.425656,0.0658 15.720666,-5.79277 15.490386,-3.8765 -4.718697,39.26718 -2.50673,5.09377 -7.81399,6.31883 C 89.716643,162.26101 81,162.36443 81,161 Z m 8.2,-10.2 c -3.480735,-3.48073 0.720802,-10.08225 9.073469,-14.25638 l 5.226531,-2.61188 0.31655,3.63786 c 0.29029,3.33609 0.54319,3.6046 3.04867,3.23687 1.27675,0.0399 0.0818,-2.39115 1.00944,-0.65682 -0.95295,0 -3.5569,8.50881 -3.75334,9.87019 -0.4661,3.23025 -12.752335,2.94915 -14.92132,0.78016 z m -25.158176,-12.91648 -2.434408,-4.88158 -1.293619,-2.37651 c -1.075898,-1.97653 -2.664171,5.5846 -0.03685,2.84879 5.249795,-5.46659 5.681733,-5.37452 7.85426,1.6742 0.89379,2.89989 0.839372,4.0555 -0.265238,5.63255 -1.31679,1.87998 -1.517519,1.72789 -3.824145,-2.89745 z m 27.24009,-6.45042 c 1.42262,-4.63532 1.989903,-3.49657 7.583095,-5.6836 5.476331,-2.14135 6.693071,-2.33761 6.967571,-1.12391 0.39804,1.75997 -1.58268,4.37441 -3.3141,4.37441 -0.68015,0 -3.699944,1.24252 -6.710653,2.76115 l -5.474016,2.76115 z m 2.867736,-8.71905 c -1.822816,8.7834 2.59391,-5.38803 3.496919,-8.26178 3.882211,-12.3548 2.021545,-5.33587 5.597361,-6.40721 2.17293,-0.65102 5.22272,-2.078 5.50864,-1.79208 0.28592,0.28592 -0.90839,3.7656 -1.38536,6.35363 -0.84157,4.5664 -1.02242,4.75822 -6.11721,6.48855 -2.8875,0.98068 -7.03316,3.29512 -7.10035,3.61889 z m 6.61033,-18.47282 c 0.15217,-1.15851 2.05213,-6.891772 3.23008,-11.99123 3.99391,-17.290023 2.40707,-9.25 4.73835,-9.25 2.49379,0 3.33131,-5.65126 2.64199,1.06965 -1.05705,10.30626 -0.2752,16.78522 -4.34376,18.11459 -2.02166,0.66056 -6.74938,1.69971 -7.02664,2.53349 -0.414109,1.24533 0.47059,1.72657 0.75998,-0.4765 z m 99.64501,-2.36282 C 195.30102,96.194114 178.32711,86.774116 165.32203,82.408455 156.8898,79.577848 142.31424,76.556247 131.90877,75.481683 l -6.59122,-0.680671 2.01975,-8.293412 c 1.72631,-7.088527 -4.16031,-7.516631 -2.96977,-6.326089 0.90928,0.909281 10.09417,0.184808 14.4539,0.831626 10.21717,1.515837 24.07146,3.280735 33.95584,8.056053 11.11812,5.371362 21.94026,15.823925 27.51675,26.577043 2.03829,3.930429 5.05989,10.757587 5.05989,11.089657 0,1.26534 -3.11907,-2.81957 -4.94892,-4.85748 z M 67.136678,97.672413 c -0.72316,-3.205173 -1.162251,-5.970269 -0.975757,-6.144657 0.910748,-0.851633 14.665965,-4.607555 21.899243,-5.979684 11.374101,-2.15763 31.044816,-7.536268 20.628706,-2.800242 -11.164418,5.07627 -39.360073,16.354362 -39.932392,19.22339 -0.16773,0.84083 -0.89664,-1.09363 -1.6198,-4.298807 z m -21.984667,-9.98761 c -0.08948,-2.852348 -7.411166,-37.303206 -8.268726,-41.611764 -2.59987,-13.062274 4.6266,16.898148 13.854447,42.609368 0.233403,0.650324 -0.883022,1.858485 -2.480945,2.684803 l -2.905314,2.675789 z m 18.514656,-4.35147 C 63.3,82.966667 63,82.336116 63,81.932109 c 0,-1.175631 -4.500932,0.748241 -1.057636,-1.485605 0.911779,-0.591518 12.012819,-4.777317 15.628221,-6.219484 2.70127,-1.077524 11.870762,-3.897478 19.132409,-6.207953 7.261646,-2.310474 13.703196,-4.803569 14.314556,-5.54021 1.86325,-2.245088 7.57947,-43.961822 6.8247,-49.806433 -0.39541,-3.0619502 0.81954,-4.573628 3.17982,-3.9564013 1.33636,0.3494658 1.7152,0.9099996 1.11929,1.6561203 -0.49544,0.620321 -2.83832,15.36024 -5.2064,32.755374 l -4.3056,31.627517 -8.56468,0.67506 c -10.314175,0.812952 -25.391981,3.758085 -33.472227,6.538097 -6.844847,2.354973 -6.085609,2.20532 -6.925786,1.365142 z"
         id="path595"
         sodipodi:nodetypes="sssssssssscsssssssssscssssssscccsscssscssccsssssccsssssssssssssssscscssssssssscssscsssssccsssscccssscsssscssssssscssscssssssssssscsccssscsssssssssscsssssssssssssssssscssssssssssssssssscssssssssssscsss" />
      <path
         style="fill:#070707"
         d="m 100,229.47411 c -0.825,-0.16164 -4.875,-0.84253 -9,-1.51308 C 77.189297,225.71596 62.58451,219.87842 51,211.97302 29.896617,197.57182 19.670901,183.56705 13.455862,160.55394 6.9575466,136.4919 13.966575,118.58654 37.151538,100.02065 43.003834,95.334294 48.543814,91.05 49.462605,90.5 50.974357,89.595047 50.730269,88.406962 46.89452,78 44.563282,71.675 41.663317,63.125 40.450154,59 39.236991,54.875 37.207404,48.708958 35.93996,45.297685 33.277359,38.131402 33.946081,35.113483 38.746692,32.63099 c 2.317068,-1.198202 3.628756,-1.252916 7.197941,-0.300246 5.172275,1.380559 6.1206,3.127711 8.530088,15.715455 2.365338,12.357089 5.692389,26.303683 6.549284,27.453801 0.409777,0.55 1.056634,2.45734 1.437459,4.238532 0.380825,1.781193 1.054991,3.462621 1.498146,3.736505 0.443155,0.273885 3.445585,-0.410268 6.672067,-1.520341 8.044541,-2.767727 23.136938,-5.713077 33.433003,-6.524602 l 8.56468,-0.67506 4.3056,-31.627517 c 2.36808,-17.395134 4.70997,-32.133862 5.2042,-32.752728 0.49423,-0.6188654 2.74707,-1.4207929 5.00631,-1.7820607 4.78469,-0.7651027 8.01071,0.8748282 10.25379,5.2124637 1.31751,2.547778 1.11022,4.195224 -2.42094,19.240582 -2.124,9.049824 -5.16751,22.146855 -6.76335,29.104512 l -2.90154,12.650286 6.59329,0.68089 c 10.40743,1.074779 24.98249,4.096189 33.41531,6.926993 18.16057,6.096304 36.32783,17.857915 41.95067,27.159155 0.97499,1.61282 3.35202,5.40739 5.2823,8.43239 4.55196,7.13351 7.45089,16.64653 7.42187,24.35534 -0.035,9.28707 -4.28504,28.80322 -7.83152,35.96193 -3.06518,6.18719 -10.33032,15.82933 -12.49516,16.58333 -0.63261,0.22033 -3.71052,2.75893 -6.83981,5.64133 -19.19095,17.67684 -52.91335,29.69582 -82.31038,29.33617 -4.95,-0.0605 -9.675,-0.24235 -10.5,-0.40399 z m 34.71454,-8.375 c 25.61661,-4.97618 47.6097,-16.64298 61.36645,-32.55338 l 3.41901,-3.95427 -6.5,4.58838 c -12.98824,9.16848 -29.20059,15.90067 -47.8843,19.884 -12.60874,2.68816 -37.38066,3.65188 -50.749282,1.97434 -18.340939,-2.30148 -38.012864,-8.4425 -49.820015,-15.5524 -3.215039,-1.936 -6.027733,-3.33778 -6.250433,-3.11508 -0.222699,0.2227 2.772015,3.26789 6.654921,6.7671 12.388353,11.16418 28.024322,18.80147 45.670802,22.30763 10.544437,2.09506 32.409087,1.92333 44.092847,-0.34632 z M 128,204.00255 c 5.225,-0.52954 14.675,-2.20226 21,-3.71715 l 11.5,-2.75436 -8.27399,-0.76517 C 137.24552,195.38048 124.46555,189.22624 118.45925,180.50535 116.55666,177.74288 115,174.92408 115,174.24134 c 0,-1.76554 -0.85428,-1.60037 -8.91528,1.72373 -11.837621,4.88144 -25.35054,7.30585 -38.40913,6.89116 -10.321762,-0.32778 -11.758344,-0.62239 -17.987101,-3.68881 -9.059567,-4.46003 -12.203653,-9.01327 -12.151909,-17.59833 0.06352,-10.53876 6.113064,-20.93473 19.301996,-33.16996 l 6.576419,-6.10087 -4.354425,-11.89913 C 56.665636,103.85461 54.424319,98.174557 54.079866,97.776794 53.081733,96.624182 41.068208,104.31506 34.354038,110.40497 11.795745,130.86589 11.339683,156.85484 33.176451,177.51053 54.100459,197.30282 91.368982,207.71499 128,204.00255 Z m 37.18498,-20.30463 c 6.30918,-3.08679 9.20161,-6.66658 9.20961,-11.39818 0.01,-5.84947 -5.90053,-9.97642 -19.13548,-13.36135 -12.89132,-3.29704 -15.42166,-2.8796 -25.25911,4.16716 -7.39003,5.29361 -9.84594,7.73528 -8,7.95358 0.275,0.0325 3.13194,-1.14581 6.34876,-2.61852 4.82579,-2.20932 7.36701,-2.69408 14.52929,-2.77159 7.32972,-0.0793 9.45406,0.28925 13.65125,2.36852 3.45451,1.71135 5.2692,3.33213 5.94931,5.3136 0.86899,2.53176 0.62623,3.16599 -2.16719,5.66191 -4.21679,3.7677 -12.25423,5.45645 -18.89085,3.96915 C 133.48619,181.20407 131.11423,177.88577 135,174 c 2.66485,-2.66485 3.12184,-2.57411 7.57407,1.50398 3.9498,3.61788 6.27223,3.85133 9.34003,0.93889 3.34151,-3.1723 -5.10842,-6.95307 -12.42864,-5.56098 -11.65493,2.21643 -12.94294,9.86988 -2.45571,14.59201 2.55306,1.14957 5.98993,1.48462 13.00358,1.26769 8.00037,-0.24746 10.43676,-0.73688 15.15165,-3.04367 z m 35.54719,-11.12203 c 3.28234,-3.54533 7.06148,-9.12766 9.17461,-13.55223 3.30554,-6.9213 3.59322,-8.24837 3.59322,-16.57552 0,-8.4429 -0.25205,-9.56186 -3.74659,-16.63258 -11.23649,-22.7355 -42.49124,-39.708355 -78.17151,-42.450958 l -8.29947,-0.637948 -1.76054,7.184018 c -0.96829,3.95121 -1.59434,7.348364 -1.39121,7.549231 0.20313,0.200867 5.54432,-0.11641 11.86932,-0.70506 9.50389,-0.884502 13.11632,-0.797643 20.81198,0.500413 13.49724,2.276633 18.77543,5.201904 26.24123,14.543394 10.69476,13.38169 13.98543,22.35345 14.01155,38.20135 0.0254,15.38747 -2.62509,26.23108 -8.42606,34.47304 -1.95806,2.78199 -1.68754,2.68895 4.20978,-1.44778 3.46627,-2.43144 8.81393,-7.13366 11.88369,-10.44937 z M 95,174.03407 c 16.03907,-4.91025 17.91485,-5.93253 20.59671,-11.22493 2.77997,-5.48599 8.47983,-9.7307 15.82992,-11.7886 3.26899,-0.91526 5.11982,-2.21914 6.93351,-4.88454 5.38119,-7.90823 5.21432,-15.79195 -0.43487,-20.54542 -4.01196,-3.37585 -9.53373,-4.74406 -17.69974,-4.38571 -6.42806,0.28208 -6.739,0.41127 -7.02997,2.921 -0.29441,2.53929 -0.10437,2.64034 5.76343,3.06478 14.95746,1.08193 17.25242,11.75794 5.13282,23.87754 -10.27004,10.27004 -26.761459,16.95171 -41.736155,16.90985 -9.037623,-0.0253 -14.707335,-2.07277 -18.282608,-6.60241 -3.167161,-4.01258 -2.463538,-10.61971 1.874027,-17.59739 2.945771,-4.73876 3.14079,-5.5321 2.149655,-8.7449 -2.192009,-7.10547 -2.620862,-7.11348 -9.108321,-0.17018 -17.450053,18.6762 -15.852185,35.19393 3.951029,40.84321 C 69.254012,177.50774 86.6107,176.6024 95,174.03407 Z m 90.63967,-19.23771 c 0.67773,-10.63943 -0.55011,-18.74265 -3.96853,-26.19054 C 179.1959,123.21287 169.66391,112 167.55465,112 c -0.68457,0 -2.05063,-0.89057 -3.03568,-1.97904 -4.81004,-5.31503 -22.3211,-8.71198 -36.6582,-7.11129 -5.01724,0.56016 -9.31687,1.21309 -9.55473,1.45096 -0.23787,0.23787 -1.02842,2.69156 -1.75678,5.45264 l -1.32429,5.02016 11.13751,0.33328 c 9.46961,0.28338 11.88608,0.70768 16.13607,2.83329 2.83858,1.4197 6.01329,4.01242 7.34681,6 3.25619,4.85324 2.57198,12.82691 -1.7592,20.50133 L 144.9829,150 h 3.29845 c 9.11358,0 27.40362,7.53034 32.3793,13.33113 3.66141,4.26859 4.22498,3.30254 4.97902,-8.53477 z m -87.495188,5.37318 C 110.79363,156.66204 122,147.46612 122,140.59377 c 0,-3.80314 -1.8921,-6.2776 -5.49083,-7.18083 -4.22106,-1.05941 -5.95871,-0.0954 -6.93554,3.84768 C 108.8441,140.20546 108.16637,141 106.384,141 c -1.86554,0 -2.31781,-0.62105 -2.57363,-3.53413 L 103.5,133.93174 98.273469,136.54362 C 89.920802,140.71775 85.719265,147.31927 89.2,150.8 c 1.618044,1.61804 9.113223,1.52 13.08212,-0.17112 4.0771,-1.73723 7.9533,-5.89721 7.53735,-8.08917 -0.20755,-1.09372 1.14561,-2.55565 3.8625,-4.17298 4.15634,-2.4742 4.18866,-2.47697 5.27297,-0.45093 0.81835,1.5291 0.74117,2.85641 -0.30882,5.31136 -2.007,4.69252 -6.14167,8.1819 -14.14612,11.93837 -5.993185,2.81259 -8.102123,3.28674 -14.662641,3.29662 -4.214452,0.006 -7.450394,0.35496 -7.190983,0.77469 C 82.905788,159.65658 82.641476,160 82.059017,160 81.476558,160 81,160.45 81,161 c 0,1.62782 10.031517,1.14191 17.144482,-0.83046 z m -2.611699,-28.09676 c 3.831969,-1.79653 7.642217,-3.6063 8.467217,-4.02173 0.825,-0.41542 1.64257,-1.7125 1.81683,-2.8824 0.30647,-2.05757 0.188,-2.08164 -3.62474,-0.73642 -8.103007,2.8589 -15.264758,6.80874 -19.814982,10.92833 -4.01136,3.63171 -4.595926,4.63146 -4.028953,6.89046 l 0.663197,2.64239 4.777107,-4.77711 c 2.804871,-2.80487 7.653534,-6.12565 11.744324,-8.04352 z M 80.705591,129.4044 c 5.009934,-3.4271 15.790823,-8.81229 20.794409,-10.38708 5.18251,-1.6311 5.2106,-1.66548 6.05261,-7.40958 l 0.71714,-4.89226 -2.88487,0.71684 c -5.721434,1.42168 -18.023724,6.75689 -24.745078,10.73136 l -6.860199,4.05657 0.64674,4.04449 C 75.056699,130.20677 75.709632,132 76.514608,132 c 0.218116,0 2.104058,-1.16802 4.190983,-2.5956 z m 19.989549,-25.94672 c 9.06607,-3.19092 8.71707,-2.70502 9.84555,-13.70768 l 0.6923,-6.75 h -3.23816 c -8.580241,0 -39.659731,6.331567 -41.854921,8.526758 -0.349461,0.349461 1.753229,9.589082 4.914252,21.594172 l 0.953416,3.62093 10.246212,-5.1999 c 5.635416,-2.85994 13.934024,-6.49787 18.441351,-8.08428 z"
         id="path593" />
    </g>
  </g>
</svg>
