<?xml version="1.0" encoding="UTF-8" standalone="no"?>
<!-- Created with Inkscape (http://www.inkscape.org/) -->

<svg
   version="1.1"
   id="svg700"
   width="215.54033"
   height="204.89372"
   viewBox="0 0 215.54033 204.89372"
   sodipodi:docname="ã­.png"
   xmlns:inkscape="http://www.inkscape.org/namespaces/inkscape"
   xmlns:sodipodi="http://sodipodi.sourceforge.net/DTD/sodipodi-0.dtd"
   xmlns="http://www.w3.org/2000/svg"
   xmlns:svg="http://www.w3.org/2000/svg">
  <defs
     id="defs704" />
  <sodipodi:namedview
     id="namedview702"
     pagecolor="#ffffff"
     bordercolor="#000000"
     borderopacity="0.25"
     inkscape:showpageshadow="2"
     inkscape:pageopacity="0.0"
     inkscape:pagecheckerboard="0"
     inkscape:deskcolor="#d1d1d1"
     showgrid="false" />
  <g
     inkscape:groupmode="layer"
     inkscape:label="Image"
     id="g706"
     transform="translate(-4.5820742,-8.6735706)">
    <g
       id="g710">
      <path
         style="fill:#b0b0b0"
         d="m 51.998248,212.49789 c -0.457423,-0.55116 -0.911347,-14.72616 -1.008721,-31.5 -0.09737,-16.77384 -0.472352,-33.56364 -0.833285,-37.31067 L 49.5,136.87444 c -3.527635,3.0671 -4.04403,2.63632 -10.669018,11.42429 -3.1094,3.78036 -18.372339,24.70698 -19.336525,25.6923 -1.32762,1.35672 -2.061392,1.23651 -5.207442,-1.46112 -1.943454,-1.66645 -4.9221143,-4.214 -6.6192463,-5.66121 l -3.0856946,-2.63131 7.4589629,-8.72715 C 25.597401,139.649 40.322535,120.83159 48.328742,109.13779 L 52,103.77558 V 92.368736 80.961896 l -5.538136,0.441318 c -1.53866,0.122611 3.571908,-1.168531 7.890962,-3.426144 4.319055,-2.257613 7.979994,-3.963523 8.13542,-3.79091 C 62.643672,74.358772 62.168759,99.925 61.432883,131 c -0.735876,31.075 -1.359315,62.0125 -1.38542,68.75 L 60,212 h 2.940983 c 1.617541,0 3.920755,-2.15403 3.404509,0.75 -0.235122,1.32262 -13.39528,0.89493 -14.347244,-0.25211 z M 162.05422,199.16795 c 8.13196,-5.18022 15.21522,-15.08841 18.88591,-26.41795 0.66824,-2.0625 1.58967,-3.75 2.04762,-3.75 2.933,0 19.56179,14.2953 26.19489,23.71029 3.76317,5.34141 2.11339,4.79759 -8.62721,-3.05349 -4.93495,-3.02579 -3.66618,-2.39754 -12.4842,-7.56818 l -2.42876,-1.86691 -8.36403,8.13914 c -7.50281,7.30108 -16.16759,13.60893 -18.72422,13.63099 -0.52018,0.004 1.05482,-1.26626 3.5,-2.82389 z m -40.65242,-2.60273 c -6.49312,-1.4669 -15.73817,-5.6931 -17.0546,-7.7962 -0.82645,-1.32032 -1.40569,-1.65778 -2.35579,-5.68513 -0.53256,-2.25746 0.71605,-9.17036 -0.0804,-7.31694 -0.78666,1.83067 -1.45674,4.30952 -1.50097,2.02119 -0.13191,-6.82436 8.55781,-12.18613 18.74974,-17.3893 4.00627,-2.04529 7.26927,-2.84199 13.06293,-3.18947 9.98914,-0.59911 25.20163,1.33548 35.13667,4.46838 l 7.85939,2.47837 -0.62645,3.17194 c -1.14424,5.7937 -7.22563,17.11448 -11.45206,21.31848 -6.92315,6.88643 -11.86378,8.69463 -24.64027,9.01797 -6.74788,0.17077 -13.3573,-0.25416 -17.0982,-1.09929 z m 29.80347,-10.1195 c 5.38915,-1.83626 11.75591,-7.01988 14.65292,-11.92994 l 2.07153,-3.51099 -3.72162,-1.89862 c -10.71911,-5.46849 -26.17003,-8.29185 -33.90448,-6.1954 -5.81033,1.57491 -8.30936,5.0374 -8.28138,11.47409 0.0251,5.76597 1.54398,8.27315 6.97776,11.51775 4.34219,2.5928 15.39629,2.86317 22.20527,0.54311 z m 57.94527,-3.43323 c -5.82082,-7.63254 -13.01289,-14.50354 -20.39618,-19.48562 -2.6101,-1.76124 -4.56234,-3.38779 -4.33831,-3.61456 0.22403,-0.22677 1.54395,-7.16231 2.93317,-15.41231 2.31217,-13.73112 2.43789,-15.97281 1.48612,-26.5 C 186.23879,89.280361 177.62175,70.909262 163.48418,63.952572 156.39624,60.464803 141.64785,60.430525 131.5,63.878235 118.87957,68.165998 84.920518,87.04687 85.033269,89.713241 c 0.0183,0.432718 0.923542,1.855588 2.011653,3.161934 l 1.978384,2.375174 4.238347,-2.650366 c 3.129392,-1.956904 3.473237,-2.055068 1.314151,-0.375175 -9.135784,7.108162 -20.45312,16.840682 -22.731262,19.548102 l -2.623524,3.11788 c 0.155927,-3.56513 -0.961265,-5.78715 -1.126204,-9.52088 -0.137757,-3.1184 -2.303151,-9.720989 -2.101048,-10.375718 C 66.548368,93.19751 89.633616,77.84696 91.318479,77 103.0942,69.356 116.48125,63.225898 130.84868,58.242173 c 8.8798,-3.03149 12.06503,-3.64326 19.15132,-3.678297 7.48917,-0.03703 9.27299,0.326563 15,3.057406 12.73187,6.07101 19.71475,15.011458 24.26294,31.064766 2.08379,7.354949 2.21452,9.77719 2.22545,41.235592 l 0.0116,33.42165 4,2.83334 c 2.2,1.55834 8.22752,5.8686 13.39449,9.57836 5.16696,3.70975 9.87325,6.18136 10.25,6.49501 0.7968,0.66335 1.19677,0.49889 0.85551,1.25 -0.55867,1.82194 -1.464,2.4938 -2.3178,4.05932 -0.73588,1.375 -3.14642,4.1017 -3.47164,4.1017 -0.32521,0 -2.12913,-4.8054 -5.06002,-8.64853 z M 173.77889,155.93607 C 169.84931,153.6458 155.69285,150.8476 144,150.04992 c -13.78107,-0.94015 -25.20003,3.68911 -31.68014,6.97006 -4.01984,2.0353 0.18545,-1.76125 1.98301,-3.77481 0.99158,-1.11073 4.59158,-3.2959 8,-4.85594 8.3908,-3.84049 19.08268,-3.88561 32.69713,-0.13799 5.225,1.43828 11.33983,2.86383 13.58852,3.16789 6.61726,0.89479 6.91148,-0.35345 6.91148,-29.3218 0,-22.631776 -0.17723,-25.156708 -2.21782,-31.59734 -3.07518,-9.706031 -6.14396,-13.796026 -12.79173,-17.048476 -5.18905,-2.538766 -6.1855,-2.682691 -15.27087,-2.205702 -9.45095,0.496183 -14.43113,1.838042 -26.46958,7.131954 -2.0625,0.906985 -3.75,1.399204 -3.75,1.09382 0,-0.305384 3.0275,-1.91359 6.72778,-3.573792 23.48355,-10.536359 37.71764,-9.866033 47.27614,2.226376 4.57757,5.791059 7.55734,13.246424 10.00378,25.02939 3.27568,15.77691 3.47212,24.16358 0.93189,39.78464 -1.3051,8.02562 -2.74876,14.04874 -3.36313,14.03138 -0.59205,-0.0167 -1.85096,-0.48181 -2.79757,-1.03352 z M 12.74822,88.376451 C 12.458857,87.894403 10.741074,84.9125 10.091002,81.75 9.4409295,78.5875 8.8373725,78.230267 8.7291022,76 c -0.09553,-1.96783 1.038194,-2.304421 3.4819868,-2.584597 5.319196,-0.609835 37.467062,-8.734338 39.416039,-9.961336 1.756631,-1.105905 2.245201,-2.699039 2.805014,-9.146611 3.927583,-45.2353947 4.002523,-45.8783187 5.315628,-45.603804 0.535778,0.1120086 4.009665,0.407462 7.719749,0.656563 3.710084,0.2491011 8.145051,0.801317 7.889044,1.693052 -0.05492,0.191285 0.05856,-0.553427 0.07284,0.645299 0.01706,1.431527 -3.463914,22.803979 -3.442833,36.567196 L 72,57.031524 l 4.5,6.184321 c 2.475,3.401376 4.5,6.755251 4.5,7.453055 0,1.181745 -9.406458,14.856654 -11.475075,17.082782 -0.57471,0.618471 0.452383,-4.30748 0.652121,-12.503095 0.177625,-7.288278 0.05338,-13.250778 -0.276103,-13.25 -0.329482,7.77e-4 -10.53355,4.842092 -22.675706,10.758477 -18.944444,9.230866 -21.943555,10.99489 -21.138563,12.433331 0.612829,1.095065 1.987254,1.90776 1.281529,2.343922 -1.774555,1.096735 -14.051395,1.789339 -14.619983,0.842134 z"
         id="path714"
         sodipodi:nodetypes="sssccssscsscccssssscssssssscccscssssssssscsssssscsssssssssssssscssscsssccssscsssccsssssssssssssssssssssssssssssssssscssssssssss" />
      <path
         style="fill:#0a0a0a"
         d="m 60.047463,199.75 c 0.02611,-6.7375 0.649544,-37.675 1.38542,-68.75 0.735876,-31.075 1.211083,-56.640935 1.056015,-56.813188 -0.155068,-0.172254 -3.816007,1.461325 -8.13542,3.630175 -4.319413,2.16885 -10.013284,4.674519 -12.653046,5.568152 -2.639763,0.893634 -6.559336,2.522555 -8.710162,3.619825 -4.901221,2.500416 -4.662563,2.529431 -6.371126,-0.774566 L 25.186927,83.460797 47.602101,72.572369 C 59.930446,66.583733 70.125888,61.867554 70.258637,62.09197 70.391387,62.316387 70.181267,74.2 69.791705,88.5 c -0.389563,14.3 -1.129393,47.825 -1.644067,74.5 -0.514673,26.675 -0.98344,48.6125 -1.041704,48.75 C 67.04767,211.8875 65.425,212 63.5,212 H 60 l 0.04746,-12.25 z M 123,203.55629 c -14.0316,-2.92556 -22.48224,-7.66091 -26.009231,-14.57438 -4.355668,-8.53782 -1.440589,-17.31165 9.180361,-27.63115 10.85629,-10.54816 17.78314,-12.65373 37.32887,-11.34695 12.25269,0.81919 22.63998,2.77436 29.1169,5.48059 1.99504,0.83358 3.9443,1.5156 4.33168,1.5156 0.38738,0 1.73334,-6.32781 2.99101,-14.06179 2.54023,-15.62106 2.34379,-24.00773 -0.93189,-39.78464 C 176.56126,91.370604 173.58149,83.915239 169.00392,78.12418 156.72194,62.586302 135.8414,65.676151 99.721243,88.376455 L 88.942487,95.150542 87.004513,92.825271 C 85.938627,91.546372 85.051567,90.145959 85.033269,89.713241 84.920518,87.04687 118.87957,68.165998 131.5,63.878235 c 10.14785,-3.44771 24.89624,-3.413432 31.98418,0.07434 14.13757,6.95669 22.75461,25.327789 25.35116,54.047425 0.95177,10.52719 0.82605,12.76888 -1.48612,26.5 -1.38922,8.25 -2.70914,15.18554 -2.93317,15.41231 -0.22403,0.22677 1.72821,1.85332 4.33831,3.61456 7.46957,5.0403 14.5412,11.82999 20.71116,19.88541 4.71112,6.15079 5.51393,7.7576 4.66681,9.34047 -2.62855,4.91148 -3.66115,4.6259 -8.95117,-2.47558 C 198.57612,181.41036 185.60506,169 182.94269,169 c -0.43317,0 -1.33432,1.6875 -2.00256,3.75 -4.12302,12.72566 -12.08846,22.89518 -22.20313,28.34689 -5.93539,3.19911 -6.79312,3.37263 -17.737,3.58816 -6.73565,0.13265 -14.19289,-0.33498 -18,-1.12876 z m 31.23581,-8.46668 c 2.60469,-1.26309 6.6117,-4.16247 8.90446,-6.44307 4.22643,-4.204 10.30782,-15.52478 11.45206,-21.31848 l 0.62645,-3.17194 -7.85939,-2.47837 c -9.91303,-3.12596 -25.11763,-5.06449 -35.16202,-4.48303 -6.32808,0.36632 -8.88649,1.05529 -13.95972,3.7593 -7.66828,4.08715 -14.65388,11.3655 -16.35373,17.03907 -1.13278,3.7809 -1.05924,4.6427 0.67206,7.87617 4.13517,7.72304 17.93352,12.25106 35.94402,11.79525 9.05849,-0.22925 11.83588,-0.68372 15.73581,-2.5749 z"
         id="path712" />
    </g>
  </g>
</svg>
