<?xml version="1.0" encoding="UTF-8" standalone="no"?>
<!-- Created with Inkscape (http://www.inkscape.org/) -->

<svg
   version="1.1"
   id="svg790"
   width="189.81419"
   height="197.36848"
   viewBox="0 0 189.81419 197.36848"
   sodipodi:docname="ã®.png"
   xmlns:inkscape="http://www.inkscape.org/namespaces/inkscape"
   xmlns:sodipodi="http://sodipodi.sourceforge.net/DTD/sodipodi-0.dtd"
   xmlns="http://www.w3.org/2000/svg"
   xmlns:svg="http://www.w3.org/2000/svg">
  <defs
     id="defs794" />
  <sodipodi:namedview
     id="namedview792"
     pagecolor="#ffffff"
     bordercolor="#000000"
     borderopacity="0.25"
     inkscape:showpageshadow="2"
     inkscape:pageopacity="0.0"
     inkscape:pagecheckerboard="0"
     inkscape:deskcolor="#d1d1d1"
     showgrid="false" />
  <g
     inkscape:groupmode="layer"
     inkscape:label="Image"
     id="g796"
     transform="translate(-7.2100453,-6.474494)">
    <g
       id="g800">
      <path
         style="fill:#b0b0b0"
         d="m 119.17156,172.67272 -7.27838,-7.32729 6.33024,-2.69038 c 7.91807,-3.36523 21.28682,-11.27832 29.47855,-17.44865 l 6.24822,-4.7064 c 5.82767,-5.31991 10.99684,-5.66804 7.17097,-1.27527 -1.72216,1.1425 -6.85259,0.74272 -1.62116,0.77527 2.46134,-0.58988 0.29778,1.47274 0.29778,-1.8893 0,-2.86942 3.18989,-6.97899 6.31281,-11.1352 8.82168,-11.74055 13.80595,-25.95145 13.98926,-39.885463 L 180.1997,79.5 l 1.9071,5.905792 c 2.84636,8.814484 3.93968,20.971348 2.84106,31.590278 -0.95985,9.27766 -6.16256,25.52643 -8.13316,28.00393 -1.44103,2.57564 -4.95274,4.68773 -8.32715,7.81819 -8.8665,8.28034 -18.93943,15.32032 -31.57078,22.06485 -5.2707,2.81433 -9.78197,5.11696 -10.02498,5.11696 -0.24302,0 -3.71712,-3.29728 -7.72023,-7.32728 z M 37.046807,160.75 C 31.095805,153.31593 23.798843,139.04428 21.324619,130 18.809506,120.80625 18.817773,96.142114 21.339032,87 25.622705,71.467354 36.100333,55.17533 48.571412,44.655438 56.681569,37.814171 72.543419,29.720919 82,27.599042 c 7.705991,-1.729078 19.3633,-2.984191 16.591341,-1.786348 -1.551993,0.670661 -0.740752,1.261555 4.341269,3.162104 3.43746,1.285525 6.4578,2.879017 6.71186,3.541095 1.1638,3.032816 -7.45537,48.318523 -12.50351,65.694274 -1.551591,5.340593 -2.408233,9.455013 -1.903649,9.143163 0.504583,-0.31185 -1.027355,2.36229 -3.404307,5.94253 l -4.321732,6.50952 -17.005636,0.6751 c -9.3531,0.37131 -4.196024,8.76501 -8.871024,8.55918 -4.924681,-0.21683 0.282134,6.42612 5.207251,-2.19013 L 70.757108,120 74.310426,109.25 C 80.413271,90.786813 85.361261,68.126298 88.448779,44.5 89.311277,37.9 90.226891,31.2625 90.483478,29.75 91.087875,26.187267 90.152129,26.211711 78.647505,30.059188 57.908401,36.99494 40.079783,53.097355 31.29711,72.825021 c -9.459839,21.248718 -7.886883,50.598679 3.520637,65.691959 7.767309,10.27693 14.339065,12.04303 21.332866,5.73302 l 4.156375,-4.14325 1.337911,-3.05717 c 3.104207,-7.09322 -14.128166,-1.1293 -1.980858,-0.87897 9.854298,0.20308 13.870438,4.03054 14.115698,4.2758 0.94001,0.94001 -15.344885,25.39922 -17.279739,25.95342 -1.1,0.31507 -4.80126,0.57901 -8.225022,0.58652 L 42.049956,167 Z m 59.556041,-23.78178 c -0.687225,1.9029 4.324762,-6.42866 29.249992,-1.75 L 146,139 v -9 -9 h -22 c -20.44291,0 -25.830588,0.35728 -22.40269,-1.76127 0.70817,-0.43768 -0.50701,2.67278 -0.93724,3.36891 -0.51311,0.83022 7.3764,0.99313 23.32006,0.68152 l 20.35091,-0.39774 0.44491,7.10858 -1.05667,7.66472 -17.35021,-3.84935 c -19.78582,-4.38973 -28.406421,2.77323 -29.555618,3.66896 -1.398543,1.09008 1.942419,-6.47774 -0.210604,-0.51611 z M 194.71989,83.829499 C 187.99152,56.754023 166.2324,31.494982 140.18484,20.522569 125.87894,14.496276 120.31598,13.495059 101.5,13.560105 85.903267,13.614023 83.762182,13.845111 75.561637,16.359643 51.158058,23.842512 30.614853,40.099857 18.521105,61.5 13.312581,70.716594 12.539147,70.840346 17.13686,61.721483 27.00721,42.145148 44.84111,25.285469 65.517496,15.983761 88.954854,5.439971 119.8959,3.4756114 143.4303,11.037298 155.66131,14.967165 164.00967,20.033199 173.03121,29 c 14.56149,14.473152 22.73697,32.300791 23.73175,51.75 0.28835,5.6375 0.34714,10.248377 0.13065,10.246394 -0.21648,-0.002 -1.19466,-3.227087 -2.17372,-7.166895 z"
         id="path804"
         sodipodi:nodetypes="scsscccssscssccsssssssssssssscssscssssssscssssscssscccsssscccsssssssssssssss" />
      <path
         style="fill:#060606"
         d="M 88.459597,202.55234 C 50.773863,196.69456 19.607403,168.50097 9.9151716,131.5 6.9823577,120.30372 6.3570369,103.23237 8.4191277,90.657793 14.138313,55.782335 39.875693,27.302023 75.561637,16.359643 83.762182,13.845111 85.903267,13.614023 101.5,13.560105 c 13.67907,-0.04729 18.36744,0.310835 24,1.833247 34.63841,9.362342 60.70713,35.430037 69.54432,69.541591 1.93335,7.462725 2.12828,10.228981 1.69117,23.999997 -0.37063,11.67683 -1.03535,17.53199 -2.66098,23.43894 -10.38859,37.74842 -42.60076,65.74269 -81.22024,70.58516 -10.12276,1.26929 -14.031517,1.20412 -24.394673,-0.4067 z M 123.5,189.45977 c 8.4266,-2.30633 19.59543,-7.63873 26.8655,-12.82654 38.00338,-27.11865 46.35393,-80.252964 18.56574,-118.13323 -3.83877,-5.232933 -15.18637,-16.503814 -16.607,-16.494728 -0.67389,0.0043 -49.05472,75.394878 -50.15757,78.159218 -0.18334,0.45953 9.60416,0.83551 21.75,0.83551 H 146 v 8.98443 8.98442 l -28.11919,0.26558 -28.119182,0.26557 -13.356068,21 c -7.345837,11.55 -13.367204,21.26527 -13.380814,21.58948 -0.05959,1.41944 13.519815,6.41762 22.975254,8.45651 8.338563,1.79806 29.16599,1.19478 37.5,-1.08622 z m 25.92548,-50.79336 c -0.28146,-0.73347 -0.37983,-5.12097 -0.21861,-9.75 0.27387,-7.86331 0.44099,-8.43741 2.54313,-8.73596 2.20553,-0.31324 2.25,-0.12051 2.25,9.75 0,9.45474 -0.12403,10.06955 -2.03138,10.06955 -1.11727,0 -2.26168,-0.60012 -2.54314,-1.33359 z M 157,129.93045 c 0,-9.87051 0.0445,-10.06324 2.25,-9.75 2.13446,0.30314 2.2647,0.82023 2.53621,10.06955 l 0.28621,9.75 H 159.53621 157 Z m -9.55103,-14.39833 C 146.65204,113.62478 146,109.59807 146,106.58386 c 0,-4.51482 0.70629,-6.766841 4.00878,-12.782122 8.0192,-14.606468 9.1992,-17.638461 9.25711,-23.785984 0.05,-5.306419 0.26948,-5.884942 2.3863,-6.289598 1.96624,-0.37587 2.49159,0.119548 3.3553,3.164098 3.44386,12.139479 2.07777,20.674477 -5.93007,37.049646 C 156.28484,109.65044 154,115.10194 154,116.05436 154,117.66614 152.12856,119 149.86719,119 c -0.53309,0 -1.62128,-1.56055 -2.41822,-3.46788 z m 8.7001,-16.817733 c 6.65264,-14.616376 7.06288,-18.066101 0.95107,-7.997656 -4.50168,7.415967 -7.07927,13.604469 -7.09456,17.033269 -0.014,3.13924 1.84974,0.39811 6.14349,-9.035613 z M 55.100774,171.25 c 1.245141,-2.0625 6.059856,-9.73449 10.699367,-17.04886 4.63951,-7.31437 8.232568,-13.50176 7.984572,-13.74976 -0.247996,-0.248 -8.626009,-0.74702 -18.617807,-1.10895 L 37,138.68439 v -8.68203 -8.68203 l 25.20346,-0.64803 c 18.626837,-0.47894 25.408917,-0.97738 25.99083,-1.91017 0.433054,-0.69417 12.4915,-19.645911 26.79654,-42.114977 C 129.29587,54.178087 141,35.462819 141,35.057668 141,33.176951 124.78999,27.595437 114.51329,25.937626 105.72323,24.519638 91.832234,25.197027 82,27.523124 72.383294,29.798232 56.587105,37.893856 48.571412,44.655438 36.246295,55.052205 25.584713,71.530875 21.498279,86.5 c -2.568389,9.408335 -3.093682,28.4361 -1.064671,38.56572 1.977294,9.87143 6.541652,21.01269 12.060697,29.43927 C 36.584326,160.74971 50.011527,175 51.805537,175 c 0.567239,0 2.050096,-1.6875 3.295237,-3.75 z"
         id="path802" />
    </g>
  </g>
</svg>
