<?xml version="1.0" encoding="UTF-8" standalone="no"?>
<!-- Created with Inkscape (http://www.inkscape.org/) -->

<svg
   version="1.1"
   id="svg880"
   width="293.63702"
   height="300.66611"
   viewBox="0 0 293.63702 300.66611"
   sodipodi:docname="ã¯.png"
   xmlns:inkscape="http://www.inkscape.org/namespaces/inkscape"
   xmlns:sodipodi="http://sodipodi.sourceforge.net/DTD/sodipodi-0.dtd"
   xmlns="http://www.w3.org/2000/svg"
   xmlns:svg="http://www.w3.org/2000/svg">
  <defs
     id="defs884" />
  <sodipodi:namedview
     id="namedview882"
     pagecolor="#ffffff"
     bordercolor="#000000"
     borderopacity="0.25"
     inkscape:showpageshadow="2"
     inkscape:pageopacity="0.0"
     inkscape:pagecheckerboard="0"
     inkscape:deskcolor="#d1d1d1"
     showgrid="false" />
  <g
     inkscape:groupmode="layer"
     inkscape:label="Image"
     id="g886"
     transform="translate(-12,-9)">
    <g
       id="g890">
      <path
         style="fill:#aeaeae"
         d="m 86.5,188.59785 c -9.728643,-3.08484 -18.531817,-9.93044 -21.901288,-17.03107 -6.823242,-14.37892 -1.353033,-31.56874 11.834249,-39.64166 11.285194,-6.90851 6.410959,-3.55947 5.81179,-0.42512 -0.698091,3.65183 1.422654,3.06177 2.812799,-0.78261 l 1.187007,-3.28261 10.877721,-0.29666 L 108,126.84145 V 135.42073 144 h -8.184276 c -10.225831,0 -15.43964,2.20686 -18.631633,7.88624 -2.788183,4.96091 -2.7681,8.95991 0.06591,13.12393 3.362589,4.94067 6.611623,6.9063 13.255375,8.01938 6.039364,1.01181 11.322884,0.65767 17.164324,-1.1505 4.19215,-1.29764 13.25095,-11.3867 12.59138,-13.90887 -0.40053,-1.53165 -0.9998,0.77928 3.5917,3.7342 3.10597,1.99889 6.83292,4.32413 8.28211,5.1672 l 2.6349,1.53284 -2.50552,4.04779 c -5.32852,8.60847 -11.9636,13.58401 -21.50028,16.12274 -6.47933,1.72485 -22.854743,1.73811 -28.26399,0.0229 z m -66.954876,-0.9412 c -1.010425,-0.73884 -2.001037,-2.87634 -2.20136,-4.75 C 17.14344,181.03299 16.544896,177.025 16.013665,174 13.628481,160.418 12,137.49401 12,117.5 12,86.381776 14.878007,62.052333 21.700042,35.5 23.113145,30 24.342526,24.817088 24.432,23.982419 c 0.247687,-2.310579 0.777427,-2.929136 2.142442,-2.79679 0.608076,0.05896 3.99456,1.255692 7.745562,2.255866 6.899803,1.839776 8.006307,1.062102 5.426021,6.015798 C 38.605222,31.647432 33.25675,28.147279 30.305673,36 26.230822,46.843047 21.570935,66.13778 19.316931,81.5 c -2.481844,16.915068 -2.453853,65.15298 0.05163,88.96988 0.981854,9.33343 2.002154,17.32093 2.267333,17.75 0.710285,1.14926 -0.01658,0.95345 -2.090767,-0.56323 z m 6.90287,-2.35408 C 23.51415,171.10182 24.024,112.94087 25.970078,91.916241 26.637415,84.706615 28.213531,73.734153 29.472559,67.532993 31.850415,55.821212 38.543149,32.570068 39.207455,33.234374 39.417451,33.44437 36.187935,45.729216 35.116479,50.615623 29.816286,74.78733 27.905509,92.356236 27.896581,117 c -0.008,22.08904 2.427652,46.55372 6.695273,67.25 0.520553,2.52448 1.023189,3.81567 -2.025789,4.3652 -7.981146,1.43848 -5.75819,-1.57069 -6.118071,-3.31263 z M 178.95968,179.05811 180,173.27619 l 6.62592,-0.67885 c 3.64425,-0.37336 6.74173,-1.56189 7.03914,-1.26448 0.29742,0.29741 -0.0177,0.68952 -0.90337,1.66714 -0.58035,0.64062 -2.11968,2.08061 -4.25356,4.57635 -3.19757,3.7398 -2.66456,4.28615 -4.42377,3 -2.82318,-2.06402 -5.39518,-4.72015 -5.87592,-1.54669 -0.22912,1.5125 0.20447,3.0673 0.75124,0.0284 z m -9.84836,-9.69269 c -1.15537,-0.85439 -3.21409,-2.05615 -4.52693,-2.73726 -2.26478,-1.17498 -2.30245,-1.34635 -0.73569,-3.34691 1.31196,-1.67523 3.0686,-5.05809 8.10564,-4.06008 l 6.45435,1.27883 0.6424,5.34004 c -0.16099,2.75 0.17215,5.64255 -1.42274,4.85991 0.74317,1.14515 3.70592,5.69884 1.12864,4.98236 2.28089,0.93781 -3.78313,-1.92737 -9.64567,-6.31689 z M 180.01365,168.75 c 0.008,-1.2375 0.27081,-3.20825 0.58511,-4.37944 0.5569,-2.07523 0.73797,-2.03704 7.11195,1.5 l 6.54051,3.62944 -4.37561,0.67588 c -8.2972,1.28162 -9.877,1.05321 -9.86196,-1.42588 z m 5.16286,12.3591 c 0.35799,0.28235 -34.07626,-22.43659 -36.19277,-23.61643 -7.15355,-3.98772 -6.64559,-3.90331 -5.34747,-5.85712 1.20749,-1.81738 4.9434,-0.94743 10.48661,-0.69329 12.04605,0.55226 13.64742,2.32656 10.10488,6.68193 -1.73365,2.13143 19.42188,22.28068 20.94875,23.48491 z m -54.4469,-26.34317 c -4.27371,-2.78217 -7.64871,-5.14629 -7.5,-5.2536 0.43039,-0.31058 21.23237,1.62071 21.62132,2.00735 0.6804,0.67636 -3.80826,8.98922 -4.86002,8.90258 -0.58622,-0.0483 -4.98759,-2.87417 -9.2613,-5.65633 z m 0.65294,-5.01921 c -11.97822,-0.57698 -12.54455,-2.37319 -3.23637,-6.89628 l 7.60243,-4.75062 6.06872,2.04069 c 7.45995,2.50851 10.29902,2.31772 8.87867,5.43503 -1.31724,2.89104 -2.64437,4.97412 -19.31345,4.17118 z M 116,138.5 c 0,-4.125 0.18655,-7.5 0.41456,-7.5 C 117.34852,131 133,137.20605 133,137.57638 133,138.01294 117.37618,146 116.5222,146 116.23499,146 116,142.625 116,138.5 Z m 9.27661,-6.24775 c -5.07287,-1.94114 -9.01549,-3.86573 -8.76139,-4.27687 0.2541,-0.41115 2.15462,-0.14355 4.22339,0.59465 5.99982,2.14093 6.51885,1.92687 6.09536,-2.51382 -0.58193,-6.1021 2.30811,-26.283979 12.17412,-22.14274 3.67977,13.08007 3.39453,9.50244 2.50301,35.61916 -4.44465,3.02118 -5.20401,-3.05954 -16.23449,-7.28038 z m 14.17835,-5.30194 c -2.36602,-2.22647 -6.35129,-6.97588 -6.34476,-7.26444 0.007,-0.28855 2.91459,-8.14504 6.09502,-9.89148 -3.31661,-23.436735 4.01658,16.85936 0.24974,17.15592 z M 128.25,117.33772 c -0.79508,-0.32082 -1.247,-2.56667 -1.24175,-6.17105 0.008,-5.53437 0.0974,-5.71503 3.8252,-7.73785 l 6.22142,-11.809244 2.41922,12.771034 c 0.9479,5.00398 0.73059,7.75161 0.47188,9.94431 -0.23345,1.97487 5.73214,-3.73818 0.041,-0.75855 -3.96247,2.07456 -11.63552,13.19838 -11.91052,13.1429 -0.275,-0.0555 0.86107,-9.10414 0.17357,-9.38155 z m 2.96179,-16.79636 C 128.183,99.216805 127,95.661963 127,91.112142 c 0,-4.097932 0.39966,-5.143992 2.48819,-6.512444 2.36437,-1.549196 10.69628,-2.260142 7.79777,0.480712 -10.66583,10.085687 9.54714,5.564557 2.21822,9.606689 -5.64694,3.114466 -3.91509,7.768551 -8.29239,5.854261 z m -4.95781,32.2821 c -2.63027,-1.49153 -0.22008,-55.842366 -0.23867,-58.57346 -0.0154,-2.257044 2.31904,-3.136055 3.45353,-1.300414 0.32278,0.522272 2.75528,0.69277 5.40555,0.378884 4.00709,-0.474579 8.98685,-0.617707 8.94339,0.953097 -2.37663,85.898703 -2.29983,21.315231 -8.24928,18.180727 -4.82815,-2.543739 -6.76941,41.804406 -9.31452,40.361166 z M 60.610812,72.138872 C 58.730042,59.163054 58.73377,58.000278 60.656162,57.993473 61.670273,57.989883 70.6,57.320928 80.5,56.506907 c 9.9,-0.81402 19.87557,-1.486083 22.16794,-1.493472 L 106.83588,55 107.16794,61.8746 107.5,68.749201 93,69.285736 c -14.023681,0.51891 -23.09883,2.122132 -29.180877,5.155114 -2.63303,1.313034 -2.690291,1.271949 -3.208311,-2.301978 z M 179.78516,70.5 c -1.99181,-0.55 -3.93165,-1.310848 -4.31075,-1.690773 -0.37911,-0.379925 -0.36868,-3.883298 0.0232,-7.785274 0.57886,-5.763983 -3.36463,-7.006475 -2.27758,-6.104309 0.73588,0.610728 8.08316,1.11867 11.03747,0.98182 2.95431,-0.13685 5.79246,0.01 6.307,0.326313 0.51453,0.316323 0.78911,3.947454 0.61017,8.069181 l -0.32535,7.49405 -3.72133,-0.145504 C 185.08124,71.565477 181.77697,71.05 179.78516,70.5 Z M 115,61.5 V 54 h 5 5 l -0.0537,-4.25 c -0.0296,-2.3375 -0.6488,-10.325 -1.37612,-17.75 -0.72731,-7.425 -1.18878,-13.651849 -1.02549,-13.837443 0.72262,-0.821312 8.36632,-2.116947 12.61744,-2.1387 4.62187,-0.02365 4.66717,0.0085 5.24877,3.726143 C 141.00533,23.549802 143,47.736757 143,51.145217 143,52.452378 143.73131,53 145.47693,53 l 6.80495,0.480893 -2.10679,-17.75 c -1.81813,-15.317958 0.56767,-12.877302 0.76353,9.0629 L 149,68 h -4.679 c -2.57345,0 -6.16131,-0.536008 -7.97301,-1.191129 -2.71045,-0.980111 -4.24445,-0.891531 -8.65889,0.5 C 124.73841,68.238992 120.67627,69 118.66211,69 H 115 Z m 40.99818,-0.75 -0.002,-7.25 6.00182,0.338821 6.00182,0.338821 c 4.99003,-2.420528 2.79585,5.23836 0.37593,2.681968 L 167.69932,68 H 161.84966 156 l -0.002,-7.25 z"
         id="path894"
         sodipodi:nodetypes="ssssscccccsssssssscsssssssssssssssssssssssssssccsssssssccsscsccccsscscssssssssssssscssssssssscssccscsccssscsssssssssssssssssssssscccsssscssssscsscccccsssssscsscssssccccccccccccc" />
      <path
         style="fill:#0a0a0a"
         d="M 196,309.4069 C 160.87789,305.21359 135.25119,293.36907 102.35931,266.12669 89.281114,255.2948 83.342761,252.05097 79.685422,253.74107 67.535128,259.35585 63.054789,258.2097 43.846331,244.57284 26.655475,232.36835 28.889804,236.25351 25.630144,212.89765 24.064406,201.67894 22.392901,191.15 21.915689,189.5 17.629021,174.67848 15.936206,104.45102 19.312378,81.5 21.574699,66.120864 26.235325,46.831065 30.305673,36 L 33.5,27.5 44,26.126597 C 64.782752,23.408206 111.9349,15.085024 114.72446,13.642489 118.67114,11.601578 131.83456,9 138.21444,9 c 7.08324,0 11.2318,1.306607 15.1939,4.785381 2.57309,2.259196 4.99897,3.167244 11.08371,4.14882 11.35665,1.832024 12.51629,3.257698 11.96674,14.712125 -1.30898,27.283531 -1.3506,36.455505 -0.16693,36.790909 C 190.09351,73.348067 200,82.915701 200,92.334435 c 0,11.594675 -10.8884,23.137885 -20.08952,21.297665 -3.26298,-0.6526 -3.3244,-0.50894 -1.87024,4.3745 0.57213,1.92137 1.41676,5.2934 1.87696,7.4934 0.46019,2.2 1.18331,4.9 1.60693,6 0.61185,1.58874 0.50829,1.75805 -0.5036,0.82336 -0.7006,-0.64716 -2.75562,-6.04716 -4.56671,-12 -1.81109,-5.95285 -3.51647,-10.14836 -3.78974,-9.32336 -0.27327,0.825 -0.73995,6.7311 -1.03708,13.12468 l -0.54022,11.62468 6.70661,4.5025 c 3.68864,2.47637 25.83161,15.88387 49.20661,29.79443 49.67552,29.56211 52.69948,31.5654 57.86453,38.33358 7.16128,9.38401 10.54187,18.41615 14.18165,37.88999 1.15443,6.17658 3.2395,15.64146 4.63348,21.03307 2.47489,9.57232 2.49082,9.85144 0.67743,11.86495 -1.0214,1.13411 -11.14715,6.7136 -22.50167,12.39886 -21.17177,10.60081 -27.17286,12.70328 -45.35542,15.89019 -8.90677,1.56111 -33.74176,2.75685 -40.5,1.94997 z m 29.96618,-7.29368 c 1.88132,-0.5244 0.69553,-0.9641 -5,-1.85406 C 204.85464,297.74164 186.175,291.10795 164,280.02877 147.95042,272.01001 137.27452,265.72625 102,243.536 87.425,234.36727 68.916655,223.58545 60.870344,219.57641 47.08066,212.70576 33.749063,207.9176 32.337918,209.32875 c -0.680684,0.68068 1.542061,18.39383 2.553293,20.34729 0.671098,1.2964 22.126168,16.74053 26.108789,18.79404 5.750792,2.96521 8.777279,2.88133 13.866329,-0.3843 2.644821,-1.69718 5.444369,-3.08138 6.221218,-3.07601 3.611926,0.025 12.504019,5.67058 24.317403,15.43914 15.63291,12.92694 22.37153,17.76609 33.92785,24.36429 14.91395,8.51528 32.61385,14.65855 49.18825,17.07222 7.13969,1.03973 33.94718,1.20281 37.44513,0.2278 z m 51.60361,-15.42916 C 289.35641,280.8332 299,275.61505 299,275.08817 c 0,-0.52689 -0.46385,-2.17799 -1.03078,-3.66913 -0.56693,-1.49113 -2.5936,-10.63293 -4.50371,-20.31509 -1.91012,-9.68217 -4.39903,-20.38965 -5.53093,-23.79439 -2.92222,-8.79002 -8.84378,-17.43735 -15.10109,-22.05234 -7.13919,-5.2654 -14.90599,-9.62344 -14.32492,-8.03787 0.30176,0.82343 -6.4695,5.12004 -18.96615,12.0347 l -19.43547,10.75404 -41.30348,-26.12129 c -75.96154,-48.03987 -69.50074,-43.64326 -70.18145,-47.75896 -0.33,-1.99531 -0.60496,-15.66534 -0.61101,-30.37784 -0.006,-14.7125 -0.34851,-26.747361 -0.76101,-26.744137 -0.4125,0.0032 -3.7166,2.815725 -7.342451,6.25 L 93.315098,101.5 l -2.784916,11 c -3.276067,12.93997 -6.302745,21.5 -7.602031,21.5 -1.327354,0 -1.147332,-2.23118 0.497684,-6.16826 C 85.03553,123.9792 90,106.71451 90,104.96909 c 0,-0.62657 -2.357733,0.73803 -5.239407,3.03245 C 78.390873,113.07319 74.009212,115 68.845757,115 57.782234,115 47.804535,104.96081 47.650657,93.674276 47.555984,86.730252 50.051341,82.781561 57.5,78.08853 67.847121,71.569321 78.937326,69.019941 97,69.008398 l 10.5,-0.0067 -0.28586,-23.000845 c -0.21401,-17.219474 -0.59104,-22.999107 -1.5,-22.993933 -4.95963,0.02823 -66.263819,11.252154 -66.912029,12.250637 -1.828887,2.817163 -6.946052,20.518205 -9.243851,31.975868 -1.353014,6.746621 -2.98977,18.01074 -3.637236,25.031374 -1.680693,18.224171 -0.640047,64.153031 1.999213,88.235211 2.565721,23.41116 2.585384,23.5 5.20131,23.5 4.257658,0 20.757028,6.31298 32.502837,12.43621 6.668411,3.47633 25.793411,14.86897 42.499996,25.31698 36.96178,23.11525 44.70271,27.62027 61.37562,35.71902 16.21961,7.87856 29.48318,12.83936 43.10525,16.1221 14.58785,3.51548 21.23632,4.31616 33.21454,4.00003 l 10.31979,-0.27235 21.43021,-10.63793 z M 220,206 v -5 h -6.33333 c -3.48334,0 -6.64803,0.31469 -7.03265,0.69931 -0.52513,0.52513 11.76364,9.22872 13.11598,9.28946 C 219.8875,210.99495 220,208.75 220,206 Z m 12.52607,-1.22224 c 5.14953,-2.87224 9.22438,-5.36065 9.05522,-5.52981 -0.16916,-0.16916 -4.64415,-0.003 -9.94443,0.36985 L 222,200.2952 v 4.8524 c 0,2.66882 0.26174,4.8524 0.58164,4.8524 0.31991,0 4.7949,-2.35001 9.94443,-5.22224 z m -12.72781,-6.27977 c 0.16404,-0.14364 0.56475,-3.44001 0.89048,-7.32527 0.57345,-6.84015 0.51644,-7.08211 -1.79826,-7.63234 -1.31476,-0.31254 -5.54048,0.0256 -9.39048,0.75145 l -7,1.3197 -0.2957,7.28781 -0.2957,7.28781 8.7957,-0.714 c 4.83764,-0.3927 8.92991,-0.83153 9.09396,-0.97516 z m 21.69504,-1.41847 C 243.4159,197.00282 225.03125,186 222.9805,186 c -0.94033,0 -1.44345,11.20371 -0.54353,12.10363 0.24033,0.24034 4.17783,0.12612 8.75,-0.25381 4.57217,-0.37993 9.21001,-0.72657 10.30633,-0.7703 z M 200,191.93261 c 0,-5.30624 -0.21953,-6.00335 -1.75,-5.55696 -0.9625,0.28074 -3.89303,0.81299 -6.5123,1.18278 -2.61926,0.36979 -4.98262,1.02885 -5.25191,1.46457 -0.45262,0.73234 11.07645,8.7882 12.76421,8.91892 0.4125,0.0319 0.75,-2.67224 0.75,-6.00931 z m 56.45,3.20893 c -0.5225,-0.47215 -20.975,-12.67137 -45.45,-27.10937 -24.475,-14.43801 -45.09934,-26.9892 -45.83186,-27.89154 -1.03386,-1.27355 -1.1952,-4.66118 -0.72111,-15.14063 0.33591,-7.425 0.84369,-15.525 1.12841,-18 0.48501,-4.21611 0.23747,-4.81543 -3.92383,-9.5 -2.44283,-2.75 -4.60128,-4.775 -4.79656,-4.5 -0.19528,0.275 -0.13005,11.04661 0.14495,23.9369 l 0.5,23.43691 5.5,3.15573 c 3.025,1.73565 15.85,8.94153 28.5,16.01308 12.65,7.07155 32.45,18.16498 44,24.65208 20.20367,11.34747 23.02442,12.82137 20.95,10.94684 z m -63.45,-9.44237 6.5,-1.20748 0.29772,-6.24584 L 200.09543,172 h -3.90102 c -2.14557,0 -6.66704,0.28911 -10.04772,0.64246 L 180,173.28491 v 6.19088 c 0,3.40498 0.3,6.49088 0.66667,6.85754 0.95372,0.95373 4.86933,0.75239 12.33333,-0.63416 z M 178,178.5 V 173 l -4.25,0.0576 c -2.3375,0.0317 -5.98747,0.3692 -8.11104,0.75 l -3.86104,0.69237 7.36104,4.72144 c 4.04857,2.59679 7.69854,4.73429 8.11104,4.75 0.4125,0.0157 0.75,-2.44644 0.75,-5.47144 z m 32.42008,3.91791 c 4.56022,-0.6451 4.77965,-0.80138 3,-2.13673 -1.05604,-0.79239 -4.05758,-2.5374 -6.67008,-3.87779 L 202,173.96631 v 5.08423 c 0,4.36991 0.24587,5.01252 1.75,4.57381 0.9625,-0.28074 3.96404,-0.82363 6.67008,-1.20644 z m -37.14781,-11.04175 4.55141,-0.62384 0.33816,-4.97192 c 0.18599,-2.73455 0.0746,-5.13465 -0.24742,-5.33355 -0.32206,-0.19891 -3.41942,-0.0433 -6.88302,0.34575 l -6.29745,0.7074 -2.9635,5.25 -2.96349,5.25 h 4.95695 c 2.72632,0 7.00508,-0.28073 9.50836,-0.62384 z m -13.41352,-5.02232 2.25728,-4.64616 -5.30802,0.63747 c -2.9194,0.3506 -6.54551,0.64138 -8.05801,0.64616 -1.5125,0.005 -2.75,0.35636 -2.75,0.78129 0,0.74224 9.91416,7.2274 11.04886,7.2274 0.30394,0 1.56838,-2.09077 2.80989,-4.64616 z m 30.01686,3.82204 4.37561,-0.67588 -6.54051,-3.62944 c -6.37398,-3.53704 -6.55505,-3.57523 -7.11195,-1.5 -0.3143,1.17119 -0.5776,3.14194 -0.58511,4.37944 -0.015,2.47909 1.56476,2.7075 9.86196,1.42588 z m -36.44333,-9.29643 c 7.20304,-0.89013 9.42302,-1.55846 10.79548,-3.25 3.52336,-4.3425 2.18134,-5.09534 -10.56645,-5.92754 l -5.8387,-0.38117 -2.4719,3.91574 c -4.82015,7.63562 -5.30482,7.2972 8.08157,5.64297 z m -10.51549,-4.94519 c 1.25679,-2.23615 2.12715,-4.22271 1.93414,-4.41458 -0.38895,-0.38664 -21.19093,-2.31793 -21.62132,-2.00735 -0.46094,0.33262 15.20666,10.30683 16.33625,10.39987 0.58622,0.0483 2.09414,-1.74178 3.35093,-3.97794 z m 4.97386,-9.59362 c 1.42035,-3.11731 1.21612,-3.30761 -6.24334,-5.81758 L 136.5,138.7911 l -8.35382,4.05934 c -10.31047,5.01013 -10.49605,4.93085 13.9433,5.95688 4.08558,0.17152 4.72253,-0.0993 5.80117,-2.46668 z m -22.86845,-4.3518 C 129.40999,139.7827 133,137.79709 133,137.57638 133,137.20605 117.34852,131 116.41456,131 116.18655,131 116,134.375 116,138.5 c 0,4.125 0.23499,7.5 0.5222,7.5 0.28721,0 4.11221,-1.80502 8.5,-4.01116 z M 150,136.5 c 0,-2.475 -0.29796,-4.5 -0.66214,-4.5 -0.36418,0 -2.71446,1.20274 -5.22285,2.67275 l -4.56071,2.67275 3.97285,1.75309 C 149.53532,141.74979 150,141.56324 150,136.5 Z m -6.51893,-3.71463 c 3.58541,-1.76805 6.51893,-3.5061 6.51893,-3.86233 0,-0.35624 -4.3875,-2.47153 -9.75,-4.70066 l -9.75,-4.05295 -6.5,3.54905 c -3.575,1.95198 -6.85447,3.86583 -7.28771,4.253 -0.7186,0.64218 16.14593,7.66449 19.01878,7.91932 0.67708,0.0601 4.16458,-1.33738 7.75,-3.10543 z m -18.19523,-11.813 3.04452,-1.85149 -5.78961,-2.56044 C 119.35646,115.1522 116.35713,114 115.87557,114 c -0.98504,0 -1.19891,7.9938 -0.27807,10.39348 0.64535,1.68176 2.20011,1.13275 9.68834,-3.42111 z m 24.54735,-1.91869 c -0.21588,-3.82048 -0.68522,-7.23905 -1.04299,-7.59682 -0.65646,-0.65645 -14.77109,6.58208 -14.78351,7.58156 -0.007,0.57746 13.91597,6.85225 15.35616,6.92062 0.47456,0.0225 0.68622,-3.08489 0.47034,-6.90536 z m -10.09654,-5.79257 c 5.08015,-2.61861 9.09514,-5.20365 8.92218,-5.74454 -0.17295,-0.54089 -3.38242,-2.14984 -7.13216,-3.57544 l -6.8177,-2.592 -9.44027,5.07543 -9.44027,5.07544 6.83578,3.18211 c 3.75969,1.75015 7.06079,3.21765 7.33579,3.2611 0.275,0.0435 4.65649,-2.0635 9.73665,-4.6821 z m -65.598803,-1.42056 c 6.285202,-1.88309 17.25113,-11.82615 20.23794,-18.3502 1.398184,-3.054036 5.035616,-8.166929 8.083183,-11.361985 5.83463,-6.117005 6.96975,-9.521483 3.479,-10.434334 -2.88218,-0.753707 -28.493862,0.998774 -33.894513,2.319234 -6.362255,1.555571 -15.615415,6.735192 -19.078675,10.679628 -6.384068,7.271051 -2.300643,20.638307 7.942502,26.000107 4.95671,2.5946 7.627558,2.82626 13.230563,1.14755 z m 115.466923,-1.74127 c 6.06981,-3.70128 10.07632,-14.145549 8.35466,-21.779151 -1.38735,-6.151352 -11.13417,-13.981533 -19.63858,-15.776802 -3.13199,-0.661159 -3.18692,-0.607127 -3.70331,3.64278 -2.37695,19.562275 -1.03773,32.341893 3.62481,34.589983 3.47569,1.67584 7.94038,1.4099 11.36242,-0.67681 z m -65.4443,-5.22821 c 4.03674,-2.27091 7.46943,-4.23831 7.6282,-4.37201 C 132.13924,100.20387 116.80973,93.987026 115.75,93.994623 115.3375,93.99758 115,97.375 115,101.5 c 0,4.125 0.40971,7.5 0.91047,7.5 0.50075,0 4.21325,-1.85802 8.25,-4.12893 z m 24.50276,-10.541169 c -0.50594,-0.505946 -10.62644,4.889415 -10.64882,5.677019 -0.008,0.27881 2.34809,1.42206 5.23559,2.54055 l 5.25,2.03363 0.30609,-4.901124 c 0.16836,-2.695616 0.10407,-5.10315 -0.14286,-5.350075 z m -6.92401,0.942027 c 3.98157,-2.07456 7.24407,-4.0114 7.25,-4.304089 0.006,-0.292689 -3.79217,-2.177629 -8.44023,-4.188757 l -8.451,-3.656596 -8.01599,4.138432 c -4.40879,2.276138 -7.77615,4.386079 -7.48303,4.688757 0.43223,0.446315 15.61183,6.52673 17.40103,6.970241 0.275,0.06817 3.75765,-1.573427 7.73922,-3.647988 z M 166,93.477657 c 0,-3.90941 -0.5594,-5.129219 -4.12736,-9 C 159.60259,82.014946 157.35259,80 156.87264,80 156.39269,80 156,81.819278 156,84.042841 c 0,3.429804 0.70311,4.794521 4.63684,9 C 163.1871,95.769278 165.4371,98 165.63684,98 165.83658,98 166,95.964946 166,93.477657 Z M 128.99331,81.832708 c 0.004,-0.367011 -2.03141,-1.445649 -4.52241,-2.396973 -4.48868,-1.71424 -4.55116,-1.708959 -7,0.591606 C 115.66552,81.723402 115,83.394843 115,86.232925 v 3.884298 l 6.99331,-3.808612 c 3.84632,-2.094736 6.99632,-4.108893 7,-4.475903 z M 149,85.687091 c 0,-1.2721 -1.3531,-3.609256 -3.00688,-5.193681 l -3.00688,-2.880772 -4.24312,2.086625 -4.24312,2.086626 6.5,3.106267 c 3.575,1.708446 6.8375,3.106621 7.25,3.107055 0.4125,4.34e-4 0.75,-1.04002 0.75,-2.31212 z M 167,78.5 V 71 h -5.5 c -4.97599,0 -5.5,0.206627 -5.5,2.168758 0,1.280955 2.14914,4.324312 5.25,7.43443 2.8875,2.89612 5.3625,5.295179 5.5,5.331243 C 166.8875,85.970494 167,82.625 167,78.5 Z m -30.71016,0.37708 c 5.22723,-2.635763 4.88131,-2.2675 4.08331,-4.347053 -0.54938,-1.431656 -1.51071,-1.661912 -5.20166,-1.245889 -2.49024,0.280687 -5.2843,0.03785 -6.209,-0.539639 -1.27099,-0.793741 -2.31804,-0.585632 -4.29046,0.852761 -1.43505,1.046507 -2.61429,2.12774 -2.62054,2.40274 -0.009,0.375382 7.81948,4.323154 9.73835,4.911181 0.15941,0.04885 2.18441,-0.866495 4.5,-2.034101 z M 127.6891,67.308871 c 4.41444,-1.391531 5.94844,-1.480111 8.65889,-0.5 C 138.15969,67.463992 141.74755,68 144.321,68 H 149 V 43.035184 c 0,-23.658526 -0.10121,-25.018983 -1.93426,-26 -3.02893,-1.621037 -16.85182,-1.106898 -24.56574,0.913716 -3.85,1.008484 -7.41006,1.586141 -7.91125,1.283681 -0.54123,-0.32663 -0.64485,3.473461 -0.25517,9.358746 0.36084,5.44977 0.6584,16.771173 0.66125,25.158673 L 115,69 h 3.66211 c 2.01416,0 6.0763,-0.761008 9.02699,-1.691129 z M 168.37483,55.75 c 0.36199,-6.7375 0.93306,-16.353488 1.26905,-21.368861 l 0.61088,-9.118862 -5.78415,-0.722682 C 161.28933,24.14212 158.082,23.584962 157.34323,23.301468 156.24333,22.879399 156,26.881426 156,45.393011 V 68 h 5.85834 5.85833 z"
         id="path892" />
    </g>
  </g>
</svg>
