<?xml version="1.0" encoding="UTF-8" standalone="no"?>
<!-- Created with Inkscape (http://www.inkscape.org/) -->

<svg
   version="1.1"
   id="svg970"
   width="240.5457"
   height="328.47919"
   viewBox="0 0 240.5457 328.47919"
   sodipodi:docname="ã².png"
   xmlns:inkscape="http://www.inkscape.org/namespaces/inkscape"
   xmlns:sodipodi="http://sodipodi.sourceforge.net/DTD/sodipodi-0.dtd"
   xmlns="http://www.w3.org/2000/svg"
   xmlns:svg="http://www.w3.org/2000/svg">
  <defs
     id="defs974" />
  <sodipodi:namedview
     id="namedview972"
     pagecolor="#ffffff"
     bordercolor="#000000"
     borderopacity="0.25"
     inkscape:showpageshadow="2"
     inkscape:pageopacity="0.0"
     inkscape:pagecheckerboard="0"
     inkscape:deskcolor="#d1d1d1"
     showgrid="false" />
  <g
     inkscape:groupmode="layer"
     inkscape:label="Image"
     id="g976"
     transform="translate(-23.47621,-7.4638386)">
    <g
       id="g980">
      <path
         style="fill:#afafaf"
         d="m 151.79074,329.45741 c -0.33312,0 -3.16896,0.82067 -5.66466,0.65242 -12.12111,-0.81718 -26.41248,-14.01504 -33.2895,-28.11891 -5.99612,-12.29726 -7.3024,-18.52812 -7.23091,-34.49092 0.0493,-11.00473 0.51448,-15.64699 2.17433,-21.69808 4.64461,-16.93231 12.18159,-32.21585 23.81975,-48.30192 6.41883,-8.87199 6.50357,-9.0734 5.95757,-14.16102 -0.30463,-2.83856 -1.56715,-8.00028 -2.8056,-11.47048 l -3.62024,-5.85329 7.36852,-2.61077 c 3.305,-1.17101 6.77107,-2.47766 7.71349,-2.8725 1.37457,-0.5759 2.34393,0.56059 4.90092,5.7459 l 3.18744,6.46379 -5.52868,5.52868 c -14.701,14.701 -28.05482,41.62068 -33.20513,66.93753 -1.9845,9.75497 -2.02113,25.63243 -0.0764,33.09886 6.89796,26.48308 32.13519,39.91365 57.30527,30.49632 14.73795,-5.51418 25.46554,-23.71681 27.69421,-46.9917 0.33238,-3.47123 0.89279,-7.88632 1.24535,-9.81132 0.61659,-3.36665 0.66815,-3.29045 1.35336,2 1.21054,9.34657 0.94442,26.17446 -0.52345,33.09922 -4.08411,19.26709 -19.63977,36.35471 -37.06641,40.71681 -5.92296,1.48258 -13.01852,2.33212 -13.70926,1.64138 z m 58.38769,-43.9966 c 1.55202,-8.67992 1.0825,-28.16896 -1.49361,-46.96081 -1.43256,-10.45 -2.89577,-23.05 -3.25158,-28 -0.83426,-11.60599 0.95767,-26.4705 3.97817,-33 l 1.92196,-6.04268 1.05097,6.04268 c 1.86546,10.72573 20.39848,44.00509 36.62299,64.10496 4.2992,5.20761 11.74524,12.72046 14.87127,16.23285 0.59039,0.93144 -0.62436,2.715 -3.99912,5.87169 -2.6659,2.49364 -3.86553,4.0536 -4.99548,5.13571 -1.18226,0.94724 -1.32803,0.81367 -1.63154,0.569 -0.76937,-1.26712 -3.99031,-6.29958 -9.58333,-13.2831 -5.59302,-6.98352 -11.47845,-13.72171 -12.85345,-15.76225 -3.58896,-3.82982 -7.01174,-8.10556 -9.41369,-11.86886 -2.61308,-4.125 -4.78502,-7.49981 -4.82653,-7.49958 -0.0415,2.3e-4 -0.20938,9.73912 -0.37306,21.64198 -0.29358,21.34866 -1.54582,32.86757 -4.60478,42.3576 l -2.37212,5.79025 z M 104.48429,229 c 1.26435,-4.31377 5.30587,-15.2356 7.76512,-20.15159 2.157,-5.22815 3.87398,-11.11921 6.29953,-15.50231 1.95192,-3.49036 3.14737,-6.3461 2.65655,-6.3461 -0.49081,0 -3.50828,0.9 -6.70549,2 -7.02762,2.04543 -14.833135,3.19281 -20.912814,5.0114 C 88.135139,195.65513 83.333804,197 82.917553,197 c -0.416251,0 -1.53353,-2.3625 -2.482843,-5.25 -0.949312,-2.8875 -1.923081,-5.78503 -2.16393,-6.43895 -0.262871,-0.71372 1.294261,-1.6367 3.895657,-2.30913 14.970808,-3.86974 48.569193,-15.93949 49.505163,-17.14143 2.31786,-2.97652 -5.8684,3.03545 -3.80855,9.38951 3.10379,9.57436 3.05868,9.96398 -1.96193,16.94781 -7.00614,9.74578 -16.74044,32.81826 -20.26107,41.13656 -3.31283,7.82735 -2.40131,-0.0848 -1.15576,-4.33437 z m 92.27582,-31.5 c -0.76401,-6.04545 -1.98714,-16.51807 -3.57735,-23.34016 -1.93316,-8.29341 -2.51676,-12.463 -1.7796,-12.71475 3.46486,-1.18332 14.17021,-3.20876 14.82402,-2.80469 0.42505,0.2627 2.53235,-0.73723 2.53235,0.0878 0,0.825 0.17002,4.2967 0.69642,3.97137 0.52639,-0.32533 -1.18948,6.80537 -3.57411,11.94318 -5.25166,11.31502 -7.012,8.86353 -7.80079,22.85728 l 0.35747,13.28087 z"
         id="path984"
         sodipodi:nodetypes="cssssssscssscsscssssssscsssscsccsccsccssscssccsccssssssssssssssssscs" />
      <path
         style="fill:#060606"
         d="m 141,334.11221 c -9.35673,-3.02858 -16.19355,-7.1198 -22.54554,-13.49148 -7.28911,-7.31172 -12.62218,-16.50939 -16.78809,-28.95353 -2.935888,-8.76991 -3.068006,-9.88229 -3.048506,-25.6672 0.01842,-14.90837 0.271934,-17.31993 2.628136,-25 5.22303,-17.0245 13.30281,-33.01718 24.64967,-48.79022 5.41899,-7.53284 5.41899,-7.53627 -0.0244,-22.70978 -4.12558,-11.50021 -5.43927,-14.27837 -19.86024,-42 C 93.182593,102.83964 90.958778,93.82937 94.605135,81.286346 97.416633,71.615132 108.16636,63.541952 124.53511,58.808558 131.54597,56.781211 134.59615,56.512297 150,56.563491 c 19.67134,0.06538 28.50956,1.583724 44.76904,7.69103 12.33174,4.631991 19.50935,9.035609 27.29403,16.745479 6.22898,6.169128 6.65531,6.896299 8.37517,14.285315 1.32243,5.681555 1.62294,9.457295 1.11207,13.972745 -1.12756,9.96635 -6.13179,27.79813 -11.64785,41.5053 -2.81903,7.00515 -5.59081,14.08664 -6.15953,15.73664 -0.56871,1.65 -2.29649,5.925 -3.83951,9.5 -5.6197,13.02023 -5.96081,28.2285 -1.39061,62 3.39379,25.07843 3.88735,33.33508 2.60311,43.54636 -2.38919,18.99702 -17.12484,40.46217 -33.12312,48.24983 -12.85772,6.25889 -26.18606,7.81394 -36.9928,4.31602 z m 24.5,-6.29618 c 12.75534,-3.19282 26.08917,-14.47289 32.39463,-27.40501 C 204.8746,286.09551 205.50817,273.26009 201,237.5 c -3.10282,-24.61249 -3.71883,-40.478 -1.98614,-51.15358 0.61052,-3.76154 3.46751,-11.53602 7.34966,-20 11.86544,-25.86938 17.46158,-43.85738 18.35784,-59.0087 0.47817,-8.08355 0.28114,-9.701101 -1.67344,-13.738739 C 217.39183,81.915067 197.47035,70.688256 173,65.39432 c -13.00746,-2.814046 -35.89841,-2.600735 -46.46988,0.433033 -10.16403,2.916842 -16.5942,6.433635 -21.50557,11.761841 -9.074953,9.84516 -7.736362,19.958547 6.1276,46.295556 21.53728,40.91381 25.33315,49.48783 26.43237,59.70469 0.51367,4.77442 0.34777,5.16008 -5.98395,13.91056 -11.63771,16.08342 -19.17559,31.36827 -23.82057,48.30192 -2.88057,10.50132 -3.09889,32.62089 -0.41651,42.19808 4.85654,17.33979 15.28455,31.13264 28.05622,37.10922 10.04973,4.70284 18.918,5.50086 30.08029,2.70681 z M 64.393335,282.58263 c -0.533601,-1.39054 1.894215,-4.06924 7.380151,-8.14278 1.575385,-1.16979 -10.222859,-3.3086 -34.773486,-6.3038 -10.576626,-1.29036 -13.5,-1.97065 -13.5,-3.14153 0,-1.82533 -1.48451,-1.85244 19,0.34702 27.474638,2.95001 31.5,3.30893 31.5,2.80868 0,-0.26098 -1.170215,-2.47133 -2.600478,-4.91188 -1.756483,-2.99722 -2.271593,-4.76627 -1.587132,-5.45073 0.55734,-0.55734 1.466066,-0.73355 2.01939,-0.39158 C 73.007349,258.12258 80,270.3962 80,271.73304 c 0,0.80243 -10.458417,9.64856 -13.757063,11.63625 -0.751657,0.45293 -1.495295,0.13665 -1.849602,-0.78666 z M 223.0964,77.735258 c -4.59593,-2.36194 -6.59778,-6.338986 -6.58085,-13.074086 0.0388,-15.421801 14.43515,-25.244754 24.05199,-16.411172 4.48433,4.1191 5.79209,9.237167 3.93607,15.404263 -1.83134,6.085096 -5.62714,10.743033 -10.79215,13.243369 -4.969,2.405455 -7.21888,2.582991 -10.61506,0.837626 z M 233.48632,69.8321 c 4.87216,-3.832444 7.06011,-12.334978 4.18569,-16.26597 -1.97055,-2.694899 -6.3418,-2.256675 -9.7137,0.973815 -8.93564,8.560885 -3.83885,22.660132 5.52801,15.292155 z M 88.615224,66.360789 C 78.826973,63.355234 70.458577,51.909297 68.499901,38.847905 67.625499,33.01698 70.12635,22.880279 73.720616,17.686775 76.742099,13.320907 83.24289,9.1593985 88.331344,8.3336562 96.712808,6.9735318 111.19783,18.140848 114.4457,28.466682 c 4.87857,15.510245 -0.46877,32.459931 -11.87496,37.640505 -4.850458,2.203029 -7.452772,2.250319 -13.955516,0.253602 z m 11.989546,-7.261511 c 1.70763,-1.041285 4.18263,-3.627103 5.5,-5.746262 C 108.16891,50.0326 108.5,48.255937 108.5,40.5 c 0,-8.112435 -0.29333,-9.529605 -2.97438,-14.370249 -3.85165,-6.954176 -8.267323,-10.306448 -14.317777,-10.869712 -8.691458,-0.809127 -15.195316,6.418672 -16.018692,17.801725 -1.294578,17.897368 13.65269,33.21038 25.415619,26.037514 z M 195.5,62.045972 C 187.53266,58.750462 184.6188,46.611221 189.36803,36.5 c 2.76369,-5.883954 5.35271,-8.411852 10.42461,-10.178523 5.8513,-2.038152 9.67558,-1.63982 13.26661,1.381832 4.13537,3.479687 5.94075,7.904067 5.94075,14.558809 0,12.829781 -13.28109,24.010678 -23.5,19.783854 z m 11.50784,-9.818518 c 6.12167,-6.121668 7.23285,-13.970761 2.68661,-18.977454 -2.50396,-2.757562 -4.25234,-2.816955 -8.40411,-0.285491 -6.86305,4.184616 -9.59691,15.81983 -4.83579,20.580946 3.41536,3.415367 6.16308,3.072204 10.55329,-1.318001 z m -74.41413,1.751483 c -4.20987,-1.28857 -9.13683,-6.489413 -11.62334,-12.269441 -1.7783,-4.133788 -2.10107,-6.515648 -1.81647,-13.404849 0.19036,-4.607805 0.81985,-8.698861 1.39889,-9.091237 0.57903,-0.392375 2.08688,-2.414899 3.35077,-4.494496 1.29991,-2.138862 4.06552,-4.682815 6.36759,-5.8572423 5.48536,-2.7984237 9.72063,-1.501407 15.85346,4.8549933 4.76175,4.935339 6.8262,9.301526 6.94229,14.682558 0.0632,2.930565 0.1402,2.86603 1.40229,-1.17564 1.91894,-6.14507 3.81254,-8.612607 8.89523,-11.591261 8.34497,-4.890476 15.66807,-2.475034 20.91774,6.899476 2.40176,4.288892 2.74013,5.873276 2.4747,11.587554 -0.41215,8.872838 -4.23289,15.370395 -11.01991,18.740483 C 169.81243,55.80165 165.4416,55.20464 160.38234,50.762553 156.62389,47.462588 155.17473,44.777853 154.03319,39 l -0.6915,-3.5 -1.16872,4.098961 c -2.97154,10.421883 -11.66078,16.803688 -19.57926,14.379976 z m 7.46877,-8.012373 c 5.8174,-3.113381 7.83482,-16.788168 3.68752,-24.99537 -4.10982,-8.133026 -10.72741,-9.09625 -15.35155,-2.234494 -7.9032,11.72757 1.14804,32.857851 11.66403,27.229864 z m 34.85916,-1.108186 c 7.19674,-6.704782 6.42527,-21.46504 -1.30602,-24.987651 -5.24404,-2.389343 -11.58536,3.758974 -12.37727,12.000553 -0.58565,6.094916 0.0633,8.971139 2.8125,12.466238 2.64704,3.365162 7.56487,3.600794 10.87079,0.52086 z"
         id="path982" />
    </g>
  </g>
</svg>
