<?xml version="1.0" encoding="UTF-8" standalone="no"?>
<!-- Created with Inkscape (http://www.inkscape.org/) -->

<svg
   version="1.1"
   id="svg1060"
   width="336.47916"
   height="217.55098"
   viewBox="0 0 336.47916 217.55098"
   sodipodi:docname="ãµ.png"
   xmlns:inkscape="http://www.inkscape.org/namespaces/inkscape"
   xmlns:sodipodi="http://sodipodi.sourceforge.net/DTD/sodipodi-0.dtd"
   xmlns="http://www.w3.org/2000/svg"
   xmlns:svg="http://www.w3.org/2000/svg">
  <defs
     id="defs1064" />
  <sodipodi:namedview
     id="namedview1062"
     pagecolor="#ffffff"
     bordercolor="#000000"
     borderopacity="0.25"
     inkscape:showpageshadow="2"
     inkscape:pageopacity="0.0"
     inkscape:pagecheckerboard="0"
     inkscape:deskcolor="#d1d1d1"
     showgrid="false" />
  <g
     inkscape:groupmode="layer"
     inkscape:label="Image"
     id="g1066"
     transform="translate(-10,-14.449019)">
    <g
       id="g1070">
      <path
         style="fill:#afafaf"
         d="m 165.06058,210.90187 c -3.54169,-0.45218 -9.61669,-1.77458 -13.5,-2.93868 -7.27628,-2.1812 -23.40083,-8.65951 -24.91507,-10.01005 -0.69036,-0.61573 1.94719,-16.53063 2.9512,-17.80748 0.15325,-0.19488 1.76918,0.41521 3.59096,1.35576 12.27192,6.33578 29.21766,11.48327 37.81233,11.486 12.41843,0.004 19.75649,-6.0923 21.80956,-18.11874 l 0.92371,-4.76983 7.10231,8.78704 c 3.77973,4.67631 8.45695,6.68061 8.88972,6.03122 1.07844,-1.61825 0.70305,1.64722 -0.10888,3.74477 -0.46437,1.19967 -2.75136,4.34506 -4.51037,7.07677 -7.69297,11.94706 -22.73406,17.37342 -40.04547,15.16322 z m -90.168033,-16.47599 -3.57412,-3.57412 22.621134,-22.67588 C 106.38119,155.70415 118.9956,142.45327 121.9716,138.72949 l 5.4109,-6.77051 4.26324,4.18406 4.26325,4.18406 -3.13649,4.08645 C 129.01159,149.31354 80.390881,198 79.258418,198 c -0.435463,0 -2.400105,-1.60835 -4.365871,-3.57412 z M 201.73926,176.75 c -8.32466,-9.10718 -7.88661,-4.28082 -8.98686,-15.32863 -0.90738,-9.11117 -4.79704,-16.57835 -13.83281,-25.79245 -5.07937,-5.17963 -8.15048,-6.68172 -8.83772,-7.36741 -0.81336,-0.81152 -5.89818,-5.38599 -4.39342,-4.1856 0.58354,0.46551 4.0416,2.92409 3.5674,2.92409 -0.4742,0 -2.96434,-2.96873 -4.20431,-6.81873 -1.23998,-3.85 -1.59093,-7.18127 -2.10921,-7.18127 -1.36918,0 -1.17719,1.36045 1.001,7.09298 1.74212,4.58487 5.75323,7.94425 0.22362,3.55811 -0.99943,-0.79276 -5.96919,-3.5757 -11.163,-6.04384 -7.55287,-3.58918 -10.96647,-4.06054 -11.91452,-5.22006 -7.47446,-9.14166 2.24157,-0.55735 5.49509,-5.04309 3.25352,-4.48574 1.72819,-8.601219 2.40688,-9.615471 0.67869,-1.014252 1.46215,-1.218712 4.33262,-0.532686 0.68639,0.164042 4.50533,2.259628 8.67598,4.089727 24.35722,10.68803 41.35321,30.10471 48.44778,50.71433 2.11692,6.14963 -1.9255,-0.30652 -4.78534,-4.55918 -2.85984,-4.25266 -5.29737,-8.16644 -5.76923,-7.87482 -0.89382,0.55241 2.00307,5.10734 8.83871,14.07812 l 2.92934,3.89437 -0.0324,13.82994 c -0.0295,12.59254 -1.47497,15.78931 -1.77507,16.20175 -0.70969,0.97534 -3.46414,-5.73268 -8.1145,-10.82018 z M 267,170.72629 c -2.475,-3.41847 -8.04888,-10.71785 -12.3864,-16.22085 -8.22425,-10.43407 -13.00073,-19.97071 8.56466,2.50547 3.90797,4.07302 10.14261,10.10927 13.16761,12.8028 3.025,2.69352 4.89158,2.98827 3.91295,2.26077 -1.52494,-1.13364 -3.64413,0.93887 -5.60259,2.77875 -1.25682,1.18072 -2.48113,2.13365 -2.72068,2.11762 -0.23955,-0.016 -2.46055,-2.82608 -4.93555,-6.24456 z m 7.39115,-9.90938 c -16.5084,-15.07751 -34.60013,-32.92635 -44.56626,-44.36373 -5.03212,-5.775 -10.3305,-7.28624 -9.11553,-6.23849 2.01933,1.7414 5.44092,-1.04014 7.04064,-2.48179 2.08404,-1.87811 7.46153,-3.41089 7.03944,-2.00649 -0.15919,0.52965 6.75645,8.79539 15.36809,18.3683 24.02953,26.7118 35.87814,41.15738 34.81197,42.44204 -0.57595,0.69397 -3.26839,2.22516 -2.53358,2.95997 0.64692,0.64692 -2.13461,0.26235 -2.38211,0.24204 -0.2475,-0.0203 0.11234,-3.64741 -5.66266,-8.92185 z M 133.10618,109.08678 c -1.46964,-0.9306 -4.06558,-7.43167 -4.09112,-10.245492 -0.0207,-2.27684 6.94245,-26.14584 7.92148,-27.154191 0.4341,-0.447097 3.66346,-0.06053 7.17636,0.859028 3.51291,0.919562 6.96197,1.763571 7.66459,1.875576 1.68405,0.268452 1.69464,0.351279 0.71283,5.578299 -0.46489,2.475 -1.12258,6.872669 -1.14822,7.422669 -0.0605,1.298828 -14.79081,22.838481 -15.59139,22.818381 -0.3354,-0.008 -1.87793,-0.66884 -2.64453,-1.15427 z M 190,56.285289 C 176.15726,51.146709 147.13413,36.625102 134.30581,28.418927 l -5.37772,-3.440084 2.69479,-4.739422 c 4.58812,-8.0693 2.82537,-8.279821 25.40502,3.03406 11.25966,5.641822 24.9721,12.027297 30.4721,14.189945 5.5,2.162648 10.33432,4.199921 10.74294,4.527272 0.64333,0.515383 -5.67924,15.141933 -6.45389,14.930355 C 191.63007,56.877632 190.825,56.591538 190,56.285289 Z"
         id="path1074"
         sodipodi:nodetypes="ssssscscsssssscsscccssssssssssssssssssssssscsssssssssssssssssssssssssssccssscsssssss" />
      <path
         style="fill:#0c0c0c"
         d="m 11.2,230.8 c -0.66,-0.66 -1.2,-1.55735 -1.2,-1.99411 0,-0.43675 3.9375,-3.33191 8.75,-6.43368 C 42.657763,206.96312 63.661741,189.44218 91.059903,162.05329 109.14382,143.97549 131,119.30729 131,116.97449 c 0,-0.5466 2.39708,-4.25197 5.32684,-8.23416 2.92975,-3.98218 7.67333,-10.735029 10.54126,-15.006327 l 5.21444,-7.765997 27.15267,0.265997 27.15266,0.265997 5.05607,7.14 c 6.34872,8.96545 18.54283,22.34698 39.05679,42.86 30.61772,30.61631 43.71423,42.35904 77.99927,69.93651 20.67338,16.62881 18.93035,14.86405 16.6866,16.89461 -1.77887,1.60986 -2.07533,1.53876 -5.74566,-1.37806 -2.12851,-1.69152 -5.81995,-3.59703 -8.20321,-4.23445 -2.65122,-0.70909 -3.73242,-1.36969 -2.78545,-1.70187 1.09188,-0.38301 -0.70932,-2.30627 -6.11541,-6.52983 -15.19262,-11.86938 -47.12746,-38.90186 -61.10091,-51.72122 -21.10224,-19.35937 -40.73952,-40.82723 -52.92147,-57.854781 L 202.5,91.783593 l -11,0.603656 c -6.05,0.332011 -16.4758,0.605702 -23.16844,0.608203 L 156.16312,93 l -2.25769,3.75 c -3.54959,5.89585 -18.43456,25.59725 -29.27672,38.75 -5.44056,6.6 -20.42614,22.46716 -33.301301,35.26036 -22.025052,21.88485 -23.644528,23.74663 -27.385874,31.48325 -2.187074,4.52259 -3.772045,8.75569 -3.522159,9.40688 0.431301,1.12396 -2.256018,2.8462 -3.109441,1.99278 -0.222094,-0.2221 1.411445,-4.33292 3.630088,-9.13516 2.218644,-4.80225 3.477265,-8.30443 2.796937,-7.78263 -0.680328,0.5218 -4.962952,3.94703 -9.516943,7.61162 -4.55399,3.6646 -8.720841,6.6629 -9.259667,6.6629 -0.538826,0 -4.237834,2.40525 -8.220017,5.345 C 30.380511,221.03999 13.557609,232 12.710936,232 12.539921,232 11.86,231.46 11.2,230.8 Z m 295.40485,-8.51728 c -1.19265,-0.30539 -1.48114,-0.74114 -0.77826,-1.17555 0.71879,-0.44423 -0.46475,-2.61839 -3.3205,-6.09974 -2.44056,-2.97521 -4.34034,-5.50159 -4.22173,-5.61417 0.1186,-0.11258 6.51564,1.21538 14.21564,2.95102 8.74408,1.97099 12.87373,3.26634 11,3.45037 -1.65,0.16206 -6.79996,-0.61298 -11.44437,-1.7223 -4.6444,-1.10932 -8.60964,-1.85167 -8.81165,-1.64966 -0.20201,0.202 0.909,1.87704 2.46891,3.7223 5.36092,6.34158 5.68585,6.86801 4.15955,6.73901 -0.75484,-0.0638 -2.22526,-0.33438 -3.26759,-0.60128 z M 233,219.88032 c -8.525,-0.45344 -17.3,-0.9834 -19.5,-1.17767 -7.40647,-0.65405 11.87735,-0.50986 25,0.18693 l 13,0.69028 9.10062,-4.44141 9.10063,-4.44141 6.66373,1.80379 c 8.02185,2.17141 8.13951,2.89425 0.2332,1.43269 -6.98399,-1.29106 -10.12226,-0.67564 -18.82322,3.69126 -3.69877,1.85637 -7.29877,3.30879 -8,3.2276 C 249.07373,220.77119 241.525,220.33376 233,219.88032 Z M 87,211.65893 c 0,-0.73759 0.658498,-3.52909 1.463328,-6.20334 0.80483,-2.67425 1.300366,-5.02523 1.101191,-5.2244 -0.199176,-0.19918 -3.094841,1.01732 -6.434812,2.70333 -3.33997,1.68602 -6.873006,3.0427 -7.85119,3.01487 -0.978184,-0.0278 2.20567,-2.08115 7.075231,-4.56292 4.869561,-2.48177 9.090843,-4.27521 9.380626,-3.98543 0.289784,0.28978 -0.206903,3.44808 -1.103748,7.01844 -2.076695,8.26736 -2.117781,8.05402 1.119374,5.81258 C 95.488992,207.64314 97,206.80159 97,207.3081 97,208.00868 89.126557,213 88.02144,213 87.459648,213 87,212.39652 87,211.65893 Z m 155.10611,-25.3671 c -9.22893,-4.60584 -21.5586,-16.04043 -30.93461,-28.68887 -9.02227,-12.17126 -12.30583,-17.40191 -11.31033,-18.01716 0.45423,-0.28073 4.37529,4.76012 8.71347,11.20189 12.10303,17.97183 27.77193,32.53135 38.99698,36.23595 1.88561,0.6223 3.42838,1.54657 3.42838,2.05391 0,1.46045 -1.0356,1.13608 -8.89389,-2.78572 z m -42.03179,-8.26938 C 184.05496,160.15581 173.84784,144.45566 166.40094,126.22749 161.90505,115.22266 161.31988,113 162.91847,113 c 0.50516,0 1.91605,3.0375 3.13532,6.75 6.54533,19.92965 16.65234,36.05376 35.72907,57 5.13434,5.6375 8.66143,10.25 7.83798,10.25 -0.82345,0 -5.11938,-4.0399 -9.54652,-8.97755 z M 134,181.40437 c 0,-0.3276 0.90524,-1.86692 2.01164,-3.42071 3.95154,-5.54943 9.04941,-17.71871 11.11297,-26.52811 2.67243,-11.40865 3.05323,-12.50079 3.58743,-10.28885 0.60772,2.51632 -3.25685,17.74336 -6.20028,24.43013 C 140.12159,175.57027 134,184.77589 134,181.40437 Z m 85.83244,-41.20162 C 216.80115,137.06624 212.72038,132.475 210.76406,130 c -4.62845,-5.85561 -11.05742,-17.62903 -10.50639,-19.24045 0.23689,-0.69275 1.68636,1.21545 3.22104,4.24045 4.29931,8.47432 8.22816,13.8203 16.27563,22.14622 4.06478,4.20543 6.98529,7.89666 6.49002,8.20275 -0.49526,0.3061 -3.38063,-2.00971 -6.41192,-5.14622 z"
         id="path1072" />
    </g>
  </g>
</svg>
