<?xml version="1.0" encoding="UTF-8" standalone="no"?>
<!-- Created with Inkscape (http://www.inkscape.org/) -->

<svg
   version="1.1"
   id="svg1166"
   width="239.96954"
   height="262.93051"
   viewBox="0 0 239.96954 262.93051"
   sodipodi:docname="ã¸.png"
   xmlns:inkscape="http://www.inkscape.org/namespaces/inkscape"
   xmlns:sodipodi="http://sodipodi.sourceforge.net/DTD/sodipodi-0.dtd"
   xmlns="http://www.w3.org/2000/svg"
   xmlns:svg="http://www.w3.org/2000/svg">
  <defs
     id="defs1170" />
  <sodipodi:namedview
     id="namedview1168"
     pagecolor="#ffffff"
     bordercolor="#000000"
     borderopacity="0.25"
     inkscape:showpageshadow="2"
     inkscape:pageopacity="0.0"
     inkscape:pagecheckerboard="0"
     inkscape:deskcolor="#d1d1d1"
     showgrid="false" />
  <g
     inkscape:groupmode="layer"
     inkscape:label="Image"
     id="g1172"
     transform="translate(-11.164409,-15.069497)">
    <g
       id="g1176">
      <path
         style="fill:#adadad"
         d="m 168.32793,83.205586 c -11.09465,-7.538072 -25.49465,-17.826575 -32,-22.863339 C 122.52716,49.657028 96.80792,28.820533 96.80792,27.663784 c 0,-0.439476 7.5102,0.663752 11.56567,-0.438648 l 7.37359,-2.004363 6.4766,6.196143 c 13.05083,12.485696 39.85435,33.249154 62.54194,48.448378 10.07763,6.751361 10.12527,6.967342 4.83859,12.047289 -3.26428,3.136632 -6.18863,5.735944 -5.33899,6.759698 0.61048,0.735579 4.81197,-1.692267 4.60712,-1.716695 -0.20484,-0.02443 -9.44987,-6.211927 -20.54451,-13.75 z M 39.87931,75.183697 C 39.87931,74.181746 32.1,67.495486 31,66.5 29.9,65.504514 29,64.350287 29,63.935051 29,63.519816 35.6375,58.026198 43.75,51.727012 51.8625,45.427826 64.35,35.216122 71.5,29.034337 88.226563,14.572796 91.916274,13.332541 100.65424,16.5 c 3.11461,1.129025 4.48061,1.621902 5.39187,2.108051 8.69067,4.636388 1.60212,0.987211 -5.81405,3.223759 C 76.958533,28.850567 126.98476,3.9176606 73.39986,48.458908 43.220055,73.545191 39.87931,76.338152 39.87931,75.183697 Z"
         id="path1180"
         sodipodi:nodetypes="sssscssssssssssssssss" />
      <path
         style="fill:#070707"
         d="m 234.51604,239.57298 -11.85752,-38.42702 2.2848,-8.64894 c 2.21947,-8.40159 2.2315,-8.68664 0.42075,-9.96744 -1.02524,-0.72518 -11.30508,-8.32749 -22.8441,-16.89402 -11.53901,-8.56652 -21.26734,-15.25152 -21.6185,-14.85553 -0.35117,0.39598 -1.39512,2.74497 -2.3199,5.21997 -2.21502,5.92807 -7.85711,13.57476 -11.86805,16.0847 -4.07649,2.55095 -9.15157,1.93179 -12.62341,-1.54004 -1.95842,-1.95843 -2.25085,-2.78392 -1.31699,-3.71778 0.93386,-0.93386 1.71723,-0.71484 3.52809,0.98636 1.28023,1.20272 3.52053,2.18676 4.97844,2.18676 10.57617,0 22.7346,-30.45678 17.32598,-43.40143 -2.80862,-6.72198 -8.36292,-8.1579 -17.84003,-4.61206 -6.13293,2.29463 -7.59849,2.14534 -14.80902,-1.50851 -7.21276,-3.65498 -38.97326,-16.54421 -41.45658,-16.82415 -1.1,-0.124 -3.8,-1.16391 -6,-2.31091 C 96.3,100.19594 88.875,97.122069 82,94.512118 69.792713,89.877875 69.295101,89.778252 60.75,90.257828 55.9375,90.527919 52,90.403544 52,89.98144 52,88.879448 54.699357,88 58.081787,88 c 5.115396,0 3.160012,-1.403329 -7.13571,-5.121118 L 40.918065,79.257764 39.334703,82.31965 c -2.0507,3.965615 -2.256129,23.16945 -0.36029,33.68035 0.744022,4.125 1.305387,8.31048 1.247479,9.30107 -0.05791,0.99059 -4.969024,9.7473 -10.91359,19.45935 -5.944566,9.71206 -10.940313,17.96011 -11.101659,18.329 -0.161347,0.3689 2.313653,2.13138 5.5,3.91662 8.595221,4.81573 14.873533,9.64503 18.85376,14.50237 4.648346,5.67269 12.646843,26.407 14.993864,38.86823 0.993226,5.27342 2.093522,10.05347 2.445103,10.62234 0.362881,0.58715 13.704367,2.03262 30.86005,3.34349 22.43555,1.71432 30.57566,2.67608 31.59824,3.73336 0.75758,0.78329 3.96783,9.02295 7.13389,18.31035 5.39858,15.83636 5.64635,16.9667 3.98526,18.18132 -0.97417,0.71232 -2.35866,1.06971 -3.07665,0.79419 -0.71799,-0.27552 -3.48675,-6.85591 -6.1528,-14.62309 -2.66605,-7.76718 -5.52236,-14.95122 -6.34736,-15.96454 -1.31025,-1.60934 -5.20099,-2.12716 -30.757489,-4.0935 -26.74744,-2.05797 -29.437957,-2.43156 -31.361064,-4.35467 -1.488205,-1.4882 -2.778974,-5.42712 -4.412343,-13.46473 C 50.199283,216.61252 47.224829,206.325 44.859207,200 40.957723,189.56854 39.997879,187.9425 34.529038,182.5 30.71817,178.70749 25.372728,174.84045 20,171.98932 c -6.402328,-3.39752 -8.580326,-5.0745 -8.825491,-6.79533 -0.216475,-1.51945 3.047178,-7.76898 9.744301,-18.65923 5.538385,-9.00602 10.517086,-17.55106 11.06378,-18.98897 0.653916,-1.71993 0.661794,-5.76735 0.02303,-11.83009 C 30.538076,101.78678 30.788538,88.304372 32.631951,82 c 0.884517,-3.025 1.559334,-6.900338 1.499593,-8.611862 -0.09507,-2.723717 1.79209,-5.044814 15.129918,-18.608896 C 69.631364,34.063799 77.755947,28.83224 100.89904,21.528917 117.45283,16.304997 159.62258,15.4388 176.5,19.976019 c 28.12176,7.560075 48.79962,26.540081 64.42739,59.137261 6.20813,12.949225 7.50194,21.8224 6.45627,44.27816 -0.67063,14.40155 -0.97117,16.0121 -7.10491,38.07311 -3.52256,12.6695 -7.05996,25.28545 -7.86087,28.03545 -3.0352,10.42156 -2.49685,13.45767 9.03901,50.9766 10.0811,32.78754 10.62526,34.99016 8.94738,36.21706 -0.98259,0.71849 -2.29147,1.30634 -2.90862,1.30634 -0.61714,0 -6.45797,-17.29216 -12.97961,-38.42702 z m -0.092,-82.58204 c 2.63064,-10.45499 4.55856,-19.59388 4.28427,-20.30865 -0.27428,-0.71478 -6.05836,-4.60886 -12.85351,-8.65353 C 167.03203,93.015754 128.70169,66.175445 101.75412,41.128901 96.943879,36.658006 92.625046,33 92.156709,33 90.685798,33 74.058749,43.780697 67.640603,48.895828 60.928905,54.244913 50.730372,64.619312 47.135892,69.754127 c -1.713285,2.447477 -1.950493,3.370587 -0.956925,3.723941 32.774366,11.655922 91.622503,34.928572 104.031613,41.141352 7.3466,3.67816 9.11842,4.20599 11.3151,3.37082 C 162.95816,117.44561 166.51522,117 169.43024,117 178.85455,117 183,122.4969 183,134.99363 v 7.05786 l 22.75,16.94302 c 12.5125,9.31866 23.00674,16.95707 23.32054,16.97425 0.3138,0.0172 2.72288,-8.52284 5.35351,-18.97782 z M 240.96488,114 C 240.95815,96.785931 239.74022,90.440728 234.3876,79.73345 221.82215,54.597788 205.20074,37.497299 185.7765,29.721244 171.78113,24.118513 151.8158,22.017208 129.79906,23.829749 117.43932,24.847272 101,28.390327 101,30.036616 c 0,1.097535 21.83134,19.848439 35.5,30.49089 24.72825,19.25348 102.13521,68.644434 103.70683,66.172084 0.4194,-0.65978 0.76052,-6.37459 0.75805,-12.69959 z M 60.531494,142.22148 c -0.355273,-0.92583 -0.198256,-1.83256 0.348928,-2.01495 0.574417,-0.19148 0.138816,-2.31267 -1.030699,-5.01908 C 57.867872,130.60119 57.778742,126.11661 59.552847,120.25 60.062726,118.56393 59.828076,118 58.616631,118 57.69313,118 57,117.18264 57,116.09362 c 0,-1.31125 0.546314,-1.77337 1.75,-1.48031 0.9625,0.23434 10.453092,2.40781 21.090205,4.82992 10.637113,2.42212 19.503174,4.56682 19.702358,4.766 0.199184,0.19918 -8.351483,4.71217 -19.001482,10.02886 -16.514153,8.24419 -19.458691,9.419 -20.009587,7.98339 z M 88.716434,125.3831 C 88.324823,124.99149 63.539685,119 62.311308,119 62.140089,119 62,119.45 62,120 c 0,0.55 0.9,1 2,1 2.976958,0 6,3.56001 6,7.06574 C 70,132.74916 68.365593,135 64.964816,135 c -3.197688,0 -3.261304,0.0638 -2.372779,2.37925 0.482974,1.25861 2.989468,0.34147 13.606263,-4.97862 7.157824,-3.58679 12.790985,-6.74468 12.518134,-7.01753 z"
         id="path1178" />
    </g>
  </g>
</svg>
