<?xml version="1.0" encoding="UTF-8" standalone="no"?>
<!-- Created with Inkscape (http://www.inkscape.org/) -->

<svg
   version="1.1"
   id="svg1256"
   width="243.10226"
   height="253.15002"
   viewBox="0 0 243.10226 253.15002"
   sodipodi:docname="ã».png"
   xmlns:inkscape="http://www.inkscape.org/namespaces/inkscape"
   xmlns:sodipodi="http://sodipodi.sourceforge.net/DTD/sodipodi-0.dtd"
   xmlns="http://www.w3.org/2000/svg"
   xmlns:svg="http://www.w3.org/2000/svg">
  <defs
     id="defs1260" />
  <sodipodi:namedview
     id="namedview1258"
     pagecolor="#ffffff"
     bordercolor="#000000"
     borderopacity="0.25"
     inkscape:showpageshadow="2"
     inkscape:pageopacity="0.0"
     inkscape:pagecheckerboard="0"
     inkscape:deskcolor="#d1d1d1"
     showgrid="false" />
  <g
     inkscape:groupmode="layer"
     inkscape:label="Image"
     id="g1262"
     transform="translate(-14.931328,-9.8552847)">
    <g
       id="g1266">
      <path
         style="fill:#b0b0b0"
         d="m 22.152833,170.57697 c -1.019432,-46.16563 1.658014,-89.173348 1.426828,-95.171407 -0.266122,-6.904432 -3.858267,19.24002 -2.995074,15.836854 L 24.577556,75.5 25.400069,71.75 C 25.852451,69.6875 26.686485,68 27.253478,68 c 2.019124,0 14.675016,4.075283 15.176681,4.886994 0.280868,0.454455 -0.379129,3.928295 -1.46666,7.719644 -2.698755,9.408396 -6.557019,29.498822 -8.542215,44.480292 -2.237321,16.88416 -3.051912,64.46022 -1.462432,85.41307 1.065737,14.04876 3.905355,36.44376 5.118434,40.36716 0.232493,0.75194 -0.252286,1.48905 -1.077286,1.63803 -0.825,0.14897 -3.6375,0.59734 -6.25,0.99638 L 24,254.22709 Z m 75.012843,78.95136 c -26.308447,-5.96881 -35.069318,-35.23965 -15.660704,-52.32379 7.487602,-6.59085 14.461264,-8.38917 34.754998,-8.96238 16.46282,-0.46501 14.88352,-0.51407 15.44909,-2.76747 0.31667,-1.26174 -0.30095,-12.2387 -0.48561,-21.55521 -0.26138,-13.18749 0.20398,-15.45078 -0.95966,-16.85095 -1.62237,-1.95212 4.41504,-1.53037 -48.985533,0.59629 -18.27915,0.72797 -16.741761,1.4188 -17.708488,-7.95735 -0.570953,-5.5376 -0.510394,-5.74606 1.375949,-4.73652 1.344762,0.71969 24.098768,0.9721 71.445082,0.79253 l 70.19754,-5.27037 -0.30551,7.2054 c -0.10525,2.48226 -0.91469,4.37569 -2.65469,3.72022 -2.57092,-0.96848 -50.59492,2.30881 -52.09677,3.55524 C 150.23485,146.04998 150,149.88803 150,170 c 0,17.83398 0.31157,23.9904 1.25,24.69906 0.6875,0.51917 4.85,2.41074 9.25,4.20348 14.69038,5.98548 43.28338,22.51674 47.28467,27.338 0.87727,1.05705 0.25484,2.68241 -2.77358,7.24276 -2.53099,3.81512 -4.18378,6.65939 -6.40064,5.45458 C 196.82737,236.08271 178.71149,224.7527 169,220.19322 c -9.00907,-4.22971 -16.99869,-6.55609 -18.26146,-5.3173 -0.41881,0.41085 -1.68583,4.09435 -2.8156,8.18554 -3.77035,13.65336 -10.74594,21.22576 -23.09275,25.06852 -8.23566,2.56323 -19.92567,3.15412 -27.664514,1.39835 z m 8.183114,-8.75098 c 2.24445,-0.67245 4.15077,-3.51921 6.55663,-5.82443 2.40587,-2.30522 7.54075,-3.3985 8.88005,-4.02473 C 126.70775,228.15904 132,219.86428 132,211.09236 c 0,-3.73255 -1.10172,-7.68836 -9.22834,-7.33146 -5.89723,0.259 -9.95531,1.64276 -13.16812,-0.60739 C 94.331085,192.45719 76.388208,201.62053 76.619184,220 c 0.188936,15.03416 14.16433,25.14122 28.729606,20.77735 z M 93,233.29377 c -4.832192,-1.76643 -9.564412,-8.85866 -9.564412,-14.66064 0,-7.59096 8.401801,-14.21959 15.780014,-13.40025 2.757638,0.30623 5.529148,-0.5373 1.284398,1.13893 -9.043144,3.5711 -11.9,6.38275 -11.9,12.06795 0,7.41325 5.929459,12.3797 12.86016,13.56024 1.80739,0.30786 6.23417,0.9631 6.23417,1.5131 0,1.03609 -12.05302,0.74622 -14.69433,-0.21933 z M 15.509666,222.97352 c -1.051362,-14.55667 -0.503323,-79.17124 0.328507,-90.68115 4.279431,-59.213874 2.799157,11.15477 2.898934,45.02094 0.07494,25.4375 -0.88593,66.55322 -1.106678,66.55322 -0.220743,0 -1.654006,-14.43051 -2.120763,-20.89301 z M 129.82861,124 c -0.0307,-6.4809 0.17862,-21.1626 2.81469,-21.1626 2.55098,0 2.35244,16.85809 2.30425,13.4126 -0.0517,-3.69998 3.40965,-3.9014 1.86108,-1.68141 -2.28455,3.27503 -5.95118,-1.01153 -6.00561,-8.75647 -0.0196,-2.79014 3.32081,-3.48201 1.45629,-8.423545 -0.63879,-1.692972 -0.90392,15.534515 -0.24649,12.866325 2.31842,-9.40931 4.41064,-11.980051 -2.5472,-15.44906 -3.6976,-1.843531 -4.28408,-1.725902 -18.65349,-0.854061 -40.377967,2.449872 -40.472246,2.449568 -41.163782,-0.132747 -0.341566,-1.275468 -0.7723,-5.283439 -0.77981,-6.245939 -0.01287,-1.649568 6.518798,-1.017764 66.138892,-0.909365 59.99862,0.109088 73.59527,0.887648 40.25,2.304761 -19.22862,0.817182 -27.35894,2.233738 -27.35894,3.360045 -0.61771,7.969746 3.8697,0.154999 -0.91031,6.049644 9.35651,-5.156262 0.41022,-2.615211 -5.70322,-2.868453 l -0.61165,3.116091 c -0.89388,4.553924 -0.0931,5.608414 1.27397,2.012874 C 142.54455,99.067719 143.71766,98 144.84642,98 c 1.52097,0 3.26294,-6.615869 3.69544,4.74206 0.70199,18.43499 -2.97974,18.76144 -3.14497,19.31144 -1.85597,6.17812 0.37482,-4.09078 0.94921,-2.59396 0.4936,1.28629 -1.12077,-7.07747 1.93562,0.72161 0.46614,1.18947 0.0897,-3.22344 0.31873,2.27166 l 0.18948,4.54719 4.85503,-0.002 c 7.07552,-0.003 42.37722,-1.93577 45.60504,-2.47404 4.48112,-0.74727 4.70922,1.49492 4.70922,3.09765 0,1.92999 -2.77734,0.3786 -37.85418,0.3786 l -36.33035,0.94333 c 0.079,-1.38453 -0.0807,-0.93231 0.0539,-4.94354 z M 251.46458,98.512806 c 0.032,-15.367155 0.20231,-17.019249 1.78542,-17.323324 1.62046,-0.31125 1.73336,0.983173 1.52522,17.487194 L 254.55044,116.5 254.25161,99.25 C 254.07743,89.195807 253.55532,82 253,82 c -0.55348,0 -1.08228,7.019751 -1.2618,16.75 l -0.30903,16.75 0.0354,-16.987194 z M 71.5,79.02711 c 0.892436,-0.791042 15.400989,-1.351733 31.77998,-1.980205 16.37898,-0.628472 40.67898,-1.76952 54,-2.535661 13.32101,-0.766141 26.63717,-1.508551 29.59146,-1.6498 l 5.37144,-0.256816 0.2245,3.697686 0.29706,5.584339 -61.95875,0.0049 C 96.710152,81.894223 63.281701,86.311687 71.5,79.02711 Z"
         id="path1270"
         sodipodi:nodetypes="ssscssssssssscssssssssssscsssssssccsssssssssssssssssssssssssssscsssssssssscccsssscsssccsssccssscsssccssssscccsss" />
      <path
         style="fill:#070707"
         d="m 252.2,261.8 c -0.78075,-0.78075 -1.2023,-4.88594 -1.20659,-11.75 -0.006,-8.84624 -0.32745,-11.03448 -1.99341,-13.55 -1.78687,-2.69808 -1.98682,-4.71089 -1.98682,-20 0,-15.28911 0.19995,-17.30192 1.98682,-20 1.89004,-2.85387 1.98714,-4.75916 1.99341,-39.11514 0.006,-34.60629 -0.077,-36.22137 -1.99341,-38.65773 -1.82603,-2.32143 -1.99943,-4.05107 -1.99341,-19.884859 C 247.01253,83.218156 247.21002,81.20278 249,78.5 c 1.86793,-2.820486 1.98722,-4.743857 1.99341,-32.143011 0.006,-25.656047 -0.18267,-29.215638 -1.5752,-29.75 -2.01505,-0.773249 -222.741493,-0.8039 -224.75509,-0.03121 -1.326786,0.509135 -1.433746,14.340636 -0.924102,119.500001 L 24.315372,255 h -2.535241 c -5.570593,0 -5.303467,6.56584 -4.99776,-122.84271 0.199418,-84.415519 0.602605,-119.916232 1.372445,-120.843831 1.609179,-1.9389427 236.074634,-1.9468399 237.683724,-0.008 1.08325,1.30524 2.22622,47.724686 2.16541,87.944547 -0.0464,30.693694 -0.0311,96.345364 0.0272,117.000004 0.0299,10.5875 -0.2179,24.86266 -0.55067,31.72259 -0.67258,13.86471 -1.93566,17.17222 -5.28048,13.8274 z m 2.8,-45.3 c 0,-14.88889 -0.22381,-17.5 -1.5,-17.5 -1.27619,0 -1.5,2.61111 -1.5,17.5 0,14.88889 0.22381,17.5 1.5,17.5 1.27619,0 1.5,-2.61111 1.5,-17.5 z m 0,-118.073324 c 0,-16.197882 -0.13697,-17.547016 -1.75,-17.237194 -1.57308,0.302149 -1.77766,2.078731 -2.02361,17.573324 C 250.96086,115.49052 251.01258,116 252.97639,116 254.9311,116 255,115.40169 255,98.426676 Z M 91.238879,240.66513 C 78.81103,236.15792 73.038375,221.70825 78.877401,209.72281 c 7.731795,-15.87061 30.943459,-16.02778 39.055559,-0.26445 9.11014,17.70274 -8.18357,37.91999 -26.694081,31.20677 z m 14.714241,-8.14089 c 7.56036,-3.90961 9.48785,-16.3232 3.5043,-22.56869 C 100.20956,200.30287 84,206.38012 84,219.5 c 0,5.51094 4.278036,12.06763 9,13.79377 2.999867,1.09662 10.16788,0.67078 12.95312,-0.76953 z M 64.44113,134.58092 C 62.614298,133.2454 62.5,131.7686 62.5,109.50038 V 85.838921 l 3.33043,-2.977228 3.330429,-2.977228 66.669571,0.307768 c 71.79913,0.331447 70.40623,0.22323 71.90776,5.586632 C 208.15719,87.275489 208.5,97.725 208.5,109 c 0,17.7499 -0.23821,20.93599 -1.77568,23.75 l -1.77568,3.25 h -69.28319 c -58.250621,0 -69.592294,-0.22597 -71.22432,-1.41908 z M 202,108 V 88 H 135.5 69 v 20 20 h 66.5 66.5 z m -55.34201,12.32466 c -1.54882,-1.54882 -0.39732,-6.46949 3.30604,-14.12756 L 153.92805,98 h -5.48877 c -5.0115,0 -5.57602,0.229451 -6.49201,2.63869 -1.35879,3.57389 -2.01885,2.57724 -1.28561,-1.941201 L 141.26168,95 h 7.36916 C 152.68388,95 156,95.169006 156,95.37557 c 0,0.206563 -1.17385,3.019063 -2.60856,6.25 -1.4347,3.23094 -2.84688,8.45844 -3.13818,11.61667 -0.4976,5.39494 -2.1088,8.56889 -3.59527,7.08242 z m -25.49202,-4.3424 C 129.59663,105.82271 131,103.70211 131,101.12226 131,99.625017 130.46,97.86 129.8,97.2 c -1.68372,-1.683723 -6.31026,-1.49503 -7.81557,0.318758 -1.032,1.243482 -0.9316,1.88214 0.55393,3.523632 1.39715,1.54383 1.54222,2.27703 0.63087,3.18838 -0.91135,0.91135 -1.55663,0.8104 -2.80602,-0.43899 -4.36288,-4.362874 3.48163,-11.34133 9.80469,-8.722234 6.89493,2.855974 6.08523,8.099854 -2.48791,16.112444 l -6.17999,5.77591 5.12803,0.0211 c 4.20003,0.0172 5.41205,-0.38612 6.69755,-2.22895 1.54858,-2.21999 1.57022,-2.19998 1.62197,1.5 L 135,120 h -8.58403 -8.58403 z"
         id="path1268" />
    </g>
  </g>
</svg>
