<?xml version="1.0" encoding="UTF-8" standalone="no"?>
<!-- Created with Inkscape (http://www.inkscape.org/) -->

<svg
   version="1.1"
   id="svg254"
   width="122.57401"
   height="307.90222"
   viewBox="0 0 122.57401 307.90222"
   sodipodi:docname="ã¿.png"
   xmlns:inkscape="http://www.inkscape.org/namespaces/inkscape"
   xmlns:sodipodi="http://sodipodi.sourceforge.net/DTD/sodipodi-0.dtd"
   xmlns="http://www.w3.org/2000/svg"
   xmlns:svg="http://www.w3.org/2000/svg">
  <defs
     id="defs258" />
  <sodipodi:namedview
     id="namedview256"
     pagecolor="#ffffff"
     bordercolor="#000000"
     borderopacity="0.25"
     inkscape:showpageshadow="2"
     inkscape:pageopacity="0.0"
     inkscape:pagecheckerboard="0"
     inkscape:deskcolor="#d1d1d1"
     showgrid="false" />
  <g
     inkscape:groupmode="layer"
     inkscape:label="Image"
     id="g260"
     transform="translate(-8.3849926,-9.6751766)">
    <g
       id="g264">
      <path
         style="fill:#aeaeae"
         d="m 67.656461,203.56055 c -0.620489,-0.88302 0.810016,-3.41727 3.441586,-6.40262 5.953318,-6.75367 -2.12288,9.49498 -3.804301,6.00191 -0.568519,-1.18107 18.600594,-32.08044 19.693676,-34.6305 l 2.768672,-5.41771 -3.951338,-2.00894 c -3.976629,-2.0218 -3.171603,-0.65718 -2.958342,-1.72272 0.430424,-2.15058 -0.656725,-2.74404 -9.501037,-4.87786 l -7.154624,-1.72616 1.327001,-3.13797 c 1.573348,-3.72052 -6.608056,-6.63725 14.93837,0.41581 4.915495,1.60905 9.12174,2.70168 9.324161,2.49926 0.742816,-0.74282 5.199034,-24.15685 5.20921,-27.37044 0.0091,-2.86256 0.285252,-3.23018 2.014452,-2.68136 1.102173,0.34982 7.396143,0.14355 7.227683,1.39802 -1.039,7.73727 0.40729,4.92697 -3.9846,5.29054 L 98.5,129.5 l -0.771222,6.98449 c -1.744891,15.80242 -7.865,34.49455 -16.787826,51.27362 -8.606895,16.18497 -10.700127,19.48027 -13.284491,15.80244 z M 21.75,187.9199 c -1.282161,-0.74679 -1.741871,-2.27585 -1.719591,-5.71959 0.02381,-3.6796 0.251754,-4.32028 1.04969,-2.95031 0.626285,1.07527 2.222899,1.75 4.141008,1.75 C 29.2153,181 35.265511,174.83363 39.5,166.44697 l 3,-5.94168 5.930128,-0.73918 c 3.261571,-0.40655 6.180788,-0.48853 6.487148,-0.18217 1.131684,1.13169 -6.069494,15.50591 -11.317736,21.2111 -7.921579,8.61128 -16.402954,10.29721 -21.84954,7.12486 z M 10.210565,179.5628 C 3.1878142,168.51948 17.440609,151.23787 35.644345,146.57415 39.023734,145.70837 43.34149,145 45.239357,145 c 2.025275,0 4.095201,-0.72289 5.01099,-1.75 2.052889,-2.30245 6.181143,-14.04865 6.749653,-16.79668 0.610479,-2.95089 0.76278,-3.04099 1.423743,-6.23718 0.476617,-2.30475 1.120558,-4.36196 0.75,-4.76119 -0.370559,-0.39922 0.360297,-0.18754 1.624125,0.4704 1.263827,0.65794 3.106598,2.34534 3.68467,3.8244 1.564768,4.00363 0.01848,14.80414 -3.040994,24.06115 L 58.735017,152 H 52.91673 c -12.368644,0 -23.137493,3.96331 -30.746935,11.31594 -4.756111,4.59559 -6.875021,7.94241 -9.207933,14.54391 l -0.677384,4.96419 z M 115,173.84015 c -3.575,-1.82279 -8.37712,-3.57803 -11,-4.71707 -8.950695,-3.88704 -6.92003,-3.00758 -8.099611,-1.55718 -1.268864,1.56019 -0.09834,0.11768 0.603288,-1.71523 0.421076,-1.1 2.793879,-1.72567 4.059413,-5.85067 1.2917,-4.21029 -1.705527,-6.9226 -1.65878,-5.51917 0.12705,3.81358 3.70855,4.20091 14.72069,9.71626 5.6375,2.8235 11.375,6.44219 11.375,7.20124 0,0.75906 -0.7875,2.2803 -1.75,3.38055 -1.73993,1.98893 -1.78742,2.35637 -8.25,-0.93873 z M 30.836422,116.43089 c -0.205124,-0.49676 -0.643337,-2.11786 -1.421527,-3.98033 -2.348388,-5.62049 -2.062315,-5.95255 6.335105,-7.3535 4.2625,-0.71111 13.981608,-2.85476 21.598017,-4.76365 7.616409,-1.908889 13.929754,-3.327317 14.029655,-3.15206 2.935529,5.14983 3.618766,8.30545 2.529931,11.68481 -2.369334,7.35358 -3.18433,16.24388 -6.58181,12.37436 -6.634006,-7.55572 -19.372387,-15.46536 -33.567158,-6.62397 -2.342249,1.4589 -2.863192,1.95728 -2.922213,1.81434 z"
         id="path268"
         sodipodi:nodetypes="sssscssscssscssscsssssssscsssssssssssssscssscssssssssssssssssssss" />
      <path
         style="fill:#050505"
         d="m 68.327957,316.09599 c -11.750306,-5.43123 -10.729611,-20.13061 2.21962,-31.96548 7.153588,-6.53797 14.236478,-9.21496 26.146601,-9.88215 7.201472,-0.40341 9.336902,-0.86542 9.852692,-2.1317 2.51083,-6.16413 4.6214,-13.41025 5.49039,-18.8499 2.12147,-13.27985 -2.45656,-18.83393 -13.489054,-16.36496 -3.039435,0.68019 -7.965637,2.53845 -10.947116,4.12946 l -5.42087,2.89274 -1.59011,-2.42682 C 79.71555,240.16243 79,238.68057 79,238.20416 79,236.02959 96.573754,230 102.91171,230 c 8.59067,0 15.11435,6.26911 15.85824,15.23939 0.37606,4.53479 -1.78826,18.17317 -4.34316,27.36831 -0.52402,1.88598 0.22383,2.35607 7.10908,4.46865 7.8515,2.40905 9.58449,3.86877 7.53081,6.3433 -0.84286,1.01559 -2.02733,1.1687 -4.36187,0.56384 -7.0936,-1.83789 -13.63387,-2.19739 -15.00207,-0.82462 -0.73516,0.73762 -3.04453,4.59367 -5.13193,8.56899 C 97.674809,304.86084 85.503335,315.80948 76,317.42823 c -2.392039,0.40744 -4.820704,-0.0143 -7.672043,-1.33224 z m 12.461881,-7.04113 c 7.308786,-3.8318 13.790785,-11.31913 19.373302,-22.37805 l 3.01982,-5.98222 -7.085708,0.59404 c -12.727806,1.06705 -23.805892,7.98312 -27.694422,17.28969 -4.230129,10.12412 2.385974,15.71981 12.387008,10.47654 z M 20.24086,302.06395 c -4.064258,-2.55102 -7.235272,-7.62472 -7.227353,-11.56395 0.0092,-4.58361 4.356112,-12.92225 9.328277,-17.89442 7.517031,-7.51703 17.746773,-11.5713 29.253228,-11.59371 4.535017,-0.009 6.492992,-0.45978 7.649944,-1.76187 5.098799,-5.73845 7.959569,-30.94496 3.926303,-34.59501 -3.21688,-2.91124 -14.415417,-2.24753 -21.911317,1.29863 -5.976065,2.82716 -6.282785,2.87221 -7.25,1.06496 C 33.454474,225.98068 33,224.85472 33,224.51645 c 0,-0.33827 3.4652,-2.26065 7.700444,-4.27196 6.789386,-3.22426 8.631724,-3.6621 15.571817,-3.7007 7.794825,-0.0434 7.90382,-0.008 11.20765,3.59124 2.826884,3.08002 3.445738,4.65717 4.053201,10.32957 0.873274,8.15451 0.278921,12.9021 -2.847903,22.74853 l -2.40048,7.55916 8.356534,2.20757 c 4.596094,1.21416 8.576641,2.5637 8.84566,2.99898 0.269019,0.43528 0.01275,2.15795 -0.569482,3.82815 l -1.058608,3.03672 -5.235035,-1.80112 c -2.879269,-0.99061 -7.036538,-2.10548 -9.238376,-2.47747 l -4.003343,-0.67636 -4.34069,8.75987 c -3.394691,6.85077 -5.888124,10.24298 -11.44104,15.56503 -11.173337,10.7088 -20.590201,14.09917 -27.359489,9.85029 z m 17.002356,-8.98693 c 2.516621,-1.8073 6.400489,-5.74906 8.630819,-8.75946 4.67173,-6.30571 9.694612,-16.08225 8.748593,-17.02826 -1.101556,-1.10156 -15.459122,1.58664 -19.50893,3.6527 -11.349858,5.79026 -18.845579,18.85643 -14.098672,24.57611 2.338289,2.81746 10.6459,1.56781 16.22819,-2.44109 z m 32.385606,-79.93467 c -2.274763,-2.51359 -2.147978,-3.02975 2.514602,-10.23731 13.921175,-21.5198 23.322306,-45.92549 25.585354,-66.42055 L 98.5,129.5 l 3.75,-0.31037 c 3.06959,-0.25405 3.74812,0.0181 3.73965,1.5 -0.0188,3.28746 -3.93744,24.32224 -5.61105,30.11941 -2.994106,10.37123 -19.781664,42.19649 -27.383165,51.91205 -1.666492,2.12996 -1.804618,2.14724 -3.366613,0.42126 z M 20.015228,193.80873 C 15.246032,190.5681 11.799129,184.41584 12.406633,180.2284 13.632916,171.77581 22.151227,161.26647 31.5,156.67225 37.641903,153.65397 45.22847,152 52.931121,152 h 5.832678 l 2.868101,-8.75 c 2.169054,-6.61735 2.8681,-10.65993 2.8681,-16.5862 0,-7.1494 -0.21911,-8.01451 -2.5,-9.87073 -2.189075,-1.7815 -3.402887,-1.95882 -9.759692,-1.42574 -4.77042,0.40005 -8.938369,1.45945 -12.155372,3.08963 l -4.895679,2.48083 -1.594629,-2.43371 C 32.717583,117.16554 32,115.89131 32,115.67246 c 0,-0.21885 2.812753,-1.78262 6.250561,-3.47505 12.114602,-5.964 21.898658,-6.46706 27.88066,-1.43354 C 70.388144,114.34583 72,118.68183 72,126.55127 c 0,6.15847 -2.990341,20.69365 -5.04852,24.53939 -0.779235,1.45601 0.123626,1.92881 6.592199,3.45214 9.698531,2.28397 11.265876,3.385 9.702631,6.81595 -1.143537,2.50979 -1.276948,2.54172 -5.053208,1.20938 -2.133265,-0.75266 -6.513387,-1.52589 -9.733606,-1.7183 L 62.604553,160.5 57.91959,169 c -11.36648,20.62238 -28.022116,31.52364 -37.904362,24.80873 z m 13.781454,-6.705 C 38.977347,184.46075 46.941392,175.73222 51.314903,167.9039 53.341706,164.27605 55,160.77305 55,160.11946 55,158.7017 47.228818,159.42009 39.436199,161.55821 28.988348,164.42488 20,174.17705 20,182.64609 c 0,2.99697 0.517268,4.55581 1.75,5.27381 2.757102,1.60587 7.994653,1.25102 12.046682,-0.81617 z M 85.897883,108.74896 C 81.3073,105.70778 77.32781,97.574568 76.458479,89.45688 75.829837,83.586705 77.00601,70.753872 78.538765,66.759577 79.196455,65.045664 76.030756,63.677165 67.930581,62.173769 l -4.569418,-0.848086 -4.861722,9.587159 C 50.529301,86.629702 37.441927,98.082662 27.571861,97.978038 23.672923,97.936709 17.070307,94.163829 15.024398,90.808142 12.31543,86.364911 12.479137,81.437924 15.539815,75.295944 21.772114,62.789349 37.301986,54.044563 53.38649,53.984687 c 2.26243,-0.0084 4.680932,-0.375521 5.374447,-0.815776 2.724754,-1.729719 5.571069,-12.51841 6.017702,-22.80954 0.40382,-9.304637 0.266206,-10.314526 -1.669268,-12.25 -3.371542,-3.371542 -12.822672,-2.953037 -21.033683,0.931391 -5.599795,2.649126 -6.609642,2.853856 -7.868325,1.595173 -1.952624,-1.952624 -0.952235,-3.224788 4.846605,-6.163283 7.885509,-3.995889 15.570465,-5.6508699 20.311693,-4.37419 6.979911,1.879495 12.593618,9.611945 12.633399,17.401538 0.01606,3.144854 -3.120151,18.609118 -4.605004,22.706696 -1.534255,4.233907 -1.327907,4.459903 5.278602,5.781212 2.655038,0.531011 5.839842,1.253448 7.077342,1.605415 1.669377,0.4748 2.25,0.22276 2.25,-0.976692 C 82,55.727484 82.36033,55 82.800734,55 c 0.440404,0 1.736186,-1.9125 2.879516,-4.25 6.047382,-12.363676 17.73436,-23.325284 26.05931,-24.441894 4.87021,-0.653232 11.1334,2.300373 14.29589,6.741678 7.26482,10.2025 6.3995,31.737536 -1.99623,49.679774 C 113.9014,104.39474 96.866646,116.01558 85.897883,108.74896 Z m 16.312277,-7.66728 C 120.12504,89.720393 131.4208,49.160999 120.33813,35.990001 118.26938,33.53143 117.06487,33 113.56114,33 99.901691,33 84.01188,59.815927 83.637308,83.5 c -0.281761,17.81561 7.134232,24.83583 18.572852,17.58168 z M 34.631764,88.037915 C 40.901072,84.442161 46.842859,77.683334 51.496836,68.853767 53.423576,65.198338 55,61.875373 55,61.469399 55,59.7753 41.135523,61.793401 35.905885,64.248722 23.222177,70.203735 15.49681,83.935119 21.908985,89.127384 c 3.242741,2.625812 6.771992,2.323598 12.722779,-1.089469 z"
         id="path266" />
    </g>
  </g>
</svg>
