<?xml version="1.0" encoding="UTF-8" standalone="no"?>
<!-- Created with Inkscape (http://www.inkscape.org/) -->

<svg
   version="1.1"
   id="svg483"
   width="391.12506"
   height="334.08255"
   viewBox="0 0 391.12506 334.08255"
   sodipodi:docname="む.png"
   xmlns:inkscape="http://www.inkscape.org/namespaces/inkscape"
   xmlns:sodipodi="http://sodipodi.sourceforge.net/DTD/sodipodi-0.dtd"
   xmlns="http://www.w3.org/2000/svg"
   xmlns:svg="http://www.w3.org/2000/svg">
  <defs
     id="defs487" />
  <sodipodi:namedview
     id="namedview485"
     pagecolor="#ffffff"
     bordercolor="#000000"
     borderopacity="0.25"
     inkscape:showpageshadow="2"
     inkscape:pageopacity="0.0"
     inkscape:pagecheckerboard="0"
     inkscape:deskcolor="#d1d1d1"
     showgrid="false" />
  <g
     inkscape:groupmode="layer"
     inkscape:label="Image"
     id="g489"
     transform="translate(-8.6850433,-10.152046)">
    <g
       id="g493">
      <path
         style="fill:#afafaf"
         d="m 185.97777,312.0249 c -11.93125,-1.5402 -21.06681,-6.37729 -24.40767,-12.92334 -0.73026,-1.43086 -1.86815,-5.75156 -2.52865,-9.60156 -1.10092,-6.4172 -0.90694,-9.03979 2.32989,-31.5 3.71829,-25.80095 5.15014,-41.85742 6.15159,-68.9824 0.33469,-9.06531 0.69145,-16.54312 0.7928,-16.61734 0.10135,-0.0742 1.93,-0.45095 4.06366,-0.83719 l 3.87939,-0.70224 -0.57986,28.31958 c -0.3834,18.72528 -1.0911,31.02989 -2.0889,36.31959 -0.82998,4.4 -2.21451,11.6 -3.07673,16 -1.74568,8.90841 -3.16943,35.7496 -2.1184,39.93723 0.96769,3.8556 6.19801,5.70835 17.38198,6.15727 7.57185,0.30394 10.96667,-0.23563 14.38561,1.72544 7.04266,4.03959 7.46475,5.18813 8.67627,1.71278 1.0208,-2.92826 -6.98124,-3.17226 7.13398,-3.03272 12.95709,0.12809 6.15733,0.21188 7.02727,2.5 0.52277,1.375 1.2016,2.5 1.50849,2.5 0.3069,0 2.84931,-1.16109 5.6498,-2.58021 3.33679,-1.69088 -5.75017,-2.38919 10.71675,-2.81707 18.76246,-3.49409 12.69941,-13.41499 13.93189,-21.71329 -0.4125,0.24822 -0.40153,-5.31887 -0.51715,-9.24713 -0.11563,-3.92827 -1.04086,-10.34896 -2.05607,-14.2682 l -1.84585,-7.1259 4.11242,-0.94106 6.36184,-0.94105 5.43118,29.63038 c 1.69687,9.25747 -7.0264,28.66766 -18.4657,35.36008 -5.33515,3.12126 -15.3581,4.77251 -23.3276,3.84314 -3.3,-0.38483 -9.375,-0.42101 -13.5,-0.0804 -9.86027,0.81419 -18.22838,0.78262 -25.02223,-0.0944 z m 69.37885,-2.40443 c 10.97816,-6.14909 14.01567,-25.30276 12.10847,-48.55231 -0.65421,-7.975 -1.40914,-15.6247 -1.67763,-16.91603 -0.32199,-1.5486 -0.11158,-1.56344 1.33155,-1.94579 0.67599,-0.1791 1.31956,1.05268 1.45805,1.84787 0.13849,0.79518 1.21406,5.27079 2.39014,9.94579 2.67023,10.61426 3.76032,30.24872 2.11669,38.12514 -1.56252,7.48769 -5.99713,14.2297 -11.76619,17.88834 -6.50275,4.12391 -13.83518,4.01744 -5.96108,-0.39301 z M 124.38345,272.47554 c -2.41107,-0.71091 -8.09215,-4.18424 -10.39696,-6.48905 -18.249705,-18.2497 -10.0962,-54.94089 14.93794,-67.22153 5.98868,-2.93778 19.32267,-3.72278 23.81095,-1.4018 1.65608,0.85639 3.34842,1.23752 3.76076,0.84696 0.41233,-0.39057 -0.17969,1.13364 -1.31561,3.38713 -2.4085,4.77806 -4.10057,5.97011 -14.0679,9.91072 -8.86555,3.50501 -12.10397,6.53902 -16.68128,15.62836 -8.98285,17.83754 -7.1075,38.35827 4.38116,43.91759 6.87409,3.32634 5.87248,4.45907 -4.42906,1.42162 z m 13.64595,-2.83571 c -4.562,-2.52803 -9.2442,-5.46276 -10.63613,-7.53771 -2.79005,-4.15912 -5.61821,-7.19381 -3.11963,-6.08432 0.9625,0.42739 7.12652,1.51518 9.44893,1.75081 5.79582,0.58803 10.50171,-2.50094 15.43266,-10.13008 7.27012,-11.24828 8.86257,-23.73274 3.73843,-29.30834 -1.69606,-1.84548 -3.46456,-3.31655 -2.55268,-3.64141 0.70782,-0.25216 4.06629,-1.00204 5.69597,-2.37332 L 159,209.82221 v 2.61734 c 0,5.11798 -3.0831,32.25556 -5.06146,44.55128 -1.79494,11.15569 -2.29991,12.72847 -4.72415,14.71404 -1.49292,1.22276 -2.93939,2.18981 -3.21439,2.149 -0.275,-0.0408 -3.86177,-1.93714 -7.9706,-4.21404 z M 297,212.01782 c -1.49417,-1.35115 -17.51147,-15.04636 -20.07203,-17.11251 -0.64225,-0.51824 -5.45297,-3.7558 -7.92797,-5.94455 l -4.5,-3.97957 5.08941,0.63207 c 6.73593,0.83655 10.71282,6.76303 16.24871,11.19332 l 4.33811,3.47173 2.66189,-2.70152 2.66188,-2.70153 -3,-2.52415 c -5.4709,-4.60314 -13.53797,-9.45676 -20.81458,-12.52326 -3.95198,-1.66544 -7.73893,-2.45045 -8.17979,-2.86375 -0.44086,-0.41331 -1.50888,-4.64216 -1.80137,-8.02349 l -0.66242,-7.65761 13.08667,9.95198 c 5.89436,4.48246 16.11208,12.94661 22.81422,18.66855 l 12.1857,10.40353 -5.09,5.15402 c -2.79949,2.83471 -1.72513,1.8915 -4.61748,5.28914 -1.36282,1.38204 -1.71074,1.69949 -2.42095,1.2676 z m -43.42744,-37.72488 c -1.1,-0.26798 -4.87343,-2.2098 -5.85227,-3.07805 -1.68321,-1.49304 -1.54766,-1.81537 2.5,-5.94449 l 5.38829,-4.26944 0.11398,3.94232 c 0.258,8.92374 2.72073,10.53626 -2.15,9.34966 z m -141.64844,-1.98392 c -0.0758,-0.90507 -0.01,-3.89266 0.0704,-7.66156 -0.0903,-6.68825 -0.38184,-6.34377 0.31382,-7.11736 0.59797,-0.65116 2.70183,-0.77089 6.77886,-0.97421 42.52465,-2.12071 39.11007,-0.90138 38.72983,-14.07405 -0.57716,-19.99479 -0.14289,-10.82728 1.58157,-11.27604 1.80572,-0.4699 3.26466,1.27778 2.64778,11.35992 C 161.68966,148.39616 160,156.34729 160,160.05816 v 6.74704 l -7.07029,2.14753 c -5.54806,1.68517 -10.52119,2.24482 -23.0987,2.59939 -5.78979,0.50753 -13.16501,0.77073 -17.90689,0.7569 z M 205,164.84272 c -6.11567,-1.57981 -9.8995,-1.85978 -20.5,-1.51684 -7.15,0.23132 -13.7875,0.75077 -14.75,1.15434 -1.61199,0.67589 -1.74959,-0.24073 -1.74483,-11.62323 0.003,-6.79635 0.29572,-16.74449 0.65083,-22.10699 L 169.30165,121 H 172.65082 176 v 15.50698 15.50698 l 6.75,-0.55639 c 14.11082,-1.16314 45.70408,-3.33446 45.83562,-3.15015 0.0756,0.10592 0.39924,4.07893 0.71921,8.82892 l 0.58177,8.63634 -3.0683,0.61366 c -5.36143,1.07229 -14.07941,0.4555 -21.8183,-1.54362 z M 155.37659,129.12584 C 157.49556,128.71771 157,126.3749 157,118.51578 v -8.34513 l 6.42775,-0.33532 c 4.48865,-0.23417 7.58082,0.17667 10.25,1.36185 l 3.82225,1.69718 -7.5,0.30282 -7.5,0.30282 0.22243,7.3472 c 0.20959,6.92339 -2.36335,7.19708 -7.22243,7.00131 -2.34073,-0.0943 -1.87896,1.61546 -0.12341,1.27733 z"
         id="path497"
         sodipodi:nodetypes="ssssssscsssssssssssccsscccssssssssssssssssssssssssssssssssscssssscsscsscccsssscsscsccssscsscccssssscsccssscscccccssscsssscsscccsss" />
      <path
         style="fill:#090909"
         d="m 124.82917,340.32512 4.9784,-4.82512 -0.86093,-5.36012 C 128.09795,324.85598 125.77369,320 124.09331,320 121.1164,320 112,335.10505 112,340.03751 112,340.56688 111.54143,341 110.98095,341 c -2.22404,0 2.32756,-12.09356 6.71804,-17.84978 l 2.63898,-3.45988 -4.26075,0.68132 c -2.34341,0.37473 -6.01946,1.57855 -8.16899,2.67516 -2.22273,1.13395 -3.90823,1.52954 -3.90823,0.91727 0,-1.5244 7.97041,-4.86123 13.38403,-5.60325 2.98919,-0.40971 4.71455,-1.18417 4.99768,-2.24329 0.23782,-0.88965 0.73202,-2.96755 1.09822,-4.61755 l 0.66582,-3 -3.32288,3.13969 c -1.82758,1.72682 -4.28289,3.42799 -5.45624,3.78037 -3.04101,0.91326 -11.11462,-1.10737 -13.57196,-3.39673 -2.053363,-1.913 -2.009309,-1.91274 3.07177,0.0179 6.88122,2.61466 10.36154,2.47924 13.95315,-0.5429 3.91485,-3.29413 7.61007,-10.60654 5.90669,-11.68868 -2.22546,-1.41382 -13.13313,-0.77655 -18.51248,1.08156 -3.16842,1.09443 -5.13969,1.38644 -4.92051,0.7289 0.57574,-1.72723 10.66066,-4.49179 16.63102,-4.55904 L 123.34863,297 121,294.5 c -1.29175,-1.375 -1.90438,-2.5 -1.36141,-2.5 0.54298,0 2.28061,1.35 3.86141,3 3.12496,3.26175 4.5,3.76212 4.5,1.6375 0,-0.74937 1.35,-3.06124 3,-5.1375 1.65,-2.07626 3,-4.30394 3,-4.95041 0,-0.64648 1.35,-2.46879 3,-4.04959 1.65,-1.5808 3,-3.20277 3,-3.60438 0,-0.40161 -2.0607,-1.51719 -4.57933,-2.47907 C 124.28316,272.1631 119.03222,265.30728 118.25158,254 c -0.56976,-8.25279 1.63585,-17.84067 6.17977,-26.86367 4.64541,-9.22456 7.95655,-12.27184 17.09043,-15.72852 9.54247,-3.61131 12.51428,-6.27929 15.49166,-13.90781 2.50022,-6.40599 4.07673,-22.5 2.20401,-22.5 -0.54328,0 -3.33333,0.75753 -6.2001,1.68339 -5.70524,1.84259 -7.74187,1.29359 -9.13091,-2.46134 -0.75031,-2.02829 -0.21074,-2.36811 7.65317,-4.81995 L 160,166.76429 v -6.72658 c 0,-3.69962 0.29072,-11.47798 0.64604,-17.28525 l 0.64604,-10.55866 -18.17582,0.44742 C 86.89208,134.02522 45.726709,125.32701 27.863515,108.28841 15.546176,96.539654 8.6210669,77.297421 8.6854886,55 8.7324092,38.760028 12.240018,27.286071 19.691187,18.998578 27.379573,10.447242 34.36657,8.0968638 40.67112,11.94107 c 4.180257,2.548916 7.149896,7.83295 13.287327,23.64283 6.831372,17.597457 9.564044,21.797792 15.094594,23.201595 3.363526,0.853754 4.861785,0.792791 6.941023,-0.282425 C 79.774055,56.54836 80.380936,55.594591 84.58603,45 c 6.473515,-16.3098 13.801202,-20.988961 21.8299,-13.939675 4.29853,3.774163 6.79689,10.204723 9.54499,24.567953 3.42166,17.883731 4.56131,20.974968 8.79297,23.850451 C 126.7946,80.865428 128.96482,82 129.5766,82 c 2.83597,0 6.52439,-4.946612 8.903,-11.940008 2.89922,-8.524086 4.57898,-11.397043 7.95813,-13.611148 2.19402,-1.437576 2.68276,-1.437896 5.45643,-0.0036 5.4926,2.840337 5.94882,5.246288 4.65611,24.554733 -0.74227,11.086871 -0.68515,11.621606 1.5899,14.885074 2.72237,3.905122 11.68698,9.556359 22.69632,14.307619 L 188.5,113.5 l 24,-0.34217 c 23.91365,-0.34093 24.02698,-0.35288 31.5,-3.31975 10.12868,-4.02121 17.34511,-8.27107 20.58727,-12.124166 l 2.69194,-3.199191 -0.5501,-13.12039 c -0.59766,-14.254358 -0.13761,-16.284803 4.46365,-19.700449 2.54628,-1.890177 2.83117,-1.908225 5.23714,-0.331774 2.80044,1.834921 5.66929,6.868436 7.60208,13.338179 0.69014,2.310159 2.56045,5.451173 4.15624,6.980032 2.72762,2.613233 3.05765,2.691088 5.50944,1.299712 4.88606,-2.772805 6.56883,-6.443199 9.42338,-20.553962 C 306.97908,43.354841 311.33215,35.75 318.39066,35.75 c 4.69539,0 7.64545,3.036826 11.74901,12.094604 5.63882,12.446558 6.07733,13.171402 9.03394,14.932974 2.34039,1.39442 3.18966,1.42265 6.81404,0.226499 4.92232,-1.624514 7.20313,-5.058004 12.37363,-18.627089 6.31377,-16.569389 9.84063,-21.99448 15.7551,-24.234822 2.06953,-0.783918 3.64872,-0.512766 7.55561,1.29732 12.47908,5.781643 19.17492,21.793358 18.00722,43.060514 -0.8438,15.368119 -5.87556,30.491682 -13.28709,39.93598 -4.61208,5.87703 -15.84495,12.80045 -26.43381,16.29257 -20.19082,6.65877 -34.52352,8.47791 -69.45831,8.81581 -15.4,0.14895 -28.40755,0.31241 -28.90567,0.36323 -0.85935,0.0877 -0.30927,16.70175 1.24154,37.49849 l 0.66413,8.90609 7.70081,3.28172 c 7.76203,3.30781 15.76659,8.10217 21.29919,12.75722 l 3,2.52415 -2.63605,2.6757 -2.63605,2.67569 -5.22188,-4.12766 C 280.55459,192.58034 266.64856,185 264.64507,185 c -1.7866,0 0.009,45.2706 2.85543,72 3.61752,33.96756 -1.98452,51.09769 -19.13893,58.52373 l -6.86157,2.97033 -27.73156,0.31079 c -26.62769,0.29841 -28.12843,0.21304 -37.70184,-2.14465 -5.48365,-1.35048 -11.34381,-3.43347 -13.02257,-4.62885 -2.63164,-1.87389 -3.12062,-1.95691 -3.54816,-0.60238 -0.27273,0.86407 -0.73146,2.31044 -1.01941,3.21416 -1.22012,3.82935 -1.43199,0.12587 -0.35745,-6.24814 1.99181,-11.81511 -1.20598,-16.08069 -13.36901,-17.83315 -5.18344,-0.74684 -6.13801,0.28552 -2.5,2.70373 3.65142,2.42711 11.40923,16.74142 9.06739,16.73068 -0.44957,-0.002 -1.68405,-2.11068 -2.7433,-4.68582 C 146.66681,300.67366 138.36457,291 136.29242,291 134.70834,291 132,298.46049 132,302.82407 c 0,4.08739 3.46403,8.30348 9.5,11.5625 l 3,1.6198 -3,-0.61814 c -4.01034,-0.82633 -9.81088,-5.49135 -10.5434,-8.47942 -0.55632,-2.26928 -0.65615,-2.20607 -1.72348,1.09119 -2.23749,6.91223 -2.50721,10.89929 -0.96424,14.254 0.82113,1.7853 1.72227,5.43675 2.00254,8.11432 0.47099,4.49968 0.24044,5.16624 -3.04467,8.80246 -1.95484,2.16377 -4.41414,4.39432 -5.46511,4.95679 -1.05098,0.56246 0.32941,-1.14864 3.06753,-3.80245 z M 211,312.1193 c 4.125,-0.34062 10.2,-0.30444 13.5,0.0804 7.9695,0.92937 17.99245,-0.72188 23.3276,-3.84314 9.4533,-5.53054 13.75377,-18.29677 12.84329,-38.12618 -3.18424,-69.34936 -4.3579,-87.41987 -5.73452,-88.29325 -0.79,-0.5012 -4.92387,-1.66873 -9.18637,-2.5945 -7.46861,-1.62211 -7.75,-1.7871 -7.75,-4.54431 0,-3.88528 1.74848,-4.29794 10.16104,-2.39815 3.93585,0.88883 7.26265,1.4999 7.39291,1.35795 0.53249,-0.58034 -1.83525,-53.30719 -2.42005,-53.89185 -0.76655,-0.76636 -82.90127,0.56778 -83.69294,1.35945 -0.30618,0.30618 -0.82799,10.35655 -1.15957,22.33416 -0.58594,21.16542 -0.54918,21.75554 1.30786,20.99685 1.05091,-0.42935 7.23235,-1.01843 13.73653,-1.30906 14.38496,-0.6428 29.28405,1.81673 28.11451,4.6411 -0.36696,0.88618 -0.905,2.44222 -1.19564,3.45786 -0.42517,1.48571 -1.1359,1.71843 -3.63655,1.19072 -13.34758,-2.81673 -19.68101,-3.10927 -30.96864,-1.43045 l -7.44223,1.1069 -0.58738,14.6431 c -1.17229,29.22479 -2.73591,47.11337 -6.21853,71.14311 -3.25809,22.4805 -3.45178,25.077 -2.34987,31.5 1.45359,8.47287 2.79828,11.27409 7.31621,15.24088 7.55464,6.63306 22.91785,9.17227 44.64234,7.37842 z m -9.92999,-10.7717 c -2.92747,-1.45882 -8.18938,-5.33407 -11.69314,-8.61166 C 183.18946,286.94792 176,278.13995 176,276.34764 c 0,-0.48642 1.19936,-1.61213 2.66524,-2.50158 l 2.66523,-1.61716 4.15116,5.63894 c 5.23311,7.10868 12.57,13.61161 19.01837,16.85662 2.75,1.38388 5.11453,2.61403 5.25451,2.73368 0.50923,0.43527 -1.97004,6.54186 -2.65599,6.54186 -0.38821,0 -3.10103,-1.19358 -6.02851,-2.6524 z m 21.90524,-0.9127 c -1.46831,-3.86195 -1.37858,-4.00287 4.32613,-6.79392 5.70778,-2.79256 15.14435,-11.52595 19.86548,-18.38517 l 2.92123,-4.2442 2.70596,1.69154 c 1.48827,0.93034 2.86183,1.7961 3.05234,1.92391 0.85573,0.57409 -6.77938,10.43022 -12.29607,15.87294 -5.01767,4.95039 -16.47196,12.5 -18.96505,12.5 -0.34912,0 -1.07363,-1.15429 -1.61002,-2.5651 z M 150.12701,288.25 c -0.51885,-0.9625 -2.15322,-2.875 -3.63193,-4.25 l -2.68856,-2.5 -2.94329,3.5 -2.94328,3.5 6.29002,0.5774 c 3.45952,0.31757 6.41836,0.65507 6.57521,0.75 0.15685,0.0949 -0.13933,-0.6149 -0.65817,-1.5774 z m -0.91262,-16.54513 c 2.42424,-1.98557 2.92921,-3.55835 4.72415,-14.71404 C 155.9321,244.60064 159,217.54507 159,212.35413 v -2.70276 l -2.25,2.1067 c -1.2375,1.15868 -6.02057,3.69492 -10.62903,5.6361 -9.76892,4.11485 -11.54789,5.52988 -14.59078,11.60583 -6.84133,13.66058 -7.92242,26.91404 -2.76708,33.92261 1.49593,2.03369 15.00328,10.59975 17.23689,10.93126 0.275,0.0408 1.72147,-0.92624 3.21439,-2.149 z M 144.68812,128.3436 c 7.80346,-0.35699 14.77821,-1.01377 15.49943,-1.45951 0.75479,-0.46649 1.52377,-3.47861 1.81189,-7.09727 L 162.5,113.5 l 7.23904,-0.29359 7.23904,-0.29359 -6.64454,-3.46336 c -8.70212,-4.53586 -14.6545,-9.498716 -16.78991,-13.998765 -1.50394,-3.169317 -1.63423,-5.523847 -1.01559,-18.352928 0.63731,-13.216013 0.53273,-14.894139 -1.02524,-16.452113 -0.95422,-0.954217 -2.24521,-1.582432 -2.86887,-1.396034 -1.38857,0.415012 -5.50896,8.480095 -7.90794,15.478658 -0.9757,2.846432 -2.9282,6.547019 -4.33889,8.223526 C 134.25467,85.486056 133.09141,86 129.48783,86 120.70907,86 116.69265,79.473997 112.49848,58.39517 111.08964,51.314722 109.41727,43.787068 108.7821,41.667049 107.15329,36.230584 102.93787,32 99.149681,32 95.312904,32 92.363901,35.764527 88.574238,45.5 85.123785,54.364058 81.586815,60.475571 78.762358,62.453898 75.48284,64.750961 68.90356,64.409592 64.937056,61.736565 60.206716,58.54879 56.692917,52.987114 52.467732,42 46.511715,26.512053 41.114935,16.00949 38.500242,14.818156 32.660346,12.157322 23.034256,18.052077 18.451684,27.095347 14.277808,35.332096 12.883429,42.474847 12.906645,55.5 c 0.03796,21.29811 6.694312,40.364894 17.557838,50.29354 14.586934,13.33164 42.201122,20.69384 84.535517,22.53796 3.575,0.15573 8.525,0.3682 11,0.47216 2.475,0.10396 10.88465,-0.10306 18.68812,-0.46006 z M 329.5,123.49639 c 31.80695,-4.131 50.18125,-13.04019 58.29679,-28.266507 6.48185,-12.16119 9.80573,-33.380503 7.31998,-46.729883 -3.42456,-18.391029 -17.01133,-30.356187 -24.44226,-21.525021 -1.37681,1.636239 -4.39573,7.823739 -6.70873,13.75 -8.07806,20.697258 -12.10859,26.460781 -19.47028,27.841844 -5.12264,0.961013 -9.40109,-1.929731 -12.72099,-8.594961 -1.49902,-3.009524 -4.19902,-8.621862 -6,-12.471862 -3.09925,-6.62534 -3.46952,-7.016272 -6.91796,-7.304013 -3.03698,-0.253409 -3.9784,0.166399 -5.65581,2.522095 -2.387,3.352238 -4.48711,10.467349 -6.72355,22.779199 -2.89033,15.911606 -7.27774,22.581636 -14.99769,22.800466 -4.87643,0.138227 -7.7668,-3.046406 -11.00148,-12.121491 C 277.4865,67.783364 275.47367,64 274,64 c -0.52464,0 -1.68398,1.114245 -2.5763,2.476101 -1.43515,2.190313 -1.48635,3.673239 -0.44366,12.848295 1.44906,12.750785 0.54806,16.96327 -4.72337,22.083404 -2.04717,1.9884 -6.54514,5.07259 -9.99551,6.85374 l -6.27339,3.23846 5.25612,0.5 5.25611,0.5 0.29669,6.21031 0.29668,6.21031 8.20332,0.41153 c 14.99087,0.75202 48.03713,-0.25565 60.20331,-1.83576 z"
         id="path495" />
    </g>
  </g>
</svg>
