<?xml version="1.0" encoding="UTF-8" standalone="no"?>
<!-- Created with Inkscape (http://www.inkscape.org/) -->

<svg
   version="1.1"
   id="svg580"
   width="185.48177"
   height="301.90656"
   viewBox="0 0 185.48177 301.90656"
   sodipodi:docname="ã‚.png"
   xmlns:inkscape="http://www.inkscape.org/namespaces/inkscape"
   xmlns:sodipodi="http://sodipodi.sourceforge.net/DTD/sodipodi-0.dtd"
   xmlns="http://www.w3.org/2000/svg"
   xmlns:svg="http://www.w3.org/2000/svg">
  <defs
     id="defs584" />
  <sodipodi:namedview
     id="namedview582"
     pagecolor="#ffffff"
     bordercolor="#000000"
     borderopacity="0.25"
     inkscape:showpageshadow="2"
     inkscape:pageopacity="0.0"
     inkscape:pagecheckerboard="0"
     inkscape:deskcolor="#d1d1d1"
     showgrid="false" />
  <g
     inkscape:groupmode="layer"
     inkscape:label="Image"
     id="g586"
     transform="translate(-14.5,-13.761492)">
    <g
       id="g590">
      <path
         style="fill:#aeaeae"
         d="m 132.16245,282.76688 c -2.25291,-3.42822 -3.77361,-6.5229 -3.37933,-6.87708 0.39428,-0.35418 3.07938,-1.41044 5.96688,-2.34725 2.8875,-0.9368 7.12897,-3.30138 7.12897,-3.86603 0,-0.56464 -1.36642,0.53206 -0.62897,0.62056 5.32925,0.63953 4.09004,2.13047 3.47346,-0.22732 -0.32614,-1.24717 -0.90948,-1.53535 -0.60206,-1.22789 1.47726,1.47726 17.93948,-8.94628 25.35586,-16.36266 6.15791,-6.15791 10.56864,-13.15192 11.58906,-18.37655 0.63833,-3.26829 0.71269,-3.09219 0.80127,1.89734 0.13255,7.46719 -2.15022,17.64237 -5.41375,24.13107 -5.05152,10.04369 -9.00269,14.41433 -17.57321,19.43888 -8.50888,4.98841 -18.28381,9.36651 -21.00135,9.40631 -0.89747,0.0131 -3.44853,-2.75768 -5.71688,-6.20938 z m -79.562172,-3.64716 c -4.409893,-1.55279 -5.133857,-2.25579 -7.241768,-7.03208 -14.830093,-33.60335 -1.810335,-71.91859 37.35888,-88.58659 3.784336,-1.61038 25.99759,-9.39512 26.39757,-9.39512 0.39998,0 10.97041,-2.48552 6.61307,0.13783 -4.97216,2.99351 -33.350246,16.8709 -33.19648,17.82337 0.134751,0.83469 -1.764089,2.73632 -3.47194,3.74518 -1.70785,1.00885 -6.165161,3.05247 -10.092062,6.67768 -5.503854,11.59516 -11.744934,18.38948 -9.770418,13.90719 -2.108593,1.18719 -2.311273,-4.06103 0.57092,-5.77539 0.697427,-0.41918 -0.501592,1.76411 -2.664487,4.85175 -2.162895,3.08763 -5.208518,9.08171 -6.76805,13.32017 C 47.832615,235.59603 47.5,237.84899 47.5,248 c 0,12.7405 2.032146,20.43754 7.590469,28.75 1.563025,2.3375 2.744589,4.21512 2.625697,4.1725 -0.118891,-0.0426 -2.421041,-0.85388 -5.115888,-1.80278 z m 12.093934,-2.32847 c -1.358773,-1.81019 -3.667242,-5.68104 -5.129932,-8.6019 -2.483352,-4.95902 -2.522899,-5.23757 -0.597288,-4.20702 4.854748,2.59819 15.837818,-3.95731 23.331261,-13.92579 l 4.39081,-5.84107 6.599244,4.84587 6.599243,4.84587 c 2.29252,-1.57312 2.18546,-5.18677 0.60792,0.57263 -0.799999,-0.8 -5.788906,5.80652 -11.371403,11.37016 -6.99895,6.9753 -14.133182,11.86973 -19.791713,13.57807 -1.688845,0.50988 -2.713343,-0.0726 -4.638142,-2.63682 z M 187.25109,252.09317 c 0.19088,-0.95446 2.96545,-25.89887 -2.32501,-37.08556 -2.32314,-4.19224 -3.09752,-9.42785 -4.90246,-13.30592 l -1.97637,-4.20169 2.56552,3 c 4.18718,4.89629 10.34455,18.56174 11.50474,25.53323 1.17615,7.06744 3.57004,11.23991 3.72529,13.93135 -0.46763,2.00353 -6.68394,10.91185 -9.53641,15.7976 -1.37134,1.79982 -0.16428,1.8764 0.72843,-2.58757 z M 81.561355,232.28036 c -1.010914,-2.0792 -3.752839,-8.12334 -6.093167,-13.43143 l -4.255141,-9.65107 3.643476,-3.44702 c 5.528795,-5.23068 10.062899,-10.16085 9.360457,-8.33031 -0.329748,0.85931 2.699423,7.30603 5.236083,13.25789 7.620321,17.87987 6.366742,18.0492 12.954827,-1.74988 3.15737,-9.48882 5.01854,-18.03303 5.29109,-18.97164 1.36956,-4.71654 0.44255,-1.84152 4.06529,-2.33807 6.0607,-0.83071 13.97729,-2.51462 13.97729,-1.64471 0,1.25983 -7.6851,25.92747 -8.45826,27.34789 -0.5425,0.99665 -0.93965,-1.4156 -3.36089,-4.93478 l -3.35257,-4.87279 -2.22306,7.49278 c -1.22268,4.12103 -2.93138,9.98931 -3.79711,13.04063 l -1.57406,5.54786 -8.737803,2.83767 c -4.805794,1.56072 -9.210446,3.01535 -9.788117,3.23251 -0.57767,0.21716 -1.877421,-1.30633 -2.888335,-3.38553 z m -41.87034,-14.56768 c 0,-1.60475 6.748836,-14.17487 10.88121,-19.24831 2.325724,-2.85536 3.967033,-6.19048 4.578183,-6.9951 4.861641,-6.40066 5.355397,-4.37185 6.167807,-2.25474 0.464661,1.21088 -3.563793,4.49569 -6.699785,7.71359 -2.450527,2.51453 -6.742162,7.91451 -9.536967,11.99994 -2.794805,4.08544 -5.390448,9.2281 -5.390448,8.78462 z m 155.059465,-5.93164 c -1.76798,-10.77317 -13.8996,-9.88951 -23.90714,-21.89616 -5.86222,-7.03327 -21.32055,-19.23406 -29.14342,-20.40717 -2.58496,-0.38764 -5.26135,-0.64814 -5.25325,-1.27319 0.0254,-1.9565 1.1656,-14.01072 1.22227,-12.29433 0.0579,1.75351 4.79358,2.6232 16.33106,6.04725 10.61869,3.15137 19.45265,8.68127 27.64406,17.3047 8.13347,8.56243 13.08872,16.50154 14.90949,27.33394 1.98676,11.81995 -0.66714,12.10673 -1.80307,5.18496 z M 66.700224,167.21748 C 63.136847,159.12286 58.862373,148.675 57.201393,144 c -1.660981,-4.675 -3.362258,-9.36132 -3.780618,-10.41404 -0.515686,-1.29764 -1.267797,-1.38381 -0.514134,-0.91802 0.611422,0.37788 4.492224,-0.0164 7.566589,-0.49848 6.4081,-1.00489 6.671717,-0.79729 7.229524,5.69331 0.672006,7.81943 5.394946,26.83075 6.880279,30.21597 2.338827,3.8783 0.920989,4.20955 5.377129,2.94158 4.81756,-1.44136 4.8493,-1.49947 11.829676,-3.90253 2.040589,-1.03522 8.202404,-3.31705 13.692922,-5.07073 5.49052,-1.75369 10.52401,-3.63771 11.18553,-4.18672 0.66152,-0.54902 1.90294,-4.07667 2.75872,-7.83923 2.49298,-10.96079 6.43647,-34.43299 5.92423,-35.26181 -0.51571,-0.83444 -0.59794,-0.81757 5.25181,-1.0772 l 5.33899,0.0651 -0.72552,8.85391 c -0.32654,3.98493 -7.19705,13.87449 -10.57493,24.84465 L 118.5,167.3915 109,169.08137 c -11.24016,1.99942 -19.780467,4.77575 -29.049605,9.44361 l -6.771305,3.40998 z m 43.940146,12.15304 C 112.7382,168.18829 113.14366,175 120.73908,175 c 6.92992,0 8.44466,-2.5727 6.98581,1.94402 -0.47791,1.47963 -1.8883,5.8055 0.15587,6.11978 1.45296,0.22338 0.38385,-1.74498 -4.56615,-1.65506 -4.95,0.0899 -10.13295,0.33715 -11.14127,1.14114 -2.26366,1.80492 -2.15726,0.14835 -1.53297,-3.17936 z"
         id="path594"
         sodipodi:nodetypes="cssssscssssssccssssssscccssssssssssccccsssscccssccsssscssssssssscsscssssssssssssscssssssssssscccssssscsscsscssssssss" />
      <path
         style="fill:#050505"
         d="M 93,314.56145 C 80.109778,311.82901 70.733959,307.76245 60.346028,300.39851 43.876252,288.72319 33.083847,268.42683 33.015329,249 c -0.02719,-7.71057 2.832366,-22.52785 5.533935,-28.67498 2.996623,-6.8185 9.666964,-16.57962 15.709953,-22.98935 l 4.868845,-5.16432 -2.064031,-4.04584 C 55.928814,185.9003 55,183.47892 55,182.74466 55,182.0104 52.83083,176.47997 50.179621,170.45482 39.26304,145.64573 31.996633,122.07446 25.994049,92 21.252594,68.244105 14.914088,28.501332 14.675029,21.029137 L 14.5,15.558274 20.74425,14.419746 c 5.131362,-0.935613 6.449104,-0.891695 7.393653,0.246417 0.632172,0.76172 3.103966,14.085946 5.492876,29.609391 6.17958,40.155708 15.112529,82.187776 18.320753,86.204376 0.448126,0.56104 2.497158,5.74507 4.553404,11.52007 2.056246,5.775 6.649122,17.12286 10.206391,25.21748 l 6.467763,14.71748 6.771305,-3.40998 C 89.222726,173.85551 97.762877,171.07986 109,169.08351 l 9.5,-1.68774 6.82878,-22.44789 C 129.08461,132.60155 133.05428,119.8 134.15026,116.5 140.43784,97.568243 145.16438,70.152853 147.58948,38.54838 148.47779,26.971771 149.54263,16.825 149.9558,16 c 0.99519,-1.987151 11.5858,-2.625326 13.75073,-0.828599 1.2987,1.077831 1.4298,3.068173 0.84323,12.802421 -0.95205,15.799674 -4.13298,43.228078 -6.56554,56.61301 -3.18062,17.501098 -6.42588,30.381868 -18.54582,73.610238 -1.34112,4.78339 -2.4384,9.1198 -2.4384,9.63646 0,0.51666 2.11496,1.25654 4.69992,1.64418 7.82287,1.17311 20.95024,6.45781 28.58725,11.50841 11.13122,7.36142 20.85619,18.5571 25.55494,29.41961 1.93299,4.46866 4.11896,18.2961 4.13946,26.18431 0.0866,33.30488 -29.38988,66.43034 -67.98157,76.39734 -10.80138,2.78964 -29.6725,3.5513 -39,1.57407 z m 38.5,-7.48838 c 10.35629,-2.6495 26.33272,-10.60614 34.22491,-17.0448 16.50512,-13.46535 27.21253,-34.30041 27.25193,-53.02827 0.0196,-9.33625 -1.77696,-17.10306 -5.98472,-25.87227 C 179.53141,195.5792 164.98996,183.77145 146,177.84186 c -6.50406,-2.03088 -9.49188,-2.33589 -22.5,-2.29688 -16.26647,0.0488 -22.1538,1.1471 -34.685424,6.47082 -33.361529,14.17275 -53.498032,46.76435 -47.4215,76.75327 2.068484,10.20839 5.126385,17.07977 11.181234,25.12527 9.482775,12.60043 25.518909,21.71381 44.256546,25.15111 C 104.227,310.40223 122.565,309.35896 131.5,307.07307 Z M 102.81019,304.9396 C 86.58253,303.08953 73.97741,297.10967 63,286.05369 50.97211,273.9397 46.379046,261.97802 47.236402,245.00069 c 0.3743,-7.41188 1.142004,-11.19162 3.4918,-17.19167 6.359554,-16.23871 19.944824,-30.62344 36.692496,-38.85177 13.142992,-6.4573 19.527552,-8.08289 34.079302,-8.67701 18.77784,-0.76665 32.7874,3.32414 46.39202,13.54645 15.82066,11.88741 24.22418,31.86786 21.30379,50.65252 -5.78817,37.23096 -45.61893,65.10809 -86.38562,60.46039 z m 22.21202,-7.35158 c 28.84908,-5.14758 52.27361,-27.21256 56.17245,-52.91222 3.90303,-25.72728 -13.04773,-49.14318 -40.65476,-56.16077 -7.56722,-1.92355 -23.86905,-1.93327 -33.0399,-0.0197 -11.142791,2.32504 -24.020815,9.26818 -33.172266,17.88471 -14.022368,13.20272 -19.849942,26.4099 -19.166062,43.43655 0.348411,8.67442 0.779663,10.52744 4.055303,17.42501 11.086855,23.34576 37.297748,35.43305 65.805235,30.34641 z M 100,266.58403 v -12.41597 l -3.75,-2.93812 c -2.0625,-1.61597 -7.026901,-5.10438 -11.032003,-7.75203 -4.005102,-2.64765 -6.930102,-5.13693 -6.5,-5.53175 0.430102,-0.39481 6.065656,-2.44082 12.523454,-4.54668 l 11.741449,-3.82884 1.57041,-5.53532 c 0.86373,-3.04443 2.56897,-8.90106 3.78944,-13.01473 l 2.21902,-7.47941 7.87917,11.24676 7.87916,11.24676 13.54432,-0.67974 13.54432,-0.67973 -3.90682,5.41239 c -2.14875,2.97681 -5.78907,7.89858 -8.0896,10.93727 l -4.18278,5.52489 4.46191,12.3151 c 2.45405,6.7733 4.31447,12.46254 4.13425,12.64275 -0.18021,0.18021 -5.43941,-1.43528 -11.68712,-3.58999 C 127.89087,265.76294 122.22131,264 121.53956,264 c -0.68175,0 -5.54712,3.375 -10.81193,7.5 -5.26481,4.125 -9.83231,7.5 -10.15,7.5 C 100.25993,279 100,273.41281 100,266.58403 Z m 12.40272,-2.50885 7.66691,-5.92483 8.63714,2.91954 c 4.75042,1.60575 8.83593,2.72074 9.07891,2.47776 0.24298,-0.24297 -0.97135,-4.34715 -2.69852,-9.1204 l -3.14029,-8.67862 5.52657,-7.3427 c 3.03961,-4.03849 5.52656,-7.63561 5.52656,-7.9936 0,-0.35799 -4.31573,-0.46213 -9.59052,-0.23143 l -9.59052,0.41945 -5.65948,-7.90911 -5.65948,-7.90911 -2.87669,9.49017 -2.87669,9.49018 -8.902658,2.73094 c -10.217763,3.13435 -10.215953,3.07472 -0.28961,9.54199 L 104,250.23492 v 9.88254 c 0,5.4354 0.16556,9.88254 0.36791,9.88254 0.20234,0 3.81801,-2.66617 8.03481,-5.92482 z"
         id="path592" />
    </g>
  </g>
</svg>
