<?xml version="1.0" encoding="UTF-8" standalone="no"?>
<!-- Created with Inkscape (http://www.inkscape.org/) -->

<svg
   version="1.1"
   id="svg670"
   width="519.01611"
   height="182.35463"
   viewBox="0 0 519.01611 182.35463"
   sodipodi:docname="も.png"
   xmlns:inkscape="http://www.inkscape.org/namespaces/inkscape"
   xmlns:sodipodi="http://sodipodi.sourceforge.net/DTD/sodipodi-0.dtd"
   xmlns="http://www.w3.org/2000/svg"
   xmlns:svg="http://www.w3.org/2000/svg">
  <defs
     id="defs674" />
  <sodipodi:namedview
     id="namedview672"
     pagecolor="#ffffff"
     bordercolor="#000000"
     borderopacity="0.25"
     inkscape:showpageshadow="2"
     inkscape:pageopacity="0.0"
     inkscape:pagecheckerboard="0"
     inkscape:deskcolor="#d1d1d1"
     showgrid="false" />
  <g
     inkscape:groupmode="layer"
     inkscape:label="Image"
     id="g676"
     transform="translate(-12.983891,-12.5)">
    <g
       id="g680">
      <path
         style="fill:#b0b0b0"
         d="m 479.39828,175.91171 c -15.1033,-1.76266 -24.09425,-7.39214 -28.90538,-18.09843 -2.34178,-5.21122 -10.66911,-15.76093 -11.04447,-24.14224 -0.25011,-5.58457 -6.17129,-46.895599 -1.54049,-16.90316 0.9663,6.25848 9.90588,-0.10423 12.01553,-0.1932 3.89991,-0.16446 3.80113,-7.36721 3.27067,12.67532 -0.35034,13.23705 2.74227,19.65295 8.86582,25.18521 9.23404,8.3424 31.97403,8.99663 42.17843,1.21348 11.16185,-8.51343 11.98206,-21.94789 3.01549,-49.39152 -1.12183,-3.43356 -1.75039,-6.08333 -1.39679,-5.88838 0.3536,0.19495 3.24744,0.0536 6.43076,-0.31403 3.66141,-0.422883 6.10076,-0.280193 6.63955,0.38838 0.46844,0.58127 2.34151,5.55686 4.16237,11.05686 3.01895,9.11889 3.70268,11.10252 3.74808,22.51292 0.4021,8.6471 -1.56003,14.3825 -4.92572,21.79781 -3.66622,8.07743 -6.01262,10.53581 -7.11287,9.21009 -1.84421,-2.22213 -5.75692,-1.83409 -8.94555,0.67409 -2.25505,1.77383 -2.04512,0.84364 -1.75412,3.89515 0.19349,2.02893 0.94368,3.27471 0.38789,3.33693 -0.55579,0.0622 -5.01247,1.31197 -7.48747,1.73489 l -4.5,0.76897 -8.36164,0.80798 c -5.35828,0.51777 4.02763,0.69613 -4.74008,-0.32712 z m -134.2123,-55.65972 c 9.17729,-0.16487 24.47729,-0.16517 34,-6.6e-4 9.52271,0.16451 2.01402,0.29941 -16.68598,0.29977 -18.7,3.6e-4 -26.49131,-0.13424 -17.31402,-0.29911 z m 54.53055,-14.40836 c -2.9e-4,-0.66952 -0.13941,-1.29259 -0.0625,-3.08606 l 0.26043,-6.075214 14.5735,0.03724 20.37502,-0.503733 c 19.69473,-1.073602 8.05835,-0.688269 12.62446,-0.721659 L 492.0495,96 l 0.84172,2.25 c 2.35441,6.29359 3.90008,6.55162 1.47674,6.65586 2.03947,-0.42161 -0.0856,0.11298 1.85332,0.75002 1.27053,0.35768 -22.90748,0.84414 -49.55968,0.84414 -26.6522,0 -46.94474,0.0817 -46.94504,-0.58785 z m 3.83048,-12.88205 c 0.42189,-1.593473 7.02675,1.700733 16.78557,0.462506 l 18.32173,1.163393 0.57465,-13.794749 c 0.23586,-5.661866 0.66233,-12.022021 0.33399,-12.360043 -0.51487,-0.530052 -21.75963,-0.653744 -27.9931,0.104183 l -1.63489,0.198787 0.96566,-6.591345 C 412.37844,52.057153 416.35754,50.919968 418,50.897864 c 6.92702,-0.09322 23.53496,2.823901 23.53496,2.095555 0,-0.529283 6.52448,0.07766 17.62041,0.234988 L 478.31074,53.5 l 1.84146,5.419835 c 1.01281,2.980909 1.70393,5.557373 1.53582,5.725476 -0.1681,0.168104 -5.90418,0.831919 -12.74683,1.475145 -6.84265,0.643226 -12.75034,1.441762 -13.12818,1.774523 -0.37785,0.332762 -1.0023,5.634389 -1.38767,11.781395 l -0.70068,11.719063 3.38767,0.323626 c 1.86322,0.177995 -9.54983,-0.07642 -25.36233,0.09792 -15.8125,0.17434 -28.81078,3.440222 -28.20299,1.144597 z m 38.21551,-44.848219 c 0.66989,-0.807169 0.84937,-14.053976 1.03489,-20.503708 C 442.97318,21.499344 443.3871,15.825 443.71725,15 c 0.33015,-0.825 0.56633,-1.725 0.52484,-2 -0.0415,-0.275 2.54378,-0.5 5.74504,-0.5 h 5.82046 l 0.14022,13.916705 c 0.0771,7.654187 0.41208,16.262344 0.61035,16.583157 0.19827,0.320812 -3.27363,1.570053 -7.84933,1.570053 -6.99009,0 -7.91581,4.711627 -6.94631,3.543446 z"
         id="path684"
         sodipodi:nodetypes="sssssssssssssccssssscssssssssscccccsccssssscssscsssscssssscsssssssscssss" />
      <path
         style="fill:#070707"
         d="M 502.45455,192.54545 C 500.96224,191.05315 500,188.93896 500,187.15244 c 0,-3.6904 -1.19801,-4.1505 -10.83179,-4.15999 -20.63449,-0.0203 -37.25639,-7.21395 -44.01572,-19.0491 l -2.9043,-5.08523 -0.68933,6.43687 c -0.56056,5.23436 -1.09748,6.6387 -2.8741,7.51721 -3.86489,1.91112 -41.75273,6.62158 -74.18476,9.22312 -21.94224,1.7601 -79.8875,2.34283 -105.5,1.06097 C 204.33633,180.36047 153.78748,174.5068 97,164.33632 86.785725,162.50697 80.726597,160.85831 76.5,158.75835 56.39971,148.77164 40.900437,136.40964 28.532286,120.5 22.19132,112.34336 13,97.85542 13,96.017021 13,94.656541 10.684676,94.539292 61.569367,98.476607 139.43102,104.50132 193.897,108.16426 240.5,110.51001 c 36.81462,1.85306 136.82424,4.07029 141.64946,3.14039 2.73912,-0.52787 3.56022,-1.13324 3.29168,-2.42685 -0.19679,-0.94795 5.13595,-16.100558 11.85053,-33.672456 11.35786,-29.723256 12.43735,-32.082317 15.49593,-33.86401 3.05044,-1.776958 5.57938,-1.915877 35.05844,-1.925833 27.46561,-0.0093 32.19931,0.21084 34.93276,1.62436 1.73905,0.899299 3.569,2.417932 4.06655,3.374739 0.49755,0.956808 4.38573,12.654761 8.6404,25.995453 4.25467,13.340692 8.5819,25.915455 9.61607,27.943917 3.34451,6.56005 3.43204,9.7338 0.37886,13.73672 L 502.76262,118 h -27.30171 -27.30172 l -0.7064,6.59622 c -0.38852,3.62793 -0.50176,11.16543 -0.25165,16.75 0.76698,17.12538 6.79276,26.88877 19.53848,31.65755 6.85178,2.56358 23.56537,4.41074 31.86615,3.52181 5.81347,-0.62257 6.292,-0.84808 5.38722,-2.53868 -3.0254,-5.65301 0.93068,-11.9869 7.48688,-11.9869 4.00929,0 6.41438,2.54121 7.21751,7.62597 0.69765,4.417 1.65889,5.33714 5.59807,5.35872 3.31856,0.0182 7.70455,4.0118 7.70455,7.01531 0,1.15 -1.16353,3.25443 -2.58561,4.67652 -2.29425,2.29425 -3.16758,2.52774 -7.75,2.07205 -4.8229,-0.47961 -5.39583,-0.29024 -8.66439,2.86385 -4.15349,4.00803 -7.20084,4.27765 -10.54545,0.93303 z M 361.4735,175.3843 c 23.06257,-1.49943 37.59725,-2.96284 60.18868,-6.06003 l 12.16218,-1.66738 0.61009,-4.07844 c 0.33554,-2.24315 1.434,-10.31082 2.44102,-17.92816 l 1.83094,-13.8497 -10.6032,0.64285 C 327.20065,138.561 195.4098,134.11889 41.152503,119.401 L 34.5,118.76627 l 7.984841,8.12522 c 9.604983,9.77383 20.025094,17.43985 32.643148,24.01537 9.371419,4.88364 9.37378,4.88424 37.372011,9.47912 95.51504,15.67527 169.76513,20.14814 248.9735,14.99832 z m 61.91189,-47.28424 c 8.18697,-0.57063 15.06871,-1.22083 15.29277,-1.44488 0.22405,-0.22406 0.65379,-1.92563 0.95496,-3.78128 l 0.5476,-3.3739 h -75.84036 c -74.1696,0 -92.25471,-0.47394 -154.84036,-4.05776 -28.68011,-1.6423 -107.04723,-7.13463 -154.5,-10.82808 -16.775,-1.30567 -30.680716,-2.20977 -30.90159,-2.00913 -0.220875,0.20065 1.194998,2.76945 3.146384,5.70845 l 3.547975,5.34364 17.353615,1.65373 C 114.36751,121.62144 184.69107,126.49481 245.5,128.9873 c 26.56072,1.08869 159.01465,0.42805 177.88539,-0.88724 z M 494.64782,104 c -0.27626,-1.375 -0.9739,-3.7375 -1.55031,-5.25 L 492.0495,96 h -45.0017 -45.00169 l -1.50851,2.302274 c -0.82968,1.26625 -1.77302,3.628746 -2.09632,5.249996 l -0.5878,2.94773 h 48.64831 48.64832 z M 478.6732,91.036056 490.8464,91 484.58689,72.25 478.32738,53.5 447.91369,53.260829 417.5,53.021659 l -6.70954,17.73917 c -3.69024,9.756544 -7.01728,18.569403 -7.39342,19.58413 -0.65843,1.77625 0.50385,1.824145 31.20953,1.286056 17.54139,-0.307397 37.37137,-0.575128 44.06663,-0.594959 z"
         id="path682"
         inkscape:export-filename="..\all_svg\も.svg"
         inkscape:export-xdpi="96"
         inkscape:export-ydpi="96" />
    </g>
  </g>
</svg>
