<?xml version="1.0" encoding="UTF-8" standalone="no"?>
<!-- Created with Inkscape (http://www.inkscape.org/) -->

<svg
   version="1.1"
   id="svg254"
   width="340.78674"
   height="397.88574"
   viewBox="0 0 340.78674 397.88574"
   sodipodi:docname="や.png"
   xmlns:inkscape="http://www.inkscape.org/namespaces/inkscape"
   xmlns:sodipodi="http://sodipodi.sourceforge.net/DTD/sodipodi-0.dtd"
   xmlns="http://www.w3.org/2000/svg"
   xmlns:svg="http://www.w3.org/2000/svg">
  <defs
     id="defs258" />
  <sodipodi:namedview
     id="namedview256"
     pagecolor="#ffffff"
     bordercolor="#000000"
     borderopacity="0.25"
     inkscape:showpageshadow="2"
     inkscape:pageopacity="0.0"
     inkscape:pagecheckerboard="0"
     inkscape:deskcolor="#d1d1d1"
     showgrid="false" />
  <g
     inkscape:groupmode="layer"
     inkscape:label="Image"
     id="g260"
     transform="translate(-14,-17)">
    <g
       id="g264">
      <path
         style="fill:#afafaf"
         d="m 239.10457,379.25361 c -4.61749,-13.06449 -9.33182,-25.41839 -9.53147,-25.96839 -0.19965,-0.55 2.77634,-0.75813 5.66847,-1.94725 l 5.25843,-2.16203 1.2049,2.66203 c 4.00328,11.77204 10.27811,30.34554 14.99476,43.81603 0.82251,1.58354 1.06149,1.37558 0.36018,1.80902 -3.17241,0.73404 -6.88613,3.02633 -10.66824,4.66277 -0.72914,0.98429 -1.16562,-5.5526 -7.28703,-22.8722 z M 218.11929,339.75 c -4.06814,-12.35545 -15.13547,-49.0872 -14.8476,-49.27818 0.12557,-0.0833 4.24784,-1.73987 9.1606,-3.68126 l 8.93228,-3.52982 2.75103,10.61963 c 4.7651,18.39443 14.72429,48.44567 15.94166,48.85146 0.82824,0.27608 -17.16008,6.19955 -18.7248,6.26153 -0.0921,0.004 -1.53807,-4.15586 -3.21317,-9.24336 z M 293.5,333.04962 c -1.65,-0.44714 -4.88777,-0.68756 -7.16821,-0.93131 -17.7073,-1.89268 -7.926,-1.09825 3.36733,-7.36079 5.94048,-3.2942 12.11963,-6.92577 13.73144,-8.07015 5.11934,0.0696 4.87996,0.66677 11.24189,-1.18274 6.69803,-1.9891 13.45034,-8.03801 16.25785,-14.56425 1.36901,-3.6685 3.25615,-7.75558 2.59168,-10.73955 -0.32476,-0.32477 2.13725,-2.50358 5.20119,-7.54131 3.06394,-5.03774 6.12831,-12.34821 7.4171,-15.09821 2.25898,-4.8202 1.84663,-6.70753 1.85605,-3.63422 0.005,1.75337 1.72513,9.01423 2.60691,12.76086 4.97456,21.13669 -5.90556,44.89455 -24.60037,53.71739 -5.96135,2.81341 -7.46049,3.08514 -18.00286,3.26312 -6.325,0.10679 -12.85,-0.17169 -14.5,-0.61884 z m -24.39472,-5.18635 c -0.18441,-0.41574 -4.08028,-2.63682 -7.10528,-4.19338 -10.07271,-5.18307 -9.70869,-4.31696 -5.88852,-14.01057 l 3.33323,-8.45804 8.02765,4.03729 c 6.69058,3.36486 15.55154,6.82953 24.45931,9.94917 1.64007,0.57437 -1.64538,0.83146 -15.09638,8.12545 -4.76559,2.58421 -7.5456,4.96581 -7.73001,4.55008 z m -119.4517,-27.64211 c -0.75237,-1.49664 -1.63106,-4.10915 -1.95265,-5.80559 l -0.5847,-3.08443 16.38075,-7.35998 c 31.93056,-12.95143 27.08424,-10.43791 51.85431,-22.1567 1.01822,0.0421 4.04186,-0.78693 6.7192,-1.84225 l 4.86791,-1.91874 1.5308,5.15476 c 1.85774,6.25569 1.92453,8.41732 0.2808,9.08724 -1.81844,0.74111 -72.83701,28.76063 -75.48924,29.78336 -1.86418,0.71886 -2.46835,0.40772 -3.60718,-1.85767 z m 181.49437,-26.68855 c -2.60063,-4.42183 -8.50144,-10.28879 -15.09068,-12.20434 -6.5125,-1.89324 -26.35012,-1.34616 -37.05727,1.02195 -3.575,0.79068 -6.61569,1.33216 -6.75709,1.20327 -0.1414,-0.12889 11.1086,-4.71636 25,-10.19438 l 25.25709,-9.96004 5.75319,2.46556 c 3.16425,1.35606 7.98151,4.36763 10.70502,6.69237 l 4.95183,4.22681 -5.04953,10.1081 c -2.77724,5.55945 -4.70399,10.66026 -4.92587,10.93635 -0.24276,0.30207 -1.60013,-2.27815 -2.78669,-4.29565 z M 235.8229,261.75 c -0.89881,-3.4375 -1.56416,-6.28111 -1.47855,-6.31914 0.0856,-0.038 4.65565,-1.425 10.15565,-3.08217 8.13614,-2.45144 10.02757,-3.37016 10,-4.92789 -0.31236,-17.64689 1.94263,-2.51023 10.5,-5.13286 5.775,-1.7699 9.22489,-4.66938 9.12047,-3.69471 -0.007,0.0638 0.32857,0.80808 0.7168,2.96121 0.44352,2.4598 0.0684,2.62518 2.93825,1.99486 4.45773,-0.97908 27.64751,-2.07975 28.07733,-1.38429 0.37599,0.60837 -65.5328,25.87168 -67.37429,25.84808 -0.5618,-0.007 -1.75684,-2.82559 -2.65566,-6.26309 z m -33.95171,23.03167 c -0.40657,-1.04718 -14.02553,-58.65048 -15.93094,-66.67994 -0.57404,-2.41904 -0.68294,-4.71956 -0.24198,-5.11226 0.44095,-0.3927 3.95173,-1.47056 7.80173,-2.39524 3.85,-0.92468 7.69838,-1.8887 8.55197,-2.14227 1.26077,-0.37453 1.99257,1.8258 3.90029,11.72719 1.29159,6.70353 3.597,17.39307 5.12315,23.75454 1.52615,6.36147 7.00016,31.85593 4.75472,21.60115 -0.48776,-2.22757 -9.56628,30.56064 -13.95894,19.24683 z m 52.35611,-43.29053 c 0.79705,-0.58132 0.85533,-9.01034 1.34518,-23.75389 L 256.29469,196 h 9.37425 9.37425 l -0.2716,19.19059 -0.27159,19.1906 -9,2.71074 c -4.95,1.49091 -9.9,3.0226 -11,3.40374 -1.20123,0.41622 -0.9785,1.51025 -0.2727,0.99547 z"
         id="path268"
         sodipodi:nodetypes="ssscccccssssscsscssssccccsscssssssscsssssscccscssssssssscsscsssssssssssscsssssssssssscccccsss" />
      <path
         style="fill:#070707"
         d="m 209.5,414.06169 c -4.80846,-1.17581 -10.75085,-4.62425 -14.17178,-8.22406 -1.74449,-1.8357 -5.92351,-8.51263 -9.28672,-14.83763 -3.36322,-6.325 -7.56092,-12.76419 -9.32822,-14.30932 -3.93037,-3.43625 -4.79583,-3.35258 -29.10724,2.81394 -16.14347,4.09475 -41.54725,9.49884 -51.692106,10.99634 -3.55736,0.52511 -7.258493,-0.0409 -16.5,-2.52348 C 63.870363,383.80202 46.263483,377.61429 37.5,373.24732 30.734263,369.87585 14,359.47036 14,358.63483 c 0,-0.22551 3.7125,-1.89366 8.25,-3.70699 4.5375,-1.81333 8.475,-3.59282 8.75,-3.95443 0.275,-0.36161 15.0125,-6.38913 32.75,-13.39449 24.41139,-9.64119 32.248644,-13.14316 32.244423,-14.40797 -0.0049,-1.47258 -1.388931,-7.49749 -2.495525,-10.86354 -0.252936,-0.76938 -11.465125,3.58344 -31.595911,12.26624 -17.162116,7.40235 -31.393644,13.26903 -31.625618,13.03705 -0.231974,-0.23197 1.406518,-3.10021 3.641094,-6.37387 2.234576,-3.27365 6.506056,-11.07866 9.492178,-17.34446 10.845933,-22.75811 16.01359,-43.80354 20.584158,-83.82958 3.057257,-26.77346 3.444028,-34.9373 2.0142,-42.5151 -1.101573,-5.83811 -1.067139,-6.91812 0.262976,-8.24824 1.374025,-1.37402 1.681577,-1.28864 3.007878,0.83502 0.812547,1.30104 8.116915,31.61553 16.231928,67.36553 16.479309,72.59821 17.084749,74.9041 19.404119,73.90273 0.87126,-0.37615 3.6091,-1.25131 6.0841,-1.94479 6.0816,-1.70403 34.9683,-13.18674 36.61823,-14.55607 0.72536,-0.60199 19.36687,-8.21005 41.42557,-16.9068 22.0587,-8.69675 40.39628,-16.10181 40.75017,-16.4557 0.61155,-0.61155 -2.32549,-13.40423 -3.30153,-14.38026 -0.25503,-0.25503 -19.48266,7.11967 -42.72806,16.38823 C 160.51897,282.81589 139.475,290.94436 137,291.6106 c -2.475,0.66623 -6.2482,1.9578 -8.38488,2.87015 -4.56439,1.94895 -4.78208,3.73394 1.79679,-14.73307 8.34952,-23.43729 15.55227,-57.28926 20.47881,-96.24768 1.11281,-8.8 4.08984,-36.475 6.61561,-61.5 2.52578,-25.025 5.49874,-52.475 6.60659,-61 3.48883,-26.846744 3.80697,-30.744353 2.95132,-36.157185 C 166.09405,18.705454 166.52078,17 169.02662,17 c 2.31967,0 2.87126,1.751109 12.91472,41 4.43333,17.325 8.46752,32.213123 8.96488,33.084717 0.69112,1.211145 40.01686,150.820573 45.38612,172.665283 0.57454,2.3375 1.57447,4.25 2.22206,4.25 0.6476,0 16.61077,-6.09905 35.47373,-13.55344 18.86295,-7.45439 35.60067,-13.81432 37.19492,-14.13317 1.59426,-0.31885 11.76777,-4.07781 22.6078,-8.35324 11.18414,-4.41114 20.09969,-7.4017 20.61206,-6.91392 1.29533,1.23318 -0.91726,21.13957 -3.21821,28.95377 -1.05268,3.575 -2.41282,8.31194 -3.02252,10.52654 -0.60971,2.2146 -5.48806,11.40039 -10.84077,20.41289 l -9.73221,16.38634 -9.5446,6.18171 c -22.38742,14.49957 -27.96429,17.53341 -58.0446,31.57645 -8.525,3.97991 -15.73095,7.58082 -16.01322,8.00203 -0.28227,0.42121 -3.43227,2.00566 -7,3.52101 -3.56773,1.51535 -6.59939,2.8238 -6.73702,2.90768 -0.13764,0.0839 3.80401,11.53879 8.75921,25.45536 6.62212,18.59803 8.72751,25.64259 7.9454,26.58497 -2.35325,2.83549 -25.35971,9.54951 -31.95437,9.32529 -1.375,-0.0467 -3.85,-0.41511 -5.5,-0.81858 z m 22.75,-9.02223 c 3.7125,-1.1659 6.75,-2.49133 6.75,-2.9454 0,-0.45407 -3.38714,-10.44849 -7.52698,-22.20982 -4.13984,-11.76133 -7.70826,-21.90123 -7.92981,-22.53311 -0.26792,-0.7641 -3.75733,0.12317 -10.41876,2.64924 -5.50876,2.08896 -14.96818,5.44827 -21.02092,7.46513 l -11.00499,3.66702 3.33697,4.68374 c 1.83534,2.57606 5.1815,8.37298 7.43591,12.88206 7.75151,15.50388 13.55802,19.71016 26.12858,18.92776 4.125,-0.25674 10.5375,-1.42072 14.25,-2.58662 z M 111.5,380.95884 c 72.47456,-14.0484 138.0565,-39.3209 196.72629,-75.80998 l 13.7263,-8.53693 8.73587,-14.99194 c 10.60525,-18.20004 14.76122,-28.19839 16.33783,-39.30522 0.65782,-4.63417 1.03352,-8.55084 0.83488,-8.7037 -0.19865,-0.15286 -18.36117,6.85726 -40.36117,15.57803 -22,8.72078 -54.175,21.44559 -71.5,28.27737 -17.325,6.83178 -67.05,26.44706 -110.5,43.58952 -43.45,17.14246 -83.05,32.71881 -88,34.61412 -4.95,1.8953 -9.374054,3.81643 -9.831231,4.26918 -1.098287,1.08764 19.43409,11.12522 30.831231,15.07234 11.439982,3.96195 33.481937,9.78054 35.477716,9.36533 C 94.814972,384.20278 102.7,382.66462 111.5,380.95884 Z M 92,306.27097 c 0,-1.53915 -21.857454,-97.46176 -22.311674,-97.91598 -0.168587,-0.16858 -1.312443,8.79508 -2.541904,19.91925 -5.00467,45.28231 -12.765845,74.07134 -26.020565,96.51977 C 39.406636,327.70571 38,330.25401 38,330.4569 c 0,0.20288 12.15,-4.85975 27,-11.2503 15.775964,-6.78903 27,-12.16644 27,-12.93563 z m 90.99272,-37.64773 c 22.821,-9.11877 41.64486,-17.03597 41.83079,-17.59378 C 225.34178,249.47465 171.58809,43.016892 170.87071,43.806953 169.85087,44.930128 166.36107,74.345432 161.47532,123 153.10328,206.37281 147.0043,242.63519 135.54355,277.18132 133.5946,283.05604 132,288.11198 132,288.41673 c 0,0.30475 2.1375,-0.29371 4.75,-1.32992 2.6125,-1.0362 23.42173,-9.34481 46.24272,-18.46357 z M 237.61199,242.25 c -1.01434,-11.84124 -4.37708,-30.89496 -8.2227,-46.5909 -4.48059,-18.28754 -5.33722,-21.21013 -19.05385,-65.00668 -8.25542,-26.35918 -11.23321,-37.154652 -10.46149,-37.926372 1.48706,-1.487059 2.93233,-0.08893 19.92372,19.273952 36.3141,41.38245 60.0264,74.74441 76.5615,107.718 l 5.62544,11.21799 -11.74231,3.59978 C 283.78404,236.51565 275.125,239.20284 271,240.5073 261.64459,243.46579 239.46958,250 238.78483,250 c -0.27993,0 -0.80771,-3.4875 -1.17284,-7.75 z M 255.5,240.1684 c 5.5,-1.70553 16.67651,-5.10515 24.8367,-7.55471 8.16018,-2.44956 15.0798,-4.69685 15.37692,-4.99398 1.41952,-1.41952 -19.57515,-37.12055 -33.4767,-56.92648 -12.72854,-18.13469 -53.56667,-67.69682 -54.78053,-66.48295 -0.20019,0.20019 3.69388,13.17227 8.65348,28.82685 15.37409,48.52707 22.1797,75.42603 24.91172,98.46287 1.42463,12.01268 1.64354,12.84039 3.23684,12.23844 C 244.94129,243.48045 250,241.87393 255.5,240.1684 Z"
         id="path266" />
    </g>
  </g>
</svg>
