<?xml version="1.0" encoding="UTF-8" standalone="no"?>
<!-- Created with Inkscape (http://www.inkscape.org/) -->

<svg
   version="1.1"
   id="svg398"
   width="188.10323"
   height="501.3309"
   viewBox="0 0 188.10323 501.3309"
   sodipodi:docname="ゆ.png"
   xmlns:inkscape="http://www.inkscape.org/namespaces/inkscape"
   xmlns:sodipodi="http://sodipodi.sourceforge.net/DTD/sodipodi-0.dtd"
   xmlns="http://www.w3.org/2000/svg"
   xmlns:svg="http://www.w3.org/2000/svg">
  <defs
     id="defs402" />
  <sodipodi:namedview
     id="namedview400"
     pagecolor="#ffffff"
     bordercolor="#000000"
     borderopacity="0.25"
     inkscape:showpageshadow="2"
     inkscape:pageopacity="0.0"
     inkscape:pagecheckerboard="0"
     inkscape:deskcolor="#d1d1d1"
     showgrid="false" />
  <g
     inkscape:groupmode="layer"
     inkscape:label="Image"
     id="g404"
     transform="translate(-19.293198,-8.3841047)">
    <g
       id="g408">
      <path
         style="fill:#aeaeae"
         d="M 97.066239,228.28376 93,225.17302 l -3.966078,-2.91669 -3.966078,-2.91668 3.849578,-3.75901 4.527284,-4.72717 0.05324,14.10956 c 0.02731,7.2389 0.454444,13.41792 0.1165,13.75586 -0.337944,0.33794 6.544624,-8.06907 3.451795,-10.43513 z m 3.960531,-10.1789 c -0.0255,-11.82263 0.10025,-12.5962 2.72323,-16.74806 1.5125,-2.39411 3.03685,-4.24129 3.38743,-4.10486 1.59066,0.61901 14.29987,13.86224 14.19758,15.19902 -0.0901,1.17715 -0.69285,0.46873 -1.03551,-0.82037 -0.31903,-1.20015 -3.80791,3.04702 -10.32538,9.72675 l -8.92058,9.14266 -0.0268,-12.39514 z m 16.63158,-20.35542 c -2.39294,1.19651 -7.77988,-6.93508 -7.76961,-7.44712 0.0103,-0.51204 5.05983,-7.59291 8.61799,-14.67031 7.6343,-15.18508 12.7456,-30.33552 15.67228,-46.45431 1.78549,-9.83371 2.13615,-15.82263 2.22065,-37.926853 L 136.5,65.001694 l 6.5399,-8.47e-4 c 19.23366,-0.0025 37.78992,11.019576 45.69979,27.144808 9.41971,19.203235 7.57545,47.753095 -4.67394,72.354345 -4.97729,9.99622 -4.98151,10.00106 -11.16651,12.8076 -9.53987,4.32885 -17.31737,5.9646 -28.24151,5.93971 l -9.84228,-0.0224 -2.76264,6.15742 c -1.51945,3.38657 -4.10667,8.31678 -5.74937,10.95601 l -2.98673,4.79861 -7.40103,-6.51614 z m 36.25552,-32.80522 c 9.00794,-1.46157 16.66604,-5.39005 23.15317,-11.87718 C 186.22365,143.91043 190,133.42604 190,117.16088 190,89.387455 174.80091,72.547155 146.67855,69.161544 l -6.71486,-0.808393 0.76815,12.073425 c 1.0761,16.913455 0.80282,70.802754 -0.39704,78.296484 -0.70289,4.38985 -0.67803,6.35504 0.0844,6.67106 1.89896,0.7871 6.89795,0.62044 13.49468,-0.4499 z M 27.188831,194.83214 C 22.114255,178.26247 18.361344,141.01905 19.497064,118.5 c 1.100431,-21.819354 5.545021,-61.854189 7.034155,-63.360453 0.195995,-0.198249 0.09202,12.401751 -0.23106,28 -0.799437,38.597013 1.326042,54.936133 9.738244,74.860453 1.741607,4.125 3.120172,8.57668 3.063476,9.89261 -0.0995,2.30956 4.079557,22.00312 5.337264,25.15153 0.489748,1.22598 -0.67669,1.80651 -5.661149,2.8175 -3.452897,0.70034 -7.243397,1.50494 -8.423333,1.78799 -1.745288,0.41868 -2.335635,-0.10671 -3.16583,-2.81749 z m 74.571049,-24.7867 C 90.180052,162.30038 79.538448,150.4522 70.171671,134.87567 c -1.907863,-3.17269 -1.816506,-3.59436 -0.692134,-4.85869 2.978386,-3.34911 5.628711,-2.04064 4.440194,1.92351 C 73.467905,133.44749 73,134.35498 73,134.62972 c 0,0.27473 0.955415,2.72044 2.123144,5.4349 1.937376,4.50355 2.415093,4.93538 5.45982,4.93538 3.239556,0 3.396058,-0.19226 5.376856,-6.60534 1.122099,-3.63293 2.057794,-7.34543 2.079322,-8.25 0.02153,-0.90456 0.665607,-0.20403 1.431288,1.55673 3.090747,7.10751 25.64633,27.58055 28.4661,25.83784 0.60533,-0.37412 0.0279,1.71401 -1.28324,4.64028 -4.2401,9.46347 -6.00881,12.82049 -6.75473,12.82049 -0.40205,0 -4.06446,-2.22955 -8.13868,-4.95456 z M 199.29677,145.25 C 202.1873,134.16954 202.37154,107.03732 199.61082,99 195.95325,88.351654 191.85149,81.629469 184.61075,74.4171 173.62963,63.478987 160.13526,57.921468 143.86238,57.635297 L 136.16884,57.5 l -0.65979,-11 c -0.36288,-6.05 -1.9656,-23.845852 -1.78665,-28.245852 0.29204,-7.180515 1.85869,2.67995 2.5692,15.245852 0.43538,7.7 1.15266,14.664265 1.59394,15.476144 0.51267,0.943208 4.37875,2.075177 10.7084,3.135367 18.38579,3.079541 30.25375,8.69942 40.91123,19.37284 12.3998,12.418342 17.9106,26.437947 17.8912,45.515649 -0.0131,12.88367 -1.68563,20.66807 -6.4822,30.17004 -1.61863,3.20648 -5.29028,8.84214 -5.48172,8.84214 -0.19145,0 2.75237,-6.49968 3.86432,-10.76218 z M 40.715105,149.34805 C 39.689978,147.68936 36.231377,133.59383 34.844685,125.42316 33.354568,116.64309 33.322039,69.538268 34.798125,58 c 0.801253,-6.26324 0.857753,-5.990055 1.551152,7.5 0.395786,7.7 1.138375,19.074594 1.650198,25.276875 0.592054,7.174525 -0.01525,12.087575 -0.03444,13.815095 -0.04669,4.20367 -0.368194,5.29006 -0.348705,8.41676 0.03363,5.39562 0.894565,2.07804 2.21597,-0.29475 1.591386,-2.85758 0.25245,0.47899 2.640191,9.98789 0.856529,3.41103 2.434626,8.24853 3.506882,10.75 1.072256,2.50147 2.658519,4.00046 2.18628,4.00046 -0.472238,0 -3.060072,3.31232 -4.411996,6.69133 -1.351923,3.37902 -2.71927,5.72099 -3.038548,5.20439 z m 82.083745,-22.48024 c -0.16733,-9.16457 0.21414,-19.66845 0.8668,-23.86781 0.64111,-4.125 1.71671,-15.15 2.39022,-24.5 1.98623,-27.573898 3.1742,-22.483566 2.68385,11.5 -0.38201,26.47483 -0.73489,31.9517 -2.6739,41.5 -1.22859,6.05 -2.39902,11.16552 -2.60096,11.36781 -0.20193,0.2023 -0.50164,-6.9977 -0.66601,-16 z m -72.823724,2.62596 c 0.382812,-1.46388 0.634329,-3.29907 -0.02713,-2.89027 -1.125602,0.69567 -1.149638,-7.83195 -2.850941,-18.44952 l -1.016852,-6.34602 4.080043,-5.403981 C 52.404271,93.43179 54.481968,91 54.777352,91 c 0.928309,0 -0.767976,37.39062 -1.7404,38.36305 -0.566737,0.56674 -3.430382,1.54009 -3.061826,0.13072 z M 62.744486,97.5 c 0.330495,-10.59885 -3.764629,-12.102089 -0.332162,-15.391827 8.969045,-8.59609 4.499182,-0.691723 4.988841,9.047022 0.521548,10.372975 2.152526,7.06596 -2.057646,14.017715 -0.670618,1.10731 -3.427137,4.32145 -3.844747,6.13147 C 61.081163,113.11441 62.470084,106.3 62.744486,97.5 Z M 74,82.685455 71.39857,73.774451 78.197003,68.08651 c 4.940078,-3.845496 7.869734,-5.888158 12.65087,-9.265535 1.035696,-1.013585 -2.826631,6.13774 -3.398113,16.679025 -0.387627,7.15 0.77061,13.1875 -1.077269,13.416667 -0.305053,0.03783 2.365856,-3.292372 2.365856,-4.813458 C 88.738347,81.352648 85.96735,83.830396 80,89 l -6,5.197889 z M 93.904652,65.230468 c 0.139581,-9.447646 10.575028,-18.025422 7.388318,-4.879391 -3.036668,12.527122 0.74495,13.402332 -5.083752,17.31559 -9.748842,6.545152 -2.460887,-1.855522 -2.304566,-12.436199 z m 11.174298,-5.397135 c 0.0434,-4.583333 -2.73175,-7.710389 -2.4855,-7.116356 0.56996,1.374876 13.54836,-4.048818 16.30359,-5.328219 1.33996,-0.622216 1.27766,-0.202605 0.71694,-15.820597 -0.37405,-10.418589 -1.42751,-18.718991 -1.98604,-19.391976 -0.69338,-0.835474 -0.37468,-2.2146721 0.37955,-2.6807885 1.45537,-0.8994693 16.70106,-1.5826148 16.15587,-0.7017556 0.68063,2.5547231 0.81288,4.2600231 0.82137,6.5153761 0.66971,14.503757 -0.34592,3.685017 -0.75,3.066615 -0.40408,-0.618402 -2.17172,-1.436064 -3.9281,-1.817026 -3.05382,-0.662381 -3.23923,-0.522472 -4.2418,3.200795 -1.40054,5.201184 -4.77837,26.075111 -5.57906,34.476798 l -0.64196,6.7362 -6.67189,3.2638 C 109.50235,66.03129 106.1625,67.65 105.75,67.833333 c -0.4125,0.183334 -0.71447,-3.416666 -0.67105,-8 z"
         id="path412"
         sodipodi:nodetypes="scccccsssssssssccsssssscssssscssccssssscsssssssssssssssssssssssssscsssssscsssssssssssssssssssssssssssssssssscssssscsssscsccssssccssssssssscccsssscssss" />
      <path
         style="fill:#070707"
         d="M 66.674913,508.43848 C 60.378482,506.42524 51.916472,498.23195 49.535107,491.84297 47.852531,487.32877 48.003798,482.86094 54.467024,346.1736 61.826927,190.52295 61.768756,203.98558 55.117472,195.63776 51.082414,190.57349 36.915018,161.69549 33.463713,151.5 28.217359,136.00176 26.875962,127.089 26.314822,104 26.010861,91.493066 26.31408,74.343498 27.039736,63 27.725827,52.275 28.56006,37.96979 28.893587,31.210645 c 0.584055,-11.836248 1.266087,-14.122914 4.233968,-14.195332 1.660287,-0.04051 3.381427,3.890421 5.590409,12.768004 3.730564,14.992601 4.095902,17.905596 5.733625,45.716683 0.84209,14.3 2.0033,28.925 2.580467,32.5 1.62845,10.0867 5.118726,22.24922 6.102531,21.26541 0.482376,-0.48237 1.33944,-16.37693 1.904586,-35.321227 1.017374,-34.103408 1.440416,-39.791977 4.59136,-61.739089 1.79436,-12.498172 3.777714,-16.600944 7.056817,-14.597754 1.209526,0.738893 2.227082,3.381666 3.058198,7.942682 2.049983,11.249934 4.254052,42.776962 4.260347,60.940032 0.0055,15.985186 1.651885,32.715526 3.786686,38.480726 0.715579,1.93248 1.071756,0.40741 1.634833,-7 0.8576,-11.28192 1.891672,-16.34289 4.990683,-24.425479 1.718172,-4.481195 2.623145,-9.926263 3.497739,-21.045301 2.35112,-29.890677 5.515716,-51.788695 7.816791,-54.08977 5.007863,-5.007864 7.408873,4.551367 8.884663,35.372905 0.37614,7.855725 0.95363,14.155725 1.2833,14 0.32968,-0.155724 3.60176,-1.751845 7.27129,-3.546936 l 6.67189,-3.2638 0.64196,-6.7362 c 0.80069,-8.401687 4.17852,-29.275614 5.57906,-34.476798 1.00257,-3.723267 1.18798,-3.863176 4.2418,-3.200795 1.75638,0.380962 3.52402,1.198624 3.9281,1.817026 0.40408,0.618402 0.74427,6.074368 0.75599,12.124368 0.0117,6.05 0.30225,14.6 0.64562,19 l 0.62431,8 7.64766,0.135297 c 26.07626,0.461322 46.3172,15.217013 55.33898,40.342227 3.17534,8.843156 3.55541,29.541036 0.79001,43.022476 -3.52463,17.18276 -16.30694,40.71246 -31.69339,58.34125 -3.76413,4.31269 -7.6386,8.81719 -8.60994,10.01 -1.6904,2.07584 -1.59764,8.04903 2.16513,139.42419 2.49947,87.2674 3.60099,138.43345 3.02451,140.49 C 161.81528,500.35401 150.1453,508 136.32923,508 c -6.65333,0 -13.93958,-2.72512 -20.34303,-7.60845 -8.96923,-6.84002 -8.75739,5.17795 -2.53688,-143.92186 3.00527,-72.03333 5.64583,-133.96971 5.86792,-137.6364 l 0.4038,-6.66672 -5.97308,-7.33328 c -3.2852,-4.03331 -6.25994,-7.44492 -6.61053,-7.58135 -0.35058,-0.13643 -1.87493,1.71075 -3.38743,4.10486 -3.51793,5.56846 -3.54296,-4.81626 0.37462,155.40473 2.56552,104.92422 2.94738,131.05478 1.96319,134.33973 -1.54655,5.16191 -8.741442,12.19201 -15.993695,15.62735 -6.76939,3.20662 -16.513145,3.91802 -23.419202,1.70987 z m 22.053922,-7.79825 C 93.085713,498.3872 98.80488,491.56903 99.491274,487.80966 100.0152,484.94014 95.117416,270.56013 93.418515,222 L 92.806268,204.5 99.558362,194 c 8.278128,-12.87309 18.335358,-33.26304 21.842938,-44.28421 5.82396,-18.29945 6.74492,-25.78394 7.28641,-59.21579 0.55714,-34.397592 -0.62909,-39.852083 -2.60973,-12 -2.02918,28.53481 -6.69229,49.7062 -13.87606,63 -2.28537,4.22916 -3.20307,5.04832 -5.95256,5.31341 -3.73703,0.3603 -4.22253,-0.48478 -7.0608,-12.29011 C 97.729201,128.45333 97.523544,121.95646 97.67345,86.659884 97.768847,64.19782 97.625876,46.04079 97.355737,46.31093 97.085598,46.581069 96.004478,58.884121 94.953249,73.651046 93.90202,88.417971 92.761269,102.975 92.418246,106 91.41641,114.83484 88.080684,131.52811 85.917816,138.53066 83.982039,144.79797 83.815441,145 80.582964,145 77.525822,145 77.063381,144.57482 75.063005,139.92482 68.787677,125.33743 66.937612,111.58783 66.293463,74.75 65.99773,57.8375 65.42859,44 65.028707,44 c -1.073806,0 -2.015515,17.088359 -2.039004,37 -0.02244,19.02617 -1.371889,43.04368 -3.098364,55.14494 -1.06492,7.46426 -1.165047,7.6598 -4.236774,8.27415 -3.733153,0.74663 -4.614517,-0.16517 -8.710548,-9.01136 C 41.078026,122.73897 38.332513,104.6359 36.3418,65.5 35.654858,51.99524 35.600015,51.729933 34.791434,58 c -0.461028,3.575 -0.936644,18.65 -1.056926,33.5 -0.18045,22.2786 0.09115,28.66123 1.55321,36.5 3.775023,20.23967 9.99078,36.08972 24.021303,61.25382 L 67.8097,204.5 61.438526,338 c -3.504146,73.425 -6.386328,137.45543 -6.40485,142.28984 -0.04027,10.51179 1.934571,15.33723 7.889711,19.27816 6.540866,4.32854 18.543986,4.82727 25.805448,1.07223 z m 59.804195,-1.55388 c 4.46021,-1.97068 9.1366,-6.92186 10.07714,-10.66929 0.33528,-1.33585 -1.17353,-64.63866 -3.3529,-140.67293 L 151.29477,209.5 159.72375,200 c 16.24773,-18.31223 27.24385,-37.47982 31.77988,-55.39621 6.88237,-27.184 2.79886,-49.996887 -11.55988,-64.580295 -9.1179,-9.260565 -23.27707,-15.024413 -36.90385,-15.022648 l -6.5399,8.47e-4 -0.10034,26.249153 c -0.0843,22.059563 -0.43693,28.102303 -2.20919,37.859773 -2.99322,16.47979 -7.27787,29.2372 -15.3675,45.75638 -8.10525,16.55106 -8.23875,14.5365 1.75337,26.45939 l 6.41227,7.6513 -5.48074,129.76116 c -6.82785,161.65521 -6.53904,150.39342 -3.94608,153.87177 6.48716,8.70226 19.68597,11.46198 30.97124,6.47573 z M 112.52208,120.29399 c 3.77928,-12.98918 8.13641,-50.308414 5.87087,-50.284606 -1.49432,0.0157 -10.89934,5.69092 -12.37233,7.465772 -2.81832,3.395869 -2.33052,48.341764 0.60776,55.998794 0.84159,2.19316 2.49958,-1.51457 5.8937,-13.17996 z"
         id="path410" />
    </g>
  </g>
</svg>
