<?xml version="1.0" encoding="UTF-8" standalone="no"?>
<!-- Created with Inkscape (http://www.inkscape.org/) -->

<svg
   version="1.1"
   id="svg488"
   width="235.41516"
   height="221.47484"
   viewBox="0 0 235.41516 221.47484"
   sodipodi:docname="よ.png"
   xmlns:inkscape="http://www.inkscape.org/namespaces/inkscape"
   xmlns:sodipodi="http://sodipodi.sourceforge.net/DTD/sodipodi-0.dtd"
   xmlns="http://www.w3.org/2000/svg"
   xmlns:svg="http://www.w3.org/2000/svg">
  <defs
     id="defs492" />
  <sodipodi:namedview
     id="namedview490"
     pagecolor="#ffffff"
     bordercolor="#000000"
     borderopacity="0.25"
     inkscape:showpageshadow="2"
     inkscape:pageopacity="0.0"
     inkscape:pagecheckerboard="0"
     inkscape:deskcolor="#d1d1d1"
     showgrid="false" />
  <g
     inkscape:groupmode="layer"
     inkscape:label="Image"
     id="g494"
     transform="translate(-14.463076,-13.200501)">
    <g
       id="g498">
      <path
         style="fill:#afafaf"
         d="m 43.5,227.59582 c -19.742034,-6.89456 -31.845934,-22.78205 -28.475899,-39.31747 3.157871,-15.49441 14.70883,-26.1919 32.349805,-29.95957 5.680101,-1.21313 10.904147,-1.38712 25.744968,-0.85747 16.735731,0.59728 18.682707,0.49814 19.25,-0.9802 1.3295,-3.46462 -0.11456,-84.797399 -1.950436,-109.853048 -0.521465,-7.116842 -0.38896,-8.784903 0.669807,-8.43198 0.725929,0.241976 4.373204,2.855963 4.754288,4.468552 0.381084,1.61259 -1.789707,30.566477 -1.473213,65.682276 l 0.575445,63.84692 -2.722383,-1.79702 C 84.347287,165.19853 81.833302,164.5 71,164.5 c -10.049933,0 -10.769407,0.14608 -16.785218,3.4081 -3.45687,1.87445 -7.704399,5.02445 -9.438952,7 -1.734553,1.97554 1.781573,-0.86679 1.337388,-0.86679 -0.444184,0 -7.125308,4.82072 -9.088702,7.27356 -3.192074,3.98781 -5.43972,9.54482 -4.460242,15.61403 0.634631,3.93241 5.677528,11.07137 6.25274,8.92068 0.478929,-1.79069 -4.017273,-7.43292 -3.612109,-2.59421 0.680796,8.1305 5.860031,16.34191 12.149605,21.46043 6.925724,5.63622 6.630086,6.54158 -3.85451,2.88002 z m 21.646765,0.30127 c -8.054077,-1.532 -15.792966,-7.44466 -19.74374,-15.08462 -1.521018,-2.94132 -1.519298,-2.94489 0.786312,-1.6331 1.521923,0.86592 6.065492,1.31569 13.310663,1.31765 10.050145,0.003 11.496849,-0.241 16.753862,-2.82246 3.982874,-1.95579 6.673334,-4.16184 8.741184,-7.16736 3.181565,-4.62425 7.03546,-13.81259 6.004954,-19.33974 -1.325076,-7.1071 0.193097,-3.25209 1.578008,-2.10272 0.867905,0.7203 2.752214,3.5879 4.187354,6.37245 3.401388,6.59958 3.647828,16.77932 0.571673,23.61362 -5.642429,12.53576 -18.760366,19.40083 -32.19027,16.84628 z M 174.85381,204.79447 C 153.60246,192.09046 130.71073,179.66412 110.75,173.47664 L 102,170.76429 V 138.38214 106 l 3.75,-6.1e-4 3.75,-6.1e-4 -0.25161,28.25061 c -0.13838,15.53784 0.0866,28.76434 0.5,29.39224 0.41339,0.62789 6.15161,3.26 12.75161,5.84913 19.59262,7.68604 56.26089,26.63653 64.58886,33.38011 2.23833,1.81249 2.28876,2.08887 0.89182,4.88716 l -2.12687,3.61222 z m -12.31989,3.29135 c -11.39322,-6.52571 -1.98436,-1.4964 -7.78116,-4.44584 -4.69212,-2.78407 -15.9098,-9.67515 -18.25276,-11.89941 -1.3448,-1.27667 12.03408,5.35579 22.21172,11.01125 4.51644,2.50968 7.97738,4.94221 7.69098,5.40562 -0.77019,1.24619 -1.64172,1.61198 -3.86878,-0.0716 z M 80.5,174.94263 c -2.2,-0.45505 -8.049207,-0.97822 -13,-0.98985 -9.989467,-0.0235 -12.562069,0.73567 -5,-1.48078 2.222886,-0.65153 5.830824,-1.35288 8.068499,-1.39515 4.503217,-0.0851 14.005931,2.42555 14.94756,3.94913 0.669178,1.08276 6.374658,2.81821 -5.016059,-0.0833 z M 101.65197,88.344437 C 101.29338,82.483878 101,67.633878 101,55.344437 101,36.149382 95.728346,33 97.016926,33 c 0.825,0 7.296234,-0.01181 7.678974,-0.02623 0.995,-0.03751 1.12461,1.709752 2.21498,29.858798 0.64271,16.592269 1.38715,25.82161 2.15764,26.75 0.91582,1.1035 4.37461,1.417437 15.61653,1.417437 15.16548,0 40.36677,-2.72801 48.58774,-2.913483 6.14828,-0.138711 8.25872,-1.499631 7.80847,2.523791 0.0652,2.002751 0.0757,7.359925 0.10151,9.250905 0,1.626312 -0.89746,-1.902946 -2.43277,-1.491499 -1.2375,0.331637 -18.94412,0.609121 -39.34803,0.616631 L 102.30393,99 Z"
         id="path502"
         sodipodi:nodetypes="ssssssssscsssssssssssssscssssssssscccccssssscsccsssccssssccssscssssccsscss" />
      <path
         style="fill:#060606"
         d="M 60,233.14887 C 48.558377,228.4897 45.927079,226.74445 41.931446,221.16462 36.656647,213.79845 34.630191,206.66408 35.216722,197.52469 36.044081,184.63267 42.789383,174.10235 54.173987,167.92984 60.236608,164.64281 60.937182,164.5 71,164.5 c 10.835602,0 13.346344,0.69798 21.230244,5.90196 l 2.730243,1.80217 -0.526661,-62.35206 C 94.144161,75.558429 93.678592,45.608256 93.399226,43.296126 92.988597,39.89761 92.331181,38.812833 89.967599,37.633723 88.35957,36.831532 71.233474,31.990831 51.909607,26.876609 30.217294,21.135558 16.574675,17.055195 16.250907,16.21147 c -0.288417,-0.751604 0.09964,-1.96332 0.862349,-2.692703 1.15765,-1.107065 7.829663,0.388926 40.386744,9.05547 21.45,5.709891 40.0125,10.391552 41.25,10.403692 L 101,33 v 22.344437 c 0,12.289441 0.29338,27.139441 0.65197,33 L 102.30393,99 h 37.31102 c 35.58434,0 37.55568,-0.09737 42.59803,-2.104074 2.90786,-1.15724 7.08702,-2.672043 9.28702,-3.366227 2.2,-0.694184 15.89255,-6.506883 30.42789,-12.917107 26.43473,-11.657968 28.62216,-12.262942 27.82086,-7.694374 -0.14347,0.817944 -15.48609,8.110817 -36.24875,17.230263 l -36,15.812049 -37.75,0.0197 L 102,106 v 32.38214 32.38215 l 8.75,2.71235 c 10.76744,3.33772 27.31252,10.03932 38.41184,15.55876 11.96585,5.95034 38.96768,22.25671 38.08482,22.99936 C 185.76078,213.28467 178.17534,215 174.13398,215 171.86029,215 170,215.31315 170,215.69589 c 0,0.38275 2.1375,2.59314 4.75,4.91198 3.47502,3.08442 4.34738,4.35961 3.25,4.75078 -1.46845,0.52344 -92.692034,8.41899 -106.5,9.21775 -5.215177,0.30168 -8.147386,-0.0623 -11.5,-1.42753 z m 23.681603,-7.7846 C 93.641499,220.66565 99.388963,211.19631 99.380044,199.5 99.373404,190.79239 96.284062,184.18049 89.384502,178.10725 75.289756,165.70056 52.68541,170.6977 44.635105,188 c -2.968599,6.38033 -2.924483,17.92119 0.09027,23.61647 8.135317,15.36871 23.801165,20.89725 38.956223,13.7478 z M 129.5,222.98749 c 15.4,-1.14343 29.08273,-2.30958 30.40606,-2.59145 2.16236,-0.46057 2.2507,-0.66785 0.87217,-2.04639 -1.37854,-1.37853 -4.45831,-1.17902 -30.40607,1.96977 -16.88985,2.0496 -29.25655,3.13524 -29.79837,2.61592 -0.54197,-0.51947 -1.47538,-0.43198 -2.249996,0.2109 -1.992174,1.65336 -1.595587,2.61605 0.926206,2.24831 1.2375,-0.18046 14.85,-1.26363 30.25,-2.40706 z m -2.7465,-9.49677 c 11.41058,-1.38011 21.4215,-2.64126 22.2465,-2.80255 2.11879,-0.41424 -22.50298,-16.49703 -34.59357,-22.59632 C 108.85496,185.29133 104.06069,183 103.7525,183 c -0.30819,0 0.29641,2.25483 1.34357,5.01073 2.72013,7.15879 2.5149,15.34642 -0.64519,25.73927 -0.42611,1.40138 -0.26167,2.25 0.43599,2.25 0.61607,0 10.45606,-1.12918 21.86663,-2.50928 z m 39.6492,-5.33328 c 0.2864,-0.46341 -3.17454,-2.89594 -7.69098,-5.40562 -10.41022,-5.7847 -23.99593,-12.3428 -20.74968,-10.0163 1.35411,0.97046 6.97911,5.00048 12.5,8.95559 9.41064,6.7417 14.49563,8.80443 15.94066,6.46633 z"
         id="path500" />
    </g>
  </g>
</svg>
