<?xml version="1.0" encoding="UTF-8" standalone="no"?>
<!-- Created with Inkscape (http://www.inkscape.org/) -->

<svg
   version="1.1"
   id="svg308"
   width="711.2052"
   height="171.82133"
   viewBox="0 0 711.2052 171.82133"
   sodipodi:docname="ら.png"
   xmlns:inkscape="http://www.inkscape.org/namespaces/inkscape"
   xmlns:sodipodi="http://sodipodi.sourceforge.net/DTD/sodipodi-0.dtd"
   xmlns="http://www.w3.org/2000/svg"
   xmlns:svg="http://www.w3.org/2000/svg">
  <defs
     id="defs312" />
  <sodipodi:namedview
     id="namedview310"
     pagecolor="#ffffff"
     bordercolor="#000000"
     borderopacity="0.25"
     inkscape:showpageshadow="2"
     inkscape:pageopacity="0.0"
     inkscape:pagecheckerboard="0"
     inkscape:deskcolor="#d1d1d1"
     showgrid="false" />
  <g
     inkscape:groupmode="layer"
     inkscape:label="Image"
     id="g314"
     transform="translate(-9.1381073,-9.1786699)">
    <g
       id="g318">
      <path
         style="fill:#adadad"
         d="m 258.52672,159.75 c -1.50409,-3.4375 -2.97285,-6.84324 -3.26391,-7.56831 -0.39457,-0.98291 0.4419,-1.23732 3.28782,-1 4.17705,0.34833 10.34783,0.1619 11.73014,9.37981 0.63761,4.25192 -5.35348,5.4385 -7.08878,5.4385 -1.40979,0 -2.66826,-1.68596 -4.66527,-6.25 z m 14.81121,1.07887 2.0837,-9.60245 9.03919,-1.22934 c 9.88522,-1.3444 19.86528,-4.11641 25.93122,-7.20253 5.5727,-2.83518 13.03795,-10.14769 14.83913,-14.53552 3.95742,-9.64058 3.61332,-9.16525 3.80711,-5.25903 0.32093,6.4688 -0.22472,9.43442 -2.59739,14.11665 -4.73369,9.34148 -18.53973,18.34764 -35.59986,23.22302 -14.90318,4.25897 -19.06765,7.69925 -17.5031,0.4892 z m 60.32661,-25.44331 c 2.54884,-9.23028 0.52649,-23.00363 -7.32254,-30.09475 -7.59199,-6.858909 -19.90807,-12.246044 -31.61105,-12.276029 -5.65616,-0.01449 -5.75674,-0.06385 -5.13977,-2.522066 0.92165,-3.672145 -3.73723,-4.860682 -7.74391,-5.265302 -2.64727,-0.267338 -0.0948,-2.993075 5.23464,-3.992773 12.31439,-2.309942 21.82921,-1.186682 32.48732,3.835253 17.88397,8.426642 25.26211,24.957607 19.54296,43.786647 -2.20128,7.24723 -7.30596,13.25866 -5.44765,6.52902 z M 227.11091,119 c -0.0481,-1.925 1.02471,-14.3 2.38392,-27.5 2.82051,-27.391453 3.06252,-36.131744 1.25517,-36.861024 -0.6875,-0.277413 0.4375,1.483392 2.5,1.439971 L 237,56 l 1.71981,9.108028 c 3.12898,16.570956 -5.94931,35.460872 -9.1417,49.922232 -2.03612,9.22351 -2.39246,6.96423 -2.4672,3.96974 z m 13.48394,-16.78997 c 0.84025,-4.649505 0.0197,-9.38472 0.49466,-5.83824 L 242,103.17013 247.13063,99.085067 C 251.4117,96.302578 255.7693,93.841254 260,91.994484 c 6.13549,-2.805634 25.26382,-10.603144 26.3234,-10.603463 14.31058,-0.0043 -8.82407,5.513746 -13.11366,7.867279 -4.28959,2.353533 -14.23926,6.124401 -20.99755,9.863464 l -12.28782,6.798296 z M 346.81797,54.250819 c 12.27489,-0.159195 32.07489,-0.159008 44,4.14e-4 11.92512,0.159422 1.88203,0.289672 -22.31797,0.289444 -24.2,-2.28e-4 -33.95691,-0.130664 -21.68203,-0.289858 z M 73.25,52.250301 c 22.9625,-0.149734 60.5375,-0.149734 83.5,0 22.9625,0.149734 4.175,0.272244 -41.75,0.272244 -45.925,0 -64.7125,-0.12251 -41.75,-0.272244 z M 278.52039,36.66939 262.73146,30.095339 281.3856,28.607401 c 9.8402,-0.784898 18.62124,1.564984 19.32289,1.83423 0.92305,0.354208 0.37944,2.153152 -1.96638,6.507311 -1.78316,3.309774 -3.69211,5.988986 -4.24211,5.953805 -0.55,-0.03518 -7.74082,-2.840192 -15.97961,-6.233357 z m 67.29819,-11.418638 c 12.82521,-0.158372 33.52521,-0.1582 46,3.83e-4 12.47478,0.158582 1.98142,0.28816 -23.31858,0.28795 -25.3,-2.11e-4 -35.50664,-0.12996 -22.68142,-0.288333 z M 71.325163,23.25022 C 95.429003,23.100976 134.579,23.101029 158.32516,23.250337 182.07132,23.399646 162.35,23.521755 114.5,23.52169 66.65,23.521625 47.221323,23.399464 71.325163,23.25022 Z M 239.71154,21.378205 c -0.34199,-0.341987 0.48904,-2.81393 1.84674,-5.493207 1.35769,-2.679277 2.35,-5.06197 2.20512,-5.294872 -0.14487,-0.232903 0.0741,-0.7609593 0.4866,-1.1734593 0.4125,-0.4125 0.75,-0.2749822 0.75,0.3055951 0,0.5805772 4.3875,2.6742832 9.75,4.6526792 5.3625,1.978397 12,4.482331 14.75,5.564298 l 8.94544,3.08003 -20.11828,0.451441 c -9.39351,0.210784 -18.27363,-1.750513 -18.61562,-2.0925 z"
         id="path322"
         sodipodi:nodetypes="ssssssscsssssssssssssssscssscsscsscccssscsssssssssscsssssssssssssssssssscsss" />
      <path
         style="fill:#020202"
         d="m 267.55214,179.75 c -0.2118,-0.6875 -0.63974,-2.42169 -0.95096,-3.85375 -0.56361,-2.59332 -0.61501,-2.60601 -12.83353,-3.16784 -15.97806,-0.73469 -24.12015,-3.16243 -29.1028,-8.67762 -6.45229,-7.14192 -6.79042,-15.87635 -1.18005,-30.48249 C 232.36994,110.4366 237,86.592643 237,63.967519 v -7.820572 l -8.65665,-0.323473 c -6.20811,-0.23198 -9.5316,0.100801 -11.75,1.176526 -2.669,1.294229 -15.9883,1.53966 -97.09335,1.78911 C 60.821749,58.969583 23.10698,58.705728 19.131576,58.086925 8.9339675,56.499588 8.9042579,56.438381 9.2260754,37.679808 9.5791624,17.098561 8.461357,18.18246 30.597455,16.956685 c 20.528049,-1.13673 147.125405,-1.145283 167.591355,-0.01132 12.20099,0.676022 16.36935,1.271277 18.75,2.677562 1.68365,0.99456 3.06132,2.048767 3.06148,2.342683 1.6e-4,0.293915 20.58766,0.50524 45.75,0.469609 42.29569,-0.05989 46.08945,-0.205681 50.24971,-1.93104 4.07127,-1.688456 8.3109,-1.906077 44.5,-2.284199 45.72383,-0.477746 59.36392,0.3641 63.12332,3.895876 1.85101,1.73893 2.37668,3.276453 2.37668,6.951471 0,3.380344 0.44864,4.890856 1.58179,5.325686 C 428.45177,34.726855 493.96714,35 573.17149,35 h 144.00792 l 1.84317,2.25 c 1.7066,2.083283 1.72534,2.435242 0.25288,4.75 -0.87466,1.375 -2.19445,2.859861 -2.93287,3.29969 C 715.36446,45.882297 715,48.767248 715,55.927245 715,63.443175 714.64714,66.047962 713.5,67 c -1.19672,0.993186 -1.80328,0.993186 -3,0 C 709.37471,66.066095 709,63.557852 709,56.959343 709,52.12167 708.72686,47.451771 708.39301,46.581787 707.84667,45.158043 699.96412,45 629.5,45 559.03588,45 551.15333,45.158043 550.60699,46.581787 550.27314,47.451771 550,52.12167 550,56.959343 550,63.557852 549.62529,66.066095 548.5,67 c -1.1797,0.979064 -1.81305,0.985079 -2.96606,0.02817 -1.07286,-0.8904 -1.54221,-3.940455 -1.75,-11.372445 L 543.5,45.5 H 485 426.5 l -0.29777,5.120564 c -0.22976,3.950953 -0.87625,5.664062 -2.83037,7.5 L 420.83927,60.5 H 369.16963 317.5 l -3.61803,-2.25 C 310.32336,56.03696 309.72972,56 277.74326,56 h -32.52068 l -0.57024,3.25 c -0.31364,1.7875 -0.86361,9.325 -1.22217,16.75 -0.35856,7.425 -1.25713,17.082407 -1.99681,21.460905 -0.73969,4.378495 -1.25229,8.022505 -1.13912,8.097785 0.11317,0.0753 9.39374,-4.96962 20.6235,-11.210905 C 273.37819,87.422507 282.4303,83 284.14469,83 c 3.54309,0 6.35586,3.869515 5.44649,7.492715 -0.61697,2.458221 -0.51639,2.507574 5.13977,2.522066 16.86082,0.0432 32.04707,7.935969 38.83097,20.181669 2.57067,4.64034 2.93592,6.30395 2.92077,13.30355 -0.0184,8.50018 -1.93829,13.89137 -6.37628,17.90499 -1.15853,1.04774 -2.10641,2.45535 -2.10641,3.12803 0,0.67267 -1.0125,1.90918 -2.25,2.74781 l -2.25,1.52477 2.25,2.13615 c 1.2375,1.17489 2.25,2.81409 2.25,3.64266 0,3.95013 -4.8398,6.2434 -31.24462,14.80481 C 282.14898,177.12515 269.68955,181 269.06776,181 c -0.62179,0 -1.30382,-0.5625 -1.51562,-1.25 z m -6.2381,-13.40224 3.81403,-0.63023 -0.65556,-4.10876 c -1.23883,-7.76439 -3.78712,-17.11682 -6.1603,-22.60877 -2.66334,-6.16344 -10.33135,-18 -11.66085,-18 -1.35876,0 -15.54876,14.09792 -17.71033,17.59541 -2.52717,4.08906 -3.63231,14.32147 -1.9781,18.3151 2.14241,5.17222 8.38509,7.87796 20.95642,9.08306 4.16936,0.39968 8.03065,0.78468 8.58065,0.85555 0.55,0.0709 2.71632,-0.15473 4.81404,-0.50136 z m 29.52699,-6.00809 c 23.71842,-6.77816 38.30183,-19.65076 38.30183,-33.80855 0,-6.65405 -1.91584,-11.23743 -6.69481,-16.0164 C 310.08413,98.1508 287.48988,97.246496 265.5,108.23545 c -9.08517,4.54012 -8.97885,4.33995 -5.11753,9.63456 7.34303,10.06872 14.60641,28.38944 16.20206,40.86714 0.76728,6.00007 -0.59556,5.84688 14.2565,1.60252 z M 413.75,54.352017 419,53.721418 V 39.991551 26.261685 l -3.75,-0.619837 c -4.88903,-0.808108 -88.61097,-0.808108 -93.5,0 L 318,26.261685 v 13.808792 13.808792 l 3.75,0.392263 c 6.44567,0.674238 86.47388,0.744249 92,0.08048 z M 204,52.15075 212.5,51.5 l 0.27723,-13.598324 0.27723,-13.598325 -9.18085,-0.651675 C 191.93093,22.803961 37.09266,22.802286 25.153625,23.649743 L 16,24.299485 V 37.630691 C 16,52.876488 15.159431,51.701867 26.5,52.303515 38.230804,52.925866 195.64515,52.790387 204,52.15075 Z M 310.5,39.5 v -9 L 266.25,30.239598 222,29.979196 v 8.843735 c 0,4.864055 0.30467,9.148407 0.67705,9.520784 0.37237,0.372376 20.28487,0.559876 44.25,0.416666 L 310.5,48.5 Z"
         id="path320" />
    </g>
  </g>
</svg>
