<?xml version="1.0" encoding="UTF-8" standalone="no"?>
<!-- Created with Inkscape (http://www.inkscape.org/) -->

<svg
   version="1.1"
   id="svg398"
   width="118.51713"
   height="279.29614"
   viewBox="0 0 118.51713 279.29614"
   sodipodi:docname="り.png"
   xmlns:inkscape="http://www.inkscape.org/namespaces/inkscape"
   xmlns:sodipodi="http://sodipodi.sourceforge.net/DTD/sodipodi-0.dtd"
   xmlns="http://www.w3.org/2000/svg"
   xmlns:svg="http://www.w3.org/2000/svg">
  <defs
     id="defs402" />
  <sodipodi:namedview
     id="namedview400"
     pagecolor="#ffffff"
     bordercolor="#000000"
     borderopacity="0.25"
     inkscape:showpageshadow="2"
     inkscape:pageopacity="0.0"
     inkscape:pagecheckerboard="0"
     inkscape:deskcolor="#d1d1d1"
     showgrid="false" />
  <g
     inkscape:groupmode="layer"
     inkscape:label="Image"
     id="g404"
     transform="translate(-24.164452,-10.703855)">
    <g
       id="g408"
       inkscape:export-filename="g408.svg"
       inkscape:export-xdpi="96"
       inkscape:export-ydpi="96">
      <path
         style="fill:#afafaf"
         d="m 82.015313,209.25 c 0.01984,-4.85823 0.747538,-5.82391 4.984687,-6.61486 10.437976,-1.94844 21.17356,-10.45381 25.79789,-20.43864 3.25624,-7.03086 0.99418,-8.00781 -1.13021,-15.2548 4.03502,-11.26563 6.94982,-26.51087 8.98564,-38.4417 1.52033,-9.05605 1.9941,-16.49931 1.84668,-42.115911 -0.22172,-38.526787 -0.83468,-40.415034 2.35612,-30.1086 0.41901,1.353424 2.02376,3.899511 2.97249,4.724511 3.76147,3.27091 5.65582,71.31061 2.70164,89.5 -2.26981,13.97559 -7.12434,32.41805 -12.69463,37.98834 C 116.50209,189.82187 114,188.47198 114,188.93774 114,191.58128 86.208909,213 82.77888,213 c -0.428384,0 -0.771989,-1.6875 -0.763567,-3.75 z m -13.80929,-1.97045 c -4.980498,-3.48361 -5.159566,-3.75259 -3.024072,-4.54256 1.903521,-0.70416 5.559218,-3.98685 4.321519,-4.86148 -1.156998,-0.81761 -2.925109,-0.42078 -1.357284,0.13014 1.1,0.38653 1.816314,3.6336 3.603814,4.14981 2.960274,0.85488 3.25,1.29094 3.25,4.89154 0,2.17415 -0.651059,5.28167 -1.063559,5.27684 -0.4125,-0.005 -2.818731,-3.00771 -5.730418,-5.04429 z M 76,195.36983 C 81.539549,193.0026 98.040004,177.61893 104.82045,168.5 l 4.46135,-6 -0.55462,5.61404 C 107.16542,183.92291 96.255853,194.59375 80.613414,195.61263 77.251036,195.83164 75.175,195.72238 76,195.36983 Z M 33.156325,135.5 c -0.08011,-7.82393 0.955696,-26.79329 2.347967,-43 1.370219,-15.95 1.865178,-30.509336 1.866388,-31.108553 0.0012,-0.599217 1.820861,-0.613319 3.277189,-1.276867 l 2.647868,-3.754118 -0.613936,9.343603 c -0.9648,14.683471 -1.922858,38.314355 -1.227516,48.491545 0.677424,9.91496 0.913186,10.81515 3.23011,12.33325 4.2486,2.78379 10.343985,0.26099 17.28052,-7.15217 6.238813,-6.6675 14.685136,-18.22671 14.285085,-19.549837 -0.59167,-1.956895 1.605769,-0.213705 6.643444,5.270127 l 5.393445,5.87111 -2.643445,3.99452 c -2.351692,3.77676 -5.209157,7.85029 -7.933408,10.63848 -8.487216,8.49344 -5.896803,6.19886 -8.114057,6.89891 -6.964581,2.19892 -14.093923,7.9494 -17.076911,12.51293 -2.418333,3.6997 -7.724396,3.98494 -14.209919,1.04048 l -4.190851,-1.90266 -3.069956,-1.81521 C 29.76734,141.57811 33.235162,143.2 33.156325,135.5 Z m -8.257465,-24 c -1.842692,-11.980418 0.238581,-23.684523 1.273877,-43.898474 1.295625,-25.29683 2.731002,-26.204378 4.096486,-12.61199 0.479622,4.774281 0.659399,18.519654 -2.230654,48.617934 -1.762505,18.3555 -0.947786,22.14351 -3.139709,7.89253 z m 112.19738,-10.61199 c -0.14679,-2.200606 1.22829,-11.875528 0.56867,-21.026938 -0.90918,-12.61366 -1.50486,-17.48679 -1.37452,-19.797511 1.00835,-17.876451 2.57199,-1.036629 3.16654,8.971508 0.37461,6.305712 0.46908,21.733985 -0.33805,28.287339 -0.91528,7.431452 -1.82039,6.597652 -1.96718,4.397052 z M 127.22172,56.484355 C 127.22172,55.897957 125.425,50.860538 123.5,48 c -2.87926,-4.278566 -2.28054,3.636762 -3.5,-10.376724 -0.37332,-4.289975 -0.63454,-10.992054 -2.27127,-23.931528 -0.19795,-1.564916 0.75743,-1.871206 7.09949,-2.276073 4.03052,-0.257301 7.85552,-0.568588 8.5,-0.691748 0.64448,-0.12316 1.06101,0.333373 0.92563,1.014517 -0.13538,0.681144 0.36531,5.368904 1.11265,10.417244 0.74733,5.04834 1.14444,9.998479 0.88245,11.000309 C 135.44551,36.228389 134,34.114823 134,29.867659 c 0,-3.283332 -0.31866,-3.953674 -1.75,-3.681329 -1.44053,0.274094 -1.83842,1.745999 -2.25,8.323324 L 129.5,42.5 128.17828,36.75 c -1.04705,-4.555091 -1.72243,-5.75 -3.25,-5.75 -2.55797,0 -2.47155,2.227469 0.54187,13.966561 1.33653,5.206608 3.11439,10.334268 2.86684,10.581827 -0.24756,0.247558 -1.11527,1.522364 -1.11527,0.935967 z M 40.326632,52.5 c 2.008245,-6.984145 4.085444,-18.66912 4.085444,-20.489937 0,-1.514915 0.06768,-2.05652 -1.160337,-1.820027 -1.187946,0.228778 -2.276671,2.255392 -3.396974,6.323324 L 38.206052,42.5 37.853026,34.01106 c -0.291682,-7.013856 -0.647656,-8.545224 -2.048587,-8.812841 -1.391417,-0.265799 -0.930618,2.510457 -1.196647,6.870297 -0.312075,5.114474 -1.819665,5.601417 -2.986981,2.936165 -0.978009,-2.233022 -0.282752,-6.44087 0.97934,-12.273305 0.860646,-3.977257 1.66467,-7.780851 1.786719,-8.452432 0.295056,-1.623554 -0.234602,-1.72305 1.05883,-1.560834 0.869667,0.109069 7.817418,1.877225 13.5543,2.78332 0.816429,0.128948 1.347048,0.745965 1.160106,1.545276 C 47.944603,27.913154 45.767196,38.93441 43.89389,48.205994 40.284366,54.358009 39.531941,55.263725 40.326632,52.5 Z"
         id="path412"
         sodipodi:nodetypes="sssccsssssssssssssscssscssssssscsssssscccssscsssssssssssssssssssssssssscssssssssscssssssssccs" />
      <path
         style="fill:#070707"
         d="m 74.092852,288.61188 c -0.862578,-1.03934 -0.89584,-8.26305 -0.13238,-28.75 C 75.466369,219.45207 75.531568,220.88537 72.078964,218.5 70.486812,217.4 64.971901,213.0588 59.823607,208.85289 41.757717,194.09393 32.080755,178.1932 27.962379,156.5 25.625672,144.19159 25.635239,118.07878 27.986193,91.5 30.358046,64.684936 30.255348,59.325831 27.164135,48.602705 25.274506,42.047759 25.22992,39 27.023655,39 c 0.445323,0 1.075443,0.5625 1.400266,1.25 0.324823,0.6875 0.369244,-0.585958 0.09871,-2.829906 -0.317079,-2.630061 0.0092,-4.762235 0.918042,-6 1.350313,-1.838926 1.465079,-1.793276 2.714879,1.079906 l 1.304964,3 0.324179,-5.31284 c 0.266029,-4.35984 0.628323,-5.25474 2.01974,-4.988941 1.400931,0.267617 1.756905,1.798985 2.048587,8.812841 l 0.35303,8.48894 1.648713,-5.98664 c 1.120303,-4.067932 2.209028,-6.094546 3.396974,-6.323324 2.39104,-0.460472 2.252102,2.191032 -0.721889,13.776525 -1.336534,5.206608 -2.300259,9.596363 -2.141612,9.75501 0.158648,0.158648 1.506735,-1.949941 2.995751,-4.685753 1.489015,-2.735813 3.139939,-5.241589 3.668719,-5.568393 2.155428,-1.332128 1.867962,2.466312 -0.500187,6.609243 -1.390637,2.432833 -2.533851,5.200458 -2.540476,6.150279 -0.0091,1.299969 -3.412471,4.429135 -5.687923,5.229604 -0.09673,0.03403 -1.377354,14.007727 -2.845824,31.05266 C 30.427594,151.13411 33.479416,170.97831 50.698434,191.47678 55.910776,197.68184 71.885153,211 74.115425,211 74.601941,211 75,209.26422 75,207.14271 c 0,-3.82395 -0.05232,-3.87515 -6.053443,-5.92423 -11.186783,-3.81972 -19.620012,-12.36757 -23.12801,-23.44234 -6.65607,-21.01325 8.121595,-44.26312 29.538689,-46.47356 13.500188,-1.39334 31.423894,8.44242 37.340464,20.49084 2.47262,5.03522 2.8023,6.82422 2.8023,15.20658 0,8.20588 -0.36374,10.276 -2.67018,15.1965 -4.69445,10.01501 -15.409285,18.49346 -25.82982,20.43864 -1.925,0.35934 -3.830609,1.15094 -4.234687,1.7591 C 81.781948,205.87428 81.793182,213 82.77888,213 c 2.574225,0 20.82542,-13.34944 27.25622,-19.93597 20.41813,-20.91257 24.756,-43.79538 20.38849,-107.551815 C 128.90172,63.296022 128.76157,62.419111 126.37188,60.161579 123.8679,57.796075 119,47.977343 119,45.292236 c 0,-2.712771 2.48311,-0.683018 5.84286,4.776097 C 126.68143,53.05575 127.94104,54.6 127.642,53.5 125.24567,44.685391 123,34.808401 123,33.083387 123,31.692495 123.64094,31 124.92828,31 c 1.52757,0 2.20295,1.194909 3.25,5.75 L 129.5,42.5 130,34.509654 c 0.41158,-6.577325 0.80947,-8.04923 2.25,-8.323324 1.43134,-0.272345 1.75,0.397997 1.75,3.681329 0,4.531522 1.4483,6.262125 2.40274,2.871094 0.61438,-2.182805 0.66682,-2.190768 2.09831,-0.318659 1.00271,1.311336 1.28893,3.213611 0.90279,6 -0.42625,3.075898 -0.29942,3.710777 0.51539,2.579906 0.96068,-1.333333 1.19071,-1.333333 2.07027,0 0.54422,0.825 0.8271,1.95 0.62862,2.5 -0.54859,1.520217 -3.64081,11.490596 -4.96224,16 -0.89714,3.061519 -0.89434,7.871233 0.012,20.5 1.45133,20.22356 1.61339,55.84859 0.30025,66 -2.3645,18.27898 -8.97132,34.45726 -19.11722,46.81281 -5.97613,7.27764 -18.13057,17.32291 -26.946185,22.27018 -11.743319,6.59028 -10.599579,2.74872 -11.866306,39.85612 C 78.99848,285.4015 78.468817,290 76,290 c -0.415311,0 -1.273528,-0.62465 -1.907148,-1.38812 z M 91.613414,193.05786 C 110.03928,184.9261 114.41666,160.07478 99.839292,146.3578 94.071573,140.9305 88.367069,138.63871 80.5,138.5882 63.664254,138.48012 51.515296,150.63344 51.598577,167.5 51.662524,180.45091 59.618856,190.72073 73,195.12439 c 3.984997,1.31144 13.303484,0.27687 18.613414,-2.06653 z"
         id="path410" />
    </g>
  </g>
</svg>
