<?xml version="1.0" encoding="UTF-8" standalone="no"?>
<!-- Created with Inkscape (http://www.inkscape.org/) -->

<svg
   version="1.1"
   id="svg607"
   width="696.14471"
   height="173.89618"
   viewBox="0 0 696.14471 173.89618"
   sodipodi:docname="れ.png"
   xmlns:inkscape="http://www.inkscape.org/namespaces/inkscape"
   xmlns:sodipodi="http://sodipodi.sourceforge.net/DTD/sodipodi-0.dtd"
   xmlns="http://www.w3.org/2000/svg"
   xmlns:svg="http://www.w3.org/2000/svg">
  <defs
     id="defs611" />
  <sodipodi:namedview
     id="namedview609"
     pagecolor="#ffffff"
     bordercolor="#000000"
     borderopacity="0.25"
     inkscape:showpageshadow="2"
     inkscape:pageopacity="0.0"
     inkscape:pagecheckerboard="0"
     inkscape:deskcolor="#d1d1d1"
     showgrid="false" />
  <g
     inkscape:groupmode="layer"
     inkscape:label="Image"
     id="g613"
     transform="translate(-24.003645,-5.9984379)">
    <g
       id="g617">
      <path
         style="fill:#ababab"
         d="M 585.76747,136.30521 585.5,111.61043 575.27421,122.7489 c -5.62418,6.12616 -10.84297,11.0911 -11.15322,10.58911 -0.31025,-0.502 -3.81712,-1.25908 -7.09519,-1.93615 -3.27807,-0.67707 -7.6663,0.70158 -7.65805,0.39912 0.008,-0.30245 10.28577,-11.40098 19.6034,-21.30098 l 16.94114,-18 0.19386,-10.75 c 0.10662,-5.9125 0.23885,-11.3125 0.29385,-12 0.11647,-1.455934 0.80774,-1.578759 -15.34612,2.726744 -19.08329,5.08629 -17.93483,4.966573 -19.06743,1.98761 -0.53988,-1.419975 -1.25003,-4.260481 -1.57812,-6.312236 l -0.59652,-3.730462 17.79405,-4.710787 c 9.78673,-2.590933 18.12858,-5.048305 18.53744,-5.460828 0.40887,-0.412522 1.24189,-7.446549 1.85117,-15.63117 1.10414,-14.832269 1.32048,-16.651503 -0.96363,-19.261775 -1.2604,-1.440379 -0.79169,0.717904 1.31073,2.642904 2.10242,1.925 6.91641,4.329104 7.46783,5.342454 0.67649,1.243189 -2.22315,23.279135 -3.43276,67.75 L 590.58395,161 h -2.27451 -2.2745 z M 666.5,158.6149 l -5,-1.14109 -1.5572,-38.4869 c -1.15161,-28.46247 0.94608,-37.939699 0.0418,-39.517338 -0.67199,-1.172346 -2.72845,-4.12336 -4.92881,-5.21201 -2.20035,-1.08865 -2.10085,0.818906 -1.75272,0.470773 0.34814,-0.348132 -1.79897,-4.618832 -2.79751,-5.722204 -2.15667,-2.383095 -10.35532,-3.413458 -13.29434,-1.492229 -2.00727,1.312147 -4.19779,5.001487 -10.14043,5.02355 -4.71149,0.01749 -8.96583,-0.147913 -12.14568,0.439914 -3.17985,0.587828 -6.94719,0.563799 -7.2055,0.305483 -0.73677,-0.73677 20.21597,-14.903973 25.7804,-17.300857 5.74763,-2.475799 13.67434,-3.54707 18.93858,-2.559492 2.30576,0.432562 5.23192,2.217293 8.00062,4.879749 6.08815,5.854536 7.09426,10.109344 5.5977,23.672677 -0.63872,5.788791 -1.42292,20.660004 -1.74266,33.047134 -0.66077,25.59928 -0.20158,27.86333 6.07106,29.93349 7.01094,2.31381 16.61701,-4.93392 25.14419,-18.97117 l 3.64934,-6.00747 2.78346,1.982 c 1.53091,1.0901 3.10829,1.6578 3.50531,1.26154 1.09998,-1.09787 -3.86057,11.6876 -6.7367,17.36336 -2.22357,4.388 -15.42299,18.33038 -17.47964,18.46353 -0.4022,0.026 -2.75626,0.19614 -5.23126,0.378 -2.475,0.18186 -6.75,-0.18284 -9.5,-0.81044 z M 549.96447,146.30866 c -6.04037,-6.72665 -6.307,-7.19101 -5.01953,-8.74232 1.0506,-1.26589 8.05354,-5.6728 -5.61198,-1.8229 -4.5907,1.29331 -0.32197,-0.98202 7.61352,-1.11855 6.26119,-0.10772 9.98485,0.87347 12.01786,1.48257 l 3.69638,1.10746 -3.24267,3.64254 c -1.78346,2.0034 -4.07264,4.68144 -5.08707,5.9512 l -1.8444,2.30866 z M 534.73818,104.3458 536.97636,103.864 537.25648,65.681998 537.5366,27.5 537.5183,66 537.5,104.5 535,104.6638 c -2.18,0.14284 -2.21352,0.10214 -0.26182,-0.318 z M 600,90.5 c 0,-1.633715 0.5591,-2.5 1.6135,-2.5 1.22651,0 1.50714,-0.724695 1.17004,-3.021496 -0.42318,-2.883277 -0.21108,-3.086935 4.6365,-4.451982 C 610.21402,79.739755 614.3,78.779077 616.5,78.39168 l 9.0651,-1.438429 -12.35573,7.719135 c -5.53101,3.455449 -8.45758,5.921762 -9.16608,6.775451 C 602.07423,93.820415 600,93.33417 600,90.5 Z M 355.5,79.275537 c 48.87659,-0.695259 88.26766,-0.70671 87.84611,-0.02554 -0.25528,0.4125 -24.40009,0.647807 -53.65513,0.522904 C 360.43594,79.648001 345.05,79.424186 355.5,79.275537 Z M 600.04817,53.14059 c -0.33006,-11.501543 0.96705,-16.275412 1.91935,-16.467493 0.70125,-0.141443 0.42842,-1.861206 1.05748,-1.877648 0.53736,-0.01404 -0.20751,5.554182 -0.19528,8.670848 0.0163,4.150556 -0.24859,6.702575 1.2206,8.533703 1.10321,1.375 2.87197,3.664646 3.93057,5.088103 l 1.92474,2.588102 -4.48013,4.39691 -4.92056,4.984169 z M 376.75,48.250356 c 21.0375,-0.150766 55.4625,-0.150766 76.5,0 21.0375,0.150767 3.825,0.274122 -38.25,0.274122 -42.075,0 -59.2875,-0.123355 -38.25,-0.274122 z M 602,27.784349 c 0,-1.298551 -1.96611,-4.215231 -4.75,-7.046504 l -6.58518,-4.537223 6.6117,0.112732 c 2.6362,0.04495 5.07509,0.704926 5.44001,1.069839 0.36491,0.364912 0.54125,2.966225 0.39187,5.780694 -0.18163,3.422133 -0.27094,8.773573 0.61956,9.338087 1.01801,0.645342 1.35992,-2.528993 0.022,-2.517287 -1.14472,0.01002 -1.75,-0.751027 -1.75,-2.200338 z"
         id="path621"
         sodipodi:nodetypes="ccssscscssssscsssssssccccscsssssssssssssssscssssssssssscsscsscccccssssssscssssssssssssscccssssssscsssssss" />
      <path
         style="fill:#070707"
         d="m 33.45863,178.12034 c -2.222754,-1.00966 -5.260254,-3.2843 -6.75,-5.05477 -2.62078,-3.11462 -2.708509,-3.61384 -2.704892,-15.3923 0.0032,-10.39706 0.294705,-12.6505 1.997876,-15.44395 2.285502,-3.74855 9.822012,-8.86265 14.98301,-10.16711 C 42.918081,131.57352 129.775,128.39705 234,125.0034 c 104.225,-3.39366 190.42856,-6.53485 191.56346,-6.98041 1.36775,-0.53699 3.30641,-3.80884 5.75,-9.7042 C 433.34106,103.42705 435,98.856807 435,98.162697 c 0,-0.694109 0.61799,-2.47717 1.37331,-3.962357 2.743,-5.393543 2.93808,-7.20034 0.77741,-7.20034 -1.09123,0 -2.14622,0.486502 -2.34442,1.081115 -0.23993,0.719762 -1.75168,0.524424 -4.52297,-0.584426 -3.15676,-1.263086 -5.92904,-1.526693 -11.47296,-1.090925 -4.0207,0.316038 -8.54787,0.552714 -10.06037,0.525946 -1.5125,-0.02677 -6.35,-0.04867 -10.75,-0.04867 -4.4,0 -9.35,-0.0012 -11,-0.0026 -1.65,-0.0014 -6.825,-0.0026 -11.5,-0.0026 -4.675,0 -9.85,0.0012 -11.5,0.0026 -1.65,0.0014 -6.6,-0.01165 -11,-0.02911 -4.4,-0.01746 -8.7875,0.03272 -9.75,0.111513 -3.35601,0.274732 -13.47104,-2.034926 -17.16499,-3.91944 C 319.33403,79.599275 313.01115,70.631194 313.01115,64.5 c 0,-6.880914 7.12545,-16.007499 15.2618,-19.54797 4.80467,-2.090718 20.105,-4.155761 28.97705,-3.910952 1.5125,0.04173 6.35,0.07588 10.75,0.07588 4.4,0 9.35,0.0012 11,0.0026 1.65,0.0014 6.825,0.0026 11.5,0.0026 4.675,0 9.85,-0.0012 11.5,-0.0026 1.65,-0.0014 6.6,-0.0026 11,-0.0026 4.4,0 9.35,0.0012 11,0.0026 1.65,0.0014 6.825,0.0026 11.5,0.0026 4.675,0 9.85,-0.0012 11.5,-0.0026 1.65,-0.0014 6.6,-0.0026 11,-0.0026 4.4,0 9.2375,-0.0196 10.75,-0.04356 1.5125,-0.02396 6.20291,0.20907 10.42314,0.517837 8.94663,0.654569 11.43262,-0.290495 12.59839,-4.789357 0.44922,-1.733574 2.06655,-4.085687 3.59407,-5.226917 C 497.87099,29.703164 499.53117,29.5 512.32146,29.5 c 7.7982,0 14.96604,0.385645 15.92854,0.856989 1.38372,0.677621 1.75,0.416598 1.75,-1.247119 0,-4.917752 15.40882,-17.318502 26.22502,-21.1054419 8.42407,-2.949415 15.90133,-2.6526997 23.47796,0.9316619 C 590.73117,14.153312 602,23.618986 602,27.665293 c 0,2.072911 0.35525,2.204919 4.75,1.765039 26.20045,-2.62246 54.86149,-2.181205 70.68762,1.08828 26.61712,5.498773 43.03549,19.567328 42.7059,36.593792 -0.1811,9.355239 -3.10137,34.795446 -5.15262,44.887596 -4.43981,21.84374 -10.19176,34.08684 -20.7072,44.07547 -11.24285,10.67961 -21.25033,14.77708 -28.9686,11.86091 -6.12042,-2.31245 -12.93733,-11.7426 -12.42379,-17.18638 0.14268,-1.5125 -0.22449,-2.75 -0.81594,-2.75 C 651.48391,148 651,146.875 651,145.5 c 0,-1.375 0.45,-2.5 1,-2.5 0.55,0 1,-1.125 1,-2.5 0,-1.375 -0.45,-2.5 -1,-2.5 -0.55,0 -1,-1.125 -1,-2.5 0,-1.55556 0.56667,-2.5 1.5,-2.5 0.93333,0 1.5,-0.94444 1.5,-2.5 0,-1.55556 -0.56667,-2.5 -1.5,-2.5 -0.93333,0 -1.5,-0.94444 -1.5,-2.5 0,-1.55556 0.56667,-2.5 1.5,-2.5 0.93333,0 1.5,-0.94444 1.5,-2.5 0,-1.55556 -0.56667,-2.5 -1.5,-2.5 -0.93333,0 -1.5,-0.94444 -1.5,-2.5 0,-1.55556 0.56667,-2.5 1.5,-2.5 0.93333,0 1.5,-0.94444 1.5,-2.5 0,-1.375 -0.45,-2.5 -1,-2.5 -0.55,0 -1,-1.125 -1,-2.5 0,-1.375 0.45,-2.5 1,-2.5 0.55,0 1,-1.125 1,-2.5 0,-1.375 -0.45,-2.5 -1,-2.5 -0.55,0 -1,-1.125 -1,-2.5 0,-1.375 0.45,-2.5 1,-2.5 0.55,0 1,-1.125 1,-2.5 0,-1.375 -0.45,-2.5 -1,-2.5 -0.55,0 -1,-1.125 -1,-2.5 0,-1.375 0.5051,-2.5 1.12244,-2.5 1.9481,0 -1.39445,-3.214508 -4.84032,-4.654904 -6.49708,-2.715823 -31.16344,-1.179605 -42.81783,2.666689 -2.72398,0.898994 -3.05763,1.398914 -2.67474,4.007666 C 603.12075,87.276091 602.83512,88 601.6135,88 600.5591,88 600,88.866285 600,90.5 c 0,1.442372 0.57591,2.5 1.36133,2.5 0.91286,0 1.20389,0.823589 0.88342,2.5 -0.26285,1.375 -0.87544,2.5 -1.36133,2.5 C 600.39754,98 600,99.125 600,100.5 c 0,1.375 0.45,2.5 1,2.5 1.59587,0 1.1551,4.72651 -0.5,5.36163 -1.9576,0.7512 -1.9576,4.63837 0,4.63837 0.93333,0 1.5,0.94444 1.5,2.5 0,1.55556 -0.56667,2.5 -1.5,2.5 -0.93333,0 -1.5,0.94444 -1.5,2.5 0,1.55556 0.56667,2.5 1.5,2.5 0.93333,0 1.5,0.94444 1.5,2.5 0,1.55556 -0.56667,2.5 -1.5,2.5 -0.93333,0 -1.5,0.94444 -1.5,2.5 0,1.55556 0.56667,2.5 1.5,2.5 1.9576,0 1.9576,3.88717 0,4.63837 C 598.8449,138.27349 598.40413,143 600,143 c 1.59587,0 1.1551,4.72651 -0.5,5.36163 -1.81432,0.69622 -1.99867,4.30387 -0.25,4.89242 0.97285,0.32743 0.98534,0.74158 0.0563,1.86792 -0.65652,0.79596 -1.33152,4.13164 -1.5,7.41262 L 597.5,168.5 l -7,-0.0624 c -9.50338,-0.0848 -294.13561,6.03193 -469,10.07873 -82.138035,1.90088 -82.993362,1.89703 -88.04137,-0.39596 z M 181.5,170.44178 c 62.7,-1.3595 153.15,-3.35201 201,-4.42778 47.85,-1.07577 110.625,-2.43542 139.5,-3.02144 28.875,-0.58601 56.12493,-1.30718 60.55541,-1.60258 l 8.05541,-0.5371 1.23429,-47.17644 c 0.67886,-25.947042 1.51332,-55.85634 1.85435,-66.465107 l 0.62005,-19.288668 -5.40975,-5.236037 C 581.52664,15.540596 575.26332,12.669046 567,12.641646 c -7.96787,-0.02642 -16.73654,3.831617 -24.75,10.889496 L 537,28.155095 v 37.86118 37.861175 l -4.25,0.52259 c -2.3375,0.28742 -9.65,0.77758 -16.25,1.08923 -6.6,0.31166 -15.62123,0.83355 -20.04717,1.15975 l -8.04716,0.5931 0.41899,-18.605694 C 489.21805,71.167707 489.12927,69.986274 487.37183,69.303269 486.34232,68.903166 480.325,68.558752 474,68.537905 c -14.21423,-0.04685 -16.42708,0.941792 -21.50653,9.608543 -3.92624,6.69911 -11.24632,22.362192 -17.0216,36.421822 -2.01789,4.91245 -3.97308,9.25775 -4.34486,9.65621 -0.37178,0.39846 -87.83336,3.64695 -194.35907,7.21885 -207.840765,6.9691 -197.733389,6.38061 -203.601611,11.8544 -5.822321,5.43097 -7.857974,15.33513 -4.574214,22.25514 3.360784,7.08233 7.747116,8.43328 25.407885,7.8254 7.425,-0.25557 64.8,-1.57699 127.5,-2.93649 z m -135.21991,-1.9895 c -6.003387,-2.99161 -8.507377,-6.34317 -8.644442,-11.57049 -0.129834,-4.9515 2.685944,-8.73917 8.759348,-11.78272 l 4.79105,-2.40092 153.156974,-3.77448 C 288.57936,136.8477 387.2,134.4248 423.5,133.53944 c 36.3,-0.88535 80.88184,-2.01655 99.07076,-2.51376 37.33572,-1.0206 39.49574,-0.78486 45.54621,4.97081 3.46048,3.29188 3.88303,4.21722 3.88303,8.50351 0,4.30162 -0.41793,5.20724 -3.95648,8.57338 -2.88981,2.74901 -5.38362,4.05844 -9.25,4.85691 -4.0785,0.84227 -477.403397,13.15716 -502.847176,13.08298 -2.853182,-0.008 -6.462855,-0.96466 -9.666254,-2.56099 z m 269.46495,-8.44138 c 193.5938,-4.79875 241.90419,-6.25532 244.5821,-7.37423 3.45851,-1.44506 7.67286,-5.94609 7.67286,-8.1948 0,-2.64493 -5.02029,-7.1873 -9.22323,-8.34521 -3.39777,-0.93609 -54.52853,0.0551 -248.77677,4.82259 -134.475,3.30046 -247.712177,6.173 -251.638171,6.38343 -8.02252,0.42999 -12.928996,2.66641 -15.351587,6.99739 -1.347952,2.4098 -1.346875,2.99544 0.01002,5.44993 2.690833,4.86744 7.106111,6.24725 19.979736,6.24386 6.325,-0.002 120.060272,-2.694 252.745042,-5.98296 z m 363.73478,-0.2705 c 6.16672,-3.12307 16.35871,-13.50373 19.65405,-20.01789 7.08334,-14.00222 10.54869,-29.0997 13.4236,-58.482647 C 714.34763,62.94365 714.00574,60.51657 708.62485,53.321762 702.31906,44.890285 689.46087,38.849054 671.5,35.879207 c -15.14305,-2.503918 -66.8746,-1.076795 -69.64671,1.92135 -0.35569,0.384694 -0.82888,8.925817 -1.05153,18.980273 -0.35909,16.215412 -0.22953,18.212786 1.14671,17.678575 6.25143,-2.426604 14.45917,-3.737921 26.20981,-4.187435 12.02334,-0.459945 14.49891,-0.267156 20.68086,1.610553 4.64607,1.4112 8.0812,3.191668 10.15082,5.261281 l 3.12824,3.128238 -0.61279,38.113978 c -0.66832,41.56871 -0.85689,39.97173 5.08928,43.09982 3.33576,1.75485 6.93672,1.26705 12.88513,-1.74544 z M 529.25,97.328218 c 0.4125,-0.245439 0.75,-1.950654 0.75,-3.789367 v -3.343115 l -4.75,1.48061 c -3.49669,1.089946 -7.98221,1.368471 -17,1.055603 L 496,92.306941 v 3.460447 3.460447 l 16.25,-0.726682 c 8.9375,-0.399676 16.5875,-0.927496 17,-1.172935 z M 520.875,85.375 524,84.75 V 60.454594 36.159188 l -6.59431,-0.706191 c -6.86728,-0.735423 -17.30789,0.04921 -18.6611,1.402414 -0.43029,0.430287 -0.66135,11.306305 -0.51347,24.168928 L 498.5,84.410927 501,85.105783 c 3.24416,0.901692 15.8583,1.072556 19.875,0.269217 z M 445.62401,75.25 C 451.72916,64.542441 456.37889,61.872944 470,61.255292 c 5.225,-0.236929 12.0875,-0.0094 15.25,0.505577 L 491,62.697225 V 55.31925 47.941274 l -77.75,0.279363 c -76.37718,0.27443 -77.82946,0.316146 -82.25,2.362569 -2.475,1.145763 -5.9625,3.748922 -7.75,5.784796 -7.324,8.341679 -1.71406,20.281268 10.66654,22.701488 1.9709,0.385282 27.30199,0.752261 56.29131,0.815511 L 442.91569,80 Z"
         id="path619" />
    </g>
  </g>
</svg>
