<?xml version="1.0" encoding="UTF-8" standalone="no"?>
<!-- Created with Inkscape (http://www.inkscape.org/) -->

<svg
   version="1.1"
   id="svg697"
   width="163.60234"
   height="194.13913"
   viewBox="0 0 163.60234 194.13913"
   sodipodi:docname="ã‚.png"
   xmlns:inkscape="http://www.inkscape.org/namespaces/inkscape"
   xmlns:sodipodi="http://sodipodi.sourceforge.net/DTD/sodipodi-0.dtd"
   xmlns="http://www.w3.org/2000/svg"
   xmlns:svg="http://www.w3.org/2000/svg">
  <defs
     id="defs701" />
  <sodipodi:namedview
     id="namedview699"
     pagecolor="#ffffff"
     bordercolor="#000000"
     borderopacity="0.25"
     inkscape:showpageshadow="2"
     inkscape:pageopacity="0.0"
     inkscape:pagecheckerboard="0"
     inkscape:deskcolor="#d1d1d1"
     showgrid="false" />
  <g
     inkscape:groupmode="layer"
     inkscape:label="Image"
     id="g703"
     transform="translate(-17.497663,-7.7520423)">
    <g
       id="g707">
      <path
         style="fill:#afafaf"
         d="m 68.630286,192.75 c -0.331637,-1.2375 -0.609121,-4.1625 -0.616631,-6.5 -0.0085,-2.6313 0.173487,-5.77994 -0.408422,-5.37733 5.100618,-1.10256 12.573527,-0.9511 18.140838,-0.9195 41.140569,0.28472 66.969799,-8.70156 75.769999,-26.36125 2.13908,-4.29259 2.48393,-6.35027 2.48393,-14.82151 0,-8.61625 -0.3249,-10.48424 -2.61829,-15.05365 -1.44006,-2.86922 -4.70256,-7.17852 -7.25,-9.57624 -4.52221,-4.25641 -4.5454,-4.30865 -0.9809,-2.20975 5.23784,3.08424 12.56336,11.27087 15.04208,16.81028 2.94077,6.57201 2.93303,17.71548 -0.0175,25.25895 -9.53683,24.38202 -44.97653,41 -87.437056,41 -11.085817,0 -11.527002,-0.082 -12.108008,-2.25 z m 94.447944,-18.3228 c -3.21473,2.70153 11.73321,-20.69555 11.73321,-33.43056 0,-20.99327 -12.80841,-37.60618 -39.31144,-44.136415 -11.9087,-2.934256 -34.16212,-3.149875 -49.315979,-0.477837 -5.673788,1.000443 -10.446253,1.661178 -10.605478,1.4683 C 75.419318,97.65781 90.671339,78.83628 110.4561,57.00924 c 31.44875,-34.695053 36.73185,-39.084315 36.14523,-40.826419 -3.02358,-8.9792353 4.125,7.003004 2.55381,6.554485 -20.47344,17.954798 -39.66515,42.070685 -57.627796,61.235593 -3.559961,3.528317 -6.327077,6.560701 -6.149148,6.73863 0.177929,0.177929 3.138492,-0.397658 6.579029,-1.279082 C 101.38258,87.017784 131.30162,86.928736 140,89.289458 c 26.15974,7.099696 41.01171,24.521502 41.09963,48.211072 0.0165,4.45433 -0.51606,10.32645 -1.18353,13.04913 -2.56271,10.45353 -9.96648,21.40189 -18.51392,27.37754 l -6.83809,3.65494 z M 28.278088,144.54381 c 0.427949,-0.51333 -2.047051,-3.83304 -5.5,-7.37715 -3.452948,-3.5441 -5.786739,-6.17388 -5.186201,-5.84395 C 53.033327,102.59724 84.536306,64.154215 114.75,32.663797 l 4.75,-4.9049 -30.915968,0.674191 c -17.003782,0.370805 -31.635178,1.059101 -32.514214,1.529546 -2.011705,1.076633 -7.630756,-4.0945 -5.752337,-5.255427 1.216605,-0.751903 76.890139,-1.393824 81.441209,-0.88348 2.13096,0.23896 -5.32957,6.144008 -39.431298,43.800074 C 70.848039,91.341892 52.994464,111.19994 52.65278,111.7528 c -0.341685,0.55285 3.08416,-0.0953 7.612988,-1.44045 C 79.804031,104.50932 89.649711,102.90449 108,102.53174 l 17.5,-0.35548 -14,0.82539 c -31.95375,1.88389 -49.634572,9.82217 -74.5,33.44878 -5.225,4.96468 -9.14986,8.60671 -8.721912,8.09338 z M 49.58964,20.341251 c -0.265358,-1.388127 0.117477,-6.660242 0.653918,-6.991778 0.536436,-0.331536 5.313587,-0.529273 10.61589,-0.439416 C 78.610002,13.210872 133.03678,9.7823965 142.07164,7.794303 142.80724,7.6324363 143.46166,7.95 143.5259,8.5 c 1.2573,2.491332 3.58674,4.717408 3.87033,5.821939 3.07756,11.986714 0.6153,2.303914 -0.0573,3.007511 -0.6197,0.648279 -17.95235,-0.916171 -45.83895,0.0851 -56.56805,2.031087 -51.323966,5.994222 -51.91036,2.926697 z"
         id="path711"
         sodipodi:nodetypes="ssccsssssscssssssssssccsssssscssscccsssssscscssssssscsssss" />
      <path
         style="fill:#090909"
         d="M 60.352327,201.00669 C 57.420766,199.82387 56.592331,198.19614 58.036355,196.4562 59.005091,195.28894 62.518676,195 75.744107,195 c 25.537523,0 45.168913,-3.66085 61.700903,-11.50596 14.70428,-6.97779 26.26221,-18.07073 30.73034,-29.49404 2.95057,-7.54347 2.95831,-18.68694 0.0175,-25.25895 -4.77431,-10.66958 -16.54287,-19.55585 -31.69289,-23.93083 -7.05417,-2.03708 -10.12813,-2.30758 -26,-2.28785 -19.461973,0.0242 -28.188471,1.34713 -48.739365,7.38893 -5.356651,1.57482 -9.457496,2.40723 -9.112988,1.8498 0.344507,-0.55742 18.139531,-20.356898 39.544497,-43.998833 21.404966,-23.641935 38.704066,-43.199391 38.442446,-43.461013 -0.26162,-0.261621 -13.89893,0.05275 -30.30513,0.698607 -44.569636,1.754552 -60.0938,1.66437 -62.119026,-0.360856 -1.459333,-1.459332 -1.474018,-1.803992 -0.133966,-3.144044 1.171457,-1.171457 6.039695,-1.717929 21.964285,-2.465543 43.754167,-2.054134 86.166907,-3.220905 86.974967,-2.392674 0.46395,0.475532 -15.45561,18.828921 -35.44442,40.863256 -19.957651,22 -36.155381,40.15781 -35.99495,40.350688 0.160431,0.192878 4.933883,-0.467857 10.607671,-1.4683 C 101.33788,93.71035 123.5913,93.925969 135.5,96.860225 162.05259,103.40267 178,119.9988 178,141.08904 c 0,30.20032 -30.00407,53.08332 -77.97796,59.47093 -11.557597,1.53887 -36.27307,1.81719 -39.669713,0.44672 z"
         id="path709" />
    </g>
  </g>
</svg>
