<?xml version="1.0" encoding="UTF-8" standalone="no"?>
<!-- Created with Inkscape (http://www.inkscape.org/) -->

<svg
   version="1.1"
   id="svg787"
   width="385.64621"
   height="260.99597"
   viewBox="0 0 385.64621 260.99597"
   sodipodi:docname="ã‚.png"
   xmlns:inkscape="http://www.inkscape.org/namespaces/inkscape"
   xmlns:sodipodi="http://sodipodi.sourceforge.net/DTD/sodipodi-0.dtd"
   xmlns="http://www.w3.org/2000/svg"
   xmlns:svg="http://www.w3.org/2000/svg">
  <defs
     id="defs791" />
  <sodipodi:namedview
     id="namedview789"
     pagecolor="#ffffff"
     bordercolor="#000000"
     borderopacity="0.25"
     inkscape:showpageshadow="2"
     inkscape:pageopacity="0.0"
     inkscape:pagecheckerboard="0"
     inkscape:deskcolor="#d1d1d1"
     showgrid="false" />
  <g
     inkscape:groupmode="layer"
     inkscape:label="Image"
     id="g793"
     transform="translate(-9,-9)">
    <g
       id="g797">
      <path
         style="fill:#afafaf"
         d="m 86.902823,256.03141 c 0,-1.57542 4.608805,-3.94782 8.896823,-5.46072 L 100,249.08872 v 3.37231 c 0,1.85476 0.18847,4.72397 0.73809,4.90731 0.54963,0.18333 -1.88914,-0.74092 -5.738768,-0.58518 -3.849627,0.15573 -8.096499,-0.26876 -8.096499,-0.75175 z m -4.117155,-23.02695 c 0.0084,-10.65 0.562399,-18.85654 -0.117668,-20.80739 -0.918659,-2.63527 -0.677619,-1.21152 4.485523,4.30789 3.315589,3.54438 8.398368,6.66098 10.273354,7.81979 C 100.79697,226.40758 100,227.24577 100,234.39251 v 7.22939 l -4.965231,1.27255 c -2.730877,0.6999 -6.713162,2.53875 -8.849523,4.08632 l -3.414072,4.4334 z m 60.146452,10.57499 c -1.07548,-2.4313 -2.25145,-5.53397 -2.93254,-5.80924 -0.70465,-0.2848 -0.92892,-0.43004 0.10045,-0.47496 2.52585,-0.11023 2.6303,0.0286 -0.0506,-0.068 -1.20504,-0.0434 -1.02406,0.58978 -0.36411,0.32155 0.83959,-0.34123 -1.06194,-3.40925 -1.70616,-5.10368 -0.78498,-2.06465 -0.59332,-2.49027 1.30009,-2.8872 26.19323,-5.49105 39.20431,-10.23331 53.54377,-19.51559 16.69217,-10.80524 24.50808,-25.22233 22.78284,-42.02482 L 215.0393,162.5 l 2.04663,5.5 c 1.67958,4.5136 1.98644,7.30979 1.71097,15.59107 -0.31157,9.36705 -0.61458,10.65853 -4.2231,18 -5.73572,11.66919 -14.22113,19.66897 -28.23076,26.6151 -10.42743,5.17003 -10.02991,6.38569 -10.0207,9.47009 0.009,3.03686 -1.12263,2.42583 -6.81276,4.29856 -5.64755,1.85872 -22.047,6.0028 -23.81581,6.01817 -0.44343,0.004 -1.68617,-1.98224 -2.76165,-4.41354 z M 94.928893,213.62911 c -3.535891,-3.50399 -7.196858,-7.70285 -8.135481,-9.3308 l -1.706588,-2.95991 8.478224,-12.37478 8.478222,-12.37478 -0.50225,8.45558 c -1.42024,23.91 -2.049835,33.25978 -0.95305,34.58133 2.72119,3.27883 0.27019,-0.12087 -5.659077,-5.99664 z m -62.778602,-0.0235 c 0,-0.8462 7.509874,-8.38294 15.650077,-15.52916 14.450675,-12.68614 14.857488,-13.1536 17.217938,-19.78478 2.876212,-8.0801 4.103443,-5.83897 1.440151,2.62996 -1.611201,5.12341 -3.777814,7.67698 -16.995623,20.07588 -14.242556,13.36016 -17.312543,15.59592 -17.312543,12.6081 z M 28,208.98949 c -0.641605,-0.87608 35.792728,-38.42304 36.338456,-37.91152 0.160516,0.15046 -3.953533,5.41606 -4.807585,7.54721 -1.122333,2.80061 -4.898231,6.77385 -13.62012,14.33195 -6.637014,5.75143 -13.382076,11.95459 -14.989025,13.7848 -1.606949,1.83021 -1.296196,4.46715 -2.921726,2.24756 z m 197.7835,-14.1656 c -0.39915,-1.2375 0.83402,-7.27389 0.75363,-13.32389 -0.16383,-12.33025 -1.96259,-18.4822 -8.33307,-28.5 -6.28022,-9.87588 -14.66528,-15.26552 -26.53647,-20.46446 -18.34958,-8.03612 -25.15933,-10.8243 -40.46789,-10.93733 -12.19748,-0.0901 -14.72609,1.34109 -11.69961,0.0986 12.95605,-5.31887 34.89552,-8.97312 47.49991,-6.30957 18.02924,3.80993 31.44845,14.33597 39.45736,30.95039 6.51901,13.52363 8.16986,26.29386 5.06264,39.16234 -0.79682,3.3 -4.71585,10.78411 -4.73544,12.29661 -0.043,3.31904 0.005,0.14661 -1.00106,-2.97272 z M 82.825574,185.39836 C 83.009456,181.87693 82.897609,179 82.487696,179 c -0.409912,0 -2.527352,1.60998 -4.705423,3.57774 -2.178071,1.96775 -5.756821,4.07157 -5.966019,3.86237 -0.209197,-0.2092 3.693624,-8.0996 6.686177,-16.72147 l 5.441005,-15.67611 -3.221718,-0.93108 c -1.771945,-0.51209 -3.76875,0.35832 -2.902123,0.30872 0.866627,-0.0496 3.764142,-2.43267 4.903699,-3.67017 1.73935,-1.88884 2.27136,-4.54158 3.314426,-16.52655 0.683378,-7.85211 1.018247,-14.50082 0.744155,-14.77491 -0.274093,-0.27409 -3.914284,0.25225 -8.089312,1.16964 -6.280748,1.38009 -11.93523,2.62274 -12.21701,4.366 -0.187309,1.15881 3.589414,-3.09441 3.154899,-8.72914 -0.579213,-7.51117 -1.56475,-8.69846 -2.678282,-9.32162 -1.014735,-0.56788 2.494141,-0.7103 9.531198,-1.91649 5.79304,-0.99296 11.296133,-3.05502 11.867865,-3.40837 0.571733,-0.35335 1.296245,-7.124852 2.15187,-13.151329 0.855625,-6.026477 1.768846,-11.941116 2.029381,-13.143642 0.39944,-1.843655 0.697115,-7.774556 -2.040515,-7.392664 l -0.814797,0.113662 1.654542,0.283289 c 2.269142,0.38852 4.349368,2.415591 7.556822,0.257134 l 5.089514,-3.424991 3.08624,3.674991 c 2.70969,3.226603 3.02517,4.226082 2.58571,8.19175 -0.27529,2.484218 -3.03846,11.464836 -6.14039,19.956929 -3.10193,8.492091 -6.055279,17.630631 -6.563007,20.307871 -1.318367,6.95172 0.168755,12.50456 4.386207,16.37786 1.89207,1.73768 5.89733,1.2505 6.19135,1.98782 0.32011,0.80276 1.4529,0.72887 1.50017,0.0364 0.0584,-0.85581 -2.12625,1.77919 0.43072,2.56396 3.02135,0.92728 4.32372,0.67197 10.37531,-2.03392 13.25677,-5.92757 25.67032,-8.05606 38.4747,-7.23733 10.70991,0.68481 16.68351,3.06311 6.50681,4.02365 -6.10157,0.5759 -20.77893,4.80637 -33.35229,10.94204 -11.78532,3.56619 -22.11665,15.95157 -29.34233,21.63042 -0.48552,-0.30006 -3.171342,2.94037 -5.968504,7.20097 -2.797162,4.2606 -7.030838,10.50881 -9.408169,13.88492 l -4.32242,7.54225 z M 105.5567,126.77749 C 104.70052,125.55512 104,123.01139 104,121.12478 c 0,-4.68639 6.35404,-29.697335 7.76523,-29.146672 1.23343,0.481296 9.30745,13.903752 9.263,15.597582 -0.0155,0.59162 -1.15323,2.13256 -2.52823,3.42431 -2.77498,3.29506 -5.08959,7.0391 -7.52912,9.72224 -3.99411,4.37019 -6.41765,6.97042 -5.50309,8.07241 0.63337,0.76315 2.52252,0.20535 2.21136,0.20535 -0.31116,0 -1.26626,-1.00013 -2.12245,-2.22251 z m -61.970077,-3.63733 c -0.282447,-0.45701 -0.817326,-2.7307 -1.188621,-5.05265 -0.371295,-2.32195 -1.400239,-4.95385 -2.286542,-5.84867 -1.483168,-1.49741 -1.465627,-1.57168 0.220327,-0.93289 C 41.339271,111.68768 46.56409,112 51.942497,112 h 9.778921 l 0.614814,5.19114 c 0.338148,2.85513 2.951623,4.97188 2.827585,5.06511 -0.921937,0.69297 -21.174089,1.53615 -21.577194,0.88391 z m 66.980757,-62.062891 -2.93263,-3.067943 1.84351,-5.524575 c 2.18061,-6.534829 4.75118,-4.735014 4.32087,4.93707 l -1.33356,8.053371 z"
         id="path801"
         sodipodi:nodetypes="sscssssssssscsscsssssssssscsssscscssscccssssssssssssssssssscssssssssssscsssssssssssssscsscsssssssssssccsscssssssccssscssscsssccssccc" />
      <path
         style="fill:#070707"
         d="m 383,269.40858 c -0.825,-0.19768 -17.7,-1.27439 -37.5,-2.3927 -55.26143,-3.12116 -76.25522,-5.47204 -99.38954,-11.12963 -17.18864,-4.20355 -30.03215,-9.027 -50.82602,-19.08796 -3.94468,-1.90861 -4.45873,-1.94027 -8,-0.49271 -2.08144,0.85083 -3.67686,2.01539 -3.54537,2.58791 0.13149,0.57252 1.55716,3.1932 3.16815,5.82373 3.79249,6.19262 4.81752,11.41518 2.66326,13.56944 -0.87691,0.87691 -3.5015,1.83284 -5.83243,2.12429 -6.04583,0.75596 -96.977303,3.33654 -98.525035,2.79609 -2.393162,-0.83567 -4.332715,-6.05206 -3.634368,-9.77457 1.198722,-6.38974 7.182942,-9.52736 25.711733,-13.48108 5.89029,-1.25688 10.70194,-2.54762 10.69255,-2.86832 -0.009,-0.32069 -2.56909,-1.68856 -5.68824,-3.03972 C 103.39326,230.18743 93.021003,222.90757 86.75,216.1146 83.5875,212.68887 81,209.46165 81,208.943 c 0,-1.61833 -2.004065,-1.04168 -5.411113,1.557 -1.802718,1.375 -3.73235,2.5 -4.288072,2.5 -0.555721,0 -6.813245,4.04225 -13.905609,8.98278 -14.770801,10.28932 -17.528977,11.0373 -22.472129,6.09414 C 33.220611,226.37446 32,224.08895 32,222.60367 c 0,-1.40259 -0.973526,-4.55398 -2.163392,-7.00308 -2.042964,-4.20503 -2.071284,-4.59348 -0.508756,-6.9782 0.91005,-1.38891 7.621076,-7.74203 14.913392,-14.11804 10.51791,-9.19629 13.676254,-12.56552 15.278388,-16.29855 1.110798,-2.58819 2.910798,-6.04089 4,-7.67266 1.75903,-2.63526 1.97648,-4.64705 1.945585,-18 -0.02221,-9.60067 -0.731631,-19.64056 -1.963151,-27.78314 L 61.573698,112 53.036849,112.007 C 37.103308,112.01894 20.684093,108.89915 15.588737,104.89114 12.568848,102.5157 9,96.078064 9,93.006113 c 0,-1.339424 1.327678,-2.85031 3.75,-4.267468 2.0625,-1.206647 11.078886,-7.046871 20.036414,-12.978276 8.957528,-5.931405 18.857528,-12.227488 22,-13.991295 8.665629,-4.863847 9.448311,-5.797294 8.101181,-9.661676 C 62.2297,50.220162 61.945181,45.263055 62.203477,40.188211 62.558846,33.206129 63.194222,30.430543 65.439036,26.053945 68.461318,20.161559 78.441153,9 80.687404,9 c 1.557843,0 5.785313,2.466367 8.861262,5.169788 1.949065,1.713015 2.167843,1.716194 4.5,0.06538 2.494659,-1.765837 7.727444,-3.983724 11.587994,-4.9115026 C 109.59042,8.3734874 117,21.776741 117,29.878909 c 0,4.829337 -3.34327,16.294382 -6.66737,22.864348 l -2.68206,5.301005 2.98086,3.227869 c 1.63947,1.775328 3.8231,4.873909 4.8525,6.885736 1.7282,3.377518 1.76737,4.220587 0.51114,11 -0.74828,4.038173 -3.75329,14.315936 -6.67779,22.839473 -6.0307,17.57663 -6.51472,21.89613 -2.86273,25.54811 3.05775,3.05776 4.9023,3.06662 12.77565,0.0614 3.44839,-1.31625 8.2948,-2.91207 10.7698,-3.54628 2.475,-0.63421 6.3,-1.62531 8.5,-2.20245 2.27384,-0.59651 8.74694,-0.83268 15,-0.54727 12.83378,0.58578 22.82646,3.22201 38.90647,10.26418 11.87119,5.19894 19.51737,11.54912 25.79759,21.425 6.41121,10.08186 8.15462,16.12533 8.36584,29 0.17925,10.92565 0.37108,11.89674 3.84083,19.44385 3.02375,6.57699 5.15422,9.41607 12.38167,16.5 17.20494,16.86326 35.16136,23.89234 79.2076,31.00596 42.57602,6.87619 69.01706,12.95597 72.00543,16.55673 2.74769,3.31076 -3.79371,5.63005 -11.00543,3.90204 z m -44.5,-11.00181 c -35.54273,-6.11018 -45.1963,-7.98257 -53.5,-10.37682 -26.9852,-7.78076 -45.06178,-19.97757 -58.13087,-39.22266 l -4.12001,-6.06699 -2.88894,5.37985 c -3.12827,5.82555 -9.75388,13.34628 -16.79703,19.0663 l -4.43685,3.60334 8.42354,4.23527 c 27.57962,13.86676 58.37063,20.4946 110.95016,23.88229 6.875,0.44295 16.1,0.82097 20.5,0.84004 l 8,0.0347 -8,-1.37529 z m -190,-3.49233 c 19.25,-0.59598 35.06574,-1.15804 35.14608,-1.24902 0.0803,-0.091 -1.84581,-3.54042 -4.28035,-7.66542 -6.37889,-10.80818 -6.18086,-11.31375 6.97731,-17.81366 14.00503,-6.91823 22.48617,-14.90804 28.23076,-26.59527 3.60693,-7.33823 3.91194,-8.63708 4.22697,-18 0.27763,-8.25165 -0.0386,-11.17005 -1.735,-16.01034 -5.02343,-14.33344 -14.51286,-23.8997 -30.16214,-30.40634 -26.07721,-10.84236 -45.90943,-11.42383 -67.06099,-1.9662 -6.38401,2.85451 -7.21551,2.99667 -10.96221,1.87413 -5.76976,-1.72866 -10.784471,-6.67411 -11.922365,-11.75769 -1.291766,-5.771 -0.08221,-11.18982 6.551545,-29.350941 3.10193,-8.492093 5.8651,-17.472711 6.14039,-19.956929 0.43946,-3.965668 0.12398,-4.965147 -2.58571,-8.19175 l -3.08624,-3.674991 -5.089514,3.424991 C 89.628039,73.806864 82.154474,71.670799 80.394458,62.289102 79.763954,58.928232 79.590387,58.804786 76.256168,59.345856 70.018699,60.358057 54.87547,68.591155 35.5,81.504241 25.05,88.468807 16.350721,94.57733 16.168269,95.078737 c -0.182452,0.501406 0.963513,2.206892 2.546589,3.789967 C 22.806716,102.96056 29.142109,104 49.990204,104 c 9.840469,0 18.096843,0.3375 18.347497,0.75 0.250655,0.4125 1.484344,12.5625 2.741532,27 1.257188,14.4375 2.609644,26.25 3.005457,26.25 0.395813,0 1.182445,-1.32755 1.748071,-2.9501 0.966796,-2.77336 1.22689,-2.89318 4.341223,-2 1.822047,0.52255 3.409282,0.9501 3.52719,0.9501 0.117907,0 -1.753332,5.7375 -4.15831,12.75 -8.632441,25.1707 -6.743279,22.18333 -24.797148,39.21224 C 45.810572,214.39012 38.5,221.73484 38.5,222.28384 c 0,0.549 0.706902,1.44409 1.570893,1.98908 1.225512,0.77303 5.402902,-1.67356 19,-11.12783 L 76.5,201.02637 88.913451,182.5532 101.3269,164.08003 l 2.83655,1.67559 c 1.5601,0.92158 2.83655,2.07331 2.83655,2.5594 0,0.48609 -4.63584,7.70157 -10.301856,16.03439 -5.666021,8.33282 -10.61527,15.6689 -10.998332,16.3024 -0.997821,1.65016 6.102761,10.6853 12.942099,16.46818 6.749459,5.70688 20.145829,12.4731 32.358089,16.34338 4.675,1.48159 9.175,2.92153 10,3.19987 2.48144,0.8372 -10.48053,5.25214 -26,8.85578 -20.111199,4.66986 -27,7.39395 -27,10.67684 0,0.49652 5.603838,0.64773 12.75,0.34403 7.0125,-0.29802 28.5,-1.02947 47.75,-1.62545 z M 50.312543,200 c 13.217809,-12.3989 14.534713,-13.95499 16.145914,-19.0784 2.663292,-8.46893 1.436061,-10.71006 -1.440151,-2.62996 -2.36045,6.63118 -2.767263,7.09864 -17.217938,19.78478 -13.30865,11.68356 -17.538271,16.67636 -13.33991,15.7469 C 35.263709,213.6455 42.397148,207.425 50.312543,200 Z M 95.227856,61.342095 C 98.20307,59.280271 100.28959,56.234375 104.53161,47.760533 109.36545,38.104458 110,36.128714 110,30.734161 110,24.932465 107.02142,16 105.08682,16 c -0.40413,0 -2.95149,1.57408 -5.660798,3.497955 -10.564481,7.501809 -14.051939,15.939783 -12.970834,31.383199 0.370348,5.290365 0.899761,10.406346 1.176473,11.368846 0.709473,2.467787 3.145149,2.176672 7.596195,-0.907905 z m -17.10426,-9.940587 c 0.342977,-0.199814 0.822553,-4.153934 1.065723,-8.786934 0.365592,-6.965437 1.0136,-9.58446 3.743371,-15.129412 L 86.233932,20.779387 83.545333,18.139693 80.856734,15.5 l -3.522411,4 c -6.245507,7.09231 -8.713815,13.068803 -8.673057,21 0.01978,3.85 0.556361,8.272757 1.192391,9.828349 1.037298,2.537008 1.490673,2.756661 4.40138,2.132403 1.78473,-0.38277 3.525581,-0.85943 3.868559,-1.059244 z"
         id="path799" />
    </g>
  </g>
</svg>
