<?xml version="1.0" encoding="UTF-8" standalone="no"?>
<!-- Created with Inkscape (http://www.inkscape.org/) -->

<svg
   version="1.1"
   id="svg877"
   width="230.80658"
   height="271.74802"
   viewBox="0 0 230.80658 271.74802"
   sodipodi:docname="を.png"
   xmlns:inkscape="http://www.inkscape.org/namespaces/inkscape"
   xmlns:sodipodi="http://sodipodi.sourceforge.net/DTD/sodipodi-0.dtd"
   xmlns="http://www.w3.org/2000/svg"
   xmlns:svg="http://www.w3.org/2000/svg">
  <defs
     id="defs881" />
  <sodipodi:namedview
     id="namedview879"
     pagecolor="#ffffff"
     bordercolor="#000000"
     borderopacity="0.25"
     inkscape:showpageshadow="2"
     inkscape:pageopacity="0.0"
     inkscape:pagecheckerboard="0"
     inkscape:deskcolor="#d1d1d1"
     showgrid="false" />
  <g
     inkscape:groupmode="layer"
     inkscape:label="Image"
     id="g883"
     transform="translate(-9,-6.9986658)">
    <g
       id="g887">
      <path
         style="fill:#afafaf"
         d="m 132.63044,277.93963 c -20.92852,-2.42967 -32.95591,-9.10988 -39.772412,-22.09022 -3.598285,-6.85204 -3.257757,-15.56386 0.941803,-24.09437 6.856649,-13.92784 19.074589,-23.65666 46.509169,-37.03403 l 14.80899,-7.22101 0.0146,-7.3848 c 0.011,-5.56407 -2.4077,-9.6371 -1.46081,-8.84805 1.47469,1.22884 9.32822,15.56724 9.32822,17.24151 0,0.65407 -5.5125,3.93437 -12.25,7.28955 C 117.30115,212.45527 97,232.0619 97,247.70938 c 0,6.19597 1.462399,9.50176 6.16468,13.93538 10.04425,9.4704 48.51437,12.56803 81.85866,13.64943 17.66777,0.57299 -0.51454,2.23735 -8.02334,2.83301 -11.38765,0.90337 -35.8638,0.7999 -44.36956,-0.18757 z m 13.38438,-5.51281 c -19.41052,-2.18108 -34.96729,-9.19185 -40.92927,-15.98216 -4.03809,-4.59914 -4.222,-10.77142 -0.54102,-18.15817 3.33979,-6.70209 15.44842,-18.208 27.49991,-26.13107 9.60357,-6.31372 31.66629,-17.77803 32.53722,-16.9071 0.26233,0.26233 0.75761,5.71378 1.10063,12.11433 L 166.30595,219 h -2.65298 c -3.22509,0 -3.68246,2.91802 -0.58436,3.72819 1.91719,0.50136 2.0453,1.15297 1.75,8.90139 L 164.5,239.99 159.75,239.995 155,240 v -17 c 0,-14.39889 -0.22813,-17 -1.49101,-17 -0.82006,0 -5.7505,2.21493 -10.95655,4.92206 -22.2049,11.54652 -34.55717,23.71108 -34.5487,34.02372 0.011,13.41771 9.9051,17.14118 45.54793,17.14118 11.69442,0 26.14188,-0.47794 32.10546,-1.06209 11.9329,-1.16887 31.84377,-3.84412 34.59287,-4.64795 1.5479,-0.4526 1.75,0.29103 1.75,6.43906 0,6.33887 -0.19807,7.01097 -2.25,7.63472 -3.67189,1.1162 -64.52611,3.0109 -73.73518,1.97612 z M 76.111142,204.2266 c -5.735281,-6.17641 3.552898,-6.58686 8.631922,-11.79349 8.099793,-8.30328 11.549025,-8.92241 20.991526,-13.74861 10.86116,-5.5513 21.701,-9.72982 24.98386,-9.63072 0.97985,0.0296 -0.69345,0.87072 -3.71845,1.8692 -14.27772,4.71276 -26.4385,12.2284 -41.388858,25.57928 -5.438872,4.85699 -9.061049,8.19705 -9.5,7.72434 z m -7.971786,-8.77657 c -2.278423,-2.69535 -3.857381,-3.66803 -2.074952,-4.81867 1.25413,-0.80961 15.367685,-11.26265 21.271183,-17.98739 11.313061,-12.88684 22.579663,-33.99946 26.699853,-41.87662 2.77154,-6.34695 7.12068,-15.06329 3.99422,-15.63655 -1.2375,-0.0865 -0.62542,3.05904 3.22458,2.70204 3.85,-0.357 5.39777,2.65671 5.58357,2.78187 0.86667,0.58386 -10.06411,19.98379 -17.89883,31.76682 -9.562407,14.38137 -20.955851,28.37729 -31.710177,38.95336 l -5.500937,8.36031 z m 98.064034,-2.45144 c 0,-2.78248 6.15687,-1.8333 19.54661,-6.29425 17.49606,-5.82902 21.92534,-7.0323 37.37564,-10.15365 13.5698,-2.74143 17.15223,-6.59803 16.14394,-4.96658 -0.34546,0.55897 0.85342,4.46164 0.42689,4.19803 -0.96065,-0.59371 -38.43832,9.77247 -52.69647,14.73975 -5.775,2.01191 -10.98797,4.66111 -12.07874,5.06806 -3.67768,1.37209 -8.71787,0.60904 -8.71787,-2.59136 z m 3.78684,-7.36827 c -0.0232,-2.68031 -5.17288,-11.87316 -8.9415,-15.96163 -9.82451,-10.65834 -25.88978,-11.86921 -46.54873,-3.50847 -3.85,1.55811 -7.152,2.83447 -7.33778,2.83635 -0.18578,0.002 1.66862,-2.80907 4.12087,-6.24657 6.27353,-8.79405 14.56417,-25.00761 19.8137,-35.46004 2.45611,-4.89041 7.92146,-12.09504 8.41641,-12.09504 0.49495,0 1.52009,2.05355 -6.15411,16.72447 -5.5927,10.04532 -7.45086,13.27413 -10.37349,19.10913 -1.65791,3.28431 -2.75497,5.97148 -2.43789,5.97148 0.31707,0 2.78621,-0.72276 5.48698,-1.60614 3.73911,-1.223 7.71991,-1.51152 16.68789,-1.20948 16.91861,0.56979 21.95495,3.61988 28.2897,17.13268 2.49535,5.32288 3.55658,6.67532 4.84177,6.17038 0.90527,-0.35568 3.89595,-1.03355 6.64595,-1.50637 2.75,-0.47283 8.375,-2.0336 12.5,-3.46839 C 203.29029,169.62907 232.54615,161 234.03236,161 c 0.87069,0 5.46424,11.11011 3.73077,7.5616 -0.0884,-0.18092 2.50857,5.25634 -2.68007,6.14931 -13.72255,2.36168 -38.11381,2.6494 -52.49371,7.66162 -7.46144,2.60074 -12.59333,3.92771 -12.59912,3.25779 z M 64.80312,110.4393 c -0.228631,-1.95839 -0.106437,-3.75184 0.271542,-3.98544 0.377979,-0.23361 14.055988,-0.54379 30.395575,-0.6893 L 125.17858,105.5 l 1.92339,-2.37645 c 3.15695,-7.628108 3.15566,-9.709958 5.95596,-16.107468 l 4.59343,1.202641 c 2.24607,0.588059 2.33288,2.774056 2.33847,3.376342 0.006,0.602285 -1.93162,5.552285 -4.30493,10.999995 l -4.3151,9.90494 -13.4349,0.63187 c -7.38919,0.34752 -22.273167,0.68502 -33.075494,0.75 L 65.218812,114 Z M 141.5656,108.25 c 0.87584,-2.0625 2.72973,-6.5625 4.11976,-10 l 2.52732,-6.25 5.30546,-1.497181 c 4.47369,-1.26246 5.56476,-2.75564 1.94593,-2.420643 -3.68833,0.34143 -5.12544,5.366793 -6.83961,9.511263 -1.02417,2.476221 -1.69616,4.610541 -1.4933,4.742941 0.20286,0.1324 9.59384,-0.0463 20.86884,-0.39705 19.67446,-1.71481 32.54487,-1.9289 46.39677,-4.025007 1.76126,3.086567 1.22213,7.148557 3.83284,10.079217 1.30417,1.30416 -2.38821,-2.1357 -17.07913,-0.63826 -21.12761,2.15353 -51.36171,4.61379 -56.9139,4.63129 l -4.26342,0.0134 1.59244,-3.75 z m 7.12718,-24.255046 c -3.19397,-0.408546 -7.50694,-1.509275 -9.58436,-2.446065 l -3.77715,-1.703254 2.50656,-7.172818 c 1.37861,-3.945049 2.57609,-7.282341 2.66108,-7.416203 0.15687,-0.247072 16.77821,5.687177 17.24958,6.158544 0.14118,0.141178 -0.6384,2.85832 -1.73241,6.038092 -1.094,3.179772 -3.14584,8.389813 -2.8458,8.875284 0.30004,0.48547 1.8087,-1.387537 1.63874,-1.459651 -0.16996,-0.07211 -2.92227,-0.465383 -6.11624,-0.873929 z"
         id="path891"
         sodipodi:nodetypes="sssscssssssssssssssscssscccssssssssssssssssssssccscsscsssssssssssscsssccssssssssssssssscccscscsscscscsssscccsccccsscsssssss" />
      <path
         style="fill:#080808"
         d="M 150.5,276.34364 C 123.87596,273.17803 111.23291,269.25203 103.16468,261.64476 98.462399,257.21114 97,253.90535 97,247.70938 c 0,-15.64748 20.30115,-35.25411 53.75,-51.91117 6.7375,-3.35518 12.25,-6.63548 12.25,-7.28955 0,-0.65407 -1.37477,-3.94038 -3.05505,-7.30291 -8.10426,-16.21807 -23.89977,-17.39889 -51.41705,-3.84378 -12.264,6.04128 -13.677508,7.05438 -24.106617,17.27781 -6.093295,5.97312 -13.293295,12.51912 -16,14.54666 C 65.714577,211.21398 59,216.52561 53.5,220.99007 c -9.860572,8.00401 -21.521517,16.34289 -34.77088,24.86505 -5.546787,3.56776 -7.038288,4.13318 -8.25,3.12755 C 9.6656038,248.30751 9,247.36872 9,246.89646 c 0,-0.47226 4.6125,-3.8452 10.25,-7.49542 21.052924,-13.63153 36.714021,-26.29246 52.411649,-42.37124 19.162702,-19.628 26.366779,-28.25782 37.271871,-44.64827 6.9758,-10.48469 18.06458,-29.84291 18.06696,-31.54038 C 127.00074,120.65352 113.16324,120.5 96.250478,120.5 H 65.5 l -0.313358,-3.25 -0.313359,-3.25 19.813359,-0.11813 c 10.897347,-0.065 25.859068,-0.40248 33.248258,-0.75 l 13.4349,-0.63187 4.3151,-9.90494 c 2.37331,-5.44771 4.31341,-10.39771 4.31135,-10.999995 -0.002,-0.602286 -1.97225,-1.904471 -4.3782,-2.893744 -5.94857,-2.445921 -17.89222,-14.87421 -21.1658,-22.024647 -7.54044,-16.470496 -4.31246,-33.934301 8.6791,-46.95506 13.74095,-13.7718418 34.17247,-16.6807808 50.35597,-7.169437 11.42679,6.715732 20.37831,20.837616 21.29059,33.587934 1.22875,17.173303 -9.11963,34.417286 -24.80414,41.332289 -2.46057,1.084819 -4.76984,2.394338 -5.1317,2.910042 -0.36186,0.515704 -4.26035,1.146184 -8.6633,1.401067 l -8.00538,0.463425 -3.98504,9.626536 c -3.83487,9.26378 -3.90683,9.63945 -1.90963,9.96928 2.71046,0.44764 26.78597,-1.35244 53.54866,-4.00373 20.0773,-1.98898 21.42543,-2.0131 23,-0.41141 1.56489,1.59183 1.53384,1.81533 -0.48206,3.47001 -2.36415,1.94053 -26.76254,4.90098 -62.84532,7.62552 -10.45,0.78906 -19.10798,1.44415 -19.23996,1.45576 -0.13198,0.0116 -2.24951,4.02234 -4.70562,8.91275 -5.24953,10.45243 -13.9978,25.0643 -20.27133,33.85835 -2.45225,3.4375 -4.30665,6.24846 -4.12087,6.24657 0.18578,-0.002 3.48778,-1.27824 7.33778,-2.83635 9.96389,-4.03241 15.91186,-5.31645 24.6311,-5.31734 9.64516,-9.8e-4 16.22289,2.64775 21.91763,8.82581 3.76862,4.08847 8.91834,13.28132 8.9415,15.96163 0.006,0.66887 5.21496,-0.6864 12.75977,-3.31969 14.11302,-4.92574 35.59861,-10.46868 47.67368,-12.29906 6.44606,-0.97712 7.99986,-0.95043 8.69696,0.14939 1.77422,2.79917 0.59069,3.44778 -9.37064,5.13538 -14.22113,2.40928 -27.85084,5.93228 -44.1112,11.40187 l -13.8612,4.66256 0.6112,4.45919 c 0.33616,2.45255 0.6112,9.25748 0.6112,15.12207 v 10.66288 l 4.75031,1.70819 c 10.20179,3.66851 17.2298,10.22724 17.2431,16.09174 0.0101,4.43872 -6.24155,9.84006 -13.86475,11.97902 -3.37967,0.94829 -6.61497,1.43362 -7.18955,1.07851 -2.07805,-1.28431 -0.23286,-2.78702 5.09712,-4.15106 9.50465,-2.43242 14.01957,-6.89997 11.8299,-11.70579 -1.85137,-4.0633 -15.61357,-12.19141 -17.4807,-10.32429 -0.26431,0.26431 -0.79665,3.34666 -1.18299,6.84967 L 171.5,239.5 h -3.5 -3.5 l 0.35128,-8.10688 c 0.32691,-7.54457 0.20553,-8.145 -1.75,-8.65638 C 159.97846,221.9201 160.40959,219 163.65297,219 h 2.65298 l -0.62366,-11.63735 c -0.34302,-6.40055 -0.8383,-11.852 -1.10063,-12.11433 -0.87093,-0.87093 -22.93365,10.59338 -32.53722,16.9071 -12.05149,7.92307 -24.16012,19.42898 -27.49991,26.13107 -3.68098,7.38675 -3.49707,13.55903 0.54102,18.15817 6.24148,7.10865 21.85525,12.40662 42.7704,14.51259 12.40611,1.24918 49.48868,1.29947 64.13931,0.087 7.71396,-0.63841 10.68568,-0.56061 11.21383,0.29359 1.55101,2.50849 -2.31991,3.42148 -19.20909,4.53062 -16.09081,1.0567 -46.3489,1.32546 -53.5,0.4752 z M 168.96101,80.519756 c 5.74417,-2.91079 13.50641,-11.122908 16.35466,-17.302528 1.7212,-3.734348 2.17528,-6.596845 2.17928,-13.738255 0.005,-8.182801 -0.30035,-9.641388 -3.2817,-15.69736 -3.64041,-7.394731 -9.4833,-13.211795 -16.9969,-16.921784 -3.92702,-1.939048 -6.30626,-2.33139 -14.21635,-2.344311 -8.20571,-0.0134 -10.26949,0.345244 -15.14796,2.632444 -7.46333,3.499067 -13.35307,9.561208 -17.12918,17.630572 -7.90444,16.891398 -0.71341,37.248759 16.13729,45.683675 9.70211,4.856562 22.58489,4.879657 32.10086,0.05755 z m 28.70436,175.050584 c -0.40359,-1.05173 0.79972,-1.71882 4.55203,-2.52354 6.39662,-1.37183 13.59333,-4.52036 16.43554,-7.19048 8.84727,-8.31158 -3.38402,-19.73933 -27.91464,-26.08074 -5.15798,-1.33339 -8.7383,-2.77451 -8.7383,-3.51726 0,-1.6966 0.4493,-1.64163 10.63813,1.30151 12.77035,3.68883 22.27638,8.53889 27.1953,13.87529 4.62885,5.02171 5.17435,7.90866 2.64034,13.9734 -1.80444,4.31864 -5.65658,6.90163 -14.32911,9.60812 -7.55059,2.35637 -9.74309,2.47222 -10.47929,0.5537 z"
         id="path889" />
    </g>
  </g>
</svg>
