<?xml version="1.0" encoding="UTF-8" standalone="no"?>
<!-- Created with Inkscape (http://www.inkscape.org/) -->

<svg
   version="1.1"
   id="svg967"
   width="199.58656"
   height="190.81444"
   viewBox="0 0 199.58656 190.81444"
   sodipodi:docname="ん.png"
   xmlns:inkscape="http://www.inkscape.org/namespaces/inkscape"
   xmlns:sodipodi="http://sodipodi.sourceforge.net/DTD/sodipodi-0.dtd"
   xmlns="http://www.w3.org/2000/svg"
   xmlns:svg="http://www.w3.org/2000/svg">
  <defs
     id="defs971" />
  <sodipodi:namedview
     id="namedview969"
     pagecolor="#ffffff"
     bordercolor="#000000"
     borderopacity="0.25"
     inkscape:showpageshadow="2"
     inkscape:pageopacity="0.0"
     inkscape:pagecheckerboard="0"
     inkscape:deskcolor="#d1d1d1"
     showgrid="false" />
  <g
     inkscape:groupmode="layer"
     inkscape:label="Image"
     id="g973"
     transform="translate(-8.866291,-10.185562)">
    <g
       id="g977">
      <path
         style="fill:#b0b0b0"
         d="m 19.98464,199.27735 c 0,-1.77968 13.398945,-26.80275 17.336905,-33.27735 4.948001,-8.13526 13.753689,-19.90015 16.840376,-22.49967 1.949799,-1.64207 1.898607,-1.47346 -0.308262,1.0153 -6.593028,7.43518 -18.022672,28.13968 -25.937099,46.98437 -2.172317,5.17241 -4.446841,9.13751 -5.348198,9.32332 -0.862599,0.17783 -2.583722,-1.03152 -2.583722,-1.54597 z m 108.82325,-3.18423 c -5.66461,-3.59239 -10.50972,-10.47351 -13.02187,-18.49392 -2.98129,-9.51822 -11.48987,-46.29002 -11.1032,-47.4479 0.72869,-2.1821 5.61951,15.93135 8.3718,29.3487 3.60427,17.5708 8.42282,28.04666 16.05808,34.91141 2.80698,2.52373 8.70732,5.38634 8.48051,5.38634 -0.2268,0 -6.2643,-2.10584 -8.78532,-3.70463 z m 33.48543,-0.0642 c -0.34498,0.11096 5.39599,-5.74208 7.9198,-8.3705 4.69766,-4.89239 13.7919,-15.34091 13.78056,-17.1501 -0.003,-0.55459 -1.31579,-1.75328 -2.91624,-2.66376 l -2.90992,-1.65542 -3.56628,7.01882 c -7.52769,14.81529 -20.71031,21.6034 -30.00761,20.55546 -6.09636,-0.68715 -10.82788,-3.8882 -14.85482,-10.04983 -4.71436,-7.21348 -6.48389,-12.17932 -9.31736,-26.14739 -4.11581,-20.28954 -7.64468,-28.84208 -14.8901,-36.0875 C 101.09357,117.04093 93.878486,114 87.786953,114 c -8.214072,0 -21.854758,7.15363 -32.142273,16.85648 -3.290974,3.10393 -5.728686,5.19352 -5.417139,4.64352 0.512023,-0.90392 6.273484,-13.56755 12.390593,-27.23441 l 2.342854,-5.2344 -3.095396,-1.60069 c -1.702468,-0.88039 -3.420238,-1.2249 -3.817268,-0.7656 -0.39703,0.45931 -7.155903,15.0101 -15.019718,32.3351 -7.863815,17.325 -16.640501,36.225 -19.503746,42 -2.863246,5.775 -5.427266,13.85201 -6.731987,17.05262 -2.032201,4.98521 1.875294,8.36158 0.850553,6.96017 -0.657907,-0.89975 -2.049657,-1.9126 -2.370421,-1.97689 C 13.95343,196.77142 8.2069668,193.67247 8.9287357,192.78342 9.372761,192.23648 13.678656,185.75 17.443331,177.5 30.586044,148.69874 50.009768,108.8501 64.101587,81.778508 78.902076,53.345496 98.423458,18.680175 101.11077,13.887122 c 0.83735,-1.493492 0.16569,-0.538311 1.19302,-3.25 0.38589,-1.0185787 0.72552,-0.468762 7.4993,3.254638 3.89403,2.140468 7.26997,3.103416 7.63848,3.333333 0.46669,0.291173 0.89376,0.03239 0.55843,0.524907 -18.177136,29.085722 -34.755797,61.772802 -48.564182,89.37745 -1.9603,3.89263 -3.377498,7.2642 -3.149327,7.49237 0.22817,0.22817 3.294552,-0.92278 6.814182,-2.55767 5.180184,-2.40623 8.316231,-3.10109 16.461229,-3.64734 9.039411,-0.60623 10.563708,-0.45291 14.999998,1.50881 10.80805,4.77928 14.07937,10.65249 19.50788,35.02371 5.06044,22.71875 8.06174,31.56141 12.14066,35.76979 3.0283,3.12441 3.53686,3.28288 10.53539,3.28288 4.43229,0 8.45578,-0.57002 10.12827,-1.4349 5.53456,-2.86203 14.51697,-13.84782 19.80501,-24.2222 7.69639,-15.09921 15.6061,-41.49057 16.73711,-55.84468 0.43116,-5.471988 0.25034,-6.967423 2.92978,-5.180172 0.84353,0.562657 3.28511,2.226377 5.88981,3.190282 7.1881,2.66005 7.21926,2.76725 4.7058,16.18622 -4.42492,23.62387 -11.61968,43.09077 -21.29967,57.63063 -6.19946,9.31192 -16.20441,19.39064 -22.37229,22.53725 -5.97649,3.04898 -16.79779,4.2553 -10.62225,2.269 z M 64.289067,131.08601 c 7.869964,-10.85235 28.845109,-10.4703 36.092873,-7.5144 2.07654,0.84688 -5.007889,0.31235 -10.529217,0.365 -5.581001,0.0532 -7.755768,0.6336 -13.55773,3.61815 -3.800748,1.95512 -9.359474,5.34562 -12.352723,7.53445 L 58.5,139.06889 Z"
         id="path981"
         sodipodi:nodetypes="sssssssssssssssscscssssssssscssssssssssssssccsssssssssssssssssssssscs" />
      <path
         style="fill:#0a0a0a"
         d="m 17,199.67551 c -1.809558,-0.93736 -2.449793,-2.02494 -2.318208,-3.93799 0.09999,-1.45364 4.644531,-12.00175 10.098991,-23.44025 5.454459,-11.4385 15.01201,-32.04727 21.239002,-45.79727 6.226991,-13.75 11.643239,-25.37579 12.036107,-25.8351 0.392867,-0.4593 2.107232,-0.11479 3.8097,0.7656 l 3.095396,1.60069 -2.342854,5.2344 c -6.117109,13.66686 -11.87857,26.33049 -12.390593,27.23441 -0.311547,0.55 2.126165,-1.53959 5.417139,-4.64352 C 65.932195,121.15363 79.572881,114 87.786953,114 c 6.091533,0 13.306617,3.04093 17.744397,7.47872 7.24542,7.24542 10.77429,15.79796 14.8901,36.0875 2.83347,13.96807 4.603,18.93391 9.31736,26.14739 11.06694,16.93359 30.26223,11.90756 44.86243,-11.74663 l 3.56628,-5.77782 2.90992,1.65542 c 1.60045,0.91048 2.91276,2.10917 2.91624,2.66376 0.0129,2.0645 -8.22206,13.50265 -13.57594,18.85653 C 162.66115,197.12146 154.57356,201 146.156,201 c -16.74498,0 -27.27815,-13.23659 -33.14814,-41.65586 -2.9494,-14.27939 -4.05371,-17.91971 -8.30716,-27.38416 -2.94426,-6.55135 -3.72183,-7.24952 -9.950933,-8.93483 C 84.042946,120.12836 74.18385,124.14552 60.811518,136.85351 46.082182,150.8511 36.71192,164.70657 26.414449,187.71525 23.161502,194.98364 20.275,200.9395 20,200.95051 c -0.275,0.011 -1.625,-0.56275 -3,-1.275 z"
         id="path979" />
    </g>
  </g>
</svg>
