<?xml version="1.0" encoding="UTF-8" standalone="no"?>
<!-- Created with Inkscape (http://www.inkscape.org/) -->

<svg
   version="1.1"
   id="svg427"
   width="335.81418"
   height="212.82581"
   viewBox="0 0 335.81418 212.82581"
   sodipodi:docname="ア.png"
   xmlns:inkscape="http://www.inkscape.org/namespaces/inkscape"
   xmlns:sodipodi="http://sodipodi.sourceforge.net/DTD/sodipodi-0.dtd"
   xmlns="http://www.w3.org/2000/svg"
   xmlns:svg="http://www.w3.org/2000/svg">
  <defs
     id="defs431" />
  <sodipodi:namedview
     id="namedview429"
     pagecolor="#ffffff"
     bordercolor="#000000"
     borderopacity="0.25"
     inkscape:showpageshadow="2"
     inkscape:pageopacity="0.0"
     inkscape:pagecheckerboard="0"
     inkscape:deskcolor="#d1d1d1"
     showgrid="false" />
  <g
     inkscape:groupmode="layer"
     inkscape:label="Image"
     id="g433"
     transform="translate(-7.1858172,-8.7609129)">
    <g
       id="g437">
      <path
         style="fill:#acacac"
         d="m 175.19265,209.23302 c -0.60019,-1.5097 0.0327,0.26623 -0.84297,-2.85714 -0.62082,-2.21445 -1.48516,-2.99755 -1.02702,-2.89403 1.02188,0.23089 14.16784,-7.28832 21.52725,-12.76936 8.18201,-6.09369 20.6396,-18.42731 25.48757,-25.23393 C 228.81267,153.57925 234,140.19479 234,129.53855 v -6.25078 l 4.95046,0.97883 c 4.84434,0.95785 4.93892,1.04587 4.41258,4.10611 -2.86783,16.67415 -8.7975,31.89993 -16.73494,42.97081 -9.09803,12.68962 -26.65727,27.09197 -42.27819,34.88243 -6.13732,3.0608 -8.52062,4.60845 -9.15726,3.00707 z m 63.64171,-92.54551 c -4.63495,-0.8673 -3.7753,-0.72286 -3.64007,-3.81502 0.10922,-2.49745 0.56211,-3.63561 0.60211,-5.15723 0.0579,-2.20374 -0.20211,-2.21526 9.39006,-2.21526 11.02573,0 10.67332,-0.33269 9.1846,8.67044 l -0.60692,3.67044 -5.13207,-0.14016 c -2.82264,-0.0771 -7.23161,-0.53303 -9.79771,-1.01321 z m 23.29854,-4.87753 c -1.30191,-1.60001 -2.20191,-3.02882 -2,-3.17513 0.2019,-0.14632 3.2921,-2.21633 6.8671,-4.60003 C 279.75994,95.526894 291.92737,84.7112 306.82052,68.638155 312.49681,62.51217 317.57514,56.7125 318.10571,55.75 319.01226,54.105416 317.64217,54 295.36087,54 h -23.7095 l -5.46918,-0.161017 c -2.36761,-0.0697 3.39976,3.111026 0.97887,0.880634 -2.05728,-1.895392 0.38343,-2.612553 0.38343,-2.779661 0,-0.167108 15.00429,0.06004 31.56392,0.06004 h 30.10841 l -0.66727,2.75 c -1.1369,4.685551 -8.44396,16.603999 -14.90763,24.315652 -10.32862,12.322837 -24.94773,23.567642 -41.18416,31.678272 L 264.5,114.71907 Z m 69.83371,-51.009797 c 0.92701,-2.2 5.01078,-6.887683 6.0089,-10.050183 L 339.79028,45 h -94.72847 c -82.26446,0 -93.63685,2.840733 -93.63685,1.576298 0,-0.800807 -0.65138,-4.216234 -0.1133,-3.883684 0.58725,0.362944 -0.19623,4.994514 -0.50289,3.390301 -0.28099,-1.469871 -0.0676,-9.906455 1.175,-8.572882 0.31539,0.338482 43.30829,-0.569987 95.3661,-0.726133 l 94.65056,-0.2839 -2.2e-4,8.069394 c -2e-4,7.840038 -0.11274,8.220216 -3.95925,13.375706 -5.25078,7.037634 -8.05137,7.546984 -6.07435,2.855083 z M 222.3072,54.195445 218.34863,54 h -33.1153 c -20.99817,0 -35.646,-0.851076 -36.03789,-1.485169 C 148.78788,51.855387 162.88834,52 186.13715,52 h 35.25518 L 218,55.5 c -1.86578,1.925 6.21718,-1.836864 5.9542,-1.836864 -0.26298,0 0.2373,0.625342 -1.647,0.532309 z"
         id="path441"
         sodipodi:nodetypes="sssssscsssssssssscsssssssscsssscssscssscsssssscsssscssscsss" />
      <path
         style="fill:#030202"
         d="M 100,220.96544 C 66.611027,216.90819 33.633552,204.40845 17.236801,189.59497 12.794426,185.58155 8.3116116,176.5526 7.3774209,169.73693 4.9855581,152.28639 25.265699,138.07573 52.644665,138.01736 c 15.249717,-0.0325 26.439724,5.39982 29.925739,14.52782 1.504779,3.94021 1.569297,5.2527 0.49433,10.05616 -2.337164,10.44355 -9.041192,15.07572 -20.488816,14.15682 -9.564042,-0.76771 -19.449941,-6.79517 -16.659555,-10.15738 1.019074,-1.22791 1.998665,-1.01262 6.739558,1.48124 C 57.239794,170.49328 59.40894,171 65.147,171 c 6.039212,0 7.263703,-0.31979 9.398455,-2.45455 C 76.689977,166.40093 77,165.19529 77,159 c 0,-6.13516 -0.32082,-7.41173 -2.38024,-9.47115 -3.510334,-3.51033 -11.596962,-5.5315 -22.051261,-5.51149 -16.369299,0.0314 -28.986695,4.13916 -35.500301,11.55775 -3.235699,3.68526 -3.250073,3.74893 -2.90998,12.89046 0.442511,11.89444 2.461879,15.15853 14.216876,22.98003 15.16996,10.09375 37.661862,18.26485 61.124906,22.20614 15.30415,2.57076 52.99824,2.56194 69.5,-0.0163 6.325,-0.9882 11.9275,-2.21045 12.45,-2.7161 0.5225,-0.50566 1.8725,-0.91973 3,-0.92016 6.27885,-0.002 28.57718,-13.9076 39.90706,-24.88594 16.34664,-15.83945 24.81332,-32.40912 29.01434,-56.78233 0.52883,-3.06814 0.4122,-3.19062 -3.66259,-3.8461 -2.31484,-0.37237 -5.10881,-1.24056 -6.20881,-1.92931 -1.1,-0.68876 -3.8,-1.83267 -6,-2.54203 -6.10771,-1.96935 -17.20629,-7.75464 -25.11696,-13.09255 C 189.99382,98.561014 180.08413,90.03057 160.36378,70.75 L 141.1861,52 H 86.748039 c -51.565322,0 -54.525826,-0.09698 -56.101147,-1.837686 -1.554071,-1.71723 -1.542682,-1.946647 0.173753,-3.5 C 32.516316,45.127753 44.459412,45 186.22388,45 h 153.5664 l -1.81477,5.75 c -3.23087,10.236896 -5.04689,13.566216 -13.57516,24.887411 -9.39082,12.466229 -16.01198,18.966159 -30.48446,29.926289 -6.03102,4.56734 -10.07353,8.35839 -10.35791,9.7136 -0.25653,1.22249 -1.16459,19.72969 -2.01791,41.12711 C 280.01378,194.67709 279.61115,198 276.5,198 c -3.27859,0 -3.66223,-2.93911 -4.59457,-35.1995 -0.51342,-17.76528 -1.18102,-34.63465 -1.48355,-37.48749 l -0.55005,-5.187 -4.51882,1.937 C 262.86766,123.12835 260.03865,124 259.06632,124 c -0.97233,0 -3.14703,0.48078 -4.83267,1.06839 -2.73389,0.95304 -3.14051,1.62783 -3.76612,6.25 -1.12578,8.31747 -5.26558,21.5435 -9.48189,30.29321 -9.55877,19.83639 -26.45998,36.67298 -49.69009,49.50008 -6.46267,3.56853 -9.03673,4.29074 -25,7.01436 -14.87737,2.53835 -21.15721,3.09483 -38.29555,3.3935 -11.275,0.19649 -23.875,-0.0529 -28,-0.5541 z M 269.02835,112.40199 C 287.62733,103.45005 302.5493,92.299997 313.64192,79.065652 320.10559,71.353999 327.41265,59.435551 328.54955,54.75 L 329.21682,52 H 298.9002 268.58358 l 4.16037,4.25 c 8.7401,8.928408 10.94273,20.738327 5.82048,31.20784 -3.2418,6.625991 -7.93905,10.874613 -16.51706,14.93952 C 256.01734,105.25485 254.67035,105.5 245,105.5 c -9.67035,0 -11.01734,-0.24515 -17.04737,-3.10264 C 219.37768,98.333902 214.6775,94.084095 211.44009,87.467066 206.35117,77.065701 208.57759,65.115436 217.25605,56.25 L 221.41642,52 h -35.44321 -35.4432 l 12.485,12.612622 c 37.25874,37.639618 63.56515,53.489588 87.97428,53.005688 6.8234,-0.13527 8.47417,-0.61262 18.03906,-5.21632 z M 42.2,26.8 c -1.874336,-1.874336 -1.415626,-3.717979 1.05,-4.220155 1.2375,-0.252043 17.325,-0.699516 35.75,-0.994385 35.49716,-0.568087 56.69688,-2.001041 90,-6.083377 54.12244,-6.6343931 55.20851,-6.7300968 76.5,-6.7411019 22.44033,-0.011599 38.2996,1.4452229 63.5,5.8330659 29.09581,5.066103 34,6.488407 34,9.860607 0,1.216607 -0.24718,2.459195 -0.54929,2.761306 -0.65897,0.658967 -8.13742,-0.857652 -10.95071,-2.220786 -2.55222,-1.23664 -25.95208,-5.501618 -41.02653,-7.477706 C 256.1726,13.021016 232.79122,13.449139 184.4216,19.459324 131.95771,25.978242 103.97458,27.985872 65.45,27.994857 49.62731,27.998548 43.061099,27.661099 42.2,26.8 Z"
         id="path439" />
    </g>
  </g>
</svg>
