<?xml version="1.0" encoding="UTF-8" standalone="no"?>
<!-- Created with Inkscape (http://www.inkscape.org/) -->

<svg
   version="1.1"
   id="svg9"
   width="332.4512"
   height="213.39459"
   viewBox="0 0 332.4512 213.39459"
   sodipodi:docname="イ.png"
   xmlns:inkscape="http://www.inkscape.org/namespaces/inkscape"
   xmlns:sodipodi="http://sodipodi.sourceforge.net/DTD/sodipodi-0.dtd"
   xmlns="http://www.w3.org/2000/svg"
   xmlns:svg="http://www.w3.org/2000/svg">
  <defs
     id="defs13" />
  <sodipodi:namedview
     id="namedview11"
     pagecolor="#ffffff"
     bordercolor="#000000"
     borderopacity="0.25"
     inkscape:showpageshadow="2"
     inkscape:pageopacity="0.0"
     inkscape:pagecheckerboard="0"
     inkscape:deskcolor="#d1d1d1"
     showgrid="false" />
  <g
     inkscape:groupmode="layer"
     inkscape:label="Image"
     id="g15"
     transform="translate(-10.016687,-13)">
    <g
       id="g282">
      <path
         style="fill:#afafaf"
         d="m 105.65764,219.73893 c -1.59758,-1.16818 -1.72095,-5.2983 -1.67477,-56.06913 0.0335,-36.88438 -0.28253,-54.60263 -0.96652,-54.17991 C 102.41249,109.8631 102,108.87653 102,107.05902 c 0,-3.63066 -0.29402,-3.69791 -4.153205,-0.94993 -1.62907,1.16 -3.167821,1.90322 -3.419447,1.65159 -0.381794,-0.38179 9.457572,-7.53914 11.807392,-8.588928 0.40411,-0.180536 0.85411,27.157038 1,60.750168 0.14589,33.59313 0.23877,61.07834 0.20639,61.07825 -0.0324,-1e-4 -0.83495,-0.56765 -1.78349,-1.26124 z M 114,212.97623 V 172.48812 132 l 10.25,0.19268 c 7.25048,0.13629 8.42102,0.29658 4,0.54772 L 122,133.09543 V 172.54772 212 c -16.66183,2.41 67.70695,1.51881 -8,0.97623 z m -95.666667,-66.3478 c 0,-1.42126 -6.245515,-10.93401 -7.525121,-11.46176 -1.0187402,-0.42017 -1.0710859,-2.22327 -0.05821,-2.00519 0.4125,0.0888 1.875,-0.30953 3.25,-0.8852 59.94789,-25.09864 106.247588,-59.036024 139.718208,-102.412545 8.02202,-10.396197 8.6906,-10.71037 14.3752,-6.75504 2.04034,1.419666 2.87171,1.547172 3.89843,0.597896 3.31809,-3.067827 -14.64199,19.850123 -22.21844,28.351838 -26.83687,30.114278 -67.209184,58.797691 -116.161219,82.529351 -14.959156,7.25211 -15.487049,7.61114 -14.604375,9.93275 0.503676,1.32476 0.55797,2.6298 0.120652,2.90008 -0.437317,0.27028 -0.795123,-0.0862 -0.795123,-0.79218 z M 114,113 V 96 h 4 4 v 17 17 h -4 -4 z"
         id="path286"
         sodipodi:nodetypes="scsssssssscccssccccssscsssssssssccccccccc" />
      <path
         style="fill:#0c0c0c"
         d="m 108.88268,225.3594 c -1.13736,-1.36981 -1.4334,-12.7272 -1.66856,-64.01233 C 107.05689,127.05618 106.72043,99 106.46644,99 c -0.254,0 -2.60035,1.52735 -5.21413,3.3941 -2.613768,1.86676 -6.32731,4.29245 -8.25231,5.39042 -1.925,1.09797 -10.7,6.35329 -19.5,11.67849 -17.373726,10.51347 -51.852247,28.05536 -53.337953,27.13714 -0.506348,-0.31294 -1.154392,-1.46288 -1.440097,-2.55541 -0.448211,-1.71397 1.601793,-3.01481 14.945457,-9.48374 C 92.927664,105.83198 135.39639,73.026496 165.79166,32.5 c 4.12506,-5.5 8.2719,-10.675 9.21521,-11.5 0.94332,-0.825 2.54969,-2.9625 3.56973,-4.75 1.02004,-1.7875 2.18169,-3.25 2.58144,-3.25 0.39975,0 3.51088,4.1625 6.91362,9.25 14.28877,21.363415 36.17869,45.039775 57.42834,62.115079 21.32422,17.135221 55.55112,38.233431 83.34022,51.372721 13.85214,6.54959 14.58395,7.04618 13.07073,8.8695 -0.90276,1.08775 -4.83899,-0.53487 -20.78132,-8.56665 -18.4926,-9.3166 -44.81301,-24.42186 -51.72402,-29.68437 -1.70192,-1.29595 -3.72692,-2.3688 -4.5,-2.3841 -0.77309,-0.0153 -3.20561,-1.39196 -5.40561,-3.05925 l -4,-3.031422 -0.67588,4.309242 c -0.37173,2.37009 -0.70923,30.94519 -0.75,63.50023 -0.0731,58.35248 -0.29535,62.48779 -3.20259,59.58055 -0.52481,-0.52481 -1.2293,-6.4256 -1.56553,-13.11286 L 248.69467,200 H 202.34733 C 172.11578,200 156,199.65228 156,199 c 0,-0.65233 16.16667,-1 46.5,-1 H 249 v -42.47327 -42.47326 l -14.75,-0.30561 -14.75,-0.30561 14.75,-0.22113 L 249,112 v -8 -8 H 181.5 114 v 17 17 h 10 10 v -12 -12 h 32.5 32.5 v 27 27 h 13.5 c 8.33333,0 13.5,0.38272 13.5,1 0,0.61728 -5.16667,1 -13.5,1 H 199 v 7.51385 7.51386 L 166.75,176.76385 134.5,176.5 134.23087,154.25 133.96174,132 H 123.98087 114 v 40.5 40.5 l 38.25,0.19688 38.25,0.19688 -38,0.65147 c -20.9,0.35831 -38.07027,0.71971 -38.15616,0.80312 -0.0859,0.0834 -0.4625,2.37901 -0.83692,5.10134 -0.80267,5.83611 -2.56164,7.89385 -4.62424,5.40971 z M 165,158.5 V 144 H 151.5 138 v 14.5 14.5 h 13.5 13.5 z m 30,0 V 144 h -14 -14 v 14.5 14.5 h 14 14 z M 165,126 V 110 H 151.5 138 v 16 16 h 13.5 13.5 z m 30,0 v -16 h -14 -14 v 16 16 h 14 14 z M 249,93.672877 C 249,93.49296 244.3875,89.510155 238.75,84.8222 227.81419,75.728352 208.3594,56.380627 200.21573,46.5 197.49585,43.2 192.11115,36.130852 188.24975,30.790781 l -7.02074,-9.709218 -3.47697,5.209218 C 165.73385,44.296538 142.14733,70.053877 123.77647,85.234069 118.39941,89.677234 114,93.467227 114,93.656275 114,93.845324 144.375,94 181.5,94 218.625,94 249,93.852795 249,93.672877 Z m -73.6484,-4.734255 c -4.32262,-1.294908 -9.00192,-6.909398 -9.82658,-11.790506 -0.84638,-5.009689 2.05669,-12.172709 5.97356,-14.73914 1.47711,-0.96784 5.0067,-1.930845 7.84354,-2.140011 18.97947,-1.399398 21.51107,26.314545 2.65788,29.096373 -1.925,0.284038 -4.91678,0.09202 -6.6484,-0.426716 z m 12.2686,-6.051548 c 2.98116,-2.800648 4.31626,-7.438149 3.24596,-11.274866 -2.51525,-9.016428 -13.66381,-10.770093 -19.69826,-3.098529 -3.82346,4.860741 -2.03494,12.809119 3.59467,15.975092 3.65241,2.054039 9.77862,1.290888 12.85763,-1.601697 z"
         id="path284" />
    </g>
  </g>
</svg>
