<?xml version="1.0" encoding="UTF-8" standalone="no"?>
<!-- Created with Inkscape (http://www.inkscape.org/) -->

<svg
   version="1.1"
   id="svg131"
   width="185"
   height="399"
   viewBox="0 0 185 399"
   sodipodi:docname="ウ.png"
   inkscape:export-filename="../all_svg/ウ.svg"
   inkscape:export-xdpi="96"
   inkscape:export-ydpi="96"
   xmlns:inkscape="http://www.inkscape.org/namespaces/inkscape"
   xmlns:sodipodi="http://sodipodi.sourceforge.net/DTD/sodipodi-0.dtd"
   xmlns="http://www.w3.org/2000/svg"
   xmlns:svg="http://www.w3.org/2000/svg">
  <defs
     id="defs135" />
  <sodipodi:namedview
     id="namedview133"
     pagecolor="#ffffff"
     bordercolor="#000000"
     borderopacity="0.25"
     inkscape:showpageshadow="2"
     inkscape:pageopacity="0.0"
     inkscape:pagecheckerboard="0"
     inkscape:deskcolor="#d1d1d1"
     showgrid="false" />
  <g
     inkscape:groupmode="layer"
     inkscape:label="Image"
     id="g137">
    <g
       id="g1203">
      <path
         id="rect1268"
         style="fill:#aeaeae"
         d="M 81.599258,192.23785 H 99.863819 V 226.139 H 81.599258 Z M 66.75,376.76936 c -1.5125,-0.51482 -1.844092,-0.60854 -2.75,-1.91171 -1.145192,-1.33419 -2.46227,-3.93382 -3.946177,-6.27942 C 58.37422,366.13701 57,363.74103 57,363.25384 c 0,-0.4872 2.5875,-1.92753 5.75,-3.20074 6.964448,-2.80386 21.200169,-10.31627 26.930175,-14.21146 3.997679,-2.71758 9.028309,-7.85929 19.698835,-4.9322 L 117,343 v -5 -5 h -4.39934 -4.39933 l 8.65738,-8.75 c 9.6183,-9.72119 16.51001,-19.43765 21.59875,-30.45156 6.33504,-13.71137 11.4444,-34.4734 13.16971,-53.51549 l 0.6539,-7.21705 -11.39053,-0.37572 c -9.34774,-0.30834 -9.04099,-0.32542 2.20488,-1.0975 7.50768,-0.51544 16.95946,1.53333 17.38032,1.96158 1.03963,1.05787 -2.21498,36.54833 -3.44859,48.94574 -1.64166,16.49811 -3.35627,27.5 -4.2858,27.5 -1.4868,3.6816 -4.0761,6.72865 -6.4854,10.17214 -12.70616,19.1504 -37.47076,39.48642 -62.28691,51.14832 -14.237095,6.69047 -13.892104,6.5813 -17.21904,5.4489 z M 21.655481,282.40188 c -0.835383,-13.65327 -0.846338,-38.73028 -0.01956,-44.76231 0.31613,-2.30643 -0.324126,-4.38612 0.243542,-4.9694 C 22.447134,232.08688 24.222726,233 26.151259,233 h 3.879412 L 29.765335,261.75 29.5,290.5 l -2.99675,0.34023 c -1.648212,0.18713 -4.543309,0.12508 -4.872082,0.65705 -0.328772,0.53196 0.384828,-3.20325 0.02431,-9.0954 z m -9.067359,7.74071 c -0.691037,-1.11812 -0.910455,-74.15359 -0.224839,-74.83921 0.228999,-0.229 14.000077,-0.37868 30.602395,-0.33262 16.633505,0.0461 28.304746,-0.53259 29.654167,-0.77685 0.547523,-0.0991 2.441736,0.12391 3.10504,0.12268 0.840371,-0.002 -1.326229,0.75412 -1.559155,4.75756 l -0.334269,5.7453 -28.833352,0.34027 c -15.858344,0.18716 -29.19438,0.70174 -29.635636,1.14352 -1.349071,1.35068 -1.926468,31.24002 -1.111503,47.63115 0.353155,7.10291 7.518965,11.89702 7.304041,14.4863 -0.214924,2.58929 -8.135779,3.06666 -8.966889,1.7219 z M 164.34964,244.44685 166,225 h -29 -29 l 0.0657,-0.81427 L 108,219.16667 c -0.0581,-4.43982 -1.95177,-5.11064 -0.84349,-5.11064 0.80081,0 2.66983,0.0842 3.22365,0.13788 2.86051,0.27711 13.02066,0.82299 29.65416,0.77685 16.60232,-0.0461 32.64412,0.28836 32.95839,0.60263 0.82883,0.82884 0.85026,10.30387 -0.87535,25.7279 -0.63644,5.68865 -2.3485,15.90722 -3.08972,19.44355 -0.72729,3.46988 -4.48895,20.18749 -5.06732,20.47325 -0.57837,0.28576 0.2778,-23.07738 0.0862,-25.48974 -0.19165,-2.41236 -0.13033,-6.17323 0.30318,-11.2815 z"
         sodipodi:nodetypes="cccccsccsssscccccssscssssccsssssscccssssscscscssssscccccsscsssssscc" />
      <path
         style="fill:#0d0c0c"
         d="M 76.130856,386.52007 C 68.299925,384.74581 58.396676,380.19559 51.755061,375.3202 41.505703,367.79648 30.881515,351.74971 24.715005,334.4789 19.552816,320.02094 15.173231,295.15068 13.981596,273.5273 c -0.867621,-15.74384 0.01284,-45.8544 1.380877,-47.22406 0.441256,-0.44178 13.751628,-0.9561 29.578605,-1.14294 l 28.776321,-0.33969 0.635307,-8.16031 c 0.349418,-4.48816 0.638004,-35.54979 0.6413,-69.02582 L 75,86.768954 70.912107,83.032251 c -2.99965,-2.74195 -3.997942,-4.368454 -3.75,-6.109826 0.516303,-3.62615 -2.87938,-3.82491 -4.188863,-0.245188 C 62.405323,78.229757 61.69558,80.175 61.396038,81 60.959616,82.201994 60.468834,82.030982 58.925708,80.139216 57.614926,78.532289 57,76.23221 57,72.936269 c 0,-8.785643 4.219357,-13.614373 5.576238,-6.381576 0.584341,3.114804 0.992132,3.516988 3.295313,3.25 2.525768,-0.29279 2.694663,-0.71488 4.323411,-10.804693 0.932229,-5.775 1.933479,-11.7375 2.225,-13.25 C 72.902302,43.24747 72.682282,43 69.975,43 c -2.413981,0 -2.977888,0.4243 -2.990313,2.25 -0.02719,3.995687 -1.402023,5.051318 -3.524394,2.706124 -2.868647,-3.169819 -2.726335,-13.129178 0.229893,-16.088478 l 2.190186,-2.192463 0.643337,2.912409 C 67.653976,37.704351 67.885847,38 70.768539,38 c 2.668943,0 2.90521,-0.358414 4.120009,-6.25 0.708786,-3.4375 1.753921,-6.8125 2.322522,-7.5 C 77.94349,23.364424 82.124152,23 91.551016,23 106.49092,23 107.49383,23.400882 108.51833,29.782146 109.81466,37.856487 109.89073,38 112.87439,38 c 2.32768,0 2.9994,-0.568748 3.74591,-3.171653 1.16825,-4.073452 2.72642,-4.557559 4.20739,-1.307189 1.51243,3.319435 1.49908,9.933169 -0.0286,14.157844 -1.57068,4.343629 -2.45855,4.189729 -3.91726,-0.679002 -0.95476,-3.186716 -1.67454,-4 -3.54014,-4 -2.75981,0 -2.90727,1.528896 -1.31915,13.677641 C 113.62649,68.947277 113.64771,69 116.98051,69 c 2.60374,0 3.07086,-0.477039 4.05846,-4.144711 l 1.11605,-4.144712 2.16255,2.162553 c 3.04853,3.04853 2.99153,13.262212 -0.0912,16.344959 l -2.08948,2.089474 -0.87605,-3.403782 c -0.72547,-2.818703 -1.39631,-3.45552 -3.90273,-3.704781 -2.83578,-0.282014 -2.99926,-0.11417 -2.59195,2.66106 0.32637,2.223704 -0.0666,3.230347 -1.57633,4.03835 -1.10608,0.59196 -2.90123,2.544483 -3.98922,4.33894 -1.93394,3.189726 -1.96624,4.788107 -1.44545,71.51265 l 0.5327,68.25 h 28.93792 28.93792 l -0.44713,22.75 c -0.63022,32.06532 -3.12778,53.44829 -8.73821,74.81257 -8.85428,33.71673 -25.45559,55.39787 -47.90622,62.56504 -8.53111,2.72349 -24.152202,3.3838 -32.941274,1.39246 z M 105.4846,379.462 c 24.67333,-6.42659 42.30475,-33.75367 48.94419,-75.859 2.92916,-18.57586 5.50264,-59.82451 4.17421,-66.90567 -0.61397,-3.27272 -0.90281,-3.47944 -5.76243,-4.12409 -2.81384,-0.37327 -15.62908,-0.36179 -28.47832,0.0255 L 101,233.30295 v 11.83168 11.83168 l 4.81346,2.43916 c 21.76086,11.02706 22.7007,42.82178 1.61752,54.72039 L 102,317.19092 V 325.09546 333 h 7.5 7.5 v 5 5 H 93.5 70 v -5 -5 h 6.5 6.5 l -0.0037,-7.75 -0.0037,-7.75 -4.464546,-1.83594 C 69.660754,312.01763 62.012859,301.51868 60.4794,290.8872 58.660045,278.2736 67.210626,263.57038 79.303827,258.51752 L 83,256.97316 V 244.98658 233 H 52.579594 22.159188 l -0.725258,6.75 c -1.072153,9.97857 0.260724,49.16444 2.083372,61.25 5.887282,39.0372 20.060965,64.92891 40.785141,74.50407 4.170256,1.92678 9.295721,3.90639 11.389921,4.39913 6.347176,1.49342 23.330304,1.24192 29.792236,-0.4412 z M 88.79381,325.7606 C 88.551913,319.80034 88.190792,318.46221 86.75,318.18728 85.207988,317.89304 85,318.75344 85,325.42668 85,332.38745 85.16531,333 87.04381,333 c 1.897257,0 2.022741,-0.5191 1.75,-7.2394 z m 6.00188,0.49974 c -0.240556,-5.483 -0.621991,-6.80188 -2.04569,-7.07333 -1.533176,-0.29232 -1.75,0.54272 -1.75,6.73967 0,6.45931 0.177578,7.07332 2.04569,7.07332 1.887815,0 2.02287,-0.52013 1.75,-6.73966 z M 100,325.42668 c 0,-6.67324 -0.207988,-7.53364 -1.75,-7.2394 -1.440792,0.27493 -1.801913,1.61306 -2.04381,7.57332 -0.272741,6.7203 -0.147257,7.2394 1.75,7.2394 1.8785,0 2.04381,-0.61255 2.04381,-7.57332 z m -11,-38 c 0,-24.76948 -0.118794,-26.55048 -1.75,-26.23678 -1.603443,0.30837 -1.772406,2.46515 -2.01755,25.75346 -0.266111,25.28026 -0.07664,26.97815 3.01755,27.04133 0.4125,0.008 0.75,-11.94269 0.75,-26.55801 z m 5,0.0733 c 0,-25.83333 -0.05031,-26.5 -2,-26.5 -1.840122,0 -2,0.66667 -2,8.33969 0,4.58683 0.296013,16.51183 0.657807,26.5 0.514361,14.20013 0.950497,18.16031 2,18.16031 C 93.746965,314 94,309.00412 94,287.5 Z m 5.90032,2.25 C 99.799095,266.13965 99.407352,261.96912 97.222417,261.24081 96.280024,260.92667 96,266.80834 96,286.91667 96,312.33333 96.051118,313 98,313 c 1.945511,0 1.997284,-0.63344 1.90032,-23.25 z M 83,286.97968 v -25.02033 l -3.892554,1.98583 c -7.738675,3.94798 -14.115363,14.34058 -14.101869,22.98296 0.0138,8.84078 4.768488,17.70145 11.940204,22.25135 C 79.39096,310.73077 81.75346,312 82.195781,312 82.638101,312 83,300.74085 83,286.97968 Z m 27.37648,19.14087 c 6.61456,-6.02604 9.31895,-17.62551 6.41262,-27.50453 C 115.46506,274.11543 105.35107,263 102.58,263 c -1.85286,0 -1.93712,2.82023 -0.92178,30.85103 l 0.65822,18.17165 2.59178,-1.64079 c 1.42548,-0.90244 3.8862,-2.82004 5.46826,-4.26134 z M 99,245 c 0,-11.33333 -0.111111,-12 -2,-12 -1.878238,0 -2,0.66667 -2,10.95031 0,9.3739 0.25193,11.09705 1.75,11.96959 0.9625,0.56061 1.8625,1.03297 2,1.04969 C 98.8875,256.98632 99,251.6 99,245 Z M 89,244.5 C 89,233.66667 88.884058,233 87,233 c -1.884058,0 -2,0.66667 -2,11.5 0,10.83333 0.115942,11.5 2,11.5 1.884058,0 2,-0.66667 2,-11.5 z m 5,0 C 94,233.66667 93.884058,233 92,233 c -1.884058,0 -2,0.66667 -2,11.5 0,10.83333 0.115942,11.5 2,11.5 1.884058,0 2,-0.66667 2,-11.5 z M 82.749547,124.25 C 82.597165,105.6875 82.47249,120.875 82.47249,158 c 0,37.125 0.124675,52.3125 0.277057,33.75 0.152381,-18.5625 0.152381,-48.9375 0,-67.5 z M 88,158 C 88,99.111111 87.818408,91 86.5,91 85.181592,91 85,99.111111 85,158 c 0,58.88889 0.181592,67 1.5,67 1.318408,0 1.5,-8.11111 1.5,-67 z m 5,39.16378 C 93,152.49376 91.747417,91 90.837522,91 90.376885,91 90,121.15 90,158 c 0,58.88889 0.181592,67 1.5,67 1.297409,0 1.5,-3.75958 1.5,-27.83622 z M 98.37375,166.25 C 97.886619,100.21061 97.523884,91 95.410231,91 c -1.661944,0 -1.814227,18.31996 -0.74604,89.75 0.615096,41.13166 0.78439,44.25 2.402324,44.25 1.639294,0 1.715374,-3.41923 1.307235,-58.75 z m 2.13711,-75.072477 c -0.28097,-0.280971 -0.739254,-0.282462 -1.018403,-0.0033 -0.279148,0.279148 -0.166648,19.816647 0.25,43.416667 L 100.5,177.5 l 0.26086,-42.90581 c 0.14347,-23.5982 0.031,-43.135697 -0.25,-43.416667 z M 83,80.5 V 74 H 79.468615 C 74.330226,74 73.953592,76.344055 78.36594,80.86271 80.364673,82.909598 82,85.127852 82,85.792163 82,86.456473 82.225,87 82.5,87 82.775,87 83,84.075 83,80.5 Z m 4.667457,-3.75 C 87.322548,71.1125 86.74023,61.2125 86.373418,54.75 L 85.706488,43 H 82.853244 C 81.28396,43 79.991811,43.3375 79.981803,43.75 79.971794,44.1625 79.079983,49.9 78,56.5 c -1.079983,6.6 -1.971794,12.312844 -1.981803,12.695209 -0.01001,0.382365 2.119303,0.832365 4.731803,1 L 85.5,70.5 85.150499,77.684495 C 84.796063,84.970422 85.243963,87 87.206299,87 c 0.75436,0 0.895854,-3.144942 0.461158,-10.25 z m 4.655536,4 c 0.32955,-3.4375 1.144216,-14.4625 1.810369,-24.5 L 95.344547,38 h 3.388092 c 3.303641,0 3.380351,-0.09347 3.077731,-3.75 L 101.5,30.5 91.75,30.213788 c -8.797017,-0.258237 -9.751335,-0.111624 -9.763655,1.5 C 81.978835,32.696205 81.701351,34.5125 81.369714,35.75 80.82883,37.768302 81.125655,38 84.252152,38 h 3.485414 l 0.11946,8.25 c 0.0657,4.5375 0.568077,14.775 1.116387,22.75 0.54831,7.975 1.003601,15.2875 1.011757,16.25 0.0082,0.9625 0.402687,1.75 0.876735,1.75 0.474048,0 1.131537,-2.8125 1.461088,-6.25 z M 97,78 v -9 h 4.5 c 5.18846,0 5.05625,0.442671 3.48761,-11.677641 C 103.07479,42.542659 103.23354,43 100.01596,43 96.596257,43 96.612849,42.921057 95.019926,66.770415 93.693379,86.631584 93.702122,87 95.5,87 96.722222,87 97,85.333333 97,78 Z m 6.91349,3.802997 C 108.26169,75.890359 108.04039,74 103,74 h -4 v 6 c 0,3.3 0.41107,6 0.91349,6 0.50242,0 2.30242,-1.888651 4,-4.197003 z"
         id="path1205"
         sodipodi:nodetypes="sssssscsscsssssssssssssscsssssssssssscsscsscsssssscccsssssssssscccsscccccccccccccccssscccccssssssssssssssssssssssscssssssssssssssscssssssssscsssssssssssssssssssssssssssssssssssssssscssscssssssscssssscssssscsscsssscsscssscsssssssscsss" />
    </g>
  </g>
</svg>
