<?xml version="1.0" encoding="UTF-8" standalone="no"?>
<!-- Created with Inkscape (http://www.inkscape.org/) -->

<svg
   version="1.1"
   id="svg972"
   width="151.12927"
   height="404.86118"
   viewBox="0 0 151.12927 404.86118"
   sodipodi:docname="エ.png"
   xmlns:inkscape="http://www.inkscape.org/namespaces/inkscape"
   xmlns:sodipodi="http://sodipodi.sourceforge.net/DTD/sodipodi-0.dtd"
   xmlns="http://www.w3.org/2000/svg"
   xmlns:svg="http://www.w3.org/2000/svg">
  <defs
     id="defs976" />
  <sodipodi:namedview
     id="namedview974"
     pagecolor="#ffffff"
     bordercolor="#000000"
     borderopacity="0.25"
     inkscape:showpageshadow="2"
     inkscape:pageopacity="0.0"
     inkscape:pagecheckerboard="0"
     inkscape:deskcolor="#d1d1d1"
     showgrid="false" />
  <g
     inkscape:groupmode="layer"
     inkscape:label="Image"
     id="g978"
     transform="translate(-11.5,-10.047282)">
    <g
       id="g982">
      <path
         id="path986"
         style="fill:#ababab"
         d="m 68.232358,378.78138 c -0.502045,29.62043 -1.936227,-33.69166 -0.524731,-33.70313 116.212283,-0.94451 18.775357,13.83703 12.311898,14.6781 -3.20388,0.41691 -0.359208,0.1534 -0.359208,0.1534 -3.951364,1.85873 -1.744921,-12.77308 2.031348,0.17136 -2.594427,-5.00881 -1.738053,-0.33592 -4.508515,-107.73953 L 56.75,252.22971 36,251.95942 v -2.97971 L 35.3663,243.62363 86,246 h 50 v 3 3 H 114.5 93 l 0.0087,45.25 c 0.0092,47.83749 0.382538,55.75 2.630591,55.75 0.883984,0 -27.273794,-0.7273 -28.830089,-2.33201 -8.554842,-8.82097 56.119718,-4.64134 53.459908,-4.36639 l -13.58876,1.4047 1.23226,6.36679 C 109.18731,360.6592 104.81828,360.94181 103,361 101.29717,361.0545 59.817805,362.64157 63.0241,360.06833 64.237271,359.09468 100.43333,356 99.5,356 c 0.85456,6.17414 -21.678338,8.921 -21.992055,-3.98352 0,-1.16955 18.841301,3.98352 17.992055,3.98352 -0.933333,0 -1.5,0.94444 -1.5,2.5 0,2 -0.5,2.5 -2.5,2.5 -2.021505,0 -2.5,-0.49444 -2.5,-2.58333 0,-1.63589 -0.458443,-2.42113 -1.25,-2.14105 -0.755486,0.26731 10.471129,-1.15503 10.579148,1.19668 0.0075,3.75016 -0.422649,2.37613 -1.40914,-0.10895 -0.607701,3.00622 -12.737718,4.99167 -12.804007,2.88665 -0.121421,-4.44857 0.260372,-5.62287 0.260372,-1.27472 0,1.78624 16.575217,-2.90431 15.222671,-2.90431 -10.587823,5.94313 -45.220432,2.21667 -34.689352,2.39354 -3.686652,0 0.0082,-1.98564 0.0082,-0.71576 -11.504462,13.71136 3.753761,61.71532 3.426478,14.4233 z M 18.232041,382.25 18,353 H 39.5 61 l 2.128443,4.22405 c -3.23872,6.45353 14.841962,-2.99295 11.630208,3.47404 -0.466666,1 -35.241575,-0.36516 -36.341984,-0.44809 -15.256412,-1.14975 6.889477,-0.78889 6.889477,0.64619 -1.119083,0.81664 -13.076892,-0.89604 -14.462235,-0.88819 -0.81125,0 59.577702,1.23417 34.036388,0.88819 8.131089,1.21885 -42.624847,0.0982 -47.638328,0.21583 -6.298442,36.77506 -1.198297,16.94536 -1.29334,25.36203 l 0.835103,22.22537 z M 158.58972,386.92214 158.24868,360.66393 152.06336,361 c 17.47313,-0.82325 -0.70127,-0.10775 -10.56642,0 -3.0529,0 5.77771,-6.07933 5.41237,-3.13533 -0.34962,2.81726 -21.48502,2.57208 -21.62374,-1.11202 -0.15363,-4.07984 13.12558,-0.69105 12.06245,1.92902 -0.38207,0.94162 26.58632,3.97925 25.23188,3.7912 -0.48781,-0.0677 -30.7494,-3.70337 -31.73826,-2.71451 -0.6829,0.6829 -2.69813,1.24164 -4.47828,1.24164 -2.75951,0 3.53311,-6.98815 3.16488,-4.64354 -0.23754,1.5125 -7.81441,5.65546 -7.66411,3.59296 0.19564,-2.68351 0.54599,-0.94942 -0.45932,-0.94942 -0.77266,0 36.23499,1.12214 36.23499,1.67214 0,0.55 -90.073411,0.77596 -91.998411,0.77596 C 62.159939,361.4481 113,360.9762 113,356.5 V 352 h 20.91023 20.91023 l 0.64867,8.25 c 0.35677,4.5375 3.00484,21.2257 4.12758,32.99868 l 1.23845,12.98622 z M 32.242665,251.66684 c -0.345464,-0.55897 -2.514841,1.35047 -1.965193,1.25898 18.840246,-3.13597 1.96582,1.22308 1.53553,-2.38095 -0.842708,-7.05837 8.720182,-9.50568 11.347332,-8.82429 1.755353,0.45527 -8.615463,-4.02155 -8.615463,2.01967 0,6.78939 -1.06851,9.92275 -2.302206,7.92659 z M 144,245.5185 c 0,-4.6204 -3.72691,-5.34603 -2.65108,-5.75887 2.08215,-0.79899 6.26133,-0.20468 6.91775,5.39395 0.79212,6.75603 -3.25479,7.52823 -5.64726,7.87937 C 141.45739,253.20349 144,250.49858 144,245.5185 Z m -67.169558,-0.0184 c 35.428788,-5.33162 15.799306,3.42036 50.905308,-5.96692 l -3.46653,-12.44241 0.96936,-10.54131 4.06665,18.07967 -1.00295,5.24725 C 98.980531,249.3137 6.8292358,230.48385 76.830442,245.5001 Z m 67.066578,-6.53938 h 5.54487 v 13.78297 h -5.54487 z m -121.475095,0.0376 h 6.560216 v 13.29561 h -6.560216 z" />
      <path
         style="fill:#0e0e0e"
         d="M 62.654988,413.17126 C 61.19462,411.55757 61,407.9121 61,382.17126 V 353 H 39.5 18 v 29.39301 c 0,26.5872 -0.160135,29.45446 -1.677541,30.03675 -3.79323,1.45559 -4.095903,-0.84431 -4.465239,-33.92976 l -0.35722,-32 3.175529,-0.3078 c 1.74654,-0.1693 3.652618,-0.88267 4.235728,-1.58527 0.685104,-0.8255 1.1537,-12.53043 1.324472,-33.08363 0.287238,-34.57031 -0.04227,-32.70847 6.014271,-33.98279 L 29,276.9619 V 257.98095 239 h 5.418213 C 43.272007,239 43,239.41688 43,225.84756 43,214.50548 43.122618,213.78647 45.454545,211.45455 47.67206,209.23703 48.722485,209 56.332101,209 c 5.653227,0 8.774697,-0.42376 9.492503,-1.28866 1.849205,-2.22816 3.131836,-13.6223 4.691816,-41.67933 2.170677,-39.04073 3.529832,-46.93501 10.600366,-61.56935 L 85,96.425328 V 54.794451 c 0,-22.896982 0.273145,-42.34268 0.606989,-43.212664 0.785126,-2.0460061 4.000896,-2.0460061 4.786022,0 C 90.726855,12.451771 91,31.813004 91,54.606752 v 41.443176 l 3.491679,6.933552 c 6.693291,13.29109 8.611111,23.37423 11.530921,60.62497 2.09069,26.67283 3.2785,36.51081 5.08805,42.14155 l 1.04445,3.25 h 6.96791 c 6.06468,0 7.28607,0.31817 9.42244,2.45455 2.3176,2.31759 2.45455,3.08754 2.45455,13.8 0,7.4909 0.40769,11.75314 1.2,12.54545 0.66,0.66 3.58751,1.2 6.50557,1.2 h 5.30557 l -0.25557,18.75 -0.25557,18.75 3.98732,0.32451 c 2.19303,0.17849 4.55553,0.79609 5.25,1.37245 C 153.7056,279.00056 154,286.63069 154,310.92244 154,344.2175 154.10333,345 158.5,345 c 1.155,0 2.57982,0.47982 3.16627,1.06627 1.68437,1.68437 0.52227,65.00049 -1.22692,66.84783 -1.09742,1.15899 -1.61863,1.182 -2.88916,0.12755 C 156.22963,411.94569 156,408.23986 156,388.02425 c 0,-13.05198 -0.28911,-26.49688 -0.64246,-29.87756 L 154.71509,352 H 133.85754 113 v 29.43261 c 0,28.55436 -0.0597,29.45156 -2,30.06739 -1.1,0.34913 -2.90603,0.34721 -4.01339,-0.004 -1.97165,-0.62578 -2.00793,-1.32691 -1.75,-33.81739 L 105.5,344.5 l 3.25,-0.31336 3.25,-0.31336 V 310.43664 277 h 12 12 V 261.5 246 H 86 36 v 15.5 15.5 h 13 13 v 34 34 h 3 3 v 33.8 c 0,24.95556 -0.314004,34.114 -1.2,35 -1.610237,1.61024 -2.199681,1.52083 -4.145012,-0.62874 z M 55,315 V 285 H 40.5 26 v 30 30 H 40.5 55 Z m 93,-1 V 284 H 133.5 119 v 30 30 H 133.5 148 Z M 124.5,227 V 216.5 L 87.25,216.23783 50,215.97566 V 227 238.02434 L 87.25,237.76217 124.5,237.5 Z M 83,163.5 c 0,-29.66667 0.347985,-45.5 1,-45.5 0.652015,0 1,15.83333 1,45.5 0,29.66667 0.347985,45.5 1,45.5 0.652015,0 1,-15.83333 1,-45.5 0,-29.66667 0.347985,-45.5 1,-45.5 0.652015,0 1,15.83333 1,45.5 0,29.66667 0.347985,45.5 1,45.5 0.652015,0 1,-15.83333 1,-45.5 0,-29.66667 0.347985,-45.5 1,-45.5 0.652015,0 1,15.83333 1,45.5 V 209 h 6.067388 c 5.317472,0 6.000662,-0.2163 5.527492,-1.75 -1.49216,-4.83658 -3.6611,-23.04181 -5.093181,-42.75 -1.800014,-24.77171 -2.906753,-34.08514 -5.169217,-43.5 -1.792402,-7.45878 -5.200231,-16 -6.383777,-16 -0.983392,0 -4.294891,8.67869 -6.346977,16.634 -2.149327,8.33227 -3.386507,20.61531 -4.619747,45.866 -0.980321,20.07217 -2.018769,31.35816 -3.56547,38.75 -0.568013,2.71459 -0.51002,2.75 4.504034,2.75 H 83 Z"
         id="path984" />
    </g>
  </g>
</svg>
