<?xml version="1.0" encoding="UTF-8" standalone="no"?>
<!-- Created with Inkscape (http://www.inkscape.org/) -->

<svg
   version="1.1"
   id="svg1165"
   width="277.99875"
   height="278.16455"
   viewBox="0 0 277.99875 278.16455"
   sodipodi:docname="オ.png"
   inkscape:export-filename="..\all_svg\オ.svg"
   inkscape:export-xdpi="96"
   inkscape:export-ydpi="96"
   xmlns:inkscape="http://www.inkscape.org/namespaces/inkscape"
   xmlns:sodipodi="http://sodipodi.sourceforge.net/DTD/sodipodi-0.dtd"
   xmlns="http://www.w3.org/2000/svg"
   xmlns:svg="http://www.w3.org/2000/svg">
  <defs
     id="defs1169" />
  <sodipodi:namedview
     id="namedview1167"
     pagecolor="#ffffff"
     bordercolor="#000000"
     borderopacity="0.25"
     inkscape:showpageshadow="2"
     inkscape:pageopacity="0.0"
     inkscape:pagecheckerboard="0"
     inkscape:deskcolor="#d1d1d1"
     showgrid="false" />
  <g
     inkscape:groupmode="layer"
     inkscape:label="Image"
     id="g1171"
     transform="translate(-10.283957,-11.58995)">
    <g
       id="g1175">
      <path
         style="fill:#afafaf"
         d="M 210.91667,202.60489 C 210.6875,202.38757 204.875,202.01459 198,201.77604 c -6.875,-0.23855 -12.52202,-0.84825 -12.54893,-1.35488 -0.0617,-1.16062 -1.59611,-10.79108 -1.79983,-11.296 -0.0832,-0.20615 4.94755,-0.29368 11.17941,-0.19449 7.47345,0.11896 11.81383,-0.22065 12.75,-0.9976 0.78064,-0.64788 1.46671,-1.01036 1.5246,-0.80551 0.22824,0.80763 2.45328,15.87244 2.34433,15.87244 -0.0639,0 -0.30375,-0.1778 -0.53291,-0.39511 z M 216.66131,184 c -1.26625,-4.8059 -3.71185,-32.51437 -4.34133,-49.18692 L 211.6852,118 h 5.81295 5.81295 l -0.62895,13.82638 c -0.5318,11.69049 -4.00676,48.34655 -5.04081,53.17362 -0.19166,0.89468 -0.58714,0.49114 -0.98003,-1 z m -87.95388,-6.70379 -3.46973,-4.68427 11.63115,-7.61843 c 22.09267,-14.47076 45.43608,-35.59762 56.20537,-50.86847 2.34188,-3.32078 4.52072,-5.86917 4.84187,-5.6631 0.32115,0.20608 1.68256,2.40541 3.02535,4.88741 l 2.44144,4.51272 -5.90002,7.703 c -7.74373,10.11013 -23.77732,26.84428 -33.34664,34.80367 -7.64777,6.36111 -18.55671,13.9301 -27.29764,18.94002 l -4.66142,2.67172 z M 204,104.2474 c -1.925,-3.13273 -3.65,-6.04497 -3.83333,-6.471639 -0.18334,-0.426669 7.24166,-0.700115 16.5,-0.607658 9.25833,0.09246 15.11401,0.346518 13.01262,0.564581 l -3.82071,0.396478 0.15957,4.685418 c 0.0878,2.57698 0.11958,5.24792 0.0707,5.93542 -0.0644,0.90572 -2.63657,1.24219 -9.33886,1.22164 l -9.25,-0.0284 -3.5,-5.69588 z M 134.25,93.907507 C 130.74335,90.534877 129,88.051541 129,86.429078 129,85.093085 129.47656,84 130.05902,84 c 0.58246,0 0.85152,-0.3375 0.59791,-0.75 -0.25361,-0.4125 10.48851,-0.70804 23.87137,-0.656757 l 24.33247,0.09324 4.83639,5.406756 c 2.66001,2.973717 5.35359,6.081757 5.98573,6.906757 1.01612,1.326132 -1.92992,1.467262 -25.41614,1.217566 -23.77034,-0.252717 -26.43166,-0.121196 -25.29367,1.25 2.41322,2.907748 0.51079,1.473773 -4.72308,-3.560059 z M 264.5,95 l -22,-0.5 5.5,-3.143333 c 3.025,-1.728833 6.75523,-4.471966 8.28941,-6.095851 l 2.7894,-2.952517 14.15029,0.36888 c 7.78266,0.202885 14.34993,0.568518 14.59393,0.812518 0.82909,0.829086 0.44824,10.640077 -0.4397,11.32697 C 286.8975,95.1925 276.6,95.275 264.5,95 Z m -75.01408,-7.147873 c -1.64226,-1.18133 -4.07784,-3.54383 -5.4124,-5.25 -1.33457,-1.70617 -1.80707,-2.539627 -1.05,-1.852127 C 183.97973,81.618347 188.46079,82 197.7,82 H 211 V 61.45619 40.912381 l 7.25,0.293809 7.25,0.29381 0.29852,3.051099 c 0.20337,2.07852 -0.35447,3.642051 -1.75,4.904987 -2.60909,2.361199 -2.63305,3.864212 -0.0485,3.043914 1.93959,-0.615603 2,-0.1797 2,14.432612 L 226,82 h 13.68555 c 12.75813,0 13.85933,-0.152228 16.25,-2.246366 1.99513,-1.747661 1.90367,-1.516544 -0.41196,1.041043 -1.63703,1.808076 -5.05143,4.61894 -7.58755,6.246366 L 243.32491,90 h -25.42654 c -24.41659,0 -25.54513,-0.08531 -28.41245,-2.147873 z"
         id="path1179" />
      <path
         style="fill:#060606"
         d="m 77.056371,288.56792 c -1.02357,-1.23332 -0.342662,-3.33473 3.845598,-11.86819 5.070396,-10.33078 12.288874,-30.59457 13.607717,-38.19973 0.381511,-2.2 1.772904,-9.45654 3.091985,-16.12564 C 98.920752,215.70525 100,209.52579 100,208.64222 c 0,-0.92315 -3.934608,2.33573 -9.25,7.66141 -23.113451,23.15819 -46.286602,39.06791 -68.559597,47.07017 -8.520403,3.06122 -10.739202,3.24439 -11.616197,0.95898 -0.8589825,-2.23847 -0.331003,-2.58116 8.925794,-5.7933 21.32252,-7.399 42.369194,-21.20022 61,-40.00036 7.020143,-7.08395 19.71648,-22.07707 21.35942,-25.22338 0.62732,-1.20134 1.14058,-5.3157 1.14058,-9.14301 0,-7.8012 -0.32369,-8.16266 -7.331787,-8.18751 C 72.78941,175.90409 50.416318,157.34467 45.86244,134.66923 42.357321,117.21596 54.284565,95.999339 72.811939,86.730472 82.122091,82.072793 89.229108,80.66462 100.4425,81.255797 c 19.83777,1.04586 35.07609,9.654766 43.79885,24.744203 7.16963,12.40271 7.69886,28.27632 1.38593,41.56956 -5.81185,12.2381 -17.99905,22.54315 -31.30543,26.47072 l -4.17814,1.23324 -0.32186,7.91135 c -0.37851,9.30421 -1.19789,9.11899 13.09023,2.95904 10.42167,-4.49302 23.72779,-12.32285 34.07575,-20.05145 10.03595,-7.49557 26.81561,-23.80796 35.96278,-34.9613 11.77482,-14.3573 11.44358,-12.02903 3.57043,-25.09623 C 192.79545,99.8515 187.44161,92.187905 184.62362,89.004717 178.93932,82.58376 176.8463,77.895074 175.02396,67.5 c -0.67494,-3.85 -1.45522,-8.0125 -1.73397,-9.25 -0.77422,-3.437181 1.30718,-2.760477 7.04866,2.291664 5.14978,4.531481 17.1981,11.254921 18.26206,10.190955 0.77791,-0.777902 -0.75222,-3.42847 -7.03181,-12.180918 -2.97557,-4.147327 -5.95025,-9.177179 -6.6104,-11.177447 C 182.85428,40.998416 185.06556,23 187.95311,23 c 0.34764,0 1.15931,1.9125 1.8037,4.25 1.78709,6.482581 4.49249,10.097159 8.68372,11.601985 3.34979,1.202714 4.14025,1.150186 7.15946,-0.475766 3.77296,-2.031876 4.42133,-3.556396 6.94453,-16.328805 2.65897,-13.4597114 2.06599,-13.2764863 10.24911,-3.166891 9.85251,12.172004 11.8726,17.606758 9.17839,24.693066 -0.56539,1.487083 -0.83221,2.899559 -0.59293,3.138836 1.03816,1.038161 6.77575,-3.04834 9.08871,-6.473275 1.38883,-2.056533 3.74997,-5.153063 5.24697,-6.88118 l 2.72183,-3.14203 2.23173,8.616986 c 3.2712,12.630463 2.30852,17.803922 -5.12514,27.542553 C 243.59443,68.928484 242,71.296936 242,71.638706 c 0,1.305162 8.73827,-0.485894 14,-2.869537 C 262.44281,65.850477 266.91689,64 267.53087,64 c 0.24023,0 -0.27287,1.6875 -1.14022,3.75 -5.80172,13.796209 -9.58017,18.589185 -18.89065,23.962891 -5.1784,2.988805 -9.92456,8.988009 -14.83165,18.747369 -2.29768,4.56971 -2.63436,6.85841 -3.60995,24.53974 -0.59176,10.725 -1.9569,26.925 -3.03363,36 -1.07674,9.075 -2.71848,23.475 -3.64832,32 -1.6692,15.30366 -2.402,18 -4.89191,18 -1.67586,0 -2.47708,-2.07957 -4.04547,-10.5 -0.7171,-3.85 -1.78419,-9.20993 -2.37131,-11.91095 -0.58712,-2.70102 -1.54219,-10.80102 -2.12238,-18 -0.58019,-7.19898 -1.81809,-21.82676 -2.75088,-32.50619 l -1.69598,-19.41715 -4.49926,5.61983 c -2.47459,3.09091 -4.83805,5.64112 -5.25212,5.66715 -0.41408,0.026 -4.01408,3.49341 -8,7.7053 -21.02831,22.22045 -49.21434,41.20347 -72.39507,48.75738 -6.03648,1.96711 -6.66544,3.12427 -8.33376,15.33251 -1.57973,11.55993 -6.302096,30.55885 -11.20447,45.07757 -4.2792,12.67314 -13.459388,32.26077 -15.413755,32.8881 -0.604953,0.19418 -1.659624,-0.32135 -2.343714,-1.14563 z M 220.00793,164.57638 c 1.12489,-10.408 2.32829,-25.1455 2.67422,-32.75 L 223.3111,118 h -5.81295 -5.81295 l 0.63478,16.81308 c 0.90421,23.94896 4.2276,55.29269 5.32136,50.18692 0.17673,-0.825 1.24169,-10.01563 2.36659,-20.42362 z m -112.24766,3.91805 c 23.28099,-5.48905 38.15315,-25.55895 34.32701,-46.32412 C 136.64161,92.615592 102.27735,78.009011 73.844456,93.163588 62.479351,99.221126 53.68857,112.11874 52.377872,124.65882 c -2.903051,27.77489 26.10836,50.73766 55.382398,43.83561 z M 229.15142,103.72928 232.80285,97.5 216.76021,97.224552 c -8.82346,-0.151497 -16.22468,-0.09341 -16.44717,0.129073 -0.22249,0.222487 1.30356,3.138595 3.39122,6.480235 l 3.79574,6.07572 9,0.0245 9,0.0245 3.65142,-6.22929 z m 18.36645,-16.368816 c 2.19017,-1.451745 5.26159,-3.814245 6.82538,-5.25 3.23553,-2.970633 8.60272,-12.728157 6.49496,-11.807823 -12.18598,5.320919 -14.37879,5.921372 -19.64098,5.378266 -2.97429,-0.306973 -5.62966,-0.780002 -5.90083,-1.051175 -0.27117,-0.271173 1.96928,-3.561298 4.97879,-7.311387 3.00951,-3.75009 6.2932,-8.393345 7.29709,-10.318345 2.1063,-4.038905 2.3837,-12.935522 0.54332,-17.424814 l -1.19903,-2.924814 -3.20828,4.878614 c -1.76456,2.683237 -4.66842,5.726943 -6.45303,6.76379 -3.1729,1.843444 -14.36321,4.932603 -15.12144,4.174374 -0.21048,-0.210474 0.8665,-1.864186 2.39329,-3.674915 5.46494,-6.481293 6.72784,-12.447921 3.82933,-18.091895 -1.80926,-3.522994 -10.47447,-14.553221 -11.50379,-14.643538 -0.35603,-0.03124 -1.16159,2.980698 -1.79012,6.693198 -1.69415,10.006719 -2.96628,13.397819 -6.37732,17 -4.23265,4.46983 -9.18597,4.505251 -14.2015,0.101556 -1.97223,-1.731644 -4.31325,-4.544144 -5.20227,-6.25 L 187.66505,30.5 l -0.85563,3 c -1.73927,6.098183 1.36813,14.974542 8.49171,24.256776 5.84011,7.609831 7.8814,11.75905 7.50748,15.260032 L 202.5,75.906261 196,73.689088 c -3.575,-1.219446 -9.35885,-4.171598 -12.853,-6.56034 l -6.353,-4.343165 0.71068,3.357208 c 2.24815,10.620018 5.98962,17.399363 11.98124,21.709336 C 192.35401,89.915242 193.47936,90 218.00378,90 h 25.53195 z"
         id="path1177" />
    </g>
  </g>
</svg>
