<?xml version="1.0" encoding="UTF-8" standalone="no"?>
<!-- Created with Inkscape (http://www.inkscape.org/) -->

<svg
   version="1.1"
   id="svg1342"
   width="498.05035"
   height="186.08633"
   viewBox="0 0 498.05035 186.08633"
   sodipodi:docname="カ.png"
   xmlns:inkscape="http://www.inkscape.org/namespaces/inkscape"
   xmlns:sodipodi="http://sodipodi.sourceforge.net/DTD/sodipodi-0.dtd"
   xmlns="http://www.w3.org/2000/svg"
   xmlns:svg="http://www.w3.org/2000/svg">
  <defs
     id="defs1346" />
  <sodipodi:namedview
     id="namedview1344"
     pagecolor="#ffffff"
     bordercolor="#000000"
     borderopacity="0.25"
     inkscape:showpageshadow="2"
     inkscape:pageopacity="0.0"
     inkscape:pagecheckerboard="0"
     inkscape:deskcolor="#d1d1d1"
     showgrid="false" />
  <g
     inkscape:groupmode="layer"
     inkscape:label="Image"
     id="g1348"
     transform="translate(-12.513156,-11.747628)">
    <g
       id="g1352"
       inkscape:export-filename="カ.svg"
       inkscape:export-xdpi="96"
       inkscape:export-ydpi="96">
      <path
         id="path1356"
         style="fill:#adadad"
         d="m 85.354043,173.20546 c 0.478754,-0.008 -2.742327,-3.19369 -4.733581,-5.62376 -3.95803,-4.83025 -5.065497,-5.72256 -3.132139,-7.32711 0.468757,-0.38904 2.795454,-2.07387 4.323151,-1.89139 2.007457,0.23978 2.831125,2.21806 5.98789,2.80427 15.630256,2.90253 15.772406,3.25953 13.384426,3.80787 -2.858296,0.65635 -12.638339,7.61597 -13.536505,9.22091 -1.186525,1.34878 -2.341869,-1.59944 -2.293242,-0.99079 z m 82.042837,-8.94707 -8.10312,-0.33453 -1.25015,-4.21193 c -0.68759,-2.31656 -1.67516,-4.73392 -2.19461,-5.3719 -0.51945,-0.63798 1.97067,0.38797 5.53359,2.27989 7.54848,4.00826 16.87155,7.38008 20.40588,7.38008 5.60725,0 11.50036,-10.21737 14.70772,-25.5 1.59914,-7.61971 2.01931,-27.96486 0.65435,-31.6849 -0.4672,-1.27331 -0.50544,-6.1401 -0.085,-10.8151 0.42046,-4.675 0.99301,-11.9875 1.27234,-16.25 L 198.84575,72 H 175.5395 152.23324 l -0.60297,2.25 c -0.33164,1.2375 -0.6132,3.6 -0.62569,5.25 -0.0183,2.410408 -1.98392,12.1114 -5.15815,25.45655 -0.3103,1.30456 -9.93611,7.27213 -10.62924,6.58965 -0.15553,-0.15314 0.67001,-4.67612 1.83454,-10.05106 2.18824,-10.099957 -1.80091,1.548 -5.67573,1.50427 -0.87603,-0.01 2.64634,-13.615299 3.07681,-14.737086 0.36675,-0.955721 0.93183,-4.575713 1.25574,-8.044426 0.40523,-4.339499 0.28692,-11.690078 1.38869,-12.249943 4.42053,-2.246287 38.32991,0.05172 60.30442,0.0406 L 214.30336,68 213.6082,82.75 c -1.27966,27.15204 -4.75682,58.30511 -7.64869,68.52733 -1.23345,4.36002 -5.99811,10.17415 -10.05829,12.27375 -2.77892,1.43704 -7.80638,1.56179 -28.50434,0.70731 z m -68.622264,-7.23222 c -10.846563,-2.8922 -15.829695,0.41237 -2.595428,-8.85346 15.458802,-10.82331 26.927572,-27.28442 32.486442,-41.42894 1.46038,-3.71593 2.82273,-6.58874 3.02745,-6.38402 0.60761,0.6076 -4.46024,23.00987 -6.74928,29.83497 -3.08002,9.18354 -7.73455,17.41515 -13.27535,23.47767 -2.67803,2.93019 -4.59474,6.42046 -4.95205,6.37081 -0.35731,-0.0496 -4.24282,-2.03072 -7.941784,-3.01703 z m 74.411464,-0.47553 c -7.918,-2.94094 -8.74224,-3.72503 -3.10705,-2.95565 2.43153,0.33198 7.08466,0.11011 10.34029,-0.49304 3.25562,-0.60316 6.11721,-0.89875 6.35909,-0.65687 0.89534,0.89534 -3.97387,6.55308 -5.5965,6.50282 -0.92505,-0.0287 -4.52317,-1.10743 -7.99583,-2.39726 z M 93.83716,72.254671 83.17432,71.934105 82.83716,65.869379 c -0.185438,-3.3356 0.0027,-6.273808 0.41815,-6.529352 0.41542,-0.255543 12.61187,-0.423395 27.10322,-0.373004 22.34708,0.07771 26.53807,-0.137505 27.60021,-1.417308 0.88435,-1.065581 1.38736,-7.90009 1.71197,-23.261176 0.25281,-11.963736 0.63658,-21.929162 0.85281,-22.145393 0.6609,-0.660899 11.51639,-0.436566 12.20518,0.252225 0.7986,0.798598 1.02524,3.055513 1.26575,12.604629 0.15561,6.178044 -0.41794,9.350738 -3.25399,18 -1.89358,5.775 -4.04372,12.857845 -4.77807,15.739656 -1.24803,4.897633 -1.5678,5.27689 -4.89879,5.810088 -8.37284,1.340258 -28.78194,5.792419 -32.39245,7.066282 -2.15743,0.761186 -3.97853,1.288402 -4.04688,1.171592 -0.0683,-0.116809 -4.922548,-0.356636 -10.78711,-0.532947 z M 166.60892,61.35693 c -0.3073,-0.04247 -0.51446,-0.116973 -0.55956,-0.201237 -0.0275,-0.05136 -0.003,-0.18646 0.0874,-0.479089 l 0.12574,-0.407552 0.18336,0.02565 c 0.10084,0.01411 3.39832,0.260631 3.79505,0.340024 0.71106,0.142297 -2.15589,-0.02575 -1.24801,-0.03115 0.91471,-0.0054 0.92033,-0.005 0.82153,0.07124 -0.20624,0.159042 -0.72873,0.403885 -1.02187,0.478859 -0.61244,0.156634 -1.75293,0.262791 -2.18369,0.203257 z m -8.91624,0.406791 c -0.6086,-0.08118 -0.63351,-0.225031 -0.24974,-1.442467 0.24656,-0.78219 0.30873,-0.854513 0.68374,-0.79541 0.4612,0.07269 5.02097,0.581352 6.27696,0.844284 0.45582,0.09542 -1.97597,-0.09877 -1.59423,-0.154475 l 0.69405,-0.101276 -0.68482,0.624651 c -0.45768,0.417459 -0.9362,0.680038 -1.44268,0.791633 -0.90824,0.200118 -2.95794,0.329813 -3.68328,0.23306 z m -7.21339,0.966742 c -0.11021,-0.04447 -0.20037,-0.227357 -0.20037,-0.406419 0,-0.279808 0.9309,-3.466287 1.06194,-3.635035 0.0573,-0.07374 3.63261,0.292963 3.72132,0.381676 0.11986,0.119857 -1.12474,2.242739 -1.63172,2.783194 -0.27865,0.297045 -0.73875,0.639681 -1.02245,0.761414 -0.50328,0.215953 -1.5274,0.277106 -1.92872,0.11517 z" />
      <path
         style="fill:#0c0c0c"
         d="m 263.5,196.31854 c -5.43738,-2.90245 -10.16636,-7.18599 -16.06523,-14.55197 -3.20059,-3.99661 -7.12413,-8.6807 -8.71899,-10.40908 -3.26831,-3.54192 -3.44224,-3.54773 -20.44876,-0.68283 -8.13666,1.37069 -14.25171,1.41677 -51.5,0.38808 -33.93332,-0.93715 -43.94295,-1.52878 -50.76702,-3.00066 -4.675,-1.00834 -11.425,-2.37418 -15,-3.03519 -6.858976,-1.26821 -24.802319,-6.70374 -26.5,-8.02757 -0.55,-0.42888 -4.984796,-2.42158 -9.855101,-4.42821 -17.185843,-7.08081 -32.057192,-16.02428 -44.80261,-26.94379 -7.681259,-6.58085 -8.562887,-8.15553 -6.116399,-10.92456 1.919689,-2.17277 22.55298,-12.36405 50.026238,-24.70916 9.488671,-4.263733 17.813671,-8.207637 18.5,-8.764231 C 82.938458,80.672776 90.025,77.972919 98,75.229687 c 12.36049,-4.251747 29.46333,-8.496444 43,-10.672021 3.49484,-0.561682 3.50425,-0.577613 6.38691,-10.810089 3.58158,-12.713447 8.90413,-26.848657 12.28476,-32.624926 l 2.5619,-4.377349 7.63322,0.691614 c 15.75919,1.427875 25.95799,5.135768 34.28348,12.464155 4.61241,4.060002 12.97463,15.430222 16.62037,22.598929 3.41519,6.715372 5.49845,8.5 9.92234,8.5 4.53293,0 6.16179,-1.447404 11.2537,-10 8.08992,-13.588183 16.92797,-22 23.11474,-22 1.46843,0 5.91421,1.623081 9.87953,3.606846 7.62851,3.816388 19.78781,14.811505 27.89393,25.22324 3.48191,4.472265 3.97702,5.652859 3.07642,7.335646 -1.32888,2.483037 -1.45609,2.381495 4.56624,3.644763 l 4.97754,1.044108 6.84242,-5.677302 c 16.35769,-13.572315 18.83661,-14.355029 29.24123,-9.232849 8.7935,4.329026 24.843,19.39847 24.04526,22.57694 -0.45607,1.817107 0.0637,2.356874 3.18551,3.308424 6.63228,2.021528 50.5007,9.475738 58.2305,9.894642 l 7.5,0.406451 31.96194,-12.067803 c 27.90063,-10.534385 32.14593,-11.883808 33.40995,-10.619787 1.26402,1.264021 0.96716,6.060103 -2.33626,37.744551 -2.08136,19.9631 -3.98813,36.82775 -4.23728,37.47702 -0.24914,0.64926 -1.05158,1.41017 -1.78319,1.69092 -0.73162,0.28075 -14.08432,-3.55942 -29.67268,-8.5337 -35.23265,-11.24282 -33.95556,-11.16446 -63.34248,-3.88686 -11.55,2.86033 -23.36345,5.92751 -26.25212,6.81596 l -5.25212,1.61537 1.99739,2.12613 1.9974,2.12613 -2.93853,3.99579 C 371.15242,158.99663 353.46286,171 346.53606,171 c -3.97314,0 -10.67784,-4.22437 -19.0157,-11.98106 -3.55845,-3.31042 -7.04376,-6.01633 -7.74514,-6.01315 -2.37869,0.0108 -13.04517,1.93083 -13.55417,2.43983 -0.27833,0.27832 0.001,1.11727 0.62122,1.86433 1.35065,1.62743 -2.89259,9.15659 -11.53374,20.46536 -6.88038,9.00443 -13.28854,14.77902 -19.80853,17.85006 -5.84392,2.75259 -7.91753,2.87237 -12,0.69317 z m 11.28176,-4.45494 c 5.6747,-2.74707 15.83948,-13.19441 22.65999,-23.28989 4.5446,-6.72674 5.18122,-8.2148 4.20663,-9.83268 -0.92711,-1.53907 -1.97678,-1.81672 -5.44778,-1.44098 -5.58112,0.60416 -6.02738,1.19098 -3.1969,4.20389 1.38492,1.47418 1.82074,2.49606 1.06453,2.49606 -0.70421,0 -2.16531,-1.125 -3.24689,-2.5 -1.2975,-1.6495 -2.96241,-2.5 -4.89392,-2.5 -1.61008,0 -2.92742,0.31853 -2.92742,0.70784 0,0.38931 1.65826,2.40605 3.68502,4.48164 2.02677,2.07559 3.35047,4.10836 2.94157,4.51726 -0.4089,0.4089 -2.78113,-1.38284 -5.27162,-3.98164 -2.49049,-2.59881 -4.91263,-4.7251 -5.38255,-4.7251 -2.42327,0 -1.48674,2.40636 3.04928,7.83494 2.76507,3.30917 4.67557,6.23412 4.24555,6.49989 -0.43002,0.26577 -3.35054,-2.58778 -6.49006,-6.34121 -4.41862,-5.28267 -6.16205,-6.70574 -7.7171,-6.29908 -1.79185,0.46858 -1.36341,1.31528 3.96551,7.83679 3.28592,4.02129 5.9744,7.57182 5.9744,7.89006 0,1.9407 -2.49315,-0.3819 -7.86787,-7.32965 -4.84276,-6.2601 -6.53608,-7.79886 -8.12495,-7.38337 -1.10395,0.28869 -2.00718,0.74022 -2.00718,1.0034 0,0.26318 2.90737,4.24503 6.46083,8.84856 3.55346,4.60353 6.09924,8.59353 5.6573,8.86666 -0.44194,0.27313 -3.8584,-3.5362 -7.59215,-8.46519 C 263.33749,166.11236 261.17905,164 259.36868,164 258.06591,164 257,164.38891 257,164.86425 c 0,0.47534 2.76875,4.41284 6.15278,8.75 3.38403,4.33716 6.58913,8.44825 7.12244,9.13575 0.64007,0.82511 0.60643,1.25 -0.099,1.25 -0.58774,0 -4.35534,-4.25629 -8.37245,-9.45843 -4.0171,-5.20214 -7.97882,-9.47024 -8.80382,-9.48469 -4.32679,-0.0757 -3.59608,1.79145 4.57075,11.67971 4.63609,5.6133 8.42925,10.44392 8.42925,10.7347 0,2.2183 -4.508,-2.68114 -18,-19.56296 -1.15987,-1.45129 -2.14651,-1.70309 -4.35122,-1.11045 l -2.85121,0.76643 4.2346,5.46785 c 6.44173,8.31774 16.11299,18.02303 19.46783,19.53632 4.08122,1.84095 5.17812,1.76575 10.28176,-0.70488 z m 80.06244,-27.47325 c 2.88028,-1.43531 8.70614,-5.88498 12.94634,-9.88816 7.68874,-7.25895 7.70434,-7.28419 5.80447,-9.39035 -1.92527,-2.13433 -6.02803,-2.75837 -8.36864,-1.2729 -0.97289,0.61743 -0.79578,1.24076 0.75,2.63967 1.11299,1.00725 2.02363,2.29581 2.02363,2.86347 0,0.56766 -1.26212,-0.17709 -2.80472,-1.65499 C 363.47006,146.03423 361.27507,145 359.49233,145 h -2.89823 l 3.79358,3.88497 c 2.08646,2.13674 3.35179,4.15801 2.81183,4.49173 -0.53996,0.33371 -2.60457,-1.18953 -4.58802,-3.38498 C 355.35114,146.38291 352,144.75917 352,146.78824 c 0,0.43353 2.03338,2.48793 4.51863,4.56534 2.48525,2.07741 4.23148,4.24173 3.88052,4.8096 -0.36184,0.58546 -2.87309,-1.17471 -5.80008,-4.06534 C 351.75999,149.29403 348.66376,147 347.71855,147 c -2.57197,0 -2.13703,0.9979 2.48966,5.71215 5.53702,5.64181 3.38323,5.52421 -2.93954,-0.16051 -3.78177,-3.40013 -5.47959,-4.30924 -7.20507,-3.85802 -2.08258,0.54461 -1.80455,0.99703 3.58949,5.8412 3.2158,2.88797 5.60034,5.50816 5.29897,5.82263 -0.30137,0.31447 -3.36756,-1.88731 -6.81376,-4.89284 -4.33077,-3.77701 -7.09539,-5.45245 -8.95206,-5.42523 -2.47837,0.0363 -2.14487,0.53319 4.30968,6.42075 3.84776,3.50975 6.75901,6.61827 6.46946,6.90782 -0.28955,0.28955 -3.97439,-2.37479 -8.18854,-5.92075 C 328.43441,151.26898 326,149.89796 326,151.94104 c 0,1.30064 11.30498,11.16969 15.24539,13.30896 4.40953,2.39395 7.45617,2.20136 13.59881,-0.85965 z M 259.5,156.48362 c 111.21596,-20.26278 166.63842,-32.67439 198.37852,-44.42599 13.52626,-5.00802 13.40739,-4.65134 2.62148,-7.86595 C 445.14434,99.615111 428.06742,96.251905 373,86.95903 350.175,83.107208 321.6,78.183916 309.5,76.018381 283.01812,71.278922 256.24845,69.100068 214.5,68.286079 164.36276,67.308531 131.68382,71.36816 98.58861,82.685484 79.943297,89.061484 21,115.77866 21,117.854 c 0,0.43823 2.8125,3.06994 6.25,5.84824 17.617166,14.23878 37.855593,23.91847 66.75,31.92537 l 12.5,3.46386 5.23748,-5.5789 c 9.27402,-9.87861 14.03095,-22.2355 20.31154,-52.76257 2.13944,-10.398855 2.90244,-11.700977 5.78551,-9.873426 1.09598,0.694733 0.96192,2.565778 -0.75,10.467246 C 135.93804,106.63553 135,111.1867 135,111.45754 c 0,0.27084 4.46263,-1.73815 9.91695,-4.46441 17.5188,-8.756519 24.99876,-11.097747 35.69688,-11.173122 13.30508,-0.09374 16.70103,4.335992 17.21863,22.460242 0.51876,18.165 -3.6646,35.21844 -10.38823,42.34756 -3.68948,3.91199 -5.85886,4.15396 -13.54216,1.51052 -9.30479,-3.20131 -17.00918,-7.61569 -30.6133,-17.54045 C 136.05295,139.31904 129.88352,135 129.57894,135 c -0.30459,0 -2.12617,3.12232 -4.04797,6.93849 -1.92179,3.81617 -5.56397,9.47965 -8.09372,12.58551 -2.52976,3.10586 -4.45054,5.76615 -4.26841,5.91176 2.321,1.85552 14.41137,2.79939 46.33116,3.617 20.35,0.52126 39.475,1.09093 42.5,1.26594 7.23866,0.41879 3.85379,0.93889 57.5,-8.83508 z M 87.208321,120.28881 c -1.260424,-0.24136 -3.803378,-1.95053 -5.65101,-3.79817 -6.412682,-6.41268 -5.343508,-16.10938 2.340572,-21.227443 8.871491,-5.908952 20.088897,0.555534 20.098377,11.582513 0.005,5.69376 -2.4974,9.73438 -7.54014,12.17553 -4.08223,1.97618 -4.936083,2.09321 -9.247799,1.26757 z m 97.676219,35.87333 c 7.45703,-10.47242 11.27023,-42.53036 6.18835,-52.02594 -2.48076,-4.635341 -13.40894,-5.057132 -25.54358,-0.9859 -7.41174,2.48668 -24.92053,10.79181 -24.22258,11.48976 0.27993,0.27993 6.88579,-1.77457 14.67968,-4.56555 7.7939,-2.79098 14.61193,-5.07451 15.15117,-5.07451 3.23487,0 -2.14803,2.39297 -18.05143,8.02476 -9.90831,3.50879 -17.83895,6.55577 -17.62364,6.77109 0.21532,0.21531 10.52245,-2.57567 22.90474,-6.20219 12.38229,-3.62651 23.08014,-6.59366 23.773,-6.59366 3.87169,0 -2.90771,2.45701 -21.84734,7.91796 -33.40036,9.63049 -33.24242,9.86904 2.45709,3.71118 13.8875,-2.39547 25.25,-3.97557 25.25,-3.51133 0,1.09981 -0.31875,1.16528 -28.98134,5.9527 -13.46474,2.24897 -25.13997,4.45763 -25.94496,4.90812 -0.80499,0.4505 10.77411,0.57211 25.73134,0.27026 C 178.95087,125.84232 186,125.99814 186,126.85003 186,127.68679 179.00926,128 160.33333,128 c -14.11666,0 -25.43894,0.22772 -25.16061,0.50605 0.27833,0.27834 9.46583,1.40524 20.41667,2.50424 23.33235,2.34158 27.41061,2.91801 27.41061,3.87427 0,0.38982 -9.7875,-0.29737 -21.75,-1.52709 -11.9625,-1.22972 -23.325,-2.22651 -25.25,-2.21509 l -3.5,0.0208 3,1.2837 c 1.65,0.70604 12.675,2.96746 24.5,5.02538 11.825,2.05792 21.6875,3.91854 21.91667,4.13472 1.57536,1.48607 -3.0392,1.0172 -20.48399,-2.08132 C 150.5155,137.58653 141.13961,136 140.59736,136 c -0.54226,0 0.41258,1.03178 2.12185,2.29284 1.99314,1.47049 8.16537,3.48603 17.20921,5.61965 7.75579,1.82975 14.34628,3.72297 14.64553,4.20716 0.83168,1.34569 -1.24353,1.05529 -11.57395,-1.61965 -12.33798,-3.19477 -13.42591,-3.11889 -8,0.55803 8.32062,5.63855 21.6279,11.67107 26.18191,11.8689 0.92504,0.0402 2.59123,-1.20397 3.70263,-2.76479 z M 500,140.08538 c 0,-0.50304 1.5724,-15.88064 3.49421,-34.17245 1.92182,-18.291809 3.33655,-33.415501 3.14385,-33.608206 -0.19271,-0.192704 -13.25753,4.497399 -29.03294,10.422452 -33.04577,12.411591 -35.01278,15.098781 -3.5059,4.789515 11.10591,-3.633931 20.91441,-6.452957 21.79667,-6.264504 0.88226,0.188454 -7.60105,3.427099 -18.85179,7.196988 -17.46038,5.850606 -20.09627,6.990309 -18,7.782826 3.4468,1.303104 7.48146,0.50597 23.20717,-4.585074 7.5632,-2.448512 13.96942,-4.098866 14.23604,-3.667453 0.26663,0.431412 -6.35316,2.984395 -14.71065,5.673294 l -15.19542,4.888909 4.34789,1.434933 c 4.05411,1.33798 5.0654,1.25211 14.96681,-1.270838 11.75449,-2.995119 12.46904,-3.105341 11.66156,-1.79881 -0.30829,0.498829 -4.81951,1.933703 -10.02493,3.188608 -7.91833,1.90893 -9.27235,2.51305 -8.28877,3.6982 0.9492,1.1437 3.18148,1.27983 11.58962,0.70673 6.55295,-0.44665 10.19498,-0.35547 9.82329,0.24595 -0.32489,0.52567 -4.92196,1.21417 -10.21572,1.53 -5.29375,0.31583 -9.85367,0.80289 -10.13314,1.08236 -1.55703,1.55703 1.66687,2.64956 8.00117,2.71148 3.95504,0.0387 8.09098,0.49481 9.19098,1.01368 1.34608,0.63495 -1.27695,0.81041 -8.02245,0.53664 -6.49356,-0.26354 -11.07085,0.0227 -13,0.81284 l -2.97755,1.21961 2.5,0.59906 c 1.375,0.32948 6.91809,1.14196 12.31797,1.8055 5.39989,0.66354 9.44989,1.56251 9,1.9977 -0.44988,0.43519 -6.44297,0.0754 -13.31797,-0.79949 -11.00331,-1.40029 -21.28055,-1.20305 -19.69943,0.37807 0.27771,0.27771 7.39892,2.07392 15.8249,3.99157 8.42598,1.91765 15.51975,3.68641 15.76392,3.93058 1.58375,1.58375 -2.59855,0.97481 -17.97596,-2.6173 -15.60779,-3.64593 -17.80279,-3.94058 -21.1684,-2.84154 -2.06523,0.6744 -3.60256,1.37859 -3.41629,1.56486 0.18627,0.18628 8.62601,2.8168 18.75497,5.8456 21.22145,6.34574 21.84162,6.56489 20.2621,7.16015 -0.63481,0.23924 -10.1639,-2.28815 -21.17576,-5.61642 -19.88953,-6.0115 -23.5892,-6.80025 -24.55638,-5.23531 -0.49051,0.79365 48.14063,16.8829 51.63633,17.08349 0.9625,0.0552 1.75,-0.31116 1.75,-0.8142 z M 371,76.05845 c 0,-0.47915 -3.11951,-3.75937 -6.93224,-7.289377 C 356.36456,61.637097 346.75743,56 342.3058,56 c -3.64419,0 -10.4419,4.33662 -16.26401,10.375669 -6.45004,6.690386 -2.83367,5.820262 5.71414,-1.37486 3.91987,-3.299555 7.36371,-5.616238 7.65299,-5.148185 0.28927,0.468054 -2.47414,3.28019 -6.1409,6.249191 -6.40799,5.188583 -6.55869,5.410795 -3.88098,5.722951 2.17192,0.253192 4.10069,-0.818816 8.75183,-4.864258 3.28127,-2.853962 6.2299,-4.925073 6.5525,-4.602467 0.32261,0.322605 -1.75514,2.691941 -4.61721,5.26519 -3.82925,3.442826 -4.85648,4.898861 -3.88896,5.512389 2.1252,1.347654 2.65654,1.092559 7.85764,-3.772462 C 346.76928,66.812895 349,65.231839 349,65.8497 c 0,0.617861 -1.6875,2.673269 -3.75,4.567573 -3.30163,3.03238 -3.53155,3.528579 -1.92298,4.150002 1.35977,0.525306 3.08016,-0.528478 6.72696,-4.120441 5.6873,-5.601784 8.12688,-5.264564 2.63104,0.363685 C 350.65826,72.886112 349,74.902852 349,75.292163 c 0,1.725235 2.71547,0.415097 6.20784,-2.995111 C 357.29353,70.260431 359,69.05699 359,69.622738 c 0,0.565749 -1.11113,2.072487 -2.46918,3.348308 -1.35805,1.27582 -2.23149,2.704262 -1.94098,3.174314 0.93578,1.514136 3.71932,0.912824 6.09177,-1.31597 2.77012,-2.602398 4.3854,-1.665902 1.88745,1.094298 -1.69689,1.875044 -1.64688,1.94686 1.58947,2.282719 C 367.67585,78.571426 371,77.527772 371,76.05845 Z M 298.74812,58.672447 c -5.68657,-7.19657 -17.36852,-18.057743 -23.2085,-21.577859 -3.99888,-2.410375 -6.93425,-3.43305 -10.04601,-3.5 -3.83187,-0.08244 -4.92908,0.41898 -8.5458,3.905412 -4.14976,4.00028 -12.1744,15.126468 -15.32632,21.25 L 239.94864,62 h 2.91707 c 2.61874,0 3.66118,-1.150554 10.19289,-11.25 8.63681,-13.354392 7.79454,-12.23019 8.57686,-11.447875 0.3495,0.349502 -0.0939,1.748563 -0.98529,3.109024 -0.8914,1.360461 -4.10501,6.324505 -7.14135,11.031209 L 247.98821,62 h 2.89498 c 2.58768,0 3.50774,-1.012776 8.66737,-9.540777 3.17481,-5.247428 6.22619,-9.821248 6.78085,-10.164045 1.61444,-0.997782 0.0286,2.331047 -5.36228,11.255923 C 258.23611,58.07576 256,62.052759 256,62.388877 256,62.724995 257.09875,63 258.44167,63 c 2.02933,0 3.40926,-1.644088 8.17143,-9.735704 3.15137,-5.354637 5.90411,-9.21266 6.1172,-8.573386 0.21309,0.639275 -0.67658,2.882841 -1.97706,4.985704 -1.30048,2.102862 -3.59594,5.960886 -5.10102,8.573386 L 262.91569,63 h 2.43865 c 1.96463,0 3.36613,-1.506418 7.2102,-7.75 5.72288,-9.29516 5.2907,-8.728091 6.06322,-7.955577 0.34526,0.345266 -1.45474,3.968976 -4,8.052689 C 272.08249,59.430824 270,63.048333 270,63.386022 270,63.72371 270.83398,64 271.85328,64 c 1.18695,0 3.54965,-2.551093 6.57135,-7.095316 2.59494,-3.902424 4.97682,-6.836571 5.29306,-6.520328 0.31624,0.316243 -0.53977,2.271636 -1.90224,4.345316 -6.69566,10.19076 -6.33057,9.275029 -3.68046,9.231328 1.62432,-0.02679 3.41096,-1.460229 5.70472,-4.57696 3.99573,-5.42936 5.60249,-5.07263 1.80884,0.401597 C 282.39284,64.483632 282.36987,65 285.41659,65 c 1.4836,0 3.18949,-1.061015 4.4185,-2.74817 1.10105,-1.511494 2.33582,-2.414253 2.74394,-2.006131 0.40812,0.408122 -0.044,1.610637 -1.00478,2.672257 -1.69408,1.871932 -1.61588,1.958478 2.58946,2.866109 3.75905,0.811307 4.569,0.673856 6.08441,-1.032553 1.68039,-1.892172 1.62227,-2.127718 -1.5,-6.079065 z M 160.82721,45 c 7.00358,-18.804844 6.91233,-18.593789 7.69876,-17.807364 0.28928,0.289283 -2.18572,8.008574 -5.5,17.153979 C 159.71169,53.492021 157,61.233846 157,61.550671 c 0,0.316825 1.4625,0.435035 3.25,0.262687 3.18182,-0.306784 3.36861,-0.606403 8.9036,-14.281225 3.10948,-7.682326 6.10885,-14.119616 6.66527,-14.305089 0.55642,-0.185473 -1.4252,5.863936 -4.4036,13.44313 C 168.43687,54.249367 166,60.736755 166,61.086591 c 0,0.349836 1.15624,0.415036 2.56942,0.144889 2.16413,-0.413698 3.62323,-2.63963 9.25,-14.111328 3.67432,-7.491084 6.79308,-13.807652 6.93058,-14.036819 0.1375,-0.229166 0.53567,-0.130993 0.88483,0.218163 0.34916,0.349156 -2.12584,6.387062 -5.5,13.417569 C 176.76067,53.749573 174,59.8389 174,60.250903 174,60.662906 175.12153,61 176.49229,61 c 2.18761,0 3.24067,-1.497582 8.61391,-12.25 6.71354,-13.43452 6.64975,-13.32738 7.45503,-12.522102 0.30868,0.308677 -1.94132,5.551182 -5,11.65001 C 184.50255,53.976736 182,59.424182 182,59.983343 182,60.542505 182.8959,61 183.99088,61 c 1.51954,0 3.16978,-2.349216 6.97029,-9.922618 2.73867,-5.457441 5.44277,-10.208998 6.00912,-10.559017 1.62186,-1.002368 1.26986,0.05468 -2.53257,7.605301 C 188.59582,59.724144 188.53977,60 192.02475,60 c 1.63639,0 2.90578,-0.3375 2.82086,-0.75 -0.14377,-0.698455 5.89679,-14.245654 6.76267,-15.166667 0.21544,-0.229166 0.64811,-0.160274 0.96148,0.153095 0.31337,0.313369 -0.3109,2.300869 -1.38726,4.416667 -1.07637,2.115798 -2.6598,5.534405 -3.51874,7.596905 -1.5284,3.670027 -1.51481,3.749949 0.63727,3.747624 1.64928,-0.0018 2.91705,-1.376645 5.07156,-5.5 C 204.95252,51.473931 206.64002,49 207.12259,49 c 1.25283,0 1.15667,0.307348 -1.61054,5.147926 C 202.36258,59.657158 202.38443,60 205.88499,60 c 1.97384,0 3.40233,-0.789561 4.52305,-2.5 2.01804,-3.079908 4.15917,-3.428354 2.54612,-0.414354 -1.4107,2.635928 -1.05275,2.957316 4.05718,3.6427 l 4.17651,0.560188 -2.22552,-4.394267 c -3.9602,-7.819392 -10.83596,-17.820528 -15.36591,-22.35048 -7.37479,-7.374788 -17.68304,-11.524193 -32.30909,-13.005459 l -6.21267,-0.629194 -2.89691,5.795433 c -2.78144,5.564414 -7.85158,20.063247 -10.17887,29.107979 -0.61031,2.3719 -1.37307,4.998999 -1.69502,5.837996 -0.43824,1.142018 -0.008,1.440493 1.71019,1.187454 1.98656,-0.292499 3.17288,-2.69364 8.81316,-17.837996 z"
         id="path1354" />
    </g>
  </g>
</svg>
