<?xml version="1.0" encoding="UTF-8" standalone="no"?>
<!-- Created with Inkscape (http://www.inkscape.org/) -->

<svg
   version="1.1"
   id="svg1655"
   width="198.80946"
   height="324.08603"
   viewBox="0 0 198.80946 324.08603"
   sodipodi:docname="キ.png"
   inkscape:export-filename="キ.svg"
   inkscape:export-xdpi="96"
   inkscape:export-ydpi="96"
   xmlns:inkscape="http://www.inkscape.org/namespaces/inkscape"
   xmlns:sodipodi="http://sodipodi.sourceforge.net/DTD/sodipodi-0.dtd"
   xmlns="http://www.w3.org/2000/svg"
   xmlns:svg="http://www.w3.org/2000/svg">
  <defs
     id="defs1659" />
  <sodipodi:namedview
     id="namedview1657"
     pagecolor="#ffffff"
     bordercolor="#000000"
     borderopacity="0.25"
     inkscape:showpageshadow="2"
     inkscape:pageopacity="0.0"
     inkscape:pagecheckerboard="0"
     inkscape:deskcolor="#d1d1d1"
     showgrid="false" />
  <g
     inkscape:groupmode="layer"
     inkscape:label="Image"
     id="g1661"
     inkscape:export-filename="..\all_svg\キ.svg"
     inkscape:export-xdpi="96"
     inkscape:export-ydpi="96"
     transform="translate(-18.677868,-13.75061)">
    <g
       id="g1665"
       inkscape:export-filename="..\all_svg\キ.svg"
       inkscape:export-xdpi="96"
       inkscape:export-ydpi="96">
      <path
         style="fill:#afafaf"
         d="M 130.93068,216.18223 126.36136,212.5 119.49361,185 c -3.77726,-15.125 -6.89607,-28.4 -6.93068,-29.5 -0.0346,-1.1 2.19756,4.9506 1.09756,3.90235 -1.68797,-1.60857 -5.35224,-22.4446 -3.87527,-21.91751 1.89626,0.67673 2.99735,11.11685 1.21439,10.01492 -0.55021,-0.34005 -17.254309,1.25992 -37.120211,3.55549 -30.057509,3.47325 -37.475697,4.96726 -38.20678,3.83177 -2.478009,-3.84876 -17.880031,-4.83107 12.69028,-8.51327 16.334008,-1.96743 47.806518,-4.20983 48.125351,-4.52867 0.318833,-0.31883 -1.481124,-1.60865 -1.696672,-5.06621 -0.167121,-2.68077 -1.385021,-5.47083 -1.090883,-5.76496 0.294137,-0.29414 4.817446,-0.69038 7.893165,-1.10777 3.07572,-0.41738 5.77094,-0.9376 5.98937,-1.15604 0.54769,-0.54769 -7.17387,-42.674075 -7.9674,-43.467604 -0.351558,-0.351557 -12.426385,0.780538 -26.83295,2.515768 -20.214198,2.434743 -33.151384,4.735968 -33.732428,3.795819 -0.414107,-0.67004 5.607947,-4.593886 5.997548,-4.970452 0.389594,-0.376566 13.827,-0.897612 28.952,-2.63484 15.125,-1.737228 27.55726,-3.23289 27.62724,-3.323694 C 101.69723,80.574294 100.02349,69.475 97.907824,56 95.792161,42.525 94.047402,30.77213 94.030582,29.882511 94.008651,28.722597 95.485184,27.970288 99.25,27.223164 c 2.8875,-0.573022 5.29514,-0.970152 5.35031,-0.882511 0.0552,0.08764 2.24655,13.209347 4.86973,29.159347 8.34264,50.72672 20.80088,109.57175 29.58008,139.71813 2.28754,7.85503 4.25316,14.85934 4.36804,15.56514 0.17468,1.07316 -6.73303,9.3581 -7.6281,9.14896 -0.15954,-0.0373 -2.34625,-1.72478 -4.85938,-3.75 z M 21.923489,156.5492 C 21.881408,156.52214 21.712207,155.825 21.547488,155 20.729089,150.90103 18.842291,141.95467 18.682031,141.41328 18.581914,141.07506 20.3,140.66387 22.5,140.49952 37.481802,139.38033 85.620714,132.96243 88.282309,131.80048 91.457479,130.41433 88,131.08955 88,133.51618 c 0,1.3661 -0.3375,2.48593 -0.75,2.48852 -0.4125,0.003 -13.8,1.57354 -29.75,3.49102 -15.95,1.91748 -29.266159,3.49037 -29.591465,3.49531 -0.325305,0.005 -0.23963,2.14647 0.190389,4.75897 1.287867,7.82418 7.278278,7.24843 3.443184,7.69615 -1.925,0.22474 -9.576538,1.13011 -9.618619,1.10305 z M 133.51511,141.75 c -0.28765,-1.2375 -1.11794,-5.175 -1.84509,-8.75 l -1.32209,-6.5 4.07604,0.32151 c 2.97482,0.23464 62.96262,-6.81948 77.43883,-9.10623 0.96542,-0.15251 1.49482,1.37046 1.81557,5.22298 0.24902,2.99104 0.87448,6.22623 1.3899,7.18931 1.17041,2.18693 -0.0538,3.03308 -4.92953,3.40716 -12.04848,0.92439 -71.93494,8.66074 -73.37517,9.47888 -2.41937,1.37434 -2.65675,1.282 -3.24846,-1.26361 z m -96.598443,-50 C 36.870837,91.6125 36.716515,90.6 36.573737,89.5 35.348194,80.058088 33.244263,75.147211 33.66186,75.947514 c 0.158671,0.304084 -0.180743,0.896565 0.09525,0.180497 0.276001,-0.716066 1.950958,-0.737946 4.006156,-0.872312 11.835627,-0.773794 49.829267,-6.060932 51.620744,-6.388279 4.283758,-0.782748 3.49593,-1.266202 4.12902,-0.267323 1.404976,2.216747 -0.401325,5.234489 -2.263039,5.745081 -0.9625,0.263975 -13,1.691568 -26.75,3.172429 -13.75,1.480861 -25.595083,2.868587 -26.322406,3.083834 -1.000447,0.296077 -1.154993,1.731293 -0.634777,5.894959 C 37.921013,89.52338 39.626795,92 39.288422,92 38.950049,92 36.9625,91.8875 36.916667,91.75 Z m 83.393273,-11 c -0.23039,-0.6875 -0.31221,-3.933178 -1.29747,-8.006356 L 117.01841,64.5 l 5.43796,0.314911 c 3.93968,0.228146 52.08033,-5.41054 53.62967,-6.368089 1.248,-0.771305 2.19758,1.538955 2.61132,6.353142 0.21206,2.467556 0.81812,5.29471 1.34681,6.282563 1.19219,2.227637 -0.0338,3.105062 -4.94392,3.538193 -15.22853,1.343346 -48.74739,6.194976 -50.33668,6.417949 -4.31344,0.605161 -3.95018,1.213746 -4.45363,-0.288669 z M 86.61175,17.951223 c -0.782048,-2.772527 -2.558905,-1.737894 8.003058,-2.776042 15.178812,-1.491944 13.420552,-2.005583 13.493692,-0.593617 0.47913,9.249386 0.96018,10.697109 -8.895882,7.898134 -4.025462,-1.143171 -8.505714,3.547786 -9.34884,3.774829 -1.115347,0.300348 -1.397903,-1.730043 -3.252028,-8.303304 z"
         id="path1669"
         sodipodi:nodetypes="scsssssssssssssssssssssscssssssssssscscssssscsssssssssssssssssssssscsssssssssssss" />
      <path
         style="fill:#070707"
         d="m 144.63407,336.84555 c -13.76721,-2.63342 -27.76319,-13.48607 -33.66962,-26.10783 -3.60572,-7.70524 -5.92344,-18.00188 -5.94709,-26.42033 -0.0197,-7.01039 0.55637,-6.55033 -10.51736,-8.39956 -18.629045,-3.1109 -31.136557,-11.43532 -37.370719,-24.8722 -3.702608,-7.98046 -3.663678,-19.19358 0.09477,-27.29827 3.720947,-8.02382 11.411285,-15.84316 19.053573,-19.37319 5.734173,-2.64867 7.085419,-2.86497 17.222373,-2.75694 9.343713,0.0996 11.941073,0.50311 17.250003,2.67995 3.4375,1.40949 6.25577,2.25673 6.26282,1.88276 0.0398,-2.10956 -8.93327,-41.34491 -10.16104,-44.42994 -0.97506,-2.45009 -1.59922,-2.74833 -5.7231,-2.73472 -2.545777,0.008 -18.785577,1.78516 -36.088448,3.94835 -22.67727,2.8351 -31.819955,3.63415 -32.75,2.86228 C 31.580606,165.23697 31,163.4541 31,161.86399 31,160.27387 30.561642,158.19147 30.025871,157.23643 28.999755,155.40733 27.015836,143 27.749481,143 c 2.084915,0 59.766177,-7.18232 60.062708,-7.47886 0.214799,-0.21479 -0.07079,-3.45742 -0.634643,-7.20584 -0.563851,-3.74841 -1.569542,-10.67285 -2.234867,-15.38763 C 83.212432,100.66639 83.660426,100.98986 69.953074,102.10456 63.653883,102.61681 55.125,103.41724 51,103.88328 c -4.581351,0.5176 -7.967369,0.47879 -8.700989,-0.0997 -0.660544,-0.52089 -1.504809,-3.04778 -1.876145,-5.615309 C 40.051531,95.600704 39.404863,93.05 38.985827,92.5 38.56679,91.95 37.9066,89.139477 37.518737,86.254392 c -0.536964,-3.994165 -0.38475,-5.34276 0.638029,-5.652838 0.738779,-0.223978 12.9506,-1.674174 27.13738,-3.22266 14.18678,-1.548485 26.206763,-3.070439 26.711073,-3.38212 C 93.02996,73.36345 91.944472,62.657265 88.526143,39.59254 85.862867,21.622434 85.91785,22.876163 98.772257,19.641607 c 10.843843,-2.728639 11.687513,-1.87746 12.636513,5.625838 1.45597,11.511554 5.84825,37.323299 6.59097,38.732555 0.4348,0.825 1.77275,7.8 2.97323,15.5 3.42637,21.97715 7.14046,41.67685 8.57835,45.5 1.13821,3.02634 2.91125,11.46967 7.55974,36 1.85472,9.78749 9.08792,36.43564 10.50849,38.71482 0.75925,1.21815 1.38045,2.87909 1.38045,3.69098 0,2.49968 1.88456,2.81165 4.75682,0.78743 3.3704,-2.37527 15.32441,-7.61473 20.74318,-9.09176 15.82461,-4.31344 32.00477,3.90243 39.56113,20.08813 3.08591,6.61001 3.41413,8.17468 3.42588,16.33143 0.0118,8.20188 -0.28721,9.63082 -3.29304,15.73652 -2.4835,5.0447 -5.16163,8.39612 -10.76432,13.47045 -4.89088,4.42965 -7.2627,7.26469 -6.89007,8.23573 0.31252,0.81442 1.21681,6.39831 2.00953,12.40863 1.80218,13.66395 0.81293,21.25369 -4.07782,31.28569 -5.97952,12.26532 -18.73697,21.67036 -32.90495,24.25816 -6.81935,1.24556 -10.1233,1.23177 -16.93227,-0.0707 z m 24.65051,-8.7846 c 8.11513,-3.12918 16.60979,-11.20589 20.20014,-19.20626 4.12252,-9.18618 4.50033,-20.1568 1.1415,-33.14582 -1.39254,-5.38512 -2.28128,-10.44419 -1.97498,-11.24239 0.30629,-0.79819 3.62519,-3.49106 7.37534,-5.98415 11.3633,-7.55431 15.55367,-15.9316 14.74722,-29.48233 -0.54379,-9.13724 -3.59789,-15.7396 -10.01844,-21.65785 -5.24492,-4.8346 -10.26037,-6.73874 -17.75536,-6.74093 -11.21544,-0.003 -22.35397,5.93332 -36.35872,19.37844 C 141.3661,225.04405 137.47641,228 136.08745,228 c -1.20982,0 -4.98692,-2.27295 -8.39356,-5.05099 C 119.6062,216.35366 105.21777,209.28475 97.5,208.11503 82.614795,205.859 70.154372,212.04126 63.468166,225 c -2.84518,5.51433 -3.195591,17.56711 -0.676308,23.26237 5.753238,13.00614 21.684583,21.67937 39.901442,21.72285 8.43609,0.0201 9.3067,1.33232 9.3067,14.02719 0,15.39983 3.36486,25.18701 11.73631,34.13677 5.49529,5.87491 9.60598,8.51669 17.10006,10.98956 7.63163,2.51825 20.37435,2.03548 28.44821,-1.07779 z m -24.3152,-8.59689 c -10.16354,-3.13309 -17.94067,-13.75011 -17.95961,-24.51772 -0.0315,-17.89704 18.6254,-28.6204 35.88514,-20.6256 8.83641,4.09307 14.15743,11.91639 14.91174,21.9242 0.35906,4.76394 -0.0276,6.6864 -2.26444,11.25831 -5.44764,11.13459 -17.70154,15.9286 -30.57283,11.96081 z m 15.60922,-7.36039 c 13.12015,-5.95888 13.53911,-23.26206 0.74479,-30.76004 -17.53954,-10.27886 -35.59025,10.30145 -22.58812,25.7536 5.41228,6.43213 14.24626,8.45686 21.84333,5.00644 z M 85.672327,260.61568 C 67.087856,255.43437 59.626184,232.96744 72.213844,220.09248 77.316898,214.87295 82.582597,212.65608 90,212.60446 c 15.39511,-0.10714 26.96527,10.90083 26.99023,25.67878 0.0269,15.9024 -15.2661,26.80764 -31.317903,22.33244 z m 15.380953,-8.14323 c 7.9014,-4.08597 10.97521,-14.29509 6.76209,-22.45907 -5.22835,-10.13127 -17.599065,-13.73114 -26.635698,-7.75098 -5.235411,3.46463 -7.548821,7.84749 -7.582079,14.3646 -0.06806,13.3372 15.23133,22.16691 27.455687,15.84545 z M 174.5,255.60118 c -6.27731,-1.98526 -9.94774,-4.20816 -13.35369,-8.08732 -9.45771,-10.77174 -8.25144,-26.87421 2.63524,-35.17776 13.92274,-10.61922 35.13638,-3.60983 41.04825,13.56312 4.15485,12.0691 -3.15813,25.75189 -15.7613,29.48986 -6.37327,1.89024 -9.13512,1.93045 -14.5685,0.2121 z m 16.07939,-8.65025 c 13.17804,-8.14448 9.04624,-27.74338 -6.74524,-31.99559 -10.18363,-2.74216 -20.58404,4.38633 -21.58407,14.79383 -1.40958,14.66975 15.6578,25.03319 28.32931,17.20176 z m -50.54484,-31.10791 3.95445,-4.15699 -2.93708,-9.59301 C 131.25514,170.09504 118.9319,112.83401 109.39578,55 c -2.58461,-15.675 -4.74351,-28.571706 -4.79754,-28.659347 -0.054,-0.08764 -2.46074,0.309489 -5.34824,0.882511 -3.764816,0.747124 -5.241349,1.499433 -5.219418,2.659347 C 94.047402,30.77213 95.792161,42.525 97.907824,56 c 2.115666,13.475 3.789406,24.574294 3.719416,24.665097 -0.07,0.0908 -12.493473,1.590857 -27.607759,3.333452 -15.114285,1.742594 -27.757877,3.339771 -28.096871,3.54928 -0.625089,0.386327 0.42213,9.176433 1.170309,9.8233 C 47.316814,97.564705 56.5,96.704249 67.5,95.459005 c 11,-1.245244 20.129016,-2.141422 20.286703,-1.991506 0.64573,0.613908 9.071605,48.007531 8.616015,48.463121 -0.27179,0.27179 -13.861088,2.11032 -30.198441,4.08562 L 36.5,149.6077 l 0.349344,4.94615 c 0.192139,2.72038 0.417139,5.01404 0.5,5.09701 0.08286,0.083 16.525577,-1.86759 36.539369,-4.33458 23.158855,-2.85466 36.610957,-4.12577 36.999997,-3.49619 0.33621,0.54409 3.95351,14.41965 8.03844,30.83458 l 7.42715,29.84533 4.57285,3.68223 c 2.51507,2.02522 4.70337,3.71272 4.86291,3.75 0.15953,0.0373 2.06955,-1.80287 4.24449,-4.08921 z"
         id="path1667"
         sodipodi:nodetypes="ssssssssssscssssssssssssssssssssssssssssssssssssssssssssscsssssssssssssssssssssssssssssssssssssssssscsscssssssssssscssssscsss" />
    </g>
  </g>
</svg>
