<?xml version="1.0" encoding="UTF-8" standalone="no"?>
<!-- Created with Inkscape (http://www.inkscape.org/) -->

<svg
   version="1.1"
   id="svg1892"
   width="152.45419"
   height="216.1076"
   viewBox="0 0 152.45419 216.1076"
   sodipodi:docname="ク.png"
   xmlns:inkscape="http://www.inkscape.org/namespaces/inkscape"
   xmlns:sodipodi="http://sodipodi.sourceforge.net/DTD/sodipodi-0.dtd"
   xmlns="http://www.w3.org/2000/svg"
   xmlns:svg="http://www.w3.org/2000/svg">
  <defs
     id="defs1896" />
  <sodipodi:namedview
     id="namedview1894"
     pagecolor="#ffffff"
     bordercolor="#000000"
     borderopacity="0.25"
     inkscape:showpageshadow="2"
     inkscape:pageopacity="0.0"
     inkscape:pagecheckerboard="0"
     inkscape:deskcolor="#d1d1d1"
     showgrid="false" />
  <g
     inkscape:groupmode="layer"
     inkscape:label="Image"
     id="g1898"
     transform="translate(-25.839043,-11.892403)">
    <g
       id="g1902">
      <path
         style="fill:#afafaf"
         d="m 78.329436,206.58267 -5.170565,-4.31434 4.704914,-4.63416 C 80.451487,195.08538 83.16192,193 83.886969,193 c 1.604151,0 13.033259,4.73374 13.034683,5.61983 5.59e-4,0.3479 -4.853943,3.05572 -8.437854,5.39073 -5.220648,3.40138 -10.199244,5.60776 -9.286983,6.70696 1.886212,2.27275 4.568684,0.40102 -0.867379,-4.13485 z M 102.5,186.94889 c -3.85,-2.09289 -7,-4.1871 -7,-4.65381 0,-0.46671 1.928947,-2.59125 4.286549,-4.7212 l 4.286551,-3.87264 7.43036,3.51226 7.43036,3.51226 -4.93035,3.88712 c -2.71169,2.13792 -6.63928,5.35598 -6.40165,6.04348 0.23763,0.6875 0.0618,1.64785 2.1168,0.22071 0.1133,-0.0787 -3.36862,-1.83529 -7.21862,-3.92818 z m 19.63351,-19.71925 -7.23564,-3.3252 4.71572,-3.89684 c 4.7106,-3.89261 4.71961,-3.89517 8.30107,-2.35493 1.97193,0.84805 4.82284,1.99215 6.33534,2.54245 1.5125,0.55029 5.10652,-1.47538 5.10652,-1.1782 0,0.29719 -4.07346,5.12208 -6.17195,7.39867 l -3.81542,4.13925 z M 140.75,149.7224 c -2.6125,-1.08467 -4.74606,-2.25344 -4.74125,-2.59726 0.015,-1.07363 11.56337,-8.12514 13.30664,-8.12514 1.48953,0 1.44955,0.52231 -0.399,5.21212 -3.1178,7.90993 -2.83929,7.722 -8.16639,5.51028 z m -11.03437,-5.89273 C 139.45147,142.10511 151.90211,97.769641 155.5995,80.25 l 2.01301,-9.06572 3.80779,0.83103 c 6.58036,1.436126 10.35133,-6.072448 7.61556,6.034958 -3.04276,13.466 -10.16159,31.631002 -14.84784,43.655932 l -3.62189,9.2938 -8.03307,-0.0789 c -4.41818,-0.0434 -2.1965,4.31076 -4.02578,1.48855 z m -101.046108,-21.37713 -2.830479,-3.5474 5.830479,-6.5735 C 50.521428,91.077293 63.2296,71.851745 73.431994,49.151314 78.296189,38.32843 85.990106,17.165833 86.938802,12 c 0.0505,-0.275 0.422433,-0.0044 0.826511,0.60136 0.948315,1.421608 12.124895,5.584529 13.203527,4.917896 0.45188,-0.279273 1.06846,0.135573 1.3702,0.92188 0.30173,0.786307 0.23639,1.571222 -0.14522,1.744256 -0.90419,0.409997 -7.142633,18.144111 -8.20153,23.314608 -0.450551,2.2 -1.11903,4.949071 -1.485508,6.109046 -0.56437,1.786342 -0.159781,2.210354 2.644212,2.771153 1.820795,0.364159 20.992346,0.632617 42.603456,0.596573 21.6111,-0.03604 39.68507,0.176832 40.16437,0.473056 0.48826,0.301761 0.5005,2.190094 0.0278,4.294382 -0.46399,2.065684 -1.13016,5.539025 -1.48036,7.718536 -0.62513,3.89048 -3.02362,12.807001 -4.65803,10.759915 C 170.31079,74.347107 170.64073,65.117665 154,63.886065 119.64317,61.343277 74.859443,62.57279 69.020732,66.219126 68.034464,66.83506 66.205349,69.85023 64.956032,72.919503 59.445225,86.458245 49.603279,103.80663 39.239505,118.25 c -3.058538,4.2625 -6.051147,7.74999 -6.650242,7.74997 -0.599095,-2e-5 -2.362978,-1.59636 -3.919741,-3.54743 z m 20.691896,-5.51507 C 57.53667,104.55912 65.932924,89.507517 70.105755,79.75 c 2.58048,-6.034051 2.315818,-11.197172 3.90411,-11.207804 1.121982,-0.0075 4.540621,3.149222 5.824549,2.805443 l 2.334414,-0.625051 -2.981723,5.888706 C 73.208753,88.418145 58.360775,109.40671 47.077688,122 c -3.427366,3.82536 -3.084987,3.06638 2.28373,-5.06253 z"
         id="path1906"
         sodipodi:nodetypes="scssssssssscccssssccsssssccssssscscssscsccscssssssssssssssssssssssssscsss" />
      <path
         style="fill:#060606"
         d="m 56.186096,225.01985 c -2.262689,-1.63909 -4.849215,-4.10226 -5.747835,-5.47373 -1.535993,-2.34422 -1.508903,-2.69575 0.452286,-5.86902 2.073783,-3.35545 17.3321,-17.75567 22.109453,-20.86607 1.375,-0.89522 9.25,-7.81302 17.5,-15.3729 8.25,-7.55987 18.72149,-16.88216 23.26999,-20.71619 4.54849,-3.83402 8.60412,-7.56802 9.0125,-8.29776 0.40838,-0.72974 3.31385,-3.32348 6.45659,-5.76387 l 5.71408,-4.43708 -8.22658,-1.20341 c -5.69141,-0.83257 -21.2987,-1.10912 -50.645396,-0.89743 l -42.418815,0.30599 -1.97902,-2.65068 -1.979021,-2.65069 6.526548,-8.8135 c 11.832318,-15.97847 23.143743,-35.407348 28.757017,-49.394007 1.231793,-3.069273 3.046571,-6.084443 4.032839,-6.700377 5.859012,-3.659014 49.957328,-4.859209 84.721268,-2.305805 24.10511,1.770516 23.30913,1.129546 20.17641,16.247359 -1.16095,5.602527 -3.82545,15.620816 -5.92109,22.26287 -2.09565,6.64205 -4.5634,15.89925 -5.4839,20.57157 -4.86341,24.68601 -23.87976,58.36335 -40.17997,71.15741 -9.29693,7.29718 -26.549833,17.5442 -43.794615,26.01095 C 69.760194,224.47356 62.065212,228 61.438874,228 c -0.626339,0 -2.990088,-1.34107 -5.252778,-2.98015 z m 10.71618,-6.0611 4.402276,-1.99732 -3.856738,-2.87565 -3.856739,-2.87566 -3.295538,2.51363 c -3.808182,2.90464 -3.841548,3.01543 -1.640549,5.44751 2.064311,2.28104 2.79266,2.26227 8.247288,-0.21251 z M 99.320771,202.01073 C 100.17725,201.22573 86.037341,193 83.831453,193 c -0.694515,0 -3.379966,2.08538 -5.967668,4.63417 l -4.704914,4.63416 5.170565,4.27932 5.170564,4.27931 7.5,-4.03197 c 4.125,-2.21759 7.869347,-4.37051 8.320771,-4.78426 z m 21.555839,-14.67918 4.32487,-3.83798 -10.59089,-4.87205 -10.59089,-4.87205 -4.259848,3.84852 C 97.416933,179.71468 95.5,181.81058 95.5,182.25556 c 0,0.44497 4.05,2.99036 9,5.65643 9.91911,5.34242 9.69336,5.35042 16.37661,-0.58044 z m 16.14414,-20.02532 2.97669,-4.69376 -5.74872,-2.38283 c -3.1618,-1.31056 -6.69905,-2.76359 -7.86057,-3.22896 -1.67637,-0.67165 -3.07576,-0.0496 -6.78644,3.01674 l -4.6746,3.86286 8.28645,3.97307 c 4.55754,2.18519 8.85885,4.01213 9.55846,4.05986 0.69962,0.0477 2.61154,-2.0254 4.24873,-4.60698 z m 11.89564,-23.09411 c 1.84855,-4.68981 1.88853,-5.21212 0.399,-5.21212 -1.74327,0 -13.29162,7.05151 -13.30664,8.12514 -0.005,0.34382 2.12875,1.51259 4.74125,2.59726 5.3271,2.21172 5.04859,2.39965 8.16639,-5.51028 z m 5.27163,-22.50592 c 7.35602,-18.87555 14.75464,-47.505569 12.61777,-48.826227 -3.46286,-2.140164 -72.173635,-3.383304 -86.858749,-1.57148 l -6.552958,0.808492 -2.843526,6.691508 C 65.206655,91.383991 53.493273,111.6763 44.622424,123.7265 l -4.471314,6.07385 32.174445,-0.45068 C 90.0215,129.1018 111.475,129.3044 120,129.7999 c 8.525,0.4955 18.88988,0.96823 23.03306,1.05051 L 150.56613,131 Z"
         id="path1904" />
    </g>
  </g>
</svg>
