<?xml version="1.0" encoding="UTF-8" standalone="no"?>
<!-- Created with Inkscape (http://www.inkscape.org/) -->

<svg
   version="1.1"
   id="svg1994"
   width="186.79044"
   height="206.07166"
   viewBox="0 0 186.79044 206.07166"
   sodipodi:docname="ケ.png"
   xmlns:inkscape="http://www.inkscape.org/namespaces/inkscape"
   xmlns:sodipodi="http://sodipodi.sourceforge.net/DTD/sodipodi-0.dtd"
   xmlns="http://www.w3.org/2000/svg"
   xmlns:svg="http://www.w3.org/2000/svg">
  <defs
     id="defs1998" />
  <sodipodi:namedview
     id="namedview1996"
     pagecolor="#ffffff"
     bordercolor="#000000"
     borderopacity="0.25"
     inkscape:showpageshadow="2"
     inkscape:pageopacity="0.0"
     inkscape:pagecheckerboard="0"
     inkscape:deskcolor="#d1d1d1"
     showgrid="false" />
  <g
     inkscape:groupmode="layer"
     inkscape:label="Image"
     id="g2000"
     transform="translate(-21.62986,-13.969848)">
    <g
       id="g2004">
      <path
         style="fill:#afafaf"
         d="m 76.145836,212.97209 c -1.294791,-1.07875 -3.682048,-2.71653 -3.408236,-2.59448 0.257857,0.11494 -0.07107,0.11044 -0.0012,-0.0523 0.09511,-0.22164 -0.217361,0.35738 0.06904,-0.15389 0.795534,-1.42014 19.407652,-16.70054 27.24938,-25.73456 10.92217,-12.58283 18.17893,-23.17447 23.78023,-34.70856 8.2626,-17.01418 14.9022,-39.37871 15.8767,-53.47833 l 0.57019,-8.966095 3.58283,0.08951 c 3.96413,0.09904 4.9789,-5.167976 3.13559,6.218796 C 139.99284,136.87976 123.41783,174.0097 94.010582,201.25 c -7.795555,7.22112 -12.805923,14.62115 -13.338913,14.60285 -0.532991,-0.0183 -3.231043,-1.80201 -4.525833,-2.88076 z m 24.003984,-7.22848 c 25.15785,-26.31098 40.70926,-54.40224 49.70162,-91.33397 1.5949,-6.5503 3.58072,-18.797373 4.24881,-22.784873 C 155.11796,85.550647 155.49352,88 157.1094,88 c 1.4844,0 2.0799,-1.898507 1.68784,-0.166822 -0.28017,1.2375 -1.95376,10.066822 -3.39089,16.666822 -5.5826,25.63822 -16.18954,52.81092 -27.12951,69.5 -6.51766,9.94278 -18.12197,23.64307 -28.374889,33.5 l -9.080929,8 z M 33.021089,136.72548 c -0.680858,-0.2789 4.736837,-5.63575 11.354735,-15.52539 C 50.522227,112.01504 57.572586,100.9 60.043287,96.5 c 3.238289,-5.766976 5.11314,-8.088916 6.716814,-8.318551 1.99585,-0.28579 1.626006,0.695416 -3.59632,9.541134 -7.811217,13.230857 -14.647541,23.253137 -21.972994,32.213147 -3.343583,4.08966 -6.169254,7.61228 -5.89247,8.06012 0.544906,0.88168 -0.548571,-0.56226 -2.277228,-1.27037 z m -9.031845,-6.23693 -2.359384,-2.51145 3.063853,-3.23855 C 37.744067,110.94408 56.016009,79.583085 66.490945,53 71.453082,40.407188 78.060012,19.26956 79.118579,16.003722 79.920603,13.529357 80.269904,14.0077 80.308259,14.005938 80.872863,13.980006 91.162975,16.627175 93.5,17.5 c 1.737104,0.648769 2.420539,0.201916 1.749394,2.571871 -0.923667,3.261666 -11.532999,35.632866 -13.25877,40.111628 -1.630647,4.231895 -2.62055,6.994644 -3.298793,8.670641 -0.503623,1.244496 0.444963,0.616112 0.810206,0.981506 0.365243,0.365395 29.275953,0.776109 64.246033,0.912698 34.97007,0.136589 63.78006,0.446457 64.0222,0.688596 0.95441,0.954406 0.731,13.0296 0.1406,15.454993 -0.26994,1.108908 -7.41249,-1.035111 -5.26757,-3.318516 L 206,80 H 137.60866 69.217324 L 75.032012,67.25 C 80.09319,56.152238 88.498707,32.91115 90.385941,24.796689 90.961078,22.323797 90.711743,22.036549 87.460706,21.42665 85.506026,21.05995 83.789679,20.92644 83.646599,21.129962 83.50352,21.333483 82.144981,25.775 80.627624,31 75.429768,48.898749 65.950528,70.646215 54.257008,91.5 c -5.063045,9.02925 -25.119581,42.06934 -26.00351,42.06953 -0.316627,7e-5 -2.966593,-1.69968 -4.264254,-3.08098 z"
         id="path2008"
         sodipodi:nodetypes="ssssssscsssssssssscsscsssssssssscssssssssssssscccssssssss" />
      <path
         style="fill:#070707"
         d="M 82.53722,217.77075 79.914656,215.5 l 13.83418,-14 c 19.259914,-19.49076 31.356404,-38.03583 40.858534,-62.63998 5.7651,-14.92773 13.77793,-48.807075 11.97112,-50.615546 -1.06237,-1.063353 -73.278776,-1.545032 -78.047279,-0.520571 -3.66334,0.787028 -4.341557,1.503887 -8.812283,9.314374 C 54.596307,105.98764 34.160344,137 33.385675,137 32.387254,137 28,133.71973 28,132.97322 28,132.53501 32.648304,125.24697 38.329564,116.77758 58.752121,86.332462 72.877708,57.686736 80.627624,31 c 1.517357,-5.225 2.875896,-9.666517 3.018975,-9.870038 0.14308,-0.203522 1.859427,-0.07001 3.814107,0.296688 3.251037,0.609899 3.500372,0.897147 2.925235,3.370039 C 88.498707,32.91115 80.09319,56.152238 75.032012,67.25 L 69.217324,80 H 137.60866 206 v 3.5 3.5 h -20.86043 c -11.47323,0 -22.91718,0.281909 -25.43098,0.626464 l -4.57055,0.626463 -1.19339,7.123537 c -4.54489,27.129236 -14.70312,56.147426 -26.5679,75.894376 -9.11977,15.17835 -27.658858,37.23602 -38.546858,45.86278 l -3.670109,2.90789 z"
         id="path2006" />
    </g>
  </g>
</svg>
