<?xml version="1.0" encoding="UTF-8" standalone="no"?>
<!-- Created with Inkscape (http://www.inkscape.org/) -->

<svg
   version="1.1"
   id="svg337"
   width="244.58627"
   height="157.77739"
   viewBox="0 0 244.58627 157.77739"
   sodipodi:docname="コ.png"
   xmlns:inkscape="http://www.inkscape.org/namespaces/inkscape"
   xmlns:sodipodi="http://sodipodi.sourceforge.net/DTD/sodipodi-0.dtd"
   xmlns="http://www.w3.org/2000/svg"
   xmlns:svg="http://www.w3.org/2000/svg">
  <defs
     id="defs341" />
  <sodipodi:namedview
     id="namedview339"
     pagecolor="#ffffff"
     bordercolor="#000000"
     borderopacity="0.25"
     inkscape:showpageshadow="2"
     inkscape:pageopacity="0.0"
     inkscape:pagecheckerboard="0"
     inkscape:deskcolor="#d1d1d1"
     showgrid="false" />
  <g
     inkscape:groupmode="layer"
     inkscape:label="Image"
     id="g343"
     transform="translate(-13.839746,-19.981846)">
    <g
       id="g347">
      <path
         style="fill:#ababab"
         d="m 150.01745,152.73356 c 0.81568,-12.97665 12.61253,-1.61588 -2.71885,-1.98692 -0.99489,0.0479 -0.55788,-1.566 1.15284,-4.041 6.69145,-9.68084 8.87629,-12.42965 9.19439,-40.70564 0.31744,-28.218063 -0.45013,-35.829339 -4.44486,-44.075494 -2.4512,-5.0599 -2.31742,10.940861 -2.27162,2.208911 l 0.1417,-27.019631 3.85079,1.358637 c 5.88372,2.075897 9.3459,4.068047 12.43026,7.152402 3.09485,3.094848 5.61892,7.09333 3.74767,5.936835 -0.79431,-0.490909 -1.09552,13.571373 -1.08446,50.62932 0.01,33.49586 1.20832,51.58227 1.28977,50.41919 0.0839,-1.19878 -0.0933,-0.62287 -0.0831,0.20474 0.0221,1.79948 2.10245,-0.11721 -1.62384,-0.008 -8.70298,0.25589 -17.67624,0.35334 -19.58068,-0.0737 z M 139.6591,151.10282 C 140.91734,149.44109 134.34861,150 79.822445,150 c -44.553047,0 -57.724266,-0.28015 -58.769149,-1.25 -1.094131,-1.01556 11.156936,-2.13817 11.796798,-0.91949 0.611733,1.1651 -11.95952,2.30181 -13.320338,1.02266 -1.321719,-1.24239 -1.751978,-3.24776 -1.751978,-8.16571 0,-3.58538 0.293658,-6.99403 0.652573,-7.57477 0.446646,-0.72268 20.872754,-1.06922 64.729047,-1.09816 35.242062,-0.0233 65.911582,-0.10782 66.396722,-0.40765 1.15446,-0.71349 -0.31938,0.64025 -1.53138,3.82802 L 147.0495,138 H 85.024751 23 v 3.49219 3.4922 l 60.048375,0.2578 61.342735,-1.32419 -5.54536,5.582 c -1.47491,1.48465 0.0846,2.56532 0.81335,1.60282 z m -52.969025,-26.97273 63.909165,0.16297 -0.30432,-6.80909 0.41477,-3.50128 -0.10485,3.75866 2.05243,8.0732 -24.52523,2.31219 22.21573,-4.30345 2.06728,4.76515 z M 22.5,105.5153 c -15,-70.343533 -7.5,-35.171767 0,0 z m 127.79492,-20.031335 0.41477,-3.501272 -0.10485,3.758653 L 150.5,89.5 c -42.33333,0.0074 44.48219,3.610263 2.14886,3.617665 13.61704,-2.801336 -3.59497,2.842433 -2.35394,-7.6337 z M 122.80028,37.466947 c -0.32739,-0.327388 -4.57888,-1.43472 -9.44777,-2.460738 L 104.5,33.140723 l 9.21078,-0.07036 c 9.70122,-0.07411 37.98072,2.993711 42.57368,4.377904 1.81167,0.545989 9.49913,0.415139 2.04481,0.472509 -6.14252,0.04727 -0.86083,0.03731 -1.62205,0.329416 -0.76121,0.292104 -33.57955,-0.455856 -33.90694,-0.783242 z M 19.453754,35.925172 c -0.738656,-1.19517 -0.9251,-14.787159 -0.212612,-15.499647 0.56635,-0.56635 148.660538,-0.603183 149.583198,-0.0372 0.37161,0.227956 0.53046,4.008884 0.353,8.402064 l -0.32266,7.987598 -4.17734,-2.328552 C 155.89869,29.555993 140.06897,26.590048 116.5,25.422652 104.84835,24.845533 62.293655,25.953916 32.25,27.617034 L 21,28.239797 v 3.334788 c 0,3.827552 1.07632,4.205067 13.5,4.73507 5.053352,0.215579 4.026917,0.353092 -3.690983,0.494485 -6.751266,0.123684 -10.935776,-0.200223 -11.355263,-0.878968 z"
         id="path351"
         sodipodi:nodetypes="sccssscssssssscscssssscsscccccccsscccccccccccccsccccsscsssssssssscssscsssss" />
      <path
         style="fill:#040404"
         d="m 54.5,176.79191 c -28.296769,-0.89583 -31.727667,-1.47757 -32.306776,-5.47784 -0.400617,-2.76732 1.025038,-2.96474 31.306776,-4.3352 24.407402,-1.10461 50.16529,-3.34247 56.5,-4.90876 2.14435,-0.5302 -14.026624,-0.90503 -41.75,-0.96775 L 23,161 v -3.5 -3.5 h 55.55821 55.55821 l 4.69179,-4.47682 L 143.5,145.04636 83.25,145.02318 23,145 v -3.49243 -3.49243 l 62.206119,-0.25757 61.990391,-0.14971 1.44612,-4.35786 1.2304,-4.25 H 86.436514 23 v -3.4926 -3.4926 L 86.75,121.7574 150.5,121.5 v -4 -4 L 86.75,113.2426 23,112.9852 V 109.4926 106 h 63.341615 63.341615 l 0.068,-4.5 0.068,-4.5 H 86.409644 23 V 93.507402 90.014804 L 86.75,89.757402 150.5,89.5 v -4 -4 L 86.75,81.242598 23,80.985196 V 77.492598 74 h 63 c 52.24011,0 63,-0.230702 63,-1.350777 0,-0.742927 -0.49402,-2.767927 -1.09783,-4.5 L 146.80435,65 H 84.902175 23 V 61.5 58 L 82.75,57.9603 142.5,57.92059 137.65325,53.460296 132.80651,49 H 77.903253 23 V 45.5 42 L 65.25,41.91405 C 88.4875,41.86678 106.31411,41.469496 104.86468,41.031205 100.90626,39.834215 78.418324,38.129366 51.5,36.985533 20.342003,35.661545 21,35.777922 21,31.591156 v -3.318218 l 10.25,-0.620613 c 32.626272,-1.975442 78.03059,-2.846587 92.55404,-1.775779 27.08064,1.996646 38.89114,5.42985 46.50025,13.517206 7.74891,8.235934 8.0672,9.195831 8.67664,26.166831 0.43679,12.163334 0.88584,15.587139 2.33428,17.797741 4.99315,7.620504 14.79246,8.803212 26.20729,3.163037 20.44547,-10.102298 33.55902,-10.959708 42.60659,-2.78577 5.98231,5.40466 8.29693,10.499939 8.29693,18.264409 0,7.76447 -2.31462,12.85975 -8.29693,18.26441 -9.04757,8.17394 -22.16112,7.31653 -42.60659,-2.78577 -12.14405,-6.00049 -22.34388,-4.27025 -26.77095,4.54129 -1.39187,2.77036 -1.75324,6.13122 -1.77196,16.48007 -0.019,10.53475 -0.37601,13.75854 -1.88235,17 -4.08531,8.79114 -15.51818,15.94717 -30.23691,18.9258 -17.80858,3.60392 -37.4047,4.10594 -92.36033,2.36611 z m 89,-8.18002 c 13.98017,-2.86365 24.11638,-8.35457 27.73727,-15.02564 0.66712,-1.22909 1.17507,-7.63287 1.2363,-15.58625 0.0811,-10.53621 0.49011,-14.37516 1.86291,-17.48635 3.55516,-8.05703 10.27328,-12.47889 20.13411,-13.25223 5.60581,-0.43963 6.66171,-0.15525 15.02941,4.04781 11.22668,5.63911 18.15132,7.69182 25.9315,7.68703 7.67169,-0.005 11.95459,-2.42905 14.60468,-8.26692 3.921,-8.63757 1.45758,-19.62835 -5.32652,-23.764831 -6.90023,-4.207292 -20.73071,-1.874191 -36.20966,6.108309 -7.36875,3.800064 -8.47576,4.088804 -14.02941,3.659252 -11.41222,-0.88269 -19.24266,-7.480034 -21.42985,-18.055193 -0.58889,-2.847282 -0.95146,-9.93174 -0.80572,-15.74324 0.24604,-9.811202 0.0892,-10.823351 -2.19418,-14.162185 C 163.39036,39.04704 147.91031,34.355095 119.5,33.452714 l -15,-0.476437 8.5,1.903079 c 23.7145,5.309478 36.91226,15.432054 42.53063,32.620644 1.77016,5.41555 1.95692,8.824842 1.91736,35 -0.0414,27.38996 -0.16662,29.33311 -2.25541,35 -6.24852,16.95228 -18.8674,26.3546 -42.20506,31.44696 L 103.5,171.01717 120,170.53146 c 9.075,-0.26714 19.65,-1.13094 23.5,-1.91957 z"
         id="path349"
         sodipodi:nodetypes="ssssscccccccccccccccccccccccccccccccccccccccccccssscccccccccccccsssscssssssssssscssssssssscsssssscscssssscss" />
    </g>
  </g>
</svg>
