<?xml version="1.0" encoding="UTF-8" standalone="no"?>
<!-- Created with Inkscape (http://www.inkscape.org/) -->

<svg
   version="1.1"
   id="svg659"
   width="415.72498"
   height="370.2764"
   viewBox="0 0 415.72498 370.2764"
   sodipodi:docname="ス.png"
   xmlns:inkscape="http://www.inkscape.org/namespaces/inkscape"
   xmlns:sodipodi="http://sodipodi.sourceforge.net/DTD/sodipodi-0.dtd"
   xmlns="http://www.w3.org/2000/svg"
   xmlns:svg="http://www.w3.org/2000/svg">
  <defs
     id="defs663" />
  <sodipodi:namedview
     id="namedview661"
     pagecolor="#ffffff"
     bordercolor="#000000"
     borderopacity="0.25"
     inkscape:showpageshadow="2"
     inkscape:pageopacity="0.0"
     inkscape:pagecheckerboard="0"
     inkscape:deskcolor="#d1d1d1"
     showgrid="false" />
  <g
     inkscape:groupmode="layer"
     inkscape:label="Image"
     id="g665"
     transform="translate(-8.0774965,-8.9618015)">
    <g
       id="g669"
       inkscape:export-filename="..\all_svg\ス.svg"
       inkscape:export-xdpi="96"
       inkscape:export-ydpi="96">
      <path
         style="fill:#acacac"
         d="m 264.79902,134.89255 c -4.91179,-5.14251 13.14537,9.90626 12.1295,10.26224 -0.84832,0.29727 -67.20902,-55.950312 -65.70297,-55.119647 l 6.8155,-3.329504 51.18591,48.498961 c 4.19392,3.97376 10.14908,8.51764 10.40309,8.92863 0.254,0.41099 -2.4541,0.23587 -3.40363,1.01369 -1.55567,1.27435 -4.7074,-3.21872 -11.4274,-10.25437 z m 23.60597,7.98812 c -1.47967,-1.64615 -39.13451,-35.84636 -63.20673,-57.407857 l -3.37969,-3.027187 1.95663,-2.41634 1.95664,-2.41634 8.88408,7.84026 c 15.23985,13.449265 50.25635,46.597704 53.35041,50.504284 2.17176,2.74207 2.65604,4.02014 1.83455,4.84163 -0.82149,0.82149 -6.36057,2.77539 -5.41841,3.91062 1.93751,2.33456 6.20113,0.59467 4.02252,-1.82907 z m -153.7179,-1.68539 C 133.20919,139.65269 132,138.1098 132,137.76664 c 0,-0.34316 5.0625,-4.09055 11.25,-8.32755 17.98504,-12.31555 31.18884,-23.01276 45.47613,-36.842997 20.55536,-19.897788 33.89886,-37.39481 44.49196,-58.341244 L 238.4042,24 h 4.27315 c 4.24801,0 4.26701,0.01618 3.22929,2.75 -2.09303,5.51404 -11.81769,24.141671 -16.78122,32.144533 C 211.51978,87.28067 187.29923,111.57342 155.16808,133.07233 146.18552,139.08255 138.50721,144 138.10517,144 c -0.40204,0 -1.94018,-1.26212 -3.41808,-2.80472 z m 107.88345,-26.73132 c -4.91121,-4.6411 -8.63458,-8.73325 -8.27417,-9.09366 0.78398,-0.78398 1.9049,0.0658 11.91584,9.03406 6.6684,5.97381 8.59777,8.7319 5.97877,8.54681 -0.38004,-0.0269 -4.70924,-3.8461 -9.62044,-8.48721 z M 47.311174,23.251792 c 8.146146,-0.168277 21.196146,-0.167889 29,8.63e-4 C 84.115028,23.421407 77.45,23.559088 61.5,23.558614 45.55,23.558139 39.165028,23.42007 47.311174,23.251792 Z M 254.21482,18.25 252.92963,16 l -51.71481,7.3e-5 -51.71482,7.4e-5 0.089,-3.005719 c 0.0489,-1.653146 0.31969,-3.2364359 0.60168,-3.5184224 0.83528,-0.8352807 105.11832,-0.5832161 105.7646,0.2556458 0.32558,0.4225916 0.35634,3.0183486 0.0684,5.7683486 -0.48887,4.668258 -0.60888,4.850716 -1.80879,2.75 z"
         id="path673"
         sodipodi:nodetypes="ssscsssssscccsssssssssscssssssssssssssscccccssccc" />
      <path
         style="fill:#0c0c0c"
         d="m 191.491,364.0335 c -20.34505,-8.68266 -37.2786,-15.50469 -37.63011,-15.16007 -0.35151,0.34461 -1.89077,6.14503 -3.42058,12.88982 -2.58555,11.39944 -2.92794,12.21918 -4.86089,11.6376 -1.14368,-0.3441 -2.48212,-1.00027 -2.97432,-1.45814 -0.51812,-0.482 6.91742,-34.64349 17.66029,-81.13761 10.20535,-44.1678 18.821,-82.18713 19.14589,-84.48739 0.32489,-2.30027 0.15743,-5.3219 -0.37213,-6.71475 -1.40326,-3.69084 -31.62963,-43.69423 -35.05756,-46.39726 -2.74313,-2.16305 -3.08042,-2.20595 -5.89592,-0.75 -3.91769,2.02591 -7.36959,1.95471 -9.97271,-0.2057 C 126.95322,151.2875 104.2094,125.525 77.571127,95 29.439234,39.845296 29.150004,39.487643 31.082849,37.513881 c 1.396338,-1.425899 2.342459,-1.707967 3.354228,-1 C 35.212183,37.056246 56.406725,61.125 81.53606,90 106.6654,118.875 128.3,143.61481 129.61297,144.97736 l 2.3872,2.47736 3.74164,-1.97736 c 9.615,-5.08127 36.95177,-24.36319 47.71412,-33.65503 17.96229,-15.508013 33.9601,-34.048378 45.66949,-52.927797 4.89643,-7.89467 14.68044,-26.6098 16.71858,-31.97977 l 0.98121,-2.585238 -118.12857,-0.666446 C 25.689794,23.081944 10.37626,22.804831 9.0697445,21.498316 7.7545693,20.183141 7.7504098,19.830451 9.0357143,18.612879 10.259304,17.453769 30.402978,17.111379 131.58064,16.529932 l 121.08064,-0.695826 1.72228,2.62853 c 0.99,1.510934 1.45854,3.459508 1.10197,4.582947 C 254.87343,24.974147 255.96903,25 338.31017,25 c 74.15403,0 83.58819,0.172601 84.73148,1.550188 1.05599,1.272387 1.02537,1.811363 -0.17086,3.007591 -1.243,1.243 -13.9228,1.554096 -86.19131,2.114682 l -84.73392,0.657279 -6.60266,12.828342 c -3.63146,7.055589 -10.35716,18.343897 -14.946,25.08513 L 222.05356,82.5 l 3.26557,3 c 7.56912,6.953573 63.26593,57.30322 67.07347,60.63409 l 4.15415,3.6341 48.35664,-50.384096 C 371.49954,71.672842 393.58178,49 393.97502,49 c 0.39325,0 1.52282,0.892626 2.51015,1.983614 1.75693,1.941384 1.31735,2.478951 -20.64718,25.25 C 363.49471,89.030126 340.86689,112.55 325.55393,128.5 c -15.31295,15.95 -28.25007,29.1577 -28.74915,29.35044 -0.49907,0.19274 -2.68807,-0.88356 -4.86443,-2.39178 l -3.95702,-2.74222 -4.91728,4.89178 c -6.57143,6.53736 -33.97254,40.25969 -35.17745,43.2926 -1.53926,3.87454 -0.40022,10.71275 15.25757,91.59918 8.198,42.35 14.78134,77.9 14.62965,79 -0.17938,1.30066 -1.16065,2.10324 -2.80629,2.29524 -2.0692,0.24142 -2.70721,-0.27294 -3.5,-2.82169 -0.92544,-2.97518 -3.44506,-4.22793 -55.40124,-27.54524 C 186.13085,329.99274 161.34393,319 160.98626,319 c -0.65148,0 -5.33004,19.05614 -4.77898,19.46516 0.16099,0.1195 20.24502,8.72623 44.63116,19.12606 24.38614,10.39983 43.64964,19.04927 42.80778,19.22098 -0.84185,0.1717 -20.9909,-8.03154 -44.77567,-18.22944 -23.78476,-10.19789 -43.35162,-18.43502 -43.48192,-18.30473 -0.13029,0.13029 -0.38353,1.56267 -0.56276,3.18305 l -0.32587,2.94616 37,15.75739 c 20.35,8.66657 37.42784,15.91755 37.95075,16.1133 0.59705,0.2235 0.5937,0.57656 -0.009,0.94906 -0.52786,0.32623 -17.60569,-6.51084 -37.95074,-15.19349 z m 78.46903,-2.25206 c -0.42428,-2.32021 -1.15135,-4.36852 -1.61572,-4.55179 C 267.87994,357.04637 244.1,346.16122 215.5,333.04042 c -28.6,-13.1208 -52.29009,-23.55999 -52.64465,-23.19821 -0.35455,0.36179 -0.93615,2.04443 -1.29243,3.73921 l -0.64778,3.08141 54.29243,24.56253 c 29.86084,13.5094 54.56951,24.61026 54.90816,24.66859 0.33865,0.0583 0.26858,-1.7923 -0.1557,-4.11251 z m -3.20556,-16.56917 -1.95192,-9.78773 -48.05851,-22.96227 c -26.43217,-12.62925 -48.36139,-23.08682 -48.73158,-23.23904 -0.52595,-0.21627 -3.95202,13.06191 -4.41634,17.11608 -0.0796,0.69523 102.62439,48.47118 104.50708,48.61471 0.33175,0.0253 -0.27517,-4.3585 -1.34873,-9.74175 z m -3.19429,-16.74315 -0.67989,-3.62415 -30.19014,-14.73324 c -51.66041,-25.21107 -62.68057,-30.45483 -63.10288,-30.02648 -0.9733,0.98723 -1.73488,7.91475 -0.8701,7.91475 0.51686,0 22.05444,10.08413 47.86129,22.40919 25.80685,12.32505 47.08806,22.24603 47.29158,22.04663 0.20352,-0.19941 0.0641,-1.99343 -0.30986,-3.9867 z m -1.5594,-7.21912 c 4.3e-4,-0.4125 -0.94412,-5.49435 -2.09899,-11.293 l -2.09977,-10.543 -41.46773,-19.80695 c -22.80726,-10.89381 -41.62469,-19.64946 -41.81651,-19.45699 -0.5708,0.5727 -4.64713,17.05393 -4.30308,17.39798 0.5706,0.57059 90.26606,44.28912 91.0353,44.37157 0.4125,0.0442 0.75035,-0.25711 0.75078,-0.66961 z m -5.86899,-30.31554 c -0.76933,-1.95305 -8.69155,-6.17183 -40.06232,-21.33419 -21.50684,-10.39485 -39.36336,-18.63972 -39.68114,-18.32194 -0.31778,0.31779 -0.64766,1.96938 -0.73306,3.6702 L 175.5,258.04094 216,277.43763 c 42.32253,20.26956 42.87253,20.45453 40.13179,13.49683 z M 254.93624,284.75 c -0.0351,-0.6875 -1.28469,-7.49532 -2.77694,-15.12848 l -2.71317,-13.87849 -32.95921,-16.82523 c -22.4859,-11.47875 -33.1617,-16.44274 -33.59641,-15.62152 -1.09139,2.06171 -6.10498,24.82258 -5.58276,25.3448 0.73968,0.73968 76.07138,37.28156 76.94225,37.32313 0.4125,0.0197 0.72131,-0.52671 0.68624,-1.21421 z m -6.55545,-34.5 c -0.36152,-1.5125 -0.85727,-3.10469 -1.10168,-3.53821 C 246.85662,245.9624 185.56717,215 184.50625,215 c -0.27844,0 -0.49471,1.2375 -0.4806,2.75 0.0242,2.59628 1.79896,3.65516 31.75,18.94335 17.44839,8.90634 32.07042,16.21884 32.4934,16.25 0.42298,0.0312 0.47326,-1.18085 0.11174,-2.69335 z M 243.38621,224.66575 239.7706,206 h -26.32629 c -14.47945,0 -26.51562,0.3375 -26.74703,0.75 -0.23142,0.4125 -0.71528,1.98241 -1.07524,3.4887 -0.64946,2.71771 -0.41874,2.85672 30.11175,18.143 16.92141,8.47237 30.87912,15.30204 31.01712,15.17706 0.138,-0.12499 -1.37611,-8.62684 -3.3647,-18.89301 z m -38.26276,-26.73182 c 1.09558,-0.58634 18.02189,-13.04606 37.61401,-27.68828 l 35.62204,-26.62221 -8.40256,-7.72116 -8.40257,-7.72115 -2.52718,1.8225 c -17.19069,12.39725 -78.59522,58.25657 -78.80183,58.85232 -0.15105,0.43554 1.33206,2.89613 3.2958,5.46798 L 187.09161,199 h 8.01994 c 4.41096,0 8.91632,-0.47973 10.0119,-1.06607 z m 40.9601,-21.50718 c 16.72905,-12.41529 31.88309,-23.98258 33.67565,-25.70509 2.83396,-2.72321 3.07166,-3.31937 1.82182,-4.56921 -1.24984,-1.24984 -3.43647,0.0432 -16.7592,9.91074 -23.80206,17.62903 -55.21987,41.12034 -56.27182,42.07483 -0.54796,0.49719 0.757,0.86198 3.08355,0.86198 3.69397,0 6.59427,-1.90041 34.45,-22.57325 z m 9.56969,4.37044 c 8.16572,-10.01155 15.72531,-19.31077 16.79908,-20.66494 1.07378,-1.35418 -3.20122,1.35404 -9.5,6.01826 C 235.14747,186.73988 220,198.1732 220,198.57096 220,198.80693 224.68146,199 230.40324,199 h 10.40325 z m -37.95561,-22.42443 c 21.34131,-15.74499 39.6652,-29.44531 40.71976,-30.44517 1.88313,-1.78544 1.87026,-1.83941 -0.72038,-3.01978 -1.76746,-0.80531 -3.05998,-0.87512 -3.9174,-0.21157 C 253.07583,125.2409 239,135.956 222.5,148.50758 c -48.1933,36.66073 -46.75188,35.484 -45.42452,37.08337 0.64318,0.77498 1.31574,1.40905 1.4946,1.40905 0.17885,0 17.78625,-12.88226 39.12755,-28.62724 z m -4.61441,-4.90689 c 20.02923,-15.2487 37.44834,-28.70841 38.70914,-29.91047 l 2.29236,-2.18558 -9.18041,-8.18491 C 239.85509,108.68321 235.33451,105 234.85857,105 c -0.85057,0 -11.8549,8.75397 -53.15979,42.28875 l -20.80121,16.88817 2.37059,3.16154 c 1.30383,1.73885 4.32198,5.77028 6.70701,8.95875 2.38502,3.18846 4.86625,5.59388 5.51384,5.34538 0.64759,-0.2485 17.56498,-12.92803 37.59421,-28.17672 z m -17.02144,-20.07773 c 19.49102,-15.73652 35.86893,-29.01473 36.39536,-29.50714 0.60023,-0.56144 0.3445,-1.50793 -0.6858,-2.53823 -1.52392,-1.523919 -4.2012,0.40715 -36.95714,26.65636 -19.42281,15.56461 -35.95054,28.88457 -36.7283,29.5999 -1.15907,1.06604 -1.18208,1.58016 -0.12755,2.85078 0.7076,0.85261 1.59674,1.55019 1.97588,1.55019 0.37913,0 16.63653,-12.87534 36.12755,-28.61186 z m -9.30075,-1.06153 c 16.90643,-13.57036 33.12944,-26.67905 36.05112,-29.13041 l 5.31214,-4.457031 -2.81214,-2.96096 c -1.54668,-1.628528 -3.98682,-3.805748 -5.42254,-4.838267 l -2.61039,-1.877306 -15.38961,15.235964 c -17.11896,16.94804 -36.04386,31.8619 -53.72195,42.33585 -0.3531,0.2092 7.05122,10.36555 7.55682,10.36555 0.16367,0 14.13012,-11.10302 31.03655,-24.67339 z"
         id="path671" />
    </g>
  </g>
</svg>
