<?xml version="1.0" encoding="UTF-8" standalone="no"?>
<!-- Created with Inkscape (http://www.inkscape.org/) -->

<svg
   version="1.1"
   id="svg749"
   width="211.35394"
   height="213.37589"
   viewBox="0 0 211.35394 213.37589"
   sodipodi:docname="セ.png"
   xmlns:inkscape="http://www.inkscape.org/namespaces/inkscape"
   xmlns:sodipodi="http://sodipodi.sourceforge.net/DTD/sodipodi-0.dtd"
   xmlns="http://www.w3.org/2000/svg"
   xmlns:svg="http://www.w3.org/2000/svg">
  <defs
     id="defs753" />
  <sodipodi:namedview
     id="namedview751"
     pagecolor="#ffffff"
     bordercolor="#000000"
     borderopacity="0.25"
     inkscape:showpageshadow="2"
     inkscape:pageopacity="0.0"
     inkscape:pagecheckerboard="0"
     inkscape:deskcolor="#d1d1d1"
     showgrid="false" />
  <g
     inkscape:groupmode="layer"
     inkscape:label="Image"
     id="g755"
     transform="translate(-9.376133,-8)">
    <g
       id="g759">
      <path
         style="fill:#afafaf"
         d="m 182.99924,215.5 c 2.8e-4,-0.65126 -15.08256,-1 -43.2494,-1 -48.435082,0 -49.808223,-0.15854 -57.120539,-6.5951 -5.583265,-4.91459 -8.637349,-11.97204 -9.369364,-21.65097 l -0.564795,-7.46788 2.747168,2.74717 c 2.707369,2.70737 2.894286,2.74065 12.902428,2.29746 5.585394,-0.24733 5.682991,-4.64426 5.295205,-3.10416 l -0.776214,2.29829 0.322878,7.56485 c 0.329691,7.72449 1.860844,9.40803 8.497673,10.49929 8.89028,1.46179 71.18198,0.27734 84.98801,-1.61601 l 4.1723,-0.57218 0.3277,8.14823 c 0.18024,4.48152 -0.0781,8.39761 -0.57403,8.70241 -1.59607,0.98092 -7.59947,0.7823 -7.59902,-0.2514 z M 79,177.97144 c 0,-0.5657 2.7,-5.31424 6,-10.55229 3.3,-5.23806 6,-9.92785 6,-10.42176 0,-0.4939 -0.7875,-1.342 -1.75,-1.88465 -1.482618,-0.83589 -2.565164,0.26424 -7.085202,7.20031 -2.934361,4.50282 -6.19477,9.98695 -7.245354,12.18695 l -1.910153,4 0.245354,-12.95589 0.245355,-12.9559 5.165014,0.27552 c 5.729373,0.30563 10.265227,-1.49835 12.774282,-5.08052 C 92.881112,145.72472 93,146.78569 93,161.71107 v 16.15609 l 0.143293,3.0233 C 93.215716,182.4185 94.1125,178.76776 88.75,178.85017 82.639081,178.94407 79,178.6161 79,177.97144 Z m 60.79054,-19.83807 -7.70946,-5.81449 7.08267,-7.90944 c 3.89547,-4.35019 10.06473,-11.71533 13.70946,-16.36698 l 6.62679,-8.45753 4.51301,-6.69078 c 3.23629,-4.79796 -3.30235,-4.17227 -3.17766,9.10585 0.0956,10.175 2.68848,21.32119 2.37332,27.37119 -0.3713,7.12763 3.62876,-10.00499 1.22258,-6.33661 l -3.93125,5.99343 -5.98703,7.48599 c -3.29286,4.1173 -6.21786,7.47427 -6.5,7.45993 -0.28213,-0.0143 -3.98223,-2.6426 -8.22243,-5.84056 z M 91.261171,128.05515 c -2.064262,-3.31967 -6.935819,-5.22107 -12.596157,-4.91637 -4.730368,0.25463 -5.888148,1.47384 -6.193016,-0.64185 -0.183084,-1.27056 0.616442,-4.71315 0.927122,-5.95101 0.514383,-2.04947 1.510524,-2.36273 11.143475,-3.50436 5.818227,-0.68954 8.070839,-2.11054 8.404179,-1.7772 0.333339,0.33334 1.785177,0.60607 0.889924,0.60607 -1.353737,0 -0.807469,2.56437 -1.047765,9.65326 -0.24583,7.25212 -0.473744,8.22649 -1.527762,6.53146 z M 168.21826,114.25 168.5,102.5 179.80494,99.748026 c 6.08497,-1.48127 12.32053,-1.562601 12.60601,-1.277111 0.28549,0.28548 -2.09625,5.246585 -4.33695,8.794485 -2.2407,3.5479 -9.28741,17.02537 -9.28741,17.63083 0,0.60546 0.013,-2.17788 -0.93543,-0.33578 -1.40564,2.73021 2.08994,-1.92676 -0.6011,-1.85056 -1.81566,0.0515 -4.44232,2.85471 -5.7839,3.73375 -1.34158,0.87904 -2.6605,-0.5204 -2.96271,-0.44367 -9.72347,2.46863 -0.44015,-5.2875 -0.28519,-11.75 z M 13.314646,122.09897 C 12.866591,121.76954 12.484212,121.05 12.464916,120.5 12.316754,116.277 10.620138,109 9.7837174,109 c -0.612064,0 -0.5281791,-0.60298 0.2071447,-1.48899 0.6796629,-0.81894 1.6192899,-1.25195 2.0880589,-0.96223 C 13.06366,107.15738 57.886,101.44574 62.75,100.09184 L 66,99.187201 v 4.406399 c 0,2.42352 -0.3375,4.40916 -0.75,4.41253 -0.4125,0.003 -11.325,1.35062 -24.25,2.99387 -12.925,1.64325 -22.309146,3.94628 -22.446646,3.94966 -0.782708,0.0192 -1.378314,4.82537 -0.483319,5.72037 0.760046,0.76005 0.344225,1.20879 -1.435354,1.54898 -1.377964,0.26341 -2.87198,0.20939 -3.320035,-0.12004 z M 74,93.557106 V 79.880949 l 5.053788,4.261417 c 4.669461,3.937348 5.014845,4.531242 4.54169,7.809526 -0.281655,1.951459 -0.798087,5.910608 -1.147627,8.798108 -0.478843,3.95566 -1.04384,5.25337 -2.291689,5.26365 -0.910889,0.008 -2.668662,0.285 -3.906162,0.61664 L 74,107.23326 Z m 15.5,10.191534 c 1.1,-0.76435 3.637157,-2.37606 5.638126,-3.5816 l 3.638126,-2.191875 4.861878,2.173205 4.86187,2.1732 -4.5,0.70662 c -2.475,0.38865 -7.2,1.02242 -10.5,1.4084 -5.295974,0.61942 -5.765325,0.5387 -4,-0.68795 z m 25.43413,-6.165357 C 114.35489,95.337477 113.65327,92.6 113.37497,91.5 c -0.33919,-1.340723 -0.21621,-1.585524 0.37309,-0.742634 0.69493,0.993968 5.841,0.563451 24.56551,-2.055136 L 162,85.389729 v 5.305136 c 0,3.565475 1.43332,5.804017 0.59322,5.819097 -0.6875,0.01234 -12.88358,0.795792 -24.84957,2.341757 l -21.75635,2.810851 z m 55.05486,-4.726294 C 169.98294,91.560645 169.71732,88.925 169.39872,87 l -4.31555,-1.588415 12.31589,-1.477134 c 9.88377,-1.185433 13.33316,-2.072394 14.74827,-1.542683 0.94863,0.355097 0.21639,-0.275978 0.66476,0.327744 0.98928,1.332053 2.30988,10.21753 3.36413,11.074017 1.77338,1.440708 0.62829,-2.081649 -11.00438,-0.877799 -6.91551,0.715678 -13.15825,1.52556 -13.87275,1.79974 -0.8375,0.321379 -1.303,-0.33897 -1.3101,-1.858481 z M 74.369714,71.75 c 0.331637,-1.2375 0.609121,-5.691496 0.616631,-9.897768 L 75,54.204464 l 8.931023,-5.943655 8.931023,-5.943655 0.318977,8.499427 c 0.275422,7.33887 -0.03353,9.327901 -2.262658,14.566829 l -2.581635,6.067402 -5.918365,1.230959 C 74.054183,74.421435 73.665845,74.376478 74.369714,71.75 Z M 75.103322,40.196912 C 74.914864,37.123176 74.95,33.527874 75.5,33.163144 76.05,32.798415 80.03587,32.725 84.357488,33 l 7.857489,0.5 -7.357489,5.08074 c -4.046618,2.794407 -8.573417,11.117453 -9.209959,11.486511 -0.803854,0.466064 -0.306212,-5.988681 -0.544207,-9.870339 z"
         id="path763"
         sodipodi:nodetypes="sssscssscssscssssssssscccssscsssscsscscsscssssssssssssscsssssssssscsssscscscssscsssscsccsscccssssssscssscssscssssssssscccsscssssscssss" />
      <path
         style="fill:#080808"
         d="M 96.715876,220.90188 C 82.540743,218.84701 73.488507,211.13894 68.437337,196.8224 67.389474,193.85244 67.04424,184.62696 66.955535,157.22515 66.891927,137.57632 66.617281,120.12519 66.34521,118.44487 l -0.494674,-3.05512 -22.999298,2.88371 C 30.201624,119.85949 19.210254,120.91092 18.42597,120.60997 17.638243,120.30769 17,118.74531 17,117.11928 c 0,-3.44189 -2.331295,-2.88639 27.964414,-6.66343 11.255428,-1.40324 20.559204,-2.64613 20.675056,-2.76199 C 66.163158,107.17018 68,71.988857 68,62.482279 V 51.887258 L 71.25,48.87745 C 75.447114,44.990525 92.546131,33 93.891944,33 95.619549,33 112.44616,18.515631 117.01997,13.091369 119.38118,10.291116 121.6419,8 122.04379,8 c 1.17532,0 41.28873,27.604959 43.22921,29.749164 1.50364,1.661504 1.83947,4.603202 2.26622,19.850698 0.67955,24.279909 2.25332,37.583291 4.37459,36.979275 3.13079,-0.891464 30.76566,-3.564635 39.48305,-3.819265 8.89029,-0.25968 10.47226,0.314361 8.67939,3.149465 -0.86667,1.370485 -6.78563,2.411376 -39.07625,6.871833 l -12.5,1.72668 -0.28174,11.74608 c -0.25803,10.75796 0.38304,13.81823 2.25886,10.7831 1.03844,-1.68024 7.41578,-2.92813 10.47716,-2.05014 3.41991,0.98081 8.21227,5.87265 11.27901,11.51311 2.97134,5.46499 3.09587,18.30523 0.26671,27.5 -1.60888,5.22885 -3.08452,7.60017 -7.54567,12.12567 -8.31367,8.4336 -14.40225,9.06424 -17.59722,1.82267 C 166.3431,173.65004 164.92566,172 163.96536,172 c -1.44828,0 -1.73007,-2.21769 -2.30755,-18.16031 -0.3618,-9.98817 -0.65781,-25.28817 -0.65781,-34 0,-14.4122 -0.15771,-15.84124 -1.75,-15.85688 -5.79575,-0.0569 -84.882198,10.49651 -85.510992,11.41074 -0.418546,0.60855 -0.643546,2.65859 -0.5,4.55565 L 73.5,123.3984 79,123.16776 c 7.004324,-0.29372 11.368126,2.22544 14.03618,8.1029 2.415942,5.32208 2.415942,8.1366 0,13.45868 -2.666789,5.87467 -7.031434,8.39555 -14.03618,8.10686 l -5.5,-0.22667 -0.245355,12.94523 -0.245354,12.94524 1.910153,-4 c 1.050584,-2.2 4.310993,-7.68413 7.245354,-12.18695 4.520038,-6.93607 5.602584,-8.0362 7.085202,-7.20031 0.9625,0.54265 1.75,1.39075 1.75,1.88465 0,0.49391 -2.7,5.1837 -6,10.42176 -3.3,5.23805 -6,9.98659 -6,10.55229 0,0.63618 3.814902,1.02856 10,1.02856 5.5,0 9.993109,0.3375 9.984687,0.75 -0.05624,2.75452 -2.275772,3.54392 -11.290032,4.01542 -9.341581,0.48863 -9.573989,0.44615 -12.260794,-2.24065 l -2.738719,-2.73872 0.564795,7.46788 c 0.732015,9.67893 3.786099,16.73638 9.369364,21.65097 7.312316,6.43656 8.685457,6.5951 57.120539,6.5951 38.92259,0 43.24985,0.15958 43.25,1.59501 4.5e-4,4.43919 -1.41193,4.61212 -41.99984,5.14238 -21.175,0.27664 -41.102856,0.12566 -44.284124,-0.33551 z M 178.94289,170.3946 c 5.77907,-4.86277 8.38199,-10.75338 8.87133,-20.07656 0.50494,-9.6205 -1.34589,-16.12593 -5.33077,-18.73692 -3.5486,-2.32514 -5.99241,-1.95115 -9.94865,1.52247 L 169,136.20718 v 11.23986 c 0,10.73653 0.49549,13.42479 4.47944,24.30296 0.68387,1.86731 2.0305,1.53324 5.46345,-1.3554 z M 85.991759,146.06582 c 5.158243,-3.66278 5.022003,-12.47318 -0.25379,-16.41213 -4.980188,-3.71825 -11.875038,-2.00313 -14.935419,3.71525 -0.96304,1.79946 -0.899166,1.81214 1.315131,0.26119 C 77.109981,130.13338 84,133.37456 84,139.21977 c 0,3.44485 -3.92472,7.73748 -7.204545,7.87991 -2.248751,0.0976 -2.24459,0.11575 0.204545,0.88955 3.063509,0.96791 5.720299,0.3996 8.991759,-1.92341 z m -5.835597,-40.05217 c 1.247849,-0.0103 1.812846,-1.30799 2.291689,-5.26365 0.34954,-2.8875 0.865972,-6.846649 1.147627,-8.798108 0.473155,-3.278284 0.127771,-3.872178 -4.54169,-7.809526 L 74,79.880949 v 13.676157 13.676154 l 2.25,-0.60297 c 1.2375,-0.33164 2.995273,-0.60913 3.906162,-0.61664 z M 104,103.02819 l 4.5,-0.70662 -4.86187,-2.1732 -4.861878,-2.173205 -3.638126,2.191875 c -8.148048,4.90899 -8.197042,5.03669 -1.638126,4.26955 3.3,-0.38598 8.025,-1.01975 10.5,-1.4084 z m 57.85088,-7.545732 c 0.19719,-0.197192 0.0266,-12.341387 -0.37904,-26.987099 L 160.73428,41.86679 155.61714,38.125161 C 152.80271,36.067265 144.425,30.250863 137,25.199824 l -13.5,-9.183707 -7.5,7.061976 c -8.63528,8.130953 -23.296931,19.575964 -33.652983,26.269808 l -7.152982,4.623476 -0.39311,9.764312 c -0.216211,5.370371 -0.301631,9.910048 -0.189824,10.088171 0.111807,0.178123 3.2421,-0.28082 6.956206,-1.019875 l 6.75292,-1.343735 3.399615,-7.980125 c 1.869789,-4.389069 3.736031,-8.320918 4.147205,-8.737443 0.411174,-0.416525 2.879301,3.070975 5.484723,7.75 L 106.08891,71 l 5.70555,0.05763 c 3.13805,0.0317 7.44703,0.369196 9.57552,0.75 l 3.86998,0.69237 -6.5794,7.105036 c -6.29899,6.802229 -6.54124,7.249724 -5.684,10.5 0.49248,1.86723 1.3712,5.231841 1.95272,7.476913 l 1.05731,4.081951 22.75288,-2.911457 c 12.51408,-1.6013 22.91421,-3.072793 23.11141,-3.269985 z M 94,95.110247 c 4.466724,-2.830895 4.525881,-2.839098 8,-1.109426 1.925,0.958407 4.45633,2.037793 5.62517,2.398637 2.09904,0.648012 2.10872,0.585281 0.78688,-5.101069 l -1.33829,-5.757149 3.94193,-4.674893 3.94192,-4.674893 -6.03773,-0.700753 c -5.96197,-0.691959 -6.07151,-0.762005 -8.72881,-5.58132 -1.480088,-2.684311 -2.976306,-4.887049 -3.324927,-4.894973 -0.348621,-0.0079 -1.617096,2.408139 -2.818834,5.369029 l -2.184977,5.383437 -6.140862,1.208141 -6.140863,1.208141 4.810986,4.173652 4.810985,4.173653 -0.716512,5.734769 c -0.394082,3.154124 -0.327162,5.726272 0.148711,5.715886 C 89.11065,97.97073 91.525,96.678839 94,95.110247 Z m 17.18467,57.817243 c -9.20509,-1.94804 -14.246535,-14.39337 -9.19007,-22.68663 7.76048,-12.72821 26.98884,-7.31041 27.00166,7.60801 0.009,10.36737 -8.00717,17.15349 -17.81159,15.07862 z m 7.94377,-5.49391 c 3.5932,-1.85811 6.30136,-7.56657 5.373,-11.32561 -1.94325,-7.86842 -11.47617,-10.87511 -16.81435,-5.30325 -3.07766,3.21238 -3.72784,6.23603 -0.68709,3.19528 1.1,-1.1 3.14545,-2 4.54545,-2 3.21953,0 7.45455,4.1584 7.45455,7.31969 0,3.56591 -3.6451,7.67745 -6.82258,7.69562 -2.09599,0.012 -2.35168,0.22582 -1.17742,0.98469 2.16123,1.3967 4.6703,1.22186 8.12844,-0.56642 z"
         id="path761" />
    </g>
  </g>
</svg>
