<?xml version="1.0" encoding="UTF-8" standalone="no"?>
<!-- Created with Inkscape (http://www.inkscape.org/) -->

<svg
   version="1.1"
   id="svg926"
   width="262.31656"
   height="251.60861"
   viewBox="0 0 262.31656 251.60861"
   sodipodi:docname="ソ.png"
   xmlns:inkscape="http://www.inkscape.org/namespaces/inkscape"
   xmlns:sodipodi="http://sodipodi.sourceforge.net/DTD/sodipodi-0.dtd"
   xmlns="http://www.w3.org/2000/svg"
   xmlns:svg="http://www.w3.org/2000/svg">
  <defs
     id="defs930" />
  <sodipodi:namedview
     id="namedview928"
     pagecolor="#ffffff"
     bordercolor="#000000"
     borderopacity="0.25"
     inkscape:showpageshadow="2"
     inkscape:pageopacity="0.0"
     inkscape:pagecheckerboard="0"
     inkscape:deskcolor="#d1d1d1"
     showgrid="false" />
  <g
     inkscape:groupmode="layer"
     inkscape:label="Image"
     id="g932"
     transform="translate(-14.773295,-19.255194)">
    <g
       id="g936">
      <path
         style="fill:#adadad"
         d="M 165.11074,256.90161 C 160.35305,250.92621 160.12187,250 163.38813,250 c 1.31348,0 6.37598,-1.14604 11.25,-2.54675 34.81604,-10.00555 63.01393,-37.17367 73.64266,-70.95325 3.48742,-11.08352 2.37546,-8.71537 2.21031,-22.36807 -0.10159,-8.39785 2.96705,-27.27638 4.44119,-34.13193 1.12353,-5.225 2.41605,-11.3 2.87226,-13.5 l 0.82948,-4 2.13491,6.6997 c 3.8239,11.99998 5.34207,22.57766 5.33111,37.14383 -0.006,7.61395 1.35018,8.53874 0.82246,9.17479 -0.52773,0.63606 -3.92722,10.1045 -5.36375,13.92128 -3.82284,10.1571 -12.59595,26.48636 -19.24704,35.82425 -11.59887,16.28438 -35.3194,37.72806 -52.79261,47.72522 -4.27419,2.44544 -17.77362,9.48143 -16.76516,10.18094 0.91671,0.63586 15.37497,-2.41656 13.76065,-2.87372 -1.82793,0.29219 -6.69484,-0.51195 -10.2646,0.14574 -2.0625,0.36553 -4.48767,0.88012 -5.38926,1.14353 -1.09264,0.31922 -3.01002,-1.24267 -5.75,-4.68395 z M 176,238.74767 c 0.275,-0.27544 5,-3.53756 10.5,-7.24918 26.10809,-17.61875 42.23776,-35.03032 52.49544,-56.66751 4.53602,-9.56812 5.05174,-9.26013 1.58103,0.94418 -8.82784,25.95493 -28.0569,47.33638 -52.72321,58.62472 -7.13023,3.26309 -12.87365,5.36979 -11.85326,4.34779 z m -16.35261,-89.58946 -4.85262,-4.93527 3.77883,-5.06158 c 2.07835,-2.78387 4.11304,-4.85503 4.52152,-4.60257 0.40849,0.25246 2.42581,3.46869 4.48294,7.14718 4.27091,7.6371 5.10493,11.28697 2.58388,11.30768 -0.91407,0.008 -2.56194,0.25355 -3.66194,0.54675 -1.46205,0.3897 -3.30523,-0.79438 -6.85261,-4.40219 z m -14.78308,-15.93783 c -0.8403,1.07558 -5.88309,-4.14967 -4.96449,-7.60086 1.95322,-7.33827 -3.31559,-16.11952 -11.37766,-16.11952 -2.38215,0 -1.91431,2.32165 -1.28393,1.93205 0.84943,-0.52498 0.56067,-1.0298 -1.9966,-4.59041 -0.56338,-0.78442 -1.24164,-1.76268 -1.24164,-2.3995 0,-1.56487 11.7681,-8.745106 13.3426,-8.140912 0.6882,0.264085 4.80409,5.703522 9.14644,12.087652 5.3957,7.93277 9.53357,14.01118 10.10646,13.15814 0.50041,-0.7451 -0.77087,-3.02365 -1.12058,-1.50799 -0.32221,1.39647 4.38546,11.56777 0.50182,5.39979 -1.41077,-2.24059 3.05344,5.27813 0.75863,8.58953 -4.3473,6.27317 -17.62108,6.55202 -13.19127,0.8819 z m 126.87097,-11.41884 c -0.37559,-2.58415 -4.33945,-14.64557 -6.02959,-20.5523 l -2.65348,-5.450612 5.27838,0.785241 c 2.30295,0.342599 4.96394,0.803291 5.93502,0.889895 0.97109,0.0866 2.97526,-0.158349 2.81517,0.907663 -0.20915,1.392692 -1.68958,10.057703 -1.83749,9.681993 -0.37297,-0.94743 0.74101,-8.219583 0.70267,-5.87244 -0.0297,1.81996 -0.83564,8.03402 -1.79092,13.80902 -1.69488,10.24621 -1.75336,10.38644 -2.41975,5.80154 z"
         id="path940"
         sodipodi:nodetypes="ssssssscscsssssccssssssssscssscsssssssssssssssssscssssssss" />
      <path
         style="fill:#070707"
         d="M 122.5,269.41941 C 95.750653,264.73454 70.906123,251.91959 51.940158,233.02425 27.755477,208.92962 14.791426,178.40055 14.773318,145.5 14.762854,126.48972 18.360837,110.45622 26.498437,93.249957 32.641707,80.260536 39.071912,70.992187 49.5,60.096037 61.261148,47.806992 71.67194,40.158239 86.459575,32.942035 113.58257,19.706313 141.05934,16.102269 169.95311,21.990445 c 36.26507,7.390351 68.12504,30.245993 86.50018,62.053327 2.68684,4.650925 5.48798,9.171042 6.22475,10.044704 1.83676,2.178029 6.98723,17.682764 8.81756,26.543934 1.98185,9.59476 1.96716,32.42426 -0.0283,43.9866 -2.06255,11.951 -5.59093,23.22579 -10.28991,32.88099 -18.66294,38.34756 -53.89049,64.60351 -96.55837,71.96729 -10.90125,1.88137 -31.23546,1.85826 -42.11901,-0.0479 z m 46.48535,-7.46251 c 12.77642,-2.65745 17.69137,-4.32038 29.67936,-10.04173 11.87449,-5.66719 27.73758,-17.24453 35.85946,-26.17128 C 255.80662,202.35238 266.03238,176.37801 266.11511,145.5 266.20282,112.76506 254.73443,85.366726 231.13773,61.937994 216.26714,47.173258 202.44182,38.550651 183.5,32.22718 138.79123,17.301764 88.771205,29.09924 55.614538,62.389613 13.280918,104.89394 9.5412186,171.37805 46.849587,218.21226 c 20.077005,25.2032 50.650918,42.05652 83.056343,45.7833 10.54406,1.21262 27.76787,0.3141 39.07942,-2.03866 z m -37.9836,-11.08415 C 88.652551,245.97161 52.574625,216.76957 39.658186,176.93783 35.783146,164.98798 34.657449,155.58196 35.265826,140.23647 35.690528,129.52394 36.389111,124.51874 38.439186,117.5 52.245518,70.231939 94.243848,39 144,39 c 58.36489,0 105.88686,44.189884 108.70512,101.08307 0.35039,7.07344 0.096,14.85082 -0.65348,19.97635 -7.07836,48.40921 -47.37154,86.23206 -96.86404,90.92541 -11.92086,1.13045 -13.51328,1.12307 -24.18585,-0.11208 z m 40.39864,-10.27567 c 28.7259,-8.63509 50.39972,-26.03358 63.01919,-50.58815 14.3581,-27.93754 15.08793,-58.318 2.06158,-85.8169 C 230.55666,91.6853 225.00309,84.125847 214.26692,73.954311 201.25387,61.625648 187.26428,53.986907 168.18674,48.793142 c -11.37604,-3.097068 -36.1289,-3.100665 -48.49372,-0.007 -29.756094,7.444835 -54.177347,26.587172 -67.163278,52.645218 -2.485643,4.98778 -5.725507,13.11869 -7.1997,18.06869 -2.43086,8.16227 -2.681829,10.53584 -2.696246,25.5 -0.01343,13.94617 0.324802,17.73822 2.185309,24.5 8.452727,30.72037 30.847195,55.61466 60.835835,67.62676 13.61747,5.45454 22.66674,6.89372 40.84506,6.49593 13.82852,-0.30261 17.20794,-0.71324 24.90039,-3.02561 z M 126.30433,177.044 c -6.54868,-3.99299 -8.49461,-9.95377 -5.36198,-16.42491 2.64241,-5.45849 7.39416,-8.06669 13.45226,-7.38386 3.89228,0.43872 4.28743,0.23003 7.41152,-3.91428 l 3.30003,-4.3777 -4.57469,-5.35474 -4.5747,-5.35473 -6.35452,0.51008 c -6.13018,0.49207 -6.48465,0.39083 -10.04009,-2.86749 -4.65278,-4.26395 -5.85151,-10.32672 -3.0649,-15.50114 2.38097,-4.4212 9.26139,-7.83069 14.00618,-6.94056 7.46535,1.40051 12.9935,9.83245 10.72074,16.35208 -0.96861,2.77855 -0.72293,3.28215 3.75095,7.68876 l 4.78745,4.71545 3.65319,-4.78444 c 2.00925,-2.63144 3.41075,-5.41621 3.11444,-6.18838 -1.44452,-3.76437 -1.52338,-6.07949 -0.3304,-9.69961 C 157.9712,112.14326 162.75433,109 169.16257,109 c 12.89367,0 17.64476,16.95688 6.58207,23.49178 -2.07454,1.22546 -4.86474,1.80579 -8.25342,1.71664 -5.04162,-0.13265 -5.17688,-0.0576 -8.9079,4.93991 l -3.78855,5.07461 4.75128,4.82381 c 4.6116,4.68201 4.88862,4.80754 9.42385,4.27041 5.7365,-0.6794 10.27588,1.39792 13.07058,5.98139 4.10769,6.73682 1.06303,15.74681 -6.26343,18.53529 -9.91039,3.77192 -20.53662,-5.21179 -17.73195,-14.99109 0.96618,-3.36888 -0.35739,-6.01777 -5.32036,-10.64778 l -2.47079,-2.30502 -3.1476,4.28008 c -1.96161,2.66737 -2.88735,4.85466 -2.45688,5.80502 0.3799,0.83872 0.85845,3.32495 1.06346,5.52495 0.93018,9.98214 -10.66209,16.87708 -19.4086,11.544 z m 12.22058,-5.31177 c 2.07548,-1.78525 2.56609,-2.99421 2.30577,-5.68189 l -0.33068,-3.41411 -2.886,4.18188 c -1.5873,2.30004 -3.1623,4.17188 -3.5,4.15965 -0.3377,-0.0122 -1.72748,-0.87783 -3.08841,-1.92357 l -2.4744,-1.90133 3.28654,-4.57643 L 135.12427,158 h -3.10759 C 128.38253,158 124,161.82903 124,165.00421 c 0,2.63517 2.54684,7.6497 4.22896,8.3265 3.15396,1.26898 7.8011,0.5475 10.29595,-1.59848 z m 37.97917,0.0178 c 5.30743,-4.56555 2.06601,-13.75 -4.85271,-13.75 h -3 l 2.02555,2.25 c 3.34948,3.72064 3.62004,4.76438 1.76605,6.81301 -2.3158,2.55894 -3.29895,2.44915 -6.62782,-0.74011 -3.14721,-3.01521 -4.35874,-2.62488 -3.42314,1.10285 1.57876,6.29029 9.13495,8.60567 14.11207,4.32425 z m -46.1616,-41.42581 c 0.3717,-0.3717 -0.30674,-1.7217 -1.50765,-3 L 126.65137,125 l 2.3539,-2.50561 2.35389,-2.5056 2.13487,2.0056 c 2.70903,2.545 3.50597,2.52879 3.50597,-0.0713 0,-1.14231 -1.37088,-3.4478 -3.04639,-5.12332 -2.6338,-2.63379 -3.548,-2.96609 -6.75,-2.45349 -8.27418,1.32459 -10.04618,11.48293 -2.70361,15.499 2.29229,1.25378 4.85735,1.46405 5.84248,0.47892 z m 42.586,-1.7872 C 175.97285,126.96268 177,125.18741 177,121.5 c 0,-3.71765 -1.03238,-5.46538 -4.19417,-7.10041 -5.63197,-2.91241 -12.821,1.29337 -12.79474,7.48527 l 0.0111,2.61514 2.56139,-3.25 c 2.97659,-3.77683 3.13115,-3.80907 6.36073,-1.3269 l 2.44431,1.87863 -2.69431,3.53241 c -1.48186,1.94283 -2.6943,3.78744 -2.6943,4.09914 0,1.08828 4.12187,0.55506 6.92848,-0.89629 z"
         id="path938" />
    </g>
  </g>
</svg>
