<?xml version="1.0" encoding="UTF-8" standalone="no"?>
<!-- Created with Inkscape (http://www.inkscape.org/) -->

<svg
   version="1.1"
   id="svg16"
   width="237.19734"
   height="196.61792"
   viewBox="0 0 237.19734 196.61792"
   sodipodi:docname="ãƒ.png"
   xmlns:inkscape="http://www.inkscape.org/namespaces/inkscape"
   xmlns:sodipodi="http://sodipodi.sourceforge.net/DTD/sodipodi-0.dtd"
   xmlns="http://www.w3.org/2000/svg"
   xmlns:svg="http://www.w3.org/2000/svg">
  <defs
     id="defs20" />
  <sodipodi:namedview
     id="namedview18"
     pagecolor="#ffffff"
     bordercolor="#000000"
     borderopacity="0.25"
     inkscape:showpageshadow="2"
     inkscape:pageopacity="0.0"
     inkscape:pagecheckerboard="0"
     inkscape:deskcolor="#d1d1d1"
     showgrid="false" />
  <g
     inkscape:groupmode="layer"
     inkscape:label="Image"
     id="g22"
     transform="translate(-13.557668,-8.2222672)">
    <g
       id="g130">
      <path
         style="fill:#afafaf"
         d="m 87.70921,193.49386 -2.790789,-3.36174 4.790789,-2.69898 C 119.70564,170.53412 134.03589,154.55474 139.86983,131.5 141.53789,124.9081 144,106.96112 144,101.39405 c 0,-1.17114 -7.39544,-1.403265 -46.25,-1.45168 -25.4375,-0.0317 -48.102187,0.92802 -48.067061,-1.269908 0.06536,-4.08968 -4.772015,-0.262809 114.567061,-1.275569 l 78.75,-0.668306 -0.14983,4.385703 c -0.10154,2.97206 3.76623,-0.8443 1.88441,-0.95128 L 241.86716,100 H 201.93358 162 v 7.12166 c 0,16.00596 -4.51331,36.02827 -11.03226,48.94224 -1.67016,3.30857 -4.80568,8.23407 -4.53592,8.67054 0.26975,0.43648 1.13277,-1.06777 -0.51409,-1.06777 -1.64687,0 -4.11452,1.24905 -5.32091,2.66643 -1.90822,2.24198 -3.64683,2.20556 -3.09682,5.76944 0.70604,4.57485 -0.3847,4.73534 -6.46205,10.24287 -3.55413,3.22089 -9.23627,7.83582 -12.62699,10.25538 L 112.24602,197 101.37301,196.9278 90.5,196.85561 Z M 50,87.659127 c 0,-2.55887 0.570883,-3.894287 1.989302,-4.653401 1.303174,-0.697438 17.427646,-1.140709 46.75,-1.285184 L 143.5,81.5 v -19 -19 l 9.5,-4.097958 9.5,-4.097959 0.2681,23.347959 L 163.0362,82 H 203.5181 244 v 3.376596 3.376596 l -38.25,0.618031 c -21.0375,0.339918 -64.6875,0.901224 -97,1.247348 L 50,91.247887 Z M 80.873737,42.25 c -0.06806,-0.1375 -0.19778,-0.5875 -0.288277,-1 C 80.081013,38.950642 75.6916,28.333328 74.802597,27.262144 74.22648,26.567965 73.922711,25.990052 74.127555,25.977894 74.3324,25.965736 79,25.738079 84.5,25.47199 c 31.95367,-1.545916 60.96499,-4.287226 85.5,-8.078988 24.58546,-3.799558 22.78537,-3.577851 20.5,-2.524875 -1.1,0.50682 -14.15,6.183751 -29,12.615402 -19.29187,8.355461 -28.42743,11.809797 -32,12.099834 -2.75,0.223258 -7.025,0.692161 -9.5,1.042006 C 115.39042,41.276941 81.09691,42.700903 80.873737,42.25 Z M 168,33.091304 c 0.825,-0.466334 10.56968,-4.761349 21.65484,-9.544479 22.62776,-9.763638 20.54796,-9.58402 30.13325,-2.602405 4.65573,3.391089 4.72751,5.05558 0.21799,5.05558 -1.58173,0 -3.91768,0.391775 -5.19098,0.870612 -1.27331,0.478836 -5.07558,1.161204 -8.44951,1.516373 -3.37392,0.355168 -12.94466,1.763393 -21.26832,3.129388 C 168.69422,34.208279 165.50405,34.502144 168,33.091304 Z"
         id="path134"
         sodipodi:nodetypes="ccsssssscsscccssssssssccccssscccccccccccsscssssssssssssssssssss" />
      <path
         style="fill:#090909"
         d="M 98.533101,203.83518 C 42.440116,203.18912 25.292396,202.70631 24.3822,201.74739 23.642408,200.96799 21.465214,181.36603 18.579071,149.5 16.038551,121.45 13.801503,97.462097 13.607852,96.193548 13.414202,94.925 13.798332,93.344525 14.461475,92.681382 15.124618,92.018239 34.979572,83.177149 58.583595,73.034514 82.187618,62.89188 101.74727,54.241789 102.04949,53.81209 c 0.30222,-0.429699 11.55222,-5.556669 25,-11.393266 C 140.49727,36.582227 159.825,28.195938 170,23.782626 188.84454,15.608982 205.32213,9.2718622 210.22227,8.3135377 c 2.18778,-0.4278664 4.16415,0.5527894 10.06606,4.9947003 14.98081,11.274884 22.35368,21.624751 27.22559,38.218648 4.69144,15.979222 4.51922,23.748021 -2.02771,91.473114 -3.1635,32.725 -6.19715,60.0625 -6.74146,60.75 -1.13418,1.43257 -22.12094,1.44532 -140.211649,0.0852 z M 238.32093,148.25 c 2.61212,-27.3625 4.7335,-50.146678 4.71419,-50.631507 -0.0435,-1.092836 -222.29079,0.621556 -222.578315,1.716947 -0.02376,0.09051 0.426243,4.88956 1,10.66456 0.921524,9.27535 1.254329,10.46412 2.853436,10.19233 3.173035,-0.53929 8.541908,1.84325 11.157033,4.95115 C 37.441973,127.49027 38,129.26021 38,133.17673 c 0,4.38121 -0.435375,5.45864 -3.40625,8.42952 -1.873438,1.87344 -4.798438,3.68469 -6.5,4.025 -1.701563,0.34031 -3.097915,1.125 -3.103006,1.74375 -0.02536,3.08241 4.378769,48.19358 4.74718,48.625 0.458805,0.53727 77.755456,1.41988 155.797886,1.77898 L 233.57162,198 Z M 56.499613,189.66175 c -3.946221,-1.78253 -5.488461,-3.76163 -6.095816,-7.82252 -1.114135,-7.44931 7.431032,-13.80714 14.578309,-10.84664 C 69.326766,172.79221 72,176.5843 72,180.94777 c 0,7.02157 -8.574989,11.84224 -15.500387,8.71398 z M 67.75,185.34505 C 68.9875,183.99393 70,181.76811 70,180.39878 70,176.70888 65.802888,173 61.627242,173 c -4.886561,0 -6.481353,0.8172 -8.243011,4.22387 -2.053279,3.97061 -0.290452,8.4828 4.036888,10.33296 3.913867,1.67338 7.467369,0.91245 10.328881,-2.21178 z m 137.56291,-0.47226 c -9.82922,-2.76755 -9.66138,-17.02589 0.23258,-19.75774 8.91666,-2.46201 16.77968,4.67948 14.08527,12.79275 -1.90565,5.73818 -8.05345,8.72881 -14.31785,6.96499 z m 10.23254,-4.32734 C 220.92,175.17091 216.97165,167 209,167 c -3.0101,0 -4.73939,0.64848 -6.54545,2.45455 C 197.08,174.82909 201.02835,183 209,183 c 3.0101,0 4.73939,-0.64848 6.54545,-2.45455 z m -76.14784,-2.05693 c -5.38158,-5.38158 -1.19804,-14.82185 6.56843,-14.82185 8.80836,0 13.00884,8.51229 7.11088,14.41025 -3.91816,3.91816 -9.99005,4.10086 -13.67931,0.4116 z m 12.14784,-1.94307 c 2.99471,-2.9947 3.06724,-4.49683 0.38197,-7.91059 -2.62137,-3.33253 -7.33801,-3.53721 -10.61297,-0.46055 -2.90915,2.73301 -2.95808,6.14815 -0.12589,8.78673 2.98133,2.77754 7.33861,2.60269 10.35689,-0.41559 z M 87.740524,142.57069 C 80.887406,140.12523 78,135.99169 78,128.62639 c 0,-3.40189 0.647313,-5.24223 2.703309,-7.68564 5.043886,-5.99432 12.397502,-7.43956 20.089841,-3.94836 5.28198,2.39725 8.79903,9.03748 7.74961,14.63137 -0.87228,4.64967 -5.6195,9.78305 -10.360762,11.20357 -4.827147,1.44624 -5.731628,1.42401 -10.441474,-0.25664 z m 13.069656,-3.59632 c 6.95723,-4.24171 7.47944,-13.02855 1.09363,-18.40185 -7.82563,-6.58484 -20.025901,-2.75729 -21.571573,6.76757 -1.710766,10.54221 10.702114,17.59443 20.477943,11.63428 z m 90.11922,-9.89112 c -2.66573,-2.66573 -3.06584,-3.66835 -2.54338,-6.37331 1.27039,-6.57718 8.92431,-8.92756 14.22488,-4.3682 5.38689,4.6336 2.65644,12.09151 -4.87429,13.31358 -3.15778,0.51243 -4.06579,0.16935 -6.80721,-2.57207 z m 10.8206,-1.32808 c 2.18239,-1.74601 1.49316,-6.54974 -1.19218,-8.30924 -3.25128,-2.13032 -6.42643,-1.5251 -8.80951,1.67919 -1.60936,2.16395 -1.74726,3.00833 -0.78495,4.80641 2.03155,3.79599 7.22406,4.67386 10.78664,1.82364 z M 29.988956,142.50571 C 34.031109,140.41543 36,137.2038 36,132.70057 36,127.40269 31.680896,123 26.483599,123 h -3.670248 l 0.713225,9.75 c 0.392274,5.3625 0.910828,10.0875 1.152342,10.5 0.655377,1.11937 2.096832,0.91732 5.310038,-0.74429 z m 178.181754,-53.146648 35.67072,-0.631966 0.32928,-6.613548 C 245.45788,56.261375 237.09443,34.005933 221.7605,22.479214 209.74451,13.446629 219.78999,10.646937 137.69896,45.907304 50.871042,83.202297 38.099,88.714969 35.5,90.018446 c -2.048409,1.027339 99.31324,0.640266 172.67071,-0.659384 z M 113,79.314567 C 103.73797,75.800378 105.77228,64 115.64014,64 120.541,64 124,67.161205 124,71.640137 c 0,4.848369 -6.49866,9.382323 -11,7.67443 z m 7.17126,-3.969555 C 123.98106,71.89719 121.1429,66 115.67375,66 c -5.70657,0 -8.57497,5.241697 -5.01876,9.171259 2.06213,2.278635 7.08898,2.370418 9.51627,0.173753 z M 173.4,76.6 C 170.6127,73.812698 170,72.443137 170,69 c 0,-3.443137 0.6127,-4.812698 3.4,-7.6 2.99487,-2.994872 4.01961,-3.4 8.6,-3.4 4.58039,0 5.60513,0.405128 8.6,3.4 2.7873,2.787302 3.4,4.156863 3.4,7.6 0,3.443137 -0.6127,4.812698 -3.4,7.6 -2.99487,2.994872 -4.01961,3.4 -8.6,3.4 -4.58039,0 -5.60513,-0.405128 -8.6,-3.4 z m 15.67692,-1.523077 C 191.07192,73.081926 192,71.152497 192,69 c 0,-4.798894 -4.6679,-9 -10,-9 -5.3321,0 -10,4.201106 -10,9 0,4.798894 4.6679,9 10,9 3.25776,0 4.78443,-0.630579 7.07692,-2.923077 z M 206.5,42.886442 c -5.07052,-2.87775 -6.12502,-9.011184 -2.18555,-12.712128 C 209.25483,25.533068 219,28.999968 219,35.398782 c 0,5.463118 -7.81689,10.145535 -12.5,7.48766 z m 9.20625,-4.560879 c 3.21529,-4.90715 -2.54997,-10.084693 -8.30806,-7.461131 -4.65015,2.118753 -4.43194,8.288101 0.34978,9.888801 3.65484,1.223473 6.04337,0.494851 7.95828,-2.42767 z"
         id="path132" />
    </g>
  </g>
</svg>
