<?xml version="1.0" encoding="UTF-8" standalone="no"?>
<!-- Created with Inkscape (http://www.inkscape.org/) -->

<svg
   version="1.1"
   id="svg360"
   width="300.63974"
   height="274.89447"
   viewBox="0 0 300.63974 274.89447"
   sodipodi:docname="ツ.png"
   xmlns:inkscape="http://www.inkscape.org/namespaces/inkscape"
   xmlns:sodipodi="http://sodipodi.sourceforge.net/DTD/sodipodi-0.dtd"
   xmlns="http://www.w3.org/2000/svg"
   xmlns:svg="http://www.w3.org/2000/svg">
  <defs
     id="defs364" />
  <sodipodi:namedview
     id="namedview362"
     pagecolor="#ffffff"
     bordercolor="#000000"
     borderopacity="0.25"
     inkscape:showpageshadow="2"
     inkscape:pageopacity="0.0"
     inkscape:pagecheckerboard="0"
     inkscape:deskcolor="#d1d1d1"
     showgrid="false" />
  <g
     inkscape:groupmode="layer"
     inkscape:label="Image"
     id="g366"
     transform="translate(-16.019775,-19.718491)">
    <g
       id="g370">
      <path
         style="fill:#afafaf"
         d="m 54.24307,285.25044 c 0.141311,-0.43513 -0.579744,-2.80699 -1.602345,-5.27079 -4.063942,-9.79147 -4.322326,-10.87352 -2.447245,-10.24849 0.381415,0.12714 5.875935,-1.55583 12.210047,-3.73992 30.973628,-10.68016 52.726863,-24.77097 66.608093,-43.14585 7.54989,-9.99394 17.71916,-30.34165 22.45898,-44.93821 3.42875,-10.559 10.84951,-55.77575 11.10002,-57.79291 0.19403,-1.56236 -0.19255,-1.92488 0.93587,-1.58994 2.43423,0.72253 4.08103,2.23923 2.92007,16.04135 -2.70645,32.17573 -9.37468,55.17952 -23.03139,81.46404 -10.34603,19.9126 -26.16195,38.11267 -43.35055,49.88537 -5.508637,2.89772 -24.503602,13.5074 -30.411621,13.62178 2.630739,-0.75827 8.746235,-3.09341 8.266715,-2.6574 -1.255843,1.14189 -23.961934,9.31102 -23.656644,8.37097 z M 36.421335,170.12038 C 25.465048,149.72778 24.763371,148.8491 20.75,150.4959 c -1.251401,0.51349 -0.172493,1.58988 -0.873607,-0.29588 -0.317527,-0.85404 -1.546944,-3.59604 -2.366505,-5.1809 l -1.490113,-2.88156 5.490113,-2.51346 c -0.111337,0.051 5.163848,-2.98913 5.665391,-3.24526 0.75954,-0.38789 0.43871,-0.47378 1.318977,-0.74267 0.841872,-0.25716 0.758451,0.63699 1.031391,1.32233 0.293114,0.736 1.125643,2.84051 2.644135,5.64522 5.054087,9.33508 11.821191,23.17064 17.39854,32.3326 2.865498,4.70718 4.376469,7.26042 3.189153,8.68021 -1.121831,1.34148 -2.511478,2.69762 -5.068364,4.85397 -1.578268,1.33103 -1.066029,0.63808 -11.267776,-18.35012 z m 53,-14.00701 c -7.016363,-13.0549 -11.599837,-20.54518 -12.5,-20.42739 -0.781734,0.10229 -0.977532,3.14198 -2.077532,3.47002 -1.586894,0.47325 -3.799832,-2.93949 -5.551609,-6.19823 l -2.207806,-4.10705 5.707806,-2.59 c 3.139293,-1.4245 5.856641,-2.84639 6.442493,-3.26638 0.60857,-0.43628 0.652942,-0.18821 0.875,0.19048 0.231227,0.39433 -0.0076,-0.0372 0.298516,0.56518 0.190985,0.37583 1.325615,2.5662 2.752453,4.786 3.685891,5.73432 15.518864,27.80563 18.879094,35.214 1.55915,3.4375 3.86342,6.07164 4.11403,6.58051 0.73249,1.48729 0.51698,0.90098 0.1913,1.7497 -0.32569,0.84872 -5.60116,4.7142 -5.86594,4.44943 -0.26477,-0.26478 3.34569,-3.37046 2.16591,-2.10455 L 100.5,176.72675 Z M 170.52963,157.5 c 0.24637,-2.2 0.74174,-11.33618 1.10082,-20.30263 0.57786,-14.42921 -1.55848,-16.64115 -0.13497,-16.06652 0.88458,0.35709 4.67952,1.19119 5.50452,1.34861 0.825,0.15742 1.33393,0.90144 1.13095,1.65338 -0.20298,0.75194 -1.44275,6.99216 -2.75505,13.86716 -2.84503,14.90481 -5.55093,25.79259 -4.84627,19.5 z"
         id="path374"
         sodipodi:nodetypes="ssssssssssccssssssccsssssssssssscsssssssssscssssssss" />
      <path
         style="fill:#040404"
         d="m 39.53781,293.39495 c -2.372558,-2.37256 -0.304865,-4.22431 5.590106,-5.00631 2.704336,-0.35874 5.158431,-1.04294 5.453546,-1.52045 C 50.876577,286.39069 51.941136,286 52.94715,286 c 3.839572,0 19.936323,-5.30504 28.762643,-9.47937 42.751807,-20.21907 71.088267,-61.90463 80.935487,-119.06358 1.2642,-7.33813 1.73184,-16.00655 1.77798,-32.95705 0.0557,-20.46642 -0.1916,-24.15663 -2.24504,-33.5 -5.84054,-26.575018 -15.51194,-46.222612 -29.77243,-60.483098 -6.29656,-6.296562 -6.33945,-6.377266 -4.55789,-8.57739 l 1.79847,-2.221021 10.53405,5.081038 C 170.09016,39.22632 195.83357,63.228928 219.76232,99 c 3.86313,5.775 16.31879,25.96001 27.67924,44.85557 31.18627,51.87137 46.05379,73.08759 65.44792,93.39538 4.27463,4.476 4.43858,4.84956 2.83306,6.45508 -1.60552,1.60552 -1.91323,1.50419 -5.31726,-1.75095 -9.83619,-9.40595 -29.33735,-34.54392 -42.70539,-55.04938 -4.15724,-6.37686 -16.56779,-26.65172 -27.579,-45.05524 C 219.14081,106.78552 209.70429,92.541596 197.39965,77.365055 189.95444,68.182133 171.73829,50 169.9834,50 169.4659,50 165.99543,47.791617 162.27124,45.092483 155.59281,40.252234 145,33.705386 145,34.418058 c 0,0.20139 2.3625,4.133904 5.25,8.738919 6.12445,9.76734 7.36543,12.571185 12.10197,27.343023 9.32196,29.072376 12.01221,63.51355 7.1472,91.5 -2.21556,12.74519 -10.28428,36.78333 -16.91944,50.40598 -20.86859,42.84533 -56.946921,72.09419 -98.81433,80.10922 -4.54597,0.87027 -9.245353,1.78578 -10.443072,2.03446 -1.206648,0.25053 -2.894166,-0.26436 -3.784518,-1.15471 z M 52.07258,218.36514 C 50.932661,216.91597 50,214.98097 50,214.06514 c 0,-5.43711 9.14616,-5.39759 12.06276,0.0521 0.912038,1.70416 0.707891,2.49796 -1.151396,4.47708 -2.949102,3.13917 -6.256682,3.0534 -8.838784,-0.22921 z m 53,-14 c -2.48224,-3.15566 -2.59607,-4.69879 -0.50115,-6.79371 2.30068,-2.30068 6.17111,-1.9198 8.97402,0.88312 2.97557,2.97556 3.04368,3.95632 0.45455,6.54545 -2.79084,2.79084 -6.43671,2.53157 -8.92742,-0.63486 z M 45.01011,199.0142 c -1.169343,-1.64219 -5.737559,-9.85469 -10.151592,-18.25 -4.414032,-8.39531 -9.781266,-18.45751 -11.927185,-22.36044 l -3.901672,-7.09624 2.72183,-1.24015 c 3.399504,-1.54892 2.434182,-2.9396 17.35719,25.00533 12.637005,23.66413 13.421143,25.51001 11.199023,26.36272 -2.480827,0.95198 -3.0958,0.67091 -5.297594,-2.42122 z m 50.617805,-17.38715 c -2.501202,-3.50512 -6.744887,-11.04262 -9.430411,-16.75 -2.685525,-5.70738 -6.985794,-14.15734 -9.556154,-18.7777 -2.57036,-4.62036 -4.553675,-8.4969 -4.407366,-8.61455 1.860561,-1.49601 5.159982,-2.49083 5.878398,-1.77242 1.454417,1.45442 25.008408,45.53776 25.895338,48.46537 0.60481,1.99639 0.43177,2.82336 -0.68003,3.25 -2.63447,1.01094 -3.07699,0.67756 -7.699775,-5.8007 z"
         id="path372" />
    </g>
  </g>
</svg>
