<?xml version="1.0" encoding="UTF-8" standalone="no"?>
<!-- Created with Inkscape (http://www.inkscape.org/) -->

<svg
   version="1.1"
   id="svg821"
   width="257.93814"
   height="296.99164"
   viewBox="0 0 257.93814 296.99164"
   sodipodi:docname="ト.png"
   xmlns:inkscape="http://www.inkscape.org/namespaces/inkscape"
   xmlns:sodipodi="http://sodipodi.sourceforge.net/DTD/sodipodi-0.dtd"
   xmlns="http://www.w3.org/2000/svg"
   xmlns:svg="http://www.w3.org/2000/svg">
  <defs
     id="defs825" />
  <sodipodi:namedview
     id="namedview823"
     pagecolor="#ffffff"
     bordercolor="#000000"
     borderopacity="0.25"
     inkscape:showpageshadow="2"
     inkscape:pageopacity="0.0"
     inkscape:pagecheckerboard="0"
     inkscape:deskcolor="#d1d1d1"
     showgrid="false" />
  <g
     inkscape:groupmode="layer"
     inkscape:label="Image"
     id="g827"
     transform="translate(-8.8796625,-12)">
    <g
       id="g831">
      <path
         style="fill:#aeaeae"
         d="m 129.5241,299.03899 c -0.32667,-0.52856 -0.57069,-23.91466 -0.54226,-51.96911 0.0535,-52.81793 1.26818,-64.28167 -1.10249,-63.37196 -0.7499,0.28777 1.5841,0.50188 1.5841,0.26994 0,-0.61134 2.55354,0.69853 2.89734,1.15123 0.28,0.36868 1.73071,110.77371 1.41167,113.29405 -0.1899,1.50018 -3.45606,1.90782 -4.24836,0.62585 z m 13.46733,-39.21378 c -1.62766,-22.40962 -5.37497,-76.11198 0.21466,-76.7963 8.15854,-0.99882 4.51411,4.97065 5.52336,41.47213 0.23034,38.35887 2.13347,65.98525 -0.1518,75.55764 -13.22537,1.82927 -3.59125,-12.76722 -5.58618,-40.23347 z M 169,189.86404 c -13.475,-7.61134 -24.95,-13.99399 -25.5,-14.18369 -0.61542,-0.21226 -1.19229,-10.50454 -1.5,-26.76262 -0.275,-14.52975 -0.45559,-26.53714 -0.40132,-26.68308 0.0543,-0.14594 0.0282,-2.05109 1.69176,-1.35159 2.52579,1.06201 5.82996,-0.0324 4.68309,1.03888 -1.06,0.9902 -1.28921,8.93784 -1.28921,22.01021 0,16.49437 0.47998,18.48907 2.67108,19.81626 2.84184,1.72132 44.60726,23.86776 50.6446,26.91849 2.475,1.25065 5.75677,2.52563 7.29282,2.8333 2.72328,0.54547 4.59929,2.94103 3.3116,4.22872 -0.35347,0.35346 -3.36983,0.96422 -6.70304,1.35724 -3.79505,0.44747 -6.87168,1.44385 -8.23087,2.66562 L 193.5,203.70282 Z m -40.20338,-39.40166 c -0.22586,-20.20681 -0.0963,-28.99966 -1.0697,-29.60038 -0.91801,-0.56654 -1.05768,1.1541 0.79176,0.31144 1.41648,-0.64539 3.00425,-1.17344 3.52837,-1.17344 0.58066,0 2.72149,14.11818 2.72149,30.75286 0,26.62939 -2.43142,27.5946 -5.25878,27.5946 -0.41436,0 -0.55,-13.28939 -0.71314,-27.88508 z"
         id="path835"
         sodipodi:nodetypes="sssssssssccsssssssssssssscsssssssss" />
      <path
         style="fill:#010101"
         d="m 133.26059,307.75 c -1.88655,-2.39582 -2.05186,-10.60824 -1.3335,-66.25 0.39764,-30.8 0.6032,-56.16101 0.45681,-56.3578 -0.39713,-0.53385 -18.38107,8.36079 -30.64811,15.1582 -8.590724,4.76029 -10.878435,6.49317 -11.329902,8.58213 -0.311129,1.43961 -1.264549,4.97429 -2.118709,7.85485 -1.093368,3.68726 -1.244191,5.61108 -0.509585,6.5 0.573889,0.69444 1.344357,2.87322 1.712152,4.84173 0.554991,2.97043 0.22451,4.10703 -1.94324,6.68325 -1.436577,1.70728 -4.21578,3.63345 -6.176007,4.28038 -2.656661,0.87678 -3.946656,2.10309 -5.066859,4.81675 -3.209459,7.77481 -7.43686,10.30179 -15.179629,9.07381 -4.640323,-0.73593 -6.173412,-0.51698 -11.203272,1.60006 -7.011941,2.95129 -9.47985,2.36018 -14.968608,-3.58521 C 32.159325,247.923 30.554602,247 28.087869,247 24.479893,247 21.577777,245.73174 18.25,242.70072 16.458397,241.06889 16,239.57345 16,235.36048 16,230.98444 15.508627,229.50162 13.158222,226.7848 7.3925451,220.12028 7.4339205,217.65397 13.404986,212.07569 15.471402,210.1452 16,208.71371 16,205.04819 16,197.71271 20.856956,193 28.41696,193 c 2.750146,0 4.620237,-0.98047 8.58304,-4.5 5.831744,-5.17941 8.744832,-5.64336 14.991269,-2.38753 3.324331,1.73274 5.024592,1.99105 9.458719,1.43705 7.807653,-0.97551 13.05997,2.10747 15.248493,8.95048 1.197534,3.74441 4.772616,5.71923 9.188015,5.07531 C 89.92949,200.9857 120.29592,184.43293 127.75,178.75548 l 5.25,-3.9987 V 147.37839 C 133,129.09352 132.65463,120 131.96016,120 c -0.57191,0 -2.80398,0.9 -4.96016,2 -5.10142,2.60255 -9.52723,2.52897 -15.03811,-0.25 -3.58367,-1.80714 -5.11284,-3.48094 -7.76911,-8.50391 -3.55017,-6.71333 -6.012484,-8.5643 -12.919489,-9.71181 C 85.991029,102.65671 81.183487,99.478347 78.696007,95.219193 76.959359,92.24564 76.895871,91.35166 78.004199,85.477747 79.586581,77.091442 78.6467,72.458221 74.412316,67.771265 71.798999,64.878635 71,63.110407 71,60.219625 c 0,-4.977843 2.025038,-7.652292 8.606655,-11.366727 6.32645,-3.570427 7.392783,-5.161969 7.394899,-11.037157 0.002,-5.55828 2.611102,-10.68309 6.896329,-13.545808 C 96.85765,22.292681 98.568959,22 107.17023,22 h 9.87446 l 4.22765,-3.858052 C 126.5865,13.292381 129.05422,12 133,12 c 3.98628,0 6.33366,1.263835 12.35815,6.653651 L 150.21631,23 h 8.93168 c 7.0171,0 9.78899,0.437364 12.93108,2.040337 4.87518,2.487134 7.91219,7.18304 7.91719,12.241782 0.005,5.504566 2.4412,10.501761 6.0882,12.49054 C 193.32991,53.723735 198,59.25041 198,63.873744 c 0,1.085185 -1.56368,4.021599 -3.47485,6.525365 -4.5705,5.987678 -4.99862,8.150872 -3.47275,17.546806 1.157,7.124528 1.11412,8.150995 -0.4395,10.522123 -2.42649,3.703292 -7.08334,6.271452 -12.79698,7.057282 -5.83934,0.80311 -10.21411,4.12114 -11.81022,8.95742 -2.61881,7.93505 -12.62294,12.37533 -20.4829,9.09123 -2.10643,-0.88012 -3.87329,-1.48182 -3.92634,-1.3371 -0.0531,0.14472 0.12854,12.15111 0.40354,26.68086 0.30771,16.25808 0.88458,26.55036 1.5,26.76262 0.55,0.1897 12.025,6.57235 25.5,14.18369 l 24.5,13.83878 2.17051,-1.95104 c 1.36383,-1.22594 4.44101,-2.21876 8.27975,-2.67139 4.6394,-0.54703 6.47759,-1.24621 7.6402,-2.90607 1.94103,-2.77122 6.79057,-5.3027 10.24385,-5.34734 1.46613,-0.0189 4.7726,0.91975 7.34771,2.08601 3.73676,1.69235 5.77053,1.99253 10.07353,1.48679 6.93101,-0.8146 11.19032,1.21771 13.40351,6.39541 0.87099,2.03765 1.91092,4.37247 2.31097,5.1885 0.40005,0.81603 2.92876,2.61603 5.61935,4 6.19474,3.18642 7.31484,5.95564 5.12141,12.66167 -1.46167,4.46879 -1.4603,5.28274 0.0164,9.76828 1.41038,4.2841 1.43311,5.21652 0.18256,7.48982 -0.7856,1.42809 -3.36073,3.57391 -5.72251,4.76846 -5.77297,2.91989 -7.18724,4.20887 -7.18724,6.55052 0,1.08766 -1.5937,3.57126 -3.54155,5.51911 -3.51466,3.51466 -3.59295,3.53725 -10.30798,2.97428 -5.39857,-0.45259 -7.63592,-0.17798 -11.06765,1.35845 -6.77357,3.03262 -9.48291,2.56701 -14.97937,-2.57428 -3.22416,-3.01583 -5.69424,-4.5 -7.48927,-4.5 -3.88429,0 -9.10211,-2.43082 -10.98349,-5.11687 C 193.67958,247.52523 193,244.57849 193,241.81229 c 0,-3.78136 -0.57837,-5.40852 -2.85335,-8.02749 -5.22539,-6.01551 -5.40376,-6.98782 -2.20668,-12.02909 1.57547,-2.48425 3.35848,-4.82213 3.96226,-5.19528 2.1347,-1.31932 1.05183,-4.26224 -2.65223,-7.2079 C 185.05384,206.01553 158.76989,191 157.12479,191 c -0.58077,0 -3.99643,-1.6163 -7.59037,-3.59177 L 143,183.81646 l -0.0194,4.84177 c -0.0107,2.66297 0.51416,30.13051 1.16626,61.03898 0.96507,45.74324 0.9459,56.48606 -0.10308,57.75 -1.56872,1.89019 -9.36094,2.109 -10.78322,0.30279 z"
         id="path833" />
    </g>
  </g>
</svg>
