<?xml version="1.0" encoding="UTF-8" standalone="no"?>
<!-- Created with Inkscape (http://www.inkscape.org/) -->

<svg
   version="1.1"
   id="svg59"
   width="206.52438"
   height="246.51117"
   viewBox="0 0 206.52438 246.51117"
   sodipodi:docname="ナ.png"
   xmlns:inkscape="http://www.inkscape.org/namespaces/inkscape"
   xmlns:sodipodi="http://sodipodi.sourceforge.net/DTD/sodipodi-0.dtd"
   xmlns="http://www.w3.org/2000/svg"
   xmlns:svg="http://www.w3.org/2000/svg">
  <defs
     id="defs63" />
  <sodipodi:namedview
     id="namedview61"
     pagecolor="#ffffff"
     bordercolor="#000000"
     borderopacity="0.25"
     inkscape:showpageshadow="2"
     inkscape:pageopacity="0.0"
     inkscape:pagecheckerboard="0"
     inkscape:deskcolor="#d1d1d1"
     showgrid="false" />
  <g
     inkscape:groupmode="layer"
     inkscape:label="Image"
     id="g65"
     transform="translate(-10.700391,-7)">
    <g
       id="g123">
      <path
         style="fill:#b0b0b0"
         d="m 64.711182,238.23335 c -5.4413,-4.52316 -1.183806,-2.5211 7.180513,-14.46827 4.863726,-6.94711 9.939756,-16.53876 12.725722,-20.44809 4.147066,-5.48584 8.407487,-13.18884 8.583945,-13.50732 8.596198,-13.1523 12.585818,-30.45629 13.501568,-58.55967 L 107.29761,113 H 116.6488 126 v 12.75613 c 0,23.34291 -4.21584,48.72277 -10.40851,62.6605 -6.85339,15.42481 -22.142775,33.35909 -38.182147,44.78724 -9.84669,7.01584 -10.319316,7.00693 -12.698161,5.02948 z m -4.732527,-4.62106 c 0.150126,0.89481 -1.929425,-2.00554 -3.01141,-3.38106 -1.739778,-2.21177 -3.344622,-3.82763 -1.357385,-4.9547 0.841173,-0.47707 6.61591,-3.4745 12.688461,-7.54313 10.321241,-6.91526 3.434027,-2.46324 -2.834478,6.3943 -1.531874,3.96834 -6.933418,9.90072 -5.526495,9.23839 z M 11.291633,109.66571 c -0.668976,-1.08614 -0.833057,-13.081262 -0.164071,-14.167285 0.282656,-0.458859 8.601864,-0.20928 18.286519,-0.04721 17.406069,0.291291 24.946369,-0.415649 23.860777,1.612798 -0.604018,1.128619 -8.297119,4.541997 -8.111801,7.490717 l 1.961796,5.59343 -18.472109,0.0599 c -9.267333,0.03 -17.07849,-0.0834 -17.361111,-0.54231 z m 189.852347,0.55619 -16.05825,0.18613 2.33585,-3.84173 c 0.36947,-1.9694 0.0524,-5.06463 -0.76062,-7.424322 l -1.89718,-3.659959 16.50866,-0.142826 c 8.96424,-0.07755 15.15363,-0.463758 15.43614,-0.0049 0.86603,1.406655 0.56912,13.800897 -0.34747,14.504597 -0.47361,0.36361 -7.32132,0.53596 -15.21713,0.38301 z M 52.666667,105.33333 C 52.3,104.96667 52,104.06667 52,103.33333 52,102.23611 63.333333,102 116,102 c 63.33333,0 64,0.0208 64,2 0,1.97895 -0.66667,2 -63.33333,2 -34.833337,0 -63.633337,-0.3 -64.000003,-0.66667 z M 106.70434,67.749279 c 0.11238,-14.437103 0.22488,-27.036779 0.25,-27.999279 0.0403,-1.543946 1.19368,-1.749901 9.79566,-1.749155 l 9.75,8.44e-4 -0.17579,26.249156 c -0.0967,14.437035 -0.20919,27.036655 -0.25,27.999155 -0.0654,1.541986 -1.23314,1.749914 -9.82421,1.749279 l -9.75,-7.2e-4 z"
         id="path127"
         sodipodi:nodetypes="ssccscccssssssssccsssssscscsssccssssssssssssscssscsss" />
      <path
         style="fill:#070707"
         d="m 48,252.71165 c 0,-0.68109 1.585078,-3.59205 3.522396,-6.4688 1.937318,-2.87676 3.934202,-6.31359 4.437521,-7.63742 1.214377,-3.19406 12.401858,-19.02235 17.157256,-24.27446 2.076111,-2.29297 6.249733,-9.26797 9.274717,-15.5 9.183351,-18.91943 13.096238,-37.6042 14.276597,-68.17343 0.537394,-13.91758 0.405572,-16.99741 -0.759078,-17.73469 -0.775175,-0.49072 -11.546781,-0.89912 -23.936903,-0.90754 C 45.361384,111.99722 45,111.88819 45,103.87755 c 0,-9.321944 -1.31986,-8.875406 26.285184,-8.892863 13.318149,-0.0084 24.719393,-0.345922 25.336098,-0.75 C 97.381099,93.736839 97.905233,84.95726 98.247174,67 98.524709,52.425 99.044448,39.807172 99.402149,38.960383 99.875048,37.840885 99.090481,37.07289 96.52693,36.145898 94.587858,35.444721 92.611343,34.112549 92.134673,33.185515 90.685942,30.368003 89.890812,21.303817 90.614092,15.851466 91.790088,6.9863734 91.750531,7 116.30887,7 c 16.11711,0 21.75057,0.3229812 23.12178,1.3256325 2.32929,1.7032165 3.78983,10.4415255 2.95413,17.6743675 -0.79952,6.919731 -1.59338,8.429551 -5.22269,9.932861 l -2.91435,1.207161 -0.0648,28.429989 c -0.0357,15.636494 0.0211,28.523016 0.12613,28.636715 0.10503,0.113699 11.66455,0.451199 25.68782,0.75 L 185.49372,95.5 l 1.27256,3.88805 c 1.721,5.25822 0.71487,10.07169 -2.4021,11.49188 C 182.8005,111.59239 174.31058,112 161.03473,112 c -11.47913,0 -21.58296,0.27314 -22.45294,0.60699 C 137.24253,113.12091 137,115.38344 137,127.36312 137,173.09445 125.93573,206.54997 103.86418,227.55733 92.563133,238.3135 79.504161,245.57812 62.994502,250.29287 50.987528,253.72176 48,254.20368 48,252.71165 Z m 18.859955,-7.66589 c 10.966474,-3.58367 15.447265,-5.79918 24.912046,-12.31767 16.773409,-11.55202 28.782609,-29.5226 34.713009,-51.9446 4.02967,-15.2356 5.57574,-27.1889 6.21279,-48.03349 L 133.30139,113 H 117.1507 101 v 11.32632 c 0,21.21257 -3.324638,44.66416 -8.601463,60.67368 -4.201747,12.74781 -11.908279,26.8421 -23.511711,43 -15.078737,20.9973 -14.450836,20 -12.592013,20 0.838658,0 5.592972,-1.32941 10.565142,-2.95424 z M 180,104 c 0,-1.97917 -0.66667,-2 -64,-2 -52.666667,0 -64,0.23611 -64,1.33333 0,0.73334 0.3,1.63334 0.666667,2 C 53.033333,105.7 81.833333,106 116.66667,106 179.33333,106 180,105.97895 180,104 Z M 126.33856,91.75 c 1.12852,-4.571955 1.91154,-32.588241 1.20179,-43 L 126.80754,38 h -9.79536 c -11.40096,0 -10.28363,-1.347448 -12.09159,14.581894 -1.04888,9.241381 -0.51584,36.703345 0.77786,40.074675 C 106.08139,93.654485 108.73046,94 115.99858,94 c 9.31577,0 9.81122,-0.107809 10.33998,-2.25 z M 135.5,21.5 v -8 h -19 -19 l -0.299127,6.900785 c -0.16452,3.795432 -0.06232,7.517899 0.227115,8.27215 0.425219,1.108103 4.130082,1.319119 19.299122,1.099214 L 135.5,29.5 Z"
         id="path125" />
    </g>
  </g>
</svg>
