<?xml version="1.0" encoding="UTF-8" standalone="no"?>
<!-- Created with Inkscape (http://www.inkscape.org/) -->

<svg
   version="1.1"
   id="svg484"
   width="178.02734"
   height="372.64432"
   viewBox="0 0 178.02734 372.64432"
   sodipodi:docname="二.png"
   xmlns:inkscape="http://www.inkscape.org/namespaces/inkscape"
   xmlns:sodipodi="http://sodipodi.sourceforge.net/DTD/sodipodi-0.dtd"
   xmlns="http://www.w3.org/2000/svg"
   xmlns:svg="http://www.w3.org/2000/svg">
  <defs
     id="defs488" />
  <sodipodi:namedview
     id="namedview486"
     pagecolor="#ffffff"
     bordercolor="#000000"
     borderopacity="0.25"
     inkscape:showpageshadow="2"
     inkscape:pageopacity="0.0"
     inkscape:pagecheckerboard="0"
     inkscape:deskcolor="#d1d1d1"
     showgrid="false" />
  <g
     inkscape:groupmode="layer"
     inkscape:label="Image"
     id="g490"
     transform="translate(-10.489735,-11.172722)">
    <g
       id="g494">
      <path
         style="fill:#b0b0b0"
         d="m 27.798302,216.69844 c -2.821515,-0.11289 -1.071001,-6.14096 -0.680636,-7.55176 L 25.857891,206.5 h 67.157382 65.165277 l 1.24674,3.96954 c 0.58466,1.86154 -0.48677,5.94238 -0.34474,8.26086 0.17731,2.89422 2.04213,0.49651 -0.3632,0.45815 -1.10856,-0.0177 -19.29344,-0.0193 -22.83674,0.22604 -3.62426,0.25098 9.91854,0.20697 9.11677,-0.16458 -3.28643,-1.52297 1.16318,-1.39513 -5.76517,-0.0397 -2.96257,0.57958 -18.98421,0.90858 -32.73421,0.92238 -24.186685,0.0243 -25.260261,-0.0589 -33,-2.5586 -4.4,-1.42104 -10.923472,-4.16689 -14.496604,-6.10188 -6.000345,-3.24943 -6.592349,-3.38723 -7.75,-1.80405 C 50.564028,210.61091 50,211.63861 50,211.95194 c 0,0.31332 3.234746,2.08254 6.524709,3.60102 l 7.446981,3.43714 -16.650261,-0.0135 c -11.025737,-0.009 -17.89989,0.44844 -19.464547,0.14465 -4.881069,-0.9477 1.128945,-2.37531 0.863692,-2.38592 z m -12.517142,1.94747 c 0,-12.86198 -0.288579,-12.06965 -0.168514,-12.09338 0.547078,-0.10811 -0.14377,0.005 -0.01879,-0.011 0.539115,-0.0675 -0.304847,-0.0544 3.147129,-0.15281 9.223478,-0.26293 2.81861,1.17804 4.429213,6.61125 l 1.948708,6.57378 -5.456337,-0.0738 c -3.746085,-0.0507 -3.881413,0.0852 -3.881413,-0.0193 z m 145.63834,0.3047 c 3.15336,-0.0672 2.08134,-4.63556 2.12476,-8.57808 0.0434,-3.94251 -2.68454,-5.00632 -2.36373,-4.18132 0.3208,0.825 1.42194,0.19292 7.11503,0.39287 0.30275,0.0106 0.21899,0.23044 0.21899,6.36159 0,5.70867 0.1191,4.20935 0.0137,6.02704 -0.0209,0.36044 -9.05228,-0.2669 -7.10876,-0.0221 z M 43.167373,131.95293 33,131.92758 l -3e-6,-6.21379 -3e-6,-6.21379 58.650525,0.23385 c 32.257791,0.12863 58.867791,0.45113 59.133331,0.71667 0.66995,0.66994 0.227,1.26689 0.0312,12.14754 -0.0232,1.28712 2.88781,1.21558 -25.90197,-0.7168 -19.45506,-3.94097 -47.24023,-5.60653 -65.30456,-0.45572 -2.685068,0.76561 -7.962808,0.38512 -16.493379,0.52737 z"
         id="path498"
         sodipodi:nodetypes="sscccsssssssssssscssssssssscssscsssssccccssscscccc" />
      <path
         style="fill:#020202"
         d="M 36.14951,382.27936 C 34.070679,378.39503 28.059586,337.52794 26.032833,313.5 c -1.379366,-16.35292 -1.30563,-47.399 0.147613,-62.15168 1.124607,-11.41652 1.06152,-12.74751 -1.042767,-22 C 21.108625,211.63268 20.137402,204.73405 19.246066,187.5 18.191918,167.11796 19.027813,150.85739 21.996301,134 c 1.210647,-6.875 2.198024,-15.425 2.194171,-19 -0.0039,-3.575 -2.058575,-18.875 -4.566048,-34 -2.507472,-15.125 -5.733801,-36.223879 -7.16962,-46.886398 -2.320782,-17.234341 -2.444028,-19.55295 -1.110233,-20.886744 3.346031,-3.3460318 4.143364,-0.967905 7.009396,20.906261 1.539762,11.751785 5.170907,35.520703 8.069212,52.819818 l 5.269645,31.452933 -1.911003,8.04707 C 28.73077,130.87882 27.423571,136.3 26.876935,138.5 c -1.440007,5.79548 -2.231638,48.68778 -1.052006,57 0.546375,3.85 2.158721,13.525 3.582991,21.5 1.424271,7.975 2.939663,16.52755 3.367539,19.00567 0.428299,2.48057 0.346712,6.52568 -0.181522,9 -0.527713,2.47188 -0.979384,19.11933 -1.003713,36.99433 -0.04736,34.79378 0.736924,44.81945 6.101735,78 3.247274,20.08391 3.401148,23.33596 1.125513,23.7871 -0.925391,0.18346 -2.125974,-0.49502 -2.667962,-1.50774 z m 126.43001,-26.46444 c -0.63507,-2.99318 -3.33819,-35.04148 -4.58119,-54.31492 -1.26392,-19.59793 -1.27755,-86.58344 -0.019,-93.56634 0.91452,-5.0742 7.13129,-65.63453 8.56481,-83.43366 0.35437,-4.4 2.38975,-18.35 4.52307,-31 5.02752,-29.811834 7.43978,-45.577472 9.86506,-64.474449 2.0562,-16.021164 3.41779,-19.6397973 6.44465,-17.127722 0.93817,0.778607 1.32413,2.389459 1.05764,4.414098 C 184.74973,44.306798 182.0586,62.5324 177.99698,87 c -2.69335,16.225 -5.38665,35.35 -5.98512,42.5 -0.59846,7.15 -2.16998,23.8 -3.49225,37 -4.40204,43.94448 -4.93152,54.1367 -4.93524,95 -0.003,30.86775 0.42875,45.02274 1.8903,62 1.04167,12.1 1.9235,24.7 1.95964,28 0.0597,5.45612 -0.13506,6.02855 -2.14896,6.31492 -1.63735,0.23283 -2.34269,-0.28853 -2.70583,-2 z M 84.5,224.58823 c -10.916249,-2.21205 -21.914407,-5.65386 -28.25,-8.84066 -3.4375,-1.72906 -6.25,-3.4186 -6.25,-3.75453 0,-0.33593 0.5625,-1.37456 1.25,-2.30807 1.147807,-1.55854 1.86409,-1.37507 8.761432,2.24411 13.248754,6.9519 23.081049,9.27463 41.488568,9.80104 13.0896,0.37433 18.32318,0.0767 28.77173,-1.63628 7.02445,-1.15161 13.21195,-2.09384 13.75,-2.09384 2.12008,0 0.82092,2.8196 -1.77173,3.84522 -9.24728,3.65807 -44.881631,5.35064 -57.75,2.74301 z M 54.104614,133.62605 c -0.93069,-1.12141 0.01177,-1.6582 5.127555,-2.92049 18.672636,-4.60736 45.468731,-5.55878 65.363041,-2.32078 12.326,2.00618 14.57369,2.84632 12.68037,4.73964 -0.94361,0.94361 -3.12856,0.91089 -9.99164,-0.14963 C 114.5064,131.00035 75.85722,131.25698 66,133.38172 c -9.140058,1.97016 -10.440901,1.99688 -11.895386,0.24433 z"
         id="path496" />
    </g>
  </g>
</svg>
