<?xml version="1.0" encoding="UTF-8" standalone="no"?>
<!-- Created with Inkscape (http://www.inkscape.org/) -->

<svg
   version="1.1"
   id="svg536"
   width="222.77798"
   height="237.802"
   viewBox="0 0 222.77798 237.802"
   sodipodi:docname="ヌ.png"
   xmlns:inkscape="http://www.inkscape.org/namespaces/inkscape"
   xmlns:sodipodi="http://sodipodi.sourceforge.net/DTD/sodipodi-0.dtd"
   xmlns="http://www.w3.org/2000/svg"
   xmlns:svg="http://www.w3.org/2000/svg">
  <defs
     id="defs540" />
  <sodipodi:namedview
     id="namedview538"
     pagecolor="#ffffff"
     bordercolor="#000000"
     borderopacity="0.25"
     inkscape:showpageshadow="2"
     inkscape:pageopacity="0.0"
     inkscape:pagecheckerboard="0"
     inkscape:deskcolor="#d1d1d1"
     showgrid="false" />
  <g
     inkscape:groupmode="layer"
     inkscape:label="Image"
     id="g542"
     transform="translate(-9.161891,-9)">
    <g
       id="g546">
      <path
         style="fill:#afafaf"
         d="m 61.332822,238.73531 c -4.375537,-1.95242 -5.604414,-8.84902 -2.320636,-13.02367 4.104403,-5.21791 12.381002,-4.00504 14.947232,2.19039 1.578285,3.81031 12.976888,0.26204 7.254141,2.05736 -0.913627,0.28662 -12.783195,6.79411 -14.561847,7.8186 -6.874914,3.95988 -3.768924,1.64893 -5.31889,0.95732 z m 16.117085,-18.81636 c -0.36747,-0.59458 -2.081528,-1.9429 -3.809017,-2.99626 -2.551588,-1.55588 -4.838454,-1.3414 -3.195008,-1.34443 2.473371,-0.005 22.619367,-10.5247 35.671798,-19.06596 10.54126,-6.898 26.39352,-21.97826 24.32437,-22.90371 -0.69,-0.30861 0.20795,1.70786 4.05795,2.0366 6.64685,0.56756 9.5,1.59398 9.5,3.41762 0,1.48116 -15.66702,17.39122 -26.875,24.76393 C 107.05975,210.44777 81.443439,221 79.100939,221 c -0.540598,0 -1.283562,-0.48647 -1.651032,-1.08105 z M 193,206.46585 c -6.875,-5.74844 -17.7664,-14.3924 -24.20311,-19.20879 -6.43671,-4.81638 -11.72421,-9.06148 -11.75,-9.43356 -0.0258,-0.37207 2.09061,-3.16824 4.70311,-6.21371 l 4.75,-5.53723 4,4.35522 c 2.2,2.39537 8.5,7.85849 14,12.14027 5.5,4.28179 16.02939,12.76811 23.39864,18.85851 7.36924,6.09039 14.53271,11.82119 14.91291,12.12717 0.66275,0.53336 -0.002,0.82725 -0.0616,1.12741 -0.0779,0.39138 -2.725,0.73386 -5.75,0.79829 -3.025,0.0644 -6.85,0.41438 -8.5,0.77765 -2.72303,0.59952 -4.15403,-0.30443 -15.5,-9.79123 z m -50.5,-38.57144 c -10.77234,-7.73844 -29.08103,-19.16526 -40.07263,-25.01014 -5.460053,-2.90342 -10.588766,-4.53695 -10.773241,-4.98184 -0.184476,-0.44489 -0.72996,-0.53752 -1.232984,-0.22663 -0.503025,0.31088 -0.863544,0.40244 -0.863544,-0.21248 0,-0.61492 -0.851861,-1.50104 -1.407141,-1.34905 -2.977206,0.81495 1.35593,-4.96252 5.478287,-9.4712 2.586319,-2.82869 5.029318,-5.522 5.428886,-5.98513 0.773461,-0.89651 17.524387,9.99163 37.714607,24.51457 6.74974,4.85512 12.66336,8.82749 13.14139,8.82749 1.20009,0 13.59911,-19.19074 20.99312,-32.49237 C 176.08284,112.19597 186,90.592141 186,88.628041 c 0,-0.333083 -18.3375,-0.728344 -40.75,-0.878356 l -40.75,-0.272751 46.25,-0.238467 c 30.84248,-0.159025 46.5625,-0.712122 46.5625,-0.03383 0,0.559426 -2.15133,7.334426 -4.39879,14.062503 -5.49317,16.44455 -13.43595,32.85739 -22.35881,46.2019 -7.29638,10.91205 -18.99694,25.56692 -20.35335,25.49243 -0.38585,-0.0212 -3.85155,-2.30136 -7.70155,-5.06706 z M 66,75.052712 v -4.947288 l 44.68909,-0.08911 c 5.32179,-0.01061 -4.5182,4.612199 1.11106,3.718279 3.16097,-0.501957 -12.712256,-1.515266 -15.360383,-3.193202 -0.868981,-0.550613 4.133713,0.733726 7.159553,0.723919 4.95103,-0.01605 5.8083,-0.106016 7.84138,6.484687 L 112.13478,80 H 89.067388 66 Z m 79,4.164417 c 0,-0.604502 0.48647,-1.399752 1.08105,-1.767222 0.59458,-0.36747 1.88941,-1.997356 2.87739,-3.62197 l -0.0787,-3.391344 29.24515,0.04104 c 14.95045,0.02098 27.39346,-0.188916 27.80389,0.06475 0.41044,0.253664 0.49669,2.938525 0.26806,4.896912 L 205.78119,79 194.14059,79.0028 C 187.73827,79.00438 174.0625,79.30053 163.75,79.660938 150.39219,80.127775 145,80.000143 145,79.217129 Z m -19.34324,-0.778082 c -2.73791,-1.091754 -12.78329,-5.142998 -14.05622,-7.501547 -0.70225,-1.301151 7.68024,-0.8125 20.08696,-0.8125 15.49806,0 18.54159,-1.556044 13.12307,3.495888 -4.35622,4.061506 -13.851,6.932677 -19.15381,4.818159 z"
         id="path550"
         sodipodi:nodetypes="sssssssscssssssssssscssssssssscssssssssssscsssssscssssssccccssscsssccssssssss" />
      <path
         style="fill:#070707"
         d="m 61.368203,245.91185 c -4.097046,-1.18756 -10.085868,-7.88995 -10.892661,-12.19053 -0.409907,-2.18499 -0.05949,-4.78132 0.981632,-7.27307 2.886666,-6.90876 6.724209,-9.78012 14.556001,-10.89122 4.477624,-0.63525 5.448847,-0.2683 12.038824,4.54854 2.050666,1.4989 22.029521,-8.38639 37.448001,-18.52882 11.20798,-7.37271 28.5,-21.03277 28.5,-22.51393 0,-1.9448 -3.11893,-2.91302 -12.5,-3.88042 C 112.59247,173.23261 90.562968,166.84235 77.429798,159.49787 43.006948,140.24751 29.454748,106.56379 41.652797,70.574848 42.943759,66.766014 44,63.512659 44,63.345171 44,62.556889 36.010293,59.092557 32.805871,58.491404 25.118587,57.049261 16,63.999415 16,71.300778 c 0,2.74544 0.755739,4.155586 3.534796,6.59563 C 22.888251,80.84078 26,81.947485 26,80.195781 c 0,-0.442321 1.383625,-2.985969 3.074721,-5.652552 l 3.074721,-4.848332 2.52444,2.524439 2.524439,2.52444 -3.793516,6.595704 c -2.086434,3.627638 -4.423644,6.837507 -5.193799,7.133044 C 26.25458,89.223275 18.066517,85.430777 14.660724,82.196386 8.3611332,76.213831 7.5807286,71.169805 11.773359,63.534346 c 1.879935,-3.423667 4.257875,-5.907912 7.657664,-8 4.393398,-2.703514 5.756262,-3.026822 12.5,-2.965335 8.035043,0.07326 12.733526,1.82055 18.227466,6.778501 l 2.658489,2.399127 -3.33695,8.88396 c -9.790844,26.066158 -6.177133,49.409731 10.468331,67.622521 5.017023,5.48942 16.160682,13.77109 23.551641,17.50296 9.901759,4.99962 26.40418,9.65213 41.5,11.70005 l 4.5,0.61048 -6.76147,-4.56207 c -9.49733,-6.40798 -29.42174,-17.71252 -37.161213,-21.0842 l -6.514966,-2.83822 -10.47336,-28.19306 C 60.461916,89.511924 57.996327,81.701236 57.583081,76.52366 57.265605,72.545989 55.35366,64.870973 52.848864,57.519356 48.744546,45.473117 48.68753,45.125834 50.388034,42.530538 51.345494,41.069269 54.088726,39.033593 56.484105,38.006813 62.279261,35.522719 67.679775,30.502618 77.200157,18.75 81.883911,12.96805 85.82917,9 86.894157,9 c 2.808318,0 4.570854,2.701071 9.135451,14 2.333014,5.775 4.780732,11.175 5.439382,12 0.65865,0.825 3.15027,6.3375 5.53693,12.25 2.38667,5.9125 4.44394,10.75 4.57172,10.75 0.58067,0 5.45368,-9.040393 5.20374,-9.65396 -0.15476,-0.379906 -1.80464,-0.725681 -3.66639,-0.768389 -7.04853,-0.161691 -6.77443,-6.983149 0.28853,-7.180653 3.91426,-0.109455 5.59648,1.562686 5.59648,5.562941 0,1.994059 0.13735,2.020396 2.95034,0.565741 6.68934,-3.459191 18.31533,-1.187706 23.75193,4.640649 6.61383,7.090411 7.06745,20.630266 0.86367,25.778948 C 145.70467,77.660064 145,78.667947 145,79.185018 c 0,0.581906 11.62159,0.667881 30.5,0.225635 l 30.5,-0.714493 -0.0119,2.40192 c -0.0193,3.909754 -2.39486,11.533681 -8.22659,26.40192 -6.73581,17.17324 -13.69263,31.14502 -21.41054,43 -3.22258,4.95 -6.46546,10.18056 -7.20638,11.62347 -0.74093,1.44291 -3.77658,5.4091 -6.74588,8.81375 -2.96931,3.40466 -5.37586,6.4991 -5.3479,6.87654 0.028,0.37743 5.54046,4.80834 12.25,9.84645 6.70954,5.03812 17.7835,13.75033 24.6088,19.36046 l 12.40963,10.20025 3.70639,-1.11046 c 6.93888,-2.07894 10.58486,-1.45713 15.0362,2.56439 2.23719,2.02117 4.71348,4.92382 5.50288,6.45034 3.52752,6.82147 0.0321,15.66404 -7.78086,19.68372 -5.8608,3.01531 -10.29683,2.43563 -15.35634,-2.00668 -4.96825,-4.36217 -6.6425,-8.09757 -6.34976,-14.16686 0.13623,-2.82445 -0.1048,-5.93881 -0.53563,-6.92079 C 199.30364,218.89162 159.48042,187 157.1939,187 c -0.5083,0 -2.11084,-0.93342 -3.5612,-2.07427 l -2.63701,-2.07428 -2.9914,2.32428 c -1.64527,1.27835 -6.2568,4.99185 -10.24784,8.25222 -9.75772,7.97129 -27.64857,19.70209 -42.809296,28.06951 -6.845935,3.77837 -12.777763,7.34963 -13.181841,7.93615 -0.404078,0.58651 -0.741578,2.23734 -0.75,3.66851 -0.02329,3.95748 -4.021223,9.14012 -8.985274,11.64788 -4.809164,2.42952 -5.884243,2.54667 -10.661836,1.16185 z m 9.92016,-7.92404 c 5.175465,-4.07102 4.012016,-12.37811 -2.087463,-14.90459 -7.68514,-3.18329 -14.626978,4.49801 -11.086818,12.26782 2.134743,4.68525 8.859095,6.0311 13.174281,2.63677 z m 149.862037,0.9317 c 5.52656,-2.95773 5.39669,-12.551 -0.20916,-15.44989 -4.05083,-2.09477 -6.35563,-1.83326 -9.86451,1.11927 -8.1873,6.88916 0.6056,19.39777 10.07367,14.33062 z M 157.04106,165.75 c 9.24524,-10.92025 20.23998,-27.94414 26.33805,-40.78096 C 188.26101,114.69233 197,90.881515 197,87.856678 c 0,-0.897505 -15.24882,-1.033805 -64.11076,-0.573049 -35.260911,0.332501 -64.298511,0.792309 -64.527996,1.021794 -0.229486,0.229485 3.307854,10.555711 7.860755,22.947167 L 84.5,133.78251 l 9.5,4.6997 c 12.7458,6.30542 30.00921,16.6609 44.00188,26.3946 6.32396,4.39913 11.81382,8.02649 12.19967,8.06081 0.38586,0.0343 3.46363,-3.20012 6.83951,-7.18762 z M 112,79.529151 c 0,-0.926042 -24.723849,-61.586334 -25.360956,-62.22344 -0.159009,-0.15901 -3.1455,3.337267 -6.636646,7.769505 -7.448224,9.456009 -13.502416,15.020243 -19.503983,17.925551 l -4.326285,2.094319 3.911426,11.281762 c 2.151285,6.20497 4.201661,14.058576 4.556392,17.452458 L 65.284913,80 H 88.642456 C 101.48911,80 112,79.788118 112,79.529151 Z M 81.471502,61.926966 C 63.656214,51.021917 60.69855,49 62.561906,49 64.328813,49 101.13115,71.800911 100.24661,72.347585 99.767343,72.64379 91.318543,67.954511 81.471502,61.926966 Z m 58.392738,14.341047 c 5.00408,-3.705765 7.35883,-8.286085 6.88395,-13.390251 C 145.96337,54.442375 139.7212,49 130.83101,49 c -10.45942,0 -18.09412,11.827718 -13.42602,20.79966 1.75729,3.377467 5.33293,6.759596 8.59552,8.130339 3.55731,1.494565 10.76865,0.630068 13.86373,-1.661986 z"
         id="path548" />
    </g>
  </g>
</svg>
