<?xml version="1.0" encoding="UTF-8" standalone="no"?>
<!-- Created with Inkscape (http://www.inkscape.org/) -->

<svg
   version="1.1"
   id="svg655"
   width="203.73245"
   height="290.33365"
   viewBox="0 0 203.73245 290.33365"
   sodipodi:docname="ãƒ.png"
   xmlns:inkscape="http://www.inkscape.org/namespaces/inkscape"
   xmlns:sodipodi="http://sodipodi.sourceforge.net/DTD/sodipodi-0.dtd"
   xmlns="http://www.w3.org/2000/svg"
   xmlns:svg="http://www.w3.org/2000/svg">
  <defs
     id="defs659" />
  <sodipodi:namedview
     id="namedview657"
     pagecolor="#ffffff"
     bordercolor="#000000"
     borderopacity="0.25"
     inkscape:showpageshadow="2"
     inkscape:pageopacity="0.0"
     inkscape:pagecheckerboard="0"
     inkscape:deskcolor="#d1d1d1"
     showgrid="false" />
  <g
     inkscape:groupmode="layer"
     inkscape:label="Image"
     id="g661"
     transform="translate(-8.8150854,-8)">
    <g
       id="g665">
      <path
         style="fill:#b0b0b0"
         d="m 105.37524,297.79911 c -0.23791,-0.38549 -0.53217,-14.78977 -0.6539,-32.00952 l -0.30238,-33.13199 10.99035,1.49694 c 5.9353,0.80842 8.42542,-0.14079 7.71716,0.0861 -0.70826,0.22689 -0.46724,0.16451 -0.43436,1.37733 0.0199,0.73218 -0.66648,17.64299 -0.63371,33.23971 0.0328,15.59673 -0.15891,28.57617 -0.42595,28.8432 -0.77913,0.77913 -15.78103,0.86977 -16.25721,0.0982 z M 22,245.30576 c -0.400944,-0.44884 -1.306088,-2.49242 -2.902417,-4.2013 -1.59633,-1.70887 -2.474478,-3.3252 -2,-3.66477 0.969076,-0.69354 1.590048,-1.07061 0.802137,-0.62303 -0.27705,0.15737 1.728372,-0.95496 3.928372,-2.07732 2.2,-1.12236 8.412302,-5.27623 8.412302,-4.9586 0,1.74951 -4.707462,14.81824 -5.442391,15.62628 -0.537758,0.59126 -2.253628,0.50814 -2.798003,-0.10126 z m 10.336166,-4.38709 c 0.361705,-1.33027 1.183263,-5.21185 1.825683,-8.62575 0.642421,-3.41389 1.472651,-6.01881 1.844956,-5.78871 C 36.926312,227.07249 63.830206,211.53529 78,202.25282 100.05847,187.80257 124.97417,167.25503 138.02654,152.75 L 143.20069,147 91.850343,146.87476 40.5,146.74952 94,143.44904 c 29.425,-1.81526 55.70378,-3.3339 58.39728,-3.37475 l 4.89728,-0.0743 0.21599,10.77865 c -1.32534,3.49464 -0.34575,11.09774 -0.39884,9.14465 l -18.15744,18.30687 -15.92263,15.26983 -0.0172,5 -0.0172,5 -10.56778,4.68584 c -5.81229,2.57721 -7.97452,5.19464 -7.93792,2.98272 0.0541,-3.27051 -1.51057,-2.36478 -6.449584,0.80456 -6.726617,3.82643 -1.770804,0.73281 -7.685709,4.65073 -0.236629,0.60021 -48.785742,22.85552 -57.266927,26.16329 -1.072679,0.41835 -1.253145,-0.0294 -0.753094,-1.86847 z M 196.09888,230.26274 183.35395,217.63238 196.5,225.50917 c 6.72805,4.03128 12.71152,8.3327 13.58115,9.10004 0.86963,0.76733 2.78137,1.69685 2.42191,2.07292 -0.61966,0.6483 0.59144,-0.70809 -0.53717,0.61008 -0.56875,0.66428 -2.84191,3.43541 -3.51066,4.40713 -1.0896,1.58327 -1.50258,-0.68041 -12.35635,-11.4366 z m -1.95178,13.8797 C 191.511,243.74715 179.57879,235.91663 172,230.92358 c -6.325,-4.16703 -16.99571,-10.81183 -23.60745,-14.9371 -14.12384,-8.8123 -62.731693,-40.80704 -11.68317,-8.98316 0.80348,0.50089 -31.03966,-13.86904 -25.7428,-13.3426 l 21.96711,-11.49089 43.46994,33.61389 c 24.83274,19.20236 27.55784,29.8304 17.74347,28.35872 z m -82.81901,-14.63855 c -6.05,-0.96153 -8.62121,1.59863 -7.59628,1.54129 1.47051,-0.0823 0.94392,-3.80697 1.04493,-7.5357 0.1743,-6.43389 -1.08614,-3.42914 8.66236,-7.68475 l 10.0609,-4.39199 -0.32753,8.4267 c -0.2411,6.203 -0.35257,8.27521 -0.41817,9.43039 -0.11444,2.01535 2.48624,2.42517 -11.42621,0.21406 z m 52.78288,-87.15364 c 0.42791,-6.02487 -0.18545,-6.18132 -2.05157,-7.86382 -2.92197,-2.63444 -7.54408,-5.76058 1.1906,-5.74838 1.27404,0.002 2.7,0.89725 3.25,1.32067 1.32065,1.01672 -0.86103,16.97701 -2.33717,18.45086 -0.8287,0.82741 -0.40984,-1.11916 -0.0519,-6.15933 z M 39.999496,138.8936 C 39.999218,138.67712 39.143558,136.25 38.098027,133.5 l -1.900964,-5 33.401469,0.27608 L 103,129.05216 V 106.5851 c 0,-15.174934 0.35478,-22.686335 1.09309,-23.142634 1.94101,-1.199608 18.26156,-0.483808 19.10126,0.837759 3.25844,5.128311 -3.64087,24.480045 -9.9271,27.844335 -1.8774,1.00476 -2.5829,0.89976 -4.28116,-0.63715 -1.53518,-1.38932 -2.31577,-1.55773 -3.18609,-0.68741 -1.80996,1.80996 1.86203,5.2 5.63248,5.2 3.79173,0 7.09704,-2.18084 9.64946,-6.36671 l 1.91058,-3.13329 0.004,11.2989 0.004,11.2989 15.50144,-0.2989 c 8.52579,-0.1644 15.6154,-0.30916 15.61461,0.0645 -0.006,2.98231 3.92925,4.59662 -43.97323,7.32867 -26.89883,1.53414 -59.68032,2.192 -63.39282,2.51246 -3.7125,0.32046 -6.750227,0.40554 -6.750504,0.18906 z"
         id="path669"
         sodipodi:nodetypes="sscssssssssssssssscsssscccsscccccccssccsccscssssssssssscsssssscssscssssscscccsssssssscccscssccs" />
      <path
         style="fill:#070707"
         d="m 25.415302,249.50621 c -1.52088,-1.52088 -2.33218,-3.23478 -2.022623,-4.27286 0.284287,-0.95334 1.052181,-3.98335 1.706433,-6.73335 0.654251,-2.75 1.536463,-5.45016 1.960471,-6.00035 1.006362,-1.30585 5.531665,-24.62458 6.884079,-35.47342 C 35.280534,186.30207 35.274238,164.48833 33.93182,156 33.366439,152.425 32.694369,146.2365 32.438332,142.24777 31.60534,129.27084 26.390139,121.27182 14.99899,115.49949 6.7311256,111.30984 6.7357061,110.61054 15.121932,96.730103 L 22.417984,84.654068 22.136031,69.853899 21.854079,55.05373 l 3.2484,-6.094622 C 31.793166,36.406093 46.687715,23.020871 62.5,15.351233 73.921474,9.8113281 83.266853,8 100.42801,8 c 31.92505,0 51.02992,12.102732 65.96946,41.790947 6.75638,13.42643 6.91046,29.182441 0.54429,55.656103 -6.86804,28.56067 -6.42476,25.40992 -3.94613,28.0483 1.86313,1.98321 2.12431,3.15505 1.71013,7.67267 -2.138,23.3196 -3.66723,43.30054 -3.69906,48.33198 l -0.038,6 24.0545,23.5 24.05449,23.5 -2.0892,3.35695 c -1.79219,2.8797 -2.47301,3.26093 -4.78886,2.68154 -2.46616,-0.617 -49.53893,-7.62297 -83.69966,-12.45726 -7.7,-1.08967 -17.6,-2.65488 -22,-3.47824 -16.133119,-3.01894 -17.823354,-2.71004 -41.174531,7.52505 -11.454008,5.02042 -22.298136,9.75571 -24.098063,10.52286 -3.082946,1.31399 -3.41976,1.24766 -5.812104,-1.14469 z M 63.5,229.57985 c 15.95,-6.961 35.075,-15.32563 42.5,-18.58805 7.425,-3.26243 21.13265,-9.25115 30.46145,-13.30827 15.4647,-6.72565 17.0222,-7.6328 17.65003,-10.28006 0.92853,-3.91518 3.23596,-46.38936 2.55701,-47.06831 -0.64475,-0.64475 -115.429805,5.89929 -116.644573,6.65006 -0.464966,0.28736 -0.447541,2.54575 0.03872,5.01863 1.69003,8.59462 2.18957,28.36239 1.01072,39.99615 -0.980933,9.68057 -6.524815,40.70281 -8.742093,48.91867 -0.495979,1.83779 -0.313937,2.28645 0.757994,1.86811 C 33.865167,242.48398 47.55,236.54086 63.5,229.57985 Z m 111.98181,-10.59216 -21.01231,-21.01231 -15.98475,6.93481 c -8.79161,3.81414 -22.73419,9.86585 -30.98351,13.44823 -8.249323,3.58239 -14.324323,6.72783 -13.500003,6.98987 0.824319,0.26204 8.248763,1.42563 16.498763,2.58575 8.25,1.16012 29.85,4.31715 48,7.01562 18.15,2.69846 34.12368,4.93871 35.49706,4.97832 2.04041,0.0589 -1.34555,-3.77059 -18.51525,-20.94029 z m -73.18124,-83.64898 c 26.84031,-1.53075 49.24704,-3.05912 49.79274,-3.39638 1.49723,-0.92534 9.48837,-30.17911 11.45232,-41.924391 1.21716,-7.279119 1.5716,-13.348814 1.20218,-20.587045 -0.50504,-9.895499 -0.69712,-10.593111 -5.34264,-19.403858 C 145.1115,22.917517 125.85013,12.405811 94.079425,14.376142 80.946329,15.190619 72.794343,17.066514 64.739732,21.127648 54.80485,26.136814 48.026936,31.182703 40.29058,39.329077 28.56416,51.676984 26.773583,57.178458 29.00178,74.013447 l 1.299931,9.821542 -7.150856,11.627038 C 19.217885,101.8569 16,107.4364 16,107.86091 c 0,0.42452 2.895721,2.61796 6.434934,4.87431 7.586957,4.8369 11.448326,9.79988 15.138796,19.45773 l 2.701104,7.06871 6.612583,-0.56989 c 3.636921,-0.31344 28.572837,-1.82231 55.413153,-3.35306 z m 4.17805,-21.36234 c -1.38268,-1.52784 -1.54894,-2.30605 -0.67862,-3.17637 0.87032,-0.87032 1.65091,-0.70191 3.18609,0.68741 1.69826,1.53691 2.40376,1.64191 4.28116,0.63715 3.28125,-1.75607 6.63568,-7.13883 8.8176,-14.149369 2.31353,-7.433384 2.40908,-11.119359 0.38947,-15.024851 C 121.1683,80.424778 120.36928,80 116.92466,80 c -2.21319,0 -5.30776,0.663868 -6.87682,1.475263 -2.56829,1.328113 -2.91582,1.311151 -3.48421,-0.170051 -0.72886,-1.899379 0.53561,-2.898615 5.43637,-4.296048 4.7342,-1.349937 6.60207,-1.266301 9.90881,0.443678 4.00511,2.071126 5.44738,6.324856 4.87184,14.368718 -0.5802,8.109057 -4.73426,18.12017 -9.0127,21.72024 -3.64686,3.06863 -8.72852,3.26424 -11.28933,0.43457 z M 42.872377,94.75 C 42.384444,93.794193 41.871291,88.603865 41.784838,83.75 41.72851,80.5875 41.303878,78 40.841212,78 40.378545,78 40,77.325 40,76.5 40,75.675 40.586337,75 41.302971,75 42.419932,75 67.653595,80.525996 70.5,81.393945 71.05,81.561656 65.543926,84.691627 58.264279,88.349437 46.453287,94.284116 43.303247,95.594027 42.872377,94.75 Z m 9.611079,-7.469285 C 56.617555,85.235108 60,83.300142 60,82.980791 60,82.66144 57.4125,81.856673 54.25,81.192419 51.0875,80.528166 47.4875,79.710647 46.25,79.375711 44.896415,79.009357 44,79.21161 44,79.883369 44,80.497516 44.81,81 45.8,81 c 4.778497,0 5.699543,5.607714 1.2,7.306102 -1.65,0.622805 -3,1.483716 -3,1.913136 0,1.195678 0.427973,1.047436 8.483456,-2.938523 z M 69.970432,67.464373 C 66.143485,62.853184 52.534784,58.612365 43.275984,59.1457 c -6.606739,0.380569 -8.537545,-1.301143 -2.671623,-2.326956 7.97943,-1.395416 23.745951,2.612297 29.895639,7.599213 2.18346,1.770615 2.702676,2.736796 1.907618,3.549786 -0.802076,0.820167 -1.449769,0.686394 -2.437186,-0.50337 z"
         id="path667" />
    </g>
  </g>
</svg>
