<?xml version="1.0" encoding="UTF-8" standalone="no"?>
<!-- Created with Inkscape (http://www.inkscape.org/) -->

<svg
   version="1.1"
   id="svg745"
   width="189.46786"
   height="201.08485"
   viewBox="0 0 189.46786 201.08485"
   sodipodi:docname="ノ.png"
   xmlns:inkscape="http://www.inkscape.org/namespaces/inkscape"
   xmlns:sodipodi="http://sodipodi.sourceforge.net/DTD/sodipodi-0.dtd"
   xmlns="http://www.w3.org/2000/svg"
   xmlns:svg="http://www.w3.org/2000/svg">
  <defs
     id="defs749" />
  <sodipodi:namedview
     id="namedview747"
     pagecolor="#ffffff"
     bordercolor="#000000"
     borderopacity="0.25"
     inkscape:showpageshadow="2"
     inkscape:pageopacity="0.0"
     inkscape:pagecheckerboard="0"
     inkscape:deskcolor="#d1d1d1"
     showgrid="false" />
  <g
     inkscape:groupmode="layer"
     inkscape:label="Image"
     id="g751"
     transform="translate(-9.1861048,-6.6247172)">
    <g
       id="g755">
      <path
         style="fill:#aeaeae"
         d="m 47,175.49248 c -3.575,-3.31476 -5.908519,-7.32844 -5.185598,-6.96168 1.966348,0.99759 22.052581,-13.04773 31.391954,-21.95086 1.488496,-1.41897 5.338794,-6.81299 5.619779,-6.81299 0.591265,0 -20.043225,38.50303 -21.770873,40.31474 C 56.16564,181.0146 52.016434,180.14374 47,175.49248 Z M 81.172002,160.75 c 2.852141,-4.5375 6.342725,-10.14828 7.756854,-12.46839 L 91.5,144.06322 l 6.627815,-0.0316 6.627815,-0.0316 -8.127815,7.81444 c -8.797031,8.45786 -20.208704,17.52878 -21.250957,17.52878 -0.356973,0 2.943004,-4.05572 5.795144,-8.59322 z m 24.035228,-37.959 c 0.82005,-1.26005 11.95902,-18.8285 24.75328,-39.041 12.79425,-20.2125 25.57698,-40.865737 26.23064,-40.875788 5.26116,-0.0809 2.59492,5.606288 -2.21336,16.933093 C 145.54378,79.675191 136.29227,102.17117 126.73848,116.5 l -6.2239,8.80898 -7.95423,-0.51798 -8.8441,0.291 z M 157.5,33.512495 c -1.65,-1.249631 -8.93565,7.298197 -11.99543,5.711274 -5.33098,-2.764857 -28.37811,57.483589 -0.3951,-15.58241 0.79398,-2.073154 3.66719,-9.355148 4.90425,-13.7447453 0.61894,-2.1962563 0.54788,-3.6386993 1.86128,-3.1900642 0.57891,0.1977468 3.4375,1.9589509 6.875,3.228688 3.4375,1.2697375 6.37809,2.4494765 6.92082,2.7502465 0.44863,0.248619 2.30702,-0.09036 0.85236,9.273202 -1.1445,7.198855 -1.89446,8.404719 -4.75835,19.666946 1.3036,5.053295 -2.61483,-6.863506 -4.26483,-8.113137 z"
         id="path759"
         sodipodi:nodetypes="sssssssscccsssssssscccssssssssccss" />
      <path
         style="fill:#030303"
         d="M 88.659748,207.01387 C 58.659846,201.59748 32.488177,181.88871 18.925521,154.5 12.560659,141.64666 9.957762,131.51398 9.2924774,117 8.0887811,90.739933 17.11169,67.188141 35.804774,47.797031 48.977774,34.132132 63.186735,25.665338 81.066832,20.826408 88.053363,18.935628 91.987349,18.547688 104,18.564917 c 12.54188,0.01799 15.98547,0.39829 25.5,2.816157 10.79582,2.743474 22.06105,7.606569 28,12.087339 5.29318,3.993552 20.69807,20.308844 24.79798,26.263488 5.58847,8.116626 11.16641,20.304187 13.85294,30.268099 3.3259,12.33521 3.3393,33.87274 0.0286,46 -9.28302,34.00449 -35.40887,60.22173 -68.89577,69.13678 -8.72479,2.32276 -30.337872,3.37313 -38.624032,1.87709 z M 124.94243,193.8957 C 146.87783,188.31128 167.02192,172.37786 177.90974,152 192.12352,125.39725 190.22616,91.366651 173.12515,66.184289 168.13894,58.841769 156.19019,46.80718 154.28501,47.208798 153.52524,47.368959 141.93036,64.825 128.51859,86 l -24.38502,38.5 21.93321,0.26913 L 148,125.03826 V 134.51913 144 l -28.25,0.0408 -28.25,0.0408 -4.446479,7.20919 c -2.445564,3.96505 -8.408064,13.36556 -13.25,20.89001 C 68.961584,179.70528 65,186.10863 65,186.4105 c 0,2.08961 17.752444,8.13585 28.060575,9.55704 8.639735,1.19118 22.638045,0.2815 31.881855,-2.07184 z M 151,134.5 c 0,-9.46667 0.009,-9.5 2.5,-9.5 2.49123,0 2.5,0.0333 2.5,9.5 0,9.46667 -0.009,9.5 -2.5,9.5 -2.49123,0 -2.5,-0.0333 -2.5,-9.5 z m 8,0 c 0,-8.83333 0.14035,-9.5 2,-9.5 1.85965,0 2,0.66667 2,9.5 0,8.83333 -0.14035,9.5 -2,9.5 -1.85965,0 -2,-0.66667 -2,-9.5 z m -9.87801,-15.03919 c -0.72196,-1.99655 -1.29502,-5.90678 -1.27347,-8.6894 0.04,-5.15917 0.23917,-5.64816 8.99293,-22.075221 C 160.36296,82.087822 161,79.991819 161,75.013576 c 0,-5.115679 0.27582,-5.966344 2.12485,-6.553201 2.76642,-0.878028 3.50768,0.43233 4.894,8.651358 1.56266,9.264524 0.12542,15.914507 -6.45966,29.888267 -2.98064,6.325 -5.56715,12.4 -5.74781,13.5 -0.21028,1.28032 -1.23676,2.10631 -2.85261,2.29545 -2.10195,0.24604 -2.74367,-0.3117 -3.83678,-3.33464 z M 157.47603,104.75 c 3.8257,-8.13662 6.94096,-16.75 6.05809,-16.75 -0.59945,0 -8.47313,13.57227 -9.9886,17.21788 -1.5174,3.65025 -2.09129,8.78212 -0.98209,8.78212 0.30988,0 2.52055,-4.1625 4.9126,-9.25 z m -91.106073,56 L 76.934474,144 H 57.967237 39 v -9.48283 -9.48283 L 64.241557,124.76717 89.483113,124.5 116.17078,82.5 C 130.84899,59.4 142.89029,40.137737 142.92922,39.694971 143.0497,38.324709 132.12228,33.992331 123.09683,31.832049 113.15895,29.453374 98.073896,29.078439 88,30.959726 60.901716,36.020294 36.118485,56.792912 26.161022,82.791445 21.845272,94.059693 20.616433,101.1083 20.720191,114 c 0.18695,23.22821 8.322571,42.2356 25.170076,58.80527 6.035339,5.93581 7.66091,7.06058 8.671468,6 0.684038,-0.7179 5.997738,-8.84277 11.808222,-18.05527 z"
         id="path757" />
    </g>
  </g>
</svg>
