<?xml version="1.0" encoding="UTF-8" standalone="no"?>
<!-- Created with Inkscape (http://www.inkscape.org/) -->

<svg
   version="1.1"
   id="svg835"
   width="198.38588"
   height="204.86435"
   viewBox="0 0 198.38588 204.86435"
   sodipodi:docname="ãƒ.png"
   xmlns:inkscape="http://www.inkscape.org/namespaces/inkscape"
   xmlns:sodipodi="http://sodipodi.sourceforge.net/DTD/sodipodi-0.dtd"
   xmlns="http://www.w3.org/2000/svg"
   xmlns:svg="http://www.w3.org/2000/svg">
  <defs
     id="defs839" />
  <sodipodi:namedview
     id="namedview837"
     pagecolor="#ffffff"
     bordercolor="#000000"
     borderopacity="0.25"
     inkscape:showpageshadow="2"
     inkscape:pageopacity="0.0"
     inkscape:pagecheckerboard="0"
     inkscape:deskcolor="#d1d1d1"
     showgrid="false" />
  <g
     inkscape:groupmode="layer"
     inkscape:label="Image"
     id="g841"
     transform="translate(-13.701402,-74)">
    <g
       id="g845">
      <path
         style="fill:#adadad"
         d="m 197.8368,266.97073 c 0.89512,0 -21.83397,-43.20779 -31.24833,-60.03932 C 155.66858,187.40823 147.08153,173.42457 145.99313,172.07627 145.49361,171.45748 134,154.8302 134,153.61909 c 0,-0.3405 0.97263,-1.64875 1.74191,-1.64875 3.53968,0 31.95835,46.47845 55.48647,92.16286 9.13664,17.74057 13.67245,21.38263 12.50177,21.83186 -0.82144,0.31522 -4.94486,1.1931 -5.55603,1.0991 -0.11567,-0.0153 -0.22488,-0.0623 -0.33732,-0.0934 z M 16.081457,259.92804 c -2.570175,-2.81398 -2.856604,-3.6086 -1.8164,-5.03907 C 21.539519,244.88523 35.342199,223.74669 41.943473,212.5 51.864834,195.59683 70.543839,155.24859 72,152.10964 c 2.083551,-5.70864 4.348462,-9.60548 2.483627,-10.5669 -0.646057,-0.30194 2.700876,-0.11629 2.835444,0.26873 1.007789,2.88346 8.191021,3.47762 8.191021,4.09637 0,1.17427 -23.521797,44.5984 -31.604458,59.09215 -8.99063,16.12191 -27.946092,48.14139 -32.491454,54.88442 l -1.900023,3.8039 -3.4327,-3.76028 z m 185.795603,-3.37296 c -16.69832,-34.13283 -39.00857,-77.95525 -54.9783,-101.70564 l -5.92098,-8.80576 2.76111,-0.61479 c 1.51861,-0.33813 3.60496,-0.84617 4.63634,-1.12897 1.21296,-0.33259 0.83124,-0.19705 1.18676,0.59977 0.61172,3.02232 2.36413,5.55806 3.43801,8.34991 0.28118,0.74092 4.19316,7.92301 9.31814,15.84563 14.52289,22.45071 27.05085,44.19785 42.02819,72.95629 8.15303,15.65487 8.53659,16.67062 7.08014,18.75 -0.84693,1.20916 -4.08826,3.11532 -4.76402,3.11532 -0.67577,0 -2.96918,-3.64926 -4.78539,-7.36176 z M 30.144759,256.7839 C 37.57775,245.52463 62.900864,204.96621 73.891522,184 c 3.892244,-7.425 6.922137,-14.07506 6.930847,-13.65732 0.03218,1.54357 -19.822243,41.5673 -26.832552,53.65732 -7.602212,13.11082 -27.80437,43.72131 -28.60569,43.31356 -3.072738,-1.56356 3.762131,-9.01716 4.760632,-10.52966 z"
         id="path849"
         sodipodi:nodetypes="sssssssccssssccssccssssssssccsssssssssss" />
      <path
         style="fill:#0d0d0d"
         d="m 95.515218,272.28135 c -2.185414,-5.724 -3.022902,-9.8673 -3.341521,-16.5315 l -0.425183,-8.89307 5.667582,-5.48949 c 5.503224,-5.33029 19.980594,-15.36688 22.166484,-15.36716 0.59542,-7e-5 5.88841,7.08737 11.76219,15.74987 12.22049,18.02247 14.14131,23.20608 11.56691,31.21501 -2.41076,7.49986 -3.54455,5.96541 -3.10289,-4.19938 l 0.40258,-9.26563 -6.96769,-10.56612 c -3.83223,-5.81136 -8.65375,-12.3999 -10.71449,-14.64118 l -3.74681,-4.07508 -6.89173,3.54514 c -4.1541,2.13689 -8.92087,5.69065 -11.999925,8.9463 l -5.1082,5.40117 0.408036,10.69488 c 0.320854,8.40978 0.862173,11.56294 2.53351,14.75759 1.169011,2.23449 1.806426,4.57894 1.416479,5.20989 -0.399539,0.64646 -1.981893,-2.18678 -3.625332,-6.49124 z M 70.569219,275.25 c 2.506667,-11.35037 7.393378,-21.31466 13.779378,-28.09698 1.733272,-1.84084 10.179815,-8.91221 18.770093,-15.71417 l 15.61869,-12.36718 5.23413,-11.78584 c 7.37201,-16.59979 7.31821,-17.9647 -1.42019,-36.03363 -3.7826,-7.82152 -7.59158,-14.43591 -8.46439,-14.69866 -3.5986,-1.0833 -14.936737,-2.53894 -19.831041,-2.54599 L 89.011779,154 80.981524,170.0369 c -17.832387,35.61234 -43.569306,80.10279 -57.3823,99.19463 l -3.423274,4.73153 -2.32684,-1.88416 -2.326841,-1.88416 2.442115,-4.34737 c 1.343164,-2.39105 5.78192,-9.73009 9.863902,-16.30898 13.563481,-21.86011 30.345904,-51.74007 43.443771,-77.34868 14.632335,-28.60877 14.341385,-26.32091 3.783726,-29.75297 -3.055681,-0.99333 -4.820338,-1.97093 -3.921461,-2.17244 0.898877,-0.20152 4.144356,0.48099 7.212175,1.51668 l 5.577852,1.88307 -0.541852,-9.58203 -0.541852,-9.58202 2.057442,2.5 c 1.131593,1.375 2.067447,2.9125 2.079677,3.41667 0.01223,0.50416 0.265519,0.67338 0.562865,0.37603 0.297346,-0.29734 -0.103906,-3.63484 -0.891671,-7.41666 -2.131347,-10.23195 -3.87957,-22.47876 -3.292613,-23.06572 0.283786,-0.28378 2.273662,2.97734 4.421946,7.24695 l 3.905973,7.76293 0.615212,-4.48846 c 0.338366,-2.46866 0.896306,-9.4032 1.239865,-15.410101 C 93.882901,89.414737 94.383888,83.825 94.652647,83 c 0.611685,-1.877673 3.909807,7.287569 5.462563,15.180053 0.63502,3.227757 1.46809,6.062417 1.85127,6.299227 0.38318,0.23682 1.48799,-2.13664 2.45514,-5.274349 0.96714,-3.137712 2.79669,-7.954931 4.06565,-10.704931 1.26896,-2.75 2.87468,-6.9125 3.56825,-9.25 2.32412,-7.832744 3.48306,-5.497912 4.50478,9.075426 0.37887,5.403984 1.02032,9.453984 1.42545,9 0.40513,-0.453984 2.45003,-5.212926 4.54421,-10.575426 2.09419,-5.3625 4.2298,-9.75 4.74581,-9.75 1.09399,0 1.11478,-0.06275 -5.04799,15.238041 -2.60028,6.455923 -5.0211,11.743419 -5.37959,11.749999 -0.63504,0.0117 -1.10368,-3.62522 -2.44275,-18.956535 l -0.65231,-7.468494 -5.88434,16.892942 c -3.2364,9.291117 -6.03075,17.039347 -6.20969,17.218277 -0.17894,0.17894 -1.35023,-4.51206 -2.602879,-10.42444 C 97.803575,95.337404 96.434204,89.868014 96.013175,89.095587 95.592147,88.32316 94.854443,95.475919 94.373834,104.99061 L 93.5,122.29004 l -3.991989,-7.5697 c -2.195594,-4.16333 -4.118511,-7.44317 -4.273149,-7.28854 -0.154638,0.15464 1.079257,6.66147 2.741989,14.45963 C 91.433889,138.10482 91.279981,137 90.081559,137 c -0.505142,0 -1.906472,-1.59867 -3.114067,-3.5526 -1.207595,-1.95393 -2.354344,-3.39388 -2.548332,-3.19989 -0.193988,0.19398 0.208162,3.70515 0.893666,7.8026 l 1.246372,7.44989 17.387972,2.71091 17.38796,2.71091 8.2952,-3.56359 c 4.56236,-1.95997 8.69246,-4.07987 9.178,-4.7109 0.48554,-0.63103 2.82415,-4.74733 5.1969,-9.14733 3.69653,-6.85479 3.94847,-7.66714 1.75993,-5.67479 -1.40479,1.27886 -2.77204,1.95386 -3.03832,1.5 -0.26629,-0.45387 0.57495,-4.42521 1.86941,-8.82521 1.29446,-4.4 2.23005,-8.40441 2.07909,-8.89868 -0.15095,-0.49428 -1.60216,1.64215 -3.2249,4.74762 -1.62274,3.10547 -3.28794,5.64738 -3.70044,5.64868 -0.4125,0.001 -0.78553,-8.21012 -0.82895,-18.24762 -0.0824,-19.043674 -0.43071,-19.597748 -3.45775,-5.5 -0.91523,4.2625 -2.01092,7.75 -2.43485,7.75 -0.89429,0 -1.70063,-5.72041 -2.64735,-18.78111 -0.37002,-5.10461 -1.05713,-9.518668 -1.52693,-9.809017 C 127.46254,76.549797 127.88167,74 129.41468,74 c 1.04061,0 1.59071,2.049237 2.08041,7.75 0.36615,4.2625 1.00071,9.775 1.41013,12.25 l 0.7444,4.5 1.26872,-6 c 0.69779,-3.3 1.71458,-8.140601 2.25953,-10.756891 1.52372,-7.315358 2.81023,-4.655619 2.93406,6.065908 0.0616,5.330041 0.39906,13.927543 0.75,19.105563 l 0.63807,9.41457 3.92969,-7.18488 c 2.34457,-4.28671 4.29472,-6.81986 4.83463,-6.27995 0.81171,0.81171 0.0485,4.24628 -4.2383,19.07289 l -0.99379,3.43722 3.96553,-3.87224 c 2.18104,-2.12973 4.23313,-3.60463 4.56021,-3.27755 0.32708,0.32707 -2.36466,5.94734 -5.98164,12.48948 C 143.95935,137.25625 141,142.85378 141,143.15307 c 0,0.89359 10.93415,-1.09872 14.72669,-2.68334 4.85758,-2.02963 5.46774,-1.76885 1.27331,0.54421 -3.27028,1.80342 -6.56857,2.89968 -13.26111,4.40762 l -2.76111,0.62212 5.92098,8.80576 c 7.95567,11.83177 17.4021,27.20312 25.289,41.15056 C 185.08268,218.8038 209,264.8996 209,266.94816 c 0,0.53981 -0.93743,1.48317 -2.08319,2.09636 -1.66055,0.8887 -2.46983,0.76498 -3.98898,-0.60983 -1.04819,-0.9486 -7.14464,-11.89697 -13.54768,-24.32971 C 177.30202,220.65292 166.3766,200.62053 157.69043,186 c -8.40697,-14.15057 -20.91428,-33.03814 -21.83949,-33.03814 -0.4786,0 -3.27019,1.13327 -6.29675,2.47176 l -5.50285,2.43362 2.46145,5.56575 c 1.35379,3.06117 3.96038,8.60354 5.79242,12.31639 6.64414,13.46513 6.64253,13.42687 1.15679,27.44082 -7.48253,19.11498 -8.02369,16.91295 11.288,45.93211 8.9375,13.43014 16.25,24.74677 16.25,25.14806 0,3.31956 -4.92122,-3.0805 -19.95854,-25.95615 l -17.45853,-26.55895 2.09372,-5.62764 c 1.15154,-3.09519 3.8791,-10.15711 6.06123,-15.69313 l 3.96751,-10.0655 -4.8019,-9.4345 c -2.64104,-5.18898 -4.82475,-9.10361 -4.85269,-8.6992 -0.0279,0.40442 1.80413,4.47547 4.07127,9.04678 l 4.12206,8.31147 -6.68416,15.5816 -6.68417,15.5816 -16.93136,13.19905 C 94.290323,241.48178 85.647975,249.05571 83.837016,251.57742 82.090185,254.00984 80.348698,256 79.967044,256 c -0.988908,0 -5.643425,10.83488 -6.443797,15 -1.077208,5.60578 -1.596992,7 -2.609687,7 -0.523415,0 -0.678369,-1.2375 -0.344341,-2.75 z"
         id="path847"
         sodipodi:nodetypes="sscssssscsscsscssssssscsssscsscccsssssscccsssssscssssssscssssscscssssscssssssscccsssssssscsssssssscsscscssscssssssscssssssssscsssssscsscssscccssssss" />
    </g>
  </g>
</svg>
