<?xml version="1.0" encoding="UTF-8" standalone="no"?>
<!-- Created with Inkscape (http://www.inkscape.org/) -->

<svg
   version="1.1"
   id="svg925"
   width="355.5"
   height="215.80002"
   viewBox="0 0 355.5 215.80002"
   sodipodi:docname="ヒ.png"
   xmlns:inkscape="http://www.inkscape.org/namespaces/inkscape"
   xmlns:sodipodi="http://sodipodi.sourceforge.net/DTD/sodipodi-0.dtd"
   xmlns="http://www.w3.org/2000/svg"
   xmlns:svg="http://www.w3.org/2000/svg">
  <defs
     id="defs929" />
  <sodipodi:namedview
     id="namedview927"
     pagecolor="#ffffff"
     bordercolor="#000000"
     borderopacity="0.25"
     inkscape:showpageshadow="2"
     inkscape:pageopacity="0.0"
     inkscape:pagecheckerboard="0"
     inkscape:deskcolor="#d1d1d1"
     showgrid="false" />
  <g
     inkscape:groupmode="layer"
     inkscape:label="Image"
     id="g931"
     transform="translate(-17.5,-8.1999807)">
    <g
       id="g935">
      <path
         style="fill:#aeaeae"
         d="m 253.75,216.25179 c 8.9375,-0.16573 23.5625,-0.16573 32.5,0 8.9375,0.16574 1.625,0.30134 -16.25,0.30134 -17.875,0 -25.1875,-0.1356 -16.25,-0.30134 z M 69,196.9413 C 54.753803,196.19855 44.166739,194.77429 39.388912,192.95776 L 36.971453,192.03865 37.235726,160.76932 37.5,129.5 39.75,129.18045 42,128.8609 v 24.0225 c 0,15.14267 0.401144,24.90291 1.085212,26.40428 0.596867,1.30998 2.353799,3.13115 3.904292,4.04705 C 49.531061,184.83606 55.429344,185 106.90429,185 H 164 v 2.62244 c 0,1.95565 0.20801,6.9297 -0.72416,6.19651 -0.83582,-0.6574 -2.83304,-5.09662 -4.96644,-4.20105 -2.92835,1.22927 -3.14363,1.62879 -2.61916,4.86073 l 0.83436,4.74832 -36.55612,0.28684 C 99.959461,199.67079 76.975,197.35709 69,196.9413 Z M 27.27568,188.75 c -1.548812,-2.83477 -6.548082,-6.63222 -6.82034,-29.72241 -0.19717,-16.72194 0.629416,-29.14667 -0.145495,-29.85334 -2.05465,-1.87372 -2.454076,-2.12413 0.331013,-1.45287 L 30.094991,130 29.797495,160.99429 c -0.163622,17.04687 2.581297,31.87326 2.457921,31.87639 -0.123376,0.003 -4.003112,-2.33318 -4.979736,-4.12068 z M 24,119.10841 C 24,116.84878 24.45,115 25,115 c 0.55,0 1,0.675 1,1.5 0,0.93333 0.944444,1.5 2.5,1.5 1.555556,0 2.5,-0.56667 2.5,-1.5 0,-0.825 0.45,-1.5 1,-1.5 0.55,0 1,0.45 1,1 0,0.55 1.125,1 2.5,1 1.555556,0 2.5,-0.56667 2.5,-1.5 0,-0.825 0.675,-1.5 1.5,-1.5 0.825,0 1.5,0.6126 1.5,1.36133 0,0.81135 0.865172,-0.43801 2.20618,-0.57132 1.415346,-0.14071 1.563448,-0.14624 0.399242,0.13378 -1.307679,0.3145 -1.366846,2.87894 -1.372896,4.51226 -0.02266,6.1175 0.132048,2.27902 -6.649243,2.4694 -3.895805,0.10937 -8.095783,0.44917 -9.333283,0.75511 -2.058491,0.50891 -2.25,0.20657 -2.25,-3.55215 z M 25,68.5 V 27 h 8.486698 8.486698 L 42.236698,60.75 42.5,94.5 l 6,-0.298071 c 24.166924,-1.200576 66.4309,-9.391259 93.68728,-18.15643 l 8.73719,-2.809723 1.39323,2.132112 c 0.76628,1.172662 2.35778,4.025705 3.53666,6.340098 l 2.14342,4.207985 -6.74889,1.993253 C 132.48514,93.451012 105.2913,99.580454 82.5,103.4051 67.16479,105.97853 34.04743,113.52194 28.600557,111.40161 L 25,110 Z"
         id="path939"
         sodipodi:nodetypes="sssssscccccsssscsssscsssssscscssssssssssssscssssccccccsscsscssscc" />
      <path
         style="fill:#080808"
         d="m 249,222.95107 c -37.16178,-0.60269 -41.20061,-0.83739 -49,-2.84745 -10.452,-2.69369 -25.08481,-9.25334 -30.6683,-13.7481 C 167.03914,204.50998 165.0054,203 164.81227,203 c -0.19312,0 -0.18307,3.32818 0.0223,7.39595 0.32949,6.52471 0.11953,7.64991 -1.78225,9.55169 -2.11949,2.11949 -2.53733,2.1454 -24.85405,1.5413 -91.601357,-2.47958 -89.043038,-2.24033 -97.026482,-9.07386 -4.682177,-4.00777 -7.310446,-8.52964 -10.332444,-17.77674 -1.894037,-5.79561 -1.967665,-7.76868 -1.318678,-35.33792 L 30.208072,130.10084 23.854036,129.80042 17.5,129.5 17.716828,122 c 0.119255,-4.125 0.264703,-28.868591 0.323216,-54.985757 0.07062,-31.519101 0.459182,-47.910848 1.155617,-48.75 C 19.772737,17.568909 21.314789,17 22.622445,17 H 25 V 63.5 110 l 3.25,-6.2e-4 c 12.849689,-0.002 59.215008,-6.86364 85.25,-12.615428 21.35649,-4.718186 66.35017,-17.089244 69.39312,-19.079712 0.21622,-0.141433 -1.72181,-5.580481 -4.30672,-12.086773 -2.58492,-6.506292 -7.99613,-22.028446 -12.02492,-34.493675 -6.5338,-20.215862 -7.13701,-22.7237384 -5.58415,-23.216597 3.97944,-1.2630235 4.96554,0.547546 11.62722,21.348453 7.81134,24.390676 13.80891,39.976669 20.60089,53.535824 4.90323,9.788552 5.08126,11.390028 1.29456,11.645321 -3.0098,0.202915 11.36488,4.347962 27.5,7.929837 60.549,13.4414 94.18944,25.6331 117,42.40222 22.59228,16.60866 34,38.29488 34,64.63445 0,8.31524 -0.20862,9.29622 -2.45455,11.54215 L 368.09091,224 328.79545,223.80395 C 307.18295,223.69613 271.275,223.31233 249,222.95107 Z M 366.36971,214.75 c 0.86902,-3.24273 0.73844,-9.03113 -0.23849,-10.57193 -0.66368,-1.04673 -1.96158,-1.10368 -6.23469,-0.27357 -14.08381,2.73599 -49.74378,3.43429 -114.29245,2.2381 -35.14276,-0.65125 -64.10001,-0.98001 -64.34944,-0.73058 -0.90818,0.90818 10.13167,5.77041 17.59125,7.74764 10.77288,2.85544 28.604,3.49065 103.28748,3.67946 L 365.76674,217 Z m -208.38502,-3 c -0.0294,-6.23949 2.64439,-5.88121 -50.6071,-6.7811 -43.563846,-0.73618 -63.753811,-1.84732 -66.704616,-3.67101 -0.528484,-0.32662 -0.108601,0.85382 0.933073,2.6232 2.553071,4.33662 7.075087,6.95362 14.072466,8.14405 5.508521,0.93714 52.207647,2.43565 86.571487,2.77797 L 158,215 l -0.0153,-3.25 z m 171.06928,-12.72059 c 23.2756,-0.97469 34.79213,-2.46478 35.61459,-4.60809 0.73651,-1.91931 -2.30813,-10.7456 -6.52693,-18.92132 C 353.93642,167.35062 341.81577,154.51569 332.5,148.34728 307.2977,131.65965 280.02756,122.45609 208.58126,106.52522 L 178.66252,99.854027 159.58126,105.4689 C 115.42543,118.46223 85.735838,124.47379 44.5,128.7706 l -7,0.7294 v 31.45603 31.45602 l 4.295751,1.24374 c 8.971018,2.59735 24.126668,3.49246 68.608249,4.05211 l 45.90401,0.57755 -0.5946,-3.6641 c -0.55171,-3.39976 -0.36443,-3.76018 2.59599,-4.99609 3.14126,-1.31139 3.26018,-1.25754 7.6906,3.48286 l 4.5,4.81484 56.5,0.86677 c 80.54783,1.23569 78.39036,1.23062 102.05397,0.23968 z M 41,121.46993 c 37.256579,-2.15872 91.57778,-14.00656 146.78497,-32.014849 1.01152,-0.329951 0.95285,-1.061402 -0.27568,-3.437116 -1.78754,-3.456727 -2.09945,-3.570663 -4.15305,-1.517066 -0.90413,0.90413 -2.41227,1.272159 -3.79303,0.925609 -1.58354,-0.397443 -2.48836,-0.06396 -2.92685,1.078738 -0.48221,1.256622 -1.3557,1.49567 -3.63553,0.994935 C 170.73361,87.002218 170,87.198706 170,88.303913 c 0,1.670071 -3.71007,2.974213 -4.55802,1.602207 C 164.58238,88.515267 163,88.830769 163,90.393011 c 0,1.887628 -2.94666,2.896147 -4.55701,1.559675 -0.97976,-0.813131 -1.57794,-0.569049 -2.40843,0.982747 C 154.92883,95.001508 151,95.856758 151,94.031385 c 0,-0.532739 -0.66077,-0.715054 -1.46838,-0.405145 -0.80761,0.309909 -1.37011,1.072603 -1.25,1.694875 0.12011,0.622271 -0.79412,1.285884 -2.03162,1.474695 -1.2375,0.188811 -2.25,-0.123883 -2.25,-0.694874 0,-0.570992 -0.66077,-0.784605 -1.46838,-0.474696 -0.80761,0.309909 -1.37011,1.056561 -1.25,1.659225 0.32709,1.641245 -3.40813,2.117051 -4.41915,0.562928 -0.68706,-1.056138 -1.29948,-0.806535 -2.82554,1.151607 -1.69367,2.17321 -2.2138,2.33661 -3.97907,1.25 C 127.45907,98.650332 127,98.677747 127,100.43261 c 0,1.7837 -4.25745,3.29505 -4.7891,1.70009 -0.20766,-0.62299 -1.00094,-1.1327 -1.76285,-1.1327 -0.82052,0 -1.15061,0.61153 -0.80968,1.5 0.31659,0.825 0.11427,1.5 -0.44959,1.5 -0.56386,0 -1.73701,0.27314 -2.60699,0.60699 -1.02993,0.39522 -1.58179,0.0573 -1.58179,-0.96862 0,-0.98969 -0.5578,-1.36155 -1.5,-1 -0.825,0.31659 -1.5,1.20246 -1.5,1.96862 0,0.76615 -0.9,1.39301 -2,1.39301 -1.1,0 -2,-0.45 -2,-1 0,-0.55 -0.675,-1 -1.5,-1 -0.825,0 -1.5,0.62686 -1.5,1.39301 C 105,106.70327 102.9697,108 100.91821,108 100.4132,108 100,107.33912 100,106.53138 c 0,-0.8659 -0.589673,-1.24233 -1.436858,-0.91724 -0.790271,0.30326 -1.192126,1.18914 -0.893011,1.96862 C 98.053729,108.5824 97.44581,109 95.606989,109 94.173145,109 93,108.55 93,108 c 0,-0.55 -0.885877,-1 -1.968615,-1 -1.255019,0 -1.778247,0.49609 -1.443443,1.36858 0.311592,0.81199 -0.311203,1.58729 -1.531384,1.90638 C 86.701083,110.62942 86,110.33332 86,109.40638 86,108.63287 85.325,108 84.5,108 83.675,108 83,108.62686 83,109.39301 83,110.73097 80.960986,112 78.811224,112 c -0.563861,0 -0.76618,-0.675 -0.449598,-1.5 0.360274,-0.93886 -0.0088,-1.5 -0.98663,-1.5 -0.85923,0 -1.797591,0.9 -2.085247,2 -0.289465,1.10692 -1.364016,2 -2.40638,2 -2.12022,0 -2.54464,-1.5665 -0.633369,-2.33772 0.6875,-0.27741 0.195371,-0.53991 -1.09362,-0.58333 -1.542867,-0.052 -2.522318,0.6044 -2.866631,1.92105 -0.33846,1.29427 -1.364016,2 -2.90638,2 -2.521025,0 -3.241905,-1.48691 -1.133369,-2.33772 0.851375,-0.34354 0.77165,-0.52468 -0.25,-0.56802 -1.901656,-0.0807 -4.209389,1.35534 -4.045799,2.51754 0.06876,0.48851 -0.856144,1.0403 -2.055346,1.2262 -1.647951,0.25546 -2.031567,-0.0498 -1.570996,-1.25 0.923607,-2.40689 -1.846277,-1.9459 -3.528181,0.58718 -0.974941,1.46834 -2.010046,1.95807 -3.185354,1.50706 -0.957599,-0.36746 -1.461009,-1.12129 -1.118689,-1.67518 C 48.837954,113.45318 48.416476,113 47.559017,113 46.701558,113 46,113.62254 46,114.38342 c 0,0.76089 -1.125,1.59848 -2.5,1.86133 -1.676411,0.32047 -2.5,0.0294 -2.5,-0.88342 C 41,114.6126 40.325,114 39.5,114 c -0.825,0 -1.5,0.675 -1.5,1.5 0,0.93333 -0.944444,1.5 -2.5,1.5 -1.375,0 -2.5,-0.45 -2.5,-1 0,-0.55 -0.45,-1 -1,-1 -0.55,0 -1,0.675 -1,1.5 0,0.93333 -0.944444,1.5 -2.5,1.5 -1.555556,0 -2.5,-0.56667 -2.5,-1.5 0,-0.825 -0.45,-1.5 -1,-1.5 -0.55,0 -1,1.82039 -1,4.04531 0,4.00111 0.03552,4.03978 3.25,3.53916 1.7875,-0.27839 7.975,-0.77993 13.75,-1.11454 z"
         id="path937" />
    </g>
  </g>
</svg>
