<?xml version="1.0" encoding="UTF-8" standalone="no"?>
<!-- Created with Inkscape (http://www.inkscape.org/) -->

<svg
   version="1.1"
   id="svg1105"
   width="239.99416"
   height="265.56927"
   viewBox="0 0 239.99416 265.56927"
   sodipodi:docname="ヘ.png"
   xmlns:inkscape="http://www.inkscape.org/namespaces/inkscape"
   xmlns:sodipodi="http://sodipodi.sourceforge.net/DTD/sodipodi-0.dtd"
   xmlns="http://www.w3.org/2000/svg"
   xmlns:svg="http://www.w3.org/2000/svg">
  <defs
     id="defs1109" />
  <sodipodi:namedview
     id="namedview1107"
     pagecolor="#ffffff"
     bordercolor="#000000"
     borderopacity="0.25"
     inkscape:showpageshadow="2"
     inkscape:pageopacity="0.0"
     inkscape:pagecheckerboard="0"
     inkscape:deskcolor="#d1d1d1"
     showgrid="false" />
  <g
     inkscape:groupmode="layer"
     inkscape:label="Image"
     id="g1111"
     transform="translate(-11.392846,-12.327389)">
    <g
       id="g1115">
      <path
         style="fill:#acacac"
         d="M 173,86.208055 C 153.38495,73.062356 140.02476,63.328428 126,51.964939 115.33029,43.319858 100.63096,31.646068 100.1859,30.455746 c -0.353758,-0.946133 12.88644,-7.083251 13.70376,-6.26594 0.31573,0.315737 1.63387,0.789046 0.89287,0.789046 -3.70624,0 42.96044,39.57124 70.21747,59.99005 4.675,3.50214 8.68927,6.518606 8.92061,6.703256 0.23134,0.18465 -0.69047,1.268983 -1.75915,2.655972 -4.0871,5.304471 -3.01574,3.536436 -2.64404,3.908133 C 191.29471,100.01356 189.19978,97.064895 173,86.208055 Z M 32.996961,72.490791 C 29.735223,69.387444 32.310874,71.893879 29.355065,68.956829 43.534467,53.975389 62.39646,40.619938 75.766233,26.542206 81.962662,19.918993 88.457074,13.902786 90.19826,13.172857 c 4.083443,-1.711833 8.918093,-0.787277 12.75183,2.438602 1.65493,1.392533 2.32854,1.916573 2.79331,2.384894 0.7225,0.728016 3.54647,3.055043 3.54647,3.815715 0,0.860411 -3.89572,-0.381244 -8.7174,1.050091 C 78.36621,29.454178 65.687965,38.543175 45.743392,60.42584 36.683631,70.365974 34.12597,71.653722 34.622203,73.630873 c 0.920959,3.669393 1.608733,1.449276 -1.625242,-1.140082 z m 13.428274,0.388237 C 45.595217,71.53603 55.808368,59.322894 62.717984,53.395761 69.3258,47.727513 77.053135,41.143057 81.351444,38.43824 c 2.537335,-1.596681 5.231277,-4.710243 1.158747,0.0567 -3.199905,2.505856 0.704872,-0.540998 -25.923753,26.217091 -13.364115,13.360464 -9.836634,8.692158 -10.161203,8.166994 z"
         id="path1119"
         sodipodi:nodetypes="sssssssssscccssssssscsssccss" />
      <path
         style="fill:#070707"
         d="m 246.07231,275.6902 c -0.483,-1.27039 -5.89243,-18.60588 -12.02096,-38.52331 l -11.14277,-36.2135 2.11046,-7.52123 c 1.16075,-4.13667 1.96882,-8.12732 1.79571,-8.8681 -0.17311,-0.74078 -10.38788,-8.82817 -22.69948,-17.97198 l -22.38473,-16.62511 -3.8278,7.86631 c -4.00672,8.23398 -9.83235,14.60898 -14.39694,15.75462 -2.99023,0.7505 -7.62682,-0.95916 -10.14374,-3.74032 -1.51965,-1.67919 -1.56946,-2.10137 -0.33775,-2.8626 0.98263,-0.60731 2.11008,-0.26791 3.52468,1.06105 5.26309,4.94441 12.65989,0.1165 18.35608,-11.98104 3.87534,-8.23045 5.41308,-15.7276 4.89493,-23.86496 -0.36714,-5.76584 -0.75819,-6.77348 -3.62157,-9.33191 -3.88214,-3.46869 -7.85529,-3.7025 -15.39092,-0.90568 -6.26358,2.32469 -6.32007,2.31776 -15.28751,-1.87635 -13.19781,-6.17267 -40.73795,-17.05706 -41.68208,-16.47356 -0.51917,0.32087 -1.7295,-0.12752 -2.68962,-0.99642 -0.96012,-0.86889 -8.46926,-4.11895 -16.686984,-7.222347 C 69.574017,89.779177 69.456654,89.753696 60.75,90.250064 55.9375,90.524425 52,90.403544 52,89.98144 52,88.879448 54.699357,88 58.081787,88 61.963025,88 61.789734,86.588025 57.75,85.296599 55.9625,84.725169 51.460437,83.094058 47.745416,81.671907 l -6.754583,-2.58573 -1.495417,3.579036 c -1.998673,4.783498 -1.971113,23.078757 0.05219,34.645737 l 1.541217,8.81096 -11.169039,18.18904 c -6.142971,10.00398 -11.346556,18.49749 -11.563522,18.87448 -0.216966,0.37699 2.728128,2.32632 6.544653,4.33184 8.46168,4.44649 18.447026,13.28427 21.277244,18.83195 4.142278,8.11954 9.643019,24.34769 11.719466,34.57447 1.164035,5.73303 2.258351,10.56562 2.431815,10.73908 0.173464,0.17347 13.91878,1.37236 30.545146,2.6642 22.194684,1.72449 30.605324,2.72437 31.642734,3.76178 0.77714,0.77714 4.12377,9.1911 7.43694,18.69768 4.81946,13.82862 5.73789,17.39447 4.59326,17.83371 -3.96635,1.52203 -4.99987,0.004 -10.43035,-15.31924 -3.29184,-9.28869 -6.01102,-15.43948 -7,-15.83402 C 116.22773,243.11205 103.35,241.93813 88.5,240.85819 73.65,239.77824 60.493192,238.6862 59.26265,238.43144 55.813023,237.71727 54.30835,234.46996 51.648967,222 c -1.34889,-6.325 -4.353057,-16.45 -6.675927,-22.5 -3.792475,-9.87764 -4.848332,-11.61494 -10.34822,-17.02691 -3.885568,-3.82346 -9.138376,-7.58801 -14.367521,-10.29683 -5.847149,-3.02896 -8.409842,-4.93586 -8.817807,-6.56132 -0.43658,-1.73947 2.121891,-6.6754 10.62172,-20.49194 l 11.196827,-18.20053 -0.622285,-7.71124 C 30.862457,97.236869 30.842318,91.499873 32.512153,84 33.430578,79.875 34.205399,75.257615 34.233978,73.739145 34.297151,70.382608 51.909716,50.573307 62.625782,41.806159 80.239227,27.396051 99.57405,19.629379 122.43167,17.782525 140.89333,16.290857 166.73977,17.30416 176.5,19.90226 c 27.8804,7.42155 48.99796,26.593989 64.54272,58.59774 5.92154,12.191334 7.18155,19.880488 6.85865,41.85437 -0.22074,15.0208 -0.26983,15.31871 -5.95668,36.14563 -3.15376,11.55 -6.90649,24.98784 -8.3394,29.86187 C 232.17238,191.23589 231,197.52264 231,200.33242 c 0,3.65633 3.04597,15.0266 10.7142,39.99493 10.32896,33.6319 10.64569,34.93633 8.80887,36.27944 -2.63038,1.92338 -3.43392,1.7579 -4.45076,-0.91659 z M 233.28658,162.75 c 3.70747,-13.6239 6.38116,-26.47437 5.63531,-27.0849 C 238.68985,135.47515 232.2,131.56427 224.5,126.97423 166.81665,92.588727 129.96554,66.755368 101.9526,41.066076 L 93.072354,32.92244 88.786177,35.107019 C 81.657917,38.74015 71.922192,45.497077 64,52.309475 55.324562,59.769598 45.282772,71.698562 46.605686,72.972737 47.097559,73.446489 60.325,78.641967 76,84.518245 c 37.275,13.973733 61.17768,23.586355 73.39685,29.517055 8.03633,3.90051 10.35146,4.63069 12.3151,3.88412 1.33004,-0.50568 4.80327,-0.91942 7.71829,-0.91942 9.40306,0 13.8268,5.62733 14.07704,17.90702 l 0.15094,7.40701 22.42089,16.76991 c 12.33149,9.22344 22.68658,16.80278 23.01132,16.84298 0.32473,0.0402 2.213,-5.88942 4.19615,-13.17692 z m 7.54573,-53.04657 -0.41203,-18.296565 -5.13412,-10.453432 C 226.74612,63.565315 217.87504,51.462282 207.02715,42.398985 188.44251,26.871718 163.54471,20.929653 129.50903,23.898649 c -12.79744,1.116345 -28.87417,4.596821 -28.30198,6.12714 1.13466,3.034674 33.33478,29.321684 53.16102,43.398727 20.48351,14.543724 83.20612,54.297294 86.0041,54.509374 0.48071,0.0364 0.68724,-8.1461 0.46014,-18.23046 z M 60.554853,142.28235 c -0.342426,-0.89235 -0.147368,-1.91616 0.433463,-2.27513 0.696796,-0.43064 0.331292,-2.29112 -1.074415,-5.46896 C 57.83167,129.83103 57.806822,128.70434 59.609817,120.75 60.091028,118.62702 59.864561,118 58.616577,118 57.72746,118 57,117.325 57,116.5 c 0,-0.825 0.858728,-1.5 1.908285,-1.5 2.240403,0 36.766548,7.68746 39.365299,8.76492 1.310023,0.54315 -3.306088,3.27122 -17.661277,10.43761 -16.21028,8.0925 -19.53816,9.43308 -20.057454,8.07982 z M 78,131.5 c 6.875,-3.51785 12.122245,-6.41947 11.660545,-6.44804 C 89.198846,125.02338 82.978952,123.65 75.83856,122 60.912599,118.55091 62,118.70807 62,120 c 0,0.55 0.977067,1 2.171259,1 C 67.511727,121 70,123.86906 70,127.72073 70,132.72377 68.435311,135 64.996201,135 c -2.196652,0 -2.788859,0.37675 -2.357827,1.5 0.316582,0.825 1.089959,1.47662 1.718615,1.44804 C 64.985645,137.91947 71.125,135.01785 78,131.5 Z"
         id="path1117" />
    </g>
  </g>
</svg>
