<?xml version="1.0" encoding="UTF-8" standalone="no"?>
<!-- Created with Inkscape (http://www.inkscape.org/) -->

<svg
   version="1.1"
   id="svg1211"
   width="289.56592"
   height="254.66161"
   viewBox="0 0 289.56592 254.66161"
   sodipodi:docname="ホ.png"
   xmlns:inkscape="http://www.inkscape.org/namespaces/inkscape"
   xmlns:sodipodi="http://sodipodi.sourceforge.net/DTD/sodipodi-0.dtd"
   xmlns="http://www.w3.org/2000/svg"
   xmlns:svg="http://www.w3.org/2000/svg">
  <defs
     id="defs1215" />
  <sodipodi:namedview
     id="namedview1213"
     pagecolor="#ffffff"
     bordercolor="#000000"
     borderopacity="0.25"
     inkscape:showpageshadow="2"
     inkscape:pageopacity="0.0"
     inkscape:pagecheckerboard="0"
     inkscape:deskcolor="#d1d1d1"
     showgrid="false" />
  <g
     inkscape:groupmode="layer"
     inkscape:label="Image"
     id="g1217"
     transform="translate(-12.43407,-9.4891815)">
    <g
       id="g1221">
      <path
         style="fill:#b0b0b0"
         d="m 149.27698,263.7102 c -0.30832,-0.49887 -0.31498,-29.59851 -0.29161,-65.02691 0.0355,-53.84361 -0.18589,-64.60482 -1.34902,-65.57013 -1.00571,-0.83466 -12.93848,-1.13728 -43.04065,-1.0915 -22.907034,0.0348 -42.107282,-0.1384 -42.578753,-0.51119 -0.506318,-0.40034 0.03262,-13.48874 -0.161043,-5.73683 -0.03373,1.35002 6.778696,-0.0623 45.751086,0.99492 L 153,128 v 67.89301 c 0,58.76857 4.70466,67.26906 3.43398,67.75667 -0.80739,0.30982 -6.84868,0.55939 -7.157,0.0605 z m 11.33239,0.0721 c 1.67091,-0.24057 -8.57606,2.60134 -4.32991,-62.92987 L 161,128 h 46.39301 c 39.86592,0 46.90901,-3.11532 46.61477,1.21088 -0.21664,3.1852 1.68139,2.9511 -8.48478,2.86401 -15.25107,-0.22139 -33.43897,-0.063 -47.34154,-0.0749 -24.12326,0 -30.15729,0.26595 -31.07321,1.36957 -0.82388,0.99272 -1.1248,19.06314 -1.0936,65.67116 0.0237,35.36587 -0.30744,64.59685 -0.7358,64.95774 -0.42837,0.36089 -6.07168,-0.0143 -5.09436,-0.15496 z m -91.712824,-25.06826 -3.401654,-3.0848 25.870872,-37.2971 c 19.893426,-30.28356 21.951096,-39.48662 23.165666,-38.8366 1.50193,1.22852 8.0372,1.82576 6.84479,3.26977 -0.61808,0.40408 -3.03781,4.55969 -5.37717,9.23469 -12.37712,24.73449 -40.604064,69.13995 -43.837944,68.96404 -0.363608,-0.0198 -1.83266,-1.03228 -3.26456,-2.25 z M 231.44357,219.75 c -6.42714,-9.4875 -17.59374,-25.10158 -24.81464,-34.69795 -14.16819,-18.82909 -15.17168,-19.10517 -14.1247,-19.82212 0.56814,-0.38905 4.10036,-2.5122 4.5492,-3.31426 0.78694,-1.40617 6.45827,10.6638 43.37038,58.89287 l 10.50106,10.70824 -3.96285,3.13627 c -1.33913,1.05981 -2.77043,2.31248 -3.14737,2.32471 -0.37695,0.0122 -5.94393,-7.74026 -12.37108,-17.22776 z M 60.47072,231.95262 c -0.356023,-0.57605 2.026756,-4.51355 5.295065,-8.75 11.20294,-14.52146 26.028553,-37.676 36.175905,-56.49928 2.877,-5.33684 5.55251,-9.81565 5.89462,-9.68803 17.32045,6.46136 2.98331,2.53285 -20.840298,38.88809 -13.370182,20.40313 -21.86865,39.0921 -22.300003,39.0921 -0.431353,0 -3.869267,-2.46682 -4.225289,-3.04288 z m 166.28874,-36.55509 c -25.2336,-32.67985 -29.64851,-32.84284 -27.82652,-34.2807 4.28283,-3.3799 5.35287,-4.57483 6.36204,-2.91854 0.23787,0.3904 4.11344,6.79757 9.36152,13.36355 16.00133,20.01963 42.10303,56.19307 41.86484,56.37588 -0.48794,0.37448 -4.68497,2.86523 -5.31133,3.38507 -0.79617,0.66076 -5.82185,-11.79936 -24.45055,-35.92526 z M 209.66158,122.08718 161,119.98003 V 91.106644 c 0,-28.027582 -3.73835,-28.888694 -1.79795,-29.396133 1.09946,-0.287513 6.05034,-0.111156 6.36125,0.391904 0.3109,0.503061 0.52234,12.435317 0.46984,26.516125 -0.0679,18.20628 0.24259,26.00877 1.07478,27.0115 0.97495,1.17474 8.26542,1.39971 43.68935,1.34819 23.38551,-0.034 42.71405,-0.53727 42.70356,0.6357 -0.018,2.0081 0.99748,5.41061 -3.9664,4.52069 -0.55375,-0.0993 -15.91726,0.98988 -39.87285,-0.0474 z m -147.605773,1.29198 c -0.316431,-0.512 -0.643442,-5.51598 -0.09957,-5.85211 0.543875,-0.33614 19.838558,-0.58313 42.877073,-0.54887 34.88425,0.0519 42.08391,-0.17351 43.0586,-1.34794 0.83241,-1.00299 1.14283,-8.80336 1.07495,-27.0117 -0.0525,-14.080808 0.1729,-26.035657 0.50087,-26.566331 0.32798,-0.530673 5.36172,-0.506128 6.16911,-0.196305 C 156.8806,62.333181 153,66.626947 153,91.106989 V 120 l -45.44098,1.23144 c -26.956765,0.73053 -45.161788,2.70016 -45.503213,2.14772 z"
         id="path1225"
         sodipodi:nodetypes="ssscssscssssscssccsssssssscccsssssscsssssssssssssssssssssssssssssssssssscsssss" />
      <path
         style="fill:#080808"
         d="M 153,196.01009 V 128.02018 L 107.25,127.76009 61.5,127.5 v -3.5 -3.5 l 45.75,-0.26009 45.75,-0.26009 V 90.5573 c 0,-28.544266 0.0597,-29.441473 2,-30.0573 1.1,-0.349126 2.9,-0.349126 4,0 1.9403,0.615827 2,1.513034 2,30.057401 v 29.422629 l 46.25,0.25998 46.25,0.25999 0.31037,3.75 0.31036,3.75 H 207.56037 161 v 68 68 h -4 -4 z M 63.916126,234.7182 c -1.3824,-1.06324 1.550779,-6.00013 23.058954,-38.81094 23.01277,-35.10608 24.7933,-37.53709 26.91762,-36.75125 1.25114,0.46283 2.12461,1.21811 1.94105,1.67841 -0.86534,2.16991 -49.152024,75.16163 -49.703738,75.13378 -0.346507,-0.0175 -1.342755,-0.58 -2.213886,-1.25 z M 223.1654,199.00561 c -14.41649,-18.67964 -26.44685,-34.57547 -26.73411,-35.32408 -0.64962,-1.69286 2.33438,-4.35425 3.46362,-3.08915 1.35101,1.51357 51.63349,66.82442 52.3713,68.02397 0.37764,0.614 -0.11789,1.84443 -1.10118,2.7343 -1.68634,1.52611 -3.27559,-0.30978 -27.99963,-32.34504 z M 13.556412,196.09128 c -0.673283,-1.0894 72.571111,-48.0971 73.794454,-47.36073 0.467977,0.28169 0.01798,1.31169 -1,2.2889 C 84.424596,152.86857 15.619203,197 14.662506,197 c -0.29946,0 -0.797202,-0.40893 -1.106094,-0.90872 z M 264.07652,170.17783 C 232.24574,149.76328 225.57922,145 228.83854,145 230.42183,145 302,191.06879 302,192.08782 c 0,0.5017 -0.5625,0.8889 -1.25,0.86045 -0.6875,-0.0285 -17.19057,-10.27515 -36.67348,-22.77044 z M 227.17668,97.495751 c 0.39416,-1.83381 71.86586,-47.587497 73.1228,-46.810664 0.49084,0.303359 0.28676,1.151492 -0.45352,1.88474 C 298.36627,54.035461 228.16377,99 227.35518,99 c -0.276,0 -0.35633,-0.676912 -0.1785,-1.504249 z M 49.5,72.373768 C 30.25,60.017596 13.894317,49.306946 13.154039,48.572325 12.41376,47.837703 12.2107,46.987814 12.702795,46.683683 13.812367,45.99793 86.2711,92.127587 86.20084,93.475 86.172878,94.01125 85.77875,94.537645 85.325,94.644767 84.87125,94.75189 68.75,84.72994 49.5,72.373768 Z M 87.176943,47.293792 C 73.954894,27.105377 63.385672,10.184987 63.689783,9.6929252 63.993894,9.2008633 65.034992,9.6311571 66.003334,10.649134 68.63859,13.419465 113,81.613664 113,82.894358 113,83.502461 112.59883,84 112.10852,84 111.6182,84 100.39899,67.482206 87.176943,47.293792 Z M 195.68385,82.297479 c -0.51696,-0.836459 46.60109,-62.866054 51.76826,-68.151467 1.26572,-1.294693 2.54739,-1.955843 2.84814,-1.469222 0.4885,0.790416 -47.65243,64.114407 -52.20824,68.674076 -1.01711,1.017977 -2.10079,1.443952 -2.40816,0.946613 z"
         id="path1223" />
    </g>
  </g>
</svg>
