<?xml version="1.0" encoding="UTF-8" standalone="no"?>
<!-- Created with Inkscape (http://www.inkscape.org/) -->

<svg
   version="1.1"
   id="svg1301"
   width="357.68567"
   height="178.25246"
   viewBox="0 0 357.68567 178.25246"
   sodipodi:docname="マ.png"
   xmlns:inkscape="http://www.inkscape.org/namespaces/inkscape"
   xmlns:sodipodi="http://sodipodi.sourceforge.net/DTD/sodipodi-0.dtd"
   xmlns="http://www.w3.org/2000/svg"
   xmlns:svg="http://www.w3.org/2000/svg">
  <defs
     id="defs1305" />
  <sodipodi:namedview
     id="namedview1303"
     pagecolor="#ffffff"
     bordercolor="#000000"
     borderopacity="0.25"
     inkscape:showpageshadow="2"
     inkscape:pageopacity="0.0"
     inkscape:pagecheckerboard="0"
     inkscape:deskcolor="#d1d1d1"
     showgrid="false" />
  <g
     inkscape:groupmode="layer"
     inkscape:label="Image"
     id="g1307"
     transform="translate(-12.192228,-33.651691)">
    <g
       id="g1311">
      <path
         style="fill:#afafaf"
         d="M 233.74326,199.37074 C 231.1824,196.90785 201,155.44694 201,154.58522 c 0,-0.24362 5.45597,2.14786 12.12437,5.31439 12.06617,5.72971 12.16503,5.80497 20.59578,15.67887 16.20724,18.98155 16.30144,19.06064 24.50936,20.57771 L 265.5,197.5 l -5,0.23588 c -22.23336,1.04888 -24.0341,4.25336 -26.75674,1.63486 z m -27.4453,-51.34669 C 196.50908,143.08728 186.025,137.4288 183,135.44967 l -5.5,-3.59843 7.90088,0.57438 c 4.34548,0.31591 10.87048,0.64197 14.5,0.72457 5.88996,0.13406 -7.65942,-3.46408 -4.70686,-0.94823 l 2.69694,2.29804 8.43778,7.71026 8.43779,7.71026 10.71352,-7.59275 c 6.47881,-4.59158 27.8028,-22.63601 27.07115,-23.08819 -0.64254,-0.39712 -15.60532,10.20393 -13.32008,9.89741 7.13851,-0.95748 11.45412,-2.74376 14.27021,-7.54905 -0.83105,1.42679 4.47559,-3.90829 21.37543,-23.753724 L 290.36497,79.5 255.93248,79 C 222.17855,78.509853 221.70692,78.475241 232,77.243634 c 5.775,-0.691002 15.675,-2.211773 22,-3.379492 l 11.5,-2.123126 3.3115,-5.370508 L 272.123,61 l 16.1885,0.0318 c 21.57979,0.04239 16.95008,0.184351 18.4667,1.331463 2.93049,2.216514 5.83898,1.938864 8.14922,-0.998125 1.13992,-1.449169 -4.33183,-1.294449 -4.33183,-0.737621 0,0.556827 5.9449,1.630954 4.90441,1.372483 -7.50054,-1.86323 -1.07866,0.238522 -1.07866,6.151517 0,8.895653 -2.96849,9.68899 -17.91646,32.546123 -9.65593,10.31254 -1.22266,-0.770604 -9.60638,8.33223 -6.04457,9.21666 -20.77158,23.35807 -32.41837,31.1293 C 245.55666,146.1133 226.31493,157 224.71477,157 c -0.34037,0 -8.62794,-4.03918 -18.41681,-8.97595 z M 180,124.33009 c -1.925,-0.1924 -5.16172,0.0463 -6.9447,-0.22721 l -3.86181,-0.59244 4.3314,-3.66644 c 4.64573,-3.93251 2.09791,-4.14617 10.25991,2.38146 5.00851,4.0056 2.77368,2.72871 1.5,2.6145 -0.98164,-0.088 -3.3598,-0.31746 -5.2848,-0.50987 z M 132,74.027416 c -4.675,-0.360145 -6.87838,2.96917 -5.92636,2.866703 1.97726,-0.212814 1.32879,-7.693036 1.67351,-11.436462 0.15793,-1.715039 -0.11189,-2.732233 0.33671,-3.009484 1.06404,-0.657616 133.1213,-0.576343 133.77998,0.08233 1.99805,1.998055 -7.54036,4.148211 -32.86384,7.408186 -26.76352,3.445356 -77.55826,5.586445 -97,4.088724 z"
         id="path1315"
         sodipodi:nodetypes="ssssscsssscssscccssscccssscccssssssccssssscssssssssssss" />
      <path
         style="fill:#070707"
         d="m 254.5,210.00407 c -8.71155,-2.30072 -16.25203,-4.74966 -19.43056,-6.31052 -1.3368,-0.65645 -10.1118,-11.14586 -19.5,-23.3098 -9.38819,-12.16393 -18.99926,-24.31393 -21.35793,-27 -4.68602,-5.33647 -4.75991,-5.39411 -21.31099,-16.62402 l -11.40791,-7.74026 -17.9963,-1.99423 C 133.59834,125.92842 117.4,124.52221 107.5,123.90032 94.834199,123.1047 89.066067,122.35924 88.035714,121.38481 85.258459,118.75829 88.970245,117.22344 104.5,114.5767 c 15.04939,-2.56487 27.79044,-5.51891 28.98119,-6.71936 0.35061,-0.35347 -1.97673,-2.12902 -5.17186,-3.94567 C 125.1142,102.09502 122.05,100.08284 121.5,99.440151 120.95,98.797464 96.06453,84.64696 66.198956,67.994586 19.094009,41.729923 11.937807,37.438083 12.198956,35.608771 12.663144,32.357199 17.612329,33.055123 32.5,38.471585 c 16.718533,6.082569 27.874101,10.828423 49.50993,21.062749 29.80196,14.097124 33.5664,14.848897 73.49007,14.676239 37.69986,-0.163042 70.34841,-2.774739 96.94591,-7.755118 7.53824,-1.411535 8.1539,-1.730739 12,-6.221663 16.71801,-19.52091 29.61147,-26.317038 45.55409,-24.01151 10.89407,1.575436 18.15982,6.503369 29.52889,20.027718 1.69165,2.01235 10.96313,2.329458 22.95564,0.785141 3.84149,-0.494682 7.1597,-0.724246 7.3738,-0.510142 0.21411,0.214104 -1.35393,1.143722 -3.48452,2.065818 -12.17822,5.270586 -20.57814,9.791402 -21.87743,11.774367 -0.81285,1.24056 -2.09559,4.307966 -2.85053,6.816458 -4.19391,13.935309 -17.79082,23.729028 -41.36195,29.792618 -3.63494,0.93507 -5.26748,2.39176 -11.84333,10.56758 -11.60426,14.42771 -25.40249,25.82279 -44.19057,36.49419 -5.0875,2.88963 -9.25,5.56642 -9.25,5.94841 0,0.38199 -1.1701,1.22766 -2.60021,1.87927 l -2.60022,1.18473 2.60022,3.40906 c 1.43011,1.87498 2.60021,3.79099 2.60021,4.25779 0,0.4668 3.54942,4.61932 7.88761,9.22781 l 7.8876,8.37907 16.07093,-0.63269 c 8.839,-0.34799 16.31152,-0.24339 16.60559,0.23242 0.29407,0.47582 -4.07477,1.29677 -9.70853,1.82434 l -10.2432,0.95922 8.61043,0.14727 C 283.02982,191.03949 290,191.9863 290,193.2828 c 0,0.659 -5.13517,0.8306 -14.75,0.49292 -8.1125,-0.28492 -14.26088,-0.33797 -13.66306,-0.1179 0.59782,0.22008 6.1445,1.47128 12.32596,2.78046 6.18146,1.30917 11.49425,2.63554 11.80619,2.94748 1.47454,1.47453 -3.27869,1.64034 -9.62007,0.33557 -4.64898,-0.95654 -7.14041,-1.09716 -7.36752,-0.41582 -0.18874,0.56621 -4.81804,1.2996 -10.28733,1.62976 l -9.94417,0.60029 12.491,0.80656 c 6.87006,0.4436 12.69006,1.0056 12.93334,1.24888 0.24328,0.24329 -0.0635,0.94821 -0.68184,1.5665 -0.82473,0.82473 -4.66933,0.84623 -14.43333,0.0807 -7.32005,-0.57389 -13.4357,-0.92323 -13.59036,-0.77632 -0.15465,0.14691 5.11491,1.52509 11.71012,3.06262 6.59522,1.53752 11.7577,3.17349 11.47217,3.63548 -0.81258,1.31479 -6.26143,0.86169 -13.9011,-1.15595 z m 6,-12.26819 5,-0.23588 -7.27049,-1.34381 c -8.20792,-1.51707 -8.30212,-1.59616 -24.50936,-20.57771 -8.43075,-9.8739 -8.52961,-9.94916 -20.59578,-15.67887 C 206.45597,156.73308 201,154.3416 201,154.58522 c 0,0.6205 28.79096,38.36327 31.59205,41.41478 2.19906,2.39566 2.72499,2.48898 12.6014,2.23588 5.6686,-0.14527 12.55655,-0.37027 15.30655,-0.5 z m -25.58318,-45.82671 c 22.80134,-12.11263 42.6914,-28.57244 52.11603,-43.12806 4.22278,-6.52175 4.5135,-6.75103 9.90878,-7.8146 18.07352,-3.562847 32.21919,-11.650465 36.89029,-21.091585 2.05121,-4.14587 2.05174,-4.182648 0.11439,-7.980157 -2.16304,-4.239914 -2.53132,-8.909756 -0.83633,-10.604746 1.67092,-1.67092 -4.08195,-9.42061 -9.8095,-13.214385 C 305.31926,36.165373 283.15064,43.252162 269.5,65.27439 l -4,6.453099 -11.5,2.106297 c -28.65371,5.248106 -57.44669,7.502555 -97,7.59496 C 115.83311,81.52492 111.87234,80.702051 79.58304,65.344995 45.94181,49.344951 48.315397,51.055427 98.5,78.977107 c 22,12.240347 41.15423,23.332323 42.56495,24.648843 l 2.56495,2.39366 5.52222,-1.89992 c 8.13674,-2.79945 10.85794,-4.45162 15.84788,-9.622006 2.475,-2.5645 6.09741,-5.488777 8.0498,-6.498393 6.27661,-3.245752 20.10891,-5.381589 48.7002,-7.519768 L 230,79.862552 v 3.507451 c 0,3.377531 -0.15743,3.526865 -4.25,4.031574 -2.3375,0.288268 -8.525,0.791554 -13.75,1.118413 -13.9727,0.874087 -29.92839,3.371326 -34.5521,5.407777 -2.22866,0.981581 -5.5213,3.639706 -7.31699,5.906943 -4.50462,5.68754 -14.6008,10.43665 -31.13091,14.64357 -7.425,1.88966 -13.725,3.5077 -14,3.59564 -0.76548,0.24479 19.68787,2.55633 48.5,5.48125 30.50739,3.09702 57.20795,3.11069 65.6235,0.0336 8.2545,-3.01821 11.01157,-8.40239 8.52615,-16.65039 -0.65089,-2.16001 -0.36299,-2.74795 1.83627,-3.75 3.8733,-1.7648 4.17774,-1.58116 5.39537,3.25445 1.70051,6.75334 1.36223,10.46593 -1.37996,15.14512 -2.94013,5.01696 -9.67778,8.75633 -19.00133,10.54567 -7.15265,1.37272 -28.33657,1.64496 -45,0.57831 l -12,-0.76813 5.5,3.55215 C 188.20844,138.85979 223.39783,157 224.71477,157 c 0.34038,0 4.9313,-2.29087 10.20205,-5.09083 z M 306.22251,62.443296 C 301.85893,59.38693 304.63617,53 310.32874,53 312.86716,53 317,56.013949 317,57.865141 c 0,0.475828 -0.93266,2.050828 -2.07258,3.5 -2.34577,2.982158 -5.43951,3.365336 -8.70491,1.078155 z"
         id="path1313" />
    </g>
  </g>
</svg>
