<?xml version="1.0" encoding="UTF-8" standalone="no"?>
<!-- Created with Inkscape (http://www.inkscape.org/) -->

<svg
   version="1.1"
   id="svg59"
   width="211.90489"
   height="176.28989"
   viewBox="0 0 211.90489 176.28989"
   sodipodi:docname="ミ.png"
   xmlns:inkscape="http://www.inkscape.org/namespaces/inkscape"
   xmlns:sodipodi="http://sodipodi.sourceforge.net/DTD/sodipodi-0.dtd"
   xmlns="http://www.w3.org/2000/svg"
   xmlns:svg="http://www.w3.org/2000/svg">
  <defs
     id="defs63" />
  <sodipodi:namedview
     id="namedview61"
     pagecolor="#ffffff"
     bordercolor="#000000"
     borderopacity="0.25"
     inkscape:showpageshadow="2"
     inkscape:pageopacity="0.0"
     inkscape:pagecheckerboard="0"
     inkscape:deskcolor="#d1d1d1"
     showgrid="false" />
  <g
     inkscape:groupmode="layer"
     inkscape:label="Image"
     id="g65"
     transform="translate(-12.036976,-12.432372)">
    <g
       id="g123">
      <path
         style="fill:#afafaf"
         d="m 170.86283,182.98304 c -2.75646,-1.60982 -48.60131,-16.51984 -61.59988,-20.03399 -6.73038,-1.81955 -57.291265,-13.43109 -57.075245,-13.64711 1.415353,-1.41535 122.091465,26.78228 124.784015,29.34939 0.64896,0.61872 -1.00391,3.75784 -1.98008,4.375 -1.8293,1.15652 -2.0789,1.1539 -4.12881,-0.0433 z M 164.5,169.30807 c -30.18342,-9.62541 -70.667606,-17.61772 -102.727202,-23.46649 -8.096256,-1.47704 -11.295843,-2.46617 -9.899832,-2.83123 1.321364,-0.34555 1.609843,-4.09689 2.246187,-5.92231 C 55.104821,134.26055 55.57152,134 59.65042,134 c 19.61684,4.53458 39.575995,8.9591 56.9109,13.91736 65.30193,19.79723 63.73775,17.17093 63.43868,22.62795 0,1.90008 -1.04793,4.8244 -1.46043,4.76187 -0.4125,-0.0625 -6.33957,-3.54361 -14.03957,-5.99911 z m -3.75,-53.54994 C 132.31267,107.90481 100.65417,97.274305 69,90.947147 62.675,89.719859 57.157495,88.414674 56.738878,88.046735 c -0.418617,-0.367939 0.143883,-3.299422 1.25,-6.514408 2.437192,-7.083821 4.13221,-10.630168 2.018963,-10.630168 -0.916666,0 1.064119,2.627643 1.331813,2.359949 1.557413,-1.557414 103.238576,24.152157 109.245026,27.528482 0.95847,0.53878 -0.0971,2.14263 -1.69239,7.63119 -1.70878,5.87889 -1.07521,6.71927 -1.67336,7.73469 -0.7,1.18832 1.24104,0.92262 -6.46893,-0.39834 z m 5.11682,-64.224648 C 163.61152,49.278183 101.75607,34.031067 75.574315,29.528254 57.450444,26.411258 55.699854,26.036423 56.328851,25.407426 57.79577,23.940506 127.23108,37.636851 153.5,44.318039 c 11.58737,2.947111 14.31479,1.235218 14.41592,3.185268 0.11836,2.282102 -1.27616,4.803156 -2.0491,4.030175 z M 160.26319,39.105911 C 131.43903,32.07808 70.539679,20.070315 60.753256,19.974645 c -2.985751,-0.02919 -3.043895,0.683224 -1.427112,-2.422368 1.881117,-4.947804 1.171675,-4.234401 2.663013,-5.119905 0.578777,0.125613 8.09784,1.461601 15.696002,2.607067 18.255237,2.752082 55.331291,10.185154 72.814841,14.598047 7.7,1.943499 15.03001,3.647643 16.28891,3.786986 3.09305,0.342357 3.96986,1.583308 3.28556,4.650046 l -0.81128,3.225749 z"
         id="path127"
         sodipodi:nodetypes="ssssssssssscccssccsssssssccsssscssccsssscs" />
      <path
         style="fill:#060606"
         d="m 193.5,185.92011 c -16.07,-5.18509 -51.63145,-15.73521 -67,-19.87709 -31.509125,-8.49182 -88.436421,-20.48249 -107.334625,-22.60803 -6.678356,-0.75113 -8.634397,-2.39454 -5.993432,-5.0355 1.260575,-1.26058 3.356276,-1.1824 16.386744,0.61127 37.134382,5.11163 62.846589,10.24861 97.441313,19.46756 24.18803,6.44572 52.2477,15.02042 55.32287,16.906 1.19742,0.73421 6.45213,2.82081 11.67713,4.63687 11.43196,3.97343 12.30574,4.53902 10.9438,7.08382 -1.2237,2.28651 -0.43041,2.36865 -11.4438,-1.1849 z M 173,124.3253 c -10.95083,-1.76237 -27.47701,-5.1626 -43.5,-8.95004 C 63.839235,99.854662 37.87588,92.174428 35.258635,87.497671 33.8494,84.979509 37.524459,70.140632 40.294289,67.165086 42.32549,64.983027 43.014262,64.847298 49,65.449543 c 10.439193,1.050322 30.032048,5.134443 64.90752,13.529942 57.72257,13.895436 73.77168,19.027577 76.20527,24.368715 1.28136,2.81228 -2.0437,16.81299 -4.68649,19.73324 -1.70379,1.88267 -5.8673,2.29943 -12.4263,1.24386 z m 10.01999,-12.41948 c 1.09495,-5.15964 1.07756,-6.23253 -0.11336,-6.99638 C 175.23574,99.98939 70.759113,74.229084 50.901332,72.361517 l -6.598668,-0.620586 -1.19655,4.879534 c -0.658102,2.683744 -1.411234,5.6031 -1.673626,6.487456 -0.890622,3.001726 16.662895,8.374356 68.114742,20.847979 39.40667,9.55348 60.1032,13.83039 67.56613,13.96246 l 4.61335,0.0816 1.29328,-6.09418 z M 200.5,56.452515 c -11,-3.468356 -20.99326,-6.339045 -22.20725,-6.379308 -1.21399,-0.04026 -12.077,-2.521132 -24.14002,-5.513039 C 121.75819,36.525571 75.097858,27.631588 43,23.373207 30.711069,21.742851 27.641815,20.34144 30.037645,17.45464 c 1.023443,-1.233172 2.317931,-1.493491 5.163773,-1.038423 2.088863,0.334023 9.535578,1.072038 16.548257,1.640035 C 82.142528,20.51794 147.81155,33.801526 177,43.391997 c 4.125,1.355354 15.87817,5.020891 26.11815,8.145638 21.35411,6.516239 21.80878,6.720497 20.31041,9.124379 -0.5893,0.945421 -1.4893,1.80392 -2,1.907775 C 220.91785,62.673644 211.5,59.920871 200.5,56.452515 Z"
         id="path125" />
    </g>
  </g>
</svg>
