<?xml version="1.0" encoding="UTF-8" standalone="no"?>
<!-- Created with Inkscape (http://www.inkscape.org/) -->

<svg
   version="1.1"
   id="svg353"
   width="345.0007"
   height="371.43594"
   viewBox="0 0 345.0007 371.43594"
   sodipodi:docname="ム.png"
   xmlns:inkscape="http://www.inkscape.org/namespaces/inkscape"
   xmlns:sodipodi="http://sodipodi.sourceforge.net/DTD/sodipodi-0.dtd"
   xmlns="http://www.w3.org/2000/svg"
   xmlns:svg="http://www.w3.org/2000/svg">
  <defs
     id="defs357" />
  <sodipodi:namedview
     id="namedview355"
     pagecolor="#ffffff"
     bordercolor="#000000"
     borderopacity="0.25"
     inkscape:showpageshadow="2"
     inkscape:pageopacity="0.0"
     inkscape:pagecheckerboard="0"
     inkscape:deskcolor="#d1d1d1"
     showgrid="false" />
  <g
     inkscape:groupmode="layer"
     inkscape:label="Image"
     id="g359"
     transform="translate(-16.382925,-13.56405)">
    <g
       id="g363"
       inkscape:export-filename="..\all_svg\ム.svg"
       inkscape:export-xdpi="96"
       inkscape:export-ydpi="96">
      <path
         style="fill:#adadad"
         d="m 238.50402,204.85339 c -12.61263,-16.96936 -22.68014,-30.01864 -23.13743,-30.01864 -0.45729,0 -2.49264,0.2004 -3.75782,1.46557 l -1.67427,1.67427 -3.08021,-3.86336 c -1.74084,-2.18345 -2.35082,-2.92506 -2.35205,-3.30863 -0.003,-0.82398 9.63459,-7.8026 10.77511,-7.8026 2.37164,0 29.99348,34.86455 46.10501,58.19416 6.2727,9.08293 6.5712,9.76032 4.73421,10.74345 -1.07834,0.57711 -4.65945,2.23516 -5.40742,2.98312 -1.14658,1.14659 -2.87076,-4.05437 -22.20513,-30.06734 z M 111.393,230.59198 c -0.16873,-1.86538 -0.26784,-0.14796 -0.99087,-8.25091 0.0404,-5.51368 -0.26475,-7.48758 -0.15001,-7.48252 0.46214,0.0204 2.46038,0.26728 6.99788,0.21909 4.5375,-0.0482 10.5,-0.28133 13.25,-0.64565 4.87084,-0.64528 3.29879,-0.51675 5.92159,-5.87468 5.00394,-10.22219 15.20967,-36.18689 17.81204,-44.23782 2.1945,-6.78909 18.08641,-61.37389 25.2033,-61.51042 3.33999,-0.0641 -16.39709,41.22807 -14.85541,41.20624 0.59484,-0.008 2.19223,1.50756 2.78323,4.09027 1.03139,4.50715 0.20571,5.91102 -5.56833,20.84025 -11.59813,29.98787 -17.36132,61.00261 -18.5065,59.85743 -1.21366,-1.21366 -4.7522,-0.25759 -24.94013,1.91389 -2.92636,0.31477 -6.67572,0.32956 -6.95679,-0.12517 z m 34.2418,-2.32311 c 0,-0.55054 1.71968,-4.97948 3.37516,-8.63055 C 151.51103,214.1223 148.87977,213 150.88273,213 c 5.6672,0 38.11612,-2.20339 56.36634,-4.02682 10.86199,-1.08525 22.68228,-2.18187 23.71671,-2.18187 2.38131,0 8.72775,11.04075 6.82771,11.6589 -0.71142,0.23146 -19.51849,2.28543 -41.79349,4.56438 -22.275,2.27896 -42.6375,4.39566 -45.25,4.70378 -2.8762,0.33922 -5.1152,1.1566 -5.1152,0.5505 z M 175.81513,122.5 c -0.16646,-3.30901 0.21117,2.41114 -0.67678,2.91645 -2.91364,1.65807 -4.31053,-11.35508 -2.46071,-12.08698 l 5.90563,-2.33663 -1.79259,-2.06209 c -2.32953,-2.67975 -4.6583,1.62499 -0.3731,-9.012893 2.61294,-6.486552 2.47176,-6.758365 9.87061,-4.53164 2.53332,0.762419 4.87718,1.195015 5.32936,1.345375 0.53986,0.179515 0.24779,1.22374 -0.13814,4.024638 -0.66942,4.85834 -0.90199,6.02815 -3.21511,5.1487 -4.6277,-1.75944 -4.02754,-2.25783 -8.02579,10.34507 l -4.0428,13.81515 z"
         id="path367"
         sodipodi:nodetypes="ssscscsssssccsssssscsssscsssssssssssscssssssscs" />
      <path
         style="fill:#060606"
         d="m 232.16522,379.75 c 4.90389,-12.05286 11.02418,-31.73214 13.40257,-43.09482 4.32173,-20.64686 4.39575,-50.22317 0.14994,-59.90518 -1.31525,-2.99923 -1.93713,-3.23813 -4.64991,-1.7863 -0.99038,0.53004 -5.30204,1.68693 -9.58145,2.57087 -6.08853,1.25762 -7.9461,1.33961 -8.54104,0.37698 -1.43398,-2.32023 0.27789,-3.92054 5.91303,-5.52767 4.51614,-1.288 8.78792,-3.24095 12.89693,-5.89616 0.93439,-0.6038 -5.22353,-14.28847 -8.80797,-19.57384 -4.89325,-7.21526 -12.34343,-15.52032 -15.3811,-17.14603 -2.88852,-1.54589 -10.16781,-1.15982 -44.73703,2.37273 -16.86894,1.7238 -31.38533,2.85999 -32.25865,2.52486 -0.87331,-0.33512 -2.0912,-1.71406 -2.70642,-3.06431 -0.97958,-2.14995 0.0641,-5.22886 8.399,-24.77807 5.23466,-12.27768 12.22464,-29.32244 15.5333,-37.87723 5.80169,-15.00073 5.97695,-15.7237 4.92551,-20.31848 -0.95921,-4.19177 -1.33848,-4.67977 -3.15608,-4.0609 -4.02219,1.36952 -12.9856,1.62436 -16.81186,0.47799 -5.04482,-1.51147 -11.07447,-7.02527 -14.43544,-13.20049 -1.557,-2.86071 -3.19988,-4.71973 -3.92508,-4.44145 -0.68598,0.26324 -1.78779,-0.1727 -2.44845,-0.96875 -1.84842,-2.2272 -0.72658,-16.15286 1.63613,-20.30963 1.05537,-1.85674 2.50417,-4.44062 3.21956,-5.74196 0.71539,-1.301339 2.19894,-2.846789 3.29678,-3.434334 1.88421,-1.008402 1.71456,-1.393204 -3.02764,-6.867193 C 119.32062,76.518318 94.848228,63.80854 73,59.921958 62.552356,58.063426 41.334078,58.329453 32,60.436001 19.228512,63.318316 17.384424,63.444175 16.632552,61.484828 15.626901,58.864145 17.206954,57.572234 29.868026,50.663007 57.374674,35.652453 84.152547,25.237987 111,19.109112 c 19.93008,-4.549742 29.71556,-5.573427 53,-5.544471 24.64834,0.03065 33.48809,1.096623 53.79105,6.486576 62.93409,16.707504 113.72269,64.225661 134.11613,125.479953 30.04924,90.25672 -12.73966,181.80099 -108.84244,232.86179 C 236.22535,382.02683 230.49441,385 230.32933,385 c -0.16508,0 0.66107,-2.3625 1.83589,-5.25 z m 23.71716,-15.85494 C 332.04106,316.49832 367.14685,243.58121 351.01027,166.308 336.82286,98.36875 282.51276,42.60388 214,25.627721 196.46358,21.28253 184.10195,19.851794 164,19.840718 125.65211,19.81959 89.413602,28.570995 50,47.371109 l -9.5,4.531458 12.11901,0.04872 c 31.7391,0.127585 57.52085,10.333447 83.07397,32.885326 l 8.91337,7.866489 7.122,0.509577 c 8.9267,0.638702 13.96166,3.420139 21.72956,12.003941 l 5.65275,6.24649 -2.62183,0.87395 c -1.91296,0.63765 -2.43531,1.31857 -1.93196,2.51844 0.37944,0.90448 0.97186,4.3445 1.31651,7.6445 l 0.62662,6 3.8282,-12.35936 3.82819,-12.35936 3.09889,0.61978 c 1.70439,0.34087 3.28115,0.80203 3.50391,1.02479 0.70812,0.70812 -7.69705,27.3766 -14.99405,47.57415 -3.87475,10.725 -11.96511,31.2 -17.97858,45.5 -6.01347,14.3 -11.19658,26.8586 -11.51802,27.908 -0.53529,1.74755 -0.17174,1.85917 4.32351,1.32733 2.69937,-0.31937 23.35795,-2.47565 45.90795,-4.79173 22.55,-2.31608 41.28505,-4.48838 41.63345,-4.82733 0.3484,-0.33895 -5.8391,-9.29134 -13.75,-19.89421 C 216.47255,187.6192 210,178.51707 210,177.99512 c 0,-1.52989 5.00875,-4.3938 5.93543,-3.39377 2.57125,2.77479 50.05932,67.38492 50.03315,68.07285 -0.0348,0.91361 -4.94635,4.72861 -5.37387,4.17407 -0.14767,-0.19155 -3.71,-4.92995 -7.91628,-10.52978 -4.20628,-5.59983 -7.99218,-10.36744 -8.4131,-10.59469 -0.42093,-0.22724 -4.91311,0.0297 -9.98262,0.57096 l -9.2173,0.98413 4.51769,5.02476 c 5.78337,6.4325 13.54763,18.25712 16.56417,25.22651 1.294,2.98964 2.80273,5.43906 3.35273,5.44316 0.55,0.004 3.925,-2.19233 7.5,-4.88096 6.63722,-4.99161 13.75651,-13.09672 20.48616,-23.3229 l 3.77115,-5.73053 2.89112,1.70782 c 3.43487,2.02903 3.39378,2.17511 -3.40256,12.09579 -6.51375,9.50819 -17.63276,20.69291 -24.51261,24.65746 -3.60674,2.0784 -5.0317,3.4608 -4.63857,4.5 1.32459,3.50134 3.40789,16.6186 4.00584,25.2223 1.15453,16.61226 -2.82363,42.06934 -10.01605,64.09482 -2.65402,8.12743 -2.928,9.74447 -1.59184,9.39505 0.88767,-0.23213 6.23806,-3.29983 11.88974,-6.81711 z M 279.22179,192.59062 C 271.31408,190.00978 265.30884,184.47189 261.23108,176 c -3.77871,-7.85057 -3.66554,-17.22398 0.30568,-25.3182 3.34097,-6.80962 7.79214,-11.02739 15.23235,-14.43363 4.55757,-2.08653 6.51135,-2.39786 13.04563,-2.07883 17.29354,0.84436 28.60621,12.65566 28.57133,29.83066 -0.0178,8.78571 -2.58544,15.19937 -8.42097,21.0349 -7.56727,7.56727 -20.76761,10.81149 -30.74331,7.55572 z m 20.89574,-6.38336 c 16.03695,-8.3778 18.60464,-29.22606 5.09898,-41.40082 C 301.29096,141.26773 293.26546,138 288.5,138 c -8.04213,0 -18.78526,6.71851 -22.55318,14.10425 -11.13066,21.81788 12.5146,45.4163 34.17071,34.10301 z m -88.24417,-59.71501 c -5.78181,-1.85056 -12.26177,-8.16731 -14.15014,-13.79372 -1.14174,-3.40185 -1.81843,-4.13916 -3.56617,-3.88567 -2.05243,0.29768 -2.15678,-0.0661 -2.15147,-7.5 0.008,-10.900391 1.3699,-14.962491 6.85734,-20.449938 5.06128,-5.061279 9.60713,-6.848253 17.44426,-6.857345 9.55405,-0.01108 13.43283,1.725091 21.87643,9.792055 4.29901,4.107254 7.81639,7.822272 7.81639,8.255596 0,0.433324 -1.27886,1.068746 -2.84191,1.41205 l -2.84191,0.624188 1.28148,4.94023 c 4.54968,17.539464 -12.24569,33.056854 -29.7243,27.462554 z m 21.72902,-14.69023 c 1.42769,-2.76085 1.88297,-10.37364 0.79063,-13.220233 -0.83266,-2.169883 -3.4807,-1.894845 -13.39301,1.391066 -8.15624,2.703777 -8.32876,2.821967 -4.26578,2.922437 6.1312,0.15162 10.28398,4.08653 10.99796,10.42099 0.52446,4.65295 0.57634,4.71449 2.50407,2.96992 1.08268,-0.97981 2.59744,-2.99769 3.36613,-4.48418 z M 225,93.850902 c 5.775,-1.700082 10.86285,-3.422372 11.30633,-3.82731 1.31041,-1.19652 -4.01,-6.70173 -8.64539,-8.945683 -6.12732,-2.966184 -16.71081,-2.866316 -22.14056,0.208924 -5.49738,3.113548 -8.48309,8.695908 -8.50393,15.899758 L 197,102.87318 l 8.75,-2.965608 c 4.8125,-1.631086 13.475,-4.356587 19.25,-6.05667 z m -58.09741,36.850318 c 2.36188,-4.87898 2.60317,-7.95195 0.98818,-12.58472 -0.77669,-2.228 -1.60113,-3.03977 -2.75,-2.70774 -0.90242,0.26081 -5.01577,1.49239 -9.14077,2.73684 -7.44289,2.2454 -7.47184,2.26743 -3.8024,2.89258 2.03367,0.34647 4.42584,1.23434 5.31593,1.97305 2.88464,2.39404 4.72754,7.11583 4.15479,10.64524 -0.48857,3.0107 -0.3583,3.24798 1.29687,2.36216 1.01199,-0.5416 2.78382,-2.93443 3.9374,-5.31741 z m -26.40506,-12.64034 c 4.95136,-1.61651 13.72321,-4.36924 19.49301,-6.11717 l 10.49055,-3.17805 -5.15596,-4.74091 C 159.85545,98.995359 157.06584,98 148.4401,98 c -9.00952,0 -14.11329,3.05353 -17.55006,10.5 -2.1426,4.64238 -2.54649,12.5 -0.64251,12.5 0.68614,0 5.29864,-1.3226 10.25,-2.93912 z"
         id="path365" />
    </g>
  </g>
</svg>
