<?xml version="1.0" encoding="UTF-8" standalone="no"?>
<!-- Created with Inkscape (http://www.inkscape.org/) -->

<svg
   version="1.1"
   id="svg535"
   width="200.25574"
   height="200.03539"
   viewBox="0 0 200.25574 200.03539"
   sodipodi:docname="メ.png"
   xmlns:inkscape="http://www.inkscape.org/namespaces/inkscape"
   xmlns:sodipodi="http://sodipodi.sourceforge.net/DTD/sodipodi-0.dtd"
   xmlns="http://www.w3.org/2000/svg"
   xmlns:svg="http://www.w3.org/2000/svg">
  <defs
     id="defs539" />
  <sodipodi:namedview
     id="namedview537"
     pagecolor="#ffffff"
     bordercolor="#000000"
     borderopacity="0.25"
     inkscape:showpageshadow="2"
     inkscape:pageopacity="0.0"
     inkscape:pagecheckerboard="0"
     inkscape:deskcolor="#d1d1d1"
     showgrid="false" />
  <g
     inkscape:groupmode="layer"
     inkscape:label="Image"
     id="g541"
     transform="translate(-14.409786,-17.525135)">
    <g
       id="g545">
      <path
         style="fill:#afafaf"
         d="m 55.134203,201.92587 c -2.951188,-3.31519 -5.201188,-6.16663 -5,-6.33655 0.201189,-0.16992 4.602371,-2.48084 9.780407,-5.13539 16.864487,-8.64566 32.192432,-21.74291 45.00332,-38.45393 3.16228,-4.125 7.69237,-9.5029 10.06687,-11.95088 2.3745,-2.44798 7.437,-8.65645 11.25001,-13.7966 6.04228,-8.14532 9.47858,-13.00064 8.31612,-14.44723 -1.02431,-1.27468 -3.23887,2.26318 -0.55093,3.856 1.925,1.14072 6.50961,3.73172 10.18802,5.75778 l 6.68802,3.68374 -5.68802,8.08256 c -14.26863,20.2754 -33.80577,40.41879 -53.548367,55.20996 -11.225153,8.4099 -28.53689,19.62451 -30.227373,19.58141 -0.501754,-0.0128 -3.326888,-2.73569 -6.278077,-6.05087 z M 198,156.12107 c -0.37013,-0.31094 -4.09059,-3.74591 -9.0902,-7.25 -12.93813,-9.06798 -16.79223,-12.29005 -7.82135,-7.47774 16.25676,8.72071 23.52695,9.76854 22.41294,10.45703 -0.61532,0.38029 -2.52035,3.40483 -2.95868,4.21874 -0.92983,0.98193 -1.48605,1.00648 -2.16533,0.369 z M 146.97238,114.37421 C 117.01257,97.598348 92.0725,83.451298 91.55,82.936321 c -0.599477,-0.590845 -0.556967,-1.329354 0.115213,-2.001534 0.753617,-0.753617 7.320683,2.423271 22.449997,10.860424 58.25432,32.486639 88.45935,49.471299 89.17717,50.145419 0.43581,0.40927 0.19838,1.23711 -0.52762,1.83964 -1.00979,0.83805 -14.12176,-6.07278 -55.79238,-29.40606 z m 5.32271,-10.32863 c -4.51269,-2.54213 -8.23584,-0.42631 -8.56887,-0.75934 -1.77999,-1.77999 -0.27956,-2.39227 25.19559,-51.107465 1.28429,-2.455906 3.13031,-1.429049 7.51714,0.898157 2.4537,1.301686 5.23308,1.366566 4.84802,1.657066 -0.38506,0.290501 -2.40529,7.75043 -5.24832,15.266002 -2.76314,7.304375 -6.96605,18.397839 -9.78391,24 -6.67086,13.26229 -7.38013,14.17664 -7.50023,15.12794 -0.1201,0.95129 -0.59617,0.31909 -0.83654,0.5139 -0.24037,0.1948 -1.11018,-3.05413 -5.62288,-5.59626 z M 83.242019,85.990489 C 82.75918,85.806738 80.829084,84.939057 80.1832,84.566156 77.827474,83.206077 78.05614,83.810869 81.83665,78 c 1.623843,-2.300114 2.993392,-4.898061 4.230482,-7.325947 0.06875,-0.296684 3.089582,1.457207 3.848211,2.165874 1.163739,1.087096 -1.528622,0.100202 -3.536309,2.486202 -2.306286,2.740865 -0.64341,4.631435 -1.229447,9.540153 -0.153975,1.289714 -1.331985,1.343254 -1.907568,1.124207 z M 176.03124,43.504624 c -4.10782,-2.374466 -5.90564,-2.017943 -5.76998,-2.620413 0.74248,-3.297452 1.80785,-14.133152 2.77627,-16.246499 0.30403,-0.663477 11.19335,4.420492 12.98274,5.751383 0.20313,0.15108 -0.30207,3.929681 -0.96495,7.864305 -0.64781,3.84521 -1.88199,9.566674 -2.20738,10.388976 -0.64927,1.640787 -0.88091,0.706308 -1.00114,0.657312 -0.12024,-0.049 -1.70774,-3.420599 -5.81556,-5.795064 z"
         id="path549"
         sodipodi:nodetypes="ssssssssscssssssssccsssssssssssssssssssccsssssssssssss" />
      <path
         style="fill:#070707"
         d="m 39,216.54203 c -9.889015,-1.63069 -25.275647,-6.28701 -24.566548,-7.43435 0.470197,-0.7608 14.508491,-7.83993 38.615831,-19.47293 C 78.15199,177.52144 93.247218,163.48303 112.71608,134.14524 117.27224,127.27953 121,121.0398 121,120.27918 c 0,-0.76062 1.0125,-3.21459 2.25,-5.45326 1.68959,-3.05652 1.92946,-4.18824 0.96305,-4.54377 -0.70782,-0.26039 -2.50782,-1.48658 -4,-2.72485 C 117.49011,105.2977 100.9301,95.964158 89.25,90.105935 83.457811,87.200827 83,86.726723 83,83.633488 c 0,-3.416977 3.206196,-9.141665 6.141854,-10.966328 1.281349,-0.796424 4.684713,0.649317 15.499996,6.584367 7.62198,4.182675 15.65815,8.481492 17.85815,9.552926 10.4279,5.07855 13.55429,6.462031 13.77148,6.094112 0.1294,-0.219211 1.20364,-1.785199 2.38719,-3.479975 1.18356,-1.694775 4.2677,-7.319775 6.85366,-12.5 2.58596,-5.180224 7.12858,-13.088147 10.09471,-17.573162 C 158.57317,56.860414 161,52.87988 161,52.499799 c 0,-0.380082 0.90832,-1.966679 2.01849,-3.525771 l 2.0185,-2.834713 -2.08222,-1.45844 c -2.94104,-2.059983 -2.77568,-6.645893 0.46484,-12.89186 3.88946,-7.496773 7.8866,-13.611022 9.27505,-14.187637 1.74288,-0.723811 12.89238,3.873351 16.25373,6.701742 1.58593,1.334471 7.70279,5.064922 13.59302,8.289892 6.53352,3.577181 11.11482,6.753146 11.74895,8.144913 0.85883,1.884934 0.37093,3.598406 -2.80796,9.861315 -5.40064,10.640118 -8.40801,13.652603 -13.20914,13.231617 L 194.5,63.5 l -6,11.528759 c -3.3,6.340817 -8.07254,14.890817 -10.60564,19 -2.5331,4.109182 -5.25803,8.821241 -6.0554,10.471241 -0.79737,1.65 -2.25706,4.22677 -3.24375,5.72616 -1.77965,2.70437 -1.77321,2.73561 0.8054,3.91051 1.42967,0.6514 2.59939,1.53152 2.59939,1.95583 0,0.42431 7.53677,4.96458 16.74837,10.08949 9.21161,5.1249 18.0173,10.4455 19.5682,11.82354 2.56081,2.27539 2.71607,2.78058 1.69029,5.5 -1.21311,3.21605 -6.7606,9.49447 -8.38913,9.49447 -0.54447,0 -9.40416,-4.70766 -19.68821,-10.46146 -10.28405,-5.7538 -19.15653,-10.5913 -19.71663,-10.75 -1.21828,-0.34518 -3.59509,3.05119 -12.56765,17.95866 C 127.73995,186.14179 102.83503,208.07766 75.5,215.05318 65.072997,217.714 49.868313,218.33421 39,216.54203 Z m 34.755731,-5.03386 c 24.240198,-5.76439 46.060229,-23.38426 66.159339,-53.42424 6.04544,-9.03547 17.5209,-29.03079 16.9309,-29.50111 C 155.25941,127.31809 130.85121,114 130.11989,114 c -0.52127,0 -2.63686,3.02039 -4.70132,6.71199 -6.58853,11.78141 -21.02611,32.54018 -28.083899,40.37985 -15.07531,16.74542 -24.693224,23.43581 -53.704488,37.35782 -12.419748,5.96002 -20.184697,10.21421 -19.414223,10.63648 1.197343,0.65622 13.493181,3.25893 20.28404,4.2936 5.222581,0.79572 22.756166,-0.32595 29.255731,-1.87157 z M 203.29238,141.94063 C 202.57456,141.26651 172.36953,124.28185 114.11521,91.795211 98.985896,83.358058 92.41883,80.18117 91.665213,80.934787 c -0.67218,0.67218 -0.71469,1.410689 -0.115213,2.001534 0.5225,0.514977 25.46257,14.662027 55.42238,31.437889 41.67062,23.33328 54.78259,30.24411 55.79238,29.40606 0.726,-0.60253 0.96343,-1.43037 0.52762,-1.83964 z M 168.07578,97.815307 C 175.49583,86.435763 188,63.130811 188,60.681047 c 0,-2.063999 -15.16162,-10.01426 -17,-8.914244 -3.21556,1.924073 -13.32191,17.42581 -20.57457,31.558534 -4.18445,8.153936 -7.3217,15.111728 -6.97166,15.461762 0.35003,0.350033 4.32863,2.748181 8.84132,5.329231 4.5127,2.58104 8.26854,4.73575 8.3463,4.78824 0.0778,0.0525 3.42324,-4.93768 7.43439,-11.089263 z m 35.81989,-46.290386 c 1.82503,-3.011293 3.38261,-6.248112 3.46129,-7.192931 0.10238,-1.229534 -4.26301,-4.205618 -15.35696,-10.469538 -8.525,-4.813426 -15.9998,-8.776607 -16.61067,-8.807068 -1.30733,-0.06519 -7.69681,11.522162 -7.19073,13.04041 0.29994,0.899832 30.38816,18.715687 31.84011,18.853189 0.29629,0.02806 2.03193,-2.412768 3.85696,-5.424062 z"
         id="path547" />
    </g>
  </g>
</svg>
