<?xml version="1.0" encoding="UTF-8" standalone="no"?>
<!-- Created with Inkscape (http://www.inkscape.org/) -->

<svg
   version="1.1"
   id="svg625"
   width="523.04773"
   height="158.52425"
   viewBox="0 0 523.04773 158.52425"
   sodipodi:docname="モ.png"
   xmlns:inkscape="http://www.inkscape.org/namespaces/inkscape"
   xmlns:sodipodi="http://sodipodi.sourceforge.net/DTD/sodipodi-0.dtd"
   xmlns="http://www.w3.org/2000/svg"
   xmlns:svg="http://www.w3.org/2000/svg">
  <defs
     id="defs629" />
  <sodipodi:namedview
     id="namedview627"
     pagecolor="#ffffff"
     bordercolor="#000000"
     borderopacity="0.25"
     inkscape:showpageshadow="2"
     inkscape:pageopacity="0.0"
     inkscape:pagecheckerboard="0"
     inkscape:deskcolor="#d1d1d1"
     showgrid="false" />
  <g
     inkscape:groupmode="layer"
     inkscape:label="Image"
     id="g631"
     transform="translate(-12.281136,-28.977411)">
    <g
       id="g635">
      <path
         style="fill:#aeaeae"
         d="m 518.07895,161.88486 c -0.21602,-7.15568 -8.56955,-10.48517 -13.6244,-5.43031 -1.35,1.35 0.26583,3.72887 0.26583,4.55763 0,1.28613 -5.83296,0.95287 -23.97038,1.19921 L 459.5,162.5 l -7.80856,-4.51476 c -9.23885,-5.34173 -6.82523,-20.21405 -5.23345,-39.32312 0.71061,-8.53081 -1.18807,-11.56071 3.43448,-9.29578 l 2.60753,-0.1064 -0.29423,18.19482 c -0.26725,16.52621 -0.18391,17.56733 1.77465,19.52589 2.01269,2.01269 2.97874,2.06684 35.55692,1.99306 18.41841,-0.0417 33.81982,0.12824 34.22534,0.37767 0.40553,0.24942 0.58485,3.19746 0.3985,6.55118 -0.31229,5.62023 -0.52109,6.09767 -2.66667,6.09767 -1.28031,0 -5.23793,-0.071 -5.51534,0.61649 -0.27741,0.6875 2.1432,0.70671 2.09978,-0.73163 z M 344.18598,112.25199 c 9.17729,-0.16487 24.47729,-0.16517 34,-6.6e-4 9.52271,0.16451 2.01402,0.29941 -16.68598,0.29977 -18.7,3.6e-4 -26.49131,-0.13424 -17.31402,-0.29911 z m 76.08252,-7.27724 C 439.81232,104.47091 438,97.880371 438,95.979712 438,94.072824 437.26509,94 418.02144,94 h -19.97856 l 1.01519,-4.293705 c 0.58616,-2.479133 1.35039,-0.400968 22.19249,-1.050053 C 432.84011,88.295309 453.26888,88 466.64782,88 h 24.32534 l 1.52655,3.65354 c 0.8396,2.009447 3.671,3.960327 4.07009,3.955862 3.03796,-0.03399 1.59492,-0.06458 1.59492,-0.706241 C 498.16472,94.053161 487.57143,94 473,94 c -19.4596,0 -20,0.05508 -20,2.038612 0,1.995678 -2.95887,8.729708 17.48026,7.652538 2.01199,-0.10603 24.14449,-5.889648 23.91601,-5.52115 -0.22848,0.3685 -22.34861,0.5935 -49.15584,0.5 -26.80724,-0.0935 -26.00296,6.33133 -24.97193,6.30475 z m 83.03716,-16.299943 c -1.20689,-3.915702 -6.09488,-8.910656 -5.96685,-9.038694 0.51758,-0.517578 36.9541,-0.204868 37.47326,0.314286 0.69838,0.698385 0.54306,12.02951 0.36911,12.992291 -0.27891,1.543744 -7.07741,1.023024 -14.59248,1.138277 -8.98709,0.137828 -16.27916,-0.135641 -16.74778,0.618865 -0.39427,0.634813 0.67909,-2.085182 -0.53524,-6.025027 z M 376.2739,92.629754 c -0.75503,-1.215505 -0.38037,-11.303811 0.39092,-12.075122 0.57188,-0.571887 36.26537,-0.748971 36.84512,-0.169221 0.13333,0.133325 -23.57152,3.923384 -24.83684,7.184781 L 387.16308,93.5 h -5.56956 c -2.62848,0 -5.0223,-0.391611 -5.31962,-0.870246 z M 403,82.181726 c 0,-2.086264 -9.69408,-1.980734 17.25,-2.408112 L 437.5,79.5 437.77361,62.25 438.04723,45 H 445.5 452.95277 L 453.22639,62.25 453.5,79.5 h 17.69945 c 16.01589,0 23.80357,-0.04435 24.21703,1.539195 0.42603,1.631649 -7.27121,1.960996 -30.2601,1.963631 C 451.59537,83.00438 432.0625,83.30053 421.75,83.660938 403.06818,84.313842 403,84.308463 403,82.181726 Z m 5.82415,-40.376339 c -1.65,-0.466688 -7.32212,-0.222165 -13.54162,-0.627757 -2.31786,-0.151154 -4.51711,-0.07887 -4.88333,-0.445099 -0.75905,-0.759043 -0.91799,-10.547078 -0.1832,-11.281864 0.63101,-0.631007 120.93699,-0.631007 121.568,0 0.70027,0.70027 0.59344,10.505226 -0.12226,11.220924 -0.33271,0.332708 -4.57267,0.517712 -9.42213,0.41112 -4.84947,-0.106592 -6.4673,0.346567 -11.46955,0.425666 -4.2287,0.06687 -2.59701,1.106896 -3.11136,-1.464853 -0.35554,-1.777702 -2.09184,-2.760059 -4.24311,-4.089611 C 480.12011,33.917191 479.09944,33 447.03634,33 c -32.37946,0 -33.30454,0.05478 -36.24174,2.146258 -1.65778,1.180442 -3.52724,3.352571 -4.15437,4.826955 -1.01641,2.389585 4.85813,2.588551 2.18392,1.832174 z"
         id="path639"
         sodipodi:nodetypes="sssscssccsssssssssssssssscssscssssssssssssssssssssscsssscccccccsssssssssssssssssss" />
      <path
         style="fill:#070707"
         d="M 502.45101,184.65101 C 500.29914,182.49914 499,180.2284 499,178.61905 c 0,-3.12869 -0.77553,-3.33428 -15,-3.97648 -6.58562,-0.29733 -12.92319,-1.23787 -17,-2.52292 -9.00934,-2.83985 -18.55424,-9.25309 -21.84381,-14.67692 -1.46091,-2.40873 -2.94184,-4.39374 -3.29097,-4.41112 -0.34912,-0.0174 -0.93614,2.38047 -1.30448,5.32857 -0.5163,4.13228 -1.17266,5.6094 -2.86523,6.44811 -3.92859,1.9467 -41.16557,6.57753 -74.19551,9.22703 -21.92896,1.75903 -79.88701,2.34272 -105.5,1.06247 -49.89074,-2.49375 -92.7925,-7.22665 -146,-16.10663 C 80.590444,153.74912 82.500143,154.20334 73.946712,149.94017 55.426481,140.70939 35.676695,124.25288 24.81359,109 18.839285,100.61148 11.607371,88.059296 12.331466,87.335201 12.641132,87.025534 28.330734,87.965722 47.197248,89.424508 118.37382,94.92798 152.73269,97.406436 193.5,99.97797 c 56.23552,3.54724 179.338,7.27445 187.60777,5.68025 3.06589,-0.59102 3.54288,-1.03489 3.17578,-2.95526 -0.44287,-2.31671 6.00584,-21.006946 8.17825,-23.70296 1.38865,-1.72335 9.26324,-23.017586 12.47733,-33.740845 1.69605,-5.658565 2.88917,-7.78915 5.45998,-9.75 L 413.68878,33 h 33.28758 c 39.825,0 38.50973,-0.342869 41.93423,10.931536 1.14917,3.783416 2.08941,7.423525 2.08941,8.089131 0,1.857758 7.90208,26.15364 8.90825,27.389492 0.48802,0.599412 2.26923,5.526912 3.95824,10.949999 2.74717,8.820593 2.92689,10.138732 1.7046,12.502362 -3.09562,5.98628 -2.79768,5.92623 -31.23844,6.29666 -14.39204,0.18745 -26.53618,0.70996 -26.98698,1.16113 -0.4508,0.45118 -0.82296,7.87618 -0.82703,16.5 -0.007,14.18993 0.21825,16.24091 2.36752,21.58654 3.09976,7.70969 9.10767,13.69885 16.52596,16.47439 7.16357,2.68023 23.74935,4.54864 32.27409,3.63572 5.50906,-0.58997 6.35535,-0.93675 5.74579,-2.35442 C 500.59364,159.56138 503.77154,154 510.38197,154 514.11869,154 518,157.59347 518,161.05307 518,164.5121 519.20346,166 522.00123,166 c 3.58963,0 8.99877,4.94517 8.99877,8.2269 0,1.33346 -1.10454,3.46213 -2.45453,4.73038 -2.07932,1.95342 -3.22071,2.2323 -7.46661,1.82432 -4.36609,-0.41953 -5.30637,-0.16647 -7.29546,1.96342 -1.25587,1.34475 -3.54294,3.10021 -5.08239,3.90101 -2.68423,1.3963 -2.94047,1.31451 -6.25,-1.99502 z M 353,167.9078 c 26.47159,-1.45571 78.20766,-6.9352 79.85609,-8.45775 0.51385,-0.47461 5.09695,-34.83035 4.69944,-35.22785 -0.18308,-0.18308 -8.82046,0.15687 -19.1942,0.75543 -30.95229,1.78594 -118.14446,2.41184 -157.36133,1.12961 -66.04671,-2.15947 -118.59985,-5.48756 -192.386374,-12.18348 -18.087506,-1.64139 -33.162506,-2.70259 -33.5,-2.35823 -1.001919,1.02231 16.896494,17.55127 24.510997,22.6356 15.253813,10.18523 21.561949,12.91148 35.742307,15.4471 C 189.66442,166.50981 272.13371,172.35476 353,167.9078 Z m 49,-46.97315 c 15.125,-0.59461 29.525,-1.39367 32,-1.77568 4.25945,-0.65745 4.5158,-0.88072 4.79552,-4.17678 L 439.09104,111.5 362.79552,111.499 C 314.86612,111.4982 277.01929,111.02276 261,110.22012 198.40273,107.0837 134.72401,102.88378 53.5,96.534505 37,95.2447 23.354811,94.329478 23.177357,94.500679 22.328002,95.320105 30.491682,106 31.967404,106 c 0.926334,0 16.275123,1.34332 34.10842,2.98516 C 125.62428,114.46755 194.41829,119.07478 244,120.901 c 33.11807,1.21982 127.31717,1.23988 158,0.0337 z m 92.21494,-24.146444 c -0.15679,-0.941486 -0.95033,-3.303986 -1.76342,-5.25 L 490.97316,88 h -24.32534 c -13.37894,0 -33.82742,0.295923 -45.44106,0.657607 l -21.11572,0.657606 -1.54552,3.86263 C 397.69548,95.302289 397,97.448993 397,97.948296 c 0,0.533785 20.08583,0.83446 48.75,0.729764 45.401,-0.165828 48.73042,-0.295656 48.46494,-1.889854 z M 489.63257,82.612758 C 489.70548,82.550741 487.03704,74.0625 483.7027,63.75 L 477.64027,45 447.07014,45.014516 416.5,45.029032 409.72326,63.264516 c -3.72721,10.029516 -6.76471,18.77691 -6.75,19.438652 0.0206,0.927905 9.92155,1.068093 43.27674,0.612758 23.7875,-0.324726 43.30966,-0.641151 43.38257,-0.703168 z"
         id="path637" />
    </g>
  </g>
</svg>
