<?xml version="1.0" encoding="UTF-8" standalone="no"?>
<!-- Created with Inkscape (http://www.inkscape.org/) -->

<svg
   version="1.1"
   id="svg59"
   width="359.94"
   height="395.49112"
   viewBox="0 0 359.94 395.49112"
   sodipodi:docname="ヤ.png"
   xmlns:inkscape="http://www.inkscape.org/namespaces/inkscape"
   xmlns:sodipodi="http://sodipodi.sourceforge.net/DTD/sodipodi-0.dtd"
   xmlns="http://www.w3.org/2000/svg"
   xmlns:svg="http://www.w3.org/2000/svg">
  <defs
     id="defs63" />
  <sodipodi:namedview
     id="namedview61"
     pagecolor="#ffffff"
     bordercolor="#000000"
     borderopacity="0.25"
     inkscape:showpageshadow="2"
     inkscape:pageopacity="0.0"
     inkscape:pagecheckerboard="0"
     inkscape:deskcolor="#d1d1d1"
     showgrid="false" />
  <g
     inkscape:groupmode="layer"
     inkscape:label="Image"
     id="g65"
     transform="translate(-14.22677,-14.143857)">
    <g
       id="g123">
      <path
         style="fill:#afafaf"
         d="m 264.20013,378.29753 c -2.32397,-15.28864 -5.14452,-27.95413 -5.13757,-28.307 0.007,-0.35288 2.02063,-1.04558 3.34454,-1.37786 1.3239,-0.33228 1.95447,-2.06941 2.69307,-2.3532 1.02984,-0.39568 1.10227,-0.72707 2.12326,5.47882 0.59898,3.64078 6.7762,40.47457 9.90653,52.14078 0.2639,0.98352 -0.93136,1.4991 -4.16719,1.79753 l -4.53723,0.41845 z M 258,401.35991 c 0,-0.35205 -2.26125,-11.45604 -5.025,-24.67553 -3.94003,-18.84585 -5.2879,-24.02604 -5.46751,-25.19597 -0.31164,-2.0299 5.20403,-0.79765 5.754,-0.62327 0.54997,0.17438 0.89184,11.339 2.91272,24.21817 C 260.32546,401.53944 260.37382,402 259,402 c -0.55,0 -1,-0.28804 -1,-0.64009 z m -12.31099,-55.64792 c 0.67512,-1.09237 -10.37571,-55.85673 -12.04857,-59.79623 -0.84603,-1.99238 -0.007,-0.65294 9.10699,-1.84533 5.25707,-0.68779 10.27702,-1.47745 11.15544,-1.75481 1.00718,-0.31801 1.19045,-0.1924 0.49616,0.34005 -0.7786,0.5971 0.6086,9.03189 4.73761,28.80671 3.21123,15.37932 5.68281,29.27592 5.27713,29.64337 -0.40569,0.36746 -4.50404,0.43755 -8.89214,1.39375 -4.3881,0.95619 -8.62442,1.98645 -9.41404,2.28946 -0.87201,0.33462 -0.8283,1.58597 -0.41858,0.92303 z m 58.19098,-16.2882 c -1.23996,-0.0253 -2.94738,-2.03699 -6.80173,-4.86634 C 294.28522,322.50717 292,320.66308 292,320.45948 c 0,-0.20361 6.66123,-7.02778 14.80273,-15.16484 15.12229,-15.11403 28.79633,-30.05753 28.09067,-30.69853 -0.21637,-0.19655 -13.6684,0.9232 -29.8934,2.48833 -16.225,1.56512 -37.28898,3.25003 -38.66398,3.2114 -1.375,-0.0386 25.3069,-4.02845 51.14824,-8.33342 25.84135,-4.30497 43.39152,-8.73361 43.62934,-8.49579 0.23782,0.23782 2.56131,-1.19703 1.71849,-1.19703 -1.23995,0 -0.42562,3.48466 0.15919,6.68274 0.39751,2.17378 0.42129,3.86128 0.0528,3.75 -0.36843,-0.11129 -4.20743,4.07266 -8.5311,9.29766 -9.17844,11.09182 -22.12501,25.69504 -31.23383,35.23055 -5.31468,5.56364 -7.25532,7.29994 -12.41921,10.09591 -6.02034,3.2597 -2.08492,2.19723 -3.92827,2.15961 z M 164.78757,283.49143 c -0.43674,-3.4077 -0.39367,-4.01598 -0.58423,-6.69696 -0.0755,-1.06264 -0.27111,-2.06003 -0.006,-2.32553 22.64626,-2.67347 40.16828,-5.36312 65.22179,-8.58966 0.52527,-0.46746 -0.11898,-3.63606 -1.38524,-4.10448 -1.69385,-0.6266 -0.18854,1.3634 6.09685,0.4473 4.52399,-0.65938 8.32831,-1.0916 8.45406,-0.96049 0.12574,0.13112 0.38301,3.56887 0.57171,7.63945 l 0.3431,7.40106 -34.5,5.70501 c -18.975,3.13776 -36.525,6.00608 -39,6.37404 l -4.5,0.66902 z M 251,269.69696 v -5.55305 l 5.25,-0.60119 c 20.44659,-2.34139 69.20179,-6.54407 75.98994,-6.55031 4.54303,-0.004 12.035,-0.44159 16.64882,-0.97203 5.03248,-0.57858 10.17093,-0.99007 10.83674,-0.10374 2.01057,2.67649 0.83651,1.89421 -0.46127,2.30886 -0.825,0.26359 -24.48923,3.28133 -52.26423,7.78259 -27.775,4.50125 -51.7375,8.4221 -53.25,8.71299 -2.73335,0.52569 -2.75,0.49526 -2.75,-5.02415 z m -22.91192,-11.27574 c 0,-0.22984 -2.3314,-12.20024 -5.07324,-25.84734 -2.74183,-13.64709 -4.7869,-25.13368 -4.54459,-25.52574 0.589,-0.95302 17.17059,-3.38815 18.30346,-2.688 0.48946,0.30251 1.47954,3.83273 2.20018,7.84494 1.31586,7.90178 1.40028,7.71143 2.96182,15.29492 0.0419,6.6 0.36008,15.64515 0.70696,20.10034 l 0.63068,8.10033 -3.94628,1.82148 c -2.21649,1.02306 -6.28957,-0.20552 -8.07707,0.11595 -1.7875,0.32146 -3.16192,1.01297 -3.16192,0.78312 z"
         id="path127"
         sodipodi:nodetypes="ssssssscsssssssssssssssssssssssssssssssssssssccsssscsscsccscsssssscssssccscsss" />
      <path
         style="fill:#070707"
         d="M 232.80321,408.66394 C 221.17554,405.3769 215.51949,398.68122 210.3264,382.05572 204.45399,363.2554 202.06424,359.87056 195.17728,360.5985 169.617,363.30018 147.6933,364.38604 118,364.421 l -33.5,0.0394 -12.133488,-6.17952 c -17.399045,-8.86125 -27.697156,-15.13446 -37.912305,-23.09473 -10.055301,-7.8357 -21.192727,-18.781 -20.160756,-19.81297 0.373498,-0.3735 5.297766,-1.53457 10.942818,-2.58015 C 36.468194,310.71269 99.041093,300.0607 100.25,300.02324 101.05238,299.99838 101.325,286 100.5231,286 c -0.26229,0 -15.449789,2.92489 -33.749996,6.49975 -18.300207,3.57487 -33.453574,6.49987 -33.674149,6.5 -0.220575,1.4e-4 3.847614,-4.38725 9.04042,-9.74975 11.295256,-11.66437 21.923033,-27.21948 29.856103,-43.69823 7.832255,-16.26933 11.865694,-26.75246 21.18145,-55.05177 7.061112,-21.45019 7.880072,-24.72361 7.708422,-30.81093 -0.14167,-5.02392 0.21583,-7.21882 1.36254,-8.36554 1.40614,-1.40613 1.696,-1.32868 3.03521,0.81094 1.25495,2.00499 1.57483,13.06025 2.09876,72.53375 0.33998,38.59252 0.89961,70.9017 1.24362,71.79819 0.53127,1.38445 1.69863,1.53158 7.75,0.97677 7.51752,-0.68923 43.62868,-6.58486 52.12452,-8.51003 2.75,-0.62315 20.75,-3.72006 40,-6.88202 l 35,-5.74901 -0.3431,-7.40106 c -0.1887,-4.07058 -0.48564,-7.548 -0.65986,-7.72759 -0.17422,-0.17959 -19.36983,2.80885 -42.6569,6.64098 -23.28708,3.83214 -46.47896,7.47161 -51.53751,8.08772 -5.05855,0.61611 -9.89605,1.38832 -10.75,1.71601 -2.66601,1.02304 -1.74052,-1.25261 3.99607,-9.82579 7.86751,-11.75781 23.81781,-44.13702 32.16363,-65.29239 9.45978,-23.9791 15.44614,-41.27615 33.22479,-96 8.21945,-25.3 17.66869,-53.2 20.99831,-62 4.99804,-13.209531 6.05479,-17.068672 6.05921,-22.127555 0.006,-6.918358 1.88109,-9.925287 4.53453,-7.271849 1.12593,1.125933 1.75102,9.162486 2.94897,37.914097 0.8361,20.066919 1.7505,38.285307 2.032,40.485307 0.2815,2.2 2.10769,43.81332 4.05821,92.47404 1.95051,48.66072 3.6769,88.60454 3.8364,88.76405 0.15951,0.1595 24.78369,-3.73265 54.72039,-8.64924 57.85319,-9.50139 66.10144,-10.68489 67.67768,-9.71071 1.63678,1.01158 -2.50353,15.27044 -7.29458,25.12186 -4.88483,10.04427 -10.30756,17.16955 -25.00824,32.85995 -9.09622,9.70862 -10.66746,10.94404 -17.38517,13.66949 -9.09342,3.6893 -31.21241,11.12293 -44.61483,14.99392 -13.16747,3.80313 -19.50367,6.23199 -19.48384,7.46876 0.009,0.55433 1.94053,13.4348 4.29254,28.62325 l 4.27638,27.61538 -6.54254,1.2469 c -9.94596,1.89555 -23.81053,2.22097 -29.23933,0.68629 z m 26.72751,-6.86133 c 0.67722,-0.67722 -6.49421,-48.96162 -7.42046,-49.96113 -0.33564,-0.36218 -7.13526,0.6103 -15.11026,2.16108 -7.975,1.55077 -17.72655,3.3442 -21.67012,3.98539 l -7.17012,1.16581 2.31484,4.67312 c 1.27317,2.57022 3.96867,10.01176 5.99,16.53676 2.95974,9.55421 4.39155,12.62818 7.35528,15.79114 5.42648,5.79126 9.51511,6.93712 23.40032,6.55809 6.4461,-0.17596 11.98584,-0.58558 12.31052,-0.91026 z M 176,355.64929 c 52.31376,-5.43935 96.08993,-15.22928 139.20473,-31.13119 l 12.70472,-4.68585 10.36613,-11.16613 c 12.989,-13.99141 18.14613,-20.56291 21.67084,-27.61421 3.08416,-6.16995 6.50048,-15.93834 5.81418,-16.62464 -0.24374,-0.24374 -23.80209,3.39003 -52.35188,8.07504 -28.5498,4.68502 -57.08372,9.35862 -63.40872,10.38578 -6.325,1.02716 -59.36277,9.67749 -117.86172,19.22297 l -106.361711,17.3554 5.637112,5.24701 c 3.100411,2.88586 10.41776,8.40438 16.260775,12.26338 9.980782,6.59178 31.607864,18.27827 37.273173,20.14106 C 89.10249,358.48407 159.68547,357.3456 176,355.64929 Z M 73,287.57415 c 12.925,-2.51865 24.5125,-4.81175 25.75,-5.0958 L 101,281.9619 v -26.81902 c 0,-14.75046 -0.29505,-37.6213 -0.65566,-50.82408 l -0.655665,-24.00505 -5.722309,17.09312 C 79.483389,240.66901 65.579248,267.95663 48.35616,286.91932 l -5.830425,6.41933 3.487132,-0.59258 C 47.93079,292.42015 60.075,290.09279 73,287.57415 Z M 193.98208,263.99111 C 220.09722,259.596 241.8589,256 242.34137,256 c 0.48562,0 0.6104,-4.79887 0.27952,-10.75 -0.32874,-5.9125 -2.20783,-53.275 -4.17576,-105.25 -1.96792,-51.975 -3.88564,-95.766015 -4.26159,-97.313366 -0.58095,-2.391115 -1.52709,-0.439974 -6.30389,13 C 224.78846,64.383985 215.40809,92.65 207.0344,118.5 c -25.12507,77.56227 -39.32075,112.98664 -57.44851,143.35891 -3.07224,5.1474 -5.58589,9.5349 -5.58589,9.75 0,0.74961 2.79724,0.32328 49.98208,-7.6178 z M 256.36515,253.25 c 1.78125,-10.65625 2.81884,-34.67462 2.27879,-52.75 -0.58961,-19.73434 -1.47085,-31.37187 -6.02004,-79.5 -1.27369,-13.475 -1.9785,-24.884131 -1.56623,-25.353625 1.7245,-1.963875 4.73272,1.994269 13.66021,17.973795 20.35892,36.44093 36.48824,70.79385 45.7216,97.37983 4.50053,12.95857 12.06533,39.85331 11.38705,40.4838 -0.33538,0.31175 -60.95841,5.5162 -64.25437,5.5162 -1.56388,0 -1.74157,-0.55205 -1.20701,-3.75 z M 293.5,249.42539 c 12.1,-0.92684 22.34036,-1.98958 22.75635,-2.36164 1.8877,-1.6883 -9.88909,-38.14989 -20.44059,-63.28522 -7.94218,-18.91954 -38.24951,-77.67811 -39.44783,-76.47979 -0.20578,0.20578 0.51484,9.33525 1.60139,20.2877 2.7565,27.78563 4.78371,54.2777 5.50292,71.91356 0.56824,13.93396 -0.79091,46.56648 -2.12005,50.90124 -0.53718,1.75191 -0.16153,1.85443 4.78242,1.30529 2.95096,-0.32778 15.26539,-1.35429 27.36539,-2.28114 z"
         id="path125" />
    </g>
  </g>
</svg>
