<?xml version="1.0" encoding="UTF-8" standalone="no"?>
<!-- Created with Inkscape (http://www.inkscape.org/) -->

<svg
   version="1.1"
   id="svg353"
   width="213.42398"
   height="151.24168"
   viewBox="0 0 213.42398 151.24168"
   sodipodi:docname="ユ.png"
   xmlns:inkscape="http://www.inkscape.org/namespaces/inkscape"
   xmlns:sodipodi="http://sodipodi.sourceforge.net/DTD/sodipodi-0.dtd"
   xmlns="http://www.w3.org/2000/svg"
   xmlns:svg="http://www.w3.org/2000/svg">
  <defs
     id="defs357" />
  <sodipodi:namedview
     id="namedview355"
     pagecolor="#ffffff"
     bordercolor="#000000"
     borderopacity="0.25"
     inkscape:showpageshadow="2"
     inkscape:pageopacity="0.0"
     inkscape:pagecheckerboard="0"
     inkscape:deskcolor="#d1d1d1"
     showgrid="false" />
  <g
     inkscape:groupmode="layer"
     inkscape:label="Image"
     id="g359"
     transform="translate(-11.788499,-10.00743)">
    <g
       id="g363">
      <path
         style="fill:#b0b0b0"
         d="m 12.293397,160.66571 c -0.64597,-1.0452 -0.684531,-13.60791 -0.04374,-14.2487 0.259536,-0.25954 30.849443,-0.45352 67.977572,-0.43108 53.215791,0.0322 67.723401,-0.22663 68.534141,-1.22256 1.63172,-2.00444 3.75712,-101.433697 2.20815,-103.300099 C 149.94023,40.223056 143.5911,40 109.31854,40 46.774388,41.415776 48.740359,40.339404 49.494549,39.837766 47.140885,37.876967 51.656074,38.066438 103.25,38.033269 L 155,38 V 93.5 149 H 89.5 24 v 4 4 H 93.5 163 V 93.508396 30.016792 L 107.33636,29.758396 51.672718,29.5 57.447154,25.666222 c 3.175939,-2.108578 -2.502159,-2.62951 -2.82112,-2.113418 -1.00962,1.633598 24.867392,1.488966 69.898636,1.42627 23.94391,-0.03334 43.95144,0.197145 44.46118,0.512182 0.50974,0.315037 0.71946,1.120883 0.46605,1.790769 C 169.19849,27.951911 168.36143,54.375 167.59177,86 c -0.97813,40.19095 -1.08343,57.88474 -0.3498,58.77811 0.80964,0.98593 7.44147,1.25799 29.0106,1.19013 15.37857,-0.0484 28.18797,0.13897 28.46534,0.41634 0.62693,0.62692 0.67315,13.55769 0.0507,14.18015 -0.84251,0.84251 -211.954905,0.94284 -212.475203,0.10098 z"
         id="path367"
         sodipodi:nodetypes="sscssccscccccccccccccssssssssssss" />
      <path
         style="fill:#090909"
         d="m 24,153 v -4 H 89.5 155 V 93.5 38 H 103.5 C 75.175,38 52,38.170477 52,38.378838 c 0,0.208361 3.4875,2.975669 7.75,6.149572 11.055898,8.232341 14.46266,12.685282 10.78475,14.096629 C 69.227706,59.126599 35.145307,35.430736 35.039457,33.946859 34.990963,33.267032 43.928884,26.918083 58.5,17.281934 l 11,-7.274504 1.75,2.107069 c 0.9625,1.158888 1.742051,2.394716 1.732335,2.746285 C 72.97262,15.212353 68.168446,18.65 62.306392,22.5 l -10.658278,7 55.675946,0.258396 L 163,30.016792 V 93.508396 157 H 93.5 24 Z"
         id="path365" />
    </g>
  </g>
</svg>
