<?xml version="1.0" encoding="UTF-8" standalone="no"?>
<!-- Created with Inkscape (http://www.inkscape.org/) -->

<svg
   version="1.1"
   id="svg443"
   width="293.61258"
   height="165.77454"
   viewBox="0 0 293.61258 165.77454"
   sodipodi:docname="ヨ.png"
   xmlns:inkscape="http://www.inkscape.org/namespaces/inkscape"
   xmlns:sodipodi="http://sodipodi.sourceforge.net/DTD/sodipodi-0.dtd"
   xmlns="http://www.w3.org/2000/svg"
   xmlns:svg="http://www.w3.org/2000/svg">
  <defs
     id="defs447" />
  <sodipodi:namedview
     id="namedview445"
     pagecolor="#ffffff"
     bordercolor="#000000"
     borderopacity="0.25"
     inkscape:showpageshadow="2"
     inkscape:pageopacity="0.0"
     inkscape:pagecheckerboard="0"
     inkscape:deskcolor="#d1d1d1"
     showgrid="false" />
  <g
     inkscape:groupmode="layer"
     inkscape:label="Image"
     id="g449"
     transform="translate(-11.191939,-7.8924332)">
    <g
       id="g453">
      <path
         style="fill:#afafaf"
         d="m 206,163.25555 -17.5,-0.40492 -3.29944,-6.89882 c -1.81469,-3.79435 -5.61729,-9.49824 -8.45021,-12.67531 -2.83293,-3.17708 -6.33077,1.27613 -3.71069,1.09903 L 178.59521,144 H 232.29761 286 V 118 92 H 229.5 173 v -7.894365 -8.874237 l 61.75,0.574684 c 33.96176,0.316069 61.975,-0.233571 62.25,-0.02381 0.66158,0.504623 3.21355,87.057608 2.5678,87.889068 -0.275,0.35408 -13.9928,-2.38384 -28.5678,-1.77285 -39.80501,1.66866 -45.97016,1.79738 -65,1.35706 z m -38.22739,-1.5797 c -0.36551,-0.55 -0.0476,-5.53749 0.22739,-9.64616 l 0.5,-7.47031 3.12334,3.97031 c 3.39292,4.31299 9.91461,12.92993 9.92059,13.97549 -12.53637,0.30999 -13.05937,0.24198 -13.77132,-0.82933 z M 286,46.5 V 25 h -60 c -38.06308,0 -58.86829,0.394954 -58.82211,-0.484209 0.24693,-4.701776 2.55772,-5.384289 -4.48981,-5.545823 -6.7375,-0.154429 -1.16308,3.464714 23.31192,3.384881 39.93465,-0.130259 75.36808,-1.1616 101.75,-2.96158 L 297,18.762162 V 43.381081 68 H 291.5 286 Z M 167.47149,16.288864 c -0.56903,-0.920708 -1.32408,-0.656402 -0.41172,-0.09254 0.98079,0.60616 0.68919,-2.485237 0.71933,-4.57157 0.0216,-1.496332 -0.15373,-2.8932269 0.2828,-3.1630136 1.47761,-0.9132156 134.35951,-0.6564329 135.27996,0.2640185 0.53536,0.535361 0.48818,2.3818251 -0.11618,2.7553371 -1.97929,1.223272 -55.25935,2.546578 -95.3197,3.18537 -32.94787,0.525377 -39.77667,2.686778 -40.43449,1.622394 z"
         id="path457"
         sodipodi:nodetypes="scssscccccccccssssssscscsccsssssccccccsssssssss" />
      <path
         style="fill:#060606"
         d="m 61,168.91258 c -26.125,-2.70369 -48.0625,-5.12595 -48.75,-5.38281 -1.802462,-0.6734 -1.751111,-1.77523 3.751372,-80.49243 3.571374,-51.091225 5.360736,-71.828019 6.277051,-72.744334 1.042233,-1.0422334 5.01245,-1.0110219 21.251626,0.167067 30.763966,2.231806 54.508823,3.501207 83.469951,4.462304 38.07442,1.263529 126.76986,-0.585825 168.11882,-3.505381 l 8.61882,-0.608555 0.74618,77.680779 c 0.50396,52.46466 0.41497,78.01199 -0.27416,78.70112 -0.61744,0.61744 -14.38444,1.36302 -34.865,1.88818 -18.61456,0.47731 -44.57721,1.34593 -57.69476,1.93027 -13.11756,0.58434 -24.67726,0.79991 -25.68822,0.47905 -1.01096,-0.32087 -2.37281,-2.2494 -3.02632,-4.28562 -0.65352,-2.03622 -1.75206,-4.37722 -2.4412,-5.20222 -0.68914,-0.825 -1.9714,-2.91918 -2.84947,-4.65374 -2.68144,-5.29696 -11.58518,-15.74562 -14.95879,-17.55434 -4.53663,-2.43227 -15.6211,-2.37579 -20.48258,0.10435 -6.93129,3.53608 -15.45444,14.03115 -22.82333,28.10373 -2.72118,5.19671 -3.10056,5.50905 -6.87999,5.6642 -2.2,0.0903 -25.375,-2.04792 -51.5,-4.75162 z m 56.55617,-10.46115 c 9.69134,-17.26744 20.85991,-26.31894 33.59941,-27.23045 6.20012,-0.44362 7.46627,-0.1894 13.25826,2.66199 8.62439,4.24577 16.44888,12.77638 21.34398,23.27015 l 3.74218,8.02223 17,-0.60687 c 25.50546,-0.91052 88.80548,-3.61095 90.36279,-3.85495 1.12653,-0.17651 1.33847,-7.06137 1.22253,-39.71353 -0.0771,-21.725 -0.38247,-40.853193 -0.67851,-42.507096 l -0.53825,-3.007096 -60.14975,0.370555 C 179.4665,76.209067 93.50177,74.923607 46.317075,73.009221 34.317684,72.522379 24.206213,72.433642 23.84714,72.812027 c -1.211385,1.276537 -6.479824,84.391873 -5.376039,84.812833 1.53055,0.58372 84.275389,9.13239 89.658049,9.2629 L 112.75829,167 Z M 260.25,68.336305 297,67.675564 V 43.337782 c 0,-22.517552 -0.13088,-24.336726 -1.75,-24.323662 -0.9625,0.0078 -9.34439,0.455071 -18.62643,0.99401 C 226.17885,22.937081 141.50478,23.135133 98.5,20.424759 L 88.5,19.79451 69.789284,42.647255 51.078568,65.5 63.419898,66.243312 C 96.489184,68.235059 202.92947,69.366892 260.25,68.336305 Z M 66.400273,43.25 C 84.759054,20.829004 84.988474,20.490368 82.264225,19.833952 79.468997,19.160433 27.856496,15.785149 27.447044,16.249092 c -0.209803,0.237724 -3.456998,44.903646 -3.450239,47.458844 0.0021,0.81032 2.554259,1.320123 7.753195,1.548756 4.2625,0.187451 9.611222,0.431379 11.886048,0.542064 L 47.772096,66 Z"
         id="path455" />
    </g>
  </g>
</svg>
