<?xml version="1.0" encoding="UTF-8" standalone="no"?>
<!-- Created with Inkscape (http://www.inkscape.org/) -->

<svg
   version="1.1"
   id="svg59"
   width="284.0997"
   height="268.08591"
   viewBox="0 0 284.0997 268.08591"
   sodipodi:docname="ラ.png"
   xmlns:inkscape="http://www.inkscape.org/namespaces/inkscape"
   xmlns:sodipodi="http://sodipodi.sourceforge.net/DTD/sodipodi-0.dtd"
   xmlns="http://www.w3.org/2000/svg"
   xmlns:svg="http://www.w3.org/2000/svg">
  <defs
     id="defs63" />
  <sodipodi:namedview
     id="namedview61"
     pagecolor="#ffffff"
     bordercolor="#000000"
     borderopacity="0.25"
     inkscape:showpageshadow="2"
     inkscape:pageopacity="0.0"
     inkscape:pagecheckerboard="0"
     inkscape:deskcolor="#d1d1d1"
     showgrid="false" />
  <g
     inkscape:groupmode="layer"
     inkscape:label="Image"
     id="g65"
     transform="translate(-10.900303,-10.729698)">
    <g
       id="g123">
      <path
         style="fill:#afafaf"
         d="m 118.38482,270.18636 c 0.30382,-0.49159 -0.79203,-3.01374 -2.43523,-5.6048 -2.89967,-4.5723 -3.09357,-6.56836 -0.64057,-6.59402 2.7494,-0.0288 26.55497,-10.35987 35.70341,-15.49452 26.34624,-14.78707 43.35988,-32.07306 54.07684,-54.94245 4.39146,-9.37112 9.50449,-24.14041 10.48619,-30.28997 l 0.67677,-4.23939 L 172.37611,152.7606 128.5,152.5 l 50.86199,-1.80467 c 27.9741,-0.99258 51.08653,-1.58014 51.36097,-1.3057 1.13377,1.13376 -8.242,27.16979 -14.16924,39.34728 -19.29036,39.63193 -46.28305,64.812 -83.11961,77.53795 -11.86185,4.09791 -15.79655,5.12059 -15.04929,3.9115 z M 78.17044,145.2027 c 1.94517,-2.72496 6.214774,-12.17174 5.408611,-10.70145 -0.496116,0.90482 5.395097,0.47536 8.257686,0.49875 14.713623,0.1202 4.199629,0.38158 7.187662,5.03802 1.778091,2.77091 3.062501,5.18419 2.854241,5.36284 -0.20825,0.17864 -5.926942,0.62622 -12.7082,0.9946 -11.89919,0.64642 -12.283151,0.60479 -11,-1.19276 z M 108,145.73549 c 0,-0.15317 3.4875,-3.41084 7.75,-7.23928 4.2625,-3.82844 1.56692,-5.78309 0.80445,-4.82115 -1.31706,1.66164 6.95205,1.34503 59.80944,1.09165 l 55.6365,-0.26671 -1.9e-4,3.16468 -2e-4,3.16468 -7.25,0.57817 c -3.9875,0.318 -28.85,1.25489 -55.25,2.08198 -26.4,0.8271 -51.0375,1.73346 -54.75,2.01413 -3.7125,0.28068 -6.75,0.38501 -6.75,0.23185 z m -6.46489,-5.32225 c -0.9322,-1.42272 -3.048957,-4.29814 -2.867508,-4.40652 1.687948,-1.00824 9.554738,-0.98448 11.824658,-1.00672 6.13523,-0.0601 4.43796,0.008 5.31338,-0.67905 0.87542,-0.6875 -1.76059,0.52088 -4.79271,3.38312 -3.03211,2.86224 -6.50448,5.61539 -7.12872,5.64065 -0.62424,0.0253 -1.4169,-1.50876 -2.3491,-2.93148 z M 89,92.507138 c 0,-3.605569 0.244904,-7.662568 -1.155041,-7.705146 -0.9625,-0.02927 1.311307,2.010042 5.780076,0.68819 4.468769,-1.321852 7.993945,-4.007847 10.950175,-5.137825 5.12159,-1.957653 9.96661,-1.375053 51.23783,-1.385193 l 43.31303,-0.01064 11.68697,5.271739 L 222.5,89.5 222,93 221.5,96.5 155.25,96.757138 89,97.014276 Z"
         id="path127"
         sodipodi:nodetypes="sssssscccsssssssssssssssscccssssssssscsssssscccccccs" />
      <path
         style="fill:#060606"
         d="M 103.94114,274.35339 C 90.861762,262.13232 75.374449,236.88403 69.662766,218.47088 c -5.530823,-17.8301 -8.109137,-38.29886 -7.031976,-55.82554 0.646791,-10.52408 0.776784,-10.99326 4.268159,-15.40515 1.980578,-2.50277 6.096868,-7.06817 9.147312,-10.14534 7.099443,-7.16164 8.684036,-10.19661 7.118147,-13.63336 C 82.523983,122.05591 82,120.08708 82,119.0863 c 0,-2.82148 -4.05077,-11.8918 -5.571437,-12.47534 -0.747995,-0.28703 -15.21292,-1.25123 -32.144277,-2.14265 -32.354994,-1.70348 -35.1812399,-2.23746 -32.695934,-6.177488 0.766166,-1.214625 6.366185,-2.704506 20.483049,-5.449499 26.744724,-5.200452 42.228123,-8.82787 43.50315,-10.191826 0.591004,-0.632223 2.288122,-4.335157 3.771376,-8.22874 3.616512,-9.493452 11.415405,-22.929619 19.772985,-34.065494 6.643318,-8.851739 21.801158,-26.421985 25.220578,-29.234492 1.47269,-1.2112986 4.38497,-0.03401 23.91869,9.669164 30.00771,14.906016 49.52119,22.502647 78.90806,30.719035 3.11643,0.871335 6.20485,2.233244 6.86317,3.026464 2.1885,2.636982 6.04527,17.848578 6.66622,26.292436 0.51188,6.960579 0.95655,8.5521 2.7084,9.693609 2.04559,1.332913 16.15252,6.814758 39.84597,15.483841 8.5067,3.11247 11.75,4.75397 11.75,5.94691 C 295,115.55347 292.98707,116 276.75288,116 h -15.84713 l 3.02931,3.76957 c 7.76545,9.66306 6.5306,32.03679 -2.74209,49.68276 -4.14708,7.8919 -13.69975,18.68652 -18.17821,20.54156 -5.68533,2.35494 -11.68096,-0.21406 -13.78709,-5.90747 -0.98158,-2.65348 0.1756,-4.38147 -10.11053,15.09772 -12.10642,22.92631 -30.44706,43.31056 -51.97742,57.769 -13.59826,9.13174 -39.0665,19.41374 -53.41814,21.5659 -4.4642,0.66945 -4.72436,0.55865 -9.78044,-4.16565 z m 27.08053,-7.27976 c 38.66722,-12.92824 65.78345,-37.76332 85.53205,-78.33672 6.01272,-12.35311 15.29738,-38.21914 14.13579,-39.38074 -0.29284,-0.29283 -26.55528,0.40149 -58.36097,1.54295 -31.8057,1.14146 -67.83364,2.37538 -80.062102,2.74205 l -22.233562,0.66666 -0.65511,3.49204 c -1.05437,5.62028 0.317968,32.96062 2.114508,42.12621 4.874216,24.86729 16.161206,47.52801 32.591706,65.43389 l 6.29474,6.85997 4.44943,-0.60986 c 2.44718,-0.33543 9.73427,-2.37683 16.19352,-4.53645 z m 111.49812,-84.08586 c 11.02121,-6.81148 21.59112,-31.22937 20.07291,-46.37105 -0.60884,-6.07221 -3.81037,-13.13977 -6.78883,-14.98674 -2.21362,-1.37269 -7.27413,0.9932 -12.79714,5.98291 l -4.08133,3.68723 0.10169,8.59994 c 0.074,6.25973 -0.59613,11.28799 -2.4627,18.47816 -1.41042,5.43303 -2.56188,11.28303 -2.55881,13 0.01,5.49186 2.84407,13.62178 4.74883,13.62178 0.28024,0 1.97466,-0.90551 3.76538,-2.01223 z M 101.89634,145.38316 c 0.21798,-0.18838 -0.82998,-2.1956 -2.328815,-4.46049 C 95.834948,135.28237 94,129.66355 94,123.87427 94,120.29698 93.616574,119 92.559017,119 c -2.223249,0 -2.494945,1.19904 -1.292501,5.704 l 1.108064,4.15137 -6.452248,7.32232 c -10.723346,12.16935 -11.087485,10.9969 3.174699,10.22192 6.821633,-0.37067 12.581319,-0.82807 12.799309,-1.01645 z m 78.38237,-2.31634 c 27.92829,-0.985 51.05149,-2.06369 51.3849,-2.3971 0.81596,-0.81595 -1.39647,-17.69469 -2.93713,-22.4075 L 227.49658,114.5 210.49829,113.69747 C 201.14923,113.25608 169.2,111.61518 139.5,110.05101 c -29.7,-1.56416 -54.11706,-2.73596 -54.260133,-2.604 -0.143073,0.13196 0.493681,2.27382 1.415009,4.75969 1.165523,3.14474 2.157335,4.41115 3.260133,4.16276 1.699555,-0.3828 52.449941,-2.33784 52.755501,-2.03228 0.10044,0.10043 -7.65934,7.11369 -17.24395,15.58501 C 115.84195,138.39351 108,145.42245 108,145.54206 c 0,0.11961 4.8375,0.0146 10.75,-0.23343 5.9125,-0.248 33.60042,-1.25681 61.52871,-2.24181 z M 119.0178,130.80751 c 7.66181,-6.70587 13.75844,-12.3646 13.54809,-12.57496 -0.21036,-0.21036 -6.70738,-0.0614 -14.43781,0.331 l -14.05534,0.71347 1.96363,2.49635 C 110.20235,127.06955 107.56992,137 102,137 c -1.1,0 -2,0.24083 -2,0.53518 0,1.15182 3.28212,5.46482 4.15864,5.46482 0.51073,0 7.19736,-5.48662 14.85916,-12.19249 z M 269.5,107.97127 c -1.1,-0.49135 -11.9,-4.77068 -24,-9.509615 C 233.4,93.722717 216.075,86.531669 207,82.481549 181.26582,70.996534 165.09659,67.147593 147.58114,68.337422 136.5185,69.08891 127.86535,71.501489 115.15813,77.377265 103.57672,82.732476 94.598899,85.572815 74,90.39859 c -8.525,1.997181 -19.1,4.478284 -23.5,5.513561 -4.4,1.035277 -6.745729,1.928566 -5.21273,1.985086 1.532998,0.05652 36.632998,1.884297 78,4.061733 41.367,2.17743 86.91273,4.43879 101.21273,5.02524 14.3,0.58646 28.475,1.19668 31.5,1.35606 12.25026,0.64541 15.56796,0.55472 13.5,-0.369 z M 233.91796,80.25 c -0.0451,-3.1625 -1.05762,-9.287003 -2.25,-13.610006 L 229.5,58.779988 218,55.465217 C 192.96868,48.250164 171.66283,39.718433 144.31047,25.956913 l -17.18953,-8.648396 -4.41528,4.595742 c -8.19714,8.532185 -17.86875,20.543385 -24.278571,30.151623 -6.533295,9.793327 -15.060924,26.643616 -14.013792,27.690748 1.002097,1.002097 19.672883,-4.978941 27.777853,-8.898414 13.41679,-6.488209 22.82913,-8.965102 36.30885,-9.554817 20.97413,-0.917584 34.52388,2.477968 66.01948,16.544397 9.88929,4.416712 18.31802,8.060044 18.73052,8.096294 0.4125,0.03625 0.71308,-2.52159 0.66796,-5.68409 z"
         id="path125" />
    </g>
  </g>
</svg>
