<?xml version="1.0" encoding="UTF-8" standalone="no"?>
<!-- Created with Inkscape (http://www.inkscape.org/) -->

<svg
   version="1.1"
   id="svg353"
   width="116.75974"
   height="275.1879"
   viewBox="0 0 116.75974 275.1879"
   sodipodi:docname="リ.png"
   xmlns:inkscape="http://www.inkscape.org/namespaces/inkscape"
   xmlns:sodipodi="http://sodipodi.sourceforge.net/DTD/sodipodi-0.dtd"
   xmlns="http://www.w3.org/2000/svg"
   xmlns:svg="http://www.w3.org/2000/svg">
  <defs
     id="defs357" />
  <sodipodi:namedview
     id="namedview355"
     pagecolor="#ffffff"
     bordercolor="#000000"
     borderopacity="0.25"
     inkscape:showpageshadow="2"
     inkscape:pageopacity="0.0"
     inkscape:pagecheckerboard="0"
     inkscape:deskcolor="#d1d1d1"
     showgrid="false" />
  <g
     inkscape:groupmode="layer"
     inkscape:label="Image"
     id="g359"
     transform="translate(-13.891615,-13.812097)">
    <g
       id="g363">
      <path
         style="fill:#aeaeae"
         d="m 70.375,208.875 c 0.34375,-1.71875 0.625,-3.91867 0.625,-4.88871 0,-1.25052 1.091151,-1.96156 3.75,-2.44366 10.450065,-1.89482 20.110983,-9.0525 25.26233,-18.71662 2.84103,-5.32987 3.43966,-7.61429 3.80163,-14.50726 0.25063,-4.77258 -0.0509,-9.55961 -0.72364,-11.4895 -0.72398,-2.07683 -2.56401,-0.65777 -1.95179,-0.86185 0.53638,-0.17879 3.2812,-4.75501 3.93166,-6.78199 8.56939,-21.18736 7.36308,-41.90045 7.63007,-57.541221 0.51838,-32.954192 0.26832,-41.802151 2.07076,-39.995763 2.69302,2.698925 5.60566,49.436434 4.96645,77.351574 -0.51667,22.56363 -1.94231,30.42873 -7.77495,42.89346 -5.36699,11.46959 -20.484062,31.99995 -24.517808,32.02715 -0.941073,0.006 1.059295,-4.7462 1.057873,-3.92193 -1.385205,4.39652 -10.18685,13.7853 -7.002585,7.07938 -0.179951,0.6782 -5.695647,4.55134 -6.621741,4.21149 -1.100895,-0.42245 -2.965224,3.85436 -2.488106,4.62636 0.482508,0.78071 0.267277,-0.2757 -0.88914,-0.71946 -1.164228,-0.44676 -0.59661,-5.16015 -0.106041,-4.36639 0.397684,0.64347 0.190254,1.16994 -0.460955,1.16994 -0.792766,0 -0.97749,-1.03264 -0.559017,-3.125 z m -15.243599,-3.54835 c -5.140905,-3.72487 -6.061914,-4.78698 -4.775585,-5.5059 12.320281,-6.88568 3.606386,-0.30619 7.1186,0.71484 C 62.965075,202.13176 63,202.16675 63,206.07096 c 0,2.16097 -0.3375,3.91578 -0.75,3.89957 -0.4125,-0.0162 -3.61587,-2.10596 -7.118599,-4.64388 z M 62.5,194.04708 c -1.65,-0.44575 -2.261748,-0.86369 -1.35944,-0.92877 3.22411,-0.23251 21.457712,-11.51168 28.051336,-20.00648 18.325404,-23.60925 9.369923,-8.17739 6.125551,1.86823 -2.17658,6.73938 -8.788897,14.11609 -15.078826,16.82194 -5.604075,2.41081 -13.449543,3.40377 -17.738621,2.24508 z M 21.305228,124 C 22.330469,100.73036 26.146003,60.536496 27.372572,60.084969 27.992657,59.856703 29.7375,58.346613 31.25,56.729214 L 33.490466,51.397599 34,95.308918 V 136.82935 L 27.355215,137.16467 20.710429,137.5 Z M 126.86375,119.05509 C 127.11569,120.05356 126.52586,90.175 125.8892,80 L 124.73163,61.5 127.29615,55 129.86066,44.423729 129.82446,78 c -0.0175,16.225003 0.64045,38.97103 -0.68848,44.37924 l -2.45524,15.03602 -1.9335,-26.74789 z M 26.080023,32.676676 c -0.0711,-7.839241 -0.275204,-8.786297 -1.830023,-8.491331 -1.333211,0.252923 -1.873232,1.639837 -2.267424,5.823324 -0.489313,5.193008 -0.561538,5.314771 -1.329455,2.241331 -0.446617,-1.7875 -1.882552,1.923729 -2.328678,1.923729 -1.139161,0 -1.129179,-12.176375 -0.0559,-12.839697 1.134077,-0.700898 14.309442,-0.712886 15.440185,-0.01405 0.47211,0.291781 0.691243,2.283131 0.486962,4.425224 -0.307497,3.224406 -1.085384,48.165251 -2.823668,48.506957 C 20.501978,76.388958 29.260366,30.515195 27.85347,35.499999 l -3.10444,15.40678 1.330997,-18.230104 z m 90.112637,3.137542 c -0.85473,-3.092846 2.14032,28.037228 -1.31936,26.766949 -0.98121,-0.360267 -2.52273,-47.265074 -1.60012,-48.187683 0.74847,-0.748464 15.66687,-0.786772 16.4115,-0.04214 0.30323,0.303238 0.37141,5.804321 0.37857,12.226183 0.0246,22.09959 -0.52952,12.031607 -1.69028,13.192358 -1.35669,1.356689 -1.44524,1.132265 -0.83556,-2.117595 1.19207,-6.354269 1.08135,-7.15229 -0.99233,-7.15229 -1.23313,0 -2.21166,0.923033 -2.65032,2.5 -0.5782,2.078679 -0.71478,1.825886 -0.81039,-1.5 -0.13887,-4.830322 -1.34322,-6.998384 -3.44052,-6.193574 -1.1885,0.456069 1.2279,4.641197 -0.4399,10.355463 l -0.92005,7.719467 z"
         id="path367"
         sodipodi:nodetypes="sssssssccsssccccsssssssssssssssssssscccccssscccssccsssssssssssccssssssssssssscs" />
      <path
         style="fill:#070707"
         d="m 62.16699,287.70121 c -0.76168,-0.91777 -0.806849,-8.47196 -0.153968,-25.75 0.508163,-13.44817 0.938117,-28.57095 0.955455,-33.60619 L 63,219.19004 58.627222,216.62743 C 52.007508,212.74801 33.482889,194.49533 28.389126,186.83322 22.784124,178.40209 19.429469,170.24819 16.755872,158.55716 14.122879,147.04367 13.967528,122.78145 16.35532,96 18.895094,67.513903 18.738714,56.063725 15.690952,47.354787 c -1.838197,-5.252621 -2.205338,-7.440401 -1.386087,-8.259652 0.81925,-0.81925 1.392032,-0.595748 2.162455,0.843801 0.829605,1.550132 1.046419,0.686117 1.040348,-4.145853 -0.0086,-6.825565 1.808508,-8.910665 3.133819,-3.596053 0.787239,3.156895 0.846549,3.060114 1.341089,-2.188361 0.394192,-4.183487 0.934213,-5.570401 2.267424,-5.823324 1.55369,-0.294751 1.761134,0.65778 1.849252,8.491331 L 26.198504,41.5 27.726629,35.669736 C 29.20316,30.03632 31.179,27.779 33.021059,29.621059 33.536557,30.136557 32.716647,35.21513 31.062281,41.753841 29.49731,47.939229 28.385501,53 28.591594,53 c 0.206093,0 1.530037,-2.279919 2.942098,-5.066487 1.414628,-2.791636 3.105942,-4.87606 3.766846,-4.642372 3.291169,1.16372 -3.27964,15.08268 -7.927966,16.793828 -1.313324,0.483463 -5.187096,42.250211 -6.085662,65.615201 -1.446351,37.60881 7.513533,59.75892 31.435282,77.71248 C 57.549618,207.03569 61.836981,210 62.249665,210 62.662349,210 63,208.21734 63,206.03854 63,202.22408 62.842297,202.03465 58.75,200.93335 49.015028,198.31353 39.871025,190.25966 35.182058,180.17515 32.978762,175.43654 32.544783,173.09729 32.55228,166 c 0.0076,-7.18098 0.445286,-9.45455 2.820626,-14.65132 2.698467,-5.9037 6.325625,-10.33123 10.424417,-12.72467 11.944954,-6.97513 12.315556,-7.0938 22.202677,-7.1092 8.441695,-0.0132 10.112703,0.29682 15,2.78257 8.645757,4.39735 16.264876,12.13 18.93657,19.21873 1.86672,4.95294 2.18684,7.44834 1.85803,14.48389 -0.34166,7.31072 -0.86995,9.3851 -3.77576,14.82601 -5.139128,9.62262 -14.826843,16.8247 -25.144985,18.69338 -3.417586,0.61895 -3.662215,0.91987 -4.253267,5.23207 -0.344916,2.51644 -0.442469,4.75999 -0.216785,4.98568 1.243279,1.24328 17.047025,-9.32604 24.971218,-16.70039 9.964369,-9.27296 17.732819,-22.68852 21.736119,-37.53675 3.05541,-11.33252 3.65565,-40.96399 1.46631,-72.386536 -1.4914,-21.405316 -1.81785,-23.611771 -3.85344,-26.045228 -3.64986,-4.363227 -7.26266,-12.929582 -5.9898,-14.202451 0.79285,-0.79284 1.97254,0.384343 4.27889,4.269793 1.75134,2.950432 2.96841,4.679687 2.70459,3.842789 -1.64741,-5.226124 -3.81954,-17.203901 -3.54439,-19.544786 0.5722,-4.86788 2.51895,-3.791168 4.10896,2.272581 L 117.8015,41.5 l 0.0992,-7.781385 c 0.0785,-6.150308 0.43482,-7.910156 1.70017,-8.395717 2.13833,-0.820553 3.34373,1.316945 3.48345,6.177102 0.0956,3.325886 0.23219,3.578679 0.81039,1.5 0.43866,-1.576967 1.41719,-2.5 2.65032,-2.5 2.05253,0 2.13381,0.537661 1.09725,7.258588 -0.31737,2.057777 -0.32923,3.178912 -0.0264,2.491412 0.30288,-0.6875 1.21576,-1.25 2.02863,-1.25 2.00966,0 0.91209,7.277343 -2.41312,16 l -2.4779,6.5 1.3732,21.5 c 3.91623,61.31557 -0.41459,85.56323 -19.49725,109.16234 -5.54634,6.85904 -17.829939,16.93079 -26.758762,21.94045 -11.643611,6.53283 -10.528772,2.7527 -11.715384,39.72375 C 67.161991,284.77783 66.663184,289 64,289 c -0.415311,0 -1.240165,-0.58446 -1.83301,-1.29879 z M 80.238621,191.802 C 89.454486,187.83744 97,176.2521 97,166.06667 c 0,-7.68542 -2.818928,-14.0456 -8.936725,-20.1634 -4.603945,-4.60394 -6.925283,-6.09799 -11.574543,-7.44957 -25.737341,-7.48205 -47.037089,21.15695 -32.169903,43.25468 8.024882,11.92772 22.319128,15.94447 35.919792,10.09362 z"
         id="path365" />
    </g>
  </g>
</svg>
