<?xml version="1.0" encoding="UTF-8" standalone="no"?>
<!-- Created with Inkscape (http://www.inkscape.org/) -->

<svg
   version="1.1"
   id="svg472"
   width="189.89073"
   height="327.80276"
   viewBox="0 0 189.89073 327.80276"
   sodipodi:docname="ル.png"
   xmlns:inkscape="http://www.inkscape.org/namespaces/inkscape"
   xmlns:sodipodi="http://sodipodi.sourceforge.net/DTD/sodipodi-0.dtd"
   xmlns="http://www.w3.org/2000/svg"
   xmlns:svg="http://www.w3.org/2000/svg">
  <defs
     id="defs476" />
  <sodipodi:namedview
     id="namedview474"
     pagecolor="#ffffff"
     bordercolor="#000000"
     borderopacity="0.25"
     inkscape:showpageshadow="2"
     inkscape:pageopacity="0.0"
     inkscape:pagecheckerboard="0"
     inkscape:deskcolor="#d1d1d1"
     showgrid="false" />
  <g
     inkscape:groupmode="layer"
     inkscape:label="Image"
     id="g478"
     transform="translate(-9.2098427,-15.021064)">
    <g
       id="g482">
      <path
         style="fill:#aeaeae"
         d="M 43.643802,326.45419 C 41.089711,324.504 39,322.71327 39,322.47479 c 0,-0.23848 2.078998,-2.34995 4.619997,-4.69216 7.931967,-7.31144 17.339735,-19.91056 21.865348,-29.28263 7.237573,-14.98826 7.911109,-19.46833 8.249046,-54.86901 0.162072,-16.97795 0.468977,-31.15295 0.682012,-31.5 0.213034,-0.34704 3.30025,-0.48258 6.860479,-0.3012 l 6.473144,0.3298 0.629799,4.59488 c 1.31178,9.57048 -5.450273,57.66437 -11.001406,78.24553 -6.222459,24.19742 -7.626286,24.7592 -19.52965,37.25328 -4.041823,4.2643 -7.846558,7.7518 -8.454967,7.75 -0.608408,-0.002 -3.195908,-1.59889 -5.75,-3.54909 z M 115.63841,307.6469 c -0.31367,-9.98079 -1.05294,-36.1469 -1.64284,-58.1469 -0.58989,-22 -1.26545,-44.275 -1.50124,-49.5 -0.23578,-5.225 -0.96538,-6.40591 0.21243,-6.23128 1.49725,0.22199 1.64227,0.23128 7.36653,0.23128 H 127 l 0.011,52.25 c 0.006,28.7375 0.28475,53.90556 0.61932,55.92903 l 0.60832,3.67903 4.13068,-1.87299 c 13.64563,-5.02606 26.14348,-13.42627 37.42074,-22.34868 3.69046,-2.96167 9.95069,-8.59145 13.91162,-12.51062 C 187.66261,265.2066 191.12132,262 191.3877,262 c 0.26638,0 1.2924,1.92754 2.73246,4 1.56089,2.24635 2.75185,3.67762 3.06398,4 0.44872,0.46345 0.81586,0.75 0.81586,1.66667 0,0.91666 -0.24444,0.7271 -0.63726,1.0294 -0.62856,0.48373 -4.0108,2.51326 -8.13402,6.36389 -16.52585,15.43332 -44.19588,33.53772 -67.71222,44.30385 l -5.3078,2.43 z"
         id="path486"
         sodipodi:nodetypes="ssssssscscccssssssccscccsssssssscs" />
      <path
         style="fill:#070707"
         d="m 51.871292,340.61686 c -0.965321,-2.11865 -0.457072,-3.20073 4.579535,-9.75 C 71.065636,311.86274 80.628949,281.7559 85.949596,238 87.95516,221.50666 90,198.54231 90,192.51238 v -3.19719 l -6.75,-0.1962 c -10.10176,-0.29364 -25.163438,-2.74053 -31.528769,-5.1221 -3.321922,-1.24289 -6.722215,-3.39778 -8.276817,-5.24532 -2.250168,-2.67417 -2.543089,-3.73303 -1.989835,-7.19289 0.357532,-2.23588 1.747805,-5.20426 3.097089,-6.61261 C 45.898251,163.54054 47,162.12995 47,161.81142 47,160.90396 37.165968,157.24557 30,155.4872 19.536988,152.91982 15.145785,150.93007 11.976391,147.32033 8.282388,143.11309 8.2850851,141.76272 12,135.5 c 2.580139,-4.34968 2.968113,-5.98532 2.982948,-12.57569 0.01478,-6.5652 0.317168,-7.85121 2.267052,-9.64131 2.160603,-1.98355 2.468526,-2.00481 7.75,-0.5349 3.025,0.8419 6.625,1.58049 8,1.64132 2.472112,0.10935 2.496697,0.0299 2.203946,-7.12057 C 34.855955,98.769139 36.722001,92.246177 41.057069,86.808638 42.675681,84.778389 44,82.826335 44,82.470741 44,82.115146 42.300137,82.111394 40.222527,82.462404 32.893958,83.700558 26.735445,76.93564 23.423994,64.009782 21.941398,58.222644 21.935652,57.35815 23.35993,54.371408 25.60008,49.673764 29.440931,48.137678 41.583076,47.083356 55.736772,45.854367 56.728895,45.00669 54.445475,36.093629 53.558753,32.632414 53.099265,28.740631 53.424392,27.445223 54.248403,24.162104 59.851303,20.168724 67.559063,17.370958 78.946373,13.237586 81.836562,14.19889 84.888549,23.134906 86.930292,29.112996 90.458818,34 92.733389,34 c 1.965573,0 7.821111,-4.163924 10.316241,-7.335967 4.19547,-5.333677 14.07652,-8.473818 19.51462,-6.201634 1.75538,0.733443 3.56772,1.941949 4.02742,2.685567 0.4597,0.743619 0.71226,6.077034 0.56123,11.852034 -0.35946,13.745181 0.3098,14.832565 7.93217,12.887815 3.55931,-0.908113 7.81206,-3.181726 12.41005,-6.634683 C 151.34243,38.363909 154.79727,36 155.17254,36 c 0.37526,0 1.61496,1.185686 2.75488,2.634859 1.75872,2.235847 2.07258,4.040689 2.07258,11.918212 0,5.105845 0.27792,10.007609 0.61761,10.89281 0.33968,0.8852 4.05218,3.912867 8.25,6.728149 13.28455,8.909338 20.11239,16.049334 20.12727,21.047457 0.009,3.105616 -5.02731,13.206053 -8.36655,16.778513 -4.30468,4.60532 -6.62833,8.45433 -6.62833,10.97952 0,2.10674 5.16953,6.00102 8,6.02651 0.825,0.007 3.87665,1.11996 6.78144,2.4723 4.54712,2.11693 5.6233,3.19311 7.74023,7.74023 3.48581,7.48746 3.43325,15.49313 -0.12953,19.72726 -1.43433,1.70459 -3.46588,3.55846 -4.51457,4.1197 -2.96171,1.58506 -8.30242,-0.38928 -13.55149,-5.00969 -7.83421,-6.89596 -11.27922,-6.53224 -11.31077,1.19417 -0.0128,3.12806 0.3273,3.75 2.05043,3.75 4.01666,0 5.71795,1.79177 6.39831,6.73861 1.49591,10.87657 -3.93103,20.0964 -11.14043,18.92648 -2.28755,-0.37122 -6.25508,0.38597 -12.11272,2.31168 -10.08901,3.31677 -27.03927,5.55383 -34.99592,4.61868 l -5.51013,-0.64761 0.65536,12.27608 c 2.25707,42.27945 3.78008,130.51347 2.32207,134.52714 -1.34016,3.68924 -3.61087,4.23161 -10.71164,2.55854 -8.438283,-1.98821 -21.796992,-1.19286 -36.452398,2.17029 -13.502308,3.09853 -14.294414,3.10546 -15.64695,0.13697 z M 90.5,330.80552 c 4.95,-0.0869 10.98654,0.19837 13.41453,0.63393 l 4.41453,0.79194 -0.65049,-41.3657 c -0.71,-45.15004 -1.95038,-81.61264 -4.19664,-123.36569 -2.01291,-37.41538 -2.73432,-48.58094 -3.1143,-48.20096 -0.17971,0.1797 -0.798634,14.24844 -1.375392,31.26385 -2.665984,78.65142 -7.759655,118.94622 -19.098001,151.07966 -3.318289,9.4042 -9.139396,21.56897 -13.091127,27.35745 -1.314178,1.925 -2.686696,3.98587 -3.050041,4.57972 -0.410371,0.67071 2.825909,0.37969 8.543152,-0.76824 C 77.358299,331.7951 85.55,330.89242 90.5,330.80552 Z m 54.60835,-150.31441 c 3.51541,-0.90038 7.82298,-2.47065 9.57239,-3.48949 3.91154,-2.27805 5.97754,-2.62787 9.7244,-1.64653 3.48978,0.91401 4.56423,-0.34661 4.56423,-5.35509 0,-4.1669 -0.75219,-5.50686 -3.58749,-6.39075 -5.60119,-1.74614 -7.28397,-8.96821 -4.21956,-18.10925 1.12222,-3.34753 1.9278,-4.1451 4.93864,-4.88956 5.76233,-1.42478 9.98951,-0.0299 16.44125,5.42525 3.26469,2.7604 6.61574,4.88934 7.44679,4.73099 2.44555,-0.46599 3.51199,-6.90568 2.02383,-12.22087 -1.51286,-5.4034 -3.49906,-7.05289 -11.01283,-9.14587 -11.42949,-3.18371 -14,-5.58562 -14,-13.08173 0,-4.373 1.42013,-6.86149 7.60043,-13.31821 C 179.0385,98.363436 182,92.711154 182,88.877282 c 0,-2.873231 -5.9572,-8.452119 -16.83667,-15.76746 -5.30661,-3.568156 -9.25454,-6.998692 -10.05978,-8.741407 -0.72896,-1.577628 -1.56114,-6.536583 -1.84928,-11.0199 l -0.52389,-8.151485 -4.69929,3.376099 c -11.07104,7.953751 -18.80555,9.389744 -24.26531,4.50511 L 120.5,50.156479 v -12.07859 c 0,-11.909749 -0.0319,-12.078584 -2.28212,-12.078239 -4.17944,6.41e-4 -8.68397,2.642801 -12.55078,7.361736 C 101.15882,38.863146 97.461323,41 92.44966,41 87.482255,41 82.970226,36.366278 79.996742,28.211216 c -1.257917,-3.449956 -2.578584,-6.45278 -2.934815,-6.672943 -1.107121,-0.684238 -13.891033,3.997095 -15.913413,5.827323 -1.884194,1.705173 -1.884777,1.822812 -0.0332,6.695762 2.558856,6.73436 2.387127,10.188076 -0.688313,13.84303 C 57.455448,51.435875 53.690582,52.60887 42.5,53.489787 29.323038,54.52707 29,54.647962 29,58.541943 c 0,3.999303 3.473244,13.775999 5.488074,15.44816 0.776903,0.644771 4.291501,1.248268 7.810219,1.341104 11.441202,0.301859 12.765095,4.791882 4.643235,15.747667 -5.480907,7.393336 -5.4996,7.463895 -4.405954,16.630376 0.815452,6.83478 -0.490622,11.66114 -3.606983,13.32897 C 36.305838,122.44187 30.861458,122.21522 26,120.5 23.661701,119.675 21.580124,119 21.374273,119 21.168423,119 21,122.27054 21,126.26787 c 0,6.10463 -0.400128,7.8567 -2.5,10.94694 -1.375,2.0235 -2.5,4.40092 -2.5,5.28316 0,2.11872 5.07318,4.1942 18.5,7.56848 13.667609,3.43479 15.781282,4.24572 18.403972,7.06085 3.078057,3.30391 2.58574,6.18524 -1.952831,11.42915 -3.823007,4.41714 -3.9559,4.78081 -2.382391,6.51952 3.438674,3.79969 19.795993,7.2594 31.789476,6.72373 L 87.06856,181.5 76.026065,163.03601 c -12.48807,-20.88111 -14.556441,-25.66099 -15.88841,-36.71712 -1.077373,-8.94282 -0.530403,-14.23095 1.554717,-15.03108 2.643271,-1.01432 3.75223,1.68413 3.971402,9.66367 0.305981,11.14008 3.241795,18.60042 15.027327,38.18669 l 10.01159,16.63817 0.644599,-12.63817 c 0.35453,-6.95099 0.646425,-18.33827 0.648655,-25.30506 L 92,125.16623 85.454869,118.88127 C 77.747357,111.48014 73.074309,102.80792 69.892108,90 67.115137,78.823072 66.867354,71.695087 69.238996,71.211891 c 2.16317,-0.440722 2.826429,1.20711 6.118482,15.201042 1.411989,6.002113 3.713916,13.256629 5.115394,16.121147 C 82.957085,107.61163 90.399615,117 91.940574,117 c 0.42383,0 1.104316,-9.3375 1.512192,-20.75 0.407875,-11.4125 1.035361,-23.675 1.394413,-27.25 0.643424,-6.406431 0.698375,-6.504419 3.817347,-6.806984 2.357344,-0.22868 3.298334,0.153927 3.689104,1.5 0.28851,0.993841 1.46246,11.931984 2.60878,24.306984 1.14632,12.375 2.41122,25.19167 2.8109,28.48148 l 0.72669,5.98149 4.2667,-3.86293 c 5.93769,-5.3758 11.57217,-17.37187 14.37263,-30.60004 2.35712,-11.134008 3.64961,-13.678705 6.40968,-12.619567 1.43384,0.550217 1.59595,1.483799 1.02218,5.886745 -1.18267,9.075546 -4.58706,20.977302 -8.10238,28.325982 -2.54201,5.314 -5.18575,8.78426 -10.54005,13.83523 l -7.14695,6.74208 0.72496,14.96924 c 0.39872,8.23309 1.01418,17.30724 1.36767,20.16477 l 0.64272,5.19552 7.67683,-12.5 c 13.02293,-21.20491 17.74169,-33.46423 17.78865,-46.21482 0.0132,-3.59285 0.4683,-4.95615 1.91235,-5.72898 3.25273,-1.74081 4.47143,1.03735 3.8246,8.71852 -1.32418,15.72467 -5.72492,26.34035 -21.02822,50.72528 -4.8323,7.7 -8.87721,14.44558 -8.98869,14.99018 -0.58148,2.84078 21.31543,2.84141 32.40567,9.3e-4 z"
         id="path484" />
    </g>
  </g>
</svg>
