<?xml version="1.0" encoding="UTF-8" standalone="no"?>
<!-- Created with Inkscape (http://www.inkscape.org/) -->

<svg
   version="1.1"
   id="svg562"
   width="193.57449"
   height="338.84888"
   viewBox="0 0 193.57449 338.84888"
   sodipodi:docname="レ.png"
   xmlns:inkscape="http://www.inkscape.org/namespaces/inkscape"
   xmlns:sodipodi="http://sodipodi.sourceforge.net/DTD/sodipodi-0.dtd"
   xmlns="http://www.w3.org/2000/svg"
   xmlns:svg="http://www.w3.org/2000/svg">
  <defs
     id="defs566" />
  <sodipodi:namedview
     id="namedview564"
     pagecolor="#ffffff"
     bordercolor="#000000"
     borderopacity="0.25"
     inkscape:showpageshadow="2"
     inkscape:pageopacity="0.0"
     inkscape:pagecheckerboard="0"
     inkscape:deskcolor="#d1d1d1"
     showgrid="false" />
  <g
     inkscape:groupmode="layer"
     inkscape:label="Image"
     id="g568"
     transform="translate(-16.381948,-8.0037374)">
    <g
       id="g572">
      <path
         style="fill:#aeaeae"
         d="M 114.61374,231.64963 C 114.41467,230.43348 114.2,226.94867 112,224 l -4,-5.36121 v -26.26493 c 0,-24.71867 1.17886,-46.7889 2.98409,-55.86704 0.45054,-2.26568 0.84439,15.04272 0.90634,39.83108 L 112,220.1758 l 4.25,-0.70573 c 15.24548,-2.53158 36.00565,-11.36209 48.25,-20.52356 9.15248,-6.84806 24.46217,-22.51275 31.97461,-32.71602 3.28603,-4.46304 6.09449,-7.99472 6.24102,-7.84819 0.14653,0.14653 -0.4033,2.93296 -1.22184,6.19206 -3.57665,14.24073 -16.60955,34.30057 -29.65963,45.65118 -3.3353,2.90095 -6.34993,5.31332 -6.69917,5.36083 -9.32651,4.39797 -8.01012,4.5132 -18.463,8.8562 -4.85538,2.01786 -13.74288,4.95832 -19.75,6.53435 l -11.92583,3.00893 z M 96.75,218.33772 C 96.696202,217.28528 98,206.61433 98,166.41667 V 115 h 4.93019 4.9302 l -0.006,3.48901 c -0.0256,15.71418 -7.16736,54.75433 -6.11198,82.8619 0.5702,15.18591 -0.87765,16.48689 -2.300702,17.03297 -0.883076,0.33886 -1.65327,2.92288 -2.295786,2.87946 -0.804614,-0.0544 -0.205535,-1.06135 -0.300625,-1.06135 z"
         id="path576"
         sodipodi:nodetypes="sscssscssssssccscssscccsssscs" />
      <path
         style="fill:#040404"
         d="m 52.549709,345.75 c -0.213136,-0.6875 -0.67046,-6.65 -1.016275,-13.25 -0.788744,-15.05348 -2.575554,-29.18483 -7.136984,-56.44425 -3.803757,-22.73152 -3.778043,-25.12341 0.342883,-31.89483 1.331199,-2.1874 1.152946,-2.65996 -2.748783,-7.28718 -2.294762,-2.72145 -4.551626,-6.39386 -5.015255,-8.16091 -1.754372,-6.68655 -3.266696,-26.83438 -3.243613,-43.21283 0.02509,-17.79993 1.069946,-28.64381 4.287787,-44.5 4.201146,-20.70151 6.04982,-23.81507 18.82157,-31.69959 4.212428,-2.6005 7.899731,-5.06448 8.194006,-5.47551 0.294275,-0.41103 2.206775,-1.44582 4.25,-2.29953 4.410342,-1.842761 4.750455,-3.938532 0.957476,-5.899957 C 66.776451,93.833038 55.565463,83.096047 50.272796,76.5 41.45129,65.506097 15.344975,22.83722 16.413825,21.159967 c 0.231314,-0.362982 2.092328,-1.55037 4.135587,-2.638639 4.492884,-2.392977 3.255447,-3.744127 14.63391,15.978672 17.390329,30.143435 30.948593,47.381345 38.965032,49.539948 4.088781,1.100994 12.971557,0.03661 16.801824,-2.013284 6.103404,-3.266443 19.690082,-25.997731 32.684002,-54.682191 5.91767,-13.063428 9.26669,-19.3432593 10.31439,-19.3407349 0.85328,0.00206 2.99597,0.8845224 4.76153,1.9610367 l 3.2101,1.9572982 -4.53111,10.288964 C 130.0647,38.842799 118.46635,62.011762 114.07487,68.783741 111.83369,72.239799 110,75.568453 110,76.180749 c 0,1.072253 -5.63641,8.419325 -9.25,12.057396 C 99.202793,89.795833 99.186067,90 100.60566,90 c 0.88311,0 4.37061,-0.730981 7.75,-1.624402 4.2661,-1.127845 10.88247,-1.662795 21.64434,-1.75 13.35091,-0.108184 16.67547,0.195511 23.97795,2.190357 27.98319,7.64428 45.88417,21.683015 53.20179,41.723175 2.68981,7.36636 3.67373,25.75536 1.83678,34.32858 -1.60283,7.48057 -11.82858,25.93218 -20.17605,36.40621 -6.52041,8.18152 -18.58201,19.17212 -28.14145,25.64265 -9.64778,6.53034 -16.89614,10.22235 -36.60148,18.64331 l -4.40246,1.88137 0.70639,44.61217 c 0.57212,36.1323 0.45854,44.80915 -0.59754,45.64842 -2.20701,1.75393 -10.29314,3.12856 -36.900747,6.27309 -29.087464,3.4376 -29.824695,3.48071 -30.353474,1.77507 z M 86.25,336.91162 105,334.69326 l 0.006,-3.59663 c 0.0122,-7.37271 -3.22077,-81.61134 -3.56998,-81.97693 -0.35348,-0.37008 -52.603868,6.94531 -53.270196,7.45816 -0.183819,0.14148 1.275752,10.08184 3.243491,22.08969 3.862397,23.56973 6.582547,45.1214 6.60438,52.32632 0.0075,2.47837 0.298619,5.57073 0.64691,6.87192 0.569299,2.12685 1.047659,2.31016 4.736346,1.81499 C 65.65361,339.37785 75.9375,338.13172 86.25,336.91162 Z M 114.62723,329.25 c -0.30171,-2.0625 -0.84519,-22.44485 -1.20774,-45.29412 l -0.65917,-41.54412 8.36984,-2.82065 c 32.9639,-11.10888 61.36671,-34.03744 74.35289,-60.02242 5.93422,-11.87419 7.98092,-19.86137 7.96132,-31.06869 -0.0271,-15.49325 -5.99991,-28.0242 -18.02666,-37.81997 -15.09249,-12.292811 -45.61598,-21.248702 -55.31893,-16.231113 -3.49839,1.809092 -8.49975,7.437753 -10.95486,12.328883 -7.81053,15.5604 -11.11636,40.88544 -11.1336,85.29159 L 108,218.63879 112,224 c 2.2,2.94867 4,6.37269 4,7.60894 0,1.23624 -1.60294,4.93859 -3.56209,8.22742 l -3.56209,5.97971 1.75194,43.59196 c 1.44013,35.8335 2.00076,43.59197 3.14999,43.59197 1.04638,0 1.26006,-0.94329 0.84948,-3.75 z M 72.112892,222.51407 C 85.525801,220.5968 97.4,218.81645 98.5,218.55773 c 1.94284,-0.45696 2.00192,-1.32194 2.06709,-30.26407 0.10923,-48.50657 4.31826,-73.52036 15.05612,-89.476752 l 3.39633,-5.046926 -4.75977,0.711171 C 101.31749,96.414895 72.982252,106.78471 61,113.97258 c -12.032037,7.21772 -13.078206,9.06466 -16.994036,30.00175 -3.961204,21.1797 -4.950956,42.09914 -3.005561,63.52567 1.592139,17.53576 1.824098,18.5 4.450387,18.5 1.251247,0 13.249193,-1.56867 26.662102,-3.48593 z"
         id="path574" />
    </g>
  </g>
</svg>
