<?xml version="1.0" encoding="UTF-8" standalone="no"?>
<!-- Created with Inkscape (http://www.inkscape.org/) -->

<svg
   version="1.1"
   id="svg652"
   width="138.03629"
   height="178.77669"
   viewBox="0 0 138.03629 178.77669"
   sodipodi:docname="ロ.png"
   xmlns:inkscape="http://www.inkscape.org/namespaces/inkscape"
   xmlns:sodipodi="http://sodipodi.sourceforge.net/DTD/sodipodi-0.dtd"
   xmlns="http://www.w3.org/2000/svg"
   xmlns:svg="http://www.w3.org/2000/svg">
  <defs
     id="defs656" />
  <sodipodi:namedview
     id="namedview654"
     pagecolor="#ffffff"
     bordercolor="#000000"
     borderopacity="0.25"
     inkscape:showpageshadow="2"
     inkscape:pageopacity="0.0"
     inkscape:pagecheckerboard="0"
     inkscape:deskcolor="#d1d1d1"
     showgrid="false" />
  <g
     inkscape:groupmode="layer"
     inkscape:label="Image"
     id="g658"
     transform="translate(-8.9816647,-7.7142072)">
    <g
       id="g662">
      <path
         style="fill:#afafaf"
         d="M 9.3905891,155.82406 C 8.8450853,154.93999 8.8454909,9.0591488 9.3909997,8.1759394 9.6206191,7.8041727 12.028464,7.6509999 14.741766,7.8355554 L 19.675043,8.1711108 16.837522,11.008632 14,13.846154 v 59.466139 c 0,57.039817 0.07793,59.562467 1.909856,61.826927 1.88805,2.33383 2.18205,2.36649 25.75,2.86078 L 65.5,138.5 65.834676,141 c 0.270511,2.02069 4.492806,2.18693 3.454436,1.17659 C 68.35691,141.26955 58.612662,141 45.422445,141 c -20.966246,0 -20.711312,-0.10576 -20.316006,8.42809 0.141196,3.04815 -0.01901,5.81782 -0.356021,6.15483 -0.851912,0.85191 -14.847385,1.07163 -15.3598289,0.24114 z M 131.33285,155.5 c 0.0919,-0.55 0.63474,0.0668 0.0847,0.15949 -0.5993,0.10098 -1.77955,-3.00718 -1.57309,-6.27467 C 130.3684,141.09345 130.18154,141 113.07756,141 c -9.14134,0 -19.120749,-0.0346 -19.790783,0.63538 -0.767763,0.76777 3.102575,0.77868 3.453978,-1.05956 L 97.233154,138 h 20.928876 c 20.88745,0 20.93374,-0.005 23.38342,-2.45455 L 144,133.09091 V 73.468531 13.846154 l -2.83388,-2.833883 -2.83389,-2.8338836 3.90864,-0.3727485 c 2.14975,-0.2050116 4.10596,-0.053476 4.34713,0.3367457 0.57409,0.9289022 0.57282,147.0301354 -0.001,147.6042354 -0.95236,0.95236 -15.41519,0.71853 -15.25386,-0.24662 z M 60.254837,139.75 c 0,-1.53704 12.987216,-4.53948 20.891978,-4.53948 7.904762,0 11.202218,2.85563 11.202218,4.39267 0,1.53704 7.286135,2.13468 -11.349033,1.89681 -12.890322,-0.16454 -20.745163,-0.21296 -20.745163,-1.75 z M 22,73.5 V 16 h 57 57 V 73.5 131 H 79 22 Z M 128.96166,74.428227 128.88681,25 H 77.943404 27 v 49.403566 49.403564 l 51.018252,0.0247 51.018248,0.0247 -0.0748,-49.428223 z M 114.43941,71.5 l 0.0606,-8 3.25,-0.313358 c 2.01311,-0.1941 3.25,-0.860119 3.25,-1.75 C 121,60.294204 119.15693,60 112,60 c -7.15693,0 -9,0.294204 -9,1.436642 0,0.871427 1.27864,1.595319 3.25,1.839962 3.19982,0.397095 3.1921,0.405793 -0.5,0.563359 C 102.37399,63.984039 102,63.750673 102,61.5 V 59 h 10.06955 c 9.87051,0 10.06324,0.04447 9.75,2.25 -0.24395,1.717701 -1.07909,2.323437 -3.53008,2.560415 l -3.21054,0.310415 -0.35005,7.689585 -0.35006,7.689585 0.0606,-8 z"
         id="path666"
         sodipodi:nodetypes="ssscccssscsssssscssssscsccccccsscccssssscccccccccccccccccccccssssssscsssccccc" />
      <path
         style="fill:#0c0c0c"
         d="m 67.15189,185.68302 c -0.728009,-0.8772 -1.206662,-9.27629 -1.382679,-24.26233 L 65.5,138.5 41.659856,138 c -23.56795,-0.49429 -23.86195,-0.52695 -25.75,-2.86078 C 14.077926,132.87476 14,130.35211 14,73.312293 V 13.846154 L 16.923077,10.923077 19.846154,8 H 79 138.15385 l 2.92307,2.923077 L 144,13.846154 v 59.622377 59.622379 l -2.45455,2.45454 C 139.09583,137.99508 139.04896,138 118.17045,138 H 97.25 l -0.625,3.125 C 96.28125,142.84375 96,152.91365 96,163.50256 c 0,14.75447 -0.309285,19.50923 -1.323794,20.3512 -3.047489,2.52919 -3.675964,-0.8463 -3.687212,-19.80376 -0.0061,-10.2025 -0.289932,-20.2375 -0.630842,-22.3 L 89.738315,138 H 81 72.261685 l -0.619837,3.75 c -0.34091,2.0625 -0.624789,12.5824 -0.630842,23.37756 -0.0086,15.36989 -0.307609,19.87371 -1.378327,20.76233 -1.032285,0.85672 -1.640156,0.80603 -2.480789,-0.20687 z M 136,73.5 V 16 H 79 22 V 73.5 131 h 57 57 z m -85.25,48.81067 c -1.234103,-0.3225 -1.75,-1.4602 -1.75,-3.85924 0,-3.23855 0.123192,-3.35509 2.5651,-2.42668 3.652402,1.38864 10.736913,1.20612 12.83874,-0.33078 2.083743,-1.52367 1.841651,-5.59295 -0.40384,-6.78805 -0.825,-0.43909 -3.1875,-1.06794 -5.25,-1.39744 C 55.597836,107.00488 55,106.51804 55,104.45469 55,102.38223 55.477375,102 58.065741,102 62.434197,102 65,100.33492 65,97.5 c 0,-4.232523 -6.549134,-5.689164 -13.32344,-2.963363 -1.578756,0.635249 -1.780038,0.284694 -1.5,-2.612421 0.291133,-3.011894 0.722983,-3.43098 4.32344,-4.195641 6.184771,-1.313516 14.346768,0.02728 17.134175,2.814691 3.151021,3.151021 3.120181,7.793287 -0.07299,10.986454 l -2.438811,2.43881 3.062125,3.06213 c 2.61081,2.61081 2.977389,3.58429 2.487202,6.60496 -0.709006,4.36909 -2.233021,6.28181 -6.389586,8.01928 -3.027362,1.26546 -13.675066,1.66373 -17.532119,0.65577 z m 35.739597,-2.62107 c -4.100129,-4.10013 -5.917126,-10.37132 -5.077854,-17.52573 1.206747,-10.28695 5.34515,-14.600294 13.989771,-14.581152 9.577546,0.02121 14.097906,5.79897 14.017956,17.917282 -0.0782,11.86309 -4.63749,17.5 -14.154329,17.5 -4.852922,0 -5.835981,-0.37084 -8.775544,-3.3104 z M 99.712087,114 c 1.550453,-3.08014 1.666373,-12.61591 0.204332,-16.809917 -2.045423,-5.867502 -8.303681,-4.973177 -9.4911,1.35631 -0.950333,5.065707 -0.04159,15.006117 1.546809,16.920027 1.953923,2.35433 6.223928,1.54533 7.739959,-1.46642 z M 39,70 V 60 h 2.5 c 2.458333,0 2.5,0.133333 2.5,8 v 8 h 4.5 c 3.833333,0 4.5,0.296296 4.5,2 0,1.809524 -0.666667,2 -7,2 h -7 z m 17.666667,9.333333 C 56.3,78.966667 56,74.466667 56,69.333333 56,60.044444 56.011905,60 58.5,60 H 61 v 10 c 0,9.030303 -0.177778,10 -1.833333,10 -1.008334,0 -2.133334,-0.3 -2.5,-0.666667 z M 67,70.069551 V 60 h 3.364142 c 3.065862,0 3.516518,0.39899 5.082708,4.5 0.945211,2.475 2.094129,4.5 2.55315,4.5 0.459021,0 1.607939,-2.025 2.55315,-4.5 1.56619,-4.10101 2.016846,-4.5 5.082708,-4.5 H 89 v 10 c 0,9.258682 -0.145016,10 -1.95619,10 -1.732298,0 -1.992797,-0.829787 -2.276024,-7.25 l -0.319833,-7.25 -2.422445,5.25 c -3.091183,6.699311 -5.125522,6.832455 -7.63965,0.5 L 72.5,66.5 72,73 c -0.446148,5.799926 -0.742333,6.534417 -2.75,6.819551 -2.205526,0.313235 -2.25,0.120512 -2.25,-9.75 z M 95,70 V 60 h 2.5 2.5 V 70 80 H 97.5 95 Z m 14.66667,9.333333 C 109.3,78.966667 109,75.141667 109,70.833333 V 63 h -3 c -2,0 -3,-0.5 -3,-1.5 0,-1.222222 1.66667,-1.5 9,-1.5 7.15693,0 9,0.294204 9,1.436642 0,0.889881 -1.23689,1.5559 -3.25,1.75 L 114.5,63.5 l -0.29044,8.25 c -0.25199,7.157664 -0.52783,8.25 -2.08334,8.25 -0.98609,0 -2.09289,-0.3 -2.45955,-0.666667 z M 31.75,51.310674 C 30.7875,51.059147 30,50.079634 30,49.133979 c 0,-1.412919 0.935737,-1.711763 5.25,-1.676676 6.779737,0.05514 7.240612,-2.293017 0.815182,-4.153352 -2.439149,-0.7062 -4.794758,-1.850988 -5.234687,-2.543975 C 29.260171,38.28636 29.964,34.138624 32.222506,32.556704 35.943469,29.95044 44,30.889498 44,33.929473 c 0,1.365701 -0.925542,1.683965 -4.75,1.633368 -6.420967,-0.08495 -6.39345,2.248402 0.04867,4.126835 3.268328,0.953 5.061347,2.102595 5.62235,3.604775 0.893713,2.393069 -0.322213,6.704532 -2.233579,7.919884 -1.261146,0.801906 -8.010028,0.861352 -10.937439,0.09634 z m 18.916667,0.02266 C 50.3,50.966667 50,46.466667 50,41.333333 V 32 h 6.845012 C 64.438161,32 67,33.557477 67,38.173753 67,41.577386 63.998173,44.05643 59.077616,44.716415 55.222759,45.23346 55,45.447349 55,48.631669 55,51.231263 54.581588,52 53.166667,52 c -1.008334,0 -2.133334,-0.3 -2.5,-0.666666 z M 71,42 V 32 h 7 c 5.555556,0 7,0.309524 7,1.5 0,1.111111 -1.166667,1.5 -4.5,1.5 -3.833333,0 -4.5,0.296296 -4.5,2 0,1.666667 0.666667,2 4,2 3.333333,0 4,0.333333 4,2 0,1.666667 -0.666667,2 -4,2 -3.6,0 -4,0.25 -4,2.5 0,2.296296 0.366667,2.5 4.5,2.5 3.833333,0 4.5,0.296296 4.5,2 0,1.809524 -0.666667,2 -7,2 h -7 z m 19,0 V 32 h 7 c 5.55556,0 7,0.309524 7,1.5 0,1.111111 -1.16667,1.5 -4.5,1.5 -3.833333,0 -4.5,0.296296 -4.5,2 0,1.666667 0.666667,2 4,2 3.33333,0 4,0.333333 4,2 0,1.666667 -0.66667,2 -4,2 -3.6,0 -4,0.25 -4,2.5 0,2.296296 0.366667,2.5 4.5,2.5 3.83333,0 4.5,0.296296 4.5,2 0,1.809524 -0.66667,2 -7,2 h -7 z m 19,0 V 32 h 6.57692 c 5.9359,0 6.86183,0.2849 9.5,2.923077 C 127.2287,37.074854 128,38.799265 128,41.45826 c 0,7.089148 -4.80735,10.523116 -14.75,10.536163 L 109,52 Z m 12,4 c 3.90566,-3.905664 1.93023,-9.495633 -3.75,-10.611529 L 114,34.75 v 6.625 c 0,6.4 0.0849,6.625 2.5,6.625 1.375,0 3.4,-0.9 4.5,-2 z"
         id="path664" />
    </g>
  </g>
</svg>
