<?xml version="1.0" encoding="UTF-8" standalone="no"?>
<!-- Created with Inkscape (http://www.inkscape.org/) -->

<svg
   version="1.1"
   id="svg742"
   width="154.21353"
   height="180.43649"
   viewBox="0 0 154.21353 180.43649"
   sodipodi:docname="ワ.png"
   xmlns:inkscape="http://www.inkscape.org/namespaces/inkscape"
   xmlns:sodipodi="http://sodipodi.sourceforge.net/DTD/sodipodi-0.dtd"
   xmlns="http://www.w3.org/2000/svg"
   xmlns:svg="http://www.w3.org/2000/svg">
  <defs
     id="defs746" />
  <sodipodi:namedview
     id="namedview744"
     pagecolor="#ffffff"
     bordercolor="#000000"
     borderopacity="0.25"
     inkscape:showpageshadow="2"
     inkscape:pageopacity="0.0"
     inkscape:pagecheckerboard="0"
     inkscape:deskcolor="#d1d1d1"
     showgrid="false" />
  <g
     inkscape:groupmode="layer"
     inkscape:label="Image"
     id="g748"
     transform="translate(-8.9631205,-9.9482012)">
    <g
       id="g752">
      <path
         style="fill:#aeaeae"
         d="m 64.243769,190.26465 c -0.690926,-0.23951 -1.05042,-1.71166 -0.740472,-1.26999 1.002984,1.42923 1.022829,2.45939 -3.743359,-2.6092 -1.276162,-1.35714 -2.800379,-3.3901 -2.578914,-3.5428 0.221464,-0.1527 5.693976,-0.46897 9.818976,-1.74377 37.64102,-11.63269 68.31799,-42.58279 83.97682,-84.724487 1.60927,-4.330922 3.13602,-10.70488 3.16276,-10.023957 0.0813,2.070793 -6.0796,23.331674 -9.06106,29.939504 -12.24195,27.13189 -38.28411,52.76923 -69.482994,68.40288 -5.002539,2.50675 -9.320526,4.88388 -9.595526,5.28251 -0.275,0.39862 -1.065304,0.52881 -1.756231,0.28931 z M 54.5,176.26726 c -2.934555,-4.70598 4.375,-1.91988 8.5,-3.19787 17.197997,-5.32819 33.183476,-15.27069 47.54146,-29.56939 16.03514,-15.96892 27.18504,-34.386 34.94068,-57.71397 1.88084,-5.657317 3.44179,-9.668022 3.46878,-8.912679 0.0885,2.477197 -6.91431,22.253812 -10.86595,30.686389 -12.15895,25.94652 -32.73811,47.65499 -56.58497,59.69014 -8.05008,4.06275 -25.022216,12.18904 -27,9.01738 z m 10.423689,-5.4782 c 0,-0.23463 9.545699,-6.05512 12.563839,-7.78192 15.890809,-9.0918 37.272792,-29.53459 45.904592,-43.88825 11.04028,-18.35866 18.12733,-45.543333 20.49597,-78.61889 0.47264,-6.6 0.66462,-12.3375 0.42661,-12.75 -0.238,-0.4125 1.16882,-0.75 3.12628,-0.75 H 151 v 8.948784 c 0,39.008226 -14.98652,77.494466 -40.46643,103.920076 -9.67028,10.02919 -17.109831,15.80471 -29.325418,22.76606 -7.189792,4.09728 -16.284463,9.17623 -16.284463,8.15414 z M 9.3827694,98.810317 C 8.8633629,97.9699 8.8058242,10.860842 9.3243331,10.342334 10.061348,9.6053183 162.39132,9.9969244 162.94631,10.737261 163.26079,11.156768 163.25217,14.2 162.92715,17.5 c -0.32501,3.3 -0.66658,4.913852 -0.75904,3.586339 L 162,18.672677 107.25,19.33534 C 77.1375,19.699804 43.576683,19.998452 32.670406,19.999001 L 17.31221,20.638771 17.01664,27.95339 C 16.877302,31.401657 14.234616,47.575 14.578737,66 l 2.11614,33.5 h -4.188163 c -1.483733,0 -2.8895084,-0.310357 -3.1239446,-0.689683 z M 20.39534,85.537076 C 20.078056,77.699576 21.797939,61.4875 21.48478,49.25 L 20.915401,27 43.207701,22.223388 65.5,27.454192 29.748411,20.615744 27,28.043186 V 64.021593 C 27,104.10533 26.930007,100.0275 25.10396,100 18.035172,99.893538 20.926477,98.657131 20.39534,85.537076 Z"
         id="path756"
         sodipodi:nodetypes="ssssssssssssssssssssssssscssssssssscsscsscsssscccccsss" />
      <path
         style="fill:#0c0c0c"
         d="M 19.308052,186.84836 C 18.59552,185.97504 17.812841,171.76007 17.086463,146.5 16.469648,125.05 15.548364,95.35 15.039167,80.5 14.529969,65.65 13.943102,45.9625 13.735017,36.75 L 13.356681,20 32.92834,19.999001 c 10.764413,-5.49e-4 44.281369,-0.30007 74.48213,-0.665601 l 54.91046,-0.664601 -0.63047,15.9156 c -1.96483,49.60043 -15.58775,85.791011 -42.93503,114.060941 -20.093054,20.77096 -44.01518,33.00591 -71.783589,36.71365 -19.84182,2.64936 -26.428073,3.00395 -27.663789,1.48937 z M 41.5,179.48733 c 50.533918,-7.58454 86.72647,-39.15985 103.97695,-90.712138 1.93768,-5.79067 3.50096,-11.146498 3.47397,-11.901841 -0.027,-0.755343 -1.58794,3.255362 -3.46878,8.912679 C 137.7265,109.114 126.5766,127.53108 110.54146,143.5 88.737121,165.21431 65.040748,176.03533 33.75,178.56707 c -4.8125,0.38938 -8.75,1.09609 -8.75,1.57045 0,1.25543 5.157364,1.0522 16.5,-0.65019 z m 6.274884,-5.10199 C 71.083538,170.2752 92.297436,158.67969 110.03712,140.35281 135.99003,113.54082 151,75.284216 151,35.948784 V 27 h -6.28582 -6.28582 l -1.22675,13.75 c -1.35169,15.150299 -3.65984,26.798722 -7.69606,38.839303 C 118.68284,111.87484 97.38153,137.17858 69,151.46357 c -12.743446,6.41403 -21.408505,9.07856 -42.75,13.14574 -1.927378,0.36731 -2.25,1.05958 -2.25,4.82795 0,7.43144 0.24353,7.63494 8.355891,6.98213 3.92926,-0.31619 10.867807,-1.23151 15.418993,-2.03405 z M 34.721797,159.49329 C 57.631564,155.14738 79.131481,144.09736 95.232264,128.39355 119.31574,104.90387 131.69135,74.610792 134.30547,32.75 L 134.66455,27 H 77.746579 20.828612 l 0.628922,18.75 c 0.645071,19.231472 2.519255,100.58405 2.534157,110 0.0096,6.05323 -0.503439,5.87426 10.730106,3.74329 z m 7.391998,-30.07575 c -3.121891,-3.96884 -3.636578,-6.5621 -1.598206,-8.0526 2.401007,-1.75566 4.807427,-0.31135 6.928454,4.15838 1.340911,2.82576 1.44931,3.90026 0.507905,5.03458 -1.75861,2.11899 -3.549506,1.76918 -5.838153,-1.14036 z m 27.515797,-10.4459 c -3.010622,-3.57792 -3.333987,-6.14215 -1.017048,-8.06504 1.39338,-1.15641 2.012944,-0.89017 4.558574,1.95888 2.021572,2.26254 2.8492,4.13192 2.637456,5.9573 -0.43591,3.75784 -3.088456,3.82174 -6.178982,0.14886 z M 51.423024,108.47001 C 49.293619,103.37363 49.851558,100.5 52.970467,100.5 c 4.920185,0 7.043425,10.64322 2.258707,11.32228 -1.801732,0.25571 -2.587985,-0.43679 -3.80615,-3.35227 z m 37.029227,-3.11603 c -2.704507,-2.91821 -3.247178,-7.111708 -1.030392,-7.962368 2.118693,-0.813019 5.360916,1.287641 7.060714,4.574688 2.995106,5.7919 -1.474919,8.30304 -6.030322,3.38768 z M 85.094686,88.715998 c -1.321039,-0.668799 -3.324292,-2.458402 -4.451675,-3.976896 -1.942961,-2.617014 -1.959648,-2.851036 -0.320199,-4.490485 1.571571,-1.571571 1.97619,-1.591172 4.428827,-0.214542 1.484583,0.833275 3.381011,2.729703 4.214286,4.214286 1.343186,2.393052 1.345777,2.868508 0.02285,4.191438 -1.22114,1.22114 -1.9285,1.271312 -3.894086,0.276199 z M 102.1838,82.991777 c -3.923351,-2.416924 -4.17041,-6.280632 -0.43553,-6.811102 3.2531,-0.46204 8.4371,3.512193 8.05718,6.176905 -0.41179,2.888266 -3.54011,3.148573 -7.62165,0.634197 z M 91.25,63.01096 c -5.597061,-3.412594 -3.453462,-7.734264 2.958177,-5.963925 4.378816,1.209049 6.166253,3.197873 5.307054,5.904977 C 98.683965,65.5711 95.486337,65.593906 91.25,63.01096 Z M 111,52.262136 c -2.58903,-1.303495 -3.5,-2.409261 -3.5,-4.248441 0,-3.240957 2.86455,-3.810718 7.25944,-1.44391 2.63727,1.420265 3.27525,2.334512 3.03926,4.35536 -0.37458,3.207496 -2.32257,3.590576 -6.7987,1.336991 z"
         id="path754" />
    </g>
  </g>
</svg>
