<?xml version="1.0" encoding="UTF-8" standalone="no"?>
<!-- Created with Inkscape (http://www.inkscape.org/) -->

<svg
   version="1.1"
   id="svg832"
   width="347.40692"
   height="237.82104"
   viewBox="0 0 347.40692 237.82104"
   sodipodi:docname="ヲ.png"
   xmlns:inkscape="http://www.inkscape.org/namespaces/inkscape"
   xmlns:sodipodi="http://sodipodi.sourceforge.net/DTD/sodipodi-0.dtd"
   xmlns="http://www.w3.org/2000/svg"
   xmlns:svg="http://www.w3.org/2000/svg">
  <defs
     id="defs836" />
  <sodipodi:namedview
     id="namedview834"
     pagecolor="#ffffff"
     bordercolor="#000000"
     borderopacity="0.25"
     inkscape:showpageshadow="2"
     inkscape:pageopacity="0.0"
     inkscape:pagecheckerboard="0"
     inkscape:deskcolor="#d1d1d1"
     showgrid="false" />
  <g
     inkscape:groupmode="layer"
     inkscape:label="Image"
     id="g838"
     transform="translate(-8.532217,-7.8885708)">
    <g
       id="g842">
      <path
         style="fill:#afafaf"
         d="m 157.84057,239.31748 9.34056,-0.39209 -1.62542,-2.4807 c -1.51725,-2.31563 -1.50664,-2.52239 0.15944,-3.10703 51.9696,-18.23648 85.79146,-43.61336 103.29355,-77.50218 C 271.75392,150.52 274,145.9075 274,145.58548 274,145.26347 244.75,145 209,145 h -65 v -3.5 -3.5 h 76 c 41.8,0 76,0.20249 76,0.44998 0,0.2475 -1.75815,4.50361 -3.907,9.45803 -14.60213,33.66688 -41.76236,62.29355 -73.593,77.56644 -18.40226,8.82971 -37.67966,13.46613 -58,13.94961 -6.6,0.15703 -7.79674,0.10907 -2.65943,-0.10658 z M 157.09735,133.4973 C 139.2731,132.52659 144,129.79567 144,128.49219 144,127.1838 152.43249,127 212.45982,127 h 68.45982 l 1.98372,-6.42254 c 2.3109,-7.48182 4.65983,-18.65696 5.63762,-26.821145 L 289.22887,88.01263 213.36443,87.749934 137.5,87.487239 222.25,87.24362 c 62.10647,-0.17853 84.75,0.05607 84.75,0.878042 0,6.647606 -6.01295,36.893878 -8.17631,41.128338 -0.84583,1.65561 -8.29526,2.50096 -138.10887,2.27198 -75.468153,-0.13312 21.52825,3.34476 -3.61747,1.97532 z M 138.6013,75.449302 c 0.0405,-1.953917 -1.11505,-10.349362 -0.75583,-8.437568 0.11562,0.615322 28.97542,-0.13381 66.74773,0.34155 L 276.52009,68.258475 266.94572,75.25 263.85439,79 201.1772,79.000598 138.5,80.338257 Z M 278.14039,72 c 3.44699,-3.85 6.47028,-7 6.71842,-7 0.24814,0 -5.31527,1.26623 -6.29329,2.346935 -1.75594,1.940287 3.32286,1.586475 13.94636,1.867983 L 313.68583,69.61189 311.92725,83.322914 291.16891,79 h -9.64789 -9.64788 z"
         id="path846"
         sodipodi:nodetypes="scssssscccssssssssscsscccsssssssscccccssssscccccs" />
      <path
         style="fill:#070707"
         d="M 135.5,244.57911 C 105.23544,238.90578 80.94094,225.9721 59.909633,204.33699 41.80145,185.70893 29.648163,165.35885 20.107811,137.69079 13.475057,118.45508 6.7039052,84.266625 8.983057,81.520415 9.8228922,80.508476 36.132658,80.093344 137.04918,79.499711 l 127.00915,-0.747122 2.95162,-3.580827 c 1.62339,-1.969455 3.79944,-4.051288 4.83567,-4.626295 C 272.88185,69.97046 284.71739,57.35 298.14683,42.5 c 22.892,-25.313514 24.87235,-27.234234 31.7046,-30.75 11.84688,-6.09621 20.40548,-4.9552386 24.66855,3.288636 1.92003,3.712931 1.88773,11.40851 -0.072,17.160063 -1.41005,4.138285 -3.17105,5.822732 -19.25,18.413176 -9.73388,7.622009 -19.50176,15.664932 -21.70639,17.873162 -2.20464,2.20823 -5.80464,5.462374 -8,7.231433 l -3.99157,3.216469 5.67054,0.03353 c 5.41091,0.03199 5.69922,0.164059 6.29668,2.884271 0.76443,3.480425 -0.80412,17.075092 -3.58004,31.02831 -10.28046,51.67495 -43.11151,95.8548 -87.38718,117.59456 -7.15,3.51071 -19.075,8.32171 -26.5,10.69111 l -13.5,4.30799 -20,0.2093 c -13.14387,0.13755 -22.39965,-0.24053 -27,-1.1029 z m 45.75883,-7.0165 c 42.15519,-7.58476 79.07441,-33.82284 102.13071,-72.58316 C 287.33899,158.33997 296,140.11922 296,138.44998 296,138.20249 235.44468,138 161.43261,138 H 26.865225 l 0.687738,2.25 c 0.378256,1.2375 2.790196,6.975 5.359866,12.75 21.905856,49.23056 59.866797,79.15038 109.087171,85.97965 8.79997,1.22099 28.56136,0.5077 39.25883,-1.41704 z M 298.82369,129.25 C 300.98705,125.01554 307,94.769268 307,88.121662 307,87.297899 268.21221,87 160.95469,87 H 14.909374 l 0.637314,3.75 c 1.65257,9.72384 5.683723,29.10894 7.149802,34.38214 L 24.327902,131 H 161.12877 c 129.27927,0 136.85002,-0.0962 137.69492,-1.75 z m 21.22719,-72.961897 c 28.73924,-22.623681 28.85584,-22.730796 30.01851,-27.577334 3.41581,-14.238708 -3.68803,-19.3357296 -17.65702,-12.668947 -5.84347,2.788833 -8.30184,5.179985 -29.55812,28.75 C 290.10275,58.93132 277.85032,72.4125 275.62664,74.75 L 271.58358,79 h 9.808 9.80799 z"
         id="path844" />
    </g>
  </g>
</svg>
