<?xml version="1.0" encoding="UTF-8" standalone="no"?>
<!-- Created with Inkscape (http://www.inkscape.org/) -->

<svg
   version="1.1"
   id="svg922"
   width="330.8754"
   height="245.98924"
   viewBox="0 0 330.8754 245.98924"
   sodipodi:docname="ン.png"
   xmlns:inkscape="http://www.inkscape.org/namespaces/inkscape"
   xmlns:sodipodi="http://sodipodi.sourceforge.net/DTD/sodipodi-0.dtd"
   xmlns="http://www.w3.org/2000/svg"
   xmlns:svg="http://www.w3.org/2000/svg">
  <defs
     id="defs926" />
  <sodipodi:namedview
     id="namedview924"
     pagecolor="#ffffff"
     bordercolor="#000000"
     borderopacity="0.25"
     inkscape:showpageshadow="2"
     inkscape:pageopacity="0.0"
     inkscape:pagecheckerboard="0"
     inkscape:deskcolor="#d1d1d1"
     showgrid="false" />
  <g
     inkscape:groupmode="layer"
     inkscape:label="Image"
     id="g928"
     transform="translate(-10.25346,-12.755718)">
    <g
       id="g932">
      <path
         style="fill:#afafaf"
         d="m 168,242.87124 c -3.42018,-5.19679 -4.96065,-6.4874 -6.50453,-10.22783 l -1.45924,-3.49246 3.23189,-0.62921 c 41.15529,-8.01247 70.89638,-18.82075 94.15844,-34.21836 6.87854,-4.55304 13.87937,-10.50482 22.07344,-18.76578 7.97454,-8.03966 12.48593,-14.70969 13.64888,-14.47476 0.9625,0.19443 1.85112,3.51665 1.85112,4.04567 0,0.58124 0.78747,0.54042 1.99005,-0.10318 1.09452,-0.58578 1.94123,-1.38911 1.88158,-1.78519 -0.30517,-2.02606 0.32324,-3.03784 2.19,-3.52601 1.1339,-0.29652 1.98059,-1.1365 1.88152,-1.86663 -0.36586,-2.69651 0.1062,-3.60714 2.14651,-4.1407 1.60785,-0.42046 1.93303,-1.03995 1.41034,-2.6868 -0.51889,-1.63487 -0.19918,-2.26591 1.35374,-2.672 1.27786,-0.33417 2.14696,-1.51536 2.33966,-3.17983 0.17957,-1.551 0.92807,-2.64817 1.8066,-2.64817 0.88403,0 1.57592,-1.02661 1.68488,-2.5 0.10168,-1.375 0.49862,-3.53909 0.88208,-4.80908 0.55089,-1.82449 0.25701,-2.42419 -1.40031,-2.85759 l -2.09752,-0.54851 2.03522,-3.98936 c 1.11937,-2.19415 3.51818,-7.17107 3.23323,-7.91365 -0.49764,-1.29681 11.69988,9.0737 14.54574,11.68631 1.15941,1.06439 0.28783,2.86115 -5.38486,11.10091 -11.4336,16.60765 -21.17396,28.21102 -36.39772,43.35943 -8.03041,7.99065 -19.19706,18.01687 -24.81479,22.2805 -5.69722,20.68775 -24.38863,16.91153 -41.97335,24.64902 -6.7411,2.17244 -27.98592,8.29507 -35.53109,10.08343 -7.54516,1.78835 -16.48429,4.77971 -16.19416,5.24914 0.97864,1.58348 2.93328,-0.36247 -2.58735,-5.41931 z m 126.25661,-84.41413 c 3.94603,-4.47284 15.65765,-23.78683 15.03489,-24.79448 -0.33173,-0.53674 1.43303,-0.7534 2.07082,-0.35924 2.31368,1.42993 -0.50937,4.83888 -7.85612,16.1545 C 298.06789,157.83407 295.46392,161 294.01281,161 c -1.93553,0 -1.92772,-0.0815 0.2438,-2.54289 z M 218,123.7 c 0,-1.815 -0.54,-3.84 -1.2,-4.5 -1.57531,-1.57531 4.05537,3.8397 1.70047,6.49629 -1.5588,1.7585 -2.85295,-2.57899 -10.35387,-6.46003 -0.43754,-0.22639 1.66532,3.07784 2.59024,2.66974 2.27795,-1.00511 -28.61065,-21.2339 -26.49548,-19.81688 0.81211,0.54406 16.20271,1.21891 13.70967,-0.11533 -2.27397,-1.21699 -5.99556,1.8907 -11.91235,2.92783 4.43337,1.81529 5.53211,0.94181 2.48905,0.41789 2.67922,2.04064 -5.95797,-3.98101 -17.42721,-10.265712 -1.92385,-1.029613 -5.64661,-4.349634 -6.34717,-3.244075 -0.63818,1.007105 2.27336,4.163652 2.26196,2.63141 -0.008,-1.132379 0.64538,-2.932379 1.45289,-4 1.62842,-2.152966 0.88821,-5.810752 -0.54964,-6.332546 -0.5052,-0.183333 1.32292,-3.95369 2.64114,-5.597709 l 2.39677,-2.989124 3.71431,1.989124 c 9.45867,5.065399 52.22604,35.001032 52.30052,36.608492 0.0158,0.34066 -1.84282,2.9699 -4.13023,5.84276 -3.32456,4.17549 -6.91519,7.51171 -5.78893,8.2247 1.0251,0.64894 3.69869,-1.21328 1.69786,-1.20214 -2.44754,0.0136 -2.75,-0.34764 -2.75,-3.28469 z"
         id="path936"
         sodipodi:nodetypes="cccssssssssssssssssscsssssccsscssssssssssssscccscssscssssss" />
      <path
         style="fill:#090909"
         d="M 139.44679,226.31842 C 118.57606,208.23475 81.025,175.72297 56,154.07002 30.975,132.41708 10.390117,114.4308 10.255816,114.10051 c -0.134301,-0.33028 5.490699,-3.69706 12.5,-7.48173 C 59.318416,86.876806 93.033698,61.469635 128.2365,27.130621 L 142.973,12.755718 229.47865,63.877859 C 277.05676,91.995036 316.4588,115 317.03874,115 c 1.72879,0 16.16335,8.76845 20.27568,12.3167 l 3.81442,3.29121 -8.33989,12.48844 c -12.06933,18.07304 -22.32239,30.52847 -38.24276,46.45734 -15.99033,15.99887 -25.90567,24.20174 -43.04619,35.61171 -18.78859,12.50706 -59.28666,31.6275 -71.02234,33.53194 -2.85843,0.46386 -5.86044,-1.90514 -41.03087,-32.37892 z m 61.02096,18.72272 c 4.38226,-1.7564 14.05726,-6.28964 21.5,-10.07387 40.82241,-20.75596 75.65769,-51.81182 103.53071,-92.29824 5.71394,-8.29967 6.5527,-10.03675 5.38486,-11.15207 C 329.71194,130.39827 152.82646,25.59144 146.2232,22.103566 c -2.12465,-1.122254 -3.29403,-0.235022 -17.5,13.277612 C 102.78963,60.049052 80.52057,78.026542 55.596644,94.415201 43.781784,102.18403 23.324913,114 21.689675,114 c -0.470988,0 -0.706342,0.44881 -0.523008,0.99735 0.183333,0.54855 35.876586,31.76077 79.318343,69.3605 l 78.985,68.36314 6.515,-2.24319 c 3.58324,-1.23376 10.10048,-3.68025 14.48274,-5.43666 z m -21.76199,-67.30589 c -3.11314,-1.03771 -4.13036,-3.6584 -3.24723,-8.3659 1.25003,-6.66319 0.33396,-7.48262 -8.007,-7.16233 -9.46092,0.36329 -10.69667,-0.69311 -11.26577,-9.6307 -0.48699,-7.64803 -1.41797,-8.32422 -8.30933,-6.03528 -2.64625,0.87895 -6.06351,1.45428 -7.5939,1.27852 -2.49847,-0.28694 -2.81392,-0.75343 -3.09003,-4.56956 -0.16912,-2.3375 -0.63101,-4.25 -1.02642,-4.25 -0.39541,0 -0.54727,-1.8 -0.33747,-4 l 0.38146,-4 h -4.10503 C 128.58312,131 128,130.69743 128,128.86995 c 0,-1.94572 0.40581,-2.08431 4.68919,-1.60152 2.69217,0.30345 5.20195,1.2298 5.89322,2.17516 1.59843,2.18599 2.67308,9.69026 1.85466,12.95111 -0.76127,3.03316 -0.21106,3.14248 5.56293,1.1053 9.64562,-3.40317 13.28655,-1.47002 13.49199,7.16358 0.19589,8.23185 0.58745,8.63964 7.52296,7.83469 5.72417,-0.66437 9.48884,0.30918 11.21974,2.90143 0.40408,0.60517 0.74158,3.97205 0.75,7.48197 l 0.0153,6.38167 4,-0.53651 c 3.3777,-0.45305 4,-0.25783 4,1.25483 0,2.13985 -4.36616,3.06295 -8.29424,1.75359 z m 116.11099,-12.78501 c -0.18953,-0.56857 -1.68833,-1.13706 -3.33067,-1.26329 -1.85535,-0.14261 -2.98608,-0.78574 -2.98608,-1.69841 0,-0.83979 -1.28485,-1.71106 -3,-2.03431 -1.65,-0.31098 -2.8875,-1.1029 -2.75,-1.75982 0.1375,-0.65693 -0.3125,-1.26295 -1,-1.34672 -0.6875,-0.0838 -1.7,-0.20817 -2.25,-0.27644 -1.79488,-0.22277 -3.54429,-1.69056 -3.02206,-2.53556 0.65195,-1.05487 -2.34039,-2.23873 -3.63549,-1.43832 -0.53739,0.33212 -1.21686,-0.31311 -1.50994,-1.43385 -0.29308,-1.12075 -1.83779,-2.49261 -3.43269,-3.0486 -2.94946,-1.02818 -3.81243,-2.64405 -1.77482,-3.32325 0.61875,-0.20625 1.125,-1.60802 1.125,-3.11505 0,-1.6557 0.74201,-3.13716 1.875,-3.74352 1.03125,-0.55191 1.875,-1.8718 1.875,-2.9331 0,-1.0613 0.9349,-2.42998 2.07756,-3.04151 1.18812,-0.63586 1.84406,-1.72036 1.53215,-2.53319 -0.31674,-0.8254 0.49565,-2.10345 1.93758,-3.04825 1.36565,-0.8948 2.42287,-2.1332 2.34937,-2.75198 -0.2813,-2.36839 0.13802,-3.72167 0.99003,-3.1951 1.1612,0.71766 3.45618,-2.06618 2.70514,-3.28138 -0.31919,-0.51646 0.19599,-1.23693 1.14484,-1.60103 0.94885,-0.36411 1.88376,-0.18626 2.07759,0.39521 0.19382,0.58148 1.66491,1.05723 3.26907,1.05723 1.92593,0 2.91667,0.50952 2.91667,1.5 0,0.825 0.45,1.55625 1,1.625 0.55,0.0687 1.45,0.2375 2,0.375 0.55,0.1375 1.45,0.30625 2,0.375 0.55,0.0687 1,0.8 1,1.625 0,1.42081 1.09272,1.90411 3.62507,1.60334 0.61878,-0.0735 1.85718,0.98372 2.75198,2.34937 0.99105,1.51252 2.20913,2.25958 3.11651,1.91139 0.86457,-0.33177 1.76014,0.13345 2.1344,1.10875 0.35464,0.9242 1.75882,2.10391 3.1204,2.62157 1.96941,0.74877 2.33714,1.39763 1.79849,3.1734 -0.3724,1.2277 -0.76029,3.35718 -0.86197,4.73218 -0.10896,1.47339 -0.80085,2.5 -1.68488,2.5 -0.87853,0 -1.62703,1.09717 -1.8066,2.64817 -0.1927,1.66447 -1.0618,2.84566 -2.33966,3.17983 -1.55292,0.40609 -1.87263,1.03713 -1.35374,2.672 0.52269,1.64685 0.19751,2.26634 -1.41034,2.6868 -2.04031,0.53356 -2.51237,1.44419 -2.14651,4.1407 0.0991,0.73013 -0.74762,1.57011 -1.88152,1.86663 -1.86676,0.48817 -2.49517,1.49995 -2.19,3.52601 0.18776,1.2466 -3.66771,2.89162 -4.05488,1.7301 z m 8.68945,-15.49235 C 307.62779,143.10973 311,137.12542 311,136.15942 c 0,-2.47712 -23.79337,-17.78134 -25.73257,-16.55153 -2.45585,1.55745 -16.3504,24.01438 -15.76767,25.48434 0.74384,1.87637 22.51785,15.84247 24.75644,15.87906 1.1549,0.0189 4.32194,-3.92311 9.25,-11.5134 z m -92.83953,14.87544 C 210.3,163.96667 210,162.85024 210,161.85239 c 0,-1.82648 -1.73441,-2.5451 -7.4293,-3.07818 -2.7523,-0.25764 -2.93357,-0.54611 -3,-4.77421 -0.0791,-5.03737 0.92002,-4.72793 -10.84629,-3.35909 C 183.24629,151.27821 179,149.24163 179,145.97695 179,144.65202 178.32538,144 176.95455,144 174.07584,144 170,139.59163 170,136.47807 c 0,-2.27455 -0.29132,-2.51164 -2.25,-1.83121 -1.2375,0.4299 -3.825,0.79773 -5.75,0.81739 -2.92325,0.0299 -3.55471,-0.35066 -3.83199,-2.30919 -0.38376,-2.71057 1.3953,-7.60295 4.01454,-11.03992 3.4689,-4.5519 2.45519,-4.78211 -11.18255,-2.53955 -5.10089,0.83878 -8.84389,-0.95771 -10.56179,-5.06923 C 139.63243,112.57786 138.28374,111 137.44113,111 c -2.81619,0 -6.27086,-4.43991 -5.71543,-7.34542 0.50781,-2.65642 3.17225,-3.760486 3.38965,-1.40458 0.0634,0.6875 0.17594,1.925 0.25,2.75 0.0744,0.82913 2.00967,2.09343 4.32702,2.82685 3.63911,1.15175 4.23297,1.74562 4.5,4.5 0.3807,3.92687 2.53898,4.40868 11.88464,2.65311 5.02577,-0.94409 7.08954,-0.96119 8.75,-0.0725 2.81662,1.50741 2.86578,5.94212 0.10478,9.45217 -1.7305,2.19997 -4.36925,8.64041 -3.54012,8.64041 0.13863,0 2.3816,-0.72561 4.98439,-1.61247 2.60278,-0.88686 5.04216,-1.30264 5.42084,-0.92396 0.37868,0.37868 1.14335,2.56679 1.69927,4.86247 l 1.01077,4.17396 4.63831,-0.15263 4.63832,-0.15263 -0.54102,4.03362 -0.54103,4.03361 5.89924,-0.53943 c 3.24458,-0.29668 6.82506,-0.83545 7.95663,-1.19725 2.92252,-0.93443 6.44988,2.25773 6.72172,6.08296 0.19566,2.75322 0.70889,3.2389 4.49331,4.25216 2.90172,0.77691 4.62823,1.92482 5.38146,3.57798 1.61206,3.53809 -0.22623,7.15593 -2.48721,4.89494 z m 16.61818,-17.80955 c -3.61469,-1.57164 -4.85034,-4.69591 -3.88738,-9.82893 0.3883,-2.06984 0.12221,-3.96947 -0.71676,-5.11683 -1.28757,-1.76085 -1.49383,-1.75428 -5.8836,0.18753 l -4.54925,2.01235 1.44221,-5.52281 c 0.79321,-3.03755 1.07442,-5.8906 0.62491,-6.34011 -0.44951,-0.44951 -2.82568,0.0819 -5.28038,1.18089 -2.71868,1.21719 -6.04048,1.88209 -8.49885,1.70116 -3.58563,-0.2639 -4.24865,-0.73313 -5.94457,-4.20708 -1.65172,-3.38339 -1.73734,-4.32626 -0.63566,-7 1.82145,-4.4206 2.438,-8.58995 1.27025,-8.58995 -0.55067,0 -3.95112,1.38042 -7.55655,3.06761 -4.2323,1.98053 -7.72721,2.95505 -9.86227,2.75 -3.19178,-0.30655 -3.30961,-0.47417 -3.38329,-4.81306 -0.0743,-4.37276 -0.17517,-4.5115 -3.6976,-5.08406 -1.99169,-0.32374 -4.31983,-1.168389 -5.17366,-1.876998 -2.00855,-1.666956 -1.98781,-7.300821 0.0413,-11.224755 l 1.59374,-3.081944 -5.55242,0.46045 c -3.97226,0.329411 -5.69405,0.09139 -6.05006,-0.836371 -0.64989,-1.693572 0.004,-2.029777 5.56625,-2.862234 6.70017,-1.002749 8.85581,-0.06911 8.81696,3.81875 -0.0175,1.750436 -0.6925,4.05612 -1.5,5.123742 -1.79748,2.376482 -1.89578,5.176094 -0.2182,6.214797 0.6875,0.425678 3.05,1.023086 5.25,1.327572 l 4,0.553611 -0.1619,4.73145 c -0.19046,5.56575 0.35114,5.73276 7.24242,2.23324 2.70571,-1.37402 6.35994,-2.97664 8.12051,-3.5614 6.65582,-2.210651 9.31006,2.77445 5.60925,10.53512 -1.26926,2.66167 -1.45088,4.22532 -0.72987,6.28393 1.23061,3.51366 4.13977,3.93037 9.05342,1.29682 C 213.63614,116.30325 218,117.70221 218,123.7 c 0,2.96005 0.29308,3.3 2.84501,3.3 4.45121,0 6.15499,2.71546 6.15499,9.80969 0,5.89875 0.11329,6.17703 2.75,6.75478 4.71511,1.03317 5.25,1.32905 5.25,2.90415 0,1.91545 -3.38101,1.93963 -7.71515,0.0552 z"
         id="path934" />
    </g>
  </g>
</svg>
