<?xml version="1.0" encoding="UTF-8" standalone="no"?>
<!DOCTYPE svg PUBLIC "-//W3C//DTD SVG 1.1//EN" "http://www.w3.org/Graphics/SVG/1.1/DTD/svg11.dtd">
<svg width="100%" height="100%" viewBox="0 0 1920 1986" version="1.1" xmlns="http://www.w3.org/2000/svg" xmlns:xlink="http://www.w3.org/1999/xlink" xml:space="preserve" xmlns:serif="http://www.serif.com/" style="fill-rule:evenodd;clip-rule:evenodd;stroke-linecap:round;stroke-linejoin:round;stroke-miterlimit:1.5;">
    <g transform="matrix(1,0,0,1,0,-714.445)">
        <path d="M0,559.329C0,559.329 52.716,558.113 79.066,557.218C277.708,550.47 518.448,861.731 867.131,950.574C1138.66,1019.76 1515.69,823.997 1680.24,820.849C1836.27,817.865 1920,855.207 1920,855.207L1920,1986L0,1986L0,559.329Z" style="fill:rgb(42,104,80);fill-opacity:0.18;"/>
    </g>
    <path d="M0,559.329C0,559.329 52.716,558.113 79.066,557.218C277.708,550.47 518.448,861.731 867.131,950.574C1138.66,1019.76 1515.69,823.997 1680.24,820.849C1836.27,817.865 1920,855.207 1920,855.207L1920,1986L0,1986L0,559.329Z" style="fill:rgb(42,104,80);"/>
    <path d="M643.461,1986C671.688,1912.59 728.141,1765.77 824.375,1716.03C950.428,1650.88 1269.47,1675.28 1399.78,1595.1C1535.07,1511.85 1526.31,1244.65 1556.8,1106.12C1579.62,1002.44 1681.12,889.837 1752.05,854.519C1814.68,823.332 1884.89,807.338 1920,799.341" style="fill:none;stroke:rgb(194,32,45);stroke-width:2px;"/>
    <g transform="matrix(0.66773,0,0,0.686569,-284.265,228.135)">
        <ellipse cx="1769.45" cy="493.453" rx="56.16" ry="54.619" style="fill:none;stroke:white;stroke-width:29.53px;"/>
    </g>
</svg>
