<?xml version="1.0" encoding="UTF-8" standalone="no"?>
<!-- Created with Inkscape (http://www.inkscape.org/) -->

<svg
   version="1.1"
   id="svg687"
   width="144.80595"
   height="350.75568"
   viewBox="0 0 144.80595 350.75568"
   sodipodi:docname="ã†.png"
   xmlns:inkscape="http://www.inkscape.org/namespaces/inkscape"
   xmlns:sodipodi="http://sodipodi.sourceforge.net/DTD/sodipodi-0.dtd"
   xmlns="http://www.w3.org/2000/svg"
   xmlns:svg="http://www.w3.org/2000/svg">
  <defs
     id="defs691" />
  <sodipodi:namedview
     id="namedview689"
     pagecolor="#ffffff"
     bordercolor="#000000"
     borderopacity="0.25"
     inkscape:showpageshadow="2"
     inkscape:pageopacity="0.0"
     inkscape:pagecheckerboard="0"
     inkscape:deskcolor="#d1d1d1"
     showgrid="false" />
  <g
     inkscape:groupmode="layer"
     inkscape:label="Image"
     id="g693"
     transform="translate(-15.66046,-16.169827)">
    <g
       id="g697">
      <path
         id="path701"
         style="fill:#adadad"
         d="m 73.5,359.46853 c -6.724914,-1.53828 -12.406731,-3.25215 -11.213949,-3.38258 0.432328,-0.0473 -0.349321,-1.7568 -1.736999,-3.79895 -1.387677,-2.04215 -2.1914,-3.99307 -1.786051,-4.33538 0.40535,-0.3423 4.167811,-1.59127 8.361027,-2.77547 4.193215,-1.18421 10.718215,-3.48442 14.5,-5.11158 L 88.5,337.1061 l 11.96028,1.86078 C 108.62656,340.2374 78.952458,336.28411 86.25,336.21733 L 110,336 v -5 c 0,-2.87436 -0.45338,-5 -1.06645,-5 -0.58655,0 2.79947,-3.65941 7.52447,-8.13202 9.5173,-9.00892 19.10877,-22.42144 22.48293,-31.4397 5.71127,-15.26475 3.75851,-33.10779 -4.70089,-42.95351 -7.18163,-8.35855 -19.59676,-11.89534 -34.557764,-9.8447 l -4.596846,0.63007 -0.365728,6.61993 c -0.20115,3.64096 -0.332877,1.9029 -0.292725,-3.86237 l 0.073,-10.4823 4.5,0.2914 c 6.229133,0.40337 19.527053,3.60533 25.341883,6.10199 17.05328,7.32198 32.04477,18.86023 32.04477,44.42261 0,6.89922 1.91587,-2.95588 1.03572,1.68386 C 155.64463,288.40678 139.29046,324 137.84641,324 c -0.53044,0 -0.64074,0.5625 -0.2451,1.25 0.39564,0.6875 4.96602,-8.24675 4.54309,-8.6273 -0.4229,-0.38056 -8.72023,11.42261 -12.82522,15.0027 -4.10499,3.58009 -10.91862,8.7712 -15.14141,11.5358 -7.05863,4.62119 -24.219333,13.40047 -30.17779,15.43872 -2.260841,0.77339 -12.08647,3.09487 -7.98411,2.87522 l 14.48411,-0.77553 -5.5,0.0707 c -3.025,0.0389 -8.2,-0.54692 -11.5,-1.30178 z M 76.435703,280.5 c 5.72e-4,-14.3 0.141019,-20.01094 0.312104,-12.69097 0.171086,7.31996 0.170619,19.01996 -10e-4,26 C 76.575111,300.78906 76.435132,294.8 76.435703,280.5 Z M 155.76372,275 C 153.82935,249.02649 147.27867,235.80932 129.82691,227.30597 123.09855,224.02759 109.18246,220 104.58339,220 102.69285,220 102,219.47944 102,218.05902 c 0,-1.06754 -3.474114,-0.26525 -2.839134,-0.65769 0.7153,-0.44208 0.284013,-2.07142 -0.158067,-1.35616 -0.51753,0.83739 6.167431,0.95483 12.209831,0.95483 5.06824,0 10.97297,0.73269 15.07789,1.87095 23.87771,6.62109 40.34956,30.75941 31.96046,59.53318 l -1.85375,5.10223 z M 78.045551,238.79843 c -1.474891,0.003 -24.744235,3.31624 -35.545551,6.37817 -6.05,1.71504 -12.033028,3.23954 -13.295619,3.38778 l -2.295619,0.26952 1.972481,-3.16695 c 2.73102,-4.38484 12.649959,-11.0151 20.274494,-13.55239 8.197483,-2.72794 19.306868,-5.07507 24.125998,-5.0972 L 77.063471,227 76.781735,238.6684 c -1.194477,26.25849 3.327173,0.98132 1.263816,0.13003 z M 76,219 C 25.333333,73 50.666667,146 76,219 Z m 16.614133,-35.25 c -45.082205,-5.19207 -7.012058,-20.28738 -5.740435,-19.79941 19.678532,11.46015 4.708303,-21.09362 4.91008,-1.73197 0.186914,18.77472 7.604524,11.25854 6.331432,10.77001 -1.248113,-0.47895 -2.367172,-15.27482 -2.577602,-2.69161 -0.17604,10.5266 23.912752,16.54368 -2.923475,13.45298 z M 89.628944,172.48782 C 93.58472,176.33371 82.522089,181.50926 80,181 c -0.584691,-0.11806 -1,-3.83333 -1,-9.5 0,-5.66667 0.403509,-9.5 1,-9.5 -1.042811,-6.5277 3.94262,57.9829 2.440389,3.49894 z m 46.804386,16.63916 c -0.92296,-0.83035 -19.26315,-2.99229 -28.93333,-3.41066 l -7.995233,-0.416 -0.489782,-8.63044 c -0.458645,-8.08176 0.858271,-9.18439 2.498415,-8.6913 2.33077,0.70071 31.8029,4.81515 36.9866,5.13795 4.55159,0.28344 6.11214,0.85165 4.82952,1.75847 -0.74726,0.52832 -4.59721,11.25105 -4.77231,13.29167 -0.11121,1.29595 -1.2024,1.78933 -2.12388,0.96031 z m -77.715756,-14.5826 c -8.911489,-2.65621 -8.479918,-2.53953 -9.467574,-2.55969 -0.4125,-0.008 -0.238669,-0.34592 0.386292,-0.75 0.62496,-0.40408 2.270588,-3.43469 3.656949,-6.73469 2.745595,-6.53542 3.611132,-7.04135 10.324174,-6.03466 l 8.575911,2.85371 15.575212,3.54731 c 3.630202,0.82679 -15.513347,13.50083 -15.925847,13.46345 -0.4125,-0.0374 -8.844783,-2.50961 -13.125117,-3.78543 z m 30.501503,57.76296 c 0.122285,-4.29015 0.285575,-5.50112 0.812883,-6.02843 0.450554,-0.45055 0.822405,-0.0446 1.314985,1.43562 0.438354,1.31725 1.203287,6.0431 1.204837,7.44363 10e-4,0.92381 0.207535,0.8247 -2.474137,1.1874 l -0.97744,0.1322 z m -4.998357,0.20337 c 0.05871,-2.51618 0.209086,-4.90925 0.334285,-5.31993 0.289963,-0.95114 0.893536,-1.31675 1.406859,-0.8522 0.517158,0.46802 0.752629,2.18125 0.912704,6.64063 l 0.137982,3.84388 h -0.496811 c -0.273246,0 -0.92542,0.0588 -1.449275,0.13055 l -0.952465,0.13055 z m -4.992526,0.29476 c 0.108182,-5.05612 0.275898,-6.20786 0.957075,-6.57242 1.080948,-0.5785 1.394798,0.6146 1.643104,6.24629 0.114988,2.60798 0.171329,4.77815 0.1252,4.8226 -0.04613,0.0444 -0.701646,0.14627 -1.456705,0.22628 l -1.372836,0.14548 z" />
      <path
         style="fill:#0c0b0b"
         d="M 66.944984,364.65571 C 41.346575,357.07572 22.978496,332.60374 16.914809,298 15.0611,287.42141 15.300051,267.14789 17.379688,258.55778 c 2.006287,-8.28713 6.173179,-18.15142 9.04575,-21.41401 C 31.677521,231.17859 43.581755,225.96162 61,221.99165 c 3.025,-0.68946 5.99569,-1.64429 6.601532,-2.12184 0.780831,-0.61548 1.138653,-21.00759 1.22903,-70.04201 L 68.958059,80.65406 64.732662,76.753195 C 61.607549,73.868106 60.590053,72.220561 60.825198,70.426165 61.090125,68.404494 60.714395,68 58.571566,68 56.703215,68 56,68.52455 56,69.918213 56,75.710797 52.801201,75.957691 50.936963,70.308995 49.157623,64.917544 51.125036,56 54.093853,56 c 0.46693,0 1.225335,1.4625 1.685344,3.25 0.648932,2.521611 1.43976,3.320917 3.528592,3.566422 1.480716,0.174033 2.695195,-0.05097 2.698842,-0.5 C 62.010278,61.86739 62.907294,56.325 64,50 66.484296,35.619941 66.49787,36 63.5,36 62.125,36 61,36.420705 61,36.9349 c 0,0.514196 -0.484955,2.201696 -1.077678,3.75 L 58.844643,43.5 56.922322,41.139216 C 54.76724,38.492582 54.231191,29.30505 56.035184,25.934259 57.65293,22.911472 59.710612,23.643893 60.434022,27.5 61.005744,30.547538 61.466735,31 64,31 c 2.586327,0 2.977421,-0.416387 3.522213,-3.75 0.337061,-2.0625 1.391154,-5.325 2.342429,-7.25 l 1.72959,-3.5 13.314511,-0.279803 c 8.387647,-0.176265 13.79095,0.115607 14.602053,0.788763 0.708144,0.587711 1.869854,3.99815 2.581564,7.578753 1.27026,6.390666 1.34908,6.504698 4.29322,6.211237 2.43601,-0.242814 3.15435,-0.901997 3.82542,-3.510424 1.09689,-4.263561 3.42395,-3.357932 4.8348,1.881575 0.78466,2.913992 0.7437,5.411433 -0.15458,9.425364 -1.35885,6.072014 -2.81755,6.501445 -4.51579,1.329426 -0.86954,-2.648188 -1.75159,-3.499701 -3.88943,-3.754767 l -2.76485,-0.329877 0.66423,5.329877 c 0.36532,2.931432 1.15483,8.817376 1.75446,13.079876 l 1.09024,7.75 h 3.38496 C 113.28522,62 114,61.594946 114,60.081787 114,57.204848 115.06146,55 116.44647,55 118.23102,55 120,59.480286 120,64 c 0,7.64881 -4.38823,12.308873 -5.65,6 -0.49971,-2.498551 -1.08056,-3 -3.475,-3 -2.50575,0 -2.875,0.372464 -2.875,2.9 0,1.986035 -1.11331,4.013305 -3.53251,6.432506 l -3.5325,3.532505 0.11969,65.817499 c 0.0658,36.19962 0.35655,67.72999 0.64605,70.06749 0.45957,3.71075 0.83974,4.25 2.9962,4.25 4.49932,0 18.47382,4.06277 25.12998,7.30597 17.23048,8.39553 24.64091,21.78092 25.85077,46.69403 0.60629,12.48451 -1.26863,24.24216 -6.37203,39.95915 -6.69653,20.62338 -19.87805,37.50331 -36.24074,46.40901 -12.30681,6.6982 -31.844862,8.51456 -46.119926,4.28755 z m 35.368326,-6.75436 c 17.98697,-6.03931 31.66112,-20.74816 39.65723,-42.65801 C 146.15816,303.76897 148,292.56 148,278.54949 148,252.98711 141.39516,240.25077 124.34188,232.92879 118.52892,230.43294 105.23155,227.23066 99,226.82594 l -4.5,-0.29225 -0.311148,7.98315 c -0.171131,4.39074 -0.04005,9.8357 0.29129,12.0999 0.529206,3.61632 1.091614,4.33734 4.626574,5.93138 5.415404,2.44201 13.297974,11.25649 15.287184,17.09452 0.88336,2.5925 1.6061,7.47831 1.6061,10.85736 0,3.37905 -0.72274,8.26486 -1.6061,10.85736 -1.99517,5.8555 -9.8768,14.65478 -15.328474,17.11314 L 95,310.30375 V 318.15187 326 h 7.5 7.5 v 5 5 H 86.5 63 v -5 -5 h 7 7 v -7.4722 -7.4722 l -5.020111,-2.1596 c -6.343926,-2.72908 -14.192022,-11.1355 -16.37379,-17.53864 -2.054888,-6.03076 -2.054888,-15.68396 0,-21.71472 2.181768,-6.40314 10.029864,-14.80956 16.37379,-17.53864 L 77,249.9444 v -11.6158 -11.6158 l -6.870785,0.63857 c -8.588042,0.79818 -23.038883,4.93037 -29.455592,8.42278 C 26.222997,243.63917 21.088844,257.12509 22.313811,284 c 1.109351,24.3384 9.400284,46.41603 22.437896,59.74908 9.549045,9.76544 14.84492,12.46245 32.748293,16.67761 4.134308,0.97338 18.855099,-0.52481 24.81331,-2.52534 z M 88,319 c 0,-6.33333 -0.190476,-7 -2,-7 -1.809524,0 -2,0.66667 -2,7 0,6.33333 0.190476,7 2,7 1.809524,0 2,-0.66667 2,-7 z m 6,-0.5 c 0,-6.83333 -0.177778,-7.5 -2,-7.5 -1.822222,0 -2,0.66667 -2,7.5 0,6.83333 0.177778,7.5 2,7.5 1.822222,0 2,-0.66667 2,-7.5 z m -12,-38 C 82,257.61111 81.795597,254 80.5,254 c -1.295597,0 -1.5,3.61111 -1.5,26.5 0,22.88889 0.204403,26.5 1.5,26.5 1.295597,0 1.5,-3.61111 1.5,-26.5 z m 5.996942,17.25 c -0.0017,-5.0875 -0.297512,-17.0125 -0.6574,-26.5 C 86.829612,257.80705 86.388889,254 85.3426,254 84.25291,254 84,258.99189 84,280.5 c 0,25.83333 0.05031,26.5 2,26.5 1.856076,0 1.99978,-0.66565 1.996942,-9.25 z M 93,280.39301 C 93,266.42686 92.811804,255 92.581787,255 c -0.230016,0 -1.130016,-0.27314 -2,-0.60699 -1.412117,-0.54188 -1.580855,1.68387 -1.573095,20.75 0.01011,24.85253 0.606266,31.94197 2.620988,31.16885 C 92.740325,305.88567 93,300.97406 93,280.39301 Z M 76.779436,268.10828 76.5,255.09852 l -3.427569,1.66164 c -19.01022,9.21593 -19.138043,37.45552 -0.213526,47.17356 L 76.5,305.80348 76.779436,293.46077 c 0.15369,-6.7885 0.15369,-18.19711 0,-25.35249 z m 24.363894,33.43462 c 13.63337,-10.00487 13.70106,-31.69809 0.13123,-42.05943 C 98.765371,257.56756 96.327106,256 95.856198,256 95.385289,256 95,267.025 95,280.5 c 0,13.475 0.3375,24.48884 0.75,24.47521 0.4125,-0.0136 2.839499,-1.55817 5.39333,-3.43231 z M 82,237.39301 C 82,227.93256 81.74556,226 80.5,226 c -1.249781,0 -1.5,1.99651 -1.5,11.96862 0,10.22792 0.218157,11.8849 1.5,11.39301 1.211879,-0.46505 1.5,-2.76399 1.5,-11.96862 z m 11,6.75368 C 93,233.92003 91.846713,226 90.357544,226 89.294008,226 89,228.4545 89,237.33333 89,248.78488 89.255815,250 91.666667,250 92.625917,250 93,248.35778 93,244.14669 Z M 87,237.5 c 0,-9.55556 -0.253623,-11.5 -1.5,-11.5 -1.246377,0 -1.5,1.94444 -1.5,11.5 0,9.55556 0.253623,11.5 1.5,11.5 1.246377,0 1.5,-1.94444 1.5,-11.5 z M 77,152 c 0,-44 -0.343284,-67 -1,-67 -0.656716,0 -1,23 -1,67 0,44 0.343284,67 1,67 0.656716,0 1,-23 1,-67 z m 4.757038,-0.16675 C 81.555514,99.172837 81.230031,84.576529 80.25,84.249917 79.258221,83.91939 79,97.794489 79,151.41667 79,210.96435 79.179187,219 80.507038,219 c 1.33031,0 1.476895,-7.87653 1.25,-67.16675 z m 4.466035,15.08093 c -0.31721,-58.8932 -1.030296,-83.506957 -2.380177,-82.157076 -1.385895,1.385895 0.172038,134.405286 1.568674,133.936546 0.770545,-0.25861 1.007551,-15.38125 0.811503,-51.77947 z M 91.590342,152.25 C 91.195373,115.5375 90.490178,85.11171 90.023241,84.637132 87.231795,81.800011 87.044005,86.373924 87.553189,144.79886 88.142463,212.41347 88.425303,219 90.739553,219 c 1.41672,0 1.499251,-6.4751 0.850789,-66.75 z m 2.158677,-48.4334 C 93.58797,92.642471 93.455982,101.5 93.455712,123.5 c -2.71e-4,22 0.131497,31.14247 0.292816,20.3166 0.161319,-10.82587 0.16154,-28.82587 4.91e-4,-40 z M 77,74 v -6 h -4.5 c -2.585755,0 -4.5,0.464468 -4.5,1.091871 0,0.894145 7.90757,10.711373 8.75,10.863102 C 76.8875,79.979738 77,77.3 77,74 Z m 4.478538,4.416667 c -0.139304,-5.949902 -1.673709,-32.285115 -2.13947,-36.720043 -0.580151,-5.524129 -0.733967,-5.788778 -3.196651,-5.5 C 73.671426,36.486376 73.477777,36.971524 71.830188,47 70.881407,52.775 69.867727,58.7375 69.577566,60.25 69.059173,62.952186 69.136499,63 74.025,63 H 79 v 8.583333 c 0,6.422223 0.314725,8.478425 1.25,8.166667 0.6875,-0.229167 1.240342,-0.829167 1.228538,-1.333333 z M 86.944913,56.5 c 0.659818,-11.55 1.279638,-21.9 1.377378,-23 0.138611,-1.559981 1.024591,-2.069586 4.027006,-2.316285 3.410748,-0.280251 3.782576,-0.565075 3.263655,-2.5 -0.322103,-1.201043 -0.591787,-2.98751 -0.599297,-3.969927 -0.01232,-1.611624 -0.966638,-1.758237 -9.763655,-1.5 L 75.5,23.5 75.189635,27.25 C 74.896886,30.787145 75.042747,31 77.759354,31 h 2.880085 l 1.283897,23.75 c 0.706143,13.0625 1.524541,24.145287 1.818663,24.628416 C 85.060433,81.544098 85.827034,76.068261 86.944913,56.5 Z M 90.861299,71.25 90.5,62.5 95.148053,62.199372 99.796106,61.898745 99.315719,58.199372 C 99.051507,56.164718 98.309883,50.45 97.667666,45.5 L 96.5,36.5 93.25,36.186642 C 90.411677,35.912976 90,36.172663 90,38.236747 90,40.718735 88.419467,63.071808 87.488942,73.75 86.975795,79.638589 87.067999,80 89.08345,80 c 2.050076,0 2.124104,-0.364342 1.777849,-8.75 z m 7.060259,2.980472 C 101.97962,68.94401 101.47143,67 96.031385,67 H 92 v 5.833333 c 0,5.689153 0.714845,7.982382 2.005396,6.433334 0.351301,-0.421667 2.113574,-2.687954 3.916162,-5.036195 z"
         id="path699" />
    </g>
  </g>
</svg>
