<?xml version="1.0" encoding="UTF-8" standalone="no"?>
<!-- Created with Inkscape (http://www.inkscape.org/) -->

<svg
   version="1.1"
   id="svg1210"
   width="245.54022"
   height="285.38669"
   viewBox="0 0 245.54022 285.38669"
   sodipodi:docname="ãŠ.png"
   xmlns:inkscape="http://www.inkscape.org/namespaces/inkscape"
   xmlns:sodipodi="http://sodipodi.sourceforge.net/DTD/sodipodi-0.dtd"
   xmlns="http://www.w3.org/2000/svg"
   xmlns:svg="http://www.w3.org/2000/svg">
  <defs
     id="defs1214" />
  <sodipodi:namedview
     id="namedview1212"
     pagecolor="#ffffff"
     bordercolor="#000000"
     borderopacity="0.25"
     inkscape:showpageshadow="2"
     inkscape:pageopacity="0.0"
     inkscape:pagecheckerboard="0"
     inkscape:deskcolor="#d1d1d1"
     showgrid="false" />
  <g
     inkscape:groupmode="layer"
     inkscape:label="Image"
     id="g1216"
     transform="translate(-11.486443,-7.5225987)">
    <g
       id="g1220">
      <path
         style="fill:#afafaf"
         d="m 89.403561,291.17301 c -11.1869,-3.86701 -18.149522,-13.1391 -19.140922,-25.48986 -0.937191,-11.67542 4.909787,-25.45183 15.691752,-36.97227 5.767938,-6.16299 15.049109,-13.58149 15.041799,-12.02302 -0.002,0.44668 -0.71405,4.86214 -1.582125,9.81214 -0.868078,4.95 -1.570856,10.125 -1.56173,11.5 0.01393,2.09787 2.159035,-0.22466 1.537145,-1.79735 -0.669438,-1.69293 -3.269077,0.86555 -5.756944,3.82221 -4.392881,5.22064 -8.759912,14.80917 -9.350384,20.53029 -0.655607,6.35223 -0.01994,9.23718 2.835006,12.86666 1.691941,2.15096 5.434335,5.68828 6.171998,4.64341 0.646169,-0.91526 -2.306127,-3.74012 -2.69654,-1.93787 -0.489415,2.25926 -0.185525,2.70085 2.169116,3.15201 4.6525,0.89145 12.088328,-0.79338 14.890218,-3.37386 5.64073,-5.195 6.30208,-8.46242 6.32609,-31.25428 l 0.022,-20.84877 -3.5913,2.11892 -3.5913,2.11892 0.73354,-4.27015 c 0.40345,-2.34858 1.05487,-7.87014 1.4476,-12.27014 0.39273,-4.4 -2.29067,-4.19307 -2.21164,-2.89672 0.10435,1.71134 3.6464,-0.55557 4.79489,-0.99629 0.86998,-0.33385 1.76998,-0.60699 2,-0.60699 0.23001,0 0.41821,-7.2 0.41821,-16 0,-15.33333 1.3685,-15.58689 -0.54608,-15.67691 -6.87231,-0.32309 -3.45392,-0.98976 -3.45392,-4.80967 0,-4.14581 -8.79166,-3.78537 -5.68994,-5.08136 2.76519,-1.15537 13.35365,-1.99421 17.79661,-0.98432 5.30476,1.20578 5.38958,1.28197 5.16524,4.63909 -1.83614,27.47636 -1.19531,41.31142 2.55785,55.22245 1.3519,5.01081 1.55194,8.76374 1.04955,19.69072 -0.73461,15.97773 -2.61283,24.84388 -7.01107,33.09582 -7.18288,13.47647 -20.48478,18.90966 -34.464679,14.07719 z m 91.704769,-1.19386 c -5.5535,-1.16747 -15.69319,-6.01159 -19.60833,-9.36765 -2.81917,-2.41659 -2.64818,-2.38461 2.8368,0.53057 4.1434,2.20216 7.62488,3.22696 12,3.53229 7.52318,0.52502 8.89952,-0.24276 8.04994,-4.49064 C 183.76529,277.07647 183.62013,277 178.34288,277 c -2.97391,0 -6.95814,-0.64806 -8.85383,-1.44013 -4.14298,-1.73105 -12.68267,-9.5317 -16.48984,-15.06279 l -2.7553,-4.00292 2.31615,-1.74708 C 153.83395,253.78619 155.06719,253 155.30061,253 c 0.23342,0 2.71524,3.08071 5.51515,6.84603 13.36198,17.96914 34.07325,22.58205 44.69793,9.95533 4.99,-5.93028 6.82844,-11.46371 6.91108,-20.80136 0.0649,-7.33753 -0.30063,-9.26533 -2.67303,-14.09612 -3.08033,-6.27229 -12.18055,-15.55151 -18.32643,-18.6869 -8.29175,-4.23014 -15.35137,-5.66231 -27.42531,-5.56372 -11.54248,0.0943 -26.90371,2.57291 -28.11759,4.537 -0.96507,1.56152 -3.07515,-20.8995 -2.64831,-28.19026 0.31758,-5.42466 0.41242,-4.91251 0.57322,3.09574 l 0.19268,9.59575 7.25,-1.50228 c 4.42204,-0.91629 13.10094,-1.53304 22.25,-1.58116 16.93303,-0.089 26.20544,1.83388 36.5,7.56941 6.72688,3.74782 14,9.53655 14,11.14269 0,0.65243 1.52097,3.32552 3.37993,5.94018 6.8479,9.63173 8.08237,13.86483 8.08946,27.73967 0.006,10.86269 -0.3075,13.28591 -2.39004,18.5 -3.22402,8.072 -13.43633,18.4316 -20.57935,20.87615 -6.19528,2.12021 -15.5845,2.8238 -21.39167,1.603 z m 42.20479,-103.20899 c -0.85061,0.12484 -0.31261,-0.19924 -1.17379,0.66194 -1.42105,1.42104 -1.96563,1.17336 -5.89134,-2.67943 -3.56212,-3.49596 -5.78487,-5.43505 -6.56383,-4.20286 -1.36172,2.15402 0.0999,2.31383 1.81584,-2.54981 0.825,-2.3383 1.5,-4.64488 1.5,-5.12573 0,-1.55791 -3.11657,-0.92746 -6.17267,1.24869 -4.65457,3.31434 -5.57858,1.19773 -2.45532,-5.62435 1.429,-3.12137 3.66634,-6.6538 4.18208,-6.46774 26.24109,25.06917 33.35347,20.04541 14.75903,24.73929 z m -7.19075,-19.81935 c -5.97977,-5.15133 -6.26412,-5.5863 -4.55804,-6.97244 1.00077,-0.8131 -2.21394,-3.20985 -2.60255,-2.56187 -0.42706,0.71209 -1.28436,-0.32964 1.67249,2.16361 15.97609,19.94075 21.41568,22.25016 5.4881,7.3707 z M 80.27889,176.64589 C 79.508483,175.40331 78.597109,166 79.247085,166 c 0.21815,0 2.49166,0.71385 5.052244,1.58632 2.969789,1.01191 7.018206,1.46454 11.180237,1.25 L 102.0042,168.5 l -0.002,3.16821 c -0.001,1.74252 0.14915,3.76752 0.334,4.5 0.18486,0.73249 0.14736,0.99429 -0.0833,0.58179 -0.57273,-1.02411 -12.880775,-0.90477 -17.508096,0.16975 -2.596667,0.60298 -3.97453,0.51848 -4.465784,-0.27386 z m 54.73642,-5.78235 c 0.0314,-2.7974 -1.28068,-5.39042 4.43985,-6.32146 7.06303,-1.14953 14.93812,-4.61685 19.07948,-10.03279 1.93995,-2.53701 5.93556,-3.12071 7.61582,-3.3168 2.57272,-0.30024 2.6519,-0.13928 3.34971,6.80923 0.39309,3.9142 0.50283,7.32861 0.24388,7.58757 -0.51336,0.51336 -22.33973,4.84368 -29.99405,5.95077 -3.68337,0.53275 -4.74656,0.38084 -4.73469,-0.67652 z m 64.06364,-0.57347 c -0.0724,-1.10962 -3.04168,-4.07531 -13.38577,-13.3696 l -3.80682,-3.42047 4.91832,-5.48739 c 4.32341,-4.82364 4.31691,-5.20867 5.75721,-4.01332 0.90118,0.74791 1.6385,1.60691 2.43811,2.55621 1.03607,1.23002 16.06114,12.95133 14.95021,12.60548 -1.23578,-0.38472 1.28072,-0.34488 1.28072,0.16806 0,2.20877 -5.67068,-0.90982 -13.27234,-7.36364 -4.48843,-3.81068 -7.49927,-5.75805 -7.83727,-5.42005 -0.61951,0.61951 3.0572,4.24482 10.32069,10.17641 l 3.94201,3.21916 -2.07805,4.27954 c -1.14292,2.35375 -2.3188,4.95454 -2.61306,5.77954 -0.29426,0.825 -0.57054,0.95553 -0.61396,0.29007 z m -75.94843,-13.33031 c -4.05321,-1.06156 -7.77533,-1.67928 -8.27138,-1.3727 -0.5277,0.32613 -0.78931,-7.6669 -0.63052,-19.26483 L 114.5,116.5 l 8.25,-0.29044 8.25,-0.29044 v 20.97757 20.97757 l 3.75,-0.54553 c 2.0625,-0.30004 6.64223,-1.11151 10.17718,-1.80327 5.48291,-1.07295 6.15082,-1.05566 4.54619,0.11767 -5.13632,3.75577 -15.12387,4.25495 -26.34285,1.31663 z"
         id="path1224"
         sodipodi:nodetypes="ssscssssssssssscccsssssssssssssssssssssssscssssssssssscscssscssscssssssscccsscccsssccscsccsssssssssscsssssssscsssssscccccssss" />
      <path
         style="fill:#080808"
         d="m 169.84418,283.60632 c -10.24277,-3.65881 -20.2111,-12.76162 -24.48201,-22.35632 -1.28532,-2.8875 -2.73922,-5.25 -3.23089,-5.25 -1.42537,0 -7.75617,-15.64306 -10.98627,-27.14648 -5.10346,-18.17505 -5.86608,-29.94324 -3.8731,-59.76669 0.22434,-3.35712 0.13952,-3.43331 -5.16524,-4.63909 -4.38449,-0.9966 -5.99383,-0.97501 -8.60368,0.11546 l -3.21035,1.34137 -0.56598,24.29771 c -0.59507,25.54636 -1.64334,33.7045 -9.61107,74.79772 l -2.811466,14.5 -3.349281,-0.28055 c -1.842104,-0.15431 -3.454752,-0.38603 -3.583662,-0.51494 -0.12891,-0.12891 1.497368,-9.45266 3.613951,-20.71944 C 101.2783,219.16278 103,206.77448 103,193.11954 c 0,-7.05439 -0.27629,-15.47967 -0.61398,-18.72285 l -0.61397,-5.89669 -6.372848,0.33474 c -6.902702,0.36258 -15.791242,-1.92596 -17.190336,-4.426 -0.441494,-0.78891 -2.194182,-2.44111 -3.894863,-3.67156 -1.700681,-1.23045 -4.791543,-3.5849 -6.868583,-5.23211 l -3.776435,-2.99493 -14.584493,0.29728 C 28.401171,153.229 20.179525,150.26578 14.305276,140.27239 9.1224634,131.45529 11.180063,118.30127 19.707608,105.73586 26.62729,95.53965 27.080388,94.390042 26.014447,89.734025 25.481315,87.405311 24.351732,82.449742 23.504262,78.72165 18.512327,56.761685 21.805696,45.604157 35.189196,39.134528 43.687573,35.026384 53.675227,33.803736 71.986018,34.63001 l 14.625768,0.659987 7.444107,-6.744943 C 103.17536,20.282107 111.03935,14.824637 119.82236,10.663598 125.49765,7.9748737 127.62579,7.5034791 134,7.523178 c 8.71543,0.026934 13.36018,2.009884 19.07159,8.142088 4.87411,5.233207 6.87599,8.634781 9.9075,16.834734 l 2.5879,7 13.9665,0.639003 c 14.29991,0.654258 19.44071,1.827828 26.13786,5.966899 C 209.71499,48.60501 213,54.574131 213,59.422649 213,64.353305 209.65705,72.54528 205.01094,79 c -10.64307,14.786146 -10.10441,13.702281 -8.58052,17.265329 8.29501,19.394781 8.82082,22.365531 5.29544,29.918471 -4.96604,10.63944 -14.24021,16.77862 -31.37306,20.76787 -4.5809,1.06663 -5.47951,1.73308 -8.16776,6.05756 -4.86685,7.82913 -11.42346,11.7776 -22.39866,13.48875 -3.25006,0.50672 -3.84474,1.0423 -4.76394,4.29051 -2.03136,7.17829 -2.3259,24.09727 -0.64105,36.82363 3.59683,27.16826 13.01775,49.09232 26.51194,61.69775 6.29484,5.88024 10.40163,7.69013 17.44955,7.69013 5.27725,0 5.42241,0.0765 6.04386,3.18372 0.41675,2.08375 0.20081,3.46046 -0.625,3.98469 -1.9238,1.22124 -9.81766,0.90243 -13.91756,-0.56209 z M 103.0685,160.38969 c 2.98732,-0.88567 7.08302,-2.45146 9.10155,-3.47954 3.59643,-1.83172 3.82532,-1.82951 11.40996,0.11031 13.29271,3.39971 21.80582,2.33608 28.30613,-3.53656 2.88342,-2.605 6.84424,-8.38883 7.68413,-11.22083 0.0386,-0.13032 4.36809,-1.32717 9.62099,-2.65968 11.86666,-3.01022 19.32996,-6.48246 23.76184,-11.055 2.92177,-3.0145 3.47625,-4.36208 3.82138,-9.28727 0.36096,-5.15114 -0.008,-6.5552 -3.48202,-13.26112 -2.13715,-4.125 -4.75334,-8.928317 -5.81377,-10.674037 l -1.92804,-3.174036 5.52745,-5.825964 C 205.62525,70.993187 210.3979,57.604553 203.30523,52.025455 198.2826,48.074655 190.6571,46.672709 174.75,46.775583 162.74141,46.853244 160,46.611256 160,45.473582 c 0,-3.473496 -5.18505,-17.203458 -8.12231,-21.507793 -1.78594,-2.617166 -5.07654,-5.966214 -7.31243,-7.442328 -3.70299,-2.444675 -4.73362,-2.646614 -11.56526,-2.266058 -11.6349,0.64812 -21.81647,6.569229 -37.5,21.808186 l -7,6.801573 L 81,41.977494 C 69.844453,40.654195 51.270123,40.849972 44.861587,42.358399 32.770034,45.204483 28.710412,49.602894 28.162609,60.450961 c -0.407877,8.077141 0.527887,13.662241 4.473233,26.698471 l 2.617704,8.649433 -5.1663,6.350565 c -7.555761,9.28776 -11.462498,17.75162 -11.901447,25.78422 -0.305288,5.58667 -0.009,7.08854 1.98576,10.06635 5.834405,8.70961 19.483301,10.83329 40.921348,6.36709 2.093681,-0.43618 3.730228,0.46234 8.5,4.66681 14.12945,12.45485 21.423133,14.92906 33.475593,11.35579 z M 241,206.31584 c -1.925,-0.83656 -3.76234,-1.94229 -4.08297,-2.45718 -0.35739,-0.57392 -1.64016,-0.53422 -3.3151,0.10259 -3.68811,1.40221 -9.92669,1.31399 -11.40193,-0.16125 -0.66,-0.66 -1.2,-3.36915 -1.2,-6.02032 v -4.82033 l -3.96016,2.02033 c -9.49586,4.84442 -13.07975,0.90587 -10.67342,-11.72968 0.8049,-4.22651 0.79298,-4.25 -2.15608,-4.25 -5.89651,0 -6.6632,-5.36956 -2.0777,-14.55114 l 2.25138,-4.50794 -3.94201,-3.21916 c -7.26349,-5.93159 -10.9402,-9.5569 -10.32069,-10.17641 0.338,-0.338 3.86477,2.10102 7.83727,5.42005 3.9725,3.31903 8.02534,6.0346 8.21651,6.0346 0.19118,0 3.33595,-1.17232 7.77818,-2.60516 7.58423,-2.44629 8.22735,-2.50651 10.54587,-0.98735 1.358,0.88979 2.77053,2.84962 3.13895,4.35516 0.87022,3.55618 1.96557,4.20352 7.14402,4.22204 5.72456,0.0205 10.95015,2.3336 12.38472,5.48215 1.04018,2.28293 0.85154,2.90454 -1.68485,5.55196 L 242.62582,177 h 2.70696 c 3.81933,0 10.49796,4.47744 11.27063,7.55598 0.45848,1.82674 0.0579,3.18014 -1.40576,4.74938 -2.02443,2.17048 -2.02578,2.22063 -0.12231,4.55542 2.20674,2.70678 2.67081,10.99307 0.72466,12.93922 -1.65289,1.65289 -10.55237,1.36175 -14.8,-0.48416 z M 253.31527,204.75 c 2.33966,-1.72285 0.6749,-7.37926 -3.05376,-10.37582 l -2.76151,-2.2193 3.38228,-3.51153 c 1.97757,-2.05314 3.14828,-4.12132 2.81885,-4.97981 C 253.07119,182.02194 244.96293,180 239.0098,180 c -5.50663,0 -5.71766,-1.4169 -0.72286,-4.85341 9.72094,-6.68819 8.73043,-8.58523 -4.58629,-8.78375 L 224.5,166.22568 v -4.83716 c 0,-5.78089 -1.28872,-6.39843 -8.00214,-3.83455 -7.63459,2.91567 -7.53174,3.37871 2.72246,12.25732 12.30261,10.65224 31.36265,29.93907 30.46958,30.83214 -0.3904,0.3904 -3.7908,-2.63216 -7.55645,-6.71681 -6.29492,-6.82815 -32.05176,-29.98066 -34.22555,-30.76492 -0.51574,-0.18606 -2.10689,2.21554 -3.53589,5.33691 -3.12326,6.82208 -2.19925,8.93869 2.45532,5.62435 2.81396,-2.00373 6.17267,-2.83525 6.17267,-1.5282 0,0.32712 -0.93153,3.66163 -2.07007,7.41002 -1.13854,3.74839 -1.92604,8.31825 -1.75,10.15524 0.2731,2.84984 0.66881,3.30174 2.6965,3.07937 1.30703,-0.14334 4.89386,-2.0465 7.97074,-4.22926 3.07687,-2.18276 5.95386,-3.6091 6.39332,-3.16964 0.43945,0.43945 0.0136,3.79358 -0.94637,7.45363 -2.20975,8.42515 -1.37875,9.74037 4.96108,7.85182 8.04849,-2.39752 8.7448,-2.46799 8.7448,-0.88496 0,2.03768 2.3684,3.84127 6.25616,4.76422 4.83431,1.14765 6.1897,1.10137 8.05911,-0.2752 z"
         id="path1222"
         sodipodi:nodetypes="ssssssscsscssssscsssscssssssscssssscsssssssssssssssssssscssscscsssssssscsssscsscsssssssscsssscsssssssssscsssssssscssssscsssssssssssssssssss" />
    </g>
  </g>
</svg>
