<?xml version="1.0" encoding="UTF-8" standalone="no"?>
<!-- Created with Inkscape (http://www.inkscape.org/) -->

<svg
   version="1.1"
   id="svg524"
   width="291.27878"
   height="216.16664"
   viewBox="0 0 291.27878 216.16664"
   sodipodi:docname="さ.png"
   xmlns:inkscape="http://www.inkscape.org/namespaces/inkscape"
   xmlns:sodipodi="http://sodipodi.sourceforge.net/DTD/sodipodi-0.dtd"
   xmlns="http://www.w3.org/2000/svg"
   xmlns:svg="http://www.w3.org/2000/svg">
  <defs
     id="defs528" />
  <sodipodi:namedview
     id="namedview526"
     pagecolor="#ffffff"
     bordercolor="#000000"
     borderopacity="0.25"
     inkscape:showpageshadow="2"
     inkscape:pageopacity="0.0"
     inkscape:pagecheckerboard="0"
     inkscape:deskcolor="#d1d1d1"
     showgrid="false" />
  <g
     inkscape:groupmode="layer"
     inkscape:label="Image"
     id="g530"
     transform="translate(-13.474157,-9.3718109)">
    <g
       id="g534"
       inkscape:export-filename="..\all_svg\さ.svg"
       inkscape:export-xdpi="96"
       inkscape:export-ydpi="96">
      <path
         style="fill:#aeaeae"
         d="m 89,217.98646 c -0.825,-0.5406 -5.601873,-2.48086 -6.947034,-3.47452 -2.852663,-2.10724 8.367754,3.01693 9.289995,4.00359 1.368289,1.46385 -6.088646,-2.33266 -8.969535,-3.82242 -4.497256,-2.32563 -11.852239,-10.90668 -15.000344,-17.5009 -3.839796,-8.04308 -4.42908,-19.41476 -1.49572,-28.86361 2.414667,-7.77805 8.030767,-16.0599 11.367613,-16.76339 1.240264,-0.26147 5.56515,-0.99431 9.610858,-1.62851 l 6.59312,-1.1531 -4.09312,-5.11094 c -2.423788,-3.0265 -3.907621,-4.32576 -2.748694,-3.3661 2.011699,1.66581 2.325094,1.65141 6.919203,-0.31785 12.425408,-5.32615 28.906838,-7.87334 52.151448,-8.05995 l 15.17779,-0.12186 5.84754,4.84655 c 3.21615,2.6656 6.96114,5.65296 8.32221,6.63858 l 2.47467,1.79203 -3,-0.57357 c -7.17399,-1.37159 -45.55019,-1.75112 -55.13063,-0.54522 -19.01755,2.39375 -32.819145,7.65233 -41.649209,15.86886 -11.689947,10.87772 -12.799512,24.11618 -3.125784,37.29444 5.547223,7.55683 14.19639,13.24641 31.405623,20.65921 2.03884,0.87822 0.83983,1.08652 -6.5,1.12923 -4.95,0.0288 -9.675,-0.38995 -10.5,-0.93055 z m 42,-2.6343 C 115.69052,213.05284 106.63506,210.37818 96.678724,205.21485 83.340142,198.2975 76,189.221 76,179.64444 c 0,-11.04565 8.615051,-19.06461 26.35534,-24.53178 9.06071,-2.79231 10.68681,-2.6087 3.02477,0.34154 C 89.988692,161.38061 83,169.40538 83,181.15216 c 0,6.84503 3.013581,12.9494 8.318947,16.85101 13.824803,10.16688 46.834173,11.40177 90.566963,3.38816 7.36225,-1.34906 13.54974,-2.28901 13.74998,-2.08877 0.20024,0.20024 -0.14068,2.87739 -0.75759,5.94923 l -1.12166,5.58515 -8.62832,1.58158 c -15.20165,2.78647 -23.30892,3.52213 -37.62832,3.41442 -7.7,-0.0579 -15.125,-0.27427 -16.5,-0.48078 z m 66.75,-60.13692 c -1.86509,-0.38569 -2.07282,-1.53087 -0.84633,-4.66565 0.64782,-1.65576 -0.53355,-2.76189 -7.82029,-7.32221 -12.4875,-7.81516 -21.44116,-14.95354 -31.2575,-24.92033 -8.51917,-8.64972 -24.73266,-27.620101 -24.73266,-29.736731 0,-0.592285 4.79629,-0.878412 8.32792,-1.72341 l 6.42114,-1.53636 4.82886,6.59017 c 11.54268,15.752831 34.96365,37.022131 50.65045,45.997211 l 5.77576,3.30455 -1.71319,2.64876 c -6.22931,9.63113 -7.98715,11.70459 -9.63416,11.364 z M 51.010344,89.75 c -2.289401,-3.9875 -7.244419,-7.7952 -5.301699,-5.745763 0.92829,0.979283 7.425084,-0.148305 8.415084,-0.148305 0.99,0 0.689273,0.708687 0.730024,0.02119 0.04075,-0.6875 -0.389838,1.479853 1.218278,4.971707 1.608116,3.491855 2.673217,6.754355 2.366891,7.25 C 57.05559,98.337104 54.866327,96.466052 51.010344,89.75 Z M 59,90 c -1.979401,-3.921171 -4.75173,-6.386087 -3.925412,-6.395011 0.695417,-0.0075 7.275086,-0.13524 8.406797,-0.439213 1.738462,-0.466943 -0.46453,0.632184 1.722442,5.700746 2.169466,5.027988 2.349252,6.091 1.110557,6.566332 C 63.110689,96.662227 61.914621,95.773832 59,90 Z M 67.373939,88.803593 64.26576,82.5 68.38288,82.26345 72.5,82.0269 l 2.694513,5.98655 c 2.357574,5.237952 2.48262,5.988257 1,6.000205 -0.931982,0.0075 -2.598536,0.256627 -3.703453,0.553593 -1.662496,0.446825 -2.544951,-0.547127 -5.117121,-5.763655 z M 77,87 73.97121,81 h 2.54578 c 1.400179,0 2.805387,-0.676527 3.122686,-1.503393 0.371903,-0.969163 1.734868,0.896419 3.835569,5.25 C 85.26751,88.460973 86.542221,91.8375 86.307937,92.25 86.073653,92.6625 84.565001,93 82.955378,93 80.381636,93 79.663622,92.276606 77,87 Z M 85.786099,85.26898 82.5,78.460878 l 3.75,0.374596 c 2.656959,0.26541 3.764336,-0.02036 3.799183,-0.980439 0.02705,-0.745269 1.631314,1.728202 3.565029,5.496603 1.933715,3.768401 3.374082,6.971204 3.200817,7.11734 -0.173266,0.146136 -1.986284,0.567743 -4.02893,0.936903 l -3.713901,0.671201 z m 9.833514,-2.299801 c -1.88617,-3.948432 -3.011679,-6.761245 -2.501131,-6.250697 1.24157,1.24157 6.879086,0.356361 6.890678,-1.081981 0.005,-0.625076 1.4269,1.904129 3.15971,5.620456 1.7328,3.716326 4.61872,8.070327 4.39338,8.277252 -0.22534,0.206925 -3.51372,-0.456941 -5.28774,-0.07695 -3.193445,0.684023 -3.259573,0.619553 -6.654897,-6.488078 z m 12.667807,3.721096 c -0.41624,-0.654651 -1.75238,-3.321077 -2.96921,-5.925391 l -2.21241,-4.735116 3.1971,-0.846428 c 2.1121,-0.559176 3.32945,-0.479384 3.5871,0.235116 0.2145,0.594849 1.43949,3.179386 2.72219,5.743414 l 2.33218,4.661871 -2.95008,1.028404 c -2.15972,0.752882 -3.15283,0.709515 -3.70687,-0.16187 z m 5.65833,-7.396729 -67.893223,5.392895 70.554193,-12.021467 c 2.2327,-0.380422 0.55365,1.213683 2.86103,5.453104 1.50181,2.759319 2.57252,5.174986 2.37936,5.368149 -0.19317,0.193163 -1.47529,0.632379 -2.84916,0.976036 -2.27129,0.568134 -2.72971,0.09914 -5.0522,-5.168717 z M 126.26259,74.75 c -7.2124,-13.110769 -21.1651,-42.514153 -20.49304,-43.186218 2.30915,-2.309153 4.50886,1.009971 16.83471,25.401828 C 135.43238,82.351412 136.01106,84 132.09378,84 c -0.40846,0 -3.0325,-4.1625 -5.83119,-9.25 z m -1.57553,-18.362844 c -7.03709,-14.087065 -12.65798,-25.731162 -12.49088,-25.875773 0.1671,-0.14461 1.20719,-0.539518 2.31131,-0.877574 1.75344,-0.536859 2.6096,0.744606 6.76518,10.125773 6.5743,14.841413 14.99405,27.484147 16.34669,26.64817 0.70168,-0.433663 -1.59595,-2.25464 -2.09297,-1.450457 -0.43044,0.696471 2.36409,2.451082 2.94736,2.811563 1.51347,0.935377 4.54403,12.393349 3.92484,13.39522 C 142.11445,81.623835 140.89192,82 139.68187,82 137.80536,82 135.5999,78.232821 124.68706,56.387156 Z M 141.83821,73.589457 138.44761,66.5 c 32.92701,-9.142233 82.7586,-23.534334 64.5485,-16.795477 -3.33833,1.235387 -57.15889,16.677112 -54.63345,22.5301 1.42873,3.311271 2.38827,6.359361 2.1323,6.773533 -0.25597,0.414172 -1.54557,0.959527 -2.86577,1.211899 -2.13026,0.407225 -2.78191,-0.338909 -5.79098,-6.630598 z m 8.51007,-1.834651 -3.15173,-6.394085 3.66133,-0.977265 3.66133,-0.977264 2.88983,6.314135 c 1.58941,3.472775 2.67727,6.526694 2.41748,6.786488 -0.25979,0.259793 -3.31496,1.116896 -4.92486,1.43857 -2.77442,0.554361 -1.56603,-0.129965 -4.55338,-6.190579 z m 9.05977,-2.937403 c -1.94197,-3.856234 -3.06252,-6.721891 -2.49012,-6.368125 0.57241,0.353766 1.88956,0.188936 2.927,-0.366288 1.66451,-0.890819 2.19631,-0.279051 4.52354,5.203756 3.16104,7.447193 3.15326,7.343556 0.60098,8.010992 -1.69566,0.443426 -2.61288,-0.625346 -5.5614,-6.480335 z m 6.77815,-2.393991 c -1.78368,-3.617124 -2.85421,-6.336265 -2.37895,-6.042538 0.47526,0.293728 8.02302,-0.586382 9.62589,-1.023595 2.81216,-0.767069 -2.83606,0.178672 -0.1636,5.984156 2.92051,6.344344 2.62165,7.60995 -1.80491,7.643252 -1.51807,0.01142 -2.8596,-1.656147 -5.27843,-6.561275 z m 9.04798,-1.902704 C 172.17457,58.316151 172.11838,58 174.07508,58 c 1.13102,0 5.13237,-0.42163 6.09526,-0.936955 1.47905,-0.791561 -0.0521,0.04726 2.59024,5.405617 l 3.12766,6.342571 -2.35122,0.590119 c -1.29317,0.324565 -3.72955,2.733137 -4.48199,3.021872 -0.91457,0.350953 -1.67123,-3.543306 -3.82085,-7.902516 z m 9.50283,-2.917611 c -1.8311,-3.44837 -9.97715,-3.88576 -9.40178,-3.923954 0.57537,-0.0382 10.91509,-2.7876 12.56754,-3.157813 2.8648,-0.641824 1.73599,-0.408374 4.39924,5.021891 1.53621,3.132253 2.6592,5.799599 2.49554,5.927435 -0.16365,0.127837 -1.74514,0.72063 -3.51442,1.317318 l -3.21686,1.084887 z m 9.36205,-2.719645 -8.57253,-4.10216 8.13587,-2.843038 c 1.5536,-0.542896 8.75236,-1.698044 9.03972,-2.163015 0.28737,-0.464971 -3.30685,2.257116 -0.99563,5.738348 l 4.20222,6.329513 -4.28805,1.461087 -4.28805,1.461086 z m 18.83989,1.852072 c -0.84925,-1.220216 -2.25966,-5.634173 -4.37718,-8.565855 l -4.10428,-4.186263 3.14649,-0.813737 c 2.84764,-0.73645 3.88575,1.719645 8.05027,11.580331 1.56732,3.711086 -0.42099,5.282009 -2.7153,1.985524 z"
         id="path538"
         sodipodi:nodetypes="sssssssscsssscsscssssssssssssssssscssssssssscsscsssssssssssssssscccssssscssssssccsssssccsscsssssscssscsssssssssssssssssssssssssssssssssccsssssssssssssssssssscsssscsssscscssssccccsscssss" />
      <path
         style="fill:#0a0a0a"
         d="M 88,224.97927 C 44.366161,218.9277 8.7738153,195.40857 13.981557,176.06849 c 2.168469,-8.05308 12.224853,-16.2374 27.208351,-22.14334 4.459954,-1.75795 25.953094,-7.75342 35.1782,-9.8129 l 2.868108,-0.64029 -3.618108,-4.33059 C 73.628149,136.75954 72,134.36917 72,133.82943 72,133.28969 70.050605,130.29477 67.668012,127.17404 65.285418,124.05332 60.937692,117.9 58.006399,113.5 c -2.931294,-4.4 -6.600398,-9.47075 -8.153563,-11.26834 -1.553166,-1.79759 -3.127485,-4.497586 -3.498488,-6 C 45.983346,94.729247 43.544429,89.45 40.934533,84.5 35.818554,74.796895 27,53.362893 27,50.631318 27,49.71051 28.0125,48.530543 29.25,48.009168 30.4875,47.487793 45,44.317841 61.5,40.964831 86.729948,35.837784 93.967967,34.076769 96.83102,32.368768 97.013081,32.260157 96.685037,31.280004 96.102034,30.190652 95.325855,28.740348 95.371101,27.936917 96.271013,27.190094 97.785584,25.933175 112.93299,22 116.25905,22 c 1.3342,0 16.27282,-2.953535 33.19694,-6.563411 16.92412,-3.609877 31.38001,-6.3297642 32.12419,-6.0441948 0.74418,0.2855694 3.15518,4.1034578 5.35777,8.4841968 6.13605,12.204002 13.98807,25.162676 18.09849,29.869042 2.03941,2.335098 5.90301,7.639658 8.58579,11.787911 11.08732,17.14382 34.34474,41.608086 60.3471,63.478556 24.28345,20.42471 29.2972,26.35751 30.65673,36.27635 1.2289,8.96585 -6.5531,20.52066 -19.71207,29.26873 -17.68275,11.75547 -51.238,23.06214 -82.91399,27.93843 -5.775,0.88902 -15.9,2.57718 -22.5,3.75147 -9.44156,1.67986 -16.80374,2.18957 -34.53131,2.39075 -12.39222,0.14062 -24.71879,0.7459 -27.39238,1.34507 -6.90966,1.54849 -21.943584,2.05495 -29.57631,0.99637 z m 18,-7.19149 C 88.790767,210.37498 80.1416,204.6854 74.594377,197.12857 64.920649,183.95031 66.030214,170.71185 77.720161,159.83413 86.19169,151.95122 98.098847,147.1666 116,144.45227 c 10.93008,-1.65732 39.36111,-1.91291 51.93891,-0.46693 4.6414,0.5336 8.5635,0.84558 8.71578,0.6933 0.15228,-0.15228 -2.49545,-2.27977 -5.88383,-4.72776 -7.71582,-5.57439 -24.92019,-22.50893 -30.93608,-30.45088 -2.49969,-3.3 -6.9042,-9.518729 -9.7878,-13.819399 -3.96567,-5.914505 -5.64535,-7.663881 -6.89494,-7.181016 C 113.0265,92.412301 82.569434,98.688266 64.75,100.53388 c -3.7125,0.38451 -6.75,0.91016 -6.75,1.1681 0,0.98068 12.561442,19.15093 18.706005,27.05842 3.530338,4.54322 8.914187,10.95572 11.964109,14.25 3.049922,3.29428 5.159342,5.99136 4.687599,5.99352 -3.609426,0.0165 -31.894075,5.393 -39.452782,7.49941 C 33.453964,162.20247 20,171.43973 20,179.78188 c 0,12.46313 22.095471,27.78567 50.795312,35.22502 10.592264,2.74565 18.0928,3.7395 28.704688,3.80348 7.27678,0.0439 8.52133,-0.15193 6.5,-1.0226 z m 75.5,-4.57276 c 6.05,-1.09075 15.05,-2.53633 20,-3.2124 4.95,-0.67608 16.17309,-3.0173 24.9402,-5.20273 32.16642,-8.01831 53.90578,-17.97879 64.90525,-29.73812 C 296.67468,169.3644 298,166.54295 298,160.89506 c 0,-8.098 -4.2451,-13.03832 -29.51325,-34.34661 C 252.8832,113.39018 225.8488,86.568604 217.03325,75.5 c -3.50436,-4.4 -6.69062,-8.372678 -7.08058,-8.828174 -0.38996,-0.455496 -8.07634,1.666269 -17.08084,4.715034 C 175.78157,77.173316 139.02879,88 136.47607,88 c -2.73445,0 -1.50969,2.49363 6.39445,13.0192 10.89601,14.50968 26.2729,29.02934 41.20965,38.91226 6.707,4.4377 12.54062,8.06854 12.96359,8.06854 0.42297,0 0.27236,1.61831 -0.33468,3.59626 -1.08277,3.52797 -1.18067,3.58365 -5.1564,2.93284 -23.93098,-3.91741 -53.31103,-5.49222 -68.15012,-3.65293 -23.741945,2.94278 -40.419257,10.35575 -45.44039,20.19798 -2.575439,5.04828 -2.528629,12.12425 0.116352,17.58805 5.295473,10.93899 24.382248,21.79855 44.421478,25.27392 3.3,0.57231 7.125,1.2379 8.5,1.47909 6.55215,1.1493 40.0059,-0.30821 50.5,-2.20019 z M 58.453128,96.075841 c 0.314139,-0.508287 -2.08788,-6.695787 -5.33782,-13.75 C 38.425233,50.440044 39.324685,52.102332 37.079296,52.689515 35.935683,52.988576 35,53.843466 35,54.58927 c 0,2.461368 9.927449,24.5466 15.085455,33.56006 4.676302,8.171696 6.909005,10.286686 8.367673,7.926511 z m 8.20108,-0.841154 c 0.794944,-0.506004 -2.006446,-7.500473 -9,-22.471073 C 47.460475,50.94262 46.788737,49.992631 42.670317,51.573017 40.895282,52.254162 41.16581,52.928867 53.56714,78.75 c 8.310569,17.303653 9.482112,18.779347 13.087068,16.484687 z m 9.53508,-1.221032 c 1.6665,-0.01347 0.877258,-1.872786 -16.925871,-39.874376 -2.452538,-5.235054 -2.593455,-5.347406 -6.011316,-4.792763 -1.924949,0.312376 -3.67709,0.74514 -3.893647,0.961697 -0.216558,0.216557 4.429759,10.389603 10.325149,22.606768 9.505909,19.699337 10.950733,22.150748 12.767643,21.662678 1.126815,-0.302692 2.808933,-0.556494 3.738042,-0.564004 z M 86.335987,92.25 C 86.585698,91.8375 82.114654,81.832194 76.400333,70.015986 70.686011,58.199778 65.87698,48.130939 65.713596,47.640788 65.34659,46.539771 59,47.832351 59,49.008114 59,49.475176 63.694069,59.564421 69.431265,71.428659 79.589338,92.435053 79.941354,93 82.872248,93 c 1.655345,0 3.214027,-0.3375 3.463739,-0.75 z M 96.769834,90.514173 C 96.995556,90.329714 76.21656,46.070258 75.503572,45.216835 c -0.130113,-0.155741 -2.07978,0.01158 -4.332593,0.371815 l -4.096024,0.654981 1.347982,3.128184 c 0.74139,1.720502 5.709575,12.0295 11.040411,22.908886 l 9.69243,19.780701 3.672111,-0.663361 c 2.019661,-0.364848 3.793536,-0.762589 3.941945,-0.883868 z M 104.75,89.013655 c 0.6875,-0.0075 1.25,-0.435498 1.25,-0.951084 0,-1.224392 -19.813008,-43.275579 -20.903874,-44.366445 -0.459593,-0.459593 -2.437745,-0.535063 -4.395893,-0.167712 l -3.560271,0.667911 3.307156,7.151837 c 1.818936,3.933511 6.760263,14.285855 10.980728,23.005209 6.96698,14.393571 7.876086,15.799068 9.872864,15.263654 1.20961,-0.324343 2.76179,-0.59586 3.44929,-0.60337 z m 2.04789,-20.329653 c -4.41073,-9.451201 -9.103886,-19.580227 -10.429234,-22.508947 -2.338142,-5.166765 -2.505658,-5.304396 -5.63919,-4.633184 -1.776206,0.380468 -3.361213,0.80844 -3.522237,0.951049 -0.275246,0.243768 19.472351,41.633157 21.087321,44.197355 0.5439,0.863575 1.54196,0.914078 3.63626,0.184002 l 2.88659,-1.006273 z M 121.69117,83.64216 C 121.79857,83.534761 117.0745,73.672528 111.19322,61.726088 101.99526,43.042571 100.18538,40.004918 98.25,40.002644 97.0125,40.00119 96,40.328306 96,40.729569 c 0,0.401263 4.6125,10.533734 10.25,22.516601 9.83679,20.908736 10.3507,21.762929 12.74795,21.189147 1.37387,-0.328836 2.58582,-0.685757 2.69322,-0.793157 z m 12.5813,-0.193224 C 135.36571,83.029424 132.58024,76.707247 122.60426,56.96561 110.27841,32.573753 108.0787,29.254629 105.76955,31.563782 104.56239,32.770944 130.28059,84 132.09378,84 c 0.40845,0 1.38887,-0.247979 2.17869,-0.551064 z m 7.94242,-3.660952 c -0.15682,-0.941609 -5.44723,-12.641609 -11.75648,-26 -11.41599,-24.170741 -11.48616,-24.287234 -14.53683,-24.132712 -1.686,0.0854 -3.28231,0.37212 -3.54734,0.637156 -0.26504,0.265036 5.27984,12.024882 12.32194,26.132992 11.95332,23.947218 12.96988,25.63196 15.30382,25.362844 1.72285,-0.198655 2.41137,-0.820458 2.21489,-2.00028 z m 8.33151,-0.863065 c 0.28427,-0.459952 -4.04632,-10.643721 -9.62352,-22.630598 -5.5772,-11.986876 -10.8502,-23.521316 -11.71779,-25.632088 -1.44223,-3.508859 -1.83375,-3.786501 -4.56834,-3.239583 -1.645,0.329001 -3.20845,0.815721 -3.47433,1.081601 -0.26588,0.26588 2.78693,7.348693 6.78403,15.739584 3.99709,8.390891 9.50889,20.023698 12.24844,25.850682 4.56298,9.705407 5.18466,10.555584 7.40783,10.130598 1.33476,-0.255156 2.65942,-0.840244 2.94368,-1.300196 z m 9.2846,-2.422585 c 1.14882,-1.148822 -23.36151,-51.52685 -25.00884,-51.402654 -0.72719,0.05482 -2.31975,0.392324 -3.53902,0.75 -2.13174,0.62535 -1.77402,1.59102 9.31641,25.15032 6.3433,13.475 11.79315,25.105798 12.11077,25.846218 0.53525,1.247725 5.78248,0.994317 7.12068,-0.343884 z m 7.12792,-2.868965 C 166.93633,73.010016 161.82885,61.7 155.60896,48.5 144.58715,25.109223 144.22012,24.492046 141.15004,24.186642 139.41752,24.014294 138,24.103543 138,24.384971 c 0,0.281428 5.57753,11.980226 12.3945,25.997328 11.13863,22.90332 12.60784,25.42985 14.5,24.935039 1.15803,-0.302831 2.08702,-1.060617 2.06442,-1.683969 z m 7.94118,-1.550465 c 2.03259,-1.286931 -21.93704,-50.090048 -24.59068,-50.067591 -5.23346,0.04429 -4.98205,0.966523 7.19177,26.381421 9.90132,20.670683 12.1218,24.600818 13.89192,24.587953 1.15879,-0.0084 2.73693,-0.414224 3.50699,-0.901783 z m 7.79233,-2.408982 3.19242,-1.173922 -12.23107,-24 -12.23108,-24 -3.28329,0.155272 c -1.80581,0.0854 -3.5001,0.372088 -3.7651,0.637085 -0.5541,0.554102 23.84444,49.746807 24.6162,49.631565 0.28022,-0.04184 1.94608,-0.604343 3.70192,-1.25 z m 12.17281,-4.270951 c 0.20088,-0.165063 -5.19912,-10.930301 -12,-23.922752 L 170.5,17.857582 l -3.3739,0.528445 c -1.85565,0.290645 -3.5702,0.724736 -3.81011,0.964647 -0.23991,0.239912 2.35347,5.771655 5.76307,12.292764 3.4096,6.521109 9.07236,17.34192 12.58391,24.046246 l 6.38463,12.189685 3.2262,-1.088142 c 1.77441,-0.598477 3.39056,-1.223192 3.59144,-1.388256 z m 3.11912,-15.744259 c -4.29664,-6.722456 -10.38447,-17.082913 -13.52851,-23.023238 -4.98843,-9.425092 -5.98639,-10.728139 -7.83614,-10.231688 -1.16584,0.312898 -2.72105,0.575049 -3.45602,0.582559 -0.86021,0.0088 0.41959,3.309202 3.59216,9.263655 2.71065,5.0875 8.43862,15.838336 12.72881,23.890746 l 7.80035,14.640745 4.25571,-1.450066 4.25571,-1.450067 z"
         id="path536" />
    </g>
  </g>
</svg>
