<?xml version="1.0" encoding="UTF-8" standalone="no"?>
<!-- Created with Inkscape (http://www.inkscape.org/) -->

<svg
   version="1.1"
   id="svg254"
   width="250.27594"
   height="211.99026"
   viewBox="0 0 250.27594 211.99026"
   sodipodi:docname="な.png"
   xmlns:inkscape="http://www.inkscape.org/namespaces/inkscape"
   xmlns:sodipodi="http://sodipodi.sourceforge.net/DTD/sodipodi-0.dtd"
   xmlns="http://www.w3.org/2000/svg"
   xmlns:svg="http://www.w3.org/2000/svg">
  <defs
     id="defs258" />
  <sodipodi:namedview
     id="namedview256"
     pagecolor="#ffffff"
     bordercolor="#000000"
     borderopacity="0.25"
     inkscape:showpageshadow="2"
     inkscape:pageopacity="0.0"
     inkscape:pagecheckerboard="0"
     inkscape:deskcolor="#d1d1d1"
     showgrid="false" />
  <g
     inkscape:groupmode="layer"
     inkscape:label="Image"
     id="g260"
     transform="translate(-8.9722528,-10.873126)">
    <g
       id="g264"
       inkscape:export-filename="..\all_svg\g264.svg"
       inkscape:export-xdpi="96"
       inkscape:export-ydpi="96">
      <path
         style="fill:#b2b2b2"
         d="m 124.5,221.49068 c -2.75,-0.79866 -6.08914,-1.04253 -7.25,-1.47139 -7.669,-2.83321 -2.57133,-1.78921 1.52046,-2.48051 6.51663,-1.10098 6.73578,-1.5256 4.34808,-8.42504 -2.50204,-7.22985 -2.55915,-7.7243 -0.71546,-6.19417 2.48162,2.05956 7.90609,3.14518 15.77387,3.15689 15.30708,0.0228 22.52221,-6.29278 24.35184,-21.31572 l 0.69897,-5.73927 2.97923,1.73927 c 1.63857,0.95659 4.51233,3.42806 6.38612,5.49214 2.6817,2.95404 3.40689,4.60371 3.40689,7.75 0,3.44412 0.31128,4.01317 2.25,4.11312 1.64207,0.0847 0.44582,-1.46762 -0.80787,-1.13838 -0.94481,0.24812 -2.44421,5.26497 -4.96983,9.06404 -5.0648,7.61855 -7.5764,9.7432 -16.16672,13.67598 -4.89101,2.23918 -7.43349,2.69761 -16.30023,2.93906 -7.00938,0.19088 -12.16925,-0.19715 -15.50535,-1.16602 z M 102.79785,209.79573 C 96.86313,202.00098 95.51479,198.06254 95.507171,188.5 c -0.0061,-7.69727 0.376708,-9.79612 2.644879,-14.5 7.02047,-14.55953 21.037,-21.56123 41.68708,-20.82402 l 9.07612,0.32402 3.42789,0.77648 c 2.25843,0.51158 -2.62572,-5.78066 -2.50318,-2.52648 L 150,156 h 4.2899 c 9.52673,0 21.66491,4.76449 29.62115,11.62692 C 187.81952,170.99806 198,185.0134 198,187.02299 c 0,1.16407 8.46816,5.38758 2.96923,2.7117 -3.46229,-1.68481 -24.8843,-10.19433 -25.1758,-9.34288 -0.24608,0.71877 3.9242,2.22492 2.2369,0.31462 -7.25699,-8.2163 -24.61919,-14.48944 -36.99969,-13.36837 -12.75259,1.15477 -19.76298,4.94728 -24.71378,13.36978 -2.52552,4.29651 -2.81686,5.72302 -2.81686,13.79216 0,4.95 0.3794,10.64388 0.84311,12.65306 0.91465,3.96309 3.25567,5.64496 -3.62492,7.02352 -2.67518,0.53598 -5.75244,-1.5335 -7.92034,-4.38085 z M 216,199.66166 c -2.475,-1.7895 -7.0942,-4.86307 -10.26489,-6.83016 l -5.7649,-3.57652 3.0149,-1.24881 C 204.6433,187.31932 206,186.51084 206,186.20954 c 0,-0.95369 -7.62866,-10.65919 -9.23355,-12.48496 -0.84606,-0.9625 -2.99476,-4.18644 -2.54148,-4.18644 1.15635,0 13.55581,6.59832 25.00351,13.7046 l 9.72848,6.03907 -2.72848,4.86043 C 220.98159,203.4889 221.1601,203.39258 216,199.66166 Z M 56.012549,176.51886 c -1.368099,-0.73886 -2.849978,-1.11933 -3.293066,-0.84549 -0.443087,0.27384 4.501266,-6.64579 10.987452,-15.37696 6.486186,-8.73117 12.586422,-18.18818 13.55608,-19.54161 0.969658,-1.35343 -0.309497,2.98165 -2.842566,8.15953 -4.739936,9.68896 -14.124909,27.05799 -15.273343,28.26679 -0.355908,0.37462 -1.766459,0.0766 -3.134557,-0.66226 z m -10.797461,-6.7597 c -1.094706,-0.72391 0.334662,-3.8182 4.924806,-11.79238 C 56.150459,147.525 73.254657,113.08417 76.196239,105.5 c 0.853289,-2.2 1.996323,-5.8 2.540076,-8 0.543753,-2.2 1.323671,-4.7875 1.733152,-5.75 0.580299,-1.364014 2.550457,-7.04193 0.713334,-7.173805 -1.296344,-0.09306 0.348176,2.655612 5.023176,2.317939 4.675,-0.337673 9.971174,1.659293 10.116482,1.731163 0.145307,0.07187 -4.159409,5.870894 -6.662612,12.142253 C 81.439325,121.3627 74.654486,132.56719 60.897855,151.5 45.475225,172.72567 51.246659,173.74771 45.215088,169.75916 Z M 176.5161,153.78901 c -1.09114,-0.6326 -4.46614,-1.91796 -7.5,-2.85636 L 163.5,149.22647 163.23222,125.11323 162.96444,101 H 171.48222 180 v 27 c 0,14.85 -0.3375,26.98632 -0.75,26.96959 -0.4125,-0.0167 -1.64275,-0.54799 -2.7339,-1.18058 z M 214.5,89.537778 c -7.15,-0.588747 -12.33633,-1.32182 -11.52518,-1.629053 1.42672,-0.540388 -16.40063,-10.554796 -29.29189,-16.454544 -6.61387,-3.026866 -6.61144,-2.985705 -0.64411,-10.889372 l 4.0995,-5.429749 8.18084,3.498464 c 17.15853,7.337693 54.64474,26.906198 54.67031,28.538924 0.0124,0.794713 -5.24047,2.476934 -9.48947,3.03896 -1.65,0.21825 -8.85,-0.08488 -16,-0.67363 z M 85.487859,80.038254 86.194143,77.81295 73.847071,78.433775 c -6.790889,0.341454 -15.094452,0.862384 -18.452362,1.157622 l -6.10529,0.536797 -0.64471,-4.703668 C 48.290119,72.837508 48,68.829706 48,66.518299 V 62.31574 l 19.25,-1.220417 c 29.292979,-1.857124 25.961379,-0.456271 30.843522,-12.968922 2.280398,-5.84452 4.204738,-11.858536 4.276328,-13.364478 l 0.13015,-2.738077 1.64931,2.180318 C 106.9334,37.884619 108,43.296906 108,53.743896 c 0,10.475022 -1.02062,14.470988 -4.9823,19.506811 -2.79307,3.550375 -9.430124,7.672744 -14.376913,8.306583 -5.899329,0.755889 -4.343857,2.23325 -3.152928,-1.519036 z m 27.474381,-8.964242 c 1.96526,-1.419078 -0.93771,-6.020335 0.0777,-8.825103 l 2.15763,-5.959831 12.16806,-1.14268 c 17.55968,-1.648996 24.65933,-3.285797 23.94541,-4.53822 -0.34743,-0.609498 -0.0156,0.447886 0.43971,0.860807 0.45526,0.41292 0.62127,4.029627 0.66668,9.52606 0.0454,5.496434 -0.0404,9.627151 -0.19072,9.179371 -0.15031,-0.447779 -8.6751,0.616119 -19,1.962091 -29.79287,3.883852 -27.58575,4.224057 -20.26447,-1.062495 z m 0.11978,-35.621505 c -1.10637,-2.501122 -3.78018,-4.554499 -4.89955,-5.97755 -2.58572,-3.287213 -3.50582,0.356232 0.92615,-9.885942 3.34036,-10.8017554 1.23841,-9.066662 4.89138,-7.694274 0,0.659423 10.47393,2.490122 13.16667,3.575771 1.18786,0.478917 2.02013,-0.236931 1.0511,1.529488 -0.51973,0.947405 -2.33835,4.96212 -5.18268,15.460868 -1.60356,5.918933 -1.56201,10.584683 -4.63616,10.584683 -1.80442,0 -3.7596,-4.072474 -5.31691,-7.593044 z"
         id="path268"
         sodipodi:nodetypes="ssssssscssssssssssssscsscssssscsssssssscssssscsssssssssssssssssssssscccccssssssscssssscsscsscssscssssssscsssssssssccsssss" />
      <path
         style="fill:#060606"
         d="m 60.734467,221.91195 c -5.094639,-1.20028 -11.627515,-4.5681 -15.07605,-7.77197 -7.934333,-7.37142 -9.235611,-18.35612 -3.871858,-32.68418 2.387202,-6.37687 5.745606,-11.76592 16.202961,-26 C 71.789685,136.67163 77.362768,127.88747 82.078246,117.48771 84.370373,112.43253 94.000728,89.12296 93.99973,88.632628 93.999582,88.559683 80.162082,88.5 63.24973,88.5 H 32.5 L 26.839456,85.720218 C 20.593012,82.652712 15.276774,77.363486 11.838077,70.79506 8.7318553,64.861712 7.9541896,46.664718 10.481647,39.055257 13.127846,31.088298 18.788603,24.7219 26.683433,20.83384 L 33.452902,17.5 h 28.023549 c 27.867393,0 32.092,0.409091 39.319419,3.80751 4.06349,1.910703 9.41698,7.915725 11.90838,13.357666 l 2.42566,5.298335 7.18504,-0.548001 c 6.57778,-0.501684 25.88771,1.458201 29.73877,3.018371 1.10213,0.446507 2.79656,-1.086125 5.82989,-5.273227 5.84589,-8.069431 13.20488,-13.148623 21.23231,-14.654578 4.70776,-0.883181 52.05387,3.176693 58.38408,5.006368 10.31697,2.982004 19.36065,13.065586 21.37146,23.828891 0.50067,2.67997 0.50259,8.381745 0.004,13.296049 -1.52509,15.046331 -7.52319,24.540066 -18.66329,29.540086 -2.59196,1.163349 -5.73997,2.583306 -6.99558,3.155459 -1.60251,0.730228 -4.88102,0.688519 -11,-0.139942 -7.97689,-1.080008 -24.76147,-2.51511 -41.24648,-3.526625 C 170.02184,92.99455 160.60762,86.730938 155.16953,76.5 152.80485,72.051203 152.50143,70.342473 152.41721,61 l -0.0947,-10.5 -5.41128,-1.920819 c -5.67607,-2.014813 -22.73009,-2.833021 -28.02421,-1.344529 -2.52724,0.710557 -2.6289,1.038537 -3.0996,10 -0.53398,10.166323 -2.6016,15.735371 -7.92381,21.342414 -1.85276,1.951911 -5.46141,9.346846 -9.868916,20.223616 C 85.794819,128.90742 81.245562,136.93216 61.183542,163.7344 48.073733,181.2487 45,187.56839 45,197.00829 c 0,14.28167 12.284965,20.96391 36,19.58171 9.785979,-0.57036 32.25156,-4.50823 33.63987,-5.89654 0.33927,-0.33927 0.10909,-2.63335 -0.51151,-5.09797 -1.50405,-5.97311 -1.35756,-16.20723 0.29839,-20.84752 3.3169,-9.29456 10.76196,-14.92929 22.35171,-16.91671 21.22953,-3.64046 46.14404,9.68827 46.20509,24.71874 0.0195,4.79459 -1.19943,6.32255 -4.53504,5.68491 C 176.35156,197.83405 176,197.20968 176,193.8863 c 0,-5.2339 -5.10555,-10.82834 -13.77875,-15.09814 -5.74857,-2.83002 -7.78416,-3.28024 -16.39436,-3.62607 -8.99541,-0.36131 -10.27681,-0.17481 -15.07886,2.1946 -7.85979,3.87814 -10.27144,8.05026 -10.15712,17.57166 0.0619,5.15637 0.81746,9.60289 2.36855,13.93937 1.69134,4.7286 1.97159,6.55686 1.08875,7.10249 -1.60456,0.99167 -14.32167,3.61945 -26.591861,5.49477 -10.799606,1.65056 -30.590733,1.89145 -36.721882,0.44697 z M 237.73165,88.351778 c 5.42813,-1.928192 11.59091,-8.860558 13.29838,-14.95902 0.71256,-2.545039 1.33481,-8.962061 1.38277,-14.26005 0.0736,-8.125988 -0.25788,-10.277805 -2.11895,-13.756917 C 247.79933,40.712503 243.03991,36.342229 238.28666,34.35036 234.98411,32.966411 194.70352,29 183.95148,29 c -10.90954,0 -20.26672,7.029569 -23.03326,17.303699 -0.59172,2.197504 -1.15289,8.31565 -1.24704,13.595881 -0.18916,10.608945 1.3198,14.979175 6.98724,20.236258 5.9239,5.494984 8.36829,6.074053 35.34158,8.372316 26.75246,2.279446 28.90093,2.270044 35.73165,-0.156376 z M 91.224744,80.954393 C 96.63657,79.451395 103.00721,74.17073 105.64662,69 c 1.95196,-3.823976 2.30127,-6.059961 2.32521,-14.88398 0.0358,-13.202803 -1.23024,-17.424563 -6.94752,-23.167006 C 94.275665,24.170666 92.184803,23.826175 59.998277,24.189552 32.794031,24.49668 32.452382,24.526732 28.046696,27 18.493041,32.363239 14.162898,42.520559 15.36319,56.751999 c 0.72882,8.641353 2.612611,13.561648 6.937491,18.120113 6.428505,6.775703 8.07673,7.082069 38.199319,7.100349 15.587546,0.0095 28.574388,-0.420861 30.724744,-1.018068 z M 195.3818,182.25 C 186.16222,166.21823 170.16654,156 154.2899,156 H 150 v -4 c 0,-4.48483 -0.49814,-4.32798 9.58324,-3.01748 13.67023,1.77702 19.10305,4.8026 33.6952,18.76512 4.9413,4.72809 13.69785,17.71598 12.58653,18.6686 -0.9456,0.81056 -4.83507,2.58376 -5.66742,2.58376 -0.51367,0 -2.68075,-3.0375 -4.81575,-6.75 z"
         id="path266"
         inkscape:export-filename="..\all_svg\な.svg"
         inkscape:export-xdpi="96"
         inkscape:export-ydpi="96" />
    </g>
  </g>
</svg>
