<?xml version="1.0" encoding="UTF-8" standalone="no"?>
<!-- Created with Inkscape (http://www.inkscape.org/) -->

<svg
   version="1.1"
   id="svg1346"
   width="292.59802"
   height="349.76471"
   viewBox="0 0 292.59802 349.76471"
   sodipodi:docname="ま.png"
   xmlns:inkscape="http://www.inkscape.org/namespaces/inkscape"
   xmlns:sodipodi="http://sodipodi.sourceforge.net/DTD/sodipodi-0.dtd"
   xmlns="http://www.w3.org/2000/svg"
   xmlns:svg="http://www.w3.org/2000/svg">
  <defs
     id="defs1350" />
  <sodipodi:namedview
     id="namedview1348"
     pagecolor="#ffffff"
     bordercolor="#000000"
     borderopacity="0.25"
     inkscape:showpageshadow="2"
     inkscape:pageopacity="0.0"
     inkscape:pagecheckerboard="0"
     inkscape:deskcolor="#d1d1d1"
     showgrid="false" />
  <g
     inkscape:groupmode="layer"
     inkscape:label="Image"
     id="g1352"
     transform="translate(-8.678298,-13.333804)">
    <g
       id="g1356"
       inkscape:export-filename="..\all_svg\ま.svg"
       inkscape:export-xdpi="96"
       inkscape:export-ydpi="96">
      <path
         style="fill:#afafaf"
         d="m 120.16934,332.74716 c -3.89499,-1.75277 0.17992,-21.66891 1.4328,-24.96434 8.83656,-9.72799 1.5838,-7.02204 0.85983,-1.80247 -0.0421,0.71996 6.5602,-5.39759 1.59916,3.06188 -2.47814,4.22569 -3.64777,12.58799 -2.1785,18.18595 1.51125,5.75793 5.36123,8.70255 1.14056,6.80323 z m -9.78823,-15.20545 c 1.0428,8.37004 -3.54732,-2.00078 -3.06221,-2.58669 0.47438,-0.57294 3.79191,-15.00534 6.57957,-18.53185 3.8436,-4.86233 10.8477,-9.97972 18.08191,-12.18016 6.11885,-1.86118 20.55528,-2.28101 30.76962,-0.89482 l 6.25,0.84818 v -11.57659 -11.57659 l -18.75,-0.33561 -18.75,-0.3356 20.66816,0.064 c 11.36748,0.0352 20.90826,0.30478 21.20171,0.59906 0.29346,0.29428 0.21753,7.49428 -0.16873,16 -0.5055,11.13132 -1.03659,15.40017 -1.89528,15.23376 -5.35938,-1.03858 -21.8173,-1.23274 -29.12968,-0.34364 -14.53075,1.76677 -20.05522,8.82034 -25.31395,18.92816 -2.19485,4.21872 -2.32596,3.40976 -2.37607,10.71195 -0.0327,4.75998 2.59546,16.87493 4.94454,19.48196 0.56311,0.62495 -11.68746,-10.72003 -10.54787,-7.45175 0.43393,1.24449 0.0497,-27.6806 1.06945,-19.49577 z M 232.8389,327.60633 C 229.17529,325.34785 221.75396,320.35 216.34704,316.5 205.51051,308.78384 193.99427,301.23473 189.764,299.07431 c -2.49902,-1.27625 -2.68184,-1.7514 -2.11084,-5.48579 0.34384,-2.24869 -1.90502,-4.81228 -1.79106,-4.95694 0.9044,-1.14807 35.71537,16.31308 47.54702,23.14682 7.14621,4.12752 10.08092,5.38822 10.41146,4.04276 0.22129,-0.90072 -2.3331,-0.82116 -2.59444,4.67884 -0.26131,5.5 -0.7566,10.27285 -1.10064,10.60633 -0.34404,0.33348 -3.62303,-1.24152 -7.28663,-3.5 z m -57.97705,1.97911 c -0.825,-0.29876 -0.61091,-1.16117 -4.58199,-2.78847 l -7.22013,-2.95874 c 2.35473,-2.46466 3.16373,-9.2693 4.18783,-12.36156 1.7911,-5.28138 0.45032,0.8425 2.73876,1.71049 1.36748,0.51867 3.2975,1.81374 4.28895,2.87794 1.11774,1.19975 3.12957,1.9349 5.29507,1.9349 4.50078,0 3.78434,-9.48111 1.18618,7.35057 -0.41252,2.67245 -3.52751,8.82255 -1.21266,9.13966 0.92443,0.12664 -2.57724,-4.14259 -4.68201,-4.90479 z m -52.23141,-77.64581 c -7.72747,-0.89711 -16.25461,-2.75197 -18.88044,-4.10696 -1.50449,-0.77635 -1.75,-2.43304 -1.75,-11.80884 0,-5.99819 0.3375,-11.11588 0.75,-11.37265 0.4125,-0.25677 -7.206993,16.56107 -2.57058,16.44953 l 2.6726,-0.0643 22.82399,-0.55021 c 12.55319,-0.30262 27.43649,-0.80411 33.07399,-1.11444 L 169,238.80754 V 228.90377 219 l 3.51026,-1.92638 3.08218,1.92638 -0.31468,9.75 c -0.17307,5.3625 -0.56977,13.0125 -0.88154,17 l -0.56686,7.25 -22.16468,-0.13143 c -12.19057,-0.0723 -25.25598,-0.4903 -29.03424,-0.92894 z m 66.73364,-3.5792 c 0.34975,-2.55177 -2.28932,-6.08785 -2.28932,-7.33476 0,-2.1524 3.39323,-1.86734 12.17524,-2.39873 5.0875,-0.30785 17.6875,-0.79338 28,-1.07897 L 246,237.02871 v 2.92054 c 0,1.6063 -0.15453,8.18855 0.21889,9.58235 0.81745,3.05118 1.3803,-1.68319 -4.03653,-0.17351 -8.46904,2.36034 -21.88703,3.62451 -38.56828,3.63371 l -14.88593,0.008 0.63593,-4.63957 z M 92.491679,213.20189 c -0.745545,-1.8513 -1.00348,-12.02342 -0.322156,-12.70475 0.230738,-0.23073 16.599487,-0.70432 36.374997,-1.0524 24.11616,-0.42449 36.77867,-1.01832 38.45548,-1.80343 l 2.5,-0.24302 0.17745,-16.75703 c 0.0922,-8.70628 0.42733,-16.07937 0.73273,-16.38477 0.30539,-0.3054 2.49677,-0.43714 4.43215,-0.51319 l 4.3763,-0.17195 -0.49398,16.35617 c -0.25756,8.5283 -2.26956,18.39748 -2.60846,23.07248 l -0.61619,8.5 -28.85731,1.57908 c -15.92862,0.87162 -27.17406,0.60665 -27.90725,1.07497 -0.73319,0.46831 -8.77436,0.22035 -14.72998,0.40819 -9.458048,0.29831 -10.915143,0.12616 -11.513781,-1.36035 z M 191,205.69113 c 0,-4.25123 -5.76516,-5.51502 -4.70441,-6.82305 0.86578,-1.06762 8.64678,-0.97838 7.2668,-0.98683 -1.25943,-0.008 3.13595,0.19384 22.56882,-0.39045 12.85283,-0.38644 27.11122,-1.01356 31.6853,-1.3936 4.71172,-0.39147 8.55859,-0.29929 8.875,0.21267 0.78055,1.26295 0.70091,11.63104 -0.0954,12.42741 -0.35967,0.35967 -1.42842,0.80535 -2.375,0.99041 -2.97666,0.58194 -40.2103,2.17624 -51.97106,2.22534 L 191,212 Z"
         id="path1360"
         sodipodi:nodetypes="sccsssssssscccccsssssssssssssssssssssssscccsssssscssscsscccccsscsscssscsssccccsssscssscsscssssssssssssscss" />
      <path
         style="fill:#040404"
         d="m 265.5,360.85676 -9,-2.90013 -25.17435,1.20812 c -23.62939,1.13397 -25.62393,1.09313 -32.5,-0.66551 -6.4973,-1.66177 -11.56595,-1.88029 -44.82565,-1.9326 -29.81851,-0.0469 -40.44085,0.29871 -51.85681,1.68719 -19.157429,2.33005 -91.187518,2.60261 -93.0552627,0.35212 C 7.687588,356.91864 10.104728,354 12.902449,354 c 0.967775,0 2.368172,-1.13714 3.111992,-2.52698 0.743821,-1.38984 2.282361,-2.7113 3.41898,-2.93656 1.136618,-0.22527 14.252528,-0.66728 29.146466,-0.98227 27.69042,-0.5856 46.000558,-1.84729 52.670113,-3.62932 l 3.75,-1.00196 -0.018,-5.71145 c -0.0313,-9.91418 -6.760879,-83.57044 -7.927518,-86.76797 -0.67266,-1.84362 -1.00393,-8.34912 -0.834815,-16.39411 0.275434,-13.10267 0.326812,-13.37224 2.916816,-15.30396 1.450047,-1.0815 6.175047,-2.8735 10.499997,-3.98223 6.61797,-1.69656 12.45717,-2.11466 36.86356,-2.63953 l 29,-0.62366 0.72947,-12.5 c 0.40121,-6.875 1.22116,-20.15 1.82213,-29.5 0.60096,-9.35 2.34756,-47.02089 3.88133,-83.713083 2.98234,-71.34622 2.90425,-70.648301 8.08939,-72.294002 2.65524,-0.842739 6.76025,1.792608 7.5224,4.829249 0.31706,1.263276 -0.98219,40.970084 -2.88723,88.237346 -1.90504,47.26727 -3.52358,90.32799 -3.59676,95.69049 l -0.13306,9.75 h 15.3124 c 17.73196,0 29.49127,1.221 39.00833,4.05035 6.06423,1.80285 6.90064,2.3706 8.25,5.60007 2.04584,4.89638 2.08019,24.97226 0.0506,29.56565 -1.44768,3.27638 -3.69538,33.60147 -5.13753,69.31361 -0.52297,12.95041 -0.38454,16.23825 0.72061,17.1154 2.16215,1.71609 14.57553,6.39716 23.86793,9.00056 4.675,1.30977 10.68918,3.05032 13.36483,3.86788 2.67566,0.81757 6.28804,1.48648 8.0275,1.48648 4.37316,0 8.12276,2.67442 6.49665,4.63377 -0.9871,1.18938 -3.17688,1.3289 -12.04767,0.76758 C 278.45956,356.74443 278,356.79959 278,358.70269 c 0,1.09303 -0.7875,2.67738 -1.75,3.52077 -1.58444,1.38837 -2.60143,1.25907 -10.75,-1.3667 z M 185,348.125 c 0,-0.48125 0.28378,-2.29388 0.63061,-4.02806 l 0.63061,-3.15306 -5.88061,2.43446 c -3.23433,1.33895 -7.68061,3.12839 -9.88061,3.97653 l -4,1.54207 9.25,0.0515 c 5.0875,0.0283 9.25,-0.34222 9.25,-0.82347 z m 49.16623,-0.91954 c -6.64748,-4.85781 -16.78126,-13.73064 -26.18345,-22.92544 -5.78448,-5.65688 -12.87198,-11.87102 -15.75,-13.8092 L 187,306.94687 v 2.50624 c 0,1.94434 0.95286,2.98866 4.25,4.65792 7.99859,4.04951 14.52628,8.93465 15.6887,11.74098 0.95163,2.29744 0.83597,3.6071 -0.63822,7.22696 -2.88898,7.09381 -3.67165,7.94782 -7.85793,8.57408 -4.18309,0.6258 -6.44255,2.56805 -6.44255,5.53808 0,1.6923 1.43392,1.806 22.25,1.76433 21.22046,-0.0425 22.14201,-0.12345 19.91623,-1.75 z M 115.1365,339.72913 c 1.5041,-0.53239 1.48886,-1.11169 -0.18842,-7.16048 -4.61692,-16.65002 1.45286,-32.64907 14.40516,-37.96994 7.41166,-3.04475 31.39159,-4.3765 41.95262,-2.3299 0.85869,0.16641 1.38978,-4.10244 1.89528,-15.23376 0.38626,-8.50572 0.46161,-15.70564 0.16744,-15.99981 -0.29417,-0.29417 -12.98495,-0.84201 -28.20172,-1.21743 -18.32835,-0.45218 -29.78877,-1.17243 -33.95335,-2.13385 l -6.2865,-1.45127 0.56781,5.63365 c 0.9255,9.18263 5.30643,59.87119 6.0394,69.87737 0.37241,5.08404 0.96706,9.09093 1.32144,8.90419 0.35439,-0.18673 1.38076,-0.60018 2.28084,-0.91877 z m 83.89305,-7.80048 c 1.12117,-2.70673 1.04654,-3.29494 -0.62868,-4.95484 C 195.12158,323.7245 183.04298,318 179.46629,318 c -2.09512,0 -4.0961,-0.75965 -5.24264,-1.99032 -2.18298,-2.34315 -11.43022,-5.70289 -18.14992,-6.59429 -4.5913,-0.60906 -4.78352,-0.53024 -6.02682,2.47136 -1.1793,2.84707 -1.09067,3.25847 1.08442,5.03365 5.58952,4.56184 24.53153,12.73402 37.36867,16.12202 9.19206,2.42599 9.05744,2.44023 10.52955,-1.11377 z M 122.6317,324.75 c -0.0332,-9.20349 1.93504,-14.46251 7.67227,-20.5 3.66039,-3.85197 2.70061,-4.25361 -1.85721,-0.77719 -4.7687,3.63727 -7.5098,10.03775 -7.56647,17.66777 -0.0402,5.416 0.80672,11.85942 1.55884,11.85942 0.12228,0 0.20893,-3.7125 0.19257,-8.25 z m 13.7112,2.64358 c 4.69706,-4.63071 6.3722,-8.08768 5.28805,-10.91293 -0.32161,-0.8381 0.32135,-3.82262 1.42881,-6.63225 1.10745,-2.80963 1.74806,-5.37392 1.42357,-5.69841 -0.32449,-0.32449 -2.53829,0.4436 -4.91955,1.70685 C 133.1883,309.23903 130,315.58259 130,324.88533 130,328.7984 130.37586,332 130.83524,332 c 0.45938,0 2.93783,-2.07289 5.50766,-4.60642 z M 242.37904,305 c 0.93322,-14.025 1.97121,-30.74388 2.30664,-37.15307 l 0.60988,-11.65307 -5.89778,1.48521 c -3.88098,0.97733 -13.48128,1.67171 -28.07441,2.03059 l -22.17663,0.54537 -0.56206,7.12249 c -0.30914,3.91736 -0.68232,12.39272 -0.82929,18.83413 -0.26494,11.6117 -0.24584,11.72252 2.23869,12.9858 3.99131,2.02941 15.69768,9.71545 26.35296,17.30255 12.68548,9.0327 22.995,15.37467 23.7441,14.60633 0.32512,-0.33348 1.35468,-12.08133 2.2879,-26.10633 z m -67.98282,-59.25 c 0.31177,-3.9875 0.71064,-11.68723 0.88637,-17.1105 l 0.31951,-9.86051 -27.55105,0.5082 c -20.76146,0.38297 -29.39526,0.9252 -35.03456,2.2003 C 101.43219,224.1068 102,223.3588 102,236 c 0,12.33018 -0.30082,11.84433 8.63044,13.93891 9.08396,2.1304 18.39898,2.79545 41.03424,2.92966 L 173.82936,253 Z M 227.5,251.96268 c 4.95,-0.5615 11.5875,-1.7421 14.75,-2.62357 L 248,247.73645 V 236 224.26355 l -5.75,-1.59065 C 233.36976,220.21632 220.95991,219 204.77623,219 H 190 v 12.36043 c 0,6.79823 -0.28617,14.44823 -0.63592,17 L 188.72815,253 l 14.88593,-0.008 c 8.18725,-0.005 18.93592,-0.46762 23.88592,-1.02912 z"
         id="path1358" />
    </g>
  </g>
</svg>
