<?xml version="1.0" encoding="UTF-8" standalone="no"?>
<!-- Created with Inkscape (http://www.inkscape.org/) -->

<svg
   version="1.1"
   id="svg517"
   width="294.57034"
   height="283.34695"
   viewBox="0 0 294.57034 283.34695"
   sodipodi:docname="る.png"
   xmlns:inkscape="http://www.inkscape.org/namespaces/inkscape"
   xmlns:sodipodi="http://sodipodi.sourceforge.net/DTD/sodipodi-0.dtd"
   xmlns="http://www.w3.org/2000/svg"
   xmlns:svg="http://www.w3.org/2000/svg">
  <defs
     id="defs521" />
  <sodipodi:namedview
     id="namedview519"
     pagecolor="#ffffff"
     bordercolor="#000000"
     borderopacity="0.25"
     inkscape:showpageshadow="2"
     inkscape:pageopacity="0.0"
     inkscape:pagecheckerboard="0"
     inkscape:deskcolor="#d1d1d1"
     showgrid="false" />
  <g
     inkscape:groupmode="layer"
     inkscape:label="Image"
     id="g523"
     transform="translate(-15.321239,-14.56867)">
    <g
       id="g527">
      <path
         style="fill:#afafaf"
         d="m 152.85105,205.55687 c -9.05837,-1.98549 -19.88531,-11.01892 -23.96064,-19.99149 -1.02388,-2.25426 -1.83672,-6.29287 -1.82456,-9.06538 l 0.0219,-5 1.38451,3.88452 c 3.39025,9.51199 14.04263,15.83189 29.82182,17.69283 12.92131,1.52389 13.11458,1.42365 10.713,-5.55667 -3.24892,-9.44314 -8.22199,-17.7433 -14.54185,-24.27068 -3.32822,-3.4375 -5.58194,-6.2456 -5.00829,-6.24023 2.28093,0.0214 11.38652,4.91392 14.92106,8.01729 4.86126,4.26824 11.92352,14.20566 15.2331,21.43473 2.4553,5.36309 5.35041,14.61624 5.37699,17.18556 0.0304,2.93433 -21.59844,4.21947 -32.13708,1.90952 z m -24.87854,-4.20617 c -11.48052,-7.65816 -19.28909,-21.27403 -18.9572,-34.3108 0.34449,-13.53179 0.81274,-7.30853 4.76668,-5.81609 2.33527,0.88147 4.22894,0.91954 7.13645,0.14348 l 3.9577,-1.05637 -2.45805,4.85072 c -5.29767,10.45444 -3.88467,20.15246 4.56219,31.3123 5.07856,6.70972 5.28875,7.74278 0.99223,4.87676 z m 63.2549,-4.16354 c -0.5979,-2.57794 -2.51281,-4.61953 -2.8592,-5.51417 -0.45992,-1.18784 1.25224,-2.6119 3.25482,-3.11451 8.24637,-2.06971 21.1261,-13.46545 25.51843,-22.57823 12.32948,-25.58 -1.00632,-52.60618 -28.87165,-58.51097 -16.97882,-3.59789 -35.80537,-0.11774 -57.77318,10.67956 -10.33367,5.07905 -17.61117,10.60995 -32.929914,25.17848 -12.264632,11.66399 -13.031639,11.88227 -14.010184,10.96425 -4.409071,-4.13637 -0.418127,-2.28051 4.773642,-8.82731 C 102.87456,127.12385 125.78194,112.7252 151.5,105.75827 c 6.37123,-1.72594 10.74855,-2.16433 21.5,-2.15321 12.11123,0.0125 14.32297,0.29746 21.5,2.76981 9.87964,3.40336 15.52554,6.64201 21.88734,12.55522 5.97908,5.55748 10.72664,12.78016 13.0619,19.87169 2.36404,7.17893 1.76401,20.55825 -1.26464,28.19822 -4.56982,11.52771 -18.58215,26.11385 -31.2564,32.53638 l -4.61371,2.33795 z M 177.06256,167.9729 c -11.66499,-16.01854 -28.17759,-22.18815 -42.19965,-15.76708 l -5.36291,2.45582 0.34069,-4.2051 c 0.21017,-2.59401 -3.13194,-4.32265 -4.17137,-6.33269 -1.99973,-3.86705 1.50831,-5.71432 8.1363,-6.71655 17.27199,-2.61175 34.92727,9.42282 46.12339,31.43961 1.21578,2.39079 1.93029,5.31251 1.72741,5.51539 -0.20289,0.20288 -2.2073,-3.11214 -4.59386,-6.3894 z M 74.174314,144.68555 C 72.978441,143.4126 72,142.13173 72,141.83917 72,141.54661 84.440853,128.75061 99.646341,113.40362 128.86314,83.914928 168.11219,42.721523 171.395,38.100614 l 1.95317,-2.749295 6.79048,4.07434 c 6.09025,3.6542 6.79413,4.403391 6.82591,7.265324 -8.39541,10.854387 -13.96615,18.127873 -21.40473,25.83953 -10.30144,10.708218 -18.57913,19.464616 -18.39486,19.458663 0.18426,-0.006 2.54405,-0.680954 5.24396,-1.5 2.69991,-0.819047 8.18234,-1.617599 9.4675,-1.888983 6.49136,-1.370769 3.40394,1.157657 -2.48932,5.493323 -2.89264,2.128114 -4.96468,3.238675 -7.81116,3.969227 -15.8363,4.064407 -33.08587,11.881567 -45.35603,20.554457 -7.830292,5.53467 -21.043047,20.2664 -24.901667,25.83439 -1.472025,2.12413 -2.472729,3.6336 -3.53744,3.17668 -0.348584,-0.1496 -2.410626,-1.66977 -3.606499,-2.94272 z M 231.279,121.60747 C 228.61391,118.66258 213.36373,106.6626 206.31699,103.08171 197.78424,98.745674 186.43585,96.053341 175.88527,95.861972 170.99837,95.773332 167,95.495384 167,95.244309 c 0,-0.251075 1.38781,-2.208757 3.08403,-4.350405 2.48648,-3.139438 -2.89092,-3.037174 -0.1844,-3.037174 3.02106,-0.02336 10.71701,0.661821 14.49942,1.14327 5.39369,0 18.30493,3.72857 24.9149,7.195047 7.07521,3.710463 19.00886,15.142853 22.50003,21.554953 2.53872,4.66276 2.22298,6.90499 -0.53498,3.85747 z M 107.97732,35.670382 c -5.9953,-4.752345 -6.54724,-5.514004 -6.82647,-9.420382 -0.21567,-3.017294 0.081,-4.249509 1.02268,-4.248306 3.55568,0.0045 28.26961,-0.995739 35.32647,-1.429815 4.4,-0.27065 11.54253,-0.887513 10.44253,-0.581027 -2.89275,0.805996 -24.12165,14.154284 -26.97833,17.217389 -1.33338,1.429722 -1.81851,1.953306 -5.19753,1.791759 -1.03541,-0.0495 -6.93763,-0.03464 -6.59771,0.51536 0.94646,1.531402 5.81513,1.709133 -1.19164,-3.844978 z M 129,38.459776 c 0,-0.146957 3.66387,-2.617471 8.14194,-5.490032 6.99056,-4.484255 9.01145,-5.292632 14.2906,-5.716392 5.44579,-0.437136 6.85846,-0.135244 12.35806,2.640942 3.41517,1.723973 6.85559,3.675365 6.85559,4.138981 0,0.463615 -7.73369,1.232859 -16.39619,1.906876 -8.6625,0.674018 -17.8875,1.576786 -20.5,2.006153 -2.6125,0.429366 -4.75,0.660429 -4.75,0.513472 z m 56.5,-4.530783 C 180.55,31.081627 175.375,27.965484 174,27.00423 169.21376,23.658199 161.04867,20 158.36658,20 c -1.48495,0 -4.79293,-0.08787 -4.48809,-0.392703 0.81328,-0.813288 40.35462,-5.581259 41.31514,-4.987625 1.14769,0.709311 8.80873,12.09848 8.79534,13.075459 -0.006,0.442678 -2.14357,3.191224 -4.75,6.10788 L 194.5,39.106022 Z"
         id="path531"
         sodipodi:nodetypes="csscsssscsssccsssscssssssssssssssssssscssscsssssssssscscccsssssssssssssccssssscssssssssssssssssssscscs" />
      <path
         style="fill:#060606"
         d="m 108.8129,296.53024 c -12.021812,-3.31106 -21.919016,-11.12995 -26.321773,-20.79445 -4.456254,-9.78193 -8.749369,-27.49528 -9.263816,-38.22241 -0.501541,-10.45803 1.069107,-24.72123 3.330165,-30.24154 0.727221,-1.77549 0.927757,-3.47195 0.445636,-3.76992 C 76.058802,202.91831 41.007999,201.0652 29.5,200.99047 l -7,-0.0455 6.5,-5.69191 c 3.575,-3.13055 9.486509,-8.69443 13.136688,-12.36417 6.625269,-6.66078 6.632601,-6.67444 4.26147,-7.94343 -2.916401,-1.56081 -8.338706,-11.85372 -13.541704,-25.70559 -5.562796,-14.80974 -8.467661,-20.1519 -13.562918,-24.94273 -2.458437,-2.31155 -4.231916,-4.58787 -3.941063,-5.05848 0.290852,-0.4706 4.943031,-3.6463 10.338174,-7.05711 5.395144,-3.4108 11.126041,-7.36852 12.735326,-8.79492 2.650014,-2.34887 2.797193,-2.79592 1.56053,-4.740069 C 39.23551,97.46597 37.824226,94.925 36.850317,93 35.876408,91.075 30.829283,83.425 25.634485,76 20.439687,68.575 16.337368,62.346915 16.51822,62.159812 16.699072,61.972709 21.268958,63.180474 26.673521,64.843734 32.078085,66.506995 39.2,68.630467 42.5,69.562562 c 3.3,0.932095 6.520055,1.893687 7.155677,2.136871 1.237464,0.473446 -0.130512,-5.181687 -6.299762,-26.042837 -1.926342,-6.513873 -3.29584,-12.050005 -3.043328,-12.302516 0.252511,-0.252512 6.922979,2.664348 14.823262,6.481909 7.900283,3.817562 16.896672,8.08434 19.991976,9.481731 l 5.627825,2.540709 0.610584,-4.179214 c 0.33582,-2.298568 0.9078,-8.986068 1.271066,-14.86111 0.363266,-5.875042 0.970494,-11.183502 1.349395,-11.796578 0.988144,-1.59885 5.353061,0.93633 19.360095,11.244504 l 11.91152,8.766032 4.80863,-4.497904 c 2.64474,-2.473847 8.58645,-6.960417 13.20379,-9.970155 6.74929,-4.399406 9.65326,-5.66661 14.81223,-6.463606 10.32712,-1.59541 13.88352,-0.480611 29.9186,9.378379 4.67586,2.874899 10.34257,6.1663 12.59269,7.314225 l 4.09113,2.087136 -0.84907,6.309931 c -1.12218,8.339602 -3.00139,13.682711 -7.56517,21.509835 -2.07413,3.557236 -4.7689,8.235755 -5.98839,10.396709 -1.21948,2.160954 -4.70698,7.010508 -7.75,10.776786 C 169.48974,91.639678 167,94.941595 167,95.210993 c 0,0.269399 3.99837,0.562339 8.88527,0.650979 22.57836,0.409531 44.86855,11.871638 62.82303,32.304998 20.50883,23.34037 35.40412,49.47282 51.83183,90.9343 9.55512,24.11596 20.52621,58.11387 19.24963,59.65205 -2.65878,3.20364 -4.14313,0.49093 -10.80863,-19.75332 -7.97892,-24.23332 -14.45986,-41.34769 -22.91039,-60.5 -7.36325,-16.68811 -20.22175,-40.28057 -24.50483,-44.96088 -1.68625,-1.84263 -5.51216,-6.53398 -8.50203,-10.42523 -2.98987,-3.89124 -5.5867,-6.9244 -5.77074,-6.74036 -0.18404,0.18404 0.17882,2.72871 0.80636,5.65482 2.10783,9.82845 -0.88184,24.09905 -7.36707,35.16525 -3.92817,6.70292 -10.98523,14.09425 -19.79488,20.73253 -12.32953,9.29058 -22.26729,13.34923 -37.97326,15.50856 l -4.53572,0.62359 -0.0452,8.72086 c -0.0396,7.64469 -1.16459,15.21549 -5.51749,37.1327 -1.00151,5.04264 -1.95437,6.34966 -13.96776,19.15926 -15.10465,16.10575 -19.58721,18.9836 -29.34442,18.83948 -3.32951,-0.0492 -8.16285,-0.67033 -10.74076,-1.38034 z m 20.21103,-7.05726 c 1.38817,-0.70979 7.96911,-6.94337 14.62431,-13.85238 l 12.10038,-12.56186 2.8379,-14.77937 c 1.56084,-8.12865 2.8549,-18.21835 2.87569,-22.42155 0.0486,-9.81731 -1.16239,-11.34409 -9.75465,-12.29891 C 148.2934,213.17952 136.5,211.1263 125.5,208.99622 c -11,-2.13009 -24.00901,-4.4024 -28.90892,-5.0496 -8.827266,-1.16592 -8.925779,-1.15503 -10.748325,1.18834 C 81.931684,210.16368 80,219.4055 80,233.08866 c 0,11.2491 0.387411,14.3028 3.06288,24.1426 3.834699,14.1032 5.752636,18.4519 10.413084,23.61046 8.182546,9.0571 26.172396,13.42514 35.547966,8.63126 z m 49.64416,-83.57563 c 3.48255,-0.60647 6.32657,-1.61897 6.32004,-2.25 -0.0266,-2.56932 -2.92169,-11.82247 -5.37699,-17.18556 -11.48431,-25.08502 -33.11004,-36.67595 -45.98724,-24.64817 -6.32301,5.90592 -8.31016,15.87707 -4.73349,23.75176 4.07533,8.97257 14.90227,18.006 23.96064,19.99149 7.28168,1.59606 17.80962,1.73491 25.81704,0.34048 z m -51.68781,-9.42341 c -8.44686,-11.15984 -9.85986,-20.85786 -4.56219,-31.3123 l 2.45805,-4.85072 -3.74849,1.00053 c -4.84296,1.29266 -8.6924,0.27764 -12.18224,-3.2122 -10.276833,-10.27683 3.16359,-26.75731 15.5689,-19.09041 3.94011,2.43513 5.82755,6.60927 5.33307,11.79432 l -0.36878,3.86708 5.37361,-2.46012 c 15.40023,-7.05046 32.7874,0.80367 45.58948,20.59366 4.81101,7.43707 9.93502,19.18532 11.08264,25.4101 l 0.6847,3.71389 4.66645,-2.36467 c 12.72631,-6.44891 26.73103,-21.01454 31.30912,-32.5631 3.02865,-7.63997 3.62868,-21.01929 1.26464,-28.19822 -2.33526,-7.09153 -7.08282,-14.31421 -13.0619,-19.87169 -6.3618,-5.91321 -12.0077,-9.15186 -21.88734,-12.55522 -7.17703,-2.47235 -9.38877,-2.75729 -21.5,-2.76981 -10.75145,-0.0111 -15.12877,0.42727 -21.5,2.15321 -26.3465,7.13717 -50.19243,22.41464 -64.3853,41.25 -7.940015,10.5372 -8.224229,11.62809 -3.992716,15.32509 1.857909,1.62323 6.895879,6.34211 11.195488,10.4864 l 7.817468,7.53507 -5.093292,7.46343 c -2.801314,4.10488 -4.916687,7.64003 -4.700831,7.85589 0.215857,0.21586 4.978185,1.07547 10.582953,1.91024 5.60476,0.83478 14.10227,2.36127 18.88336,3.39221 4.78108,1.03094 9.01233,1.90795 9.40279,1.94892 0.39045,0.041 -1.51289,-2.86225 -4.22964,-6.45158 z m -39.246225,-7.87276 5.143687,-7.39881 -9.311861,-8.56396 -9.31186,-8.56395 -16.87701,14.61012 c -9.282356,8.03556 -17.021451,14.97713 -17.197988,15.4257 -0.316524,0.80427 8.244386,1.27035 30.866162,1.68043 L 82.590369,196 Z m -22.497227,-26.3625 c 5.709019,-4.81775 8.727762,-8.27147 11.057968,-12.65134 4.094773,-7.69656 18.137523,-22.41712 28.507704,-29.88371 13.30063,-9.57653 30.16316,-17.37715 46.7913,-21.645694 3.61671,-0.928433 5.30652,-2.567073 14.5,-14.060933 11.96506,-14.958946 17.3495,-23.383295 19.43586,-30.408825 2.74762,-9.25224 2.70855,-9.318957 -9.80834,-16.750671 -16.91023,-10.0402 -17.19685,-10.153427 -24.26557,-9.586018 -5.28545,0.424265 -7.31653,1.22969 -14.14183,5.607935 -4.38348,2.811885 -10.78683,8.045991 -14.22966,11.631348 -3.70432,3.85766 -6.73418,6.236203 -7.42198,5.826504 -0.63926,-0.380779 -6.43143,-4.65794 -12.87149,-9.504801 C 96.350722,35.965614 90.667496,32 90.161397,32 c -0.506099,0 -1.229294,6.1875 -1.607101,13.75 -0.377807,7.5625 -0.908897,14.526447 -1.180201,15.475437 -0.418895,1.465252 -3.214803,0.363082 -18.541244,-7.309109 -9.926381,-4.969001 -18.202,-8.880512 -18.390265,-8.692247 -0.188265,0.188265 2.29472,8.652364 5.517745,18.809109 3.223024,10.156746 5.703724,18.626046 5.512666,18.820667 C 61.281939,83.048478 54.769091,81.089243 47,78.5 39.230909,75.910757 32.700495,73.966172 32.487968,74.178699 c -0.212527,0.212526 4.084501,6.794193 9.54895,14.625925 l 9.935362,14.239516 -7.445907,4.72793 c -4.095249,2.60036 -10.178731,6.42616 -13.518848,8.50177 l -6.07294,3.77384 2.42085,3.22616 c 3.455637,4.60518 7.007043,12.00183 11.47955,23.90892 5.062873,13.47881 7.500073,18.14904 10.843834,20.77924 3.825004,3.00875 6.281289,2.10515 15.558009,-5.72332 z"
         id="path529" />
    </g>
  </g>
</svg>
