<?xml version="1.0" encoding="UTF-8" standalone="no"?>
<!-- Created with Inkscape (http://www.inkscape.org/) -->

<svg
   version="1.1"
   id="svg479"
   width="247.42223"
   height="228.27104"
   viewBox="0 0 247.42223 228.27104"
   sodipodi:docname="サ.png"
   xmlns:inkscape="http://www.inkscape.org/namespaces/inkscape"
   xmlns:sodipodi="http://sodipodi.sourceforge.net/DTD/sodipodi-0.dtd"
   xmlns="http://www.w3.org/2000/svg"
   xmlns:svg="http://www.w3.org/2000/svg">
  <defs
     id="defs483" />
  <sodipodi:namedview
     id="namedview481"
     pagecolor="#ffffff"
     bordercolor="#000000"
     borderopacity="0.25"
     inkscape:showpageshadow="2"
     inkscape:pageopacity="0.0"
     inkscape:pagecheckerboard="0"
     inkscape:deskcolor="#d1d1d1"
     showgrid="false" />
  <g
     inkscape:groupmode="layer"
     inkscape:label="Image"
     id="g485"
     transform="translate(-8.8000002,-14.5)">
    <g
       id="g489">
      <path
         style="fill:#b1b1b1"
         d="m 100,223.5 c 0,-0.275 0.225,-0.5 0.5,-0.5 0.275,0 0.5,0.225 0.5,0.5 0,0.275 -0.225,0.5 -0.5,0.5 -0.275,0 -0.5,-0.225 -0.5,-0.5 z M 118.5,213 c -79,-142 -39.5,-71 0,0 z m -3.21708,-7.35359 -5.21708,-6.92258 9.49748,-4.27735 c 29.8693,-13.45217 48.53154,-32.52503 56.20972,-57.44648 3.10819,-10.08843 5.34539,-25.16859 5.54506,-37.377271 L 181.5,88.5 l 5.85128,0.343927 5.85127,0.343927 -0.47433,24.156076 c -0.52685,26.83026 -0.99686,29.51593 -7.53652,43.06417 -4.97161,10.29971 -11.24567,18.57696 -20.95203,27.64163 -9.18115,8.57418 -14.67545,12.36836 -31.23967,21.57304 l -12.5,6.94621 z M 97.169213,143.49787 C 107.02474,133.071 107.45035,131.68093 107.80829,108.75 L 108.11657,89 123.88182,88.365648 c 9.27941,-0.373379 -7.00642,-8.206337 -7.54774,-2.069175 L 116,90.084129 V 115.04206 140 h -7.21565 -7.21565 l -5.034351,4.74787 c -4.78302,4.51085 -4.751326,4.44844 0.634864,-1.25 z m 0.929656,-35.62543 C 98.020109,89.847113 97.716788,85.009845 96.607546,84.089255 95.632514,83.280051 88.10891,82.964306 71.510053,83.035984 c -13.037772,0.0563 -23.936167,-0.128765 -24.218657,-0.411255 -0.669842,-0.669842 -0.669842,-13.579616 0,-14.249458 0.28249,-0.28249 11.180885,-0.467555 24.218657,-0.411255 16.890513,0.07294 24.114138,-0.237159 25.128134,-1.078701 1.165858,-0.967576 1.40574,-5.673275 1.327079,-26.032937 -0.05281,-13.66853 0.270902,-24.964486 0.719358,-25.102125 1.406376,-0.43164 2.084316,106.118307 0.704667,110.749747 -1.010386,3.39183 -1.206586,0.55963 -1.290422,-18.62756 z M 48,81.5 C 48,81.225 47.775,81 47.5,81 47.225,81 47,81.225 47,81.5 c 0,0.275 0.225,0.5 0.5,0.5 0.275,0 0.5,-0.225 0.5,-0.5 z m 0,-12 C 48,69.225 47.775,69 47.5,69 47.225,69 47,69.225 47,69.5 47,69.775 47.225,70 47.5,70 47.775,70 48,69.775 48,69.5 Z M 95.5,84 c -63.666667,-56 -31.833333,-28 0,0 z m 104.65026,0.0131 c -0.95768,-1.549556 -2.12665,-17.362847 -1.13644,-16.750863 0.48692,0.300934 0.20025,-0.796038 -0.12641,-0.267486 -0.37475,0.606367 12.80358,1.031215 29.63896,0.972673 14.67488,-0.05103 26.90981,0.135425 27.18873,0.414343 0.27892,0.278917 0.50712,3.482123 0.50712,7.118234 0,3.636111 -0.2282,6.839317 -0.50712,7.118234 -0.27892,0.278918 -12.51385,0.465372 -27.18873,0.414343 -18.07533,-0.06285 -29.92309,0.239484 -29.4918,0.937321 0.35015,0.566556 -0.11062,0.821203 -0.38562,0.821203 -0.275,0 1.83677,-0.235207 1.50131,-0.778002 z M 108,74.161237 c 0,-5.41132 -0.29656,-19.36132 -0.65902,-31 L 106.68195,22 h 3.03403 C 113.87855,22 114,22.967426 114,56.125 V 84 h -3 -3 z M 116,75 v -9 h 4 4 v 9 9 h -4 -4 z m 10,0 v -9 h 4.5 4.5 v 9 9 h -4.5 -4.5 z m 11,0 v -9 h 4 4 v 9 9 h -4 -4 z m 10.63029,6.75 c -0.33164,-1.2375 -0.53348,-6.975 -0.44853,-12.75 0.0849,-5.775 -0.37018,-10.363013 -0.70668,-8.316743 C 145.40099,67.214715 148.16652,66 152.56037,66 H 157 v 9 9 h -4.38337 c -3.70039,0 -4.47732,-0.350576 -4.98634,-2.25 z M 159,75 v -9 h 5 5 v 9 9 h -5 -5 z m 12.63592,4.360429 c -0.34975,-2.551764 -0.55481,-8.739264 -0.45567,-13.75 0.10196,-5.153285 -0.46802,-7.995549 -0.48971,-5.300475 l -0.0433,5.376697 L 176.02806,66 h 4.96297 l 0.30561,-14.64555 c 0.22456,-10.761558 0.78236,-7.591363 0.31784,9.731146 L 181,84 h -4.36408 -4.36407 z M 182.99737,73.25 c -10e-4,-5.9125 -0.29787,-19.8625 -0.65872,-31 L 181.68255,22 h 6.31613 6.31612 l -0.65434,17.25 c -0.35989,9.4875 -0.65572,23.4375 -0.6574,31 L 193,84 h -5 -5 l -0.003,-10.75 z m -59.25338,-21 c -82.495993,-34.833333 -41.247997,-17.416667 0,0 z m 11,-2 c -89.829327,-33.5 -44.914663,-16.75 0,0 z m 21.69826,3.25 c -104.294833,-35.666667 -52.14742,-17.833333 0,0 z m -31.04177,-8.496539 c -83.60032,-30.002307 -41.80016,-15.001154 0,0 z"
         id="path493"
         sodipodi:nodetypes="sssssccccssscccssssccsscsscccccsssssssssssssssssssssssccssssssssssssscsscccscccccccccccccccccccccccccccscsscccsscccccccccssscccsscccscscccssccccccccccccc" />
      <path
         style="fill:#0c0c0c"
         d="M 49,241.55316 C 26.353886,235.78423 8.8,218.00812 8.8,200.84426 c 0,-10.94698 7.437101,-21.36392 19.698524,-27.5912 2.749189,-1.39624 14.378631,-6.5148 25.843206,-11.37457 C 82.7475,149.83743 94.775041,141.14042 98.552941,129.90974 100.23905,124.8974 100.3525,120.47802 100.09741,69.75 L 99.822097,15 140.91105,14.77381 c 22.59892,-0.124405 45.25145,-0.236905 50.33895,-0.25 L 200.5,14.5 200.51165,44 c 0.006,16.225 -0.29989,43.45 -0.68065,60.5 -0.74736,33.46631 -1.51311,38.96706 -7.21762,51.8478 -5.98735,13.51939 -18.72845,28.97969 -33.01996,40.06706 -9.1749,7.11791 -66.90976,39.46262 -77.406953,43.36559 C 73.863015,242.8752 57.599882,243.74392 49,241.55316 Z m 30.3303,-7.57346 c 6.173858,-1.90691 58.09413,-30.11885 70.6697,-38.39982 8.33686,-5.48979 20.62542,-16.98773 26.60763,-24.89573 5.26729,-6.96294 11.702,-19.66761 14.06812,-27.77605 1.16905,-4.00622 1.70123,-11.68045 2.05303,-29.60516 l 0.4749,-24.197055 -5.85184,-0.302942 c -3.21851,-0.166619 -22.36321,-0.179738 -42.54377,-0.02915 l -36.69193,0.273788 -0.30807,19.726209 c -0.29061,18.6079 -0.44606,19.99627 -2.74214,24.48985 -3.00485,5.88071 -13.255105,15.88658 -22.56593,22.02793 -3.85,2.53943 -15.775,8.28915 -26.5,12.77714 -24.514921,10.25853 -28.15586,12.112 -33.537636,17.07275 -12.6829607,11.69074 -8.338736,30.11722 9.964714,42.26635 13.97044,9.27305 30.609629,11.60447 46.903222,6.57189 z M 114,56.125 C 114,22.967426 113.87855,22 109.71598,22 h -3.03403 l 0.65903,21.161237 c 0.36246,11.63868 0.65902,25.58868 0.65902,31 V 84 h 3 3 z m 9.99131,1.625 c -0.005,-14.4375 -0.29246,-28.6125 -0.63929,-31.5 C 122.73141,21.083206 122.66816,21 119.36071,21 H 116 V 52.5 84 h 4 4 l -0.009,-26.25 z m 10.99768,-1.5 c -0.006,-15.2625 -0.28993,-29.4375 -0.63084,-31.5 -0.58987,-3.568736 -0.80401,-3.75 -4.42998,-3.75 -2.09557,0 -4.07217,0.423972 -4.39242,0.94216 -0.32026,0.518188 -0.27486,14.693188 0.10089,31.5 L 126.31983,84 H 130.65991 135 l -0.011,-27.75 z m 9.77526,-3.5 L 144.5,21.5 141.12284,21.177158 c -1.85743,-0.177564 -3.76792,0.06792 -4.24551,0.545512 -0.48215,0.48215 -0.5762,14.524349 -0.21147,31.572843 L 137.32274,84 h 3.85288 3.85287 z m 12,0 L 156.5,21.5 h -4.80942 -4.80942 l 0.0882,28.940451 c 0.0485,15.917247 0.34901,29.979747 0.66783,31.25 C 148.13299,83.666004 148.85397,84 152.62265,84 h 4.40584 z m 12,0 L 168.5,21.5 h -5 -5 l 0.0263,8.25 c 0.0145,4.5375 0.12697,18.6 0.25,31.25 L 159,84 h 5.01425 5.01424 z M 181,64.657002 c 0,-10.63865 -0.29415,-24.81365 -0.65368,-31.5 L 179.69265,21 H 175.34632 171 v 26.860429 c 0,14.773236 0.28617,28.948236 0.63592,31.5 L 172.27185,84 H 176.63592 181 Z M 193.00306,70.25 c 0.002,-7.5625 0.29751,-21.5125 0.6574,-31 L 194.3148,22 h -6.31612 -6.31613 l 0.6561,20.25 c 0.36085,11.1375 0.65728,25.0875 0.65872,31 L 183,84 h 5 5 l 0.003,-13.75 z"
         id="path491" />
    </g>
  </g>
</svg>
