<?xml version="1.0" encoding="UTF-8" standalone="no"?>
<!-- Created with Inkscape (http://www.inkscape.org/) -->

<svg
   version="1.1"
   id="svg569"
   width="391.38147"
   height="324.56021"
   viewBox="0 0 391.38147 324.56021"
   sodipodi:docname="シ.png"
   xmlns:inkscape="http://www.inkscape.org/namespaces/inkscape"
   xmlns:sodipodi="http://sodipodi.sourceforge.net/DTD/sodipodi-0.dtd"
   xmlns="http://www.w3.org/2000/svg"
   xmlns:svg="http://www.w3.org/2000/svg">
  <defs
     id="defs573" />
  <sodipodi:namedview
     id="namedview571"
     pagecolor="#ffffff"
     bordercolor="#000000"
     borderopacity="0.25"
     inkscape:showpageshadow="2"
     inkscape:pageopacity="0.0"
     inkscape:pagecheckerboard="0"
     inkscape:deskcolor="#d1d1d1"
     showgrid="false" />
  <g
     inkscape:groupmode="layer"
     inkscape:label="Image"
     id="g575"
     transform="translate(-15.513899,-15.381954)">
    <g
       id="g579">
      <path
         style="fill:#afafaf"
         d="m 271.56203,271.25 c -1.95086,-3.7125 -3.44592,-7.2 -3.32235,-7.75 0.12358,-0.55 6.0827,-3.13441 13.2425,-5.74313 43.9735,-16.02205 72.53783,-37.31783 100.5339,-74.9518 l 8.69991,-11.69494 5.59831,6.477 c 5.09224,5.89148 5.87115,10.82465 2.98187,10.82465 -0.52361,0 -0.15318,-0.98941 0.16585,-0.47324 0.31902,0.5162 -11.84729,16.86485 -12.82136,17.43193 -0.97407,0.56708 13.73795,-18.71017 14.28795,-18.68121 0.55,0.029 -3.55361,5.28426 -4.92861,6.41975 -1.375,1.1355 -1.69054,1.45055 -0.86554,1.02878 0.825,-0.42176 -1.87938,2.66856 -3.7085,4.40238 -1.82937,1.73381 -2.45448,0.22237 -2.12864,0.74959 0.32584,0.52722 -4.10251,4.10776 -4.7465,4.50574 1.35273,-0.32635 5.93916,-3.80291 2.85062,-1.30704 -0.93784,0.76087 -0.31244,1.28082 -0.17143,1.89495 0.14103,0.61413 -3.39218,0.84769 -3.74319,0.84769 -2.15113,1.47838 12.03093,-14.02416 13.91038,-15.7286 1.58363,-1.24196 -10.00998,15.12918 -11.24368,16.70285 -0.74982,0.95644 -3.68854,4.70807 -4.06549,5.34907 -0.22462,0.38197 -5.30699,4.26845 -10.95566,10.00313 -24.54937,24.92319 -47.64179,39.29722 -84.42766,52.55252 C 280.76729,276.24953 275.72933,278 275.50923,278 c -0.22009,0 -1.99634,-3.0375 -3.9472,-6.75 z m 14.23544,-70.98404 -7.70252,-5.32383 4.61375,-7.30759 4.61376,-7.3076 7.33877,5.4543 c 4.03632,2.99986 7.33877,5.7767 7.33877,6.17074 0,0.39405 -1.74116,3.20205 -3.86925,6.23999 -2.12809,3.03795 -4.04059,5.94526 -4.25,6.46068 -0.20941,0.51542 -3.84689,-1.45859 -8.08328,-4.38669 z m -12.54917,-8.61904 c -0.52699,-0.85268 -3.14725,-2.7025 -2.2483,-2.14692 0.89222,0.55142 0.55882,0.52511 -0.18614,-0.11115 -5.30359,-3.4679 -11.54728,-7.85259 -13.72993,-9.66646 11.83579,7.2928 4.40157,2.72019 -0.26644,-0.01 l -4.67508,-3.04987 4.48724,-5.8315 C 259.09764,167.62418 261.30179,165 261.52777,165 c 0.22598,0 4.34718,2.325 9.15822,5.16667 4.81105,2.84166 10.41013,6.41037 11.04556,6.41037 0.63544,0 -2.0196,1.94379 -4.50325,5.83963 -5.60689,8.79494 -3.03793,10.75456 -3.98,9.23025 z m 36.95283,-37.82038 c -3.41349,-2.38517 -4.06442,-3.28633 -3.16052,-4.37547 0.9008,-1.08539 0.44145,-1.79567 -2.20113,-3.40356 -1.83671,-1.11756 -3.48948,-1.58543 -3.67281,-1.03972 -0.59344,1.76644 -2.0954,1.09172 -11.20503,-5.03358 C 285.03274,136.66002 281,134.49603 281,135.16534 c 0,0.7494 -0.48022,0.60066 -1.25,-0.38717 -0.6875,-0.88225 -2.72958,-2.48124 -4.53795,-3.55332 l -3.28796,-1.94923 4.19717,-5.38781 c 2.30845,-2.96329 4.3302,-5.55498 4.49279,-5.7593 C 281.54989,116.95242 323,143.89167 323,145.67598 c 0,0.38454 -4.45474,6.26213 -7.94998,10.48921 -0.30251,0.36585 -2.48451,-0.68654 -4.84889,-2.33865 z"
         id="path583"
         sodipodi:nodetypes="sssscssssssscsccsccssssssscccsssssssccccsssssssssssssscsssss" />
      <path
         style="fill:#040404"
         d="M 67.222632,337.25 C 63.151656,331.39954 16.057085,257.31234 15.520844,255.91491 15.139148,254.92023 30.486514,238.70594 62.476909,206.30643 88.614609,179.83447 110,157.81756 110,157.37996 c 0,-0.4376 1.65147,-2.48689 3.66992,-4.55398 3.31097,-3.39074 3.48214,-3.81829 1.75,-4.37129 -3.19753,-1.02085 -17.652879,-8.60635 -21.953915,-11.52041 C 85.912732,131.81675 76.424284,120.6671 72.092407,111.81868 66.777581,100.96244 65,93.614262 65,82.5 65,71.25641 66.789336,63.947904 72.222462,53 75.554362,46.286125 78.233112,42.707911 84.970382,35.971615 94.373104,26.570253 102.22157,21.831909 115,17.841863 c 10.92494,-3.411296 28.29367,-3.256056 39.16665,0.350068 11.90179,3.947336 20.39561,9.231429 29.33335,18.248577 13.15047,13.267303 19.5,28.405091 19.5,46.489554 0,17.630518 -6.45887,32.554798 -19.97418,46.153578 -7.11433,7.15828 -10.10806,9.35783 -18.02838,13.24582 -5.22359,2.56419 -13.66707,5.69076 -18.76329,6.94793 l -9.26585,2.28576 4.01585,3.92138 C 143.19287,157.64128 145,159.90021 145,160.50438 145,161.73019 186.37324,202 187.63264,202 c 0.43926,0 2.95162,2.12058 5.58301,4.71241 L 198,211.42482 v -4.56319 c 0,-2.50975 0.40671,-5.86783 0.9038,-7.46241 0.49708,-1.59457 1.67477,-7.17422 2.61708,-12.39922 4.8486,-26.8849 19.06673,-57.67249 38.69261,-83.78404 l 7.11298,-9.463575 6.58677,0.637124 c 3.62272,0.350417 16.05573,0.919956 27.62891,1.265641 23.78784,0.71053 37.11697,-0.314508 56.45785,-4.341724 18.85418,-3.925874 17.16125,-4.534361 19.12823,6.875241 0.91866,5.328763 2.44866,12.078763 3.39999,15.000003 5.20908,15.99532 18.47707,37.43277 31.90378,51.54775 17.88912,18.80615 17.37397,16.89325 8.23441,30.57692 -35.57856,53.2679 -87.9985,86.87276 -148.40185,95.13599 -11.45145,1.56657 -36.43553,2.2455 -39.40325,1.07077 -4.28083,-1.6945 -11.97664,-32.10243 -13.92481,-55.0201 -0.6078,-7.15 -1.28491,-13.94945 -1.50468,-15.10988 C 197.04469,219.34604 141.08291,164 139.40322,164 c -0.45899,0 -2.92913,-2.06311 -5.48921,-4.58469 -4.48047,-4.4131 -4.67547,-4.49731 -5.21022,-2.25 -1.09466,4.60035 -1.81274,14.40671 -6.75338,92.22734 -2.75479,43.39096 -5.24714,79.27846 -5.53857,79.75 -0.78902,1.27665 -3.01798,1.03685 -4.25873,-0.45817 -0.79543,-0.95842 0.25617,-22.19887 3.87408,-78.25 2.73122,-42.31396 4.9565,-80.98448 4.94507,-85.93448 l -0.0208,-9 -5.22573,5.77774 c -2.87416,3.17775 -5.73075,5.76525 -6.34799,5.75 C 108.14733,166.99733 26,250.27549 26,251.55326 c 0,0.43409 -0.6943,1.55645 -1.542889,2.49413 -1.392901,1.53914 -1.373729,2.08147 0.197218,5.57874 0.957059,2.13063 12.270934,20.42067 25.141943,40.64455 14.029164,22.04365 23.174479,37.36316 22.834167,38.25 -0.887459,2.31268 -3.310547,1.74332 -5.407807,-1.27068 z M 251.69878,285.46554 C 288.26772,280.71063 323.00671,265.75515 352,242.28487 367.87024,229.4378 391.89063,202.2149 399.84663,188.0591 l 2.15552,-3.83524 -7.62064,-8.86193 C 385.77593,165.35462 377.28259,154.36077 371.31157,145.5 c -8.97605,-13.32012 -17.28759,-33.30017 -18.89581,-45.42348 -0.37366,-2.816774 -1.01006,-5.325786 -1.41424,-5.57558 -0.40417,-0.249793 -6.08236,0.621004 -12.61819,1.935105 -19.79877,3.980765 -32.34985,4.912325 -56.74411,4.211655 -12.17657,-0.34975 -24.41971,-0.912928 -27.20698,-1.251518 l -5.06775,-0.615618 -6.58309,8.859716 c -22.58387,30.39405 -35.23233,62.02737 -38.86931,97.21069 l -1.17338,11.35098 9.88065,9.97068 c 5.43435,5.48388 12.82668,12.6037 16.42739,15.82182 l 6.54675,5.85113 15.20325,-23.88426 c 8.36179,-13.13634 15.20245,-24.23909 15.20146,-24.67279 -9.8e-4,-0.43369 -1.98217,-2.03964 -4.40265,-3.56876 -7.45064,-4.70693 -7.56294,-5.45421 -1.90169,-12.65414 0.18785,-0.23891 2.97763,1.42465 6.19952,3.69679 l 5.85798,4.13116 11.12432,-17.28846 c 6.11837,-9.50865 11.10876,-17.6972 11.08974,-18.19679 -0.019,-0.49958 -4.03558,-3.63357 -8.92571,-6.96442 l -8.89115,-6.05609 2.62612,-4.08495 2.62611,-4.08496 8.76124,5.89105 c 8.91396,5.99373 10.41266,6.66089 11.00463,4.89883 0.18333,-0.54571 1.8361,-0.0778 3.67281,1.03972 2.61921,1.59367 3.09722,2.32383 2.21626,3.38532 -0.89266,1.0756 0.53208,2.5133 6.94111,7.00422 l 8.06432,5.65082 -1.78059,3.03295 c -3.06161,5.21499 -3.50004,5.20706 -11.20332,-0.20274 -3.97448,-2.79117 -7.75529,-4.86137 -8.40179,-4.60045 -0.64651,0.26092 -5.98807,8.15462 -11.87013,17.54155 l -10.69466,17.06716 10.94466,7.56741 C 295.0749,206.65583 300,210.35706 300,210.71871 c 0,0.97026 -4.40216,7.26648 -5.08611,7.27446 -0.32237,0.004 -5.20376,-3.16604 -10.84755,-7.04399 -5.64378,-3.87795 -10.70348,-6.90347 -11.24377,-6.72337 -0.5403,0.1801 -8.3043,11.79047 -17.25334,25.80082 -15.46798,24.21622 -16.43441,25.48943 -19.58241,25.79883 -3.07805,0.30253 -4.35714,-0.7185 -18.14912,-14.48749 C 209.67696,233.19084 203,227.0342 203,227.65655 c 0,9.5756 4.3275,35.01187 8.12732,47.77096 3.82106,12.83042 2.04961,11.57249 16.29671,11.57249 6.86045,0 17.78408,-0.69051 24.27475,-1.53446 z M 150.42004,141.36661 c 20.36823,-5.19347 37.54943,-21.60306 43.83525,-41.86661 3.0198,-9.734905 3.01559,-24.29098 -0.01,-34 -6.2655,-20.106822 -23.94105,-36.706721 -44.70554,-41.984968 -7.65157,-1.944996 -23.42823,-1.944996 -31.0798,0 C 101.48719,27.829475 85.009954,40.943302 77.643448,56 c -8.755737,17.896205 -8.615273,35.722976 0.422996,53.68367 13.049031,25.93082 43.175246,39.12279 72.353596,31.68294 z"
         id="path581" />
    </g>
  </g>
</svg>
