<?xml version="1.0" encoding="UTF-8" standalone="no"?>
<!-- Created with Inkscape (http://www.inkscape.org/) -->

<svg
   version="1.1"
   id="svg466"
   width="228.71532"
   height="187.01985"
   viewBox="0 0 228.71532 187.01985"
   sodipodi:docname="テ.png"
   xmlns:inkscape="http://www.inkscape.org/namespaces/inkscape"
   xmlns:sodipodi="http://sodipodi.sourceforge.net/DTD/sodipodi-0.dtd"
   xmlns="http://www.w3.org/2000/svg"
   xmlns:svg="http://www.w3.org/2000/svg">
  <defs
     id="defs470" />
  <sodipodi:namedview
     id="namedview468"
     pagecolor="#ffffff"
     bordercolor="#000000"
     borderopacity="0.25"
     inkscape:showpageshadow="2"
     inkscape:pageopacity="0.0"
     inkscape:pagecheckerboard="0"
     inkscape:deskcolor="#d1d1d1"
     showgrid="false" />
  <g
     inkscape:groupmode="layer"
     inkscape:label="Image"
     id="g472"
     transform="translate(-28.287951,-9.9801512)">
    <g
       id="g476"
       inkscape:export-filename="..\all_svg\テ.svg"
       inkscape:export-xdpi="96"
       inkscape:export-ydpi="96">
      <path
         style="fill:#afafaf"
         d="m 108.68237,194.2538 c -1.37257,-1.37257 -3.56442,-3.69739 -5.10883,-2.47049 -0.97903,0.77776 2.55652,0.79169 5.72182,-2.78331 13.67777,-15.44816 26.58451,-37.03608 31.68705,-53 3.71926,-11.6362 6.10366,-25.84826 6.31443,-37.636766 0.11174,-6.249592 0.54066,-11.362971 0.95316,-11.363064 0.4125,-9.4e-5 0.75181,4.61233 0.75402,10.24983 0.004,10.05847 2.03438,26.09059 3.93864,31.09918 0.72308,1.90186 0.44131,4.1162 -1.12539,8.84396 -1.14949,3.46877 -2.64257,6.98186 -3.31795,7.80686 -0.67537,0.825 -3.19633,5.325 -5.60212,10 -5.33512,10.36736 -13.3544,21.16917 -23.06066,31.06226 -4.01351,4.09076 -6.91498,7.7641 -7.09853,8.09288 -0.89797,1.60842 -2.59097,1.56333 -4.05564,0.0987 z m -10.067088,-8.44922 c -1.57241,-0.87997 -0.705561,-2.11539 7.124138,-10.15323 10.64424,-10.9272 16.20657,-18.19493 21.37076,-27.92299 5.05157,-9.51594 4.99333,-7.87873 -0.0786,2.20881 -5.05041,10.04477 -14.39323,27.29444 -23.29758,37.81501 -2.19309,0.65637 -3.6547,-0.18774 -5.118718,-1.9476 z M 139.41127,106.5 c -92.940847,-71 -46.470423,-35.5 0,0 z M 218.1834,86.250981 c 1.27505,2.207922 0.31993,2.056757 0,0 z M 61.515861,72.31389 C 63.982137,68.63653 66,65.264223 66,64.819876 c 0,-0.444348 35.8875,-0.923099 79.75,-1.063891 L 225.5,63.5 l 3.04438,5 c 1.67442,2.75 3.86367,6.2375 4.86501,7.75 L 235.23002,79 H 146.13087 57.031722 Z M 46.84255,72.40307 c -0.188403,-3.078313 -0.216628,-6.426193 0.325452,-6.760425 1.002895,-0.618356 13.409892,-1.039824 14.121337,-0.346355 0.398426,0.388357 -13.04781,13.815306 -13.729184,13.815306 -0.206281,0 -0.529203,-3.630216 -0.717605,-6.708529 z m 192.7675,-0.638426 -7.73636,-8.296424 6.09917,-0.164083 c 1.83566,-0.04938 4.89901,-0.0811 5.42213,0.363417 0.8023,0.681754 0.95517,14.148067 0.16866,14.949844 -0.14278,0.145554 -1.9219,-3.9572 -3.9536,-6.852754 z M 77.071902,19.870184 c -0.179069,-0.04216 -0.281567,-2.095042 -0.305832,-2.061852 -0.03619,0.04949 0.03872,-0.462313 0.09992,-3.142341 0.04485,-1.964032 -0.05108,-3.814235 0.26122,-4.126536 0.689649,-0.6896489 136.97553,-0.7700356 137.66437,-0.0812 0.26764,0.267642 0.53652,2.299366 0.59751,4.514943 l 0.1109,5.937219 -69.69098,-1.909656 C 94.229273,17.587385 78.050037,20.10045 77.071902,19.870184 Z"
         id="path480"
         sodipodi:nodetypes="sssssscsssssssscsssccccccssscsscccsssssssscsssssssssscss" />
      <path
         style="fill:#0b0b0b"
         d="m 48.23636,195.7848 c -0.717152,-0.86412 -1.340842,-16.37494 -1.841446,-45.79574 L 45.637919,105.5 l -5.126911,25 c -2.819801,13.75 -5.416805,25.675 -5.771121,26.5 -0.354316,0.825 -1.631407,6.675 -2.83798,13 -1.206573,6.325 -2.584283,12.175 -3.061576,13 -0.596122,1.03039 -0.70537,0.71732 -0.348956,-1 C 36.266301,144.53774 45.976123,95.259935 45.901937,93.640566 45.848002,92.463255 44.542131,95.325 43,100 c -3.978956,12.06228 -3.641685,8.68958 0.5,-5 1.913584,-6.325 3.483914,-12.488669 3.489622,-13.697042 0.0098,-2.075966 9.235554,-15.409725 11.172518,-16.147381 C 61.314,63.955251 73,31.515679 73,23.966651 73,23.055479 73.822933,21.565231 74.828741,20.654988 76.493486,19.148413 82.891453,19 146.17375,19 c 79.43272,0 71.68099,-1.039537 73.76451,9.892107 C 222.27155,41.134281 229.75705,59.755085 234.4535,65 240.45082,71.697704 245,79.413256 245,82.887185 c 0,1.958881 1.82616,10.259463 4.05814,18.445735 2.23197,8.18628 3.86887,15.0734 3.63754,15.30473 -0.23132,0.23133 -1.71998,-4.43001 -3.30813,-10.35853 L 246.5,95.5 l -0.29963,5.17422 c -0.1648,2.84582 2.19917,21.52082 5.25325,41.5 3.05409,19.97918 5.55142,37.41328 5.54963,38.74245 -0.009,6.58586 -1.64002,-1.52204 -5.95685,-29.60937 l -4.73487,-30.8073 -0.40577,36.59673 c -0.32252,29.08869 -0.68733,36.93592 -1.7782,38.25 C 242.92299,196.79777 239.90762,197 219.47634,197 h -23.27878 l -6.89581,-7.38397 C 175.58277,174.92588 160.67801,150.85 154.87128,134 c -3.79822,-11.02169 -5.86224,-23.94983 -5.86726,-36.75 -0.002,-5.6375 -0.34152,-10.249924 -0.75402,-10.24983 -0.4125,9.3e-5 -0.84142,5.113472 -0.95316,11.363064 -0.21077,11.788506 -2.59517,26.000566 -6.31443,37.636766 -5.25223,16.43225 -19.15763,39.42333 -32.5945,53.8915 l -6.13745,6.6085 -26.464827,0.29574 C 54.93665,197.02872 49.090691,196.8142 48.23636,195.7848 Z M 104.76621,182.75 c 23.51461,-27.78273 34.25516,-53.63438 34.58778,-83.25 L 139.5,86.5 96.75,86.239264 54,85.978527 V 138.48926 191 H 75.891808 97.783616 Z M 238,138.5 V 86 l -38.75,0.01365 c -21.3125,0.0075 -39.82841,0.30223 -41.14647,0.654934 l -2.39647,0.641279 0.62175,12.267546 c 1.61088,31.783821 11.50059,55.107901 35.47825,83.672581 l 6.50547,7.75 H 218.15627 238 v -52.5 z m -3.61116,-60.75 c -0.40106,-0.6875 -1.94331,-3.05 -3.42722,-5.25 -6.2953,-9.333222 -13.89159,-27.40075 -16.92266,-40.25 L 212.80052,27 H 146 79.199482 l -1.231726,5.25 c -3.577114,15.246787 -9.864191,30.3304 -17.089418,41 L 56.984561,79 H 146.0513 c 70.97562,0 88.91862,-0.253898 88.33754,-1.25 z"
         id="path478" />
    </g>
  </g>
</svg>
