<?xml version="1.0" encoding="UTF-8" standalone="no"?>
<!-- Created with Inkscape (http://www.inkscape.org/) -->

<svg
   version="1.1"
   id="svg1015"
   width="310.08002"
   height="291.12241"
   viewBox="0 0 310.08002 291.12241"
   sodipodi:docname="フ.png"
   xmlns:inkscape="http://www.inkscape.org/namespaces/inkscape"
   xmlns:sodipodi="http://sodipodi.sourceforge.net/DTD/sodipodi-0.dtd"
   xmlns="http://www.w3.org/2000/svg"
   xmlns:svg="http://www.w3.org/2000/svg">
  <defs
     id="defs1019" />
  <sodipodi:namedview
     id="namedview1017"
     pagecolor="#ffffff"
     bordercolor="#000000"
     borderopacity="0.25"
     inkscape:showpageshadow="2"
     inkscape:pageopacity="0.0"
     inkscape:pagecheckerboard="0"
     inkscape:deskcolor="#d1d1d1"
     showgrid="false" />
  <g
     inkscape:groupmode="layer"
     inkscape:label="Image"
     id="g1021"
     transform="translate(-9.1524744,-11.577921)">
    <g
       id="g1025">
      <path
         style="fill:#aeaeae"
         d="m 162.99728,278.27082 c -1.1432,-1.93759 -1.32029,-2.39177 -1.78792,-3.75979 -1.40327,-4.10523 2.56988,-4.1 7.79488,-5.56922 C 223.38828,253.6496 255.42643,226.78777 270.32042,174 c 1.31904,-4.675 2.67127,-9.94229 3.00494,-11.70508 l 0.60667,-3.20509 -6.71601,-0.29491 c -43.0413,-1.89001 -6.20171,-0.35674 6.06089,-1.83073 12.57506,-1.51155 13.47245,-3.33301 15.35967,-1.32415 1.89777,2.02007 1.19569,4.0147 -4.24091,17.86525 -19.90233,50.70414 -40.41071,75.43329 -76.68211,92.46381 -9.95004,4.67185 -25.38312,10.55689 -36.92565,14.08074 l -5.71208,1.74385 z m 6.40534,-122.29101 c -7.04694,-0.7433 -14.45882,-2.13114 -21.65262,-4.05436 -3.53354,-0.94467 -3.75,-1.23121 -3.75,-4.96399 V 143 h 27.39301 c 22.00592,0 28.65857,-0.56741 29.07265,0.51166 0.28349,0.73877 -0.3307,4.72034 0.058,7.83157 L 201.23045,157 188.86522,156.86422 c -6.80087,-0.0747 -15.55904,-0.47266 -19.4626,-0.88441 z m 38.71089,-4.88615 c -0.61243,-2.85566 -3.10927,-7.22927 -3.10927,-7.8897 0,-0.91303 11.06708,-0.22693 39.57892,-0.53553 l 38.41472,-0.41578 0.33263,4.39302 c 0.11301,1.49254 -2.07091,1.48292 -3.58051,1.8228 -4.67406,1.05233 -51.14835,6.5476 -60.62778,7.16882 l -9.89521,0.64847 z"
         id="path1029"
         sodipodi:nodetypes="ssssscsssssscsssscssscssssscssscs" />
      <path
         style="fill:#040404"
         d="M 94.17497,273.57459 C 58.796204,257.44603 29.344516,243.74452 28.726776,243.12678 27.895891,242.29589 28.098365,240.63695 29.504841,236.75181 32.568451,228.28913 32.001376,222.97645 26.809465,211.5 14.587384,184.48372 9.9997402,167.60233 9.281112,147 c -0.567005,-16.25544 0.6460338,-25.57967 5.534069,-42.53856 3.264302,-11.325399 10.76106,-30.615648 15.81196,-40.686476 1.855072,-3.69877 3.388805,-7.52377 3.408294,-8.5 0.01949,-0.97623 0.648095,-2.881398 1.3969,-4.233707 1.28182,-2.31491 1.090209,-2.741782 -3.275478,-7.297135 -5.988744,-6.248924 -7.07835,-8.319673 -7.121422,-13.53396 -0.06584,-7.97089 6.021078,-16.027305 13.714092,-18.151448 C 48.751959,9.2969089 60.956032,18.874496 60.973781,29.5 c 0.0068,4.04617 -3.796219,13.654193 -5.925341,14.970062 -0.845802,0.522735 -0.738932,1.353361 0.397223,3.087354 C 56.300548,48.862135 57,50.450076 57,51.086172 57,52.739494 73.801174,79.426435 83.382857,92.992634 90.845364,103.5584 98.205613,112 99.955426,112 c 0.392844,0 3.601084,-0.9347 7.129414,-2.0771 17.75475,-5.74864 64.80539,-34.467618 76.54992,-46.724882 3.87631,-4.045544 4.13498,-4.627874 2.91771,-6.568553 -2.3246,-3.706105 -2.82691,-11.036763 -1.04806,-15.295185 4.23516,-10.138581 14.48784,-14.871318 23.79333,-10.983236 4.30123,1.797167 9.32831,7.668769 10.81544,12.632376 2.46003,8.210846 -2.88684,17.073641 -12.77229,21.17093 l -5.59733,2.319965 0.5534,26.512843 c 0.53952,25.848392 1.90751,43.959762 3.70202,49.012842 0.48831,1.375 1.40863,5.15217 2.04516,8.39372 l 1.15733,5.89372 9.90798,-0.64931 c 9.48898,-0.62185 55.96326,-6.1166 60.64055,-7.16966 1.55425,-0.34993 2.25,-1.23597 2.25,-2.8654 0,-2.8645 2.51951,-9.10473 5.19861,-12.87571 4.31907,-6.07935 14.98189,-8.77158 21.42255,-5.40894 7.15556,3.73588 11.86142,12.60801 10.31776,19.45241 C 317.06067,155.09872 308.84385,162 300.80672,162 c -1.95901,0 -4.12072,0.67342 -4.8038,1.49648 -0.68308,0.82307 -3.84223,7.96938 -7.02033,15.8807 -20.31198,50.56313 -41.51579,74.97536 -82.20659,94.64555 -6.83808,3.30557 -18.24757,7.93726 -25.35443,10.29264 l -12.92157,4.28252 -3.57274,6.95105 c -1.96501,3.82308 -4.21501,7.04089 -5,7.15068 -0.78499,0.10979 -30.37352,-12.99647 -65.75229,-29.12503 z m 65.01934,18.89828 c 0.70118,-1.53892 0.79056,-2.87222 0.22856,-3.40965 C 158.91529,288.57783 145,282.46891 128.5,275.48785 112,268.50679 93.325,260.30135 87,257.25355 80.675,254.20575 67.23694,247.72687 57.137645,242.85605 47.038349,237.98522 38.41987,234 37.98547,234 c -0.434401,0 -1.24229,1.29796 -1.79531,2.88435 l -1.005491,2.88435 60.657666,27.5952 c 33.361715,15.17736 61.004815,27.6044 61.429105,27.61565 0.42429,0.0112 1.28958,-1.11676 1.92287,-2.50668 z m 19.59292,-15.10842 c 7.54202,-2.54955 18.35636,-6.6614 24.03186,-9.13745 39.78159,-17.3555 60.77873,-41.7361 81.57658,-94.72171 5.44895,-13.88201 5.47764,-14.01125 3.56295,-16.04933 l -1.93022,-2.05463 -22.7642,2.79233 c -38.49939,4.72246 -51.83256,5.80704 -71.1543,5.78802 -16.21271,-0.016 -33.02192,-1.45718 -40.6099,-3.48188 -1.77173,-0.47275 -4.31285,4.29041 -22.26444,41.73327 -11.14544,23.24681 -21.57401,45.04809 -23.1746,48.44729 l -2.91016,6.18036 29.1746,12.49386 c 16.04603,6.87162 29.97885,12.52795 30.96183,12.56964 0.98298,0.0417 7.95798,-2.01022 15.5,-4.55977 z M 119.50592,206 c 12.33355,-25.575 22.4275,-46.95 22.431,-47.5 0.004,-0.55 -2.50567,-2.52088 -5.57592,-4.37974 C 116.35532,142.00798 95.233633,120.96902 77.388044,95.378279 73.59962,89.945644 65.291183,77.175589 58.92485,67.00038 52.558518,56.825171 46.933518,48.5 46.42485,48.5 44.160429,48.5 30.428227,77.97932 23.975836,96.691958 11.700705,132.29117 12.549699,159.41015 27.084798,196 c 2.731053,6.875 7.091723,16.75795 9.690377,21.96212 L 41.5,227.42423 68,240.18682 c 14.575,7.01942 27.080786,12.66147 27.790637,12.53788 C 96.500487,252.60112 107.17236,231.575 119.50592,206 Z m 81.08142,-53.75 C 196.7084,125.33268 195,103.01726 195,79.267066 195,70.87018 194.63211,64 194.18247,64 c -0.44964,0 -4.77227,3.17303 -9.60586,7.051179 -18.03934,14.47357 -44.69533,30.917801 -67.94188,41.913741 l -11.86528,5.61244 10.24433,9.74066 c 5.63439,5.35737 14.80299,12.78897 20.37467,16.51468 8.74615,5.84844 11.27587,7.02153 18.51409,8.58544 11.1301,2.4048 20.03752,3.28224 34.98338,3.44608 L 201.27185,157 Z"
         id="path1027" />
    </g>
  </g>
</svg>
