<?xml version="1.0" encoding="UTF-8" standalone="no"?>
<!DOCTYPE svg PUBLIC "-//W3C//DTD SVG 1.1//EN" "http://www.w3.org/Graphics/SVG/1.1/DTD/svg11.dtd">
<svg width="100%" height="100%" viewBox="0 0 48 48" version="1.1" xmlns="http://www.w3.org/2000/svg" xmlns:xlink="http://www.w3.org/1999/xlink" xml:space="preserve" xmlns:serif="http://www.serif.com/" style="fill-rule:evenodd;clip-rule:evenodd;stroke-linejoin:round;stroke-miterlimit:2;">
    <g transform="matrix(4,0,0,4,-6.17956,-28.1479)">
        <path id="path285" d="M4.791,7.037C4.455,7.037 4.143,7.121 3.855,7.289C3.575,7.449 3.351,7.669 3.183,7.949C3.023,8.229 2.943,8.537 2.943,8.873L2.943,17.189C2.943,17.525 3.023,17.833 3.183,18.113C3.351,18.401 3.575,18.625 3.855,18.785C4.143,18.953 4.455,19.037 4.791,19.037L10.299,19.037C10.635,19.037 10.943,18.953 11.223,18.785C11.511,18.625 11.735,18.401 11.895,18.113C12.063,17.833 12.147,17.525 12.147,17.189L12.147,8.873C12.147,8.537 12.063,8.229 11.895,7.949C11.735,7.669 11.511,7.449 11.223,7.289C10.943,7.121 10.635,7.037 10.299,7.037L4.791,7.037ZM4.923,7.445L10.155,7.445C10.443,7.445 10.707,7.517 10.947,7.661C11.195,7.797 11.387,7.985 11.523,8.225C11.667,8.465 11.739,8.729 11.739,9.017L11.739,17.069C11.739,17.357 11.667,17.621 11.523,17.861C11.387,18.109 11.195,18.301 10.947,18.437C10.707,18.581 10.443,18.653 10.155,18.653L4.923,18.653C4.635,18.653 4.371,18.581 4.131,18.437C3.891,18.301 3.699,18.109 3.555,17.861C3.419,17.621 3.351,17.357 3.351,17.069L3.351,9.017C3.351,8.729 3.419,8.465 3.555,8.225C3.699,7.985 3.891,7.797 4.131,7.661C4.371,7.517 4.635,7.445 4.923,7.445ZM5.571,17.957C5.587,17.949 5.615,17.945 5.655,17.945L5.739,17.909C5.747,17.909 5.771,17.901 5.811,17.885L5.847,17.873L6.003,17.777C6.059,17.737 6.095,17.709 6.111,17.693L6.279,17.573C6.319,17.533 6.395,17.465 6.507,17.369C6.539,17.345 6.591,17.305 6.663,17.249L6.735,17.177L6.903,17.057L7.011,16.997C7.027,16.989 7.051,16.989 7.083,16.997L7.155,17.009L7.191,17.021C7.231,17.037 7.259,17.049 7.275,17.057L7.407,17.105L7.683,17.237L8.187,17.453L8.343,17.501C8.407,17.517 8.447,17.525 8.463,17.525L8.583,17.537L8.703,17.525L8.799,17.489C8.839,17.473 8.871,17.453 8.895,17.429L8.955,17.369L8.991,17.297C8.999,17.289 9.011,17.261 9.027,17.213L9.039,17.093L9.039,16.949L8.955,16.625L8.847,16.349C8.791,16.197 8.747,16.085 8.715,16.013L8.703,15.977C8.655,15.865 8.627,15.797 8.619,15.773C8.611,15.741 8.599,15.697 8.583,15.641L8.559,15.545C8.559,15.521 8.567,15.501 8.583,15.485L8.751,15.245L9.195,14.765C9.211,14.741 9.247,14.701 9.303,14.645C9.351,14.573 9.387,14.525 9.411,14.501L9.495,14.369C9.503,14.345 9.519,14.309 9.543,14.261L9.579,14.153L9.591,14.057L9.579,13.961C9.579,13.945 9.571,13.925 9.555,13.901L9.531,13.853C9.523,13.829 9.511,13.809 9.495,13.793L9.435,13.733C9.403,13.717 9.375,13.697 9.351,13.673L9.255,13.637C9.223,13.621 9.187,13.613 9.147,13.613L9.039,13.601C9.015,13.593 8.947,13.589 8.835,13.589C8.699,13.589 8.607,13.593 8.559,13.601C8.471,13.601 8.371,13.609 8.259,13.625L7.707,13.637L7.671,13.625C7.655,13.625 7.647,13.621 7.647,13.613L7.587,13.577C7.571,13.537 7.543,13.493 7.503,13.445C7.479,13.421 7.439,13.353 7.383,13.241L7.179,12.905C7.163,12.873 7.135,12.821 7.095,12.749L7.047,12.677C7.039,12.653 7.015,12.617 6.975,12.569L6.867,12.413C6.811,12.357 6.775,12.325 6.759,12.317C6.719,12.277 6.687,12.253 6.663,12.245C6.647,12.229 6.615,12.213 6.567,12.197C6.519,12.181 6.475,12.173 6.435,12.173C6.395,12.173 6.363,12.177 6.339,12.185C6.315,12.185 6.287,12.193 6.255,12.209L6.171,12.257L6.111,12.317L6.039,12.401C6.023,12.449 6.003,12.485 5.979,12.509C5.963,12.557 5.943,12.605 5.919,12.653L5.871,12.821C5.855,12.853 5.815,12.997 5.751,13.253L5.727,13.373C5.679,13.565 5.647,13.677 5.631,13.709C5.615,13.773 5.599,13.825 5.583,13.865C5.567,13.897 5.547,13.917 5.523,13.925L5.415,13.961C5.391,13.969 5.339,13.985 5.259,14.009L4.467,14.177C4.387,14.193 4.323,14.213 4.275,14.237C4.251,14.245 4.211,14.261 4.155,14.285L4.107,14.297C4.091,14.305 4.067,14.317 4.035,14.333L3.999,14.357L3.891,14.441L3.819,14.561C3.803,14.585 3.795,14.605 3.795,14.621L3.795,14.633C3.779,14.673 3.771,14.709 3.771,14.741C3.771,14.765 3.775,14.797 3.783,14.837L3.795,14.849C3.795,14.865 3.803,14.893 3.819,14.933L3.831,14.945C3.855,14.993 3.871,15.025 3.879,15.041C3.895,15.057 3.931,15.093 3.987,15.149C4.027,15.189 4.079,15.233 4.143,15.281L4.311,15.401L4.563,15.557C4.683,15.629 4.767,15.681 4.815,15.713C4.895,15.761 4.947,15.797 4.971,15.821L4.995,15.845C5.043,15.869 5.075,15.889 5.091,15.905L5.115,15.929C5.139,15.945 5.151,15.957 5.151,15.965C5.167,15.981 5.175,16.001 5.175,16.025C5.183,16.041 5.187,16.097 5.187,16.193L5.127,16.817C5.111,16.945 5.099,17.029 5.091,17.069L5.091,17.321C5.091,17.409 5.099,17.485 5.115,17.549C5.115,17.589 5.123,17.625 5.139,17.657L5.187,17.753L5.259,17.837C5.267,17.861 5.291,17.881 5.331,17.897L5.415,17.933L5.499,17.945C5.515,17.953 5.539,17.957 5.571,17.957L5.571,17.957ZM5.583,17.465C5.583,17.457 5.579,17.449 5.571,17.441L5.571,17.261C5.571,17.125 5.575,17.037 5.583,16.997C5.583,16.973 5.591,16.921 5.607,16.841L5.619,16.721C5.635,16.577 5.643,16.485 5.643,16.445C5.651,16.397 5.655,16.301 5.655,16.157C5.655,16.037 5.651,15.957 5.643,15.917L5.607,15.809L5.559,15.713C5.551,15.697 5.515,15.661 5.451,15.605C5.395,15.541 5.351,15.501 5.319,15.485C5.303,15.469 5.271,15.445 5.223,15.413L5.139,15.353L4.875,15.197C4.835,15.173 4.779,15.137 4.707,15.089L4.503,14.957C4.479,14.933 4.443,14.905 4.395,14.873C4.379,14.865 4.351,14.841 4.311,14.801L4.263,14.753L4.323,14.729C4.331,14.721 4.355,14.709 4.395,14.693L4.587,14.633C4.691,14.609 4.819,14.585 4.971,14.561L5.367,14.477C5.383,14.469 5.411,14.461 5.451,14.453C5.499,14.437 5.531,14.425 5.547,14.417L5.703,14.357C5.743,14.341 5.767,14.329 5.775,14.321C5.807,14.305 5.839,14.281 5.871,14.249L5.955,14.153L6.015,14.033L6.063,13.901C6.079,13.877 6.095,13.837 6.111,13.781L6.111,13.757C6.135,13.701 6.171,13.561 6.219,13.337C6.275,13.113 6.315,12.965 6.339,12.893L6.363,12.845C6.387,12.781 6.403,12.741 6.411,12.725C6.427,12.685 6.439,12.665 6.447,12.665L6.483,12.689L6.543,12.785C6.559,12.801 6.591,12.845 6.639,12.917L6.699,13.013C6.739,13.085 6.771,13.137 6.795,13.169C6.859,13.297 6.915,13.397 6.963,13.469C6.979,13.501 7.015,13.561 7.071,13.649L7.107,13.709L7.215,13.853C7.231,13.877 7.255,13.909 7.287,13.949C7.327,13.981 7.355,14.001 7.371,14.009L7.455,14.057L7.551,14.093L7.695,14.105C7.727,14.113 7.807,14.117 7.935,14.117C8.031,14.117 8.167,14.109 8.343,14.093L8.475,14.081C8.611,14.073 8.711,14.069 8.775,14.069L9.027,14.069L9.063,14.081C9.087,14.081 9.099,14.085 9.099,14.093L9.003,14.261C8.971,14.293 8.939,14.333 8.907,14.381L8.883,14.405C8.843,14.453 8.811,14.485 8.787,14.501L8.583,14.729C8.487,14.841 8.423,14.913 8.391,14.945C8.367,14.969 8.331,15.017 8.283,15.089C8.251,15.121 8.219,15.161 8.187,15.209C8.163,15.249 8.143,15.289 8.127,15.329C8.111,15.361 8.099,15.389 8.091,15.413L8.091,15.545C8.091,15.609 8.095,15.657 8.103,15.689L8.139,15.833L8.199,16.013L8.415,16.541C8.455,16.645 8.483,16.721 8.499,16.769C8.507,16.793 8.519,16.829 8.535,16.877L8.571,17.021L8.571,17.057L8.535,17.057L8.451,17.033C8.435,17.033 8.403,17.025 8.355,17.009L8.331,16.997C8.259,16.973 8.211,16.957 8.187,16.949C8.163,16.933 8.095,16.901 7.983,16.853L7.767,16.745C7.639,16.689 7.559,16.657 7.527,16.649C7.455,16.609 7.395,16.585 7.347,16.577C7.323,16.569 7.283,16.557 7.227,16.541L7.179,16.529C7.155,16.521 7.111,16.517 7.047,16.517C6.991,16.517 6.951,16.521 6.927,16.529C6.887,16.529 6.855,16.537 6.831,16.553C6.807,16.569 6.771,16.589 6.723,16.613L6.495,16.769L6.243,16.973C6.147,17.053 6.075,17.117 6.027,17.165L5.847,17.297C5.783,17.345 5.743,17.377 5.727,17.393L5.583,17.465ZM9.615,11.813C9.639,11.805 9.655,11.801 9.663,11.801C9.679,11.793 9.695,11.789 9.711,11.789L9.747,11.777L9.807,11.729L9.879,11.645L9.903,11.597L9.963,11.417L10.023,11.165C10.031,11.077 10.047,11.001 10.071,10.937C10.071,10.897 10.075,10.869 10.083,10.853C10.091,10.837 10.103,10.825 10.119,10.817L10.203,10.781C10.219,10.781 10.259,10.773 10.323,10.757L10.671,10.661L10.803,10.613L10.887,10.553C10.927,10.537 10.955,10.517 10.971,10.493C10.987,10.469 10.999,10.445 11.007,10.421C11.023,10.389 11.031,10.349 11.031,10.301C11.031,10.245 11.023,10.201 11.007,10.169C10.983,10.121 10.967,10.093 10.959,10.085L10.887,10.013C10.871,9.997 10.839,9.973 10.791,9.941L10.491,9.773C10.443,9.749 10.383,9.713 10.311,9.665L10.251,9.629C10.243,9.621 10.239,9.581 10.239,9.509L10.263,9.041C10.263,8.993 10.259,8.945 10.251,8.897L10.251,8.837L10.239,8.813C10.231,8.765 10.219,8.733 10.203,8.717C10.195,8.693 10.175,8.665 10.143,8.633C10.111,8.601 10.087,8.581 10.071,8.573C10.039,8.557 10.011,8.549 9.987,8.549L9.891,8.549C9.867,8.549 9.839,8.557 9.807,8.573C9.799,8.581 9.771,8.593 9.723,8.609C9.699,8.633 9.663,8.661 9.615,8.693C9.567,8.725 9.523,8.761 9.483,8.801L9.327,8.957L9.183,9.077C9.159,9.093 9.139,9.101 9.123,9.101L9.039,9.077C8.983,9.053 8.911,9.025 8.823,8.993L8.583,8.909L8.451,8.873C8.419,8.865 8.379,8.861 8.331,8.861C8.283,8.861 8.243,8.869 8.211,8.885C8.195,8.885 8.175,8.893 8.151,8.909L8.127,8.921C8.095,8.953 8.075,8.977 8.067,8.993L8.055,9.017C8.039,9.041 8.027,9.061 8.019,9.077L8.019,9.185C8.019,9.241 8.023,9.285 8.031,9.317L8.043,9.353C8.059,9.401 8.071,9.433 8.079,9.449C8.095,9.497 8.123,9.561 8.163,9.641C8.219,9.753 8.251,9.825 8.259,9.857C8.291,9.921 8.307,9.957 8.307,9.965L8.319,10.001L8.295,10.037L7.983,10.421L7.911,10.529C7.895,10.545 7.875,10.577 7.851,10.625L7.815,10.721L7.815,10.805C7.815,10.845 7.819,10.873 7.827,10.889L7.839,10.949C7.863,10.973 7.879,10.993 7.887,11.009C7.911,11.033 7.931,11.049 7.947,11.057L8.019,11.093L8.127,11.117L8.271,11.117C8.319,11.117 8.415,11.109 8.559,11.093L8.823,11.057L8.895,11.057C8.911,11.057 8.931,11.077 8.955,11.117L8.967,11.141C9.023,11.213 9.059,11.269 9.075,11.309C9.099,11.341 9.131,11.389 9.171,11.453L9.231,11.525C9.255,11.565 9.271,11.593 9.279,11.609C9.327,11.657 9.359,11.685 9.375,11.693C9.415,11.733 9.443,11.757 9.459,11.765C9.491,11.781 9.519,11.789 9.543,11.789C9.551,11.797 9.563,11.801 9.579,11.801C9.595,11.801 9.607,11.805 9.615,11.813L9.615,11.813ZM9.579,11.333C9.563,11.317 9.547,11.301 9.531,11.285C9.523,11.269 9.491,11.221 9.435,11.141L9.387,11.045C9.323,10.957 9.283,10.901 9.267,10.877C9.251,10.853 9.219,10.817 9.171,10.769C9.147,10.737 9.115,10.717 9.075,10.709L8.991,10.673L8.847,10.673C8.751,10.673 8.671,10.677 8.607,10.685C8.511,10.701 8.443,10.709 8.403,10.709C8.379,10.717 8.343,10.721 8.295,10.721L8.259,10.721L8.283,10.685C8.283,10.677 8.295,10.661 8.319,10.637L8.487,10.433C8.519,10.385 8.555,10.341 8.595,10.301L8.619,10.253C8.643,10.213 8.659,10.189 8.667,10.181C8.683,10.149 8.691,10.125 8.691,10.109C8.699,10.085 8.703,10.049 8.703,10.001C8.703,9.945 8.699,9.909 8.691,9.893C8.691,9.877 8.683,9.841 8.667,9.785L8.619,9.677C8.587,9.613 8.563,9.565 8.547,9.533L8.451,9.329L8.439,9.281L8.463,9.281C8.479,9.289 8.495,9.297 8.511,9.305L8.727,9.377C8.791,9.409 8.859,9.437 8.931,9.461L9.063,9.497L9.231,9.497L9.315,9.461L9.423,9.389C9.471,9.357 9.515,9.321 9.555,9.281C9.627,9.209 9.679,9.161 9.711,9.137C9.711,9.137 9.823,9.025 9.831,9.017L9.867,9.005L9.867,9.137C9.859,9.185 9.855,9.273 9.855,9.401C9.847,9.465 9.843,9.533 9.843,9.605L9.855,9.665L9.855,9.737C9.863,9.745 9.875,9.765 9.891,9.797C9.907,9.829 9.927,9.857 9.951,9.881C9.991,9.921 10.019,9.949 10.035,9.965C10.051,9.973 10.083,9.993 10.131,10.025L10.527,10.241L10.575,10.277L10.515,10.289L10.383,10.325L10.071,10.409C10.055,10.417 10.027,10.429 9.987,10.445L9.951,10.457L9.855,10.517C9.831,10.541 9.815,10.557 9.807,10.565L9.759,10.625L9.723,10.697L9.687,10.817C9.671,10.873 9.655,10.953 9.639,11.057L9.579,11.333Z" style="fill-rule:nonzero;"/>
    </g>
</svg>
